<svg xmlns="http://www.w3.org/2000/svg" width="99.861" height="96.64" viewBox="0 0 99.861 96.64">
  <g id="Grupo_1055084" data-name="Grupo 1055084" transform="translate(-344.01 -6017.352)">
    <g id="medicion_1_" data-name="medicion (1)" transform="translate(342.5 6007.842)">
      <path id="Trazado_774784" data-name="Trazado 774784" d="M247.927,121.164v67.648H183.5V111.5h64.427Z" transform="translate(-146.555 -82.662)" fill="#fff"/>
      <path id="Trazado_774785" data-name="Trazado 774785" d="M183.5,111.5h64.427v77.312H183.5Z" transform="translate(-146.555 -82.662)" fill="#73d8c0"/>
      <path id="Trazado_774786" data-name="Trazado 774786" d="M479.5,188.812V111.5h4.832v77.312" transform="translate(-382.961 -82.662)" fill="#025157"/>
      <path id="Trazado_774787" data-name="Trazado 774787" d="M231.5,243.041V191.5h45.1v51.541" transform="translate(-184.891 -146.555)" fill="#fff"/>
      <g id="Grupo_1055058" data-name="Grupo 1055058" transform="translate(46.609 33.771)">
        <path id="Trazado_774788" data-name="Trazado 774788" d="M231.5,136h3.221v3.02H231.5Z" transform="translate(-231.5 -136)" fill="#fff"/>
      </g>
      <g id="Grupo_1055059" data-name="Grupo 1055059" transform="translate(59.494 33.771)">
        <path id="Trazado_774789" data-name="Trazado 774789" d="M295.5,136h3.221v3.02H295.5Z" transform="translate(-295.5 -136)" fill="#fff"/>
      </g>
      <g id="Grupo_1055061" data-name="Grupo 1055061" transform="translate(11.174 57.83)">
        <path id="Trazado_774792" data-name="Trazado 774792" d="M55.5,319.5H68.385v12.885H55.5Z" transform="translate(-55.5 -306.615)" fill="#ffbf5d"/>
        <path id="Trazado_774795" data-name="Trazado 774795" d="M81.271,383.5v12.885H68.385L55.5,383.5Z" transform="translate(-55.5 -357.729)" fill="#ffe462"/>
      </g>
      <path id="Trazado_774799" data-name="Trazado 774799" d="M68.705,15.5l9.664,6.443-9.664,6.443H13.943a6.443,6.443,0,0,1,0-12.885Z" transform="translate(-5.99 -5.99)" fill="#ffe462"/>
      <path id="Trazado_774801" data-name="Trazado 774801" d="M321.164,21.943,311.5,28.385V15.5Z" transform="translate(-248.785 -5.99)" fill="#afafaf"/>
      <path id="Trazado_774802" data-name="Trazado 774802" d="M17.164,15.5V28.385H13.943a6.443,6.443,0,1,1,0-12.885Z" transform="translate(-5.99 -5.99)" fill="#f5947a"/>
      <path id="Trazado_774804" data-name="Trazado 774804" d="M55.5,15.5h6.443V28.385H55.5Z" transform="translate(-44.326 -5.99)" fill="#afafaf"/>
      <g id="Grupo_1055064" data-name="Grupo 1055064" transform="translate(0 8)">
        <g id="Grupo_1055062" data-name="Grupo 1055062" transform="translate(22.449 6.443)">
          <path id="Trazado_774806" data-name="Trazado 774806" d="M111.5,40h3.221v3.02H111.5Z" transform="translate(-111.5 -40)" fill="#fff"/>
        </g>
      </g>
      <rect id="Rectángulo_362089" data-name="Rectángulo 362089" width="36" height="11" transform="translate(52.5 51.407)" fill="#baefe4"/>
      <rect id="Rectángulo_362090" data-name="Rectángulo 362090" width="11" height="20" transform="translate(52.5 72.407)" fill="#baefe4"/>
      <rect id="Rectángulo_362091" data-name="Rectángulo 362091" width="11" height="20" transform="translate(65.5 72.407)" fill="#baefe4"/>
      <rect id="Rectángulo_362092" data-name="Rectángulo 362092" width="11" height="20" transform="translate(77.5 72.407)" fill="#baefe4"/>
      <g id="Grupo_1055065" data-name="Grupo 1055065" transform="translate(11.174 57.83)">
        <path id="Trazado_774790" data-name="Trazado 774790" d="M183.5,319.5h9.664v3.221H183.5Z" transform="translate(-157.729 -306.615)" fill="#a7c4d9"/>
        <path id="Trazado_774791" data-name="Trazado 774791" d="M231.5,319.5h41.877v3.221H231.5Z" transform="translate(-196.065 -306.615)" fill="#f2f2f2"/>
        <path id="Trazado_774793" data-name="Trazado 774793" d="M132.812,255.5H68.385L55.5,268.385h77.312Z" transform="translate(-55.5 -255.5)" fill="#ffe462"/>
        <path id="Trazado_774794" data-name="Trazado 774794" d="M413.943,268.385a6.443,6.443,0,1,1,0-12.885" transform="translate(-336.631 -255.5)" fill="#ffbf5d"/>
        <g id="Grupo_1055060" data-name="Grupo 1055060">
          <path id="Trazado_774796" data-name="Trazado 774796" d="M167.5,383.5h3.221v12.885H167.5Z" transform="translate(-144.951 -357.729)" fill="#ffbf5d"/>
          <path id="Trazado_774797" data-name="Trazado 774797" d="M55.5,268.385H68.385V255.5Z" transform="translate(-55.5 -255.5)" fill="#ffbf5d"/>
          <path id="Trazado_774798" data-name="Trazado 774798" d="M68.385,396.385V383.5H55.5Z" transform="translate(-55.5 -357.729)" fill="#ffbf5d"/>
        </g>
      </g>
      <rect id="Rectángulo_362093" data-name="Rectángulo 362093" width="1" height="9" transform="translate(25.5 61.407)" fill="#f5947a"/>
      <rect id="Rectángulo_362096" data-name="Rectángulo 362096" width="1" height="9" transform="translate(31.5 61.407)" fill="#f5947a"/>
      <rect id="Rectángulo_362101" data-name="Rectángulo 362101" width="1" height="9" transform="translate(43.5 61.407)" fill="#f5947a"/>
      <rect id="Rectángulo_362105" data-name="Rectángulo 362105" width="1" height="9" transform="translate(55.5 61.407)" fill="#f5947a"/>
      <rect id="Rectángulo_362109" data-name="Rectángulo 362109" width="1" height="9" transform="translate(67.5 61.407)" fill="#f5947a"/>
      <rect id="Rectángulo_362098" data-name="Rectángulo 362098" width="1" height="9" transform="translate(37.5 61.407)" fill="#f5947a"/>
      <rect id="Rectángulo_362100" data-name="Rectángulo 362100" width="1" height="9" transform="translate(49.5 61.407)" fill="#f5947a"/>
      <rect id="Rectángulo_362104" data-name="Rectángulo 362104" width="1" height="9" transform="translate(61.5 61.407)" fill="#f5947a"/>
      <rect id="Rectángulo_362108" data-name="Rectángulo 362108" width="1" height="9" transform="translate(73.5 61.407)" fill="#f5947a"/>
      <rect id="Rectángulo_362094" data-name="Rectángulo 362094" width="1" height="5" transform="translate(28.5 65.407)" fill="#f5947a"/>
      <rect id="Rectángulo_362102" data-name="Rectángulo 362102" width="1" height="5" transform="translate(40.5 65.407)" fill="#f5947a"/>
      <rect id="Rectángulo_362106" data-name="Rectángulo 362106" width="1" height="5" transform="translate(52.5 65.407)" fill="#f5947a"/>
      <rect id="Rectángulo_362110" data-name="Rectángulo 362110" width="1" height="5" transform="translate(64.5 65.407)" fill="#f5947a"/>
      <rect id="Rectángulo_362097" data-name="Rectángulo 362097" width="1" height="5" transform="translate(34.5 65.407)" fill="#f5947a"/>
      <rect id="Rectángulo_362099" data-name="Rectángulo 362099" width="1" height="5" transform="translate(46.5 65.407)" fill="#f5947a"/>
      <rect id="Rectángulo_362103" data-name="Rectángulo 362103" width="1" height="5" transform="translate(58.5 65.407)" fill="#f5947a"/>
      <rect id="Rectángulo_362107" data-name="Rectángulo 362107" width="1" height="5" transform="translate(70.5 65.407)" fill="#f5947a"/>
    </g>
  </g>
</svg>
