<svg xmlns="http://www.w3.org/2000/svg" xmlns:xlink="http://www.w3.org/1999/xlink" width="476.887" height="306.001" viewBox="0 0 476.887 306.001">
  <defs>
    <clipPath id="clip-path">
      <path id="Trazado_105871" data-name="Trazado 105871" d="M-247.176,799.049h-92.611l11.5-180.751h68.979Z" transform="translate(339.787 -618.298)" fill="none"/>
    </clipPath>
    <clipPath id="clip-path-2">
      <path id="Trazado_105876" data-name="Trazado 105876" d="M-220.426,572.68c-.972,24.286-23.315,38.858-34,58.288s3.885,43.715,6.8,70.915-27.2,87.432-21.372,120.462l162.233-1.943s-28.172-86.46-30.116-117.547,12.629-55.373,17.487-74.8-37.887-27.2-42.744-34-1.943-22.343-1.943-22.343Z" transform="translate(269.749 -571.708)" fill="none"/>
    </clipPath>
    <clipPath id="clip-path-3">
      <path id="Trazado_105879" data-name="Trazado 105879" d="M-244.505,681.093l124.995,44.04s26.553,59.906,23.64,67.678-196.235.97-196.235.97,9.186-36.849,21.372-63.144C-252.276,690.807-244.505,681.093-244.505,681.093Z" transform="translate(292.106 -681.093)" fill="none"/>
    </clipPath>
    <clipPath id="clip-path-4">
      <path id="Trazado_105895" data-name="Trazado 105895" d="M-58.584,794.779h-70.593L-120.413,657h52.579Z" transform="translate(129.176 -657.002)" fill="none"/>
    </clipPath>
    <clipPath id="clip-path-5">
      <path id="Trazado_105905" data-name="Trazado 105905" d="M-106.848,623.705l7.447,93.908a79.851,79.851,0,0,1-23.315,1.619c-15.022-1.077-19.43-2.915-19.43-2.915l9.528-91.662Z" transform="translate(142.145 -623.705)" fill="none"/>
    </clipPath>
    <clipPath id="clip-path-6">
      <path id="Trazado_105909" data-name="Trazado 105909" d="M-127.2,594.115c.9,4.2,5.229,3.336,10.422,1.054l1.134-12.287-10.208,2.833Z" transform="translate(127.204 -582.882)" fill="none"/>
    </clipPath>
    <clipPath id="clip-path-7">
      <path id="Trazado_105922" data-name="Trazado 105922" d="M-123.1,701.911s3.4,8.974,1.238,11.759-22.28,2.165-22.28,2.165a4.212,4.212,0,0,1,2.475-5.26c3.713-1.547,11.449-5.26,12.069-7.736S-123.1,701.911-123.1,701.911Z" transform="translate(144.336 -701.433)" fill="none"/>
    </clipPath>
    <clipPath id="clip-path-8">
      <path id="Trazado_105926" data-name="Trazado 105926" d="M-114.9,701.426s5.691,7.728,4.354,10.992c-.574,1.4-4.51,3.092-8.811,4.562-5.71,1.951-14.1.714-14.1.714s-.376-.914,2.784-3.4,9.837-7.672,9.768-10.222S-114.9,701.426-114.9,701.426Z" transform="translate(133.47 -701.426)" fill="none"/>
    </clipPath>
    <clipPath id="clip-path-9">
      <path id="Trazado_105941" data-name="Trazado 105941" d="M-303.641,662.325c-.9,4.2-5.227,3.338-10.42,1.054l-1.134-12.286,10.207,2.832Z" transform="translate(315.195 -651.093)" fill="none"/>
    </clipPath>
    <clipPath id="clip-path-10">
      <path id="Trazado_105953" data-name="Trazado 105953" d="M-305.273,770.12s-3.4,8.974-1.238,11.759,22.28,2.167,22.28,2.167a4.211,4.211,0,0,0-2.475-5.26c-3.713-1.548-11.449-5.26-12.068-7.737S-305.273,770.12-305.273,770.12Z" transform="translate(307.232 -769.643)" fill="none"/>
    </clipPath>
    <clipPath id="clip-path-11">
      <path id="Trazado_105956" data-name="Trazado 105956" d="M-313.488,769.636s-5.691,7.728-4.354,10.993c.575,1.4,4.51,3.091,8.811,4.56,5.71,1.951,14.1.715,14.1.715s.375-.916-2.785-3.4-9.837-7.673-9.768-10.223S-313.488,769.636-313.488,769.636Z" transform="translate(318.045 -769.636)" fill="none"/>
    </clipPath>
  </defs>
  <g id="Grupo_56057" data-name="Grupo 56057" transform="translate(399.981 -541.804)">
    <path id="Rectángulo_5070" data-name="Rectángulo 5070" d="M-361.05,769.387h399.9a9.277,9.277,0,0,1,9.276,9.277H-370.325a9.276,9.276,0,0,1,9.275-9.277Z" transform="translate(8.007 61.447)" fill="#d4c99b"/>
    <g id="Grupo_56056" data-name="Grupo 56056" transform="translate(-399.981 541.804)">
      <g id="Grupo_56010" data-name="Grupo 56010">
        <path id="Trazado_100521" data-name="Trazado 100521" d="M-107.487,579.968c-49.908-2.017-31.015,77.744,26.88,74.023S-66.548,581.624-107.487,579.968Z" transform="translate(471.185 -531.51)" fill="#f7f1d7"/>
        <g id="Grupo_53771" data-name="Grupo 53771" transform="translate(365.324 67.994)">
          <path id="Trazado_100522" data-name="Trazado 100522" d="M-66.151,595.962c16.015-3.212,31.594,7.126,31.594,7.126s-10.386,15.549-26.4,18.76-31.594-7.126-31.594-7.126S-82.167,599.175-66.151,595.962Z" transform="translate(117.662 -595.343)" fill="#8f8b66"/>
          <path id="Trazado_100523" data-name="Trazado 100523" d="M-111.744,629.227a.715.715,0,0,1-.568-.836.707.707,0,0,1,.22-.394,106.123,106.123,0,0,1,25.466-15.855A134.795,134.795,0,0,1-38.081,601a.714.714,0,0,1,.752.674.714.714,0,0,1-.674.752h-.027a135.276,135.276,0,0,0-48.007,11.033,104.6,104.6,0,0,0-25.091,15.608A.716.716,0,0,1-111.744,629.227Z" transform="translate(112.324 -593.817)" fill="#b3ae7f"/>
          <path id="Trazado_100524" data-name="Trazado 100524" d="M-70.5,605.785a.714.714,0,0,1-.565-.837.719.719,0,0,1,.279-.441l9.624-6.993a.715.715,0,0,1,1,.144.716.716,0,0,1-.144,1l-.017.011-9.624,6.993A.711.711,0,0,1-70.5,605.785Z" transform="translate(123.46 -594.795)" fill="#b3ae7f"/>
          <path id="Trazado_100525" data-name="Trazado 100525" d="M-65.815,613.367a.726.726,0,0,1-.232-.086l-11.968-7.123a.714.714,0,0,1-.278-.972.713.713,0,0,1,.97-.278l.037.022,11.97,7.122a.715.715,0,0,1,.246.98.713.713,0,0,1-.745.334Z" transform="translate(121.488 -592.785)" fill="#b3ae7f"/>
          <path id="Trazado_100526" data-name="Trazado 100526" d="M-86.094,610.436a.714.714,0,0,1-.569-.834.714.714,0,0,1,.155-.326l6.746-8.1a.713.713,0,0,1,1.008-.052.715.715,0,0,1,.088.966l-6.744,8.094A.712.712,0,0,1-86.094,610.436Z" transform="translate(119.249 -593.831)" fill="#b3ae7f"/>
        </g>
        <g id="Grupo_53793" data-name="Grupo 53793" transform="translate(341.698 10.259)">
          <path id="Trazado_100527" data-name="Trazado 100527" d="M-60.229,564.5c-2.854,1.226-13.852-.047-13.852-.047s6.56-9.059,9.407-10.286,11.266,1.057,11.266,1.057S-57.375,563.276-60.229,564.5Z" transform="translate(146.275 -548.822)" fill="#7d6871"/>
          <g id="Grupo_53773" data-name="Grupo 53773" transform="translate(0 13.543)">
            <g id="Grupo_53772" data-name="Grupo 53772">
              <path id="Trazado_100528" data-name="Trazado 100528" d="M-130.093,640.7l-.834-.22c16.163-60.957,76.216-79.817,76.806-79.932l.169.844C-54.535,561.507-114.054,580.207-130.093,640.7Z" transform="translate(130.927 -560.546)" fill="#54464c"/>
            </g>
          </g>
          <g id="Grupo_53776" data-name="Grupo 53776" transform="translate(56.741 22.658)">
            <path id="Trazado_100529" data-name="Trazado 100529" d="M-71.7,579.42c-2.9-1.115-9.881-9.708-9.881-9.708s11.021-1.9,13.919-.787,7.318,8.621,7.318,8.621S-68.8,580.536-71.7,579.42Z" transform="translate(87.51 -567.493)" fill="#7d6871"/>
            <g id="Grupo_53775" data-name="Grupo 53775">
              <g id="Grupo_53774" data-name="Grupo 53774">
                <path id="Trazado_100530" data-name="Trazado 100530" d="M-65.966,574.96c-5.063-2.4-20.131-6.363-20.283-6.4l.218-.834c.622.164,15.3,4.026,20.433,6.458Z" transform="translate(86.249 -567.723)" fill="#54464c"/>
              </g>
            </g>
          </g>
          <g id="Grupo_53779" data-name="Grupo 53779" transform="translate(38.859 34.803)">
            <path id="Trazado_100531" data-name="Trazado 100531" d="M-85.778,588.984c-2.9-1.114-9.881-9.706-9.881-9.706s11.022-1.9,13.922-.789,7.316,8.621,7.316,8.621S-82.879,590.1-85.778,588.984Z" transform="translate(101.59 -577.056)" fill="#7d6871"/>
            <g id="Grupo_53778" data-name="Grupo 53778">
              <g id="Grupo_53777" data-name="Grupo 53777">
                <path id="Trazado_100532" data-name="Trazado 100532" d="M-80.045,584.523c-5.065-2.4-20.132-6.363-20.284-6.4l.22-.834c.621.163,15.3,4.027,20.433,6.458Z" transform="translate(100.329 -577.286)" fill="#54464c"/>
              </g>
            </g>
          </g>
          <g id="Grupo_53782" data-name="Grupo 53782" transform="translate(24.185 49.309)">
            <path id="Trazado_100533" data-name="Trazado 100533" d="M-97.333,600.406c-2.9-1.116-9.881-9.708-9.881-9.708s11.021-1.9,13.919-.787,7.316,8.621,7.316,8.621S-94.435,601.521-97.333,600.406Z" transform="translate(113.145 -588.478)" fill="#7d6871"/>
            <g id="Grupo_53781" data-name="Grupo 53781">
              <g id="Grupo_53780" data-name="Grupo 53780">
                <path id="Trazado_100534" data-name="Trazado 100534" d="M-91.6,595.946c-5.065-2.4-20.132-6.363-20.283-6.4l.217-.834c.624.163,15.3,4.027,20.434,6.458Z" transform="translate(111.884 -588.708)" fill="#54464c"/>
              </g>
            </g>
          </g>
          <g id="Grupo_53785" data-name="Grupo 53785" transform="translate(13.108 63.869)">
            <path id="Trazado_100535" data-name="Trazado 100535" d="M-106.055,611.875c-2.9-1.116-9.881-9.706-9.881-9.706s11.022-1.905,13.919-.789S-94.7,610-94.7,610-103.157,612.989-106.055,611.875Z" transform="translate(121.867 -599.942)" fill="#7d6871"/>
            <g id="Grupo_53784" data-name="Grupo 53784">
              <g id="Grupo_53783" data-name="Grupo 53783">
                <path id="Trazado_100536" data-name="Trazado 100536" d="M-100.324,607.411c-5.065-2.4-20.131-6.365-20.282-6.4l.218-.833c.622.164,15.3,4.026,20.432,6.457Z" transform="translate(120.606 -600.173)" fill="#54464c"/>
              </g>
            </g>
          </g>
          <g id="Grupo_53789" data-name="Grupo 53789" transform="translate(47.453)">
            <g id="Grupo_53787" data-name="Grupo 53787">
              <g id="Grupo_53786" data-name="Grupo 53786">
                <path id="Trazado_100537" data-name="Trazado 100537" d="M-82.559,560.977c-.8,3-8.594,10.864-8.594,10.864s-3.076-10.753-2.277-13.754,7.781-8.2,7.781-8.2S-81.76,557.976-82.559,560.977Z" transform="translate(93.562 -549.882)" fill="#7d6871"/>
              </g>
            </g>
            <g id="Grupo_53788" data-name="Grupo 53788" transform="translate(0.816 6.869)">
              <path id="Trazado_100538" data-name="Trazado 100538" d="M-92.068,576.426l-.852-.127c.1-.636,2.363-15.64,4.23-21.008l.813.283C-89.716,560.865-92.042,576.271-92.068,576.426Z" transform="translate(92.92 -555.291)" fill="#54464c"/>
            </g>
          </g>
          <g id="Grupo_53792" data-name="Grupo 53792" transform="translate(25.138 14.789)">
            <path id="Trazado_100539" data-name="Trazado 100539" d="M-99.911,571.871c-.232,3.1-6.462,12.25-6.462,12.25s-4.994-10.01-4.752-13.108,6.154-9.487,6.154-9.487S-99.675,568.774-99.911,571.871Z" transform="translate(111.134 -561.527)" fill="#7d6871"/>
            <g id="Grupo_53791" data-name="Grupo 53791" transform="translate(4.102 7.277)">
              <g id="Grupo_53790" data-name="Grupo 53790">
                <path id="Trazado_100540" data-name="Trazado 100540" d="M-107.733,588.685c-.022-.644-.532-15.809.321-21.427l.852.129c-.842,5.54-.316,21.111-.311,21.267Z" transform="translate(107.904 -567.257)" fill="#54464c"/>
              </g>
            </g>
          </g>
        </g>
        <path id="Trazado_100541" data-name="Trazado 100541" d="M-302.845,824c-52.932-24.915-95.526-167.584-6.2-226.719s189.813-21.091,211.316,11.579,33.793,61.425,71.957,56.655c43.009-5.377,106.9,100.694,3,158.486Z" transform="translate(410.562 -535.179)" fill="#fff" opacity="0.5" style="isolation: isolate"/>
        <g id="Grupo_53849" data-name="Grupo 53849" transform="translate(403.432 173.244)">
          <path id="Trazado_100561" data-name="Trazado 100561" d="M-26.4,689.784c-2.257.969-10.956-.038-10.956-.038s5.189-7.165,7.445-8.134,8.908.836,8.908.836S-24.146,688.809-26.4,689.784Z" transform="translate(94.458 -677.378)" fill="#8f8b66"/>
          <g id="Grupo_53823" data-name="Grupo 53823" transform="translate(0 10.707)">
            <g id="Grupo_53822" data-name="Grupo 53822">
              <path id="Trazado_100562" data-name="Trazado 100562" d="M-81.659,750.049l-.659-.174c12.785-48.217,60.287-63.134,60.752-63.227l.133.669C-21.9,687.413-68.973,702.2-81.659,750.049Z" transform="translate(82.318 -686.648)" fill="#b3ae7f"/>
            </g>
          </g>
          <g id="Grupo_53827" data-name="Grupo 53827" transform="translate(44.879 17.92)">
            <path id="Trazado_100563" data-name="Trazado 100563" d="M-35.469,701.581c-2.292-.883-7.816-7.678-7.816-7.678s8.719-1.51,11.011-.624,5.791,6.819,5.791,6.819S-33.178,702.463-35.469,701.581Z" transform="translate(47.978 -692.145)" fill="#8f8b66"/>
            <g id="Grupo_53826" data-name="Grupo 53826">
              <g id="Grupo_53825" data-name="Grupo 53825">
                <g id="Grupo_53824" data-name="Grupo 53824">
                  <path id="Trazado_100564" data-name="Trazado 100564" d="M-30.936,698.052c-4-1.9-15.922-5.034-16.044-5.065l.175-.66c.491.129,12.1,3.186,16.162,5.11Z" transform="translate(46.98 -692.327)" fill="#b3ae7f"/>
                </g>
              </g>
            </g>
          </g>
          <g id="Grupo_53831" data-name="Grupo 53831" transform="translate(30.737 27.529)">
            <path id="Trazado_100565" data-name="Trazado 100565" d="M-46.607,709.146c-2.292-.883-7.814-7.678-7.814-7.678s8.719-1.51,11.011-.622,5.79,6.819,5.79,6.819S-44.314,710.028-46.607,709.146Z" transform="translate(59.114 -699.711)" fill="#8f8b66"/>
            <g id="Grupo_53830" data-name="Grupo 53830">
              <g id="Grupo_53829" data-name="Grupo 53829">
                <g id="Grupo_53828" data-name="Grupo 53828">
                  <path id="Trazado_100566" data-name="Trazado 100566" d="M-42.072,705.617c-4.006-1.9-15.925-5.033-16.044-5.065l.173-.659c.493.13,12.1,3.185,16.162,5.109Z" transform="translate(58.116 -699.893)" fill="#b3ae7f"/>
                </g>
              </g>
            </g>
          </g>
          <g id="Grupo_53835" data-name="Grupo 53835" transform="translate(19.127 39.002)">
            <path id="Trazado_100567" data-name="Trazado 100567" d="M-55.747,718.185c-2.292-.883-7.816-7.68-7.816-7.68s8.719-1.509,11.01-.623,5.791,6.82,5.791,6.82S-53.456,719.062-55.747,718.185Z" transform="translate(68.254 -708.745)" fill="#8f8b66"/>
            <g id="Grupo_53834" data-name="Grupo 53834">
              <g id="Grupo_53833" data-name="Grupo 53833">
                <g id="Grupo_53832" data-name="Grupo 53832">
                  <path id="Trazado_100568" data-name="Trazado 100568" d="M-51.213,714.651c-4.007-1.895-15.925-5.033-16.044-5.063l.173-.661c.493.13,12.1,3.186,16.162,5.11Z" transform="translate(67.257 -708.927)" fill="#b3ae7f"/>
                </g>
              </g>
            </g>
          </g>
          <g id="Grupo_53839" data-name="Grupo 53839" transform="translate(10.366 50.522)">
            <path id="Trazado_100569" data-name="Trazado 100569" d="M-62.645,727.252c-2.292-.881-7.816-7.677-7.816-7.677s8.717-1.51,11.01-.624,5.791,6.819,5.791,6.819S-60.351,728.135-62.645,727.252Z" transform="translate(75.154 -717.816)" fill="#8f8b66"/>
            <g id="Grupo_53838" data-name="Grupo 53838">
              <g id="Grupo_53837" data-name="Grupo 53837">
                <g id="Grupo_53836" data-name="Grupo 53836">
                  <path id="Trazado_100570" data-name="Trazado 100570" d="M-58.113,723.723c-4.006-1.9-15.923-5.033-16.043-5.065l.173-.66c.493.13,12.1,3.187,16.163,5.11Z" transform="translate(74.156 -717.998)" fill="#b3ae7f"/>
                </g>
              </g>
            </g>
          </g>
          <g id="Grupo_53844" data-name="Grupo 53844" transform="translate(37.537)">
            <g id="Grupo_53842" data-name="Grupo 53842">
              <g id="Grupo_53841" data-name="Grupo 53841">
                <g id="Grupo_53840" data-name="Grupo 53840">
                  <path id="Trazado_100571" data-name="Trazado 100571" d="M-44.061,686.991c-.631,2.374-6.8,8.594-6.8,8.594s-2.432-8.506-1.8-10.88,6.154-6.488,6.154-6.488S-43.429,684.618-44.061,686.991Z" transform="translate(52.762 -678.217)" fill="#8f8b66"/>
                </g>
              </g>
            </g>
            <g id="Grupo_53843" data-name="Grupo 53843" transform="translate(0.642 5.433)">
              <path id="Trazado_100572" data-name="Trazado 100572" d="M-51.58,699.213l-.676-.1c.076-.5,1.871-12.37,3.346-16.617l.643.225C-49.722,686.9-51.563,699.09-51.58,699.213Z" transform="translate(52.256 -682.495)" fill="#b3ae7f"/>
            </g>
          </g>
          <g id="Grupo_53848" data-name="Grupo 53848" transform="translate(19.885 11.698)">
            <path id="Trazado_100573" data-name="Trazado 100573" d="M-57.786,695.609c-.187,2.45-5.109,9.69-5.109,9.69s-3.948-7.918-3.758-10.367,4.869-7.5,4.869-7.5S-57.6,693.162-57.786,695.609Z" transform="translate(66.66 -687.428)" fill="#8f8b66"/>
            <g id="Grupo_53847" data-name="Grupo 53847" transform="translate(3.241 5.756)">
              <g id="Grupo_53846" data-name="Grupo 53846">
                <g id="Grupo_53845" data-name="Grupo 53845">
                  <path id="Trazado_100574" data-name="Trazado 100574" d="M-63.972,708.908c-.018-.508-.423-12.5.253-16.948l.674.1c-.665,4.381-.249,16.7-.245,16.822Z" transform="translate(64.109 -691.96)" fill="#b3ae7f"/>
                </g>
              </g>
            </g>
          </g>
        </g>
        <g id="Grupo_53852" data-name="Grupo 53852" transform="translate(16.721 119.255)">
          <path id="Trazado_100575" data-name="Trazado 100575" d="M-377.839,636.815c2.521,1.814,7.1,11.894,7.1,11.894s-11.149-.951-13.665-2.766a5.622,5.622,0,0,1-1.4-7.828,5.624,5.624,0,0,1,7.828-1.4Q-377.907,636.764-377.839,636.815Z" transform="translate(386.815 -635.706)" fill="#7d6871"/>
          <path id="Trazado_100576" data-name="Trazado 100576" d="M-321.33,710.115a.52.52,0,0,1-.465-.3c-.166-.359-17.065-36.234-56.975-66.831a.519.519,0,0,1-.06-.73.518.518,0,0,1,.69-.091c40.122,30.76,57.116,66.858,57.282,67.218a.518.518,0,0,1-.251.686A.511.511,0,0,1-321.33,710.115Z" transform="translate(388.938 -633.987)" fill="#54464c"/>
          <g id="Grupo_53850" data-name="Grupo 53850" transform="translate(10.853 22.246)">
            <path id="Trazado_100577" data-name="Trazado 100577" d="M-373.692,653.279c3.056-.557,13.491,3.136,13.491,3.136s-8.415,7.369-11.469,7.927a5.622,5.622,0,0,1-6.513-4.564A5.624,5.624,0,0,1-373.692,653.279Z" transform="translate(378.269 -653.222)" fill="#7d6871"/>
            <path id="Trazado_100578" data-name="Trazado 100578" d="M-373.673,658.853a.518.518,0,0,1-.514-.522.52.52,0,0,1,.415-.5c9.331-1.833,13.278-2.687,13.316-2.7a.518.518,0,0,1,.616.4.517.517,0,0,1-.4.615c-.039.009-3.993.867-13.336,2.7A.531.531,0,0,1-373.673,658.853Z" transform="translate(379.371 -652.71)" fill="#54464c"/>
          </g>
          <g id="Grupo_53851" data-name="Grupo 53851" transform="translate(37.423 18.413)">
            <path id="Trazado_100579" data-name="Trazado 100579" d="M-346.156,656.48c-.348,3.086-6.9,12.012-6.9,12.012s-4.625-10.183-4.276-13.27a5.621,5.621,0,0,1,6.2-4.985,5.623,5.623,0,0,1,4.986,6.2l-.006.048Z" transform="translate(357.348 -650.204)" fill="#7d6871"/>
            <path id="Trazado_100580" data-name="Trazado 100580" d="M-353.873,668.886h-.042a.519.519,0,0,1-.475-.556c0-.039.325-4.073,1.266-13.548a.517.517,0,0,1,.584-.441.516.516,0,0,1,.446.544c-.941,9.463-1.261,13.487-1.265,13.528A.515.515,0,0,1-353.873,668.886Z" transform="translate(358.146 -649.088)" fill="#54464c"/>
          </g>
        </g>
        <g id="Grupo_53853" data-name="Grupo 53853" transform="translate(4.209 155.609)">
          <path id="Trazado_100581" data-name="Trazado 100581" d="M-396.667,664.354c36.582-.912,61.361,25.805,63.873,48.61,0,0-21.967-.075-27.949-2.935s-13.813-21.186-15.3-24.218-8.119-13.228-8.119-13.228Z" transform="translate(396.667 -664.331)" fill="#8f8b66"/>
          <path id="Trazado_100582" data-name="Trazado 100582" d="M-396.667,664.349c25.342,7.589,21.137,26.02,30.754,36.788s33.119,11.821,33.119,11.821c-40.69,8.028-41.881-15.1-47.034-28.905A38.485,38.485,0,0,0-396.667,664.349Z" transform="translate(396.667 -664.326)" fill="#54464c"/>
          <path id="Trazado_100583" data-name="Trazado 100583" d="M-310.884,746.038q-4.656-6.241-8.692-11.684c-10.281-13.838-17.925-24.129-24.66-32.208l.612-6.5a.862.862,0,0,0-.777-.939.862.862,0,0,0-.94.777l-.453,4.82a119.739,119.739,0,0,0-13.447-13.721.841.841,0,0,0,0-.373l-2.541-10.963a.862.862,0,0,0-1.035-.644.863.863,0,0,0-.645,1.035h0l2.141,9.224A92.128,92.128,0,0,0-372.878,677a.861.861,0,0,0-1.177.314.863.863,0,0,0,.314,1.179,88.833,88.833,0,0,1,20.98,16.568l-17.154-.928a.861.861,0,0,0-.911.809.863.863,0,0,0,.6.871.867.867,0,0,0,.221.041l18.866,1.027c.023,0,.042-.009.063-.009,1.647,1.8,3.33,3.73,5.08,5.824a.854.854,0,0,0,.58.776.537.537,0,0,0,.081.016c6.546,7.9,14.093,18.06,24.376,31.9q4.054,5.458,8.694,11.687a.863.863,0,0,0,1.207.175.863.863,0,0,0,.175-1.206Z" transform="translate(402.741 -661.565)" fill="#b3ae7f"/>
        </g>
        <g id="Grupo_53854" data-name="Grupo 53854" transform="translate(14.929 215.618)">
          <path id="Trazado_100584" data-name="Trazado 100584" d="M-359.858,712.142c-14.375-2.9-28.368,6.375-28.368,6.375s9.314,13.965,23.692,16.859S-336.166,729-336.166,729-345.483,715.035-359.858,712.142Z" transform="translate(388.226 -711.582)" fill="#8f8b66"/>
          <path id="Trazado_100585" data-name="Trazado 100585" d="M-315.615,741.734a.446.446,0,0,1-.56-.034,94.15,94.15,0,0,0-22.567-14.063,121.65,121.65,0,0,0-43.165-9.949.446.446,0,0,1-.414-.477.447.447,0,0,1,.448-.415,122.594,122.594,0,0,1,43.5,10.028,95.012,95.012,0,0,1,22.8,14.216.445.445,0,0,1,.034.63.453.453,0,0,1-.075.066Z" transform="translate(389.82 -710.174)" fill="#b3ae7f"/>
          <path id="Trazado_100586" data-name="Trazado 100586" d="M-364.824,720.653a.444.444,0,0,1-.522,0l-8.636-6.284a.447.447,0,0,1-.123-.62.446.446,0,0,1,.62-.123l.029.022,8.635,6.284a.445.445,0,0,1,.1.622.435.435,0,0,1-.1.1Z" transform="translate(392.018 -711.05)" fill="#b3ae7f"/>
          <path id="Trazado_100587" data-name="Trazado 100587" d="M-357.874,721.1l-.032.02-10.751,6.388a.447.447,0,0,1-.612-.156.447.447,0,0,1,.156-.612h0l10.751-6.387a.445.445,0,0,1,.615.138.445.445,0,0,1-.127.608Z" transform="translate(393.328 -709.233)" fill="#b3ae7f"/>
          <path id="Trazado_100588" data-name="Trazado 100588" d="M-351.379,724.844a.447.447,0,0,1-.6-.078l-6.049-7.271a.448.448,0,0,1,.025-.632.448.448,0,0,1,.632.025l.029.036,6.049,7.271a.447.447,0,0,1-.058.63Z" transform="translate(396.347 -710.188)" fill="#b3ae7f"/>
        </g>
        <g id="Grupo_56008" data-name="Grupo 56008" transform="translate(76.834 15.785)">
          <g id="Grupo_53821" data-name="Grupo 53821">
            <g id="Grupo_53820" data-name="Grupo 53820">
              <g id="Grupo_53806" data-name="Grupo 53806" transform="translate(14.103 8.655)">
                <g id="Grupo_53803" data-name="Grupo 53803" transform="translate(0 17.256)">
                  <path id="Trazado_100548" data-name="Trazado 100548" d="M-328.038,576.977a.341.341,0,0,1-.339-.342.332.332,0,0,1,.058-.188c.38-.565.779-1.13,1.186-1.675a.339.339,0,0,1,.475-.07.339.339,0,0,1,.07.475h0c-.4.539-.794,1.093-1.17,1.65A.336.336,0,0,1-328.038,576.977Z" transform="translate(328.377 -574.635)" fill="#b5ac84"/>
                </g>
                <g id="Grupo_53804" data-name="Grupo 53804" transform="translate(3.489 1.094)">
                  <path id="Trazado_100549" data-name="Trazado 100549" d="M-325.291,575.9a.34.34,0,0,1-.339-.342.34.34,0,0,1,.084-.222c.814-.919,1.674-1.817,2.555-2.671a.341.341,0,0,1,.481-.02.341.341,0,0,1,.019.481.33.33,0,0,1-.029.029c-.874.836-1.722,1.719-2.522,2.625A.337.337,0,0,1-325.291,575.9Zm5.295-5.071a.34.34,0,0,1-.339-.342.336.336,0,0,1,.124-.262c.956-.773,1.956-1.51,2.969-2.207a.339.339,0,0,1,.471.09.34.34,0,0,1-.091.472h0c-1,.678-1.982,1.407-2.922,2.169a.342.342,0,0,1-.212.075Zm6.065-4.117a.338.338,0,0,1-.34-.338.341.341,0,0,1,.174-.3c1.071-.6,2.179-1.161,3.3-1.674a.339.339,0,0,1,.437.2.34.34,0,0,1-.156.417c-1.1.5-2.189,1.055-3.245,1.65a.34.34,0,0,1-.165.038Zm6.669-3.04a.34.34,0,0,1-.339-.342.342.342,0,0,1,.224-.318c1.161-.414,2.346-.781,3.532-1.095a.338.338,0,0,1,.414.24.339.339,0,0,1-.24.415c-1.167.309-2.337.672-3.476,1.078a.383.383,0,0,1-.114.016Z" transform="translate(325.63 -561.909)" fill="#b5ac84"/>
                </g>
                <g id="Grupo_53805" data-name="Grupo 53805" transform="translate(28.609)">
                  <path id="Trazado_100550" data-name="Trazado 100550" d="M-305.508,562.031a.34.34,0,0,1-.342-.338.341.341,0,0,1,.283-.337c.671-.116,1.354-.22,2.032-.307a.34.34,0,0,1,.372.306.339.339,0,0,1-.286.368c-.667.085-1.34.187-2,.3A.31.31,0,0,1-305.508,562.031Z" transform="translate(305.85 -561.048)" fill="#b5ac84"/>
                </g>
              </g>
              <g id="Grupo_53810" data-name="Grupo 53810" transform="translate(6.709 9.438)">
                <g id="Grupo_53807" data-name="Grupo 53807" transform="translate(53.519)">
                  <path id="Trazado_100551" data-name="Trazado 100551" d="M-289.744,562.854a.462.462,0,0,1-.093-.013c-.649-.184-1.307-.349-1.958-.505a.342.342,0,0,1-.254-.409.34.34,0,0,1,.409-.253c.662.154,1.331.326,1.988.513a.34.34,0,0,1,.23.423.341.341,0,0,1-.321.244Z" transform="translate(292.058 -561.665)" fill="#b5ac84"/>
                </g>
                <g id="Grupo_53808" data-name="Grupo 53808" transform="translate(0.059 1.821)">
                  <path id="Trazado_100552" data-name="Trazado 100552" d="M-289.685,648.025a.339.339,0,0,1-.339-.339.339.339,0,0,1,.339-.34h0c1.368-.018,2.748-.1,4.1-.248a.338.338,0,0,1,.373.3.341.341,0,0,1-.3.375c-1.374.148-2.776.232-4.166.251Zm-4.14-.137h-.028c-1.386-.116-2.779-.288-4.141-.531a.34.34,0,0,1-.3-.373.341.341,0,0,1,.373-.3l.046.009c1.341.231,2.713.413,4.077.522a.34.34,0,0,1,.326.353.339.339,0,0,1-.353.325Zm12.367-.753a.34.34,0,0,1-.344-.334.34.34,0,0,1,.277-.339c1.337-.274,2.677-.618,3.98-1.02a.342.342,0,0,1,.425.225.34.34,0,0,1-.225.424h0c-1.326.408-2.686.757-4.045,1.036a.313.313,0,0,1-.069.008Zm-20.517-.69a.282.282,0,0,1-.091-.012c-1.336-.37-2.671-.813-3.965-1.307a.34.34,0,0,1-.2-.439.341.341,0,0,1,.438-.2c1.278.49,2.588.922,3.9,1.288a.34.34,0,0,1,.239.417.338.338,0,0,1-.33.25Zm28.428-1.741a.34.34,0,0,1-.339-.342.341.341,0,0,1,.208-.312c1.259-.523,2.508-1.115,3.716-1.759a.339.339,0,0,1,.458.141.337.337,0,0,1-.14.459c-1.224.654-2.5,1.255-3.774,1.788a.342.342,0,0,1-.13.02Zm-36.156-1.219a.346.346,0,0,1-.151-.037c-1.241-.617-2.466-1.3-3.645-2.037a.339.339,0,0,1-.11-.47.342.342,0,0,1,.47-.111c1.162.724,2.367,1.393,3.589,2.005a.342.342,0,0,1,.152.457.34.34,0,0,1-.3.188Zm43.459-2.672a.34.34,0,0,1-.339-.342.342.342,0,0,1,.151-.281c1.138-.753,2.254-1.571,3.316-2.431a.341.341,0,0,1,.475.077.339.339,0,0,1-.047.451c-1.079.872-2.212,1.7-3.368,2.468a.331.331,0,0,1-.189.051Zm-50.485-1.711a.354.354,0,0,1-.206-.07c-1.1-.841-2.177-1.742-3.2-2.689a.341.341,0,0,1-.017-.481.34.34,0,0,1,.481-.017c1,.928,2.061,1.819,3.146,2.647a.34.34,0,0,1,.062.476.344.344,0,0,1-.269.133Zm56.923-3.5a.33.33,0,0,1-.243-.1.34.34,0,0,1,0-.48c.977-.955,1.919-1.969,2.8-3.01a.341.341,0,0,1,.478-.061.34.34,0,0,1,.061.477l-.019.023c-.9,1.058-1.852,2.09-2.844,3.056A.332.332,0,0,1-259.806,635.6Zm-63-2.122a.343.343,0,0,1-.254-.117c-.928-1.034-1.811-2.125-2.634-3.24a.342.342,0,0,1,.1-.471.34.34,0,0,1,.447.069c.813,1.1,1.682,2.172,2.593,3.192a.34.34,0,0,1-.028.48.337.337,0,0,1-.225.086Zm68.344-4.2a.34.34,0,0,1-.342-.338.344.344,0,0,1,.062-.2c.78-1.121,1.51-2.294,2.183-3.484a.341.341,0,0,1,.47-.105.342.342,0,0,1,.123.439c-.679,1.208-1.426,2.4-2.219,3.537a.339.339,0,0,1-.278.147Zm-73.254-2.468a.344.344,0,0,1-.292-.165c-.712-1.189-1.377-2.427-1.974-3.679a.339.339,0,0,1,.16-.452.338.338,0,0,1,.452.161h0c.588,1.232,1.242,2.45,1.944,3.622a.34.34,0,0,1-.118.466.331.331,0,0,1-.173.048Zm77.311-4.747a.342.342,0,0,1-.34-.342.341.341,0,0,1,.029-.137c.555-1.25,1.053-2.539,1.483-3.833a.341.341,0,0,1,.431-.215.34.34,0,0,1,.215.429h0c-.437,1.315-.945,2.626-1.51,3.9a.34.34,0,0,1-.307.2Zm-80.872-2.725a.337.337,0,0,1-.319-.224c-.474-1.3-.892-2.644-1.238-3.988a.34.34,0,0,1,.244-.414.338.338,0,0,1,.413.244h0c.342,1.322.753,2.643,1.22,3.926a.341.341,0,0,1-.2.436h0a.341.341,0,0,1-.118.022Zm83.486-5.13a.3.3,0,0,1-.076-.008.339.339,0,0,1-.255-.406c.3-1.33.549-2.69.726-4.046a.34.34,0,0,1,.381-.293.34.34,0,0,1,.293.381c-.18,1.377-.429,2.758-.738,4.11a.34.34,0,0,1-.331.264Zm-85.562-2.882a.34.34,0,0,1-.335-.287c-.217-1.368-.372-2.764-.465-4.15a.34.34,0,0,1,.3-.377.34.34,0,0,1,.377.3l0,.037c.086,1.364.238,2.739.452,4.086a.341.341,0,0,1-.283.389.272.272,0,0,1-.047.005Zm86.636-5.324h-.011a.342.342,0,0,1-.328-.349c.019-.519.028-1.045.028-1.571,0-.844-.024-1.7-.074-2.541a.34.34,0,0,1,.342-.339.338.338,0,0,1,.337.3c.05.855.076,1.722.075,2.581,0,.53-.009,1.068-.028,1.6a.341.341,0,0,1-.339.328Zm-.481-8.264a.342.342,0,0,1-.335-.288c-.207-1.351-.481-2.706-.813-4.029a.341.341,0,0,1,.246-.413.339.339,0,0,1,.411.246c.34,1.344.621,2.722.832,4.093a.338.338,0,0,1-.283.386h0a.393.393,0,0,1-.055.005Zm-2.032-8.024a.338.338,0,0,1-.319-.226c-.465-1.284-.988-2.562-1.57-3.8a.341.341,0,0,1,.147-.458.341.341,0,0,1,.458.147l.01.022c.591,1.256,1.126,2.555,1.594,3.858a.341.341,0,0,1-.206.434.353.353,0,0,1-.114.022Zm-3.519-7.488a.337.337,0,0,1-.293-.165c-.7-1.173-1.455-2.329-2.259-3.433a.339.339,0,0,1,.071-.475.34.34,0,0,1,.474.071l0,0c.813,1.12,1.59,2.295,2.3,3.484a.339.339,0,0,1-.117.466.348.348,0,0,1-.174.048Zm-4.878-6.689a.335.335,0,0,1-.254-.115c-.906-1.022-1.871-2.014-2.868-2.948a.341.341,0,0,1,.011-.481.34.34,0,0,1,.453-.014c1.012.947,1.993,1.954,2.911,2.993a.34.34,0,0,1-.032.48.34.34,0,0,1-.222.084Zm-6.046-5.655a.34.34,0,0,1-.207-.071c-1.082-.834-2.215-1.626-3.368-2.356a.34.34,0,0,1-.107-.469.34.34,0,0,1,.469-.107c1.173.739,2.323,1.544,3.424,2.394a.338.338,0,0,1,.064.475.34.34,0,0,1-.272.133Zm-7-4.413a.331.331,0,0,1-.152-.036c-1.22-.616-2.483-1.18-3.757-1.676a.339.339,0,0,1-.216-.429.34.34,0,0,1,.429-.217l.034.014c1.293.5,2.576,1.076,3.815,1.7a.341.341,0,0,1,.155.455.341.341,0,0,1-.309.189Z" transform="translate(334.153 -563.099)" fill="#b5ac84"/>
                </g>
                <g id="Grupo_53809" data-name="Grupo 53809" transform="translate(0 39.039)">
                  <path id="Trazado_100553" data-name="Trazado 100553" d="M-333.859,595.1h-.011a.342.342,0,0,1-.329-.349c.023-.681.061-1.372.117-2.051a.341.341,0,0,1,.385-.288.34.34,0,0,1,.292.343c-.052.668-.089,1.347-.116,2.019A.342.342,0,0,1-333.859,595.1Z" transform="translate(334.199 -592.404)" fill="#b5ac84"/>
                </g>
              </g>
              <g id="Grupo_53814" data-name="Grupo 53814" transform="translate(14.103 8.655)">
                <g id="Grupo_53811" data-name="Grupo 53811" transform="translate(0 17.256)">
                  <path id="Trazado_100554" data-name="Trazado 100554" d="M-328.038,576.977a.341.341,0,0,1-.339-.342.332.332,0,0,1,.058-.188c.38-.565.779-1.13,1.186-1.675a.339.339,0,0,1,.475-.07.339.339,0,0,1,.07.475h0c-.4.539-.794,1.093-1.17,1.65A.336.336,0,0,1-328.038,576.977Z" transform="translate(328.377 -574.635)" fill="#b5ac84"/>
                </g>
                <g id="Grupo_53812" data-name="Grupo 53812" transform="translate(3.489 1.094)">
                  <path id="Trazado_100555" data-name="Trazado 100555" d="M-325.291,575.9a.34.34,0,0,1-.339-.342.34.34,0,0,1,.084-.222c.814-.919,1.674-1.817,2.555-2.671a.341.341,0,0,1,.481-.02.341.341,0,0,1,.019.481.33.33,0,0,1-.029.029c-.874.836-1.722,1.719-2.522,2.625A.337.337,0,0,1-325.291,575.9Zm5.295-5.071a.34.34,0,0,1-.339-.342.336.336,0,0,1,.124-.262c.956-.773,1.956-1.51,2.969-2.207a.339.339,0,0,1,.471.09.34.34,0,0,1-.091.472h0c-1,.678-1.982,1.407-2.922,2.169a.342.342,0,0,1-.212.075Zm6.065-4.117a.338.338,0,0,1-.34-.338.341.341,0,0,1,.174-.3c1.071-.6,2.179-1.161,3.3-1.674a.339.339,0,0,1,.437.2.34.34,0,0,1-.156.417c-1.1.5-2.189,1.055-3.245,1.65a.34.34,0,0,1-.165.038Zm6.669-3.04a.34.34,0,0,1-.339-.342.342.342,0,0,1,.224-.318c1.161-.414,2.346-.781,3.532-1.095a.338.338,0,0,1,.414.24.339.339,0,0,1-.24.415c-1.167.309-2.337.672-3.476,1.078a.383.383,0,0,1-.114.016Z" transform="translate(325.63 -561.909)" fill="#b5ac84"/>
                </g>
                <g id="Grupo_53813" data-name="Grupo 53813" transform="translate(28.609)">
                  <path id="Trazado_100556" data-name="Trazado 100556" d="M-305.508,562.031a.34.34,0,0,1-.342-.338.341.341,0,0,1,.283-.337c.671-.116,1.354-.22,2.032-.307a.34.34,0,0,1,.372.306.339.339,0,0,1-.286.368c-.667.085-1.34.187-2,.3A.31.31,0,0,1-305.508,562.031Z" transform="translate(305.85 -561.048)" fill="#b5ac84"/>
                </g>
              </g>
              <g id="Grupo_53815" data-name="Grupo 53815" transform="translate(42.972)">
                <path id="Trazado_100557" data-name="Trazado 100557" d="M-291.53,570.827l-5.392-3.917-5.392,3.917,2.06-6.339-5.391-3.917h6.664l2.059-6.339,2.059,6.339h6.664l-5.391,3.917Zm-5.392-4.761,4.1,2.977-1.567-4.818,4.1-2.977h-5.065l-1.567-4.818-1.566,4.818h-5.066l4.1,2.977-1.566,4.818Z" transform="translate(305.646 -554.233)" fill="#b5ac84"/>
              </g>
              <g id="Grupo_53819" data-name="Grupo 53819" transform="translate(0 28.503)">
                <g id="Grupo_53816" data-name="Grupo 53816">
                  <path id="Trazado_100558" data-name="Trazado 100558" d="M-329.96,595.721a9.522,9.522,0,0,1-9.522-9.522,9.522,9.522,0,0,1,9.522-9.522,9.523,9.523,0,0,1,9.523,9.522h0A9.536,9.536,0,0,1-329.96,595.721Zm0-18.052a8.525,8.525,0,0,0-8.524,8.526,8.525,8.525,0,0,0,8.524,8.524,8.526,8.526,0,0,0,8.524-8.526A8.535,8.535,0,0,0-329.96,577.669Z" transform="translate(339.482 -576.676)" fill="#b5ac84"/>
                </g>
                <g id="Grupo_53817" data-name="Grupo 53817" transform="translate(4.942 8.202)">
                  <path id="Trazado_100559" data-name="Trazado 100559" d="M-334.275,585.765a1.316,1.316,0,0,1-1.316-1.316,1.315,1.315,0,0,1,1.316-1.316,1.315,1.315,0,0,1,1.316,1.316A1.318,1.318,0,0,1-334.275,585.765Zm0-1.962a.647.647,0,0,0-.648.646.647.647,0,0,0,.648.648.647.647,0,0,0,.646-.646h0A.648.648,0,0,0-334.275,583.8Z" transform="translate(335.591 -583.134)" fill="#b5ac84"/>
                </g>
                <g id="Grupo_53818" data-name="Grupo 53818" transform="translate(11.286 8.202)">
                  <path id="Trazado_100560" data-name="Trazado 100560" d="M-329.278,585.765a1.317,1.317,0,0,1-1.317-1.316,1.315,1.315,0,0,1,1.314-1.316,1.314,1.314,0,0,1,1.317,1.314h0A1.316,1.316,0,0,1-329.278,585.765Zm0-1.962a.647.647,0,0,0-.646.646.647.647,0,0,0,.646.648.648.648,0,0,0,.648-.646h0A.65.65,0,0,0-329.278,583.8Z" transform="translate(330.595 -583.134)" fill="#b5ac84"/>
                </g>
              </g>
            </g>
          </g>
          <g id="Grupo_53900" data-name="Grupo 53900" transform="translate(97.866 12.121)">
            <g id="Grupo_53899" data-name="Grupo 53899">
              <g id="Grupo_53896" data-name="Grupo 53896">
                <path id="Trazado_100702" data-name="Trazado 100702" d="M-256.927,574.766a5.5,5.5,0,0,1-5.5-5.494,5.5,5.5,0,0,1,5.5-5.5,5.5,5.5,0,0,1,5.494,5.5h0A5.5,5.5,0,0,1-256.927,574.766Zm0-10.41a4.916,4.916,0,0,0-4.916,4.916,4.915,4.915,0,0,0,4.915,4.915,4.914,4.914,0,0,0,4.916-4.915h0A4.92,4.92,0,0,0-256.927,564.356Z" transform="translate(262.422 -563.777)" fill="#b5ac84"/>
              </g>
              <g id="Grupo_53897" data-name="Grupo 53897" transform="translate(2.465 4.738)">
                <path id="Trazado_100703" data-name="Trazado 100703" d="M-259.723,569.024a.759.759,0,0,1-.758-.758.758.758,0,0,1,.758-.758.758.758,0,0,1,.758.758A.759.759,0,0,1-259.723,569.024Zm0-1.132a.374.374,0,0,0-.373.373.373.373,0,0,0,.373.372.373.373,0,0,0,.373-.372.375.375,0,0,0-.372-.375h0Z" transform="translate(260.481 -567.508)" fill="#b5ac84"/>
              </g>
              <g id="Grupo_53898" data-name="Grupo 53898" transform="translate(6.899 4.738)">
                <path id="Trazado_100704" data-name="Trazado 100704" d="M-256.232,569.024a.759.759,0,0,1-.758-.758.759.759,0,0,1,.759-.758.759.759,0,0,1,.758.758A.761.761,0,0,1-256.232,569.024Zm0-1.132a.373.373,0,0,0-.371.375.371.371,0,0,0,.373.371.373.373,0,0,0,.372-.372.374.374,0,0,0-.372-.375h0Z" transform="translate(256.99 -567.508)" fill="#b5ac84"/>
              </g>
            </g>
          </g>
        </g>
        <g id="Grupo_53905" data-name="Grupo 53905" transform="translate(429.935 49.689)">
          <g id="Grupo_53904" data-name="Grupo 53904" transform="translate(0)">
            <g id="Grupo_53901" data-name="Grupo 53901">
              <path id="Trazado_100705" data-name="Trazado 100705" d="M-55.952,591.918a5.5,5.5,0,0,1-5.5-5.494,5.5,5.5,0,0,1,5.494-5.5,5.5,5.5,0,0,1,5.5,5.494h0A5.5,5.5,0,0,1-55.952,591.918Zm0-10.41a4.916,4.916,0,0,0-4.916,4.915,4.916,4.916,0,0,0,4.915,4.916,4.916,4.916,0,0,0,4.916-4.915h0A4.921,4.921,0,0,0-55.952,581.508Z" transform="translate(61.449 -580.929)" fill="#b5ac84"/>
            </g>
            <g id="Grupo_53902" data-name="Grupo 53902" transform="translate(2.466 4.736)">
              <path id="Trazado_100706" data-name="Trazado 100706" d="M-58.749,586.176a.759.759,0,0,1-.758-.759.759.759,0,0,1,.758-.758.759.759,0,0,1,.758.758A.76.76,0,0,1-58.749,586.176Zm0-1.132a.373.373,0,0,0-.373.372.373.373,0,0,0,.373.373.373.373,0,0,0,.373-.373.373.373,0,0,0-.373-.372Z" transform="translate(59.507 -584.658)" fill="#b5ac84"/>
            </g>
            <g id="Grupo_53903" data-name="Grupo 53903" transform="translate(6.901 4.736)">
              <path id="Trazado_100707" data-name="Trazado 100707" d="M-55.258,586.176a.759.759,0,0,1-.757-.761.758.758,0,0,1,.759-.757.759.759,0,0,1,.757.758A.76.76,0,0,1-55.258,586.176Zm0-1.132a.373.373,0,0,0-.372.373.375.375,0,0,0,.375.372.374.374,0,0,0,.372-.373.373.373,0,0,0-.373-.372Z" transform="translate(56.015 -584.658)" fill="#b5ac84"/>
            </g>
          </g>
        </g>
        <g id="Grupo_53914" data-name="Grupo 53914" transform="translate(429.535 118.69)">
          <g id="Grupo_53913" data-name="Grupo 53913" transform="translate(0)">
            <g id="Grupo_53906" data-name="Grupo 53906" transform="translate(0 2.573)">
              <path id="Trazado_100708" data-name="Trazado 100708" d="M-50.253,655.2H-61.764V637.287h11.511Zm-10.635-.878h9.756V638.163h-9.756Z" transform="translate(61.764 -637.287)" fill="#b5ac84"/>
            </g>
            <g id="Grupo_53907" data-name="Grupo 53907" transform="translate(3.199)">
              <path id="Trazado_100709" data-name="Trazado 100709" d="M-54.135,638.653h-5.11v-3.392h5.11Zm-4.232-.876h3.354v-1.64h-3.354Z" transform="translate(59.245 -635.261)" fill="#b5ac84"/>
            </g>
            <g id="Grupo_53908" data-name="Grupo 53908" transform="translate(3.199 19.633)">
              <path id="Trazado_100710" data-name="Trazado 100710" d="M-54.135,654.112h-5.11V650.72h5.11Zm-4.232-.878h3.354V651.6h-3.354Z" transform="translate(59.245 -650.72)" fill="#b5ac84"/>
            </g>
            <g id="Grupo_53909" data-name="Grupo 53909" transform="translate(1.123 3.985)">
              <path id="Trazado_100711" data-name="Trazado 100711" d="M-52.245,644.556a.446.446,0,0,1-.116-.015c-1.59-.428-6.544-2.52-8.449-5.466a.439.439,0,0,1,.131-.606.438.438,0,0,1,.606.131c1.742,2.7,6.5,4.705,7.941,5.094a.438.438,0,0,1,.3.541.438.438,0,0,1-.42.321Z" transform="translate(60.88 -638.399)" fill="#b5ac84"/>
            </g>
            <g id="Grupo_53910" data-name="Grupo 53910" transform="translate(1.123 6.785)">
              <path id="Trazado_100712" data-name="Trazado 100712" d="M-52.245,646.761a.446.446,0,0,1-.116-.015c-1.59-.429-6.544-2.521-8.449-5.466a.439.439,0,0,1,.131-.606.438.438,0,0,1,.606.13h0c1.742,2.7,6.5,4.708,7.941,5.1a.437.437,0,0,1,.3.541.435.435,0,0,1-.42.32Z" transform="translate(60.88 -640.603)" fill="#b5ac84"/>
            </g>
            <g id="Grupo_53911" data-name="Grupo 53911" transform="translate(1.134 9.603)">
              <path id="Trazado_100713" data-name="Trazado 100713" d="M-52.248,648.961a.445.445,0,0,1-.116-.015c-1.59-.428-6.544-2.52-8.449-5.465a.439.439,0,0,1,.16-.6.44.44,0,0,1,.577.123c1.742,2.7,6.5,4.707,7.941,5.1a.437.437,0,0,1,.314.533.437.437,0,0,1-.431.328Z" transform="translate(60.871 -642.823)" fill="#b5ac84"/>
            </g>
            <g id="Grupo_53912" data-name="Grupo 53912" transform="translate(1.123 12.385)">
              <path id="Trazado_100714" data-name="Trazado 100714" d="M-52.245,651.171a.445.445,0,0,1-.116-.015c-1.59-.428-6.544-2.52-8.449-5.466a.441.441,0,0,1,.131-.607.439.439,0,0,1,.606.131h0c1.742,2.7,6.5,4.705,7.941,5.094a.438.438,0,0,1,.314.533.437.437,0,0,1-.431.329Z" transform="translate(60.88 -645.013)" fill="#b5ac84"/>
            </g>
          </g>
        </g>
        <g id="Grupo_56009" data-name="Grupo 56009" transform="translate(251.911)">
          <g id="Grupo_53795" data-name="Grupo 53795">
            <g id="Grupo_53794" data-name="Grupo 53794">
              <path id="Trazado_100542" data-name="Trazado 100542" d="M-170.182,604.7q-.392,0-.78-.01a.339.339,0,0,1-.331-.348h0a.349.349,0,0,1,.348-.331,31.35,31.35,0,0,0,4.027-.161.34.34,0,0,1,.373.3.341.341,0,0,1-.3.374A31.774,31.774,0,0,1-170.182,604.7Zm-4.827-.373a.389.389,0,0,1-.053,0,31.317,31.317,0,0,1-4.017-.9.34.34,0,0,1-.243-.415.341.341,0,0,1,.415-.243l.019.006a30.836,30.836,0,0,0,3.932.88.34.34,0,0,1,.279.391.339.339,0,0,1-.331.284Zm12.14-.493a.338.338,0,0,1-.344-.333.338.338,0,0,1,.265-.337,30.6,30.6,0,0,0,3.844-1.2.34.34,0,0,1,.431.216.342.342,0,0,1-.185.419,31.507,31.507,0,0,1-3.931,1.224.281.281,0,0,1-.08.011Zm-19.939-1.8a.352.352,0,0,1-.138-.029,31.833,31.833,0,0,1-3.645-1.918.341.341,0,0,1-.113-.469.34.34,0,0,1,.469-.112,30.753,30.753,0,0,0,3.566,1.875.341.341,0,0,1,.17.451.343.343,0,0,1-.309.2Zm27.523-1.123a.339.339,0,0,1-.338-.342.34.34,0,0,1,.174-.3,30.987,30.987,0,0,0,3.4-2.159.34.34,0,0,1,.471.1.34.34,0,0,1-.071.455,31.555,31.555,0,0,1-3.477,2.206.335.335,0,0,1-.165.042Zm-34.453-3.125a.341.341,0,0,1-.215-.076,31.71,31.71,0,0,1-3.019-2.793.338.338,0,0,1,.042-.477.339.339,0,0,1,.451.013,30.924,30.924,0,0,0,2.96,2.734.342.342,0,0,1,.048.479.34.34,0,0,1-.263.125Zm41.017-1.67a.34.34,0,0,1-.334-.344.344.344,0,0,1,.1-.236,31.033,31.033,0,0,0,2.729-2.963.34.34,0,0,1,.479-.052.341.341,0,0,1,.051.479h0a31.755,31.755,0,0,1-2.786,3.029.34.34,0,0,1-.244.089Zm-46.617-4.222a.34.34,0,0,1-.274-.14,31.89,31.89,0,0,1-2.207-3.479.341.341,0,0,1,.16-.455.341.341,0,0,1,.437.13,30.589,30.589,0,0,0,2.154,3.4.339.339,0,0,1-.075.475.329.329,0,0,1-.2.066Zm51.723-2.1a.324.324,0,0,1-.177-.05.34.34,0,0,1-.117-.465,30.669,30.669,0,0,0,1.871-3.569.339.339,0,0,1,.457-.147.34.34,0,0,1,.164.423,31.531,31.531,0,0,1-1.911,3.647.338.338,0,0,1-.291.161Zm-55.608-5.031a.339.339,0,0,1-.316-.217,31.3,31.3,0,0,1-1.222-3.932.341.341,0,0,1,.274-.4.341.341,0,0,1,.386.237,30.808,30.808,0,0,0,1.2,3.848.34.34,0,0,1-.194.439.343.343,0,0,1-.128.022Zm-1.9-7.9a.34.34,0,0,1-.338-.3,32.107,32.107,0,0,1-.17-3.3c0-.273,0-.544.01-.813a.34.34,0,0,1,.348-.332.34.34,0,0,1,.33.348h0q-.01.4-.009.8a31.471,31.471,0,0,0,.166,3.227.338.338,0,0,1-.3.372Zm.212-8.129a.389.389,0,0,1-.053,0,.339.339,0,0,1-.283-.389,31.272,31.272,0,0,1,.9-4.017.34.34,0,0,1,.409-.253.342.342,0,0,1,.254.409l-.011.037a30.833,30.833,0,0,0-.885,3.929.338.338,0,0,1-.339.284Zm2.3-7.8a.341.341,0,0,1-.138-.029.339.339,0,0,1-.171-.448,31.53,31.53,0,0,1,1.92-3.644.34.34,0,0,1,.469-.112.339.339,0,0,1,.112.467h0a31.091,31.091,0,0,0-1.88,3.565.339.339,0,0,1-.315.206Zm55.8-2.132a.341.341,0,0,1-.3-.178,31.012,31.012,0,0,0-2.146-3.41.34.34,0,0,1,.051-.479.34.34,0,0,1,.479.052l.022.028a31.865,31.865,0,0,1,2.193,3.485.341.341,0,0,1-.138.461A.336.336,0,0,1-142.8,558.8Zm-51.542-4.8a.34.34,0,0,1-.339-.342.338.338,0,0,1,.075-.212,32.256,32.256,0,0,1,2.8-3.02.341.341,0,0,1,.478.058.34.34,0,0,1-.013.436,31.036,31.036,0,0,0-2.736,2.957.353.353,0,0,1-.265.131Zm46.77-1.787a.343.343,0,0,1-.248-.105,30.738,30.738,0,0,0-2.953-2.74.341.341,0,0,1-.077-.475.34.34,0,0,1,.475-.079c.01.009.022.016.03.025a31.647,31.647,0,0,1,3.02,2.8.341.341,0,0,1-.017.481.342.342,0,0,1-.23.091Zm-40.872-3.806a.339.339,0,0,1-.338-.342.342.342,0,0,1,.138-.273,31.886,31.886,0,0,1,3.484-2.2.342.342,0,0,1,.457.151.339.339,0,0,1-.133.447,31.1,31.1,0,0,0-3.4,2.15.338.338,0,0,1-.207.071Zm34.559-1.317a.342.342,0,0,1-.178-.05,30.618,30.618,0,0,0-3.561-1.885.341.341,0,0,1-.171-.45.341.341,0,0,1,.45-.171,31.534,31.534,0,0,1,3.64,1.927.339.339,0,0,1,.111.467.34.34,0,0,1-.29.161Zm-27.424-2.554a.341.341,0,0,1-.333-.348.339.339,0,0,1,.216-.31,31.411,31.411,0,0,1,3.934-1.217.34.34,0,0,1,.41.251.34.34,0,0,1-.251.409h0a30.36,30.36,0,0,0-3.848,1.19.343.343,0,0,1-.128.025Zm20.005-.767a.363.363,0,0,1-.1-.014,30.354,30.354,0,0,0-3.928-.89.34.34,0,0,1-.262-.4.339.339,0,0,1,.367-.268,31.236,31.236,0,0,1,4.016.911.341.341,0,0,1,.225.426.339.339,0,0,1-.321.24Zm-12.1-1.119a.337.337,0,0,1-.345-.331.338.338,0,0,1,.311-.345,31.816,31.816,0,0,1,4.114-.156.341.341,0,0,1,.312.366.342.342,0,0,1-.331.314,31.558,31.558,0,0,0-4.025.151Z" transform="translate(201.626 -541.804)" fill="#b5ac84"/>
            </g>
          </g>
          <g id="Grupo_53802" data-name="Grupo 53802" transform="translate(54.272 19.257)">
            <g id="Grupo_53801" data-name="Grupo 53801">
              <g id="Grupo_53796" data-name="Grupo 53796">
                <path id="Trazado_100543" data-name="Trazado 100543" d="M-149.368,576.013a9.523,9.523,0,0,1-9.524-9.524,9.523,9.523,0,0,1,9.524-9.522,9.522,9.522,0,0,1,9.522,9.522h0A9.538,9.538,0,0,1-149.368,576.013Zm0-18.052a8.524,8.524,0,0,0-8.524,8.524,8.524,8.524,0,0,0,8.524,8.524,8.524,8.524,0,0,0,8.524-8.524,8.535,8.535,0,0,0-8.524-8.523Z" transform="translate(158.892 -556.967)" fill="#b5ac84"/>
              </g>
              <g id="Grupo_53797" data-name="Grupo 53797" transform="translate(4.27 8.204)">
                <path id="Trazado_100544" data-name="Trazado 100544" d="M-154.214,566.059a1.316,1.316,0,0,1-1.316-1.316,1.315,1.315,0,0,1,1.316-1.316,1.315,1.315,0,0,1,1.316,1.316A1.317,1.317,0,0,1-154.214,566.059Zm0-1.963a.648.648,0,0,0-.648.648.647.647,0,0,0,.648.646.647.647,0,0,0,.646-.646h0A.649.649,0,0,0-154.214,564.1Z" transform="translate(155.53 -563.427)" fill="#b5ac84"/>
              </g>
              <g id="Grupo_53798" data-name="Grupo 53798" transform="translate(11.956 8.204)">
                <path id="Trazado_100545" data-name="Trazado 100545" d="M-148.161,566.059a1.316,1.316,0,0,1-1.317-1.316,1.316,1.316,0,0,1,1.317-1.316,1.315,1.315,0,0,1,1.316,1.316A1.318,1.318,0,0,1-148.161,566.059Zm0-1.963a.647.647,0,0,0-.648.648.647.647,0,0,0,.646.646.647.647,0,0,0,.648-.646h0A.647.647,0,0,0-148.161,564.1Z" transform="translate(149.478 -563.427)" fill="#b5ac84"/>
              </g>
              <g id="Grupo_53799" data-name="Grupo 53799" transform="translate(8.114 4.357)">
                <path id="Trazado_100546" data-name="Trazado 100546" d="M-152.5,561.714a1.315,1.315,0,0,1,1.316-1.316,1.316,1.316,0,0,1,1.316,1.316,1.316,1.316,0,0,1-1.316,1.316A1.316,1.316,0,0,1-152.5,561.714Zm1.962,0a.647.647,0,0,0-.648-.646.647.647,0,0,0-.646.646.647.647,0,0,0,.648.646h0A.647.647,0,0,0-150.541,561.714Z" transform="translate(152.503 -560.398)" fill="#b5ac84"/>
              </g>
              <g id="Grupo_53800" data-name="Grupo 53800" transform="translate(8.114 12.047)">
                <path id="Trazado_100547" data-name="Trazado 100547" d="M-152.5,567.769a1.315,1.315,0,0,1,1.316-1.316,1.316,1.316,0,0,1,1.316,1.317,1.316,1.316,0,0,1-1.316,1.316A1.318,1.318,0,0,1-152.5,567.769Zm1.962,0a.647.647,0,0,0-.648-.646.647.647,0,0,0-.646.646.647.647,0,0,0,.648.648h0A.649.649,0,0,0-150.541,567.769Z" transform="translate(152.503 -566.453)" fill="#b5ac84"/>
              </g>
            </g>
          </g>
          <path id="Trazado_100715" data-name="Trazado 100715" d="M-163.337,561.6a.331.331,0,0,0-.367.29v.005a1.976,1.976,0,0,1-1.069,1.292c-.771.437-2.506.969-5.457-.381-2.621-1.2-5.015-1.313-6.566-.318a3.292,3.292,0,0,0-1.191,1.331c-.023,0-.044-.006-.069-.006a1.438,1.438,0,0,0-1.439,1.439h0c0,.794.645,19.088,1.439,19.088s1.44-18.294,1.44-19.088a1.431,1.431,0,0,0-.718-1.24,2.645,2.645,0,0,1,.9-.961c1.355-.871,3.515-.739,5.922.363,3.223,1.475,5.185.855,6.068.354a2.606,2.606,0,0,0,1.4-1.8A.333.333,0,0,0-163.337,561.6Zm-13.936,3.928a.785.785,0,0,1-.78.79.785.785,0,0,1-.79-.781.783.783,0,0,1,.546-.752,4.043,4.043,0,0,0-.062.678.335.335,0,0,0,.354.314.334.334,0,0,0,.314-.314,3.319,3.319,0,0,1,.057-.593.781.781,0,0,1,.362.658Z" transform="translate(207.601 -536.46)" fill="#b5ac84"/>
        </g>
        <g id="Grupo_53919" data-name="Grupo 53919" transform="translate(43.047 105.206)">
          <g id="Grupo_53918" data-name="Grupo 53918">
            <g id="Grupo_53915" data-name="Grupo 53915">
              <path id="Trazado_100716" data-name="Trazado 100716" d="M-365.295,648.438c-2.309-1.724.761-8.71,5.062-14.475s10.132-10.693,12.44-8.97-.761,8.71-5.063,14.475S-362.986,650.161-365.295,648.438Zm17.137-22.958c-1.546-1.153-6.568,2.126-11.586,8.846s-6.736,12.469-5.188,13.622,6.568-2.126,11.586-8.847,6.734-12.468,5.189-13.621Z" transform="translate(366.085 -624.643)" fill="#b5ac84"/>
            </g>
            <g id="Grupo_53916" data-name="Grupo 53916" transform="translate(0.02 16.192)">
              <path id="Trazado_100717" data-name="Trazado 100717" d="M-365.3,645c-1.21-.9-.969-3.2.547-5.235s3.653-2.917,4.863-2.014.969,3.2-.547,5.235S-364.089,645.9-365.3,645Zm5.046-6.76c-.9-.676-2.741.19-4.008,1.89s-1.576,3.706-.673,4.38,2.741-.19,4.011-1.888,1.575-3.7.671-4.381Z" transform="translate(366.069 -637.393)" fill="#b5ac84"/>
            </g>
            <g id="Grupo_53917" data-name="Grupo 53917" transform="translate(10.523 0.306)">
              <path id="Trazado_100718" data-name="Trazado 100718" d="M-353.257,629.251a1.829,1.829,0,0,1,.4,2.521,8.606,8.606,0,0,1,1.112,1.815c2.149-4.082,2.859-7.433,1.535-8.416s-4.305.63-7.589,3.823a8.386,8.386,0,0,1,2.033.568A1.83,1.83,0,0,1-353.257,629.251Z" transform="translate(357.8 -624.884)" fill="#b5ac84"/>
            </g>
          </g>
        </g>
        <g id="Grupo_53921" data-name="Grupo 53921" transform="translate(0 189.855)">
          <g id="Grupo_53920" data-name="Grupo 53920">
            <path id="Trazado_100719" data-name="Trazado 100719" d="M-385.866,707.89l-5.391-3.917-5.392,3.917,2.06-6.339-5.391-3.917h6.665l2.059-6.339,2.059,6.339h6.665l-5.392,3.917Zm-5.391-4.761,4.1,2.978-1.565-4.818,4.1-2.978h-5.067l-1.565-4.818-1.566,4.818h-5.067l4.1,2.978-1.565,4.818Z" transform="translate(399.981 -691.296)" fill="#b5ac84"/>
          </g>
        </g>
        <g id="Grupo_53923" data-name="Grupo 53923" transform="translate(442.229 238.046)">
          <g id="Grupo_53922" data-name="Grupo 53922" transform="translate(0)">
            <path id="Trazado_100720" data-name="Trazado 100720" d="M-37.652,745.837l-5.392-3.918-5.391,3.918,2.059-6.339-5.392-3.918H-45.1l2.06-6.339,2.06,6.339h6.665L-39.71,739.5Zm-5.392-4.761,4.1,2.977-1.567-4.818,4.1-2.978h-5.072l-1.567-4.818-1.565,4.818h-5.067l4.1,2.978-1.567,4.818Z" transform="translate(51.769 -729.242)" fill="#b5ac84"/>
          </g>
        </g>
      </g>
      <g id="Grupo_56055" data-name="Grupo 56055" transform="translate(76.447 17.441)">
        <path id="Trazado_105855" data-name="Trazado 105855" d="M-131.009,619.9s-19.85,34.172-25.258,42.744c-4.007,6.352-18.782,27.848-16.191-13.6,1.33-21.286,17.163-22.343,41.449-29.144" transform="translate(384.884 -538.16)" fill="#c67575"/>
        <g id="Grupo_56014" data-name="Grupo 56014" transform="translate(0 73.319)">
          <rect id="Rectángulo_5375" data-name="Rectángulo 5375" width="34.001" height="194.064" transform="translate(28.986)" fill="#877481"/>
          <path id="Trazado_105856" data-name="Trazado 105856" d="M-247.176,799.049h-92.611l11.5-180.751h68.979Z" transform="translate(339.787 -611.911)" fill="#ecd4df"/>
          <g id="Grupo_56013" data-name="Grupo 56013" transform="translate(0 6.387)">
            <g id="Grupo_56012" data-name="Grupo 56012" clip-path="url(#clip-path)">
              <g id="Grupo_56011" data-name="Grupo 56011" transform="translate(-11.895 -5.742)">
                <path id="Trazado_105857" data-name="Trazado 105857" d="M-337.111,619.8s16.144,37.384,82.415,45.88" transform="translate(352.404 -612.151)" fill="none" stroke="#ddb8cb" stroke-miterlimit="10" stroke-width="1"/>
                <path id="Trazado_105858" data-name="Trazado 105858" d="M-342.423,630.018s16.355,38.944,96.026,54.385" transform="translate(350.97 -609.392)" fill="none" stroke="#ddb8cb" stroke-miterlimit="10" stroke-width="1"/>
                <path id="Trazado_105859" data-name="Trazado 105859" d="M-343.281,641.133s16.355,38.943,96.026,54.384" transform="translate(350.738 -606.391)" fill="none" stroke="#ddb8cb" stroke-miterlimit="10" stroke-width="1"/>
                <path id="Trazado_105860" data-name="Trazado 105860" d="M-345.191,653.726s16.354,38.943,96.026,54.384" transform="translate(350.223 -602.991)" fill="none" stroke="#ddb8cb" stroke-miterlimit="10" stroke-width="1"/>
                <path id="Trazado_105861" data-name="Trazado 105861" d="M-341.1,683.392s45.852,21.192,72.19,11.846" transform="translate(351.327 -594.981)" fill="none" stroke="#ddb8cb" stroke-miterlimit="10" stroke-width="1"/>
                <path id="Trazado_105862" data-name="Trazado 105862" d="M-255.693,696.734s-16.993,11.045-45.88,13.594c-34.7,3.062-47.581,0-47.581,0" transform="translate(349.153 -591.379)" fill="none" stroke="#ddb8cb" stroke-miterlimit="10" stroke-width="1"/>
                <path id="Trazado_105863" data-name="Trazado 105863" d="M-244.032,704.762s-30.587,22.94-101.107,27.188" transform="translate(350.237 -589.211)" fill="none" stroke="#ddb8cb" stroke-miterlimit="10" stroke-width="1"/>
                <path id="Trazado_105864" data-name="Trazado 105864" d="M-242.025,716.8s-22.94,24.639-101.107,32.286" transform="translate(350.779 -585.96)" fill="none" stroke="#ddb8cb" stroke-miterlimit="10" stroke-width="1"/>
                <path id="Trazado_105865" data-name="Trazado 105865" d="M-243.363,732.191s-22.94,24.641-101.107,32.287" transform="translate(350.417 -581.805)" fill="none" stroke="#ddb8cb" stroke-miterlimit="10" stroke-width="1"/>
                <path id="Trazado_105866" data-name="Trazado 105866" d="M-239.349,742.226s-22.94,24.641-101.107,32.287" transform="translate(351.501 -579.096)" fill="none" stroke="#ddb8cb" stroke-miterlimit="10" stroke-width="1"/>
                <path id="Trazado_105867" data-name="Trazado 105867" d="M-329.752,634.168s49.28-3.4,73.069-20.391" transform="translate(354.391 -613.777)" fill="none" stroke="#ddb8cb" stroke-miterlimit="10" stroke-width="1"/>
                <path id="Trazado_105868" data-name="Trazado 105868" d="M-319.047,643.534s49.278-3.4,73.068-20.391" transform="translate(357.282 -611.248)" fill="none" stroke="#ddb8cb" stroke-miterlimit="10" stroke-width="1"/>
                <path id="Trazado_105869" data-name="Trazado 105869" d="M-304.329,650.893s49.278-3.4,73.069-20.391" transform="translate(361.255 -609.261)" fill="none" stroke="#ddb8cb" stroke-miterlimit="10" stroke-width="1"/>
                <path id="Trazado_105870" data-name="Trazado 105870" d="M-287.6,656.914s49.28-3.4,73.069-20.391" transform="translate(365.771 -607.636)" fill="none" stroke="#ddb8cb" stroke-miterlimit="10" stroke-width="1"/>
              </g>
            </g>
          </g>
        </g>
        <path id="Trazado_105872" data-name="Trazado 105872" d="M-220.426,572.68c-.972,24.286-23.315,38.858-34,58.288s3.885,43.715,6.8,70.915-27.2,87.432-21.372,120.462l162.233-1.943s-28.172-86.46-30.116-117.547,12.629-55.373,17.487-74.8-37.887-27.2-42.744-34-1.943-22.343-1.943-22.343Z" transform="translate(358.697 -551.171)" fill="#84747e"/>
        <g id="Grupo_56017" data-name="Grupo 56017" transform="translate(88.948 20.537)">
          <g id="Grupo_56016" data-name="Grupo 56016" clip-path="url(#clip-path-2)">
            <g id="Grupo_56015" data-name="Grupo 56015" transform="translate(11.437 -12.629)">
              <path id="Trazado_105873" data-name="Trazado 105873" d="M-211.712,561.764s0,29.144-7.771,43.716-13.924,43.715-5.182,70.916,2.267,42.744-10.362,70.917-16.515,68.974-9.714,78.688" transform="translate(264.171 -561.764)" fill="none" stroke="#b28ea1" stroke-miterlimit="10" stroke-width="2" stroke-dasharray="9 10"/>
              <path id="Trazado_105874" data-name="Trazado 105874" d="M-260.744,639.787s1.943,11.657,39.506,14.248c51.7,3.565,93.908-11.659,93.908-11.659" transform="translate(260.744 -540.698)" fill="none" stroke="#b28ea1" stroke-miterlimit="10" stroke-width="2" stroke-dasharray="9 10"/>
              <path id="Trazado_105875" data-name="Trazado 105875" d="M-259.214,729.757s18.457,20.4,75.773,11.657,55.373-17.485,55.373-17.485" transform="translate(261.157 -517.98)" fill="none" stroke="#b28ea1" stroke-miterlimit="10" stroke-width="2" stroke-dasharray="9 10"/>
            </g>
          </g>
        </g>
        <path id="Trazado_105877" data-name="Trazado 105877" d="M-244.505,681.093l124.995,44.04s26.553,59.906,23.64,67.678-196.235.97-196.235.97,9.186-36.849,21.372-63.144C-252.276,690.807-244.505,681.093-244.505,681.093Z" transform="translate(352.661 -521.638)" fill="#f16c7a"/>
        <g id="Grupo_56019" data-name="Grupo 56019" transform="translate(60.554 159.455)">
          <g id="Grupo_56018" data-name="Grupo 56018" clip-path="url(#clip-path-3)">
            <path id="Trazado_105878" data-name="Trazado 105878" d="M-154.5,597.333s24.287,3.886,39.83,19.43,17.487,19.428,17.487,19.428-29.35,12.075-48.572,27.2c-39.506,31.087-38.983,160.012-43.716,172.11-42.1,1.943-56.915-44.868-73.508-53.592-24.624-12.948-28.277-45.383-33.264-66.067.664,3.856,16.767,1.683,31.483-15.375,6.435-7.457,9.714-3.886,22.343-17C-223.345,663.664-186.845,608.584-154.5,597.333Z" transform="translate(290.989 -703.708)" fill="#d1596a"/>
          </g>
        </g>
        <g id="Grupo_56023" data-name="Grupo 56023" transform="translate(267.475 123.991)">
          <rect id="Rectángulo_5376" data-name="Rectángulo 5376" width="25.917" height="147.925" transform="translate(22.094)" fill="#877481"/>
          <path id="Trazado_105880" data-name="Trazado 105880" d="M-58.584,794.779h-70.593L-120.413,657h52.579Z" transform="translate(129.176 -652.133)" fill="#86bec4"/>
          <g id="Grupo_56022" data-name="Grupo 56022" transform="translate(0 4.868)">
            <g id="Grupo_56021" data-name="Grupo 56021" clip-path="url(#clip-path-4)">
              <g id="Grupo_56020" data-name="Grupo 56020" transform="translate(-9.067 -4.378)">
                <path id="Trazado_105881" data-name="Trazado 105881" d="M-127.136,658.145a42.274,42.274,0,0,0,5.549,7.409,57.65,57.65,0,0,0,6.655,6.37,79.018,79.018,0,0,0,15.439,9.947,105.484,105.484,0,0,0,17.134,6.814c2.939.94,5.959,1.617,8.942,2.45,3.02.681,6.067,1.256,9.1,1.983-3.095-.274-6.189-.658-9.294-1.015-3.049-.643-6.139-1.157-9.171-1.927a82.055,82.055,0,0,1-8.956-2.824c-1.462-.567-2.943-1.09-4.392-1.692l-4.27-1.993a72.719,72.719,0,0,1-15.549-10.581C-120.526,668.817-124.691,663.911-127.136,658.145Z" transform="translate(138.795 -652.316)" fill="#76aaad"/>
                <path id="Trazado_105882" data-name="Trazado 105882" d="M-131.186,665.936a42.288,42.288,0,0,0,6.524,8.546c1.173,1.353,2.537,2.529,3.8,3.787,1.34,1.186,2.724,2.323,4.093,3.467a98.917,98.917,0,0,0,18.176,11.332c6.322,3.385,13.095,5.815,19.84,8.28l10.3,3.214c3.476.942,6.974,1.82,10.455,2.827-3.569-.559-7.121-1.247-10.695-1.869-3.513-.87-7.029-1.756-10.533-2.7a132.857,132.857,0,0,1-20.276-7.96,91.406,91.406,0,0,1-18.255-11.939C-123.176,678.118-128.27,672.609-131.186,665.936Z" transform="translate(137.701 -650.212)" fill="#76aaad"/>
                <path id="Trazado_105883" data-name="Trazado 105883" d="M-131.84,674.408a42.248,42.248,0,0,0,6.525,8.546c1.172,1.353,2.536,2.529,3.8,3.787,1.339,1.186,2.723,2.323,4.092,3.467A99.026,99.026,0,0,0-99.243,701.54c6.322,3.385,13.095,5.815,19.84,8.279l10.3,3.216c3.477.942,6.974,1.82,10.455,2.827-3.569-.559-7.121-1.247-10.695-1.869-3.512-.87-7.029-1.756-10.533-2.7a133.108,133.108,0,0,1-20.276-7.96A91.36,91.36,0,0,1-118.4,691.4C-123.83,686.59-128.924,681.081-131.84,674.408Z" transform="translate(137.525 -647.925)" fill="#76aaad"/>
                <path id="Trazado_105884" data-name="Trazado 105884" d="M-133.3,684.007a42.287,42.287,0,0,0,6.524,8.546c1.173,1.353,2.537,2.529,3.8,3.787,1.339,1.186,2.723,2.323,4.092,3.467A98.914,98.914,0,0,0-100.7,711.139c6.322,3.385,13.095,5.817,19.84,8.28l10.3,3.214c3.476.942,6.974,1.82,10.455,2.827-3.569-.559-7.121-1.247-10.695-1.869-3.513-.87-7.029-1.756-10.533-2.7a132.837,132.837,0,0,1-20.276-7.96A91.409,91.409,0,0,1-119.858,701C-125.286,696.189-130.38,690.68-133.3,684.007Z" transform="translate(137.131 -645.333)" fill="#76aaad"/>
                <path id="Trazado_105885" data-name="Trazado 105885" d="M-130.179,706.619c4.489,1.556,8.979,3.029,13.5,4.378,4.526,1.319,9.06,2.589,13.656,3.536a93.858,93.858,0,0,0,13.879,2.084,46.809,46.809,0,0,0,14-.966A35.277,35.277,0,0,1-89.2,718.165a66.151,66.151,0,0,1-14.251-1.666,96.6,96.6,0,0,1-13.719-4.04A94.771,94.771,0,0,1-130.179,706.619Z" transform="translate(137.973 -639.228)" fill="#76aaad"/>
                <path id="Trazado_105886" data-name="Trazado 105886" d="M-65.075,716.789a63.015,63.015,0,0,1-16.612,7.755,93.224,93.224,0,0,1-18.07,3.588c-6.095.461-12.2.857-18.324.8-6.1-.1-12.282-.306-18.236-1.777a73.766,73.766,0,0,0,9.107.417c3.035.025,6.071-.031,9.1-.188,6.062-.26,12.127-.637,18.169-1.252a106.012,106.012,0,0,0,17.823-3.066,88.366,88.366,0,0,0,8.66-2.7A66.053,66.053,0,0,0-65.075,716.789Z" transform="translate(136.316 -636.482)" fill="#76aaad"/>
                <path id="Trazado_105887" data-name="Trazado 105887" d="M-56.186,722.909c-5.34,4.136-11.5,7.093-17.711,9.71a148.464,148.464,0,0,1-19.285,6.186l-4.942,1.115-4.976.931c-3.31.657-6.656,1.1-10,1.525-3.348.4-6.712.631-10.062.944-3.369.122-6.731.272-10.094.312,3.334-.5,6.673-.841,10-1.294,3.316-.511,6.643-.914,9.942-1.495,6.594-1.156,13.194-2.281,19.658-3.993a178.232,178.232,0,0,0,19.209-5.671c3.139-1.137,6.264-2.336,9.3-3.727A72.807,72.807,0,0,0-56.186,722.909Z" transform="translate(137.142 -634.83)" fill="#76aaad"/>
                <path id="Trazado_105888" data-name="Trazado 105888" d="M-54.657,732.088c-4.774,4.969-10.927,8.385-17.1,11.35a125.252,125.252,0,0,1-19.375,7.045,193.523,193.523,0,0,1-20.14,4.262l-10.2,1.264c-3.423.229-6.833.525-10.25.69,3.372-.62,6.751-1.11,10.119-1.668l10.07-1.811c3.319-.78,6.68-1.337,9.992-2.12,3.3-.829,6.626-1.552,9.873-2.555a144.58,144.58,0,0,0,19.286-6.515,93.324,93.324,0,0,0,9.2-4.356A48.434,48.434,0,0,0-54.657,732.088Z" transform="translate(137.555 -632.351)" fill="#76aaad"/>
                <path id="Trazado_105889" data-name="Trazado 105889" d="M-55.677,743.817c-4.774,4.969-10.927,8.385-17.1,11.35a125.258,125.258,0,0,1-19.375,7.045,193.539,193.539,0,0,1-20.14,4.262l-10.2,1.264c-3.423.227-6.833.525-10.25.69,3.372-.62,6.753-1.11,10.119-1.667l10.07-1.811c3.32-.78,6.68-1.337,9.992-2.12,3.3-.829,6.626-1.552,9.874-2.555a144.571,144.571,0,0,0,19.285-6.515,93.02,93.02,0,0,0,9.2-4.357A48.349,48.349,0,0,0-55.677,743.817Z" transform="translate(137.28 -629.184)" fill="#76aaad"/>
                <path id="Trazado_105890" data-name="Trazado 105890" d="M-52.617,751.466c-4.775,4.971-10.927,8.386-17.1,11.351a125.311,125.311,0,0,1-19.374,7.043,193.947,193.947,0,0,1-20.14,4.263l-10.2,1.262c-3.421.229-6.831.525-10.249.69,3.372-.62,6.751-1.11,10.119-1.668l10.07-1.811c3.319-.78,6.68-1.337,9.991-2.12,3.3-.829,6.627-1.552,9.874-2.555a144.206,144.206,0,0,0,19.286-6.515,93.435,93.435,0,0,0,9.2-4.356A48.366,48.366,0,0,0-52.617,751.466Z" transform="translate(138.106 -627.119)" fill="#76aaad"/>
                <path id="Trazado_105891" data-name="Trazado 105891" d="M-121.527,669.1c4.815-.8,9.6-1.617,14.365-2.529,4.754-.954,9.508-1.874,14.192-3.071,4.686-1.166,9.356-2.421,13.905-4.023a79.426,79.426,0,0,0,13.235-5.921,51.249,51.249,0,0,1-12.678,7.366,91.715,91.715,0,0,1-13.983,4.533,124.857,124.857,0,0,1-14.428,2.639A113.131,113.131,0,0,1-121.527,669.1Z" transform="translate(140.309 -653.555)" fill="#76aaad"/>
                <path id="Trazado_105892" data-name="Trazado 105892" d="M-113.368,676.239c4.815-.8,9.6-1.617,14.365-2.529,4.754-.954,9.508-1.875,14.192-3.072,4.686-1.166,9.357-2.421,13.906-4.023A79.558,79.558,0,0,0-57.671,660.7a51.229,51.229,0,0,1-12.678,7.365,91.572,91.572,0,0,1-13.983,4.532,125.135,125.135,0,0,1-14.428,2.641A113.366,113.366,0,0,1-113.368,676.239Z" transform="translate(142.512 -651.627)" fill="#76aaad"/>
                <path id="Trazado_105893" data-name="Trazado 105893" d="M-102.149,681.848c4.815-.8,9.6-1.617,14.365-2.529,4.754-.954,9.508-1.875,14.192-3.071,4.686-1.166,9.357-2.422,13.906-4.025A79.464,79.464,0,0,0-46.452,666.3,51.229,51.229,0,0,1-59.13,673.67,91.714,91.714,0,0,1-73.113,678.2a125.1,125.1,0,0,1-14.428,2.639A113.127,113.127,0,0,1-102.149,681.848Z" transform="translate(145.541 -650.113)" fill="#76aaad"/>
                <path id="Trazado_105894" data-name="Trazado 105894" d="M-89.4,686.437c4.815-.8,9.6-1.617,14.365-2.528,4.754-.954,9.508-1.875,14.192-3.072,4.686-1.165,9.356-2.421,13.906-4.023A79.554,79.554,0,0,0-33.7,670.894a51.25,51.25,0,0,1-12.678,7.365,91.733,91.733,0,0,1-13.983,4.534,125.458,125.458,0,0,1-14.428,2.639A113.36,113.36,0,0,1-89.4,686.437Z" transform="translate(148.983 -648.874)" fill="#76aaad"/>
              </g>
            </g>
          </g>
        </g>
        <path id="Trazado_105896" data-name="Trazado 105896" d="M-279.54,672.078a55.862,55.862,0,0,1,4.286-4.411c2.4-1.311-.3,3.357-.3,3.357s7.087-4.026,8-2.831c.73.953-2.673,2.969-2.673,2.969s3.781-2.3,4.575-1.2-3.5,2.835-3.5,2.835,3.625-.743,3.651-.014c.044,1.224-3.684,1.711-3.684,1.711s3.061.621,2.551,1.51-9.251,1.534-9.251,1.534Z" transform="translate(356.053 -525.325)" fill="#e2857b"/>
        <path id="Trazado_105897" data-name="Trazado 105897" d="M-296.338,675.28l4.95,4.951,17.742-9.9,3.875,6.854s-13.364,12.537-20.378,13.776-9.077-4.539-9.077-4.539Z" transform="translate(350.738 -524.544)" fill="#edad54"/>
        <path id="Trazado_105898" data-name="Trazado 105898" d="M-154.881,589.3s24.286,3.886,39.83,19.43,17.487,19.428,17.487,19.428-29.351,12.075-48.574,27.2c-39.506,31.087-52.1,149.813-56.83,161.911-42.1,1.942-43.8-34.667-60.392-43.392-24.624-12.948-28.278-45.383-33.265-66.067.664,3.856,16.768,1.683,31.483-15.375,6.435-7.457,9.715-3.886,22.344-17C-223.727,655.633-187.227,600.552-154.881,589.3Z" transform="translate(351.44 -546.421)" fill="#f16c7a"/>
        <g id="Grupo_56037" data-name="Grupo 56037" transform="translate(222.219)">
          <path id="Trazado_105899" data-name="Trazado 105899" d="M-150.776,603.867a55.647,55.647,0,0,0-4.286-4.41c-2.4-1.311.3,3.357.3,3.357s-7.087-4.026-8-2.832c-.73.952,2.673,2.971,2.673,2.971s-3.781-2.3-4.575-1.2,3.5,2.835,3.5,2.835-3.625-.743-3.651-.013c-.043,1.223,3.684,1.711,3.684,1.711s-3.061.62-2.55,1.51,9.249,1.533,9.249,1.533Z" transform="translate(164.811 -543.742)" fill="#e2857b"/>
          <path id="Trazado_105900" data-name="Trazado 105900" d="M-122.557,570.084s-3.8-7.318-8.341-1.189-2.036,7.869.324,13.277c2.066,4.733,2.656,10.123,9.068,9.716s.222.16.222.16Z" transform="translate(173.285 -552.591)" fill="#4c4048"/>
          <path id="Trazado_105901" data-name="Trazado 105901" d="M-111.89,660.932l-1.3,11.537a74.344,74.344,0,0,1,1.857,21.351,112.292,112.292,0,0,1-3.4,22.28l-8.045-.31-3.094-50.129Z" transform="translate(175.325 -527.081)" fill="#e2857b"/>
          <path id="Trazado_105902" data-name="Trazado 105902" d="M-123.108,666.5l-.31,5.88a74.4,74.4,0,0,1,1.857,21.351,112.292,112.292,0,0,1-3.4,22.28l-7.117-.62-4.023-54.151Z" transform="translate(172.562 -526.997)" fill="#e2857b"/>
          <path id="Trazado_105903" data-name="Trazado 105903" d="M-106.848,623.705l7.447,93.908a79.851,79.851,0,0,1-23.315,1.619c-15.022-1.077-19.43-2.915-19.43-2.915l9.528-91.662Z" transform="translate(170.931 -537.132)" fill="#ecd4df"/>
          <g id="Grupo_56025" data-name="Grupo 56025" transform="translate(28.786 86.573)">
            <g id="Grupo_56024" data-name="Grupo 56024" clip-path="url(#clip-path-5)">
              <path id="Trazado_105904" data-name="Trazado 105904" d="M-131.211,626.479l-8.419,91.965,4.857,1.3,7.124-91.317,3.562-.324-6.153,91.317,4.857.324,5.181-91.317,3.886-.324-3.238,91.965,4.857.324.971-92.289,2.914-.324.648,91.641,6.476-.324-5.181-93.584" transform="translate(142.824 -623.218)" fill="none" stroke="#e0b8cd" stroke-miterlimit="10" stroke-width="1"/>
            </g>
          </g>
          <path id="Trazado_105906" data-name="Trazado 105906" d="M-119,591.454c3.133.258,7.84-.413,11.14,14.441,1.844,8.3-.423,31.357-.423,31.357-10.32,2.693-19.1,1.85-26.473-1.571,0,0,2.916-12.115-1.121-22.21-2.112-5.278,2.323-10.3,5.118-14.591C-124.569,589.392-121.225,591.273-119,591.454Z" transform="translate(172.475 -545.913)" fill="#fff"/>
          <g id="Grupo_56030" data-name="Grupo 56030" transform="translate(41.364 12.088)">
            <g id="Grupo_56028" data-name="Grupo 56028" transform="translate(6.397 22.64)">
              <path id="Trazado_105907" data-name="Trazado 105907" d="M-127.2,594.115c.9,4.2,5.229,3.336,10.422,1.054l1.134-12.287-10.208,2.833Z" transform="translate(127.204 -582.882)" fill="#e2857b"/>
              <g id="Grupo_56027" data-name="Grupo 56027">
                <g id="Grupo_56026" data-name="Grupo 56026" clip-path="url(#clip-path-6)">
                  <path id="Trazado_105908" data-name="Trazado 105908" d="M-132.869,579.221c-1.623,7.052-1.307,14.012,5.113,15.489s14.656-3.379,16.279-10.43-1.878-12.17-8.3-13.649S-131.245,572.17-132.869,579.221Z" transform="translate(125.451 -586.289)" fill="#2b1c40"/>
                </g>
              </g>
            </g>
            <path id="Trazado_105910" data-name="Trazado 105910" d="M-131.414,577.706c-1.623,7.052-1.308,14.01,5.113,15.489s14.656-3.379,16.279-10.432-1.878-12.17-8.3-13.647S-129.79,570.654-131.414,577.706Z" transform="translate(132.241 -564.058)" fill="#e2857b"/>
            <path id="Trazado_105911" data-name="Trazado 105911" d="M-116.7,581.923c-.132,2.906-.037,9.854,1.421,9.125,8.691-4.345,12.91-18.052.552-23.848-14.4-6.753-13.866,4.6-13.866,4.6S-116.424,575.794-116.7,581.923Z" transform="translate(133.225 -565.055)" fill="#4c4048"/>
            <path id="Trazado_105912" data-name="Trazado 105912" d="M-128.49,581.8a2.05,2.05,0,0,0,1.858,2.214,2.052,2.052,0,0,0,2.423-1.577" transform="translate(133.249 -560.536)" fill="none" stroke="#2b1c40" stroke-miterlimit="10" stroke-width="0.516"/>
            <path id="Trazado_105913" data-name="Trazado 105913" d="M-123.879,578.958a.81.81,0,0,0,.56,1,.808.808,0,0,0,.937-.65.807.807,0,0,0-.559-.994A.809.809,0,0,0-123.879,578.958Z" transform="translate(134.492 -561.482)" fill="#2b1c40"/>
            <path id="Trazado_105914" data-name="Trazado 105914" d="M-129.579,578.033a.809.809,0,0,0,.559,1,.809.809,0,0,0,.939-.65.81.81,0,0,0-.56-1A.81.81,0,0,0-129.579,578.033Z" transform="translate(132.953 -561.732)" fill="#2b1c40"/>
            <path id="Trazado_105915" data-name="Trazado 105915" d="M-126.224,578.574s-.563,1.794-1.2,2.1-.409,1.421.848,1.609" transform="translate(133.448 -561.405)" fill="none" stroke="#2b1c40" stroke-miterlimit="10" stroke-width="0.604"/>
            <path id="Trazado_105916" data-name="Trazado 105916" d="M-120.638,577.048s-1.858-1.462-3.55-.725" transform="translate(134.415 -562.069)" fill="none" stroke="#2b1c40" stroke-miterlimit="10" stroke-width="0.604"/>
            <path id="Trazado_105917" data-name="Trazado 105917" d="M-130,575.634s2.2-.858,3.607.339" transform="translate(132.846 -562.279)" fill="none" stroke="#2b1c40" stroke-miterlimit="10" stroke-width="0.604"/>
            <g id="Grupo_56029" data-name="Grupo 56029" transform="translate(15.752 16.421)">
              <path id="Trazado_105918" data-name="Trazado 105918" d="M-118.921,583.695a3.445,3.445,0,0,0,3.852-2.64c.274-1.843-1.466-3.532-2.922-2.954C-119.987,578.891-120.471,583.465-118.921,583.695Z" transform="translate(119.838 -577.985)" fill="#e2857b"/>
              <path id="Trazado_105919" data-name="Trazado 105919" d="M-118.361,579.469s.881.724.34,1.039-1.646,2.424,1.045.946" transform="translate(120.142 -577.585)" fill="none" stroke="#2b1c40" stroke-miterlimit="10" stroke-width="0.604"/>
            </g>
          </g>
          <g id="Grupo_56033" data-name="Grupo 56033" transform="translate(26.004 185.287)">
            <path id="Trazado_105920" data-name="Trazado 105920" d="M-123.1,701.911s3.4,8.974,1.238,11.759-22.28,2.165-22.28,2.165a4.212,4.212,0,0,1,2.475-5.26c3.713-1.547,11.449-5.26,12.069-7.736S-123.1,701.911-123.1,701.911Z" transform="translate(144.336 -701.433)" fill="#e2857b"/>
            <g id="Grupo_56032" data-name="Grupo 56032">
              <g id="Grupo_56031" data-name="Grupo 56031" clip-path="url(#clip-path-7)">
                <path id="Trazado_105921" data-name="Trazado 105921" d="M-117.943,706.807s-14.234,4.332-16.709,3.714-5.57-3.4-5.57-3.4l-9.284,3.094.62,4.952s21.66-.618,22.9-.618,8.355-2.167,8.355-2.167Z" transform="translate(142.94 -699.982)" fill="#fff"/>
              </g>
            </g>
          </g>
          <path id="Trazado_105923" data-name="Trazado 105923" d="M-130.7,607.07l-4.952,4.95-17.741-9.9-3.875,6.853s13.364,12.539,20.378,13.777,9.077-4.539,9.077-4.539Z" transform="translate(166.848 -542.961)" fill="#fff"/>
          <g id="Grupo_56036" data-name="Grupo 56036" transform="translate(39.803 185.278)">
            <path id="Trazado_105924" data-name="Trazado 105924" d="M-114.9,701.426s5.691,7.728,4.354,10.992c-.574,1.4-4.51,3.092-8.811,4.562-5.71,1.951-14.1.714-14.1.714s-.376-.914,2.784-3.4,9.837-7.672,9.768-10.222S-114.9,701.426-114.9,701.426Z" transform="translate(133.47 -701.426)" fill="#e2857b"/>
            <g id="Grupo_56035" data-name="Grupo 56035">
              <g id="Grupo_56034" data-name="Grupo 56034" clip-path="url(#clip-path-8)">
                <path id="Trazado_105925" data-name="Trazado 105925" d="M-109.868,706.32l-10.212,5.57s-5.26,1.857-8.354-.928-6.808,4.642-6.808,4.642l-.618,4.641,28.158-2.475Z" transform="translate(132.824 -700.105)" fill="#fff"/>
              </g>
            </g>
          </g>
          <path id="Trazado_105927" data-name="Trazado 105927" d="M-131.672,598.463c-2.611,3.561-6.817,7.478-3.712,13.821s.618,21.043.618,21.043" transform="translate(172.46 -543.948)" fill="none" stroke="#d4d4d4" stroke-miterlimit="10" stroke-width="1"/>
          <path id="Trazado_105928" data-name="Trazado 105928" d="M-123.7,599.212c-.29,6.281-.933,22.462-.933,22.462l-6.422-1.718-5.182,8.095s12.863,12.109,22.264,4.682c5.232-4.134,2.122-27.249,2.122-27.249Z" transform="translate(172.526 -543.745)" fill="#fff"/>
          <path id="Trazado_105929" data-name="Trazado 105929" d="M-135.729,626.22s11.011,10.363,18.368,4.883c5.348-3.983,5.1-25.109,5.1-25.109" transform="translate(172.663 -541.914)" fill="none" stroke="#d4d4d4" stroke-miterlimit="10" stroke-width="1"/>
          <path id="Trazado_105930" data-name="Trazado 105930" d="M-124.9,602.859c-.29,6.28-.7,17.831-.7,17.831l-7.07-2.042" transform="translate(173.49 -542.761)" fill="none" stroke="#d4d4d4" stroke-miterlimit="10" stroke-width="1"/>
          <path id="Trazado_105931" data-name="Trazado 105931" d="M-127.919,616.985s1.61.166,6.5,3.275" transform="translate(174.772 -538.947)" fill="none" stroke="#d4d4d4" stroke-miterlimit="10" stroke-width="1"/>
          <path id="Trazado_105932" data-name="Trazado 105932" d="M-130.246,616.925a55.882,55.882,0,0,0-4.286-4.409c-2.4-1.312.3,3.355.3,3.355s-7.087-4.026-8-2.831c-.73.952,2.673,2.969,2.673,2.969s-3.781-2.3-4.575-1.2,3.5,2.835,3.5,2.835-3.625-.743-3.651-.013c-.043,1.223,3.684,1.711,3.684,1.711s-3.061.62-2.551,1.51,9.251,1.533,9.251,1.533Z" transform="translate(170.354 -540.216)" fill="#e2857b"/>
          <path id="Trazado_105933" data-name="Trazado 105933" d="M-118.727,559.307c-1.29,3.114-1.449,10.64,1.665,11.929s8.322-4.145,9.613-7.259a6.1,6.1,0,0,0-3.3-7.974A6.1,6.1,0,0,0-118.727,559.307Z" transform="translate(177.019 -555.537)" fill="#4c4048"/>
        </g>
        <g id="Grupo_56049" data-name="Grupo 56049" transform="translate(21.962 100.484)">
          <path id="Trazado_105934" data-name="Trazado 105934" d="M-307.706,638.295s3.8-7.319,8.341-1.189,5.768,15.091,3.407,20.5c-2.066,4.733-5,5.751-11.415,5.343s-2.671-4.858-2.671-4.858Z" transform="translate(325.563 -634.659)" fill="#2e3b4a"/>
          <path id="Trazado_105935" data-name="Trazado 105935" d="M-318.3,729.142-317,740.679a74.4,74.4,0,0,0-1.857,21.351,112.29,112.29,0,0,0,3.4,22.28l8.045-.309,3.1-50.129Z" transform="translate(323.448 -609.149)" fill="#ff8762"/>
          <path id="Trazado_105936" data-name="Trazado 105936" d="M-307.079,734.715l.309,5.879a74.4,74.4,0,0,0-1.857,21.351,112.347,112.347,0,0,0,3.4,22.28l7.117-.619,4.022-54.151Z" transform="translate(326.211 -609.064)" fill="#ff8762"/>
          <path id="Trazado_105937" data-name="Trazado 105937" d="M-291.6,694.125l6.731,46.27s-1.943,3.238-9.714,4.534-25.905-3.238-25.905-3.238-1.3-14.9-1.943-27.849,4.335-17.756,4.335-17.756Z" transform="translate(322.494 -618.603)" fill="#fcb268"/>
          <path id="Trazado_105938" data-name="Trazado 105938" d="M-308.075,659.666c-3.133.257-7.838-.413-11.139,14.44-1.844,8.3.423,31.357.423,31.357,10.32,2.692,19.1,1.852,26.472-1.57,0,0-2.916-12.114,1.123-22.21,2.111-5.279-2.324-10.3-5.119-14.592C-302.505,657.6-305.849,659.483-308.075,659.666Z" transform="translate(323.184 -627.98)" fill="#fcb268"/>
          <g id="Grupo_56042" data-name="Grupo 56042" transform="translate(4.607 2.921)">
            <g id="Grupo_56040" data-name="Grupo 56040" transform="translate(4.662 17.95)">
              <path id="Trazado_105939" data-name="Trazado 105939" d="M-303.641,662.325c-.9,4.2-5.227,3.338-10.42,1.054l-1.134-12.286,10.207,2.832Z" transform="translate(315.195 -651.093)" fill="#e2857b"/>
              <g id="Grupo_56039" data-name="Grupo 56039">
                <g id="Grupo_56038" data-name="Grupo 56038" clip-path="url(#clip-path-9)">
                  <path id="Trazado_105940" data-name="Trazado 105940" d="M-295.624,647.432c1.623,7.052,1.308,14.011-5.113,15.489s-14.656-3.379-16.279-10.432,1.878-12.17,8.3-13.647S-297.247,640.38-295.624,647.432Z" transform="translate(314.597 -654.5)" fill="#2b1c40"/>
                </g>
              </g>
            </g>
            <path id="Trazado_105942" data-name="Trazado 105942" d="M-297.079,645.916c1.623,7.052,1.308,14.012-5.112,15.489s-14.657-3.38-16.28-10.432,1.878-12.169,8.3-13.647S-298.7,638.865-297.079,645.916Z" transform="translate(318.866 -636.959)" fill="#e2857b"/>
            <path id="Trazado_105943" data-name="Trazado 105943" d="M-303.9,650.005a2.053,2.053,0,0,1-1.859,2.215,2.051,2.051,0,0,1-2.422-1.579" transform="translate(321.752 -633.437)" fill="none" stroke="#2b1c40" stroke-miterlimit="10" stroke-width="0.516"/>
            <path id="Trazado_105944" data-name="Trazado 105944" d="M-309.094,647.169a.808.808,0,0,1-.559.994.809.809,0,0,1-.939-.65.809.809,0,0,1,.559-.994A.809.809,0,0,1-309.094,647.169Z" transform="translate(321.094 -634.383)" fill="#2b1c40"/>
            <path id="Trazado_105945" data-name="Trazado 105945" d="M-303.392,646.244a.809.809,0,0,1-.56.994.809.809,0,0,1-.939-.65.809.809,0,0,1,.56-.994A.809.809,0,0,1-303.392,646.244Z" transform="translate(322.633 -634.633)" fill="#2b1c40"/>
            <path id="Trazado_105946" data-name="Trazado 105946" d="M-306.748,646.784s.564,1.8,1.2,2.1.409,1.422-.848,1.609" transform="translate(322.138 -634.307)" fill="none" stroke="#2b1c40" stroke-miterlimit="10" stroke-width="0.604"/>
            <path id="Trazado_105947" data-name="Trazado 105947" d="M-311.908,645.259s1.859-1.463,3.55-.726" transform="translate(320.744 -634.97)" fill="none" stroke="#2b1c40" stroke-miterlimit="10" stroke-width="0.604"/>
            <path id="Trazado_105948" data-name="Trazado 105948" d="M-302.535,643.846s-2.2-.86-3.608.338" transform="translate(322.301 -635.181)" fill="none" stroke="#2b1c40" stroke-miterlimit="10" stroke-width="0.604"/>
            <g id="Grupo_56041" data-name="Grupo 56041" transform="translate(2.064 11.73)">
              <path id="Trazado_105949" data-name="Trazado 105949" d="M-313.359,651.906a3.447,3.447,0,0,1-3.853-2.64c-.273-1.843,1.467-3.532,2.922-2.955C-312.295,647.1-311.811,651.676-313.359,651.906Z" transform="translate(317.24 -646.196)" fill="#e2857b"/>
              <path id="Trazado_105950" data-name="Trazado 105950" d="M-314.57,647.68s-.881.724-.34,1.039,1.645,2.424-1.045.946" transform="translate(317.587 -645.795)" fill="none" stroke="#2b1c40" stroke-miterlimit="10" stroke-width="0.604"/>
            </g>
          </g>
          <g id="Grupo_56045" data-name="Grupo 56045" transform="translate(19.383 171.43)">
            <path id="Trazado_105951" data-name="Trazado 105951" d="M-305.273,770.12s-3.4,8.974-1.238,11.759,22.28,2.167,22.28,2.167a4.211,4.211,0,0,0-2.475-5.26c-3.713-1.548-11.449-5.26-12.068-7.737S-305.273,770.12-305.273,770.12Z" transform="translate(307.232 -769.643)" fill="#ff8762"/>
            <g id="Grupo_56044" data-name="Grupo 56044">
              <g id="Grupo_56043" data-name="Grupo 56043" clip-path="url(#clip-path-10)">
                <path id="Trazado_105952" data-name="Trazado 105952" d="M-308.582,775.018s14.234,4.332,16.711,3.714,5.569-3.4,5.569-3.4l9.284,3.1-.618,4.951s-21.661-.619-22.9-.619-8.354-2.167-8.354-2.167Z" transform="translate(306.783 -768.192)" fill="#3b4b5e"/>
              </g>
            </g>
          </g>
          <g id="Grupo_56048" data-name="Grupo 56048" transform="translate(5.65 171.421)">
            <path id="Trazado_105954" data-name="Trazado 105954" d="M-313.488,769.636s-5.691,7.728-4.354,10.993c.575,1.4,4.51,3.091,8.811,4.56,5.71,1.951,14.1.715,14.1.715s.375-.916-2.785-3.4-9.837-7.673-9.768-10.223S-313.488,769.636-313.488,769.636Z" transform="translate(318.045 -769.636)" fill="#ff8762"/>
            <g id="Grupo_56047" data-name="Grupo 56047">
              <g id="Grupo_56046" data-name="Grupo 56046" clip-path="url(#clip-path-11)">
                <path id="Trazado_105955" data-name="Trazado 105955" d="M-317.445,774.53l10.211,5.57s5.26,1.857,8.355-.928,6.807,4.642,6.807,4.642l.618,4.642-28.158-2.475Z" transform="translate(317.622 -768.315)" fill="#3b4b5e"/>
              </g>
            </g>
          </g>
          <path id="Trazado_105957" data-name="Trazado 105957" d="M-304.219,667.423c.288,6.28.932,22.462.932,22.462l6.422-1.72,5.182,8.1s-12.863,12.108-22.264,4.681c-5.231-4.134-2.121-27.249-2.121-27.249Z" transform="translate(323.981 -625.813)" fill="#fcb268"/>
          <path id="Trazado_105958" data-name="Trazado 105958" d="M-292.514,694.431a24.209,24.209,0,0,1-9.707,6.7,11.062,11.062,0,0,1-6.227.413,8.789,8.789,0,0,1-2.945-1.384,7.067,7.067,0,0,1-2.113-2.582c-1.825-3.791-2.308-7.746-2.61-11.656a67.764,67.764,0,0,1,.138-11.721c.392,3.882.777,7.743,1.353,11.553.646,3.763,1.26,7.666,2.884,10.888a5.728,5.728,0,0,0,1.515,1.915,6.83,6.83,0,0,0,2.282,1.119,10.191,10.191,0,0,0,5.269-.083,21.337,21.337,0,0,0,5.232-2.111A39.963,39.963,0,0,0-292.514,694.431Z" transform="translate(324.165 -623.982)" fill="#edad54"/>
          <path id="Trazado_105959" data-name="Trazado 105959" d="M-306.639,671.069a100.382,100.382,0,0,1,1.662,17.8l-1.226-.888a37.435,37.435,0,0,1,7.336-1.12,37.322,37.322,0,0,1-6.8,2.965l-1.152.382-.074-1.27A100.153,100.153,0,0,1-306.639,671.069Z" transform="translate(326.631 -624.828)" fill="#edad54"/>
          <path id="Trazado_105960" data-name="Trazado 105960" d="M-304,685.239a13.6,13.6,0,0,1-1.4,1.318,10.424,10.424,0,0,1-1.48.984,7.4,7.4,0,0,1-3.619.971,5.956,5.956,0,0,1,2.667-2.744A4.907,4.907,0,0,1-304,685.239Z" transform="translate(325.733 -621.057)" fill="#edad54"/>
          <path id="Trazado_105961" data-name="Trazado 105961" d="M-300.632,685.7a55.868,55.868,0,0,1,4.286-4.411c2.4-1.311-.3,3.357-.3,3.357s7.087-4.026,8-2.831c.73.952-2.673,2.969-2.673,2.969s3.781-2.3,4.575-1.2-3.5,2.835-3.5,2.835,3.625-.743,3.651-.014c.043,1.224-3.684,1.711-3.684,1.711s3.061.621,2.551,1.51-9.251,1.534-9.251,1.534Z" transform="translate(328.396 -622.131)" fill="#e2857b"/>
          <path id="Trazado_105962" data-name="Trazado 105962" d="M-319.035,696a30.81,30.81,0,0,0,14.285,1.565c8.257-.972,12.187-3.134,12.187-3.134" transform="translate(323.428 -618.52)" fill="#edad54"/>
        </g>
        <path id="Trazado_105963" data-name="Trazado 105963" d="M-175,573.481c0,3.442-12.424,6.231-27.749,6.231s-27.749-2.789-27.749-6.231,12.423-6.231,27.749-6.231S-175,570.039-175,573.481Z" transform="translate(369.294 -552.375)" fill="#b29aa7"/>
        <g id="Grupo_56053" data-name="Grupo 56053" transform="translate(237.408 197.458)">
          <rect id="Rectángulo_5377" data-name="Rectángulo 5377" width="58.288" height="72.536" transform="translate(4.809 2.798)" fill="#fcb268"/>
          <rect id="Rectángulo_5378" data-name="Rectángulo 5378" width="67.906" height="11.364" fill="#877481"/>
          <rect id="Rectángulo_5379" data-name="Rectángulo 5379" width="67.906" height="11.364" transform="translate(0 69.945)" fill="#877481"/>
          <g id="Grupo_56052" data-name="Grupo 56052" transform="translate(4.81 14.745)">
            <g id="Grupo_56050" data-name="Grupo 56050">
              <path id="Trazado_105964" data-name="Trazado 105964" d="M-149.064,723.633c4.8-.415,9.606-.61,14.409-.771,4.8-.184,9.606-.21,14.409-.235,4.8.021,9.608.048,14.411.231,4.8.163,9.606.356,14.409.775-4.8.418-9.606.612-14.409.775-4.8.182-9.606.208-14.411.231-4.8-.025-9.606-.051-14.409-.235C-139.458,724.242-144.261,724.048-149.064,723.633Z" transform="translate(149.064 -722.627)" fill="#e29a59"/>
              <path id="Trazado_105965" data-name="Trazado 105965" d="M-149.064,729.242c4.8-.415,9.606-.61,14.409-.771,4.8-.184,9.606-.21,14.409-.235,4.8.023,9.608.05,14.411.232,4.8.161,9.606.356,14.409.773-4.8.419-9.606.612-14.409.775-4.8.183-9.606.209-14.411.232-4.8-.025-9.606-.052-14.409-.236C-139.458,729.852-144.261,729.657-149.064,729.242Z" transform="translate(149.064 -721.113)" fill="#e29a59"/>
              <path id="Trazado_105966" data-name="Trazado 105966" d="M-149.064,734.852c4.8-.415,9.606-.61,14.409-.771,4.8-.184,9.606-.211,14.409-.236,4.8.023,9.608.05,14.411.232,4.8.163,9.606.356,14.409.775-4.8.418-9.606.612-14.409.775-4.8.182-9.606.208-14.411.231-4.8-.025-9.606-.051-14.409-.235C-139.458,735.462-144.261,735.267-149.064,734.852Z" transform="translate(149.064 -719.598)" fill="#e29a59"/>
              <path id="Trazado_105967" data-name="Trazado 105967" d="M-149.064,740.461c4.8-.415,9.606-.61,14.409-.771,4.8-.184,9.606-.21,14.409-.235,4.8.023,9.608.049,14.411.231,4.8.163,9.606.357,14.409.775-4.8.419-9.606.612-14.409.775-4.8.183-9.606.21-14.411.232-4.8-.025-9.606-.052-14.409-.236C-139.458,741.07-144.261,740.876-149.064,740.461Z" transform="translate(149.064 -718.083)" fill="#e29a59"/>
            </g>
            <g id="Grupo_56051" data-name="Grupo 56051" transform="translate(0 27.849)">
              <path id="Trazado_105968" data-name="Trazado 105968" d="M-149.064,745.561c4.8-.415,9.606-.61,14.409-.771,4.8-.184,9.606-.211,14.409-.235,4.8.022,9.608.048,14.411.231,4.8.162,9.606.356,14.409.775-4.8.418-9.606.612-14.409.775-4.8.182-9.606.208-14.411.231-4.8-.025-9.606-.051-14.409-.235C-139.458,746.17-144.261,745.976-149.064,745.561Z" transform="translate(149.064 -744.555)" fill="#e29a59"/>
              <path id="Trazado_105969" data-name="Trazado 105969" d="M-149.064,751.17c4.8-.415,9.606-.61,14.409-.771,4.8-.184,9.606-.21,14.409-.235,4.8.023,9.608.049,14.411.232,4.8.161,9.606.356,14.409.773-4.8.419-9.606.612-14.409.775-4.8.183-9.606.21-14.411.233-4.8-.025-9.606-.052-14.409-.236C-139.458,751.779-144.261,751.585-149.064,751.17Z" transform="translate(149.064 -743.041)" fill="#e29a59"/>
              <path id="Trazado_105970" data-name="Trazado 105970" d="M-149.064,756.78c4.8-.415,9.606-.61,14.409-.771,4.8-.184,9.606-.211,14.409-.235,4.8.022,9.608.048,14.411.231,4.8.163,9.606.356,14.409.775-4.8.418-9.606.612-14.409.775-4.8.182-9.606.208-14.411.231-4.8-.025-9.606-.051-14.409-.235C-139.458,757.39-144.261,757.2-149.064,756.78Z" transform="translate(149.064 -741.526)" fill="#e29a59"/>
              <path id="Trazado_105971" data-name="Trazado 105971" d="M-149.064,762.389c4.8-.415,9.606-.61,14.409-.771,4.8-.184,9.606-.209,14.409-.235,4.8.023,9.608.049,14.411.231,4.8.163,9.606.357,14.409.775-4.8.419-9.606.612-14.409.775-4.8.183-9.606.21-14.411.231-4.8-.024-9.606-.051-14.409-.235C-139.458,763-144.261,762.8-149.064,762.389Z" transform="translate(149.064 -740.011)" fill="#e29a59"/>
            </g>
          </g>
        </g>
        <path id="Trazado_105972" data-name="Trazado 105972" d="M-299.23,634.116c3.731.6.243,8.257-2.186,10.443s-8.5,2.428-9.958,5.586,1.458,14.572,3.886,15.058c0,0-9.714-.244-12.629-1.943s-5.585-19.915.485-25.258S-305.3,633.145-299.23,634.116Z" transform="translate(344.241 -534.487)" fill="#2e3b4a"/>
        <g id="Grupo_56054" data-name="Grupo 56054" transform="translate(79.013 47.414)">
          <path id="Trazado_105973" data-name="Trazado 105973" d="M-196.49,680.112a199.814,199.814,0,0,1,9.108-17.9c3.275-5.847,6.88-11.5,10.65-17.057a149.848,149.848,0,0,1,12.489-15.823c4.542-4.9,9.606-9.724,15.839-12.361-1.35,1.021-2.777,1.862-4.042,2.927-1.214,1.14-2.493,2.18-3.632,3.382l-3.42,3.592-3.186,3.814q-6.182,7.784-11.841,16c-3.79,5.462-7.423,11.036-11.1,16.6Z" transform="translate(299.464 -586.365)" fill="#d1596a"/>
          <path id="Trazado_105974" data-name="Trazado 105974" d="M-226.571,642.209c-3.136,6.518-6.685,12.813-10.358,19.035-3.642,6.241-7.611,12.286-11.7,18.251a206.068,206.068,0,0,1-13.216,17.228c-4.733,5.46-9.726,10.848-15.726,14.945l3.824-3.816,3.565-4.039c2.305-2.753,4.6-5.5,6.735-8.392,4.318-5.729,8.559-11.523,12.614-17.457,4.12-5.888,8.124-11.862,12.169-17.819Z" transform="translate(277.572 -579.55)" fill="#d1596a"/>
          <path id="Trazado_105975" data-name="Trazado 105975" d="M-231.186,669.364c-1.111,3.757-2.366,7.456-3.528,11.191l-3.726,11.113c-2.465,7.413-5.09,14.765-7.649,22.137l-7.794,22.069c-1.307,3.675-2.568,7.365-3.735,11.079-.613,1.849-1.2,3.707-1.722,5.582a21.034,21.034,0,0,0-.989,5.717,17.691,17.691,0,0,1,.295-5.87c.33-1.938.725-3.863,1.148-5.78.918-3.815,1.963-7.591,3.037-11.356,2.155-7.532,4.662-14.945,7.23-22.332,2.628-7.366,5.323-14.707,8.251-21.957C-237.466,683.7-234.488,676.466-231.186,669.364Z" transform="translate(282.186 -572.218)" fill="#d1596a"/>
          <path id="Trazado_105976" data-name="Trazado 105976" d="M-176.689,595.548c-4.261,3.813-8.363,7.52-12.433,11.337l-6.082,5.756c-2.042,1.922-4.051,3.885-6.257,5.737a52.636,52.636,0,0,1,10.505-13.451,57.986,57.986,0,0,1,6.688-5.357A33.873,33.873,0,0,1-176.689,595.548Z" transform="translate(298.122 -592.148)" fill="#d1596a"/>
          <path id="Trazado_105977" data-name="Trazado 105977" d="M-172.027,592.871c-3.882,6.12-8.068,11.886-12.057,17.785-2.012,2.931-4,5.878-5.889,8.882-1.859,3.024-3.74,6.034-5.37,9.276,1.347-7.191,5.038-13.7,9.044-19.673A86.433,86.433,0,0,1-172.027,592.871Z" transform="translate(299.774 -592.871)" fill="#d1596a"/>
        </g>
      </g>
    </g>
  </g>
</svg>
