<svg xmlns="http://www.w3.org/2000/svg" width="331.473" height="322.358" viewBox="0 0 331.473 322.358">
  <g id="Grupo_1065380" data-name="Grupo 1065380" transform="translate(-634.25 -718.773)">
    <g id="Grupo_1065160" data-name="Grupo 1065160" transform="translate(349.25 -0.227)">
      <path id="Trazado_774732" data-name="Trazado 774732" d="M16.574,0H314.9c9.153,0,16.574,6.064,16.574,13.544V308.813c0,7.48-7.42,13.544-16.574,13.544H16.574C7.42,322.358,0,316.294,0,308.813V13.544C0,6.064,7.42,0,16.574,0Z" transform="translate(285 719)" fill="#baefe4"/>
    </g>
    <path id="Trazado_778155" data-name="Trazado 778155" d="M75.193,17.387A9.272,9.272,0,0,1,74.121,21.9a7.389,7.389,0,0,1-3.064,3.029A9.585,9.585,0,0,1,66.463,26H59.35V9.2h6.961Q75.193,9.2,75.193,17.387Zm-5.379.047a4.836,4.836,0,0,0-.5-2.215A3.6,3.6,0,0,0,67.893,13.7a4.255,4.255,0,0,0-2.18-.539h-1.3v8.883H65.83a3.649,3.649,0,0,0,2.9-1.248A4.942,4.942,0,0,0,69.814,17.434ZM81.4,21.418a1.686,1.686,0,0,0,.891,1.213,4.016,4.016,0,0,0,2.016.439,8.3,8.3,0,0,0,3.3-.668v3.164a11.877,11.877,0,0,1-4.406.727,6.952,6.952,0,0,1-4.887-1.605,5.7,5.7,0,0,1-1.746-4.418,7.289,7.289,0,0,1,.768-3.41,5.523,5.523,0,0,1,2.273-2.314,6.717,6.717,0,0,1,3.322-.838,6.537,6.537,0,0,1,3.188.727,4.84,4.84,0,0,1,2.01,2.039,6.542,6.542,0,0,1,.686,3.07v1.875Zm3-2.613q0-2.074-1.488-2.074a1.259,1.259,0,0,0-1.043.568,2.836,2.836,0,0,0-.492,1.506Zm15.891,3.211a3.665,3.665,0,0,1-1.553,3.158,7.3,7.3,0,0,1-4.33,1.119,15.055,15.055,0,0,1-2-.164,12.343,12.343,0,0,1-1.939-.4v-3.5a9.55,9.55,0,0,0,3.7.984q1.465,0,1.465-.762a.6.6,0,0,0-.34-.521,12.012,12.012,0,0,0-1.781-.686,5.03,5.03,0,0,1-2.32-1.336,3.177,3.177,0,0,1-.727-2.168,3.459,3.459,0,0,1,1.482-2.947,6.955,6.955,0,0,1,4.166-1.084,13.242,13.242,0,0,1,3.328.457v3.363A10.065,10.065,0,0,0,97.834,17a6.532,6.532,0,0,0-1.477-.211,1.607,1.607,0,0,0-.785.164.5.5,0,0,0-.293.457.637.637,0,0,0,.316.551,5.6,5.6,0,0,0,1.266.5A5.873,5.873,0,0,1,99.5,19.848,3.03,3.03,0,0,1,100.295,22.016Zm15.375-2.379a8.781,8.781,0,0,1-.65,3.486,5.3,5.3,0,0,1-1.846,2.344,4.648,4.648,0,0,1-2.707.826,4.273,4.273,0,0,1-1.986-.428,3.577,3.577,0,0,1-1.307-1.107h-.047V26h-4.992V8.234h4.992v7.395h.047a4.111,4.111,0,0,1,1.588-1.406,4.756,4.756,0,0,1,2.209-.516,4.209,4.209,0,0,1,3.486,1.512A6.932,6.932,0,0,1,115.67,19.637Zm-5.062.152a2.978,2.978,0,0,0-.463-1.816,1.667,1.667,0,0,0-2.6.029,2.577,2.577,0,0,0-.51,1.658v.727a2.672,2.672,0,0,0,.457,1.641,1.459,1.459,0,0,0,1.23.609,1.577,1.577,0,0,0,1.395-.744A3.8,3.8,0,0,0,110.607,19.789ZM124.2,26V24.172h-.047a3.926,3.926,0,0,1-3.656,2.121,3.5,3.5,0,0,1-2.66-1.008,3.744,3.744,0,0,1-.961-2.7q0-3.539,4.348-4.1L124.2,18.1a1.135,1.135,0,0,0-.527-.961,2.4,2.4,0,0,0-1.418-.375A9.34,9.34,0,0,0,118,17.914V14.668a11.38,11.38,0,0,1,2.438-.691,14.186,14.186,0,0,1,2.508-.27,6.3,6.3,0,0,1,4.436,1.307q1.377,1.307,1.377,4.365V26Zm-2.953-4.078a1.106,1.106,0,0,0,.311.809,1.184,1.184,0,0,0,.885.316,1.573,1.573,0,0,0,1.271-.586,2.27,2.27,0,0,0,.486-1.5V20.5l-1.687.234Q121.248,20.949,121.248,21.922Zm18.785-3.645a4.8,4.8,0,0,0-1.559-.34Q136,17.938,136,20.8V26H131.01V14H136v2.109h.047a3.747,3.747,0,0,1,1.3-1.729,3.342,3.342,0,0,1,1.969-.592,1.691,1.691,0,0,1,.715.141Zm8.1,7.723V24.172h-.047a3.926,3.926,0,0,1-3.656,2.121,3.5,3.5,0,0,1-2.66-1.008,3.744,3.744,0,0,1-.961-2.7q0-3.539,4.348-4.1l2.977-.387a1.135,1.135,0,0,0-.527-.961,2.4,2.4,0,0,0-1.418-.375,9.34,9.34,0,0,0-4.254,1.148V14.668a11.38,11.38,0,0,1,2.438-.691,14.186,14.186,0,0,1,2.508-.27,6.3,6.3,0,0,1,4.436,1.307q1.377,1.307,1.377,4.365V26Zm-2.953-4.078a1.106,1.106,0,0,0,.311.809,1.184,1.184,0,0,0,.885.316,1.573,1.573,0,0,0,1.271-.586,2.27,2.27,0,0,0,.486-1.5V20.5l-1.687.234Q145.178,20.949,145.178,21.922Zm18.211,3.914a4.864,4.864,0,0,1-1.113.311,10.178,10.178,0,0,1-1.863.146,4.476,4.476,0,0,1-3.264-1.148,4.359,4.359,0,0,1-1.178-3.27V17.457h-1.887V14h1.887V11.645l4.922-1.359V14h2.5v3.457h-2.5v3.6q0,1.582,1.254,1.582a3.4,3.4,0,0,0,1.242-.258ZM171.6,26V24.172h-.047a3.926,3.926,0,0,1-3.656,2.121,3.5,3.5,0,0,1-2.66-1.008,3.744,3.744,0,0,1-.961-2.7q0-3.539,4.348-4.1L171.6,18.1a1.135,1.135,0,0,0-.527-.961,2.4,2.4,0,0,0-1.418-.375,9.34,9.34,0,0,0-4.254,1.148V14.668a11.38,11.38,0,0,1,2.438-.691,14.186,14.186,0,0,1,2.508-.27,6.3,6.3,0,0,1,4.436,1.307q1.377,1.307,1.377,4.365V26Zm-2.953-4.078a1.106,1.106,0,0,0,.311.809,1.184,1.184,0,0,0,.885.316,1.573,1.573,0,0,0,1.271-.586,2.27,2.27,0,0,0,.486-1.5V20.5l-1.687.234Q168.65,20.949,168.65,21.922ZM186.428,26V24.605h-.047a4.119,4.119,0,0,1-1.559,1.236,4.441,4.441,0,0,1-1.9.451,4.883,4.883,0,0,1-2.707-.756,4.59,4.59,0,0,1-1.752-2.115,8.141,8.141,0,0,1-.58-3.211,7.9,7.9,0,0,1,.691-3.387,5.412,5.412,0,0,1,1.945-2.3,5.025,5.025,0,0,1,2.813-.82,4.257,4.257,0,0,1,1.365.211,3.694,3.694,0,0,1,1.09.568,1.7,1.7,0,0,1,.592.709h.047V8.234h4.992V26Zm.105-6.363a2.633,2.633,0,0,0-.475-1.676,1.6,1.6,0,0,0-2.6.146,3.457,3.457,0,0,0-.51,1.986q0,2.543,1.758,2.543a1.564,1.564,0,0,0,1.33-.686,3.374,3.374,0,0,0,.5-2Zm20.637.152a6.249,6.249,0,0,1-1.834,4.77,8.473,8.473,0,0,1-10.219.041,6.061,6.061,0,0,1-1.822-4.67,6.256,6.256,0,0,1,.855-3.316,5.563,5.563,0,0,1,2.438-2.156,8.415,8.415,0,0,1,3.645-.75,8.151,8.151,0,0,1,3.7.785,5.715,5.715,0,0,1,2.4,2.18A5.935,5.935,0,0,1,207.17,19.789Zm-5.062.023q0-2.449-1.875-2.449t-1.875,2.566q0,2.707,1.9,2.707Q202.107,22.637,202.107,19.813Zm15.949-1.535a4.8,4.8,0,0,0-1.559-.34q-2.473,0-2.473,2.859V26h-4.992V14h4.992v2.109h.047a3.747,3.747,0,0,1,1.3-1.729,3.342,3.342,0,0,1,1.969-.592,1.691,1.691,0,0,1,.715.141Z" transform="translate(661 989.357)" fill="#12263f"/>
    <g id="Grupo_1065181" data-name="Grupo 1065181">
      <g id="Grupo_1065163" data-name="Grupo 1065163" transform="translate(353.016 -34.078)">
        <path id="Trazado_100521" data-name="Trazado 100521" d="M103.783,434.588C-27.656,429.281,22.1,639.336,174.577,629.536S211.6,438.946,103.783,434.588Z" transform="translate(308.966 357.72)" fill="#fff"/>
      </g>
      <g id="Grupo_1065180" data-name="Grupo 1065180" transform="matrix(0.616, 0.788, -0.788, 0.616, -3799.914, 11395.651)">
        <path id="Trazado_777884" data-name="Trazado 777884" d="M6.99,347.893a5.989,5.989,0,0,1,3.947.194,36.885,36.885,0,0,1,8.92,4.743,7.075,7.075,0,0,1,1.87,1.99,1.6,1.6,0,0,1,.132,1.42,1.291,1.291,0,0,1-1.446.957c-.14-.02-.284-.028-.42-.059a31.116,31.116,0,0,1-10.04-3.721,9.292,9.292,0,0,1-3.172-3.048A2.875,2.875,0,0,1,6.263,349a.942.942,0,0,1,.727-1.112" transform="translate(-5538.301 -10459.473)" fill="#afb1a4"/>
        <path id="Trazado_777885" data-name="Trazado 777885" d="M56.04,5.318a5.364,5.364,0,0,1,4.868-2.461,4.38,4.38,0,0,1,3.974,3.192,26.707,26.707,0,0,1,.4,2.722c.089.77.121,1.548.167,2.151A64.931,64.931,0,0,1,64.1,21.57c-1.493,6.836-3.554,13.508-5.661,20.165q-3.324,10.491-6.175,21.121c-1.485,5.591-3.177,11.129-4.837,16.67-1.477,4.934-3.06,9.833-4.545,14.768-2.2,7.3-4.65,14.507-7.24,21.677-2.033,5.642-4.223,11.218-6.769,16.654-1.583,3.382-3.1,6.8-4.651,10.2-.288.634-.509.658-1.081.175-1.237-1.05-2.465-2.111-3.733-3.127a23.612,23.612,0,0,0-8.305-4.083,19.014,19.014,0,0,0-4.2-.466c-.813-.051-1.05-.319-.879-1.058a18.046,18.046,0,0,1,.715-2.434c1.851-4.806,3.748-9.6,5.587-14.407,1.742-4.545,3.429-9.114,5.141-13.67,1.882-5.02,3.8-10.032,5.642-15.072,1.722-4.7,3.363-9.44,5.043-14.161.925-2.59,1.909-5.16,2.788-7.768,2.765-8.232,5.852-16.343,8.994-24.434,3.986-10.261,7.909-20.547,12.38-30.613A37.545,37.545,0,0,1,56.04,5.318" transform="translate(-5538.125 -10248.741)" fill="#afb1a4"/>
        <path id="Trazado_777886" data-name="Trazado 777886" d="M110.1,637.15c.654,1.968,2.31,2.749,4.087,3.224a12.313,12.313,0,0,0,7.252-.6,2.759,2.759,0,0,0,2.037-2.449c.047-.533.42-.642.937-.494a2.417,2.417,0,0,1,1.318.992,1.418,1.418,0,0,1-.339,2.2,9.789,9.789,0,0,1-5.428,2.1c-.7.027-1.4,0-2.107,0a13.074,13.074,0,0,1-7.3-1.637,8.632,8.632,0,0,1-1.049-.7c-1.159-.957-1.17-1.75-.031-2.78.226-.2.49-.284.626.14" transform="translate(-5573.465 -10738.827)" fill="#e9c5d0"/>
        <path id="Trazado_777887" data-name="Trazado 777887" d="M124.64,368.6c.214-6.427.062-12.847-.21-19.266-.14-3.243-.082-6.494-.109-9.741,0-.2-.035-.54.187-.525.377.031.218.4.222.642a2.852,2.852,0,0,1-.035.369c.326,5.685.276,11.331.7,16.958.024.292.039.579.059.87.117,2.034.128,4.075.175,6.113a46.71,46.71,0,0,1-.747,7.357.336.336,0,0,1-.408.319c-.054-.02-.117-.218-.1-.334a.094.094,0,0,1,0-.035,9.736,9.736,0,0,0,.261-2.726" transform="translate(-5583.052 -10556.878)" fill="#e9c5d0"/>
        <path id="Trazado_777888" data-name="Trazado 777888" d="M89.64,393.027A5.183,5.183,0,0,1,88.673,396a1.969,1.969,0,0,1-1.781.925,3.89,3.89,0,0,1-2.847-1.162,3.987,3.987,0,0,1,1.408-6.809,1.654,1.654,0,0,1,.615-.089,4,4,0,0,1,3.573,4.164" transform="translate(-5557.602 -10587.312)" fill="#e9c5d0"/>
        <path id="Trazado_777889" data-name="Trazado 777889" d="M97.982,360.419c1.61,2.1,5.864,1.614,6.7-1.726a22.353,22.353,0,0,0,.556-3.974,71.556,71.556,0,0,0-.113-9.312q-.029-.4-.047-.793c-.237-3.893-.283-7.789-.318-11.689-.027-3.173-.047-6.35.081-9.526.066-1.7.358-3.363.56-5.047a3.308,3.308,0,0,1,.273-.785c.023-.055.1-.086.163-.117.143-.073.241-.011.268.183.144,1.19.315,2.379.42,3.573.272,3.021.793,6.012,1.027,9.04.532,6.96,1.271,13.9,2.286,20.818.525,3.562.677,7.159.91,10.743a49.274,49.274,0,0,1-1.629,15.3,25.347,25.347,0,0,1-1.516,3.943,6.331,6.331,0,0,1-2.018,2.131c-.1.089-.28.257-.257.311.1.217.334.163.537.171,1.011.039,1.046.058,1.077.824.311,7.683.591,15.371.945,23.058.191,4.156.513,8.309.762,12.466q.3,5.179.563,10.358c.144,2.823.583,5.615.941,8.415.128.976.233,1.959.268,2.947a1.529,1.529,0,0,1-1.139,1.59,12.7,12.7,0,0,1-8.107.183.885.885,0,0,1-.649-.755,10.713,10.713,0,0,1-.124-1.26c-.073-1.835-.132-3.667-.2-5.5-.276-7.334-.338-14.671-.424-22.012-.066-5.642-.42-11.284-.673-16.925-.156-3.488-.334-6.976-.509-10.463q-.093-1.745-.179-3.488c-.031-.563-.1-1.127.572-1.435.21-.1.175-.369.008-.521a21.212,21.212,0,0,1-3.461-5.028,18.025,18.025,0,0,1-2.224-5.911,89.793,89.793,0,0,0-2.55-10.1q-.555-1.791-1.175-3.562c-.093-.268-.2-.529-.283-.8-.121-.4.008-.677.451-.75a1.964,1.964,0,0,1,.21-.028,6.781,6.781,0,0,0,3.033-.836c.517-.3.793-.2.976.374a14.746,14.746,0,0,0,2.943,4.674c.164.206.327.412.49.622s.408.393.579.618" transform="translate(-5561.624 -10543.648)" fill="#e8e8e8"/>
        <path id="Trazado_777890" data-name="Trazado 777890" d="M124.257,662.254c1.053,5.922,1.387,11.906,1.873,17.882.277,3.375.689,6.738,1.012,10.109.194,2.038.38,4.079.505,6.121.408,6.836.828,13.671,1.166,20.511a129.031,129.031,0,0,1,.042,14.818c-.2,3.1-.252,6.2-.318,9.309a55.877,55.877,0,0,1-.517,5.688,88.836,88.836,0,0,1-1.7,10.012,44.459,44.459,0,0,1-2.741,8.442,5.288,5.288,0,0,0-.393,1.205,15.891,15.891,0,0,1-2.5,5.544,10.3,10.3,0,0,1-4.036,3.613c-3.2,1.656-3.286,1.656-6.411-.043a7.956,7.956,0,0,1-2.434-2,26.5,26.5,0,0,1-5.319-10.482,189.938,189.938,0,0,1-3.709-21.04c-.541-4.343-1.046-8.686-1.559-13.034a108.492,108.492,0,0,1-.525-12.263c-.019-4.094,0-8.189,0-12.283H96.8c.237-5.432.443-10.863.715-16.292.3-5.922.619-11.84,1.02-17.754.21-3.1.618-6.178.933-9.269a19.385,19.385,0,0,0,.179-2.317c-.047-2.547.276-5.075.428-7.606a3.991,3.991,0,0,1,.124-.836c.478-1.765.517-1.789,2.072-.824a8.911,8.911,0,0,0,3.561,1.2,25.27,25.27,0,0,0,9.853-.786,12.972,12.972,0,0,0,4.386-1.489.543.543,0,0,1,.739.2,5.144,5.144,0,0,1,1.015,2.069c.917,3.845,1.738,7.7,2.43,11.594" transform="translate(-5566.162 -10745.877)" fill="#f9cbbf"/>
        <path id="Trazado_777891" data-name="Trazado 777891" d="M122.63,330.593c.272,6.42.424,12.839.21,19.266a9.735,9.735,0,0,1-.261,2.726.1.1,0,0,0,0,.035l-.953-.047c.086-1.656.159-3.312.238-4.973.226-4.942-.066-9.876-.238-14.814-.12-3.314-.283-6.63-.245-9.943a39.755,39.755,0,0,1,.6-8.64,20.364,20.364,0,0,1,.945-3.029,5.834,5.834,0,0,1,1.415-2.085c.362-.338.762-.774,1.264-.668.588.124.514.766.588,1.229.128.781.253,1.567.373,2.348l-.836.124c-.028-.194-.125-.257-.268-.183-.062.031-.14.062-.163.117a3.323,3.323,0,0,0-.272.785c-.2,1.684-.494,3.347-.56,5.047-.128,3.177-.109,6.353-.081,9.526.035,3.9.081,7.8.318,11.689l-1.05.061c-.019-.292-.035-.579-.058-.871-.424-5.626-.373-11.272-.7-16.957a2.844,2.844,0,0,0,.035-.369c0-.241.155-.61-.222-.642-.222-.016-.191.326-.187.525.027,3.247-.031,6.5.109,9.741" transform="translate(-5581.252 -10538.14)" fill="#351b1b"/>
        <path id="Trazado_777892" data-name="Trazado 777892" d="M110.456,402.339a1.761,1.761,0,0,0,2.216.75,1.928,1.928,0,0,0,1.341-1.948c0-.1.012-.21.016-.315l.953.047c-.02.116.042.315.1.334a.336.336,0,0,0,.408-.319,46.659,46.659,0,0,0,.747-7.356c-.047-2.038-.058-4.079-.175-6.113l1.05-.061q.018.4.047.793a71.486,71.486,0,0,1,.113,9.312,22.391,22.391,0,0,1-.556,3.974c-.832,3.34-5.086,3.822-6.7,1.726-.171-.226-.408-.4-.579-.618s-.327-.416-.49-.622l.98-.284c.175.238.35.467.528.7" transform="translate(-5573.658 -10586.393)" fill="#351b1b"/>
        <path id="Trazado_777893" data-name="Trazado 777893" d="M85.987,393.835a5.181,5.181,0,0,0,.968-2.971,4,4,0,0,0-3.573-4.164,1.653,1.653,0,0,0-.614.089A3.988,3.988,0,0,0,81.36,393.6a3.888,3.888,0,0,0,2.846,1.162,1.968,1.968,0,0,0,1.781-.925m2.177,1.271a22.028,22.028,0,0,0,3.022,5.288l-.98.284A14.744,14.744,0,0,1,87.263,396c-.183-.572-.459-.673-.976-.374a6.786,6.786,0,0,1-3.033.836,2.061,2.061,0,0,0-.21.027c-.443.074-.572.346-.451.75.081.272.19.533.283.8q.618,1.772,1.175,3.562l-.832.261a5.293,5.293,0,0,0-.715-1.586,4.344,4.344,0,0,1-.541-1.143,25.3,25.3,0,0,0-2.947-6.066,5.38,5.38,0,0,1,1.408-6.976,3.965,3.965,0,0,1,2.792-.754,5.389,5.389,0,0,1,4.914,5.378,14.464,14.464,0,0,1-.217,2.317,3.825,3.825,0,0,0,.252,2.069" transform="translate(-5554.917 -10585.148)" fill="#351b1b"/>
        <path id="Trazado_777894" data-name="Trazado 777894" d="M100.9,444.751a8.664,8.664,0,0,0,1.049.7,13.08,13.08,0,0,0,7.3,1.637c.7,0,1.407.023,2.107,0a9.793,9.793,0,0,0,5.428-2.1,1.418,1.418,0,0,0,.339-2.2,2.419,2.419,0,0,0-1.319-.992c-.517-.147-.89-.039-.937.495a2.76,2.76,0,0,1-2.037,2.449,12.317,12.317,0,0,1-7.252.6c-1.777-.475-3.433-1.256-4.086-3.224-.136-.424-.4-.342-.626-.14-1.139,1.031-1.128,1.824.031,2.781m5.6,126.622a7.949,7.949,0,0,0,2.434,2c3.126,1.7,3.208,1.7,6.412.043a10.308,10.308,0,0,0,4.036-3.613,15.889,15.889,0,0,0,2.5-5.545,5.248,5.248,0,0,1,.393-1.205,44.479,44.479,0,0,0,2.741-8.442,88.849,88.849,0,0,0,1.7-10.012,56.117,56.117,0,0,0,.517-5.688c.066-3.107.117-6.206.318-9.309a128.858,128.858,0,0,0-.042-14.818c-.338-6.84-.758-13.675-1.166-20.511-.124-2.041-.311-4.083-.505-6.12-.323-3.371-.735-6.735-1.011-10.11-.486-5.976-.82-11.96-1.874-17.883-.692-3.892-1.512-7.749-2.43-11.594A5.13,5.13,0,0,0,119.5,446.5a.543.543,0,0,0-.739-.2,12.954,12.954,0,0,1-4.386,1.489,25.278,25.278,0,0,1-9.853.786,8.91,8.91,0,0,1-3.562-1.2c-1.555-.964-1.594-.941-2.072.824a4.045,4.045,0,0,0-.124.836c-.152,2.531-.474,5.058-.428,7.605a19.373,19.373,0,0,1-.179,2.317c-.315,3.091-.723,6.17-.933,9.27-.4,5.914-.719,11.832-1.019,17.754-.272,5.428-.478,10.86-.715,16.292h-.113c0,4.094-.016,8.189,0,12.283a108.389,108.389,0,0,0,.525,12.263c.513,4.348,1.018,8.691,1.559,13.034a189.86,189.86,0,0,0,3.709,21.039,26.5,26.5,0,0,0,5.32,10.482m-2.1-127.726a12.7,12.7,0,0,0,8.107-.183,1.529,1.529,0,0,0,1.139-1.59c-.035-.988-.14-1.971-.268-2.947-.358-2.8-.8-5.592-.941-8.414q-.262-5.179-.563-10.358c-.249-4.157-.572-8.31-.762-12.466-.354-7.687-.634-15.375-.945-23.058-.031-.766-.066-.785-1.077-.824-.2-.008-.436.046-.537-.171-.023-.054.152-.222.257-.311a6.328,6.328,0,0,0,2.018-2.131,25.394,25.394,0,0,0,1.517-3.943,49.3,49.3,0,0,0,1.629-15.3c-.233-3.585-.385-7.181-.91-10.743-1.014-6.914-1.753-13.858-2.286-20.818-.233-3.029-.754-6.019-1.027-9.04-.1-1.194-.276-2.383-.42-3.573l.836-.125c.762,4.934,1.372,9.888,1.8,14.873.467,5.482,1.19,10.942,1.8,16.413a131.385,131.385,0,0,1,1.174,16.253,43.688,43.688,0,0,1-2.718,15.133,13.634,13.634,0,0,0-.918,5.572c.272,6.206.432,12.415.7,18.621.191,4.44.505,8.877.735,13.314q.321,6.13.579,12.267a91.8,91.8,0,0,0,1.155,9.667c.124.82.226.929,1.073.995a4.192,4.192,0,0,1,4.079,3.352,2.569,2.569,0,0,0,.183.6c1.831,3.267,2.228,6.957,3.048,10.511.54,2.333.817,4.724,1.244,7.084a67.252,67.252,0,0,1,.867,7.785c.4,6.2,1.027,12.38,1.606,18.567.47,4.989.906,9.977,1.093,14.989.179,4.868.564,9.725.723,14.593a124.017,124.017,0,0,1-.272,16.082c-.046.49-.051.984-.059,1.477a89.162,89.162,0,0,1-2.189,19.1,55.633,55.633,0,0,1-2.489,8.083c-.334.852-.642,1.719-.9,2.6a18.822,18.822,0,0,1-3.982,7.154,9.735,9.735,0,0,1-2.675,2.361,6.647,6.647,0,0,1-5.911.4,13.375,13.375,0,0,1-5.879-5.3A32.975,32.975,0,0,1,99.747,559.2q-1.813-8.7-2.935-17.528c-.416-3.293-.848-6.583-1.229-9.876a144.069,144.069,0,0,1-1.038-17.318q.029-6.142.063-12.283c0-.915,0-1.832,0-2.749h.147c.168-3.667.327-7.334.5-11,.261-5.428.474-10.86.808-16.284.288-4.647.739-9.282,1.092-13.924.284-3.729.514-7.461.8-11.19a11.957,11.957,0,0,1,1.069-4.075c.517-1.132,1.166-2.326,2.843-1.933.373.089.649-.28.684-.653a9.421,9.421,0,0,0,0-1.481c-.292-4.86-.272-9.732-.416-14.6-.214-7.263-.113-14.535-.42-21.79q-.327-7.624-.51-15.242c0-.171-.007-.343-.015-.514l.634-.031c.175,3.488.353,6.976.509,10.463.253,5.642.607,11.284.673,16.926.086,7.341.148,14.678.424,22.012.066,1.835.124,3.667.2,5.5a10.644,10.644,0,0,0,.124,1.26.884.884,0,0,0,.649.755" transform="translate(-5564.855 -10543.787)" fill="#351b1b"/>
        <path id="Trazado_777895" data-name="Trazado 777895" d="M99.466,450.2q.087,1.744.179,3.488l-.634.031a5.046,5.046,0,0,0-.413-1.968c-.427-.922-.159-1.955-.311-2.927a3.721,3.721,0,0,0-.6-1.738,28.019,28.019,0,0,1-4.492-10.2c-.668-2.96-1.372-5.911-2.068-8.862-.043-.191-.093-.378-.147-.56l.832-.261a89.647,89.647,0,0,1,2.55,10.1,18.043,18.043,0,0,0,2.224,5.911,21.2,21.2,0,0,0,3.461,5.027c.167.152.2.424-.008.521-.668.308-.6.871-.571,1.434" transform="translate(-5562.676 -10610.747)" fill="#351b1b"/>
        <path id="Trazado_777896" data-name="Trazado 777896" d="M8.677,115.683c-1.84,4.81-3.736,9.6-5.587,14.407a18.025,18.025,0,0,0-.715,2.434c-.171.739.066,1.007.879,1.058a19.038,19.038,0,0,1,4.2.466,23.616,23.616,0,0,1,8.305,4.083c1.268,1.016,2.5,2.076,3.733,3.127.572.483.793.459,1.081-.175,1.548-3.4,3.068-6.816,4.651-10.2,2.546-5.436,4.736-11.012,6.769-16.654,2.59-7.171,5.043-14.379,7.24-21.677,1.485-4.935,3.068-9.834,4.545-14.768,1.661-5.541,3.352-11.078,4.837-16.67q2.835-10.638,6.175-21.12c2.107-6.657,4.168-13.33,5.661-20.165A64.932,64.932,0,0,0,61.8,9.18c-.047-.6-.078-1.381-.168-2.151a26.612,26.612,0,0,0-.4-2.722,4.38,4.38,0,0,0-3.974-3.192,5.363,5.363,0,0,0-4.868,2.461,37.519,37.519,0,0,0-3.725,6.388c-4.472,10.066-8.395,20.351-12.38,30.613-3.142,8.091-6.229,16.2-8.994,24.434-.879,2.609-1.862,5.179-2.788,7.768-1.68,4.721-3.321,9.456-5.043,14.161-1.843,5.04-3.76,10.052-5.642,15.072-1.711,4.556-3.4,9.125-5.141,13.67M.309,135q5.244-12.949,10.137-26.036c2.644-7.073,5.222-14.169,7.924-21.215,2.831-7.384,5.362-14.869,8.01-22.311,2.912-8.181,5.891-16.331,9.029-24.426C38.9,32,42.4,22.983,46.157,14.075c.521-1.237,1.049-2.469,1.547-3.713A36.606,36.606,0,0,1,51.911,2.79,6.054,6.054,0,0,1,55.391.2a4.882,4.882,0,0,1,2.9.039c.132.043.264.094.4.136a4.765,4.765,0,0,1,3.476,4.339c.132,1.334.249,2.671.373,4.02a80.51,80.51,0,0,1-1.085,9.231,267.821,267.821,0,0,1-7.971,28.081c-1.174,3.624-2.146,7.314-3.169,10.984-2.87,10.335-5.782,20.655-9.036,30.877-1.112,3.5-2.1,7.034-3.2,10.537-.669,2.154-1.431,4.281-2.142,6.424-1.765,5.288-3.557,10.565-5.572,15.763-2.037,5.265-4.332,10.425-6.661,15.566-.467,1.026-1.042,2.006-1.5,3.032a14.276,14.276,0,0,0-1.314,4.662,2.911,2.911,0,0,1-2.808,2.924,13.613,13.613,0,0,1-6.469-.642A38.4,38.4,0,0,1,4.8,142.809a10.679,10.679,0,0,1-3.27-2.948,15.811,15.811,0,0,1-1.171-2A3.214,3.214,0,0,1,.309,135m2.127,1.532a2.883,2.883,0,0,0,.517,1.365,9.3,9.3,0,0,0,3.172,3.048,31.126,31.126,0,0,0,10.04,3.721c.136.031.28.038.42.058a1.291,1.291,0,0,0,1.446-.957,1.6,1.6,0,0,0-.132-1.419,7.077,7.077,0,0,0-1.871-1.99,36.877,36.877,0,0,0-8.919-4.743,5.988,5.988,0,0,0-3.947-.194.943.943,0,0,0-.727,1.112" transform="translate(-5534.475 -10247)" fill="#351b1b"/>
      </g>
    </g>
  </g>
</svg>
