<svg xmlns="http://www.w3.org/2000/svg" xmlns:xlink="http://www.w3.org/1999/xlink" width="331.473" height="322.358" viewBox="0 0 331.473 322.358">
  <defs>
    <clipPath id="clip-path">
      <rect id="Rectángulo_362251" data-name="Rectángulo 362251" width="95.482" height="94.006" fill="none"/>
    </clipPath>
  </defs>
  <g id="Grupo_1065382" data-name="Grupo 1065382" transform="translate(-285.027 -1091.5)">
    <g id="Grupo_1065169" data-name="Grupo 1065169" transform="translate(0.027 372.5)">
      <path id="Trazado_774732" data-name="Trazado 774732" d="M16.574,0H314.9c9.153,0,16.574,6.064,16.574,13.544V308.813c0,7.48-7.42,13.544-16.574,13.544H16.574C7.42,322.358,0,316.294,0,308.813V13.544C0,6.064,7.42,0,16.574,0Z" transform="translate(285 719)" fill="#baefe4"/>
    </g>
    <path id="Trazado_778157" data-name="Trazado 778157" d="M37.844,13.156V26H32.758V13.156h-4.7V9.2H42.6v3.961Zm11.6-2.391a2.144,2.144,0,0,1-.768,1.711,3,3,0,0,1-2.021.656,2.929,2.929,0,0,1-2-.68,2.15,2.15,0,0,1-.779-1.687,2.081,2.081,0,0,1,.756-1.67,3.518,3.518,0,0,1,4.043,0A2.068,2.068,0,0,1,49.445,10.766ZM44.16,26V14h4.992V26ZM57.2,22.543h4.945V26h-11.5V23.691l5.391-6.234H51.156V14H62.043v2.836ZM70.422,26V24.172h-.047a3.926,3.926,0,0,1-3.656,2.121,3.5,3.5,0,0,1-2.66-1.008,3.744,3.744,0,0,1-.961-2.7q0-3.539,4.348-4.1l2.977-.387a1.135,1.135,0,0,0-.527-.961,2.4,2.4,0,0,0-1.418-.375,9.34,9.34,0,0,0-4.254,1.148V14.668a11.38,11.38,0,0,1,2.438-.691,14.186,14.186,0,0,1,2.508-.27A6.3,6.3,0,0,1,73.6,15.014q1.377,1.307,1.377,4.365V26Zm-2.953-4.078a1.106,1.106,0,0,0,.311.809,1.184,1.184,0,0,0,.885.316,1.573,1.573,0,0,0,1.271-.586,2.27,2.27,0,0,0,.486-1.5V20.5l-1.687.234Q67.469,20.949,67.469,21.922ZM91.914,26V24.605h-.047a4.119,4.119,0,0,1-1.559,1.236,4.441,4.441,0,0,1-1.9.451,4.883,4.883,0,0,1-2.707-.756,4.59,4.59,0,0,1-1.752-2.115,8.141,8.141,0,0,1-.58-3.211,7.9,7.9,0,0,1,.691-3.387,5.412,5.412,0,0,1,1.945-2.3,5.025,5.025,0,0,1,2.813-.82,4.257,4.257,0,0,1,1.365.211,3.694,3.694,0,0,1,1.09.568,1.7,1.7,0,0,1,.592.709h.047V8.234h4.992V26Zm.105-6.363a2.633,2.633,0,0,0-.475-1.676,1.6,1.6,0,0,0-2.6.146,3.457,3.457,0,0,0-.51,1.986q0,2.543,1.758,2.543a1.564,1.564,0,0,0,1.33-.686,3.374,3.374,0,0,0,.5-2Zm11.59,1.781a1.686,1.686,0,0,0,.891,1.213,4.016,4.016,0,0,0,2.016.439,8.3,8.3,0,0,0,3.3-.668v3.164a11.877,11.877,0,0,1-4.406.727,6.952,6.952,0,0,1-4.887-1.605,5.7,5.7,0,0,1-1.746-4.418,7.289,7.289,0,0,1,.768-3.41,5.523,5.523,0,0,1,2.273-2.314,6.717,6.717,0,0,1,3.322-.838,6.537,6.537,0,0,1,3.188.727,4.84,4.84,0,0,1,2.01,2.039,6.542,6.542,0,0,1,.686,3.07v1.875Zm3-2.613q0-2.074-1.488-2.074a1.259,1.259,0,0,0-1.043.568,2.836,2.836,0,0,0-.492,1.506ZM45.291,52.016a3.665,3.665,0,0,1-1.553,3.158,7.3,7.3,0,0,1-4.33,1.119,15.055,15.055,0,0,1-2-.164,12.343,12.343,0,0,1-1.939-.4v-3.5a9.55,9.55,0,0,0,3.7.984q1.465,0,1.465-.762a.6.6,0,0,0-.34-.521,12.012,12.012,0,0,0-1.781-.686,5.03,5.03,0,0,1-2.32-1.336,3.177,3.177,0,0,1-.727-2.168,3.459,3.459,0,0,1,1.482-2.947,6.955,6.955,0,0,1,4.166-1.084,13.242,13.242,0,0,1,3.328.457v3.363A10.065,10.065,0,0,0,42.83,47a6.532,6.532,0,0,0-1.477-.211,1.607,1.607,0,0,0-.785.164.5.5,0,0,0-.293.457.637.637,0,0,0,.316.551,5.6,5.6,0,0,0,1.266.5,5.873,5.873,0,0,1,2.637,1.383A3.03,3.03,0,0,1,45.291,52.016ZM53.787,56V54.172H53.74a3.926,3.926,0,0,1-3.656,2.121,3.5,3.5,0,0,1-2.66-1.008,3.744,3.744,0,0,1-.961-2.7q0-3.539,4.348-4.1l2.977-.387a1.135,1.135,0,0,0-.527-.961,2.4,2.4,0,0,0-1.418-.375,9.34,9.34,0,0,0-4.254,1.148V44.668a11.38,11.38,0,0,1,2.438-.691,14.186,14.186,0,0,1,2.508-.27,6.3,6.3,0,0,1,4.436,1.307q1.377,1.307,1.377,4.365V56Zm-2.953-4.078a1.106,1.106,0,0,0,.311.809,1.184,1.184,0,0,0,.885.316,1.573,1.573,0,0,0,1.271-.586,2.27,2.27,0,0,0,.486-1.5V50.5l-1.687.234Q50.834,50.949,50.834,51.922Zm19.512.094a3.665,3.665,0,0,1-1.553,3.158,7.3,7.3,0,0,1-4.33,1.119,15.055,15.055,0,0,1-2-.164,12.343,12.343,0,0,1-1.939-.4v-3.5a9.55,9.55,0,0,0,3.7.984q1.465,0,1.465-.762a.6.6,0,0,0-.34-.521,12.012,12.012,0,0,0-1.781-.686,5.03,5.03,0,0,1-2.32-1.336,3.177,3.177,0,0,1-.727-2.168,3.459,3.459,0,0,1,1.482-2.947,6.955,6.955,0,0,1,4.166-1.084,13.242,13.242,0,0,1,3.328.457v3.363A10.065,10.065,0,0,0,67.885,47a6.532,6.532,0,0,0-1.477-.211,1.607,1.607,0,0,0-.785.164.5.5,0,0,0-.293.457.637.637,0,0,0,.316.551,5.6,5.6,0,0,0,1.266.5,5.873,5.873,0,0,1,2.637,1.383A3.03,3.03,0,0,1,70.346,52.016Zm10.289,3.82a4.864,4.864,0,0,1-1.113.311,10.178,10.178,0,0,1-1.863.146,4.476,4.476,0,0,1-3.264-1.148,4.359,4.359,0,0,1-1.178-3.27V47.457H71.33V44h1.887V41.645l4.922-1.359V44h2.5v3.457h-2.5v3.6q0,1.582,1.254,1.582a3.4,3.4,0,0,0,1.242-.258Zm10.582-7.559a4.8,4.8,0,0,0-1.559-.34q-2.473,0-2.473,2.859V56H82.193V44h4.992v2.109h.047a3.747,3.747,0,0,1,1.3-1.729,3.342,3.342,0,0,1,1.969-.592,1.691,1.691,0,0,1,.715.141Zm5.742,3.141a1.686,1.686,0,0,0,.891,1.213,4.016,4.016,0,0,0,2.016.439,8.3,8.3,0,0,0,3.3-.668v3.164a11.877,11.877,0,0,1-4.406.727,6.952,6.952,0,0,1-4.887-1.605,5.7,5.7,0,0,1-1.746-4.418,7.289,7.289,0,0,1,.768-3.41,5.523,5.523,0,0,1,2.273-2.314,6.717,6.717,0,0,1,3.322-.838,6.537,6.537,0,0,1,3.188.727,4.84,4.84,0,0,1,2.01,2.039,6.542,6.542,0,0,1,.686,3.07v1.875Zm3-2.613q0-2.074-1.488-2.074a1.259,1.259,0,0,0-1.043.568,2.836,2.836,0,0,0-.492,1.506Z" transform="translate(392.777 1339.34)" fill="#12263f"/>
    <g id="Grupo_1065189" data-name="Grupo 1065189" transform="translate(5881.027 12072.727)">
      <g id="Grupo_1065170" data-name="Grupo 1065170" transform="translate(-5879.245 -11734.078)">
        <path id="Trazado_100521" data-name="Trazado 100521" d="M103.783,434.588C-27.656,429.281,22.1,639.336,174.577,629.536S211.6,438.946,103.783,434.588Z" transform="translate(308.966 357.72)" fill="#fff"/>
      </g>
      <g id="Grupo_1065183" data-name="Grupo 1065183" transform="translate(-5542.276 -10914.054)">
        <g id="Grupo_1065182" data-name="Grupo 1065182" clip-path="url(#clip-path)">
          <path id="Trazado_777897" data-name="Trazado 777897" d="M94.938,5.684A5.933,5.933,0,0,1,96.583,7.79a11.352,11.352,0,0,1,1.191,5.18,37.714,37.714,0,0,1-.353,4.474,24.511,24.511,0,0,1-1.027,4.8,3.8,3.8,0,0,0-.192.817c-.559,3.664-1.53,7.241-2.407,10.824-1.306,5.327-2.529,10.681-3.982,15.973-.887,3.238-1.883,6.447-2.822,9.675-.342,1.181-.657,2.375-1,3.56-.437,1.5-.883,3-1.327,4.505-.143.486-.3.964-.433,1.45-.6,2.277-1.163,4.562-1.792,6.825a70.438,70.438,0,0,1-4.88,13.035A15.075,15.075,0,0,1,75.318,92.1c-.29.325-.587.643-.887.954a3.8,3.8,0,0,1-3.619,1.338,7.142,7.142,0,0,0-1.341-.028,4.716,4.716,0,0,1-2.092-.552A18.2,18.2,0,0,1,64.347,91.7q-.713-.571-1.421-1.15c-2.829-2.3-5.6-4.673-8.236-7.2-4.569-4.384-9.054-8.848-13.3-13.546Q40,68.266,38.59,66.736q-2.451-2.683-4.932-5.348c-.838-.9-1.792-1.694-2.626-2.6-1.869-2.012-3.692-4.066-5.536-6.1q-2.143-2.362-4.227-4.768-5.129-5.9-9.937-12.082a52.313,52.313,0,0,1-4.16-6.9A26.513,26.513,0,0,1,5.153,24.7a5.892,5.892,0,0,1-.265-3.3,9.97,9.97,0,0,0,.3-1.484,8.026,8.026,0,0,1,1.872-4.247,4.417,4.417,0,0,1,2.892-1.851c5.264-.775,10.521-1.6,15.788-2.361Q49.026,8.09,72.321,4.772c3.1-.44,6.22-.814,9.333-1.181,1.834-.216,3.675-.394,5.515-.524a10.986,10.986,0,0,1,7.769,2.616M51.022,55.111a13.819,13.819,0,0,0,3.88,1.572,35.371,35.371,0,0,0,6.85.412A13.676,13.676,0,0,0,68.5,54.766a19.871,19.871,0,0,0,2.7-1.988A14.146,14.146,0,0,0,76.439,43.2a19.057,19.057,0,0,0,.234-3.4,18.484,18.484,0,0,0-1.781-8.124,43.077,43.077,0,0,0-3.329-5.236,27.079,27.079,0,0,0-1.729-2.266,5.541,5.541,0,0,0-1.271-1.328,29.27,29.27,0,0,0-4.415-2.4,19.552,19.552,0,0,0-13.968-.122,11.914,11.914,0,0,0-5.8,4.129,35.462,35.462,0,0,0-3.975,6.595,14.693,14.693,0,0,0-1.173,5.532A16.212,16.212,0,0,0,40.4,43.627a26.643,26.643,0,0,0,4.75,7.666,7.662,7.662,0,0,0,1.631,1.436q2.069,1.278,4.244,2.381" transform="translate(-3.096 -1.979)" fill="#e8e8e8"/>
          <path id="Trazado_777898" data-name="Trazado 777898" d="M138.484,60.894a16,16,0,0,1,2.979,8.254c.024.9.143,1.791.126,2.683-.014.838-.147,1.677-.231,2.511-.471,4.433-2.885,7.653-6.357,10.227a18.691,18.691,0,0,1-5.4,2.655,9.447,9.447,0,0,1-4.314.422,14,14,0,0,0-2.508-.154,6.962,6.962,0,0,1-3.1-.618,35.58,35.58,0,0,1-5.819-2.99,14.784,14.784,0,0,1-3.378-2.99,19.236,19.236,0,0,1-3.3-5.627c-.272-.8-.583-1.575-.891-2.358a11.552,11.552,0,0,1-.559-3.974c-.028-1.062.056-2.127.126-3.189a5.332,5.332,0,0,1,.8-2.7,3.229,3.229,0,0,0,.343-.765,24.5,24.5,0,0,1,3.831-6.27,11.372,11.372,0,0,1,5.62-3.782,18.762,18.762,0,0,1,10.587-.7,18.116,18.116,0,0,1,5.494,2.421c1.956,1.183,3.137,2.986,4.419,4.739.527.723,1.044,1.457,1.526,2.211" transform="translate(-68.802 -33.232)" fill="#e8e8e8"/>
          <path id="Trazado_777899" data-name="Trazado 777899" d="M3.47,67.406a10.8,10.8,0,0,1,1.6,2.86A52.069,52.069,0,0,0,8.86,76.973c1.481,2.088,3.154,4.051,4.806,6.014,2.051,2.438,4.164,4.824,6.245,7.231.185.213.353.432.527.649.095.122.077.216-.049.262a.192.192,0,0,1-.146,0,6.641,6.641,0,0,1-.622-.552,86.756,86.756,0,0,1-6.158-6.857c-1.464-1.9-3.189-3.59-4.555-5.574A39.622,39.622,0,0,1,3.7,68.807a2.023,2.023,0,0,1-.227-1.4" transform="translate(-2.216 -43.862)" fill="#fff2fc"/>
          <path id="Trazado_777900" data-name="Trazado 777900" d="M95.474,9.869A9.565,9.565,0,0,0,88.67.809a14.436,14.436,0,0,0-6.8-.664C76.323.938,70.787,1.763,65.2,2.3c-3.783.363-7.548.94-11.324,1.432Q49.135,4.347,44.394,5c-2.274.311-4.537.73-6.818.957-2.4.241-4.772.639-7.146,1.027-4.754.779-9.5,1.621-14.254,2.375-3.318.528-6.65.971-9.979,1.415a4.685,4.685,0,0,0-3.5,2.044A14.816,14.816,0,0,0,.094,19.3a13.463,13.463,0,0,0,1.191,7.366,45.56,45.56,0,0,0,5.069,8.5c1.471,1.9,3.13,3.661,4.624,5.547a49.722,49.722,0,0,0,3.811,4.251c.594.593,1.188,1.187,1.774,1.791.13.133.255.265.385.4,2.553,2.651,5.04,5.362,7.5,8.1,3.1,3.462,6.263,6.87,9.434,10.269.105.112.206.224.315.331,1.694,1.81,3.434,3.584,5.187,5.337,1.942,1.938,4.021,3.748,5.886,5.753,3.786,4.063,7.911,7.768,11.952,11.561.671.626,1.345,1.254,2.054,1.834A14.433,14.433,0,0,0,62.6,92.493a2.731,2.731,0,0,1,.793.608,2.346,2.346,0,0,0,2.571.776,2.621,2.621,0,0,1,.5-.021,8.618,8.618,0,0,0,5.019-2.127q.629-.6,1.212-1.226a16.883,16.883,0,0,0,2.913-4.241c1.089-2.337,1.994-4.747,2.847-7.178.59-1.694,1.226-3.37,1.656-5.114.391-1.575.8-3.147,1.205-4.719.248-.978.468-1.963.751-2.931,1.254-4.3,2.536-8.592,3.793-12.892,1.809-6.186,3.325-12.448,4.883-18.7q1.221-4.894,2.351-9.8c.653-2.836,1.24-5.69,1.858-8.533a33.769,33.769,0,0,0,.52-6.525m-77.3,37.4c-.045.014-.119.021-.147,0a6.634,6.634,0,0,1-.622-.552,86.682,86.682,0,0,1-6.158-6.857c-1.464-1.9-3.189-3.59-4.555-5.574a39.6,39.6,0,0,1-5.211-9.337,2.02,2.02,0,0,1-.227-1.4.16.16,0,0,1-.024-.025v-.049c-.073-.038-.164-.073-.171-.122-.028-.126.076-.185.147-.1.042.048.028.139.024.223l.042.021a.324.324,0,0,0-.018.053A10.821,10.821,0,0,1,2.85,26.4a52.064,52.064,0,0,0,3.793,6.706C8.124,35.2,9.8,37.163,11.45,39.126c2.05,2.438,4.164,4.824,6.245,7.231.185.213.352.432.527.649.095.122.077.216-.049.262m16.7,18.124-.1-.076L34.9,65.3ZM57.947,88.174l.017-.1.1.074Zm3.161,2.707c-.158-.109-.342-.214-.321-.44a.263.263,0,0,1-.039-.014c-.007-.018-.01-.035-.017-.049a1.872,1.872,0,0,1-1-.6,1.488,1.488,0,0,1-.29-.58l-.084-.084a.047.047,0,0,1-.049-.024l-.014-.014c-.067,0-.136,0-.2-.007.073-.132.119-.1.157-.049a.461.461,0,0,1,.038.049s0,0,.007.007c.038,0,.077,0,.115,0,.007.031.014.063.024.094a2.466,2.466,0,0,0,.293.244c.385.266.821.475,1,.957.017.008.038.011.059.018a.218.218,0,0,0,0,.046,3.789,3.789,0,0,1,.517.23c.053.032.039.172.056.262a.637.637,0,0,1-.251-.051M94.325,15.465a24.537,24.537,0,0,1-1.027,4.8,3.8,3.8,0,0,0-.192.817c-.559,3.664-1.53,7.241-2.407,10.824-1.306,5.327-2.529,10.682-3.982,15.973-.887,3.238-1.883,6.447-2.822,9.675-.342,1.181-.657,2.376-1,3.56-.437,1.5-.883,3-1.327,4.505-.143.486-.3.965-.433,1.45-.6,2.277-1.163,4.562-1.792,6.825a70.48,70.48,0,0,1-4.879,13.035,15.083,15.083,0,0,1-2.246,3.185c-.29.326-.587.643-.887.954a3.8,3.8,0,0,1-3.619,1.338,7.143,7.143,0,0,0-1.341-.028,4.718,4.718,0,0,1-2.092-.552,18.189,18.189,0,0,1-3.032-2.106q-.713-.571-1.422-1.149c-2.829-2.3-5.6-4.673-8.236-7.2-4.569-4.384-9.054-8.847-13.3-13.546q-1.388-1.54-2.794-3.07-2.452-2.683-4.932-5.348c-.838-.9-1.792-1.694-2.626-2.6-1.869-2.012-3.692-4.066-5.536-6.1q-2.143-2.362-4.226-4.768-5.129-5.9-9.938-12.082a52.351,52.351,0,0,1-4.16-6.9A26.5,26.5,0,0,1,2.057,22.72a5.89,5.89,0,0,1-.265-3.3,9.98,9.98,0,0,0,.3-1.484,8.019,8.019,0,0,1,1.872-4.247,4.417,4.417,0,0,1,2.892-1.852c5.264-.775,10.521-1.6,15.788-2.361Q45.93,6.11,69.225,2.793c3.1-.44,6.22-.814,9.333-1.181,1.834-.216,3.674-.394,5.515-.524A10.985,10.985,0,0,1,91.842,3.7a5.94,5.94,0,0,1,1.645,2.106,11.352,11.352,0,0,1,1.191,5.18,37.712,37.712,0,0,1-.353,4.474m-25.858,9A27.2,27.2,0,0,0,66.739,22.2a5.549,5.549,0,0,0-1.272-1.328,29.3,29.3,0,0,0-4.415-2.4,19.554,19.554,0,0,0-13.968-.122,11.912,11.912,0,0,0-5.8,4.128,35.457,35.457,0,0,0-3.975,6.6A14.694,14.694,0,0,0,36.137,34.6,16.217,16.217,0,0,0,37.3,41.648a26.651,26.651,0,0,0,4.75,7.667,7.66,7.66,0,0,0,1.631,1.436c1.379.852,2.8,1.648,4.244,2.381A13.821,13.821,0,0,0,51.806,54.7a35.339,35.339,0,0,0,6.849.412A13.67,13.67,0,0,0,65.4,52.787,19.916,19.916,0,0,0,68.1,50.8a14.146,14.146,0,0,0,5.239-9.574,19.089,19.089,0,0,0,.234-3.4A18.485,18.485,0,0,0,71.8,29.7a42.98,42.98,0,0,0-3.329-5.236M72.788,38.6c-.014.839-.147,1.677-.231,2.511-.472,4.433-2.885,7.653-6.357,10.227a18.706,18.706,0,0,1-5.4,2.654,9.436,9.436,0,0,1-4.313.422,13.968,13.968,0,0,0-2.508-.153,6.963,6.963,0,0,1-3.1-.618,35.619,35.619,0,0,1-5.819-2.99,14.784,14.784,0,0,1-3.378-2.99,19.232,19.232,0,0,1-3.3-5.626c-.272-.8-.583-1.576-.891-2.358a11.554,11.554,0,0,1-.559-3.975c-.028-1.062.056-2.128.126-3.19a5.323,5.323,0,0,1,.8-2.7,3.243,3.243,0,0,0,.342-.765,24.517,24.517,0,0,1,3.831-6.27,11.383,11.383,0,0,1,5.62-3.782,18.76,18.76,0,0,1,10.587-.7,18.125,18.125,0,0,1,5.495,2.421c1.956,1.184,3.137,2.986,4.419,4.739.527.723,1.044,1.457,1.526,2.211a16,16,0,0,1,2.98,8.254c.024.9.143,1.791.126,2.682" transform="translate(0 0)" fill="#351b1b"/>
        </g>
      </g>
      <g id="Grupo_1065184" data-name="Grupo 1065184" transform="translate(-5349.018 -10914.601) rotate(98)">
        <g id="Grupo_1065182-2" data-name="Grupo 1065182" clip-path="url(#clip-path)">
          <path id="Trazado_777897-2" data-name="Trazado 777897" d="M94.938,5.684A5.933,5.933,0,0,1,96.583,7.79a11.352,11.352,0,0,1,1.191,5.18,37.714,37.714,0,0,1-.353,4.474,24.511,24.511,0,0,1-1.027,4.8,3.8,3.8,0,0,0-.192.817c-.559,3.664-1.53,7.241-2.407,10.824-1.306,5.327-2.529,10.681-3.982,15.973-.887,3.238-1.883,6.447-2.822,9.675-.342,1.181-.657,2.375-1,3.56-.437,1.5-.883,3-1.327,4.505-.143.486-.3.964-.433,1.45-.6,2.277-1.163,4.562-1.792,6.825a70.438,70.438,0,0,1-4.88,13.035A15.075,15.075,0,0,1,75.318,92.1c-.29.325-.587.643-.887.954a3.8,3.8,0,0,1-3.619,1.338,7.142,7.142,0,0,0-1.341-.028,4.716,4.716,0,0,1-2.092-.552A18.2,18.2,0,0,1,64.347,91.7q-.713-.571-1.421-1.15c-2.829-2.3-5.6-4.673-8.236-7.2-4.569-4.384-9.054-8.848-13.3-13.546Q40,68.266,38.59,66.736q-2.451-2.683-4.932-5.348c-.838-.9-1.792-1.694-2.626-2.6-1.869-2.012-3.692-4.066-5.536-6.1q-2.143-2.362-4.227-4.768-5.129-5.9-9.937-12.082a52.313,52.313,0,0,1-4.16-6.9A26.513,26.513,0,0,1,5.153,24.7a5.892,5.892,0,0,1-.265-3.3,9.97,9.97,0,0,0,.3-1.484,8.026,8.026,0,0,1,1.872-4.247,4.417,4.417,0,0,1,2.892-1.851c5.264-.775,10.521-1.6,15.788-2.361Q49.026,8.09,72.321,4.772c3.1-.44,6.22-.814,9.333-1.181,1.834-.216,3.675-.394,5.515-.524a10.986,10.986,0,0,1,7.769,2.616M51.022,55.111a13.819,13.819,0,0,0,3.88,1.572,35.371,35.371,0,0,0,6.85.412A13.676,13.676,0,0,0,68.5,54.766a19.871,19.871,0,0,0,2.7-1.988A14.146,14.146,0,0,0,76.439,43.2a19.057,19.057,0,0,0,.234-3.4,18.484,18.484,0,0,0-1.781-8.124,43.077,43.077,0,0,0-3.329-5.236,27.079,27.079,0,0,0-1.729-2.266,5.541,5.541,0,0,0-1.271-1.328,29.27,29.27,0,0,0-4.415-2.4,19.552,19.552,0,0,0-13.968-.122,11.914,11.914,0,0,0-5.8,4.129,35.462,35.462,0,0,0-3.975,6.595,14.693,14.693,0,0,0-1.173,5.532A16.212,16.212,0,0,0,40.4,43.627a26.643,26.643,0,0,0,4.75,7.666,7.662,7.662,0,0,0,1.631,1.436q2.069,1.278,4.244,2.381" transform="translate(-3.096 -1.979)" fill="#d2e1f1"/>
          <path id="Trazado_777898-2" data-name="Trazado 777898" d="M138.484,60.894a16,16,0,0,1,2.979,8.254c.024.9.143,1.791.126,2.683-.014.838-.147,1.677-.231,2.511-.471,4.433-2.885,7.653-6.357,10.227a18.691,18.691,0,0,1-5.4,2.655,9.447,9.447,0,0,1-4.314.422,14,14,0,0,0-2.508-.154,6.962,6.962,0,0,1-3.1-.618,35.58,35.58,0,0,1-5.819-2.99,14.784,14.784,0,0,1-3.378-2.99,19.236,19.236,0,0,1-3.3-5.627c-.272-.8-.583-1.575-.891-2.358a11.552,11.552,0,0,1-.559-3.974c-.028-1.062.056-2.127.126-3.189a5.332,5.332,0,0,1,.8-2.7,3.229,3.229,0,0,0,.343-.765,24.5,24.5,0,0,1,3.831-6.27,11.372,11.372,0,0,1,5.62-3.782,18.762,18.762,0,0,1,10.587-.7,18.116,18.116,0,0,1,5.494,2.421c1.956,1.183,3.137,2.986,4.419,4.739.527.723,1.044,1.457,1.526,2.211" transform="translate(-68.802 -33.232)" fill="#b0c0d2"/>
          <path id="Trazado_777899-2" data-name="Trazado 777899" d="M3.47,67.406a10.8,10.8,0,0,1,1.6,2.86A52.069,52.069,0,0,0,8.86,76.973c1.481,2.088,3.154,4.051,4.806,6.014,2.051,2.438,4.164,4.824,6.245,7.231.185.213.353.432.527.649.095.122.077.216-.049.262a.192.192,0,0,1-.146,0,6.641,6.641,0,0,1-.622-.552,86.756,86.756,0,0,1-6.158-6.857c-1.464-1.9-3.189-3.59-4.555-5.574A39.622,39.622,0,0,1,3.7,68.807a2.023,2.023,0,0,1-.227-1.4" transform="translate(-2.216 -43.862)" fill="#fff2fc"/>
          <path id="Trazado_777900-2" data-name="Trazado 777900" d="M95.474,9.869A9.565,9.565,0,0,0,88.67.809a14.436,14.436,0,0,0-6.8-.664C76.323.938,70.787,1.763,65.2,2.3c-3.783.363-7.548.94-11.324,1.432Q49.135,4.347,44.394,5c-2.274.311-4.537.73-6.818.957-2.4.241-4.772.639-7.146,1.027-4.754.779-9.5,1.621-14.254,2.375-3.318.528-6.65.971-9.979,1.415a4.685,4.685,0,0,0-3.5,2.044A14.816,14.816,0,0,0,.094,19.3a13.463,13.463,0,0,0,1.191,7.366,45.56,45.56,0,0,0,5.069,8.5c1.471,1.9,3.13,3.661,4.624,5.547a49.722,49.722,0,0,0,3.811,4.251c.594.593,1.188,1.187,1.774,1.791.13.133.255.265.385.4,2.553,2.651,5.04,5.362,7.5,8.1,3.1,3.462,6.263,6.87,9.434,10.269.105.112.206.224.315.331,1.694,1.81,3.434,3.584,5.187,5.337,1.942,1.938,4.021,3.748,5.886,5.753,3.786,4.063,7.911,7.768,11.952,11.561.671.626,1.345,1.254,2.054,1.834A14.433,14.433,0,0,0,62.6,92.493a2.731,2.731,0,0,1,.793.608,2.346,2.346,0,0,0,2.571.776,2.621,2.621,0,0,1,.5-.021,8.618,8.618,0,0,0,5.019-2.127q.629-.6,1.212-1.226a16.883,16.883,0,0,0,2.913-4.241c1.089-2.337,1.994-4.747,2.847-7.178.59-1.694,1.226-3.37,1.656-5.114.391-1.575.8-3.147,1.205-4.719.248-.978.468-1.963.751-2.931,1.254-4.3,2.536-8.592,3.793-12.892,1.809-6.186,3.325-12.448,4.883-18.7q1.221-4.894,2.351-9.8c.653-2.836,1.24-5.69,1.858-8.533a33.769,33.769,0,0,0,.52-6.525m-77.3,37.4c-.045.014-.119.021-.147,0a6.634,6.634,0,0,1-.622-.552,86.682,86.682,0,0,1-6.158-6.857c-1.464-1.9-3.189-3.59-4.555-5.574a39.6,39.6,0,0,1-5.211-9.337,2.02,2.02,0,0,1-.227-1.4.16.16,0,0,1-.024-.025v-.049c-.073-.038-.164-.073-.171-.122-.028-.126.076-.185.147-.1.042.048.028.139.024.223l.042.021a.324.324,0,0,0-.018.053A10.821,10.821,0,0,1,2.85,26.4a52.064,52.064,0,0,0,3.793,6.706C8.124,35.2,9.8,37.163,11.45,39.126c2.05,2.438,4.164,4.824,6.245,7.231.185.213.352.432.527.649.095.122.077.216-.049.262m16.7,18.124-.1-.076L34.9,65.3ZM57.947,88.174l.017-.1.1.074Zm3.161,2.707c-.158-.109-.342-.214-.321-.44a.263.263,0,0,1-.039-.014c-.007-.018-.01-.035-.017-.049a1.872,1.872,0,0,1-1-.6,1.488,1.488,0,0,1-.29-.58l-.084-.084a.047.047,0,0,1-.049-.024l-.014-.014c-.067,0-.136,0-.2-.007.073-.132.119-.1.157-.049a.461.461,0,0,1,.038.049s0,0,.007.007c.038,0,.077,0,.115,0,.007.031.014.063.024.094a2.466,2.466,0,0,0,.293.244c.385.266.821.475,1,.957.017.008.038.011.059.018a.218.218,0,0,0,0,.046,3.789,3.789,0,0,1,.517.23c.053.032.039.172.056.262a.637.637,0,0,1-.251-.051M94.325,15.465a24.537,24.537,0,0,1-1.027,4.8,3.8,3.8,0,0,0-.192.817c-.559,3.664-1.53,7.241-2.407,10.824-1.306,5.327-2.529,10.682-3.982,15.973-.887,3.238-1.883,6.447-2.822,9.675-.342,1.181-.657,2.376-1,3.56-.437,1.5-.883,3-1.327,4.505-.143.486-.3.965-.433,1.45-.6,2.277-1.163,4.562-1.792,6.825a70.48,70.48,0,0,1-4.879,13.035,15.083,15.083,0,0,1-2.246,3.185c-.29.326-.587.643-.887.954a3.8,3.8,0,0,1-3.619,1.338,7.143,7.143,0,0,0-1.341-.028,4.718,4.718,0,0,1-2.092-.552,18.189,18.189,0,0,1-3.032-2.106q-.713-.571-1.422-1.149c-2.829-2.3-5.6-4.673-8.236-7.2-4.569-4.384-9.054-8.847-13.3-13.546q-1.388-1.54-2.794-3.07-2.452-2.683-4.932-5.348c-.838-.9-1.792-1.694-2.626-2.6-1.869-2.012-3.692-4.066-5.536-6.1q-2.143-2.362-4.226-4.768-5.129-5.9-9.938-12.082a52.351,52.351,0,0,1-4.16-6.9A26.5,26.5,0,0,1,2.057,22.72a5.89,5.89,0,0,1-.265-3.3,9.98,9.98,0,0,0,.3-1.484,8.019,8.019,0,0,1,1.872-4.247,4.417,4.417,0,0,1,2.892-1.852c5.264-.775,10.521-1.6,15.788-2.361Q45.93,6.11,69.225,2.793c3.1-.44,6.22-.814,9.333-1.181,1.834-.216,3.674-.394,5.515-.524A10.985,10.985,0,0,1,91.842,3.7a5.94,5.94,0,0,1,1.645,2.106,11.352,11.352,0,0,1,1.191,5.18,37.712,37.712,0,0,1-.353,4.474m-25.858,9A27.2,27.2,0,0,0,66.739,22.2a5.549,5.549,0,0,0-1.272-1.328,29.3,29.3,0,0,0-4.415-2.4,19.554,19.554,0,0,0-13.968-.122,11.912,11.912,0,0,0-5.8,4.128,35.457,35.457,0,0,0-3.975,6.6A14.694,14.694,0,0,0,36.137,34.6,16.217,16.217,0,0,0,37.3,41.648a26.651,26.651,0,0,0,4.75,7.667,7.66,7.66,0,0,0,1.631,1.436c1.379.852,2.8,1.648,4.244,2.381A13.821,13.821,0,0,0,51.806,54.7a35.339,35.339,0,0,0,6.849.412A13.67,13.67,0,0,0,65.4,52.787,19.916,19.916,0,0,0,68.1,50.8a14.146,14.146,0,0,0,5.239-9.574,19.089,19.089,0,0,0,.234-3.4A18.485,18.485,0,0,0,71.8,29.7a42.98,42.98,0,0,0-3.329-5.236M72.788,38.6c-.014.839-.147,1.677-.231,2.511-.472,4.433-2.885,7.653-6.357,10.227a18.706,18.706,0,0,1-5.4,2.654,9.436,9.436,0,0,1-4.313.422,13.968,13.968,0,0,0-2.508-.153,6.963,6.963,0,0,1-3.1-.618,35.619,35.619,0,0,1-5.819-2.99,14.784,14.784,0,0,1-3.378-2.99,19.232,19.232,0,0,1-3.3-5.626c-.272-.8-.583-1.576-.891-2.358a11.554,11.554,0,0,1-.559-3.975c-.028-1.062.056-2.128.126-3.19a5.323,5.323,0,0,1,.8-2.7,3.243,3.243,0,0,0,.342-.765,24.517,24.517,0,0,1,3.831-6.27,11.383,11.383,0,0,1,5.62-3.782,18.76,18.76,0,0,1,10.587-.7,18.125,18.125,0,0,1,5.495,2.421c1.956,1.184,3.137,2.986,4.419,4.739.527.723,1.044,1.457,1.526,2.211a16,16,0,0,1,2.98,8.254c.024.9.143,1.791.126,2.682" transform="translate(0 0)" fill="#351b1b"/>
        </g>
      </g>
      <g id="Grupo_1065185" data-name="Grupo 1065185" transform="matrix(0.454, 0.891, -0.891, 0.454, -5419.379, -10860.885)">
        <g id="Grupo_1065182-3" data-name="Grupo 1065182" clip-path="url(#clip-path)">
          <path id="Trazado_777897-3" data-name="Trazado 777897" d="M94.938,5.684A5.933,5.933,0,0,1,96.583,7.79a11.352,11.352,0,0,1,1.191,5.18,37.714,37.714,0,0,1-.353,4.474,24.511,24.511,0,0,1-1.027,4.8,3.8,3.8,0,0,0-.192.817c-.559,3.664-1.53,7.241-2.407,10.824-1.306,5.327-2.529,10.681-3.982,15.973-.887,3.238-1.883,6.447-2.822,9.675-.342,1.181-.657,2.375-1,3.56-.437,1.5-.883,3-1.327,4.505-.143.486-.3.964-.433,1.45-.6,2.277-1.163,4.562-1.792,6.825a70.438,70.438,0,0,1-4.88,13.035A15.075,15.075,0,0,1,75.318,92.1c-.29.325-.587.643-.887.954a3.8,3.8,0,0,1-3.619,1.338,7.142,7.142,0,0,0-1.341-.028,4.716,4.716,0,0,1-2.092-.552A18.2,18.2,0,0,1,64.347,91.7q-.713-.571-1.421-1.15c-2.829-2.3-5.6-4.673-8.236-7.2-4.569-4.384-9.054-8.848-13.3-13.546Q40,68.266,38.59,66.736q-2.451-2.683-4.932-5.348c-.838-.9-1.792-1.694-2.626-2.6-1.869-2.012-3.692-4.066-5.536-6.1q-2.143-2.362-4.227-4.768-5.129-5.9-9.937-12.082a52.313,52.313,0,0,1-4.16-6.9A26.513,26.513,0,0,1,5.153,24.7a5.892,5.892,0,0,1-.265-3.3,9.97,9.97,0,0,0,.3-1.484,8.026,8.026,0,0,1,1.872-4.247,4.417,4.417,0,0,1,2.892-1.851c5.264-.775,10.521-1.6,15.788-2.361Q49.026,8.09,72.321,4.772c3.1-.44,6.22-.814,9.333-1.181,1.834-.216,3.675-.394,5.515-.524a10.986,10.986,0,0,1,7.769,2.616M51.022,55.111a13.819,13.819,0,0,0,3.88,1.572,35.371,35.371,0,0,0,6.85.412A13.676,13.676,0,0,0,68.5,54.766a19.871,19.871,0,0,0,2.7-1.988A14.146,14.146,0,0,0,76.439,43.2a19.057,19.057,0,0,0,.234-3.4,18.484,18.484,0,0,0-1.781-8.124,43.077,43.077,0,0,0-3.329-5.236,27.079,27.079,0,0,0-1.729-2.266,5.541,5.541,0,0,0-1.271-1.328,29.27,29.27,0,0,0-4.415-2.4,19.552,19.552,0,0,0-13.968-.122,11.914,11.914,0,0,0-5.8,4.129,35.462,35.462,0,0,0-3.975,6.595,14.693,14.693,0,0,0-1.173,5.532A16.212,16.212,0,0,0,40.4,43.627a26.643,26.643,0,0,0,4.75,7.666,7.662,7.662,0,0,0,1.631,1.436q2.069,1.278,4.244,2.381" transform="translate(-3.096 -1.979)" fill="#f9cbbf"/>
          <path id="Trazado_777898-3" data-name="Trazado 777898" d="M138.484,60.894a16,16,0,0,1,2.979,8.254c.024.9.143,1.791.126,2.683-.014.838-.147,1.677-.231,2.511-.471,4.433-2.885,7.653-6.357,10.227a18.691,18.691,0,0,1-5.4,2.655,9.447,9.447,0,0,1-4.314.422,14,14,0,0,0-2.508-.154,6.962,6.962,0,0,1-3.1-.618,35.58,35.58,0,0,1-5.819-2.99,14.784,14.784,0,0,1-3.378-2.99,19.236,19.236,0,0,1-3.3-5.627c-.272-.8-.583-1.575-.891-2.358a11.552,11.552,0,0,1-.559-3.974c-.028-1.062.056-2.127.126-3.189a5.332,5.332,0,0,1,.8-2.7,3.229,3.229,0,0,0,.343-.765,24.5,24.5,0,0,1,3.831-6.27,11.372,11.372,0,0,1,5.62-3.782,18.762,18.762,0,0,1,10.587-.7,18.116,18.116,0,0,1,5.494,2.421c1.956,1.183,3.137,2.986,4.419,4.739.527.723,1.044,1.457,1.526,2.211" transform="translate(-68.802 -33.232)" fill="#f9cbbf"/>
          <path id="Trazado_777899-3" data-name="Trazado 777899" d="M3.47,67.406a10.8,10.8,0,0,1,1.6,2.86A52.069,52.069,0,0,0,8.86,76.973c1.481,2.088,3.154,4.051,4.806,6.014,2.051,2.438,4.164,4.824,6.245,7.231.185.213.353.432.527.649.095.122.077.216-.049.262a.192.192,0,0,1-.146,0,6.641,6.641,0,0,1-.622-.552,86.756,86.756,0,0,1-6.158-6.857c-1.464-1.9-3.189-3.59-4.555-5.574A39.622,39.622,0,0,1,3.7,68.807a2.023,2.023,0,0,1-.227-1.4" transform="translate(-2.216 -43.862)" fill="#fff2fc"/>
          <path id="Trazado_777900-3" data-name="Trazado 777900" d="M95.474,9.869A9.565,9.565,0,0,0,88.67.809a14.436,14.436,0,0,0-6.8-.664C76.323.938,70.787,1.763,65.2,2.3c-3.783.363-7.548.94-11.324,1.432Q49.135,4.347,44.394,5c-2.274.311-4.537.73-6.818.957-2.4.241-4.772.639-7.146,1.027-4.754.779-9.5,1.621-14.254,2.375-3.318.528-6.65.971-9.979,1.415a4.685,4.685,0,0,0-3.5,2.044A14.816,14.816,0,0,0,.094,19.3a13.463,13.463,0,0,0,1.191,7.366,45.56,45.56,0,0,0,5.069,8.5c1.471,1.9,3.13,3.661,4.624,5.547a49.722,49.722,0,0,0,3.811,4.251c.594.593,1.188,1.187,1.774,1.791.13.133.255.265.385.4,2.553,2.651,5.04,5.362,7.5,8.1,3.1,3.462,6.263,6.87,9.434,10.269.105.112.206.224.315.331,1.694,1.81,3.434,3.584,5.187,5.337,1.942,1.938,4.021,3.748,5.886,5.753,3.786,4.063,7.911,7.768,11.952,11.561.671.626,1.345,1.254,2.054,1.834A14.433,14.433,0,0,0,62.6,92.493a2.731,2.731,0,0,1,.793.608,2.346,2.346,0,0,0,2.571.776,2.621,2.621,0,0,1,.5-.021,8.618,8.618,0,0,0,5.019-2.127q.629-.6,1.212-1.226a16.883,16.883,0,0,0,2.913-4.241c1.089-2.337,1.994-4.747,2.847-7.178.59-1.694,1.226-3.37,1.656-5.114.391-1.575.8-3.147,1.205-4.719.248-.978.468-1.963.751-2.931,1.254-4.3,2.536-8.592,3.793-12.892,1.809-6.186,3.325-12.448,4.883-18.7q1.221-4.894,2.351-9.8c.653-2.836,1.24-5.69,1.858-8.533a33.769,33.769,0,0,0,.52-6.525m-77.3,37.4c-.045.014-.119.021-.147,0a6.634,6.634,0,0,1-.622-.552,86.682,86.682,0,0,1-6.158-6.857c-1.464-1.9-3.189-3.59-4.555-5.574a39.6,39.6,0,0,1-5.211-9.337,2.02,2.02,0,0,1-.227-1.4.16.16,0,0,1-.024-.025v-.049c-.073-.038-.164-.073-.171-.122-.028-.126.076-.185.147-.1.042.048.028.139.024.223l.042.021a.324.324,0,0,0-.018.053A10.821,10.821,0,0,1,2.85,26.4a52.064,52.064,0,0,0,3.793,6.706C8.124,35.2,9.8,37.163,11.45,39.126c2.05,2.438,4.164,4.824,6.245,7.231.185.213.352.432.527.649.095.122.077.216-.049.262m16.7,18.124-.1-.076L34.9,65.3ZM57.947,88.174l.017-.1.1.074Zm3.161,2.707c-.158-.109-.342-.214-.321-.44a.263.263,0,0,1-.039-.014c-.007-.018-.01-.035-.017-.049a1.872,1.872,0,0,1-1-.6,1.488,1.488,0,0,1-.29-.58l-.084-.084a.047.047,0,0,1-.049-.024l-.014-.014c-.067,0-.136,0-.2-.007.073-.132.119-.1.157-.049a.461.461,0,0,1,.038.049s0,0,.007.007c.038,0,.077,0,.115,0,.007.031.014.063.024.094a2.466,2.466,0,0,0,.293.244c.385.266.821.475,1,.957.017.008.038.011.059.018a.218.218,0,0,0,0,.046,3.789,3.789,0,0,1,.517.23c.053.032.039.172.056.262a.637.637,0,0,1-.251-.051M94.325,15.465a24.537,24.537,0,0,1-1.027,4.8,3.8,3.8,0,0,0-.192.817c-.559,3.664-1.53,7.241-2.407,10.824-1.306,5.327-2.529,10.682-3.982,15.973-.887,3.238-1.883,6.447-2.822,9.675-.342,1.181-.657,2.376-1,3.56-.437,1.5-.883,3-1.327,4.505-.143.486-.3.965-.433,1.45-.6,2.277-1.163,4.562-1.792,6.825a70.48,70.48,0,0,1-4.879,13.035,15.083,15.083,0,0,1-2.246,3.185c-.29.326-.587.643-.887.954a3.8,3.8,0,0,1-3.619,1.338,7.143,7.143,0,0,0-1.341-.028,4.718,4.718,0,0,1-2.092-.552,18.189,18.189,0,0,1-3.032-2.106q-.713-.571-1.422-1.149c-2.829-2.3-5.6-4.673-8.236-7.2-4.569-4.384-9.054-8.847-13.3-13.546q-1.388-1.54-2.794-3.07-2.452-2.683-4.932-5.348c-.838-.9-1.792-1.694-2.626-2.6-1.869-2.012-3.692-4.066-5.536-6.1q-2.143-2.362-4.226-4.768-5.129-5.9-9.938-12.082a52.351,52.351,0,0,1-4.16-6.9A26.5,26.5,0,0,1,2.057,22.72a5.89,5.89,0,0,1-.265-3.3,9.98,9.98,0,0,0,.3-1.484,8.019,8.019,0,0,1,1.872-4.247,4.417,4.417,0,0,1,2.892-1.852c5.264-.775,10.521-1.6,15.788-2.361Q45.93,6.11,69.225,2.793c3.1-.44,6.22-.814,9.333-1.181,1.834-.216,3.674-.394,5.515-.524A10.985,10.985,0,0,1,91.842,3.7a5.94,5.94,0,0,1,1.645,2.106,11.352,11.352,0,0,1,1.191,5.18,37.712,37.712,0,0,1-.353,4.474m-25.858,9A27.2,27.2,0,0,0,66.739,22.2a5.549,5.549,0,0,0-1.272-1.328,29.3,29.3,0,0,0-4.415-2.4,19.554,19.554,0,0,0-13.968-.122,11.912,11.912,0,0,0-5.8,4.128,35.457,35.457,0,0,0-3.975,6.6A14.694,14.694,0,0,0,36.137,34.6,16.217,16.217,0,0,0,37.3,41.648a26.651,26.651,0,0,0,4.75,7.667,7.66,7.66,0,0,0,1.631,1.436c1.379.852,2.8,1.648,4.244,2.381A13.821,13.821,0,0,0,51.806,54.7a35.339,35.339,0,0,0,6.849.412A13.67,13.67,0,0,0,65.4,52.787,19.916,19.916,0,0,0,68.1,50.8a14.146,14.146,0,0,0,5.239-9.574,19.089,19.089,0,0,0,.234-3.4A18.485,18.485,0,0,0,71.8,29.7a42.98,42.98,0,0,0-3.329-5.236M72.788,38.6c-.014.839-.147,1.677-.231,2.511-.472,4.433-2.885,7.653-6.357,10.227a18.706,18.706,0,0,1-5.4,2.654,9.436,9.436,0,0,1-4.313.422,13.968,13.968,0,0,0-2.508-.153,6.963,6.963,0,0,1-3.1-.618,35.619,35.619,0,0,1-5.819-2.99,14.784,14.784,0,0,1-3.378-2.99,19.232,19.232,0,0,1-3.3-5.626c-.272-.8-.583-1.576-.891-2.358a11.554,11.554,0,0,1-.559-3.975c-.028-1.062.056-2.128.126-3.19a5.323,5.323,0,0,1,.8-2.7,3.243,3.243,0,0,0,.342-.765,24.517,24.517,0,0,1,3.831-6.27,11.383,11.383,0,0,1,5.62-3.782,18.76,18.76,0,0,1,10.587-.7,18.125,18.125,0,0,1,5.495,2.421c1.956,1.184,3.137,2.986,4.419,4.739.527.723,1.044,1.457,1.526,2.211a16,16,0,0,1,2.98,8.254c.024.9.143,1.791.126,2.682" transform="translate(0 0)" fill="#351b1b"/>
        </g>
      </g>
    </g>
  </g>
</svg>
