<svg xmlns="http://www.w3.org/2000/svg" width="73.426" height="73.426" viewBox="0 0 73.426 73.426">
  <g id="_03-designer" transform="translate(0)">
    <path id="Trazado_778016" data-name="Trazado 778016" d="M61.244,27.39l-14.1,14.089-.964.964V39.1H42.83L57.894,24.04Z" transform="translate(6.308 3.541)" fill="#ff475a"/>
    <path id="Trazado_778017" data-name="Trazado 778017" d="M58.322,24.469,43.259,39.532v-3.35H39.92L42.41,33.7l1.434-1.434v-.011L54.984,21.13Z" transform="translate(5.879 3.112)" fill="#ff9696"/>
    <path id="Trazado_778018" data-name="Trazado 778018" d="M33.177,6.736a3.371,3.371,0,0,1-3.3,3.442c-.047,0-.1,0-.143,0-3.293,0-5.53-3.144-5.725-8.421L27.44,1A5.737,5.737,0,0,0,33.177,6.736Z" transform="translate(3.536 0.147)" fill="#f2f6fc"/>
    <path id="Trazado_778019" data-name="Trazado 778019" d="M37.736,1l3.43.757c-.2,5.277-2.432,8.421-5.725,8.421A3.371,3.371,0,0,1,32,6.88c0-.047,0-.1,0-.143A5.737,5.737,0,0,0,37.736,1Z" transform="translate(4.713 0.147)" fill="#f2f6fc"/>
    <path id="Trazado_778020" data-name="Trazado 778020" d="M72.131,45.295v9.178a2.3,2.3,0,0,1-2.295,2.295H3.295A2.3,2.3,0,0,1,1,54.473V45.295A2.3,2.3,0,0,1,3.295,43H69.836A2.3,2.3,0,0,1,72.131,45.295Z" transform="translate(0.147 6.333)" fill="#ffe45c"/>
    <path id="Trazado_778021" data-name="Trazado 778021" d="M69.836,52.295H3.295A2.3,2.3,0,0,1,1,50v3.442a2.3,2.3,0,0,0,2.295,2.295H69.836a2.3,2.3,0,0,0,2.295-2.295V50A2.3,2.3,0,0,1,69.836,52.295Z" transform="translate(0.147 7.364)" fill="#ffa426"/>
    <path id="Trazado_778022" data-name="Trazado 778022" d="M62.756,18.388a4.729,4.729,0,0,1,0,6.688h0l-.838.838L55.23,19.226l.838-.838a4.722,4.722,0,0,1,6.678-.01Z" transform="translate(8.134 2.504)" fill="#f2f6fc"/>
    <path id="Trazado_778023" data-name="Trazado 778023" d="M62.24,25.629l-2.5,2.513-3.35-3.35L53.05,21.453l2.5-2.513Z" transform="translate(7.813 2.79)" fill="#9196aa"/>
    <path id="Trazado_778024" data-name="Trazado 778024" d="M49.792,14.946a81.4,81.4,0,0,0-2.157,14.766,2.294,2.294,0,0,1-2.283,2.168H24.541a2.294,2.294,0,0,1-2.283-2.168A81.4,81.4,0,0,0,20.1,14.946c-1.354,4.383-3.511,5.461-3.511,5.461L12,15.817A14.058,14.058,0,0,1,18.885,3.2l6.9-1.537c.2,5.277,2.432,8.421,5.725,8.421a3.371,3.371,0,0,0,3.442-3.3c0-.047,0-.1,0-.143a3.371,3.371,0,0,0,3.3,3.442c.047,0,.1,0,.143,0,3.293,0,5.53-3.144,5.725-8.421l6.9,1.537a14.058,14.058,0,0,1,6.884,12.62L53.3,20.407S51.146,19.328,49.792,14.946Z" transform="translate(1.766 0.244)" fill="#b5efff"/>
    <path id="Trazado_778025" data-name="Trazado 778025" d="M24.668,28.63C24.4,23.652,22.321,13.846,21.152,9c-.461,1.7-.987,4.048-2.152,5.372.584,3.364,2.019,10.85,2.226,14.257A2.294,2.294,0,0,0,23.509,30.8h3.442A2.294,2.294,0,0,1,24.668,28.63Z" transform="translate(2.798 1.326)" fill="#19cffc"/>
    <path id="Trazado_778026" data-name="Trazado 778026" d="M15.443,15.817A14.058,14.058,0,0,1,22.327,3.2l3.5-.78c-.02-.249-.038-.5-.047-.757L18.885,3.2A14.058,14.058,0,0,0,12,15.817l4.589,4.589A5.573,5.573,0,0,0,18.323,18.7Z" transform="translate(1.766 0.244)" fill="#19cffc"/>
    <path id="Trazado_778027" data-name="Trazado 778027" d="M54.007,64.178H15c0-3.316.08-6.367.241-9.178H53.766C53.927,57.811,54.007,60.863,54.007,64.178Z" transform="translate(2.209 8.1)" fill="#b5efff"/>
    <path id="Trazado_778028" data-name="Trazado 778028" d="M48.955,43.554H37l5.025-1.675L47.039,40.2,48,39.24c.344,1.308.654,2.742.952,4.314Z" transform="translate(5.449 5.779)" fill="#b5efff"/>
    <path id="Trazado_778029" data-name="Trazado 778029" d="M46.824,37.6v3.339L41.81,42.614l-3.35-3.35,1.675-5.014h3.339V37.6Z" transform="translate(5.664 5.044)" fill="#f2d1a5"/>
    <path id="Trazado_778030" data-name="Trazado 778030" d="M46.774,31.247v.011L45.34,32.692l-.1-.1H20.02C21.867,28.987,23.439,28,23.439,28H44.09A10.125,10.125,0,0,1,46.774,31.247Z" transform="translate(2.948 4.124)" fill="#1ea1e3"/>
    <path id="Trazado_778031" data-name="Trazado 778031" d="M42,32l.1.1.1-.1Z" transform="translate(6.185 4.713)" fill="#368dcf"/>
    <path id="Trazado_778032" data-name="Trazado 778032" d="M26.881,28H23.439s-1.572.987-3.419,4.589h3.442C25.309,28.987,26.881,28,26.881,28Z" transform="translate(2.948 4.124)" fill="#368dcf"/>
    <path id="Trazado_778033" data-name="Trazado 778033" d="M45.847,32.1l-2.49,2.478L41.682,39.6,40.007,44.62H16.58A46.416,46.416,0,0,1,20.527,32H45.744Z" transform="translate(2.442 4.713)" fill="#b5efff"/>
    <path id="Trazado_778034" data-name="Trazado 778034" d="M15.241,55C15.08,57.811,15,60.863,15,64.178h3.442c0-3.316.08-6.367.241-9.178Z" transform="translate(2.209 8.1)" fill="#19cffc"/>
    <path id="Trazado_778035" data-name="Trazado 778035" d="M20.527,32A46.416,46.416,0,0,0,16.58,44.62h3.442A46.416,46.416,0,0,1,23.968,32Z" transform="translate(2.442 4.713)" fill="#19cffc"/>
    <path id="Trazado_778036" data-name="Trazado 778036" d="M42.025,41.97,37,43.645l1.675-5.025Z" transform="translate(5.449 5.688)" fill="#7e8596"/>
    <path id="Trazado_778037" data-name="Trazado 778037" d="M27,1H38.473A5.736,5.736,0,1,1,27,1Z" transform="translate(3.976 0.147)" fill="#1ea1e3"/>
    <g id="Grupo_1065232" data-name="Grupo 1065232" transform="translate(6.884 49.333)">
      <path id="Trazado_778038" data-name="Trazado 778038" d="M31,43h2.295v6.884H31Z" transform="translate(-2.318 -43)" fill="#faa68e"/>
      <path id="Trazado_778039" data-name="Trazado 778039" d="M36,43h2.295v4.589H36Z" transform="translate(-1.582 -43)" fill="#faa68e"/>
      <path id="Trazado_778040" data-name="Trazado 778040" d="M41,43h2.295v6.884H41Z" transform="translate(-0.845 -43)" fill="#faa68e"/>
      <path id="Trazado_778041" data-name="Trazado 778041" d="M46,43h2.295v4.589H46Z" transform="translate(-0.109 -43)" fill="#faa68e"/>
      <path id="Trazado_778042" data-name="Trazado 778042" d="M51,43h2.295v6.884H51Z" transform="translate(0.627 -43)" fill="#faa68e"/>
      <path id="Trazado_778043" data-name="Trazado 778043" d="M56,43h2.295v4.589H56Z" transform="translate(1.364 -43)" fill="#faa68e"/>
      <path id="Trazado_778044" data-name="Trazado 778044" d="M26,43h2.295v4.589H26Z" transform="translate(-3.055 -43)" fill="#faa68e"/>
      <path id="Trazado_778045" data-name="Trazado 778045" d="M21,43h2.295v6.884H21Z" transform="translate(-3.791 -43)" fill="#faa68e"/>
      <path id="Trazado_778046" data-name="Trazado 778046" d="M16,43h2.295v4.589H16Z" transform="translate(-4.527 -43)" fill="#faa68e"/>
      <path id="Trazado_778047" data-name="Trazado 778047" d="M11,43h2.295v6.884H11Z" transform="translate(-5.264 -43)" fill="#faa68e"/>
      <path id="Trazado_778048" data-name="Trazado 778048" d="M6,43H8.295v4.589H6Z" transform="translate(-6 -43)" fill="#faa68e"/>
    </g>
    <path id="Trazado_778049" data-name="Trazado 778049" d="M69.984,48.186H55.347c-.207-1.033-.413-1.965-.623-2.812L71.7,28.394a5.881,5.881,0,0,0-8.317-8.317L49.906,33.564c-.268-.377-.523-.709-.756-.984a3.465,3.465,0,0,0,1.4-2.558,90.173,90.173,0,0,1,1.384-11.163,7.407,7.407,0,0,0,2.627,2.82,1.159,1.159,0,0,0,.511.12,1.144,1.144,0,0,0,.811-.336l4.589-4.589a1.144,1.144,0,0,0,.336-.811A15.1,15.1,0,0,0,53.287,2.415a1.182,1.182,0,0,0-.264-.093L42.7.028a1.129,1.129,0,0,0-.249,0V0H30.976V.029a1.129,1.129,0,0,0-.249,0L20.4,2.323a1.182,1.182,0,0,0-.264.093A15.1,15.1,0,0,0,12.62,16.062a1.144,1.144,0,0,0,.336.811l4.589,4.589a1.148,1.148,0,0,0,1.324.216,7.407,7.407,0,0,0,2.627-2.82A90.174,90.174,0,0,1,22.88,30.021a3.468,3.468,0,0,0,1.4,2.562c-1.669,1.991-4.37,6.439-6.206,15.6H3.442A3.442,3.442,0,0,0,0,51.628v9.178a3.442,3.442,0,0,0,3.442,3.442h12.8c-.115,2.492-.184,5.178-.184,8.031a1.148,1.148,0,0,0,1.147,1.147H56.216a1.148,1.148,0,0,0,1.147-1.147c0-2.853-.064-5.539-.184-8.031h12.8a3.442,3.442,0,0,0,3.442-3.442V51.628A3.442,3.442,0,0,0,69.984,48.186Zm-20.464,0L52.775,47.1c.077.346.153.708.229,1.084ZM60.854,25.859l1.721,1.721L50.288,39.87V39.3a1.148,1.148,0,0,0-1.147-1.147h-.574ZM52.488,41.494h-.574L64.2,29.205l1.721,1.721L53.635,43.217v-.574a1.148,1.148,0,0,0-1.145-1.15Zm9.988-17.257.887-.888,5.071,5.071-.888.887ZM46.622,40.442H48v2.2a1.148,1.148,0,0,0,1.147,1.147H51.34v1.377l-3.557,1.187L45.432,44Zm-1.993,6,.722.722-1.082.36ZM70.087,21.7a3.59,3.59,0,0,1,0,5.07l-.025.026-5.071-5.071.026-.025a3.591,3.591,0,0,1,5.064,0ZM47.9,35.566H24.955a10.867,10.867,0,0,1,1.836-2.295H46.639a10.036,10.036,0,0,1,1.62,1.937ZM43.453,2.546l1.216.27c-.357,3.966-2.017,6.363-4.515,6.363A2.032,2.032,0,0,1,38.06,7.888,6.9,6.9,0,0,0,43.453,2.546Zm-6.74,3.191a4.59,4.59,0,0,1-4.426-3.442h8.852A4.59,4.59,0,0,1,36.713,5.736ZM35.366,7.888a2.029,2.029,0,0,1-2.095,1.291c-2.5,0-4.158-2.4-4.515-6.363l1.216-.27A6.9,6.9,0,0,0,35.366,7.888ZM23.051,15.175a29.454,29.454,0,0,0,1.042-8.291H21.8c0,7.882-2.243,11.118-3.35,12.236L14.92,15.593A12.84,12.84,0,0,1,21.052,4.528L26.5,3.316c.561,5.022,3.1,8.157,6.769,8.157a4.324,4.324,0,0,0,3.442-1.486,4.324,4.324,0,0,0,3.442,1.486c3.671,0,6.208-3.136,6.769-8.157l5.45,1.212a12.963,12.963,0,0,1,6.134,11.066l-3.524,3.526c-1.121-1.129-3.356-4.369-3.356-12.235H49.333a29.454,29.454,0,0,0,1.042,8.291,84.2,84.2,0,0,0-2.119,14.7,1.16,1.16,0,0,1-1.147,1.1h-20.8a1.16,1.16,0,0,1-1.147-1.1,84.2,84.2,0,0,0-2.114-14.7ZM23.7,37.86H45.61l-.623.623.01.009a1.125,1.125,0,0,0-.287.439l-3.088,9.254H20.428A45.1,45.1,0,0,1,23.7,37.86ZM55.069,71.131H18.356c.014-2.435.077-4.735.181-6.884H54.884C54.989,66.4,55.052,68.7,55.069,71.131ZM71.131,60.806a1.148,1.148,0,0,1-1.147,1.147H3.442a1.148,1.148,0,0,1-1.147-1.147V59.659H68.836V57.364H2.295V51.628A1.148,1.148,0,0,1,3.442,50.48H6.884v3.442H9.178V50.48H12.62v5.736h2.295V50.48h3.442v3.442h2.295V50.48h3.442v5.736h2.295V50.48h3.442v3.442h2.295V50.48h3.442v5.736H37.86V50.48H41.3v3.442H43.6V50.48h3.442v5.736h2.295V50.48h3.442v3.442h2.295V50.48h3.442v5.736h2.295V50.48h3.442v3.442h2.295V50.48h3.442a1.148,1.148,0,0,1,1.147,1.147Z" transform="translate(0 0)"/>
  </g>
</svg>
