<svg xmlns="http://www.w3.org/2000/svg" width="67.243" height="74.717" viewBox="0 0 67.243 74.717">
  <g id="modista_4_" data-name="modista (4)" transform="translate(0 0)">
    <path id="Trazado_778094" data-name="Trazado 778094" d="M38.7,23.245l24.116,10.05-.456,1.158H42.434V33.208l-16.251-6.5L25,22H38.7Z" transform="translate(2.394 5.394)" fill="#efa53a"/>
    <path id="Trazado_778095" data-name="Trazado 778095" d="M49.245,15,48,16.245v7.472l1.245,1.245h3.736a2.5,2.5,0,0,0,2.491-2.491V17.491A2.5,2.5,0,0,0,52.981,15Z" transform="translate(8.036 3.677)" fill="#d3953b"/>
    <path id="Trazado_778096" data-name="Trazado 778096" d="M24.736,24.962H55.868V15H21Z" transform="translate(1.413 3.677)" fill="#fdc64e"/>
    <path id="Trazado_778097" data-name="Trazado 778097" d="M17.444,52.981h-3.86a1.245,1.245,0,0,0-1.151.769L9.775,60.164a2.491,2.491,0,0,1-4.6-1.9l2.974-7.184A4.981,4.981,0,0,1,12.761,48h4.682Z" transform="translate(-2.503 11.772)" fill="#8f5f4d"/>
    <path id="Trazado_778098" data-name="Trazado 778098" d="M17,52.981h3.86a1.245,1.245,0,0,1,1.151.769l2.658,6.415a2.491,2.491,0,0,0,4.6-1.9L26.29,51.076A4.981,4.981,0,0,0,21.682,48H17Z" transform="translate(0.432 11.772)" fill="#8f5f4d"/>
    <path id="Trazado_778099" data-name="Trazado 778099" d="M18.981,43V60.434a2.491,2.491,0,1,1-4.981,0V43Z" transform="translate(-0.304 10.546)" fill="#824f40"/>
    <path id="Trazado_778100" data-name="Trazado 778100" d="M33.762,48.321c.05.535.087,1.021.112,1.445A3.1,3.1,0,0,1,31.806,52.9c-2.1.772-6,1.644-12.863,1.644S8.18,53.676,6.076,52.9a3.1,3.1,0,0,1-2.068-3.138c.4-6.177,2.483-25.13,8.71-35.068,0,0-2.491-5.081-2.491-8.53a5.23,5.23,0,0,1,8.717-3.836,5.23,5.23,0,0,1,8.717,3.836c0,3.449-2.491,8.53-2.491,8.53,3.86,6.152,6.129,15.765,7.387,23.661Z" transform="translate(-2.757 0.243)" fill="#e8e8f2"/>
    <path id="Trazado_778101" data-name="Trazado 778101" d="M27.226,31l1.245,1.245v7.472l-1.245,1.245H23.491A2.5,2.5,0,0,1,21,38.472V33.491A2.5,2.5,0,0,1,23.491,31Z" transform="translate(1.413 7.602)" fill="#d3953b"/>
    <path id="Trazado_778102" data-name="Trazado 778102" d="M63.359,32.245v7.472a1.245,1.245,0,0,1-1.245,1.245H26V31H62.113A1.245,1.245,0,0,1,63.359,32.245Z" transform="translate(2.639 7.602)" fill="#fdc64e"/>
    <g id="Grupo_1065258" data-name="Grupo 1065258" transform="translate(0 0)">
      <path id="Trazado_778103" data-name="Trazado 778103" d="M64.019,47.321a1.245,1.245,0,0,0,0,2.491h3.736a2.491,2.491,0,0,0,2.491-2.491V39.849a2.491,2.491,0,0,0-1.557-2.305L50.321,29.887h13.7a3.736,3.736,0,0,0,3.736-3.736V21.17a3.736,3.736,0,0,0-3.736-3.736H28.191c-.428-.9-.883-1.758-1.362-2.569a24.308,24.308,0,0,0,2.322-8.452,6.483,6.483,0,0,0-9.962-5.4,6.483,6.483,0,0,0-9.962,5.4,24.336,24.336,0,0,0,2.325,8.453C4.582,26.639,3.073,48.97,3.012,49.921a4.351,4.351,0,0,0,2.879,4.4,33.273,33.273,0,0,0,9.561,1.626v2.585h-2.2A6.207,6.207,0,0,0,7.5,62.373L4.529,69.558a3.736,3.736,0,0,0,6.9,2.857L14.083,66h1.37v4.981a3.736,3.736,0,1,0,7.472,0V66h1.37l2.656,6.413a3.732,3.732,0,1,0,6.9-2.857l-2.973-7.182a6.205,6.205,0,0,0-5.752-3.847h-2.2V55.943a33.272,33.272,0,0,0,9.549-1.619,4.351,4.351,0,0,0,2.893-4.388.588.588,0,0,0-.009-.125h23.68a1.245,1.245,0,0,0,0-2.491H32.887V39.849h3.736V42.34a1.245,1.245,0,1,0,2.491,0V39.849h3.736V42.34a1.245,1.245,0,1,0,2.491,0V39.849h3.736V42.34a1.245,1.245,0,1,0,2.491,0V39.849H55.3V42.34a1.245,1.245,0,1,0,2.491,0V39.849h3.736V42.34a1.245,1.245,0,1,0,2.491,0V39.849h3.736v7.472Zm-2.242-9.962H48.07L32.661,31.2c-.1-.435-.2-.872-.3-1.309H43.845Zm-27.917,0c-.174-1.039-.374-2.117-.585-3.238l8.094,3.238Zm31.4-16.189v4.981A1.245,1.245,0,0,1,64.019,27.4H61.528V19.924h2.491A1.245,1.245,0,0,1,65.264,21.17ZM34.132,19.924v2.491a1.245,1.245,0,1,0,2.491,0V19.924h3.736v2.491a1.245,1.245,0,1,0,2.491,0V19.924h3.736v2.491a1.245,1.245,0,1,0,2.491,0V19.924h3.736v2.491a1.245,1.245,0,1,0,2.491,0V19.924h3.736V27.4H31.728a65.647,65.647,0,0,0-2.453-7.472ZM14.083,63.51a2.479,2.479,0,0,0-2.3,1.537l-2.66,6.418a1.245,1.245,0,0,1-1.619.666,1.227,1.227,0,0,1-.667-.667,1.253,1.253,0,0,1,0-.954L9.81,63.326a3.723,3.723,0,0,1,3.444-2.306h2.2V63.51Zm11.039-2.491a3.722,3.722,0,0,1,3.451,2.308l2.973,7.18a1.254,1.254,0,0,1,0,.956,1.227,1.227,0,0,1-.667.667,1.245,1.245,0,0,1-1.626-.669l-2.659-6.416a2.478,2.478,0,0,0-2.3-1.537h-1.37V61.019Zm-4.689,9.962a1.245,1.245,0,1,1-2.491,0V56.028c.4.006.818.01,1.245.01s.841,0,1.245-.01ZM32.887,50.1a1.842,1.842,0,0,1-1.255,1.879c-1.954.715-5.695,1.568-12.443,1.568S8.7,52.694,6.735,51.975A1.838,1.838,0,0,1,5.49,50.092c.557-8.65,2.977-25.644,8.519-34.487a1.245,1.245,0,0,0,.062-1.208c-.024-.05-2.366-4.868-2.366-7.984A3.985,3.985,0,0,1,18.344,3.5a1.245,1.245,0,0,0,1.671,0A3.985,3.985,0,0,1,26.66,6.413c0,3.113-2.34,7.934-2.366,7.984a1.245,1.245,0,0,0,.064,1.208C28,21.4,30.134,30.369,31.331,37.359H28.06a61.2,61.2,0,0,0-2.72-11.631A1.245,1.245,0,1,0,23,26.574a59.457,59.457,0,0,1,2.656,11.558,3.718,3.718,0,0,0-1.486,2.963v4.981a3.736,3.736,0,0,0,3.736,3.736h4.956c.006.1.015.2.025.289ZM30.4,47.321H27.905a1.245,1.245,0,0,1-1.245-1.245V41.094a1.245,1.245,0,0,1,1.245-1.245H30.4Z" transform="translate(-3.002 -0.002)" fill="#373737"/>
      <path id="Trazado_778104" data-name="Trazado 778104" d="M13.4,20.075a1.238,1.238,0,0,0-1.593.747C10.429,24.66,8.648,31.726,8,43.592a1.245,1.245,0,0,0,1.177,1.314.651.651,0,0,0,.068,0,1.245,1.245,0,0,0,1.245-1.177c.629-11.566,2.34-18.382,3.664-22.062a1.245,1.245,0,0,0-.751-1.593Z" transform="translate(-1.776 4.904)" fill="#373737"/>
      <path id="Trazado_778105" data-name="Trazado 778105" d="M16.245,20A1.245,1.245,0,0,0,15,21.245V43.661a1.245,1.245,0,1,0,2.491,0V21.245A1.245,1.245,0,0,0,16.245,20Z" transform="translate(-0.059 4.904)" fill="#373737"/>
    </g>
  </g>
</svg>
