<svg xmlns="http://www.w3.org/2000/svg" width="35.933" height="77" viewBox="0 0 35.933 77">
  <g id="_19-Mannequin" data-name="19-Mannequin" transform="translate(-18 -2)">
    <path id="Trazado_774606" data-name="Trazado 774606" d="M52.367,13.662a2.345,2.345,0,0,1-.555,1.508,19.613,19.613,0,0,0-4.579,12.213c0,7.7,3.85,10.267,3.85,16.683h0a2.567,2.567,0,0,1-2.567,2.567H22.85a2.567,2.567,0,0,1-2.567-2.567h0c0-6.417,3.85-8.983,3.85-16.683A19.613,19.613,0,0,0,19.555,15.17,2.345,2.345,0,0,1,19,13.662h0a2.329,2.329,0,0,1,1.593-2.21l8.2-2.734A2.567,2.567,0,0,0,30.55,6.283v-2A1.283,1.283,0,0,1,31.833,3h7.7a1.283,1.283,0,0,1,1.283,1.283v2a2.567,2.567,0,0,0,1.755,2.435l8.2,2.734A2.329,2.329,0,0,1,52.367,13.662Z" transform="translate(0.283 0.283)" fill="#baefe4"/>
    <path id="Trazado_774607" data-name="Trazado 774607" d="M51.531,15.166A19.624,19.624,0,0,0,46.95,27.383c0,7.7,3.85,10.267,3.85,16.683a2.585,2.585,0,0,1-2.567,2.567H22.567A2.574,2.574,0,0,1,20,44.067c0-.449.013-.873.051-1.283H37.5a5.137,5.137,0,0,0,4.774-7.033,21.207,21.207,0,0,1-1.745-8.367A17.009,17.009,0,0,1,44.612,16.03a2.324,2.324,0,0,0-1.039-3.709L37.158,9.542A2.579,2.579,0,0,1,35.4,7.1V4.283A1.287,1.287,0,0,0,34.117,3H39.25a1.287,1.287,0,0,1,1.283,1.283v2a2.579,2.579,0,0,0,1.758,2.438l8.2,2.734a2.324,2.324,0,0,1,1.039,3.709Z" transform="translate(0.567 0.283)" fill="#fff"/>
    <rect id="Rectángulo_362063" data-name="Rectángulo 362063" width="6" height="26" transform="translate(33 47)" fill="#757575"/>
    <path id="Trazado_774608" data-name="Trazado 774608" d="M35.133,37V62.667H32.567V42.133A2.567,2.567,0,0,0,30,39.567h0V37Z" transform="translate(3.4 9.917)" fill="#616161"/>
    <path id="Trazado_774609" data-name="Trazado 774609" d="M24.85,57H45.383a3.85,3.85,0,0,1,3.85,3.85v1.283H21V60.85A3.85,3.85,0,0,1,24.85,57Z" transform="translate(0.85 15.583)" fill="#9e9e9e"/>
    <path id="Trazado_774610" data-name="Trazado 774610" d="M49.233,60.85v1.283H21V60.85a3.557,3.557,0,0,1,.231-1.283H38.967A3.809,3.809,0,0,0,42.586,57h2.8a3.845,3.845,0,0,1,3.85,3.85Z" transform="translate(0.85 15.583)" fill="#757575"/>
    <path id="Trazado_774611" data-name="Trazado 774611" d="M53.933,13.945a3.608,3.608,0,0,0-2.47-3.426l-8.2-2.734a1.283,1.283,0,0,1-.878-1.218v-2A2.57,2.57,0,0,0,39.817,2h-7.7A2.57,2.57,0,0,0,29.55,4.567v2a1.283,1.283,0,0,1-.877,1.218l-8.2,2.733a3.612,3.612,0,0,0-1.615,5.76,18.26,18.26,0,0,1,4.279,11.388,21.223,21.223,0,0,1-1.963,8.673,20.071,20.071,0,0,0-1.887,8.011,3.854,3.854,0,0,0,3.85,3.85h8.983V71.3H25.7a5.139,5.139,0,0,0-5.133,5.133v1.283A1.283,1.283,0,0,0,21.85,79H50.083a1.283,1.283,0,0,0,1.283-1.283V76.433A5.139,5.139,0,0,0,46.233,71.3H39.817V48.2H48.8a3.854,3.854,0,0,0,3.85-3.85,20.071,20.071,0,0,0-1.887-8.011A21.222,21.222,0,0,1,48.8,27.667a18.255,18.255,0,0,1,4.279-11.388,3.645,3.645,0,0,0,.854-2.334ZM48.8,76.433H23.133A2.57,2.57,0,0,1,25.7,73.867H46.233A2.57,2.57,0,0,1,48.8,76.433ZM37.25,71.3H34.683V48.2H37.25ZM51.112,14.629a20.87,20.87,0,0,0-4.879,13.038A23.688,23.688,0,0,0,48.382,37.3a17.482,17.482,0,0,1,1.7,7.055A1.284,1.284,0,0,1,48.8,45.633H23.133A1.284,1.284,0,0,1,21.85,44.35a17.482,17.482,0,0,1,1.7-7.055A23.688,23.688,0,0,0,25.7,27.667a20.874,20.874,0,0,0-4.878-13.038,1.046,1.046,0,0,1,.459-1.677l8.2-2.733a3.845,3.845,0,0,0,2.632-3.652v-2h7.7v2a3.845,3.845,0,0,0,2.633,3.652l8.2,2.734a1.047,1.047,0,0,1,.461,1.677Z" transform="translate(0)"/>
  </g>
</svg>
