<svg xmlns="http://www.w3.org/2000/svg" xmlns:xlink="http://www.w3.org/1999/xlink" width="258.959" height="223.237" viewBox="0 0 258.959 223.237">
  <defs>
    <clipPath id="clip-path">
      <rect id="Rectángulo_362250" data-name="Rectángulo 362250" width="275.394" height="68.13" fill="none"/>
    </clipPath>
  </defs>
  <g id="Grupo_1065177" data-name="Grupo 1065177" transform="translate(-324.251 -739.292)">
    <g id="Grupo_1065162" data-name="Grupo 1065162" transform="translate(1.755 -34.078)">
      <path id="Trazado_100521" data-name="Trazado 100521" d="M103.783,434.588C-27.656,429.281,22.1,639.336,174.577,629.536S211.6,438.946,103.783,434.588Z" transform="translate(308.966 357.72)" fill="#fff"/>
    </g>
    <g id="Grupo_1065176" data-name="Grupo 1065176" transform="matrix(-0.788, 0.616, -0.616, -0.788, 583.21, 792.979)">
      <g id="Grupo_1065175" data-name="Grupo 1065175" clip-path="url(#clip-path)">
        <path id="Trazado_777872" data-name="Trazado 777872" d="M284.912,40.892a10.7,10.7,0,0,0-.287-1.08c-1.247-3.485-3.71-4.79-7.2-3.681-1.587.5-3.084,1.4-3.371,3.26-.54,3.535,1.542,6.659,5.9,6.757a19.482,19.482,0,0,0,2.275-.446c2.344-.695,3.276-2.417,2.683-4.81m-101.546-22.8a4.158,4.158,0,0,0,.875.147c4.634.4,9.285.233,13.924.446.413.02.822.033,1.235.041,1.235.029,2.475.029,3.706.045,0-.016,0-.029,0-.045,1.5.016,2.994.078,4.491.049a134.088,134.088,0,0,1,20.861.81,15.807,15.807,0,0,0,2.242.033c.123,0,.241-.123.364-.193-.123-.07-.245-.2-.376-.209-2.679-.245-5.359-.507-8.038-.708-1.718-.13-3.444-.22-5.166-.225-1.591,0-3.174-.193-4.765-.266a20.62,20.62,0,0,0-2.192-.008c-1.493.085-3,.074-4.5.024-6.664-.213-13.323-.593-19.991-.568-.9,0-1.791-.021-2.687,0-.082,0-.229.2-.225.3a.428.428,0,0,0,.233.327M182.2,28.559a41.391,41.391,0,0,0-.323-7.359,2.053,2.053,0,0,0-.467-1.456.72.72,0,0,0-.4-.1.2.2,0,0,0-.144.122,4.241,4.241,0,0,0-.065.875,45.286,45.286,0,0,0,1.4,7.915M180,33.6a.338.338,0,0,0-.115-.56.643.643,0,0,0-.434-.061,1.258,1.258,0,0,0-.581.286,4.756,4.756,0,0,0-1.227,2.365,42.4,42.4,0,0,0-.63,10.975c.054,1.87.1,3.742.16,5.616a3.5,3.5,0,0,0,.425,1.726.835.835,0,0,0,.933.45.614.614,0,0,0,.511-.634c.033-.675.049-1.35.037-2.025-.09-4.5-.409-8.995-.332-13.5.029-1.673-.024-3.317,1.252-4.639m100.659-3.207c.315-.04.875.152.867-.3,0-.319-.589-.388-.949-.429-1.342-.148-2.687-.25-4.03-.385a9.924,9.924,0,0,0-2.634.09,11.564,11.564,0,0,0-3.448,1.194c-1.19.621-2.364,1.28-3.555,1.906A23.855,23.855,0,0,0,259.6,37.98a11.669,11.669,0,0,1-1.615,1.567,82.135,82.135,0,0,0-7.56,7.4c-1.82,1.889-3.665,3.763-5.494,5.649a6.153,6.153,0,0,1-3.129,2.115c-2.271.4-4.528,1.121-6.892.744a6.15,6.15,0,0,0-1.342.029c-1.648.11-3.292.315-4.941.336-2.45.029-4.9.081-7.354.139-9.711.225-19.422.573-29.141.335-5.4-.135-10.8-.266-16.178-.785-1.718-.164-3.441-.282-5.162-.4a.586.586,0,0,0-.679.434A.893.893,0,0,0,170.7,56.6a3.05,3.05,0,0,0,.663.122c3.145.192,6.234.953,9.4.97,1.2.008,2.4.118,3.591.225,2.418.213,4.831.528,7.252.688.348.02.691.041,1.039.057,3.3.156,6.6.156,9.9.135a16.956,16.956,0,0,0,4.483-.348c.9-.249,1.763-.928,2.651,0a32.1,32.1,0,0,0,3.816-.147,26.949,26.949,0,0,1,3.579-.254c3.076-.061,6.148-.164,8.623-.233a56.941,56.941,0,0,1,9.351-.548,23.507,23.507,0,0,0,16.125-5.882c1.419-1.219,2.663-2.643,4-3.956,3.1-3.039,5.543-6.68,8.889-9.51a53.229,53.229,0,0,1,5.3-4.169,18.651,18.651,0,0,1,7.715-2.937c1.19-.159,2.385-.261,3.575-.413M166.95,54.46c-3.305-.209-6.541-.912-9.809-1.391-3.338-.487-6.671-1-9.977-1.726q-.589-.129-1.178-.245c-1.812-.356-3.641-.638-5.432-1.117-.646-.176-1.325-.25-1.988-.368a.172.172,0,0,1-.009.045c-.147-.02-.294-.057-.445-.065-.307-.012-.782-.425-.871.082-.053.307.524.429.888.54,1.439.429,2.867.888,4.3,1.326.495.151.982.319,1.477.461.3.086.6.164.9.221q9.289,1.755,18.587,3.452c.388.07.778.131,1.166.188,1.17.168,2.348.287,3.517.426a.555.555,0,0,0,.679-.434c.078-.384.073-.814-.307-.99a4.388,4.388,0,0,0-1.5-.4M140.7,20.574c3.951-.474,7.911-.928,11.862-1.4,1.416-.168,2.822-.421,4.242-.548,2.25-.2,4.5-.307,6.762-.373,2.462-.069,4.934-.094,7.4-.135,3.076-.057,6.152-.04,9.228-.061.225,0,.462-.07.434-.351-.008-.094-.18-.213-.3-.25a7.762,7.762,0,0,0-2.483-.368c-.135,0-.27,0-.4.008-3.452.106-6.9.18-10.353.295-.744.024-1.489.164-2.233.241a11.666,11.666,0,0,1-1.3.122h-.033c-4.053-.07-8.1-.155-11.858-.229-.671.02-1.047.02-1.419.041-2.921.155-5.841.355-8.766.45a31.129,31.129,0,0,0-5.576.634c-1.174.245-2.364.417-3.53.691a31.316,31.316,0,0,0-3.452.99,10.911,10.911,0,0,0-3.78,2.707.324.324,0,0,0-.065.2.822.822,0,0,0,.38.131,6.268,6.268,0,0,0,.654-.147c4.491-.88,8.942-1.968,13.49-2.52.369-.045.732-.09,1.1-.131M67.4,21.609c1.5.463,2.986,1.01,4.507,1.4a39.591,39.591,0,0,1,7.711,2.343,2.537,2.537,0,0,0,.65.193c3.039.569,5.87,1.824,8.8,2.732,3.305,1.019,6.639,1.882,9.973,2.765.434.115.883.152,1.342.225.663-.143,1.329-.266,1.976-.446a.834.834,0,0,0,.458-.426c.115-.257-.135-.372-.323-.479a18.621,18.621,0,0,0-3.653-1.1c-4.954-1.5-9.9-3.039-14.84-4.577-9.384-2.917-18.694-6.074-28.188-8.635C48.2,13.555,40.636,11.351,33.048,9.227c-1.374-.384-2.761-.716-4.14-1.071-.221-.054-.442-.094-.663-.131-.192-.033-.446-.143-.446.188,0,.094.184.233.311.279,3.047,1.064,6.09,2.127,9.146,3.162Q48.67,15.524,60.09,19.359c2.418.806,4.872,1.5,7.306,2.25m48.918,5.355c-.217.07-.421.159-.634.238-2.479.9-4.994,1.709-7.494,2.568-2.327.793-4.635,1.632-6.888,2.63-1.06.47-2.2.372-3.248.826-1.374.594-2.818,1.032-4.23,1.534-1.006.356-2.013.712-3.014,1.076-10.3,3.706-20.473,7.731-30.7,11.617-4.974,1.889-9.874,3.992-14.963,5.575-.646.2-1.26.5-1.893.729a.959.959,0,0,0-.372.25,1.4,1.4,0,0,0-.241.36c.638-.18,1.28-.344,1.91-.535,4.806-1.468,9.625-2.9,14.415-4.43,8.795-2.8,17.613-5.518,26.53-7.891,6.324-1.681,12.685-3.227,18.984-4.99q2.362-.663,4.712-1.37c1.939-.589,3.857-1.244,5.813-1.759a2.935,2.935,0,0,0,2.348-2.9c.065-.749.094-1.5.233-2.238.3-1.6.18-1.75-1.268-1.284M168.026,57.2q-1.785-.271-3.579-.516c-1.628-.229-3.26-.446-4.892-.666a.325.325,0,0,0-.286.573,2.968,2.968,0,0,1,1.047,2.148,4.536,4.536,0,0,1-1.2,3.076,3.91,3.91,0,0,1-5.44.229,5.562,5.562,0,0,1-1.485-3.432,2.756,2.756,0,0,1,.99-2.622,1.129,1.129,0,0,0,.148-.168c.327-.45.176-.81-.413-.953-.217-.053-.446-.07-.663-.118-2.863-.626-5.763-1.121-8.578-1.9-.143-.033-.282-.074-.425-.115a79.882,79.882,0,0,1-11.089-3.71,6.318,6.318,0,0,0-1.284-.4.461.461,0,0,0-.585.5c.025.519.115,1.039.188,1.558a22.464,22.464,0,0,1,.233,5.616c-.241,2.238-.593,4.463-.92,6.688-.172,1.17-.115,1.281,1.076,1.4.446.049.9.074,1.346.094,2.7.131,5.4.245,8.1.393,1.722.09,3.445.27,5.166.331,2.25.082,4.5.061,6.757.127,3.825.11,7.649.258,11.478.388v.049c.9-.025,1.8-.045,2.7-.074a.992.992,0,0,0,.9-.557,17.675,17.675,0,0,0,1.918-6.43c.11-1.023-.127-1.337-1.207-1.505m-26.277,4.058a2.859,2.859,0,0,1-2.917-1.264c-.384-.553-.716-1.138-1.059-1.718a2.865,2.865,0,0,1,.466-3.853,4.9,4.9,0,0,1,2.977-1.435,2.332,2.332,0,0,1,1.084.147,4.6,4.6,0,0,1,2.871,3.784,4.546,4.546,0,0,1-3.423,4.34M126.741,9.391a69.075,69.075,0,0,1,.642,9.42c-.029.769.233.949.945.729a62.517,62.517,0,0,1,10.316-2.213,99.739,99.739,0,0,1,10.32-.658c3.6-.107,7.2,0,10.8-.038,3-.037,6-.143,9-.245,1.2-.04,1.452-.278,1.5-1.468.065-1.5.107-3,.058-4.5a19.277,19.277,0,0,0-.4-4.47c-1.19-4.291-.409-3.85-4.569-3.861-6.148-.021-12.3.07-18.448.114a.6.6,0,0,0,0-.086l-6.97.2q-3.6.1-7.2.193c-2.1.057-4.2.1-6.3.175-.794.033-.9.22-.761.974.369,1.91.871,3.813,1.064,5.739m21.508-.933a3.586,3.586,0,0,1,1.612-2.332,5.1,5.1,0,0,1,3.5-.409c1.346.335,1.947,1.538,2.311,2.806a4.19,4.19,0,0,1,.1.929c.008.262.016.335.012.409-.082,1.5-.479,2.831-2.017,3.456a3.912,3.912,0,0,1-4.376-.8,3.57,3.57,0,0,1-1.137-4.058m-18.17,1.726a11.533,11.533,0,0,1,.863-2.307,3.044,3.044,0,0,1,2.716-1.718c.372-.016.749-.02.794-.02,1.747-.148,3.027.061,3.866,1.4a5.473,5.473,0,0,1,.9,4.9,8.052,8.052,0,0,1-.823,1.6,2.826,2.826,0,0,1-2.441,1.4,5.966,5.966,0,0,1-5.388-2.68,3.1,3.1,0,0,1-.483-2.577" transform="translate(-16.428 -1.228)" fill="#ae9988"/>
        <path id="Trazado_777873" data-name="Trazado 777873" d="M399.826,92.586q.092,6.081.2,12.157a5.359,5.359,0,0,0,.054.674c.11.8.331,1.048,1.133,1.109,1.2.09,2.4.135,3.6.18,1.1.04,1.264-.106,1.288-1.3.045-2.4.058-4.8.086-6.946a43.176,43.176,0,0,1-.012-6.786,6.048,6.048,0,0,0-.041-1.121.664.664,0,0,0-.724-.683,11.128,11.128,0,0,0-1.559.16,4.345,4.345,0,0,1-1.558.094c-.7-.114-1.444-.839-2.091-.168-.54.565-.241,1.444-.351,2.176a2.325,2.325,0,0,0-.021.45" transform="translate(-236.277 -52.996)" fill="#afb1a4"/>
        <path id="Trazado_777874" data-name="Trazado 777874" d="M411.329,60.27a10.989,10.989,0,0,0,.941-4.36c-.053-1.5-.086-2.994-.127-4.492h.033c-.028-1.046-.037-2.094-.09-3.141-.209-4,.155-3.718-4.07-4.156-.875-.085-1.088.123-1.059.989.1,2.844.27,5.686.31,8.534.037,2.385.262,4.79-.49,7.129-.184.577.025.847.605.92.442.053.9.066,1.342.1,1.505.114,2.094-.181,2.606-1.522" transform="translate(-240.347 -26.063)" fill="#afb1a4"/>
        <path id="Trazado_777875" data-name="Trazado 777875" d="M330.044,16.764a4.029,4.029,0,0,0-.2-1.992,2.325,2.325,0,0,0-2.45-1.886,2.845,2.845,0,0,0-2.79,1.865,3.011,3.011,0,0,0,3.112,4.029,2.268,2.268,0,0,0,2.323-2.017" transform="translate(-191.72 -7.615)" fill="#afb1a4"/>
        <path id="Trazado_777876" data-name="Trazado 777876" d="M288.7,16.463a2.52,2.52,0,0,0-2.769-1.69c-2.016-.04-2.928.781-3.068,2.491a3.852,3.852,0,0,0,2.774,4.3,2.259,2.259,0,0,0,2.622-.687,3.993,3.993,0,0,0,.442-4.409" transform="translate(-167.144 -8.713)" fill="#afb1a4"/>
        <path id="Trazado_777877" data-name="Trazado 777877" d="M302.83,130.188a5.817,5.817,0,0,0-2.127-.65,2.5,2.5,0,0,0-2.209,1.329,1.809,1.809,0,0,0,.1,2.111c.409.622.839,1.239,1.305,1.825a1.4,1.4,0,0,0,1.4.524,3.215,3.215,0,0,0,2.54-3.215,2.141,2.141,0,0,0-1.01-1.923" transform="translate(-176.221 -76.547)" fill="#afb1a4"/>
        <path id="Trazado_777878" data-name="Trazado 777878" d="M338.95,134.479a5.473,5.473,0,0,0-1.186-.622,2.438,2.438,0,0,0-3.117,1.755,3.986,3.986,0,0,0,.835,3.166,2.2,2.2,0,0,0,1.873.97,3.115,3.115,0,0,0,3.015-2.3c.278-1.235-.094-2.119-1.42-2.974" transform="translate(-197.73 -79.034)" fill="#afb1a4"/>
        <path id="Trazado_777879" data-name="Trazado 777879" d="M122.766,93.684c-1.223-.733-2.377-1.579-3.608-2.3a16.506,16.506,0,0,1-4.577-4.569,12.943,12.943,0,0,1-1.746-4.348c-.508-1.665-.646-1.747-2.34-1.44-.22.04-.434.106-.654.164-2.831.733-5.665,1.444-8.488,2.2-.528.143-1.051.286-1.57.437-1.571.451-3.13.925-4.708,1.346-6.451,1.718-12.918,3.379-19.364,5.121q-5.645,1.522-11.241,3.236c-4.233,1.3-8.41,2.778-12.64,4.083-8.962,2.761-17.871,5.69-26.9,8.238-1.722.487-3.432,1.027-5.142,1.554-.114.037-.188.217-.278.328.094.074.184.209.282.216,3.285.291,6.569.622,9.858.83,4.041.258,8.091.438,12.136.606,5.849.245,11.7.487,17.553.663,4.5.135,9.011.041,13.507.27,4.356.22,8.708.045,13.057.192,3.624.082,7.248.013,10.873-.024,2.831-.029,5.665-.037,8.5.061,5.551.192,11.11.172,16.665.246,1.284.016,1.574-.176,1.959-1.371a7.67,7.67,0,0,0,.315-1.313q.356-2.565.663-5.138a23.547,23.547,0,0,0-.777-7.575,2.529,2.529,0,0,0-1.329-1.71" transform="translate(-11.529 -47.798)" fill="#afb1a4"/>
        <path id="Trazado_777880" data-name="Trazado 777880" d="M34.314,11.614c4.332,1.223,8.647,2.507,12.975,3.755,6.348,1.825,12.73,3.514,19.013,5.567,4.92,1.608,9.887,3.085,14.8,4.713,5.13,1.7,10.4,2.891,15.556,4.5a7.292,7.292,0,0,0,4.712-.029c.11-.041.225-.082.34-.127,3.551-1.419,7.162-2.683,10.734-4.045a10.792,10.792,0,0,0,1.975-1.059c.884-.572,1.681-1.276,2.589-1.8a2.367,2.367,0,0,0,1.235-2.222,49.841,49.841,0,0,0-.2-7.2,49.537,49.537,0,0,0-.969-5.771c-.274-1.113-1.084-1.988-1.223-3.121-.065-.564-.3-.789-.842-.773-.753.02-1.506-.017-2.254.037-2.847.209-5.7.18-8.553.278-4.124.139-8.255.106-12.374.527-2.381.245-4.79.291-7.187.34-2.172.045-4.344-.077-6.512-.041-7.657.123-15.31.282-22.968.425v.02c-1.951.054-3.9.143-5.854.156-3.975.024-7.951-.029-11.923.016-6.455.074-12.905.4-19.364.295-.217,0-.491-.074-.728-.074a.49.49,0,0,0-.56.49c-.037.356.695.438,1.1.569.855.282,1.73.5,2.6.736,4.63,1.277,9.269,2.529,13.891,3.833" transform="translate(-9.885 -2.367)" fill="#afb1a4"/>
        <path id="Trazado_777881" data-name="Trazado 777881" d="M377.25,5.972c.135,2.319.172,4.646.245,6.971.029.973.045,1.947.094,2.92a.586.586,0,0,0,.552.6,8.354,8.354,0,0,0,.9.016c1.644-.033,3.289-.041,4.929-.037,2.184.008,4.365.037,6.548.061,6.757.07,13.5.479,20.26.569,2.7.033,5.4.143,8.1.282,5.019.262,10.051.327,15.062.826,2.838.282,5.706.335,8.524.756a192.174,192.174,0,0,1,20.993,3.992,15.6,15.6,0,0,1,7.023,3.8,18.144,18.144,0,0,1,2.933,3.1c.438.67.818.72,1.554.454.7-.253,1.408-.519,2.1-.81a13.126,13.126,0,0,1,2.806-.822,15.529,15.529,0,0,1,2.691-.225,25.425,25.425,0,0,1,9.449,1.8c.418.167.823.355,1.248.5.323.106.385-.192.385-.385a2.56,2.56,0,0,0-.144-.879,26.567,26.567,0,0,0-4.667-7.886,30.209,30.209,0,0,0-6.177-5.2,34.973,34.973,0,0,0-6.2-3.2,107.129,107.129,0,0,0-11.13-3.6,70.862,70.862,0,0,0-10.079-2.312c-3.411-.5-6.786-1.244-10.189-1.816a144.427,144.427,0,0,0-14.529-1.7c-6.856-.45-13.716-.736-20.58-.945q-3.43-.1-6.863-.18Q397.805,2.5,392.512,2.4v.065q-6.308-.049-12.611-.1c-.753,0-1.5-.029-2.254,0-1.071.033-1.186.2-.936,1.2a13.515,13.515,0,0,1,.54,2.41" transform="translate(-222.552 -1.388)" fill="#afb1a4"/>
        <path id="Trazado_777882" data-name="Trazado 777882" d="M493.358,81.032c-.2-.8-.389-1.608-.634-2.4a6.6,6.6,0,0,0-5.824-4.577,17.143,17.143,0,0,0-2.474-.033,27.123,27.123,0,0,0-14.1,5.959,113.772,113.772,0,0,0-11.327,11.273,33.9,33.9,0,0,1-5.522,4.949c-.916.646-1.98,1.109-2.831,1.828a9.313,9.313,0,0,1-3.825,1.772,32.807,32.807,0,0,1-5.776.887c-3.82.286-7.657.229-11.465.7-1.19.143-2.4.229-3.6.261-5.931.16-11.862.254-17.79.45-4.135.139-8.27-.012-12.385-.25-.3-.016-.585-.033-.88-.053-2.925-.176-5.853-.4-8.774-.634-2.32-.189-4.656-.156-6.962-.54-1.4-.237-2.823-.4-4.239-.581-1.039-.131-1.255.012-1.341.957a18.021,18.021,0,0,1-1.624,6.508.432.432,0,0,0,.353.659c.969.111,1.939.189,2.912.25,2.323.151,4.646.257,6.97.433s4.63.438,6.949.614c.856.065,1.715.123,2.573.18,3.035.2,6.078.36,9.105.683,4.266.458,8.545.531,12.82.638,5.628.139,11.261-.024,15.773-.049,4.72-.237,8.324-.323,11.923-.564,5.17-.344,10.341-.683,15.475-1.407,2.082-.29,4.151-.662,6.214-1.08,2.719-.548,5.489-.867,8.156-1.673,1.436-.437,2.876-.867,4.332-1.239a17.324,17.324,0,0,0,6.2-3.08,24.292,24.292,0,0,1,2.8-2.238,19.35,19.35,0,0,0,5.293-4.818,16.879,16.879,0,0,0,2.978-6.022c.736-2.3.22-4.757.67-7.1a1.743,1.743,0,0,0-.118-.663m-4.434,6.087a6.167,6.167,0,0,1-4.594,2.524c-.45.033-.9.094-1.342.143-3,.527-4.839-1.227-6.283-3.42a5.783,5.783,0,0,1,2.123-8.509,14.762,14.762,0,0,1,2.7-1.1,3.667,3.667,0,0,1,2-.082,8.651,8.651,0,0,1,6.078,4.561,5.242,5.242,0,0,1-.687,5.883" transform="translate(-219.79 -43.721)" fill="#afb1a4"/>
        <path id="Trazado_777883" data-name="Trazado 777883" d="M263.743,32.955a3.676,3.676,0,0,0-2,.082,14.777,14.777,0,0,0-2.7,1.1,5.783,5.783,0,0,0-2.124,8.509c1.445,2.192,3.281,3.946,6.284,3.419.446-.049.891-.11,1.341-.143a6.164,6.164,0,0,0,4.594-2.524,5.241,5.241,0,0,0,.687-5.882,8.65,8.65,0,0,0-6.078-4.561M265.8,44.474a19.477,19.477,0,0,1-2.274.446c-4.361-.1-6.443-3.223-5.9-6.757.286-1.861,1.783-2.757,3.371-3.261,3.493-1.108,5.956.2,7.2,3.681a10.929,10.929,0,0,1,.287,1.08c.593,2.393-.339,4.115-2.684,4.81m7.862-11.347a8.665,8.665,0,0,1-1.3-3.551c-.618-4.605-3.059-8.316-6.291-11.428a36.79,36.79,0,0,0-14.738-8.41c-1.288-.409-2.6-.74-3.874-1.19a92.613,92.613,0,0,0-12.414-3.2c-4.414-.884-8.873-1.526-13.315-2.254A174.882,174.882,0,0,0,202.238,1.2c-3.15-.164-6.308-.209-9.461-.315Q190.1.8,187.43.71,181.1.5,174.766.281c-3.825-.131-7.649.033-11.477-.115-4.5-.176-9.012-.176-13.515-.159-7.207.024-14.419.033-21.626.2C112.9.575,97.66,1.042,82.419,1.467a.8.8,0,0,0,0,.094c-.826.021-1.653.054-2.479.065-5.329.094-10.664.041-15.986.311-5.633.287-11.265.106-16.9.335-4.5.189-9.007.229-13.515.319-4.2.082-8.414.127-12.619.217q-6.768.134-13.535.3-2.921.067-5.846.139a6.545,6.545,0,0,0-1.317.209c-.1.02-.221.216-.229.34a.508.508,0,0,0,.188.38,4.662,4.662,0,0,0,.789.4C6.586,6.94,12.374,8.814,18.121,10.8c8.512,2.942,17.082,5.719,25.635,8.557,2.491.831,4.994,1.636,7.5,2.438,4.356,1.4,8.709,2.822,13.09,4.164,4.663,1.432,9.359,2.769,14.034,4.164a18.588,18.588,0,0,1,1.882.724.441.441,0,0,1,.184.36.456.456,0,0,1-.25.307c-2.017.806-4.021,1.661-6.07,2.389-10.333,3.665-20.542,7.661-30.777,11.58C35.068,48.647,26.7,51.53,18.268,54.255c-4.856,1.571-9.674,3.256-14.505,4.909-.986.336-1.538.892-1.338,1.268.319.589.933.683,1.509.8a4.186,4.186,0,0,0,.9.029c3.084-.07,6.148.29,9.224.45,5.772.3,11.547.544,17.319.826,2.471.123,4.941.147,7.416.356,2.835.241,5.7.151,8.553.18,2.479.025,4.958,0,7.432.033,2.327.033,4.651.126,6.974.184,3.15.077,6.3.171,9.449.208,3.375.037,6.757.123,10.128-.016q1.957-.08,3.922-.1c2.066-.025,4.135,0,6.205.074,3.829.123,7.662.324,11.49.27,6.087-.09,12.153.454,18.227.618q3.927.1,7.846.27c3.911.156,7.821.331,11.732.466,3.53.122,7.061.094,10.586.266,4.8.232,9.592.593,14.386.9,2.062.131,4.123.237,6.181.368,1.239.078,2.471.168,3.706.274,4.414.38,8.811.867,13.245,1.047q8.1.32,16.21.111,7.432-.2,14.857-.577A173.64,173.64,0,0,0,240.091,65.5a124.74,124.74,0,0,0,14.979-3.137,30.014,30.014,0,0,0,4.23-1.521,32.07,32.07,0,0,0,7.117-4.684,25.833,25.833,0,0,0,6.864-8.815,38.13,38.13,0,0,0,1.46-4.492,11.037,11.037,0,0,0-1.079-9.728M155.095.972c.753-.025,1.5,0,2.254,0q6.308.055,12.611.1V1.013q5.3.11,10.582.225,3.43.079,6.864.18c6.864.208,13.724.495,20.579.945a144.432,144.432,0,0,1,14.529,1.7c3.4.572,6.778,1.313,10.189,1.816a70.916,70.916,0,0,1,10.079,2.311,107.323,107.323,0,0,1,11.13,3.6,35,35,0,0,1,6.2,3.2,30.205,30.205,0,0,1,6.177,5.2,26.582,26.582,0,0,1,4.667,7.886,2.557,2.557,0,0,1,.143.879c0,.193-.061.49-.385.385-.425-.143-.83-.332-1.248-.5a25.425,25.425,0,0,0-9.449-1.8,15.578,15.578,0,0,0-2.692.224,13.141,13.141,0,0,0-2.806.822c-.691.291-1.395.557-2.1.81-.736.266-1.116.216-1.554-.454a18.124,18.124,0,0,0-2.933-3.1,15.6,15.6,0,0,0-7.023-3.8,192.174,192.174,0,0,0-20.993-3.992c-2.818-.421-5.686-.474-8.525-.756-5.011-.5-10.042-.564-15.061-.826-2.7-.139-5.4-.249-8.1-.282-6.757-.09-13.5-.5-20.26-.569-2.184-.025-4.365-.054-6.549-.061-1.64,0-3.285,0-4.929.036a8.158,8.158,0,0,1-.9-.016.586.586,0,0,1-.552-.6c-.049-.973-.065-1.947-.094-2.92-.073-2.324-.11-4.651-.245-6.971a13.475,13.475,0,0,0-.54-2.41c-.25-1-.135-1.169.937-1.2M128.38,51c-.3-.058-.6-.135-.9-.221-.495-.143-.982-.311-1.477-.462-1.435-.438-2.863-.9-4.3-1.325-.364-.111-.941-.234-.888-.54.09-.507.564-.094.871-.082.151.009.3.045.446.065a.171.171,0,0,0,.008-.045c.663.118,1.342.193,1.988.368,1.791.479,3.62.761,5.432,1.117q.59.116,1.178.245c3.305.728,6.638,1.239,9.976,1.726,3.268.479,6.5,1.183,9.809,1.391a4.389,4.389,0,0,1,1.5.405c.38.175.385.605.307.99a.554.554,0,0,1-.679.434c-1.17-.139-2.348-.258-3.518-.426-.388-.057-.777-.118-1.166-.188Q137.665,52.76,128.38,51m14.259,7.423a3.114,3.114,0,0,1-3.015,2.3,2.2,2.2,0,0,1-1.873-.97,3.986,3.986,0,0,1-.834-3.166,2.437,2.437,0,0,1,3.117-1.754,5.468,5.468,0,0,1,1.186.622c1.325.855,1.7,1.738,1.419,2.973m6.291-6.291c-4.9-.683-9.8-1.383-14.68-2.23-1.514-.265-3.027-.519-4.541-.805s-3.011-.6-4.5-.986a60.658,60.658,0,0,0-6.168-1.248,20.84,20.84,0,0,1-8.246-3.391c-1.2-.773-2.344-1.62-3.53-2.409a10.519,10.519,0,0,1-4.467-5.989,9.258,9.258,0,0,1,.732-7.809c.234-.376.364-.818.585-1.206a2.129,2.129,0,0,1,.969-.9,36.532,36.532,0,0,1,8.885-3.093c3.469-.642,6.9-1.5,10.406-1.885s7.023-.667,10.525-1.055c4.106-.459,8.221-.7,12.345-.929,4.647-.253,9.294-.388,13.944-.372.225,0,.45.013.675.025a1.047,1.047,0,0,1,1.108.908c.086.442.225.871.29,1.317.442,2.892.884,5.784,1.3,8.68.1.712,0,.92-.789,1.039-2.222.343-3.126,1.832-3.559,3.812a24.55,24.55,0,0,0-.659,5.126c-.016,3.526-.074,7.052.127,10.578.045.749.033,1.5,0,2.25-.053,1.387-.254,1.574-1.579,1.534-.151,0-.3-.025-.421-.033a75.865,75.865,0,0,1-8.75-.933m17.99-24.547c-.041-2.847-.213-5.69-.311-8.533-.029-.867.184-1.075,1.059-.99,4.225.438,3.861.156,4.07,4.156.053,1.048.061,2.095.09,3.141H171.8c.041,1.5.074,2.994.127,4.492a10.983,10.983,0,0,1-.941,4.36c-.511,1.341-1.1,1.636-2.606,1.522-.446-.033-.9-.045-1.342-.1-.581-.074-.789-.344-.605-.92.753-2.34.528-4.745.491-7.13m53.3-7.711c5.612.454,11.172,1.293,16.718,2.2A23.047,23.047,0,0,1,245.5,25.36c1.6,1,3.125,2.1,3.78,4.012.229.671.2.929-.372,1.346-1.272.924-2.606,1.771-3.841,2.748a72.642,72.642,0,0,0-6.226,5.858c-2.168,2.177-4.262,4.43-6.447,6.6a62.6,62.6,0,0,1-4.627,4.27,11.365,11.365,0,0,1-4.818,2.336,74.131,74.131,0,0,1-8.48,1.043c-3.407.324-6.819.614-9.641.712-1.26.04-2.405.049-3.379,0-6.765.029-11.719.1-16.673.054-3.149-.029-6.3-.221-9.445-.34-1.125-.042-2.25-.05-3.371-.127a1.13,1.13,0,0,1-1.174-1.125,12.561,12.561,0,0,1-.054-1.575c.041-3.976.094-7.956.131-11.932a8.508,8.508,0,0,1,.774-3.7,18.013,18.013,0,0,0,1.349-9.236c-.159-2.316-.27-4.635-.376-6.954-.037-.782.147-.994.847-1.031.9-.045,1.8-.049,2.7-.033l6.795.11q5.16.086,10.316.171c3.526.054,7.056.017,10.578.16,3.142.131,6.3.344,9.413.736,2.319.291,4.642.221,6.962.409m-3.735-1.341c.119-.045.241-.143.348-.131a5,5,0,0,1,.667.172l-.634.086c-.127-.04-.254-.086-.38-.127m-2.213-.143a15.741,15.741,0,0,1-2.241-.033,134.142,134.142,0,0,0-20.861-.81c-1.5.029-2.995-.033-4.492-.049,0,.016,0,.029,0,.045-1.231-.016-2.471-.016-3.706-.045-.413-.008-.822-.02-1.235-.04-4.638-.214-9.29-.042-13.924-.447a4.18,4.18,0,0,1-.875-.147.429.429,0,0,1-.234-.327c0-.1.143-.3.225-.3.9-.017,1.792.008,2.687,0,6.667-.025,13.327.355,19.991.568,1.5.049,3,.061,4.5-.024a20.729,20.729,0,0,1,2.192.008c1.592.074,3.174.262,4.766.266,1.722,0,3.448.094,5.166.225,2.679.2,5.359.463,8.038.708.131.013.254.139.376.208-.123.07-.241.193-.364.193M167.571,37.038a11.064,11.064,0,0,1,1.558-.16.664.664,0,0,1,.724.683,6.046,6.046,0,0,1,.041,1.121,43.276,43.276,0,0,0,.012,6.786c-.029,2.143-.04,4.545-.086,6.946-.025,1.191-.184,1.338-1.288,1.3-1.2-.045-2.4-.089-3.6-.18-.8-.061-1.023-.311-1.133-1.109a5.353,5.353,0,0,1-.054-.674q-.1-6.081-.2-12.157a2.391,2.391,0,0,1,.021-.45c.11-.733-.188-1.611.352-2.176.646-.671,1.391.054,2.09.168a4.348,4.348,0,0,0,1.558-.094m-4.921,13.47c.012.675,0,1.35-.037,2.025a.614.614,0,0,1-.511.634.835.835,0,0,1-.933-.45,3.506,3.506,0,0,1-.425-1.727c-.058-1.873-.106-3.746-.16-5.616a42.4,42.4,0,0,1,.63-10.975,4.761,4.761,0,0,1,1.227-2.365,1.262,1.262,0,0,1,.581-.286.643.643,0,0,1,.434.061.338.338,0,0,1,.115.56c-1.276,1.322-1.223,2.966-1.252,4.639-.078,4.5.241,9,.331,13.5m3.117-23.177a45.282,45.282,0,0,1-1.4-7.915,4.246,4.246,0,0,1,.066-.876.2.2,0,0,1,.143-.122.722.722,0,0,1,.4.1,2.053,2.053,0,0,1,.466,1.456,41.391,41.391,0,0,1,.323,7.359M153.68,54.312a.585.585,0,0,1,.679-.434c1.722.115,3.444.233,5.162.4,5.379.519,10.778.65,16.178.785,9.719.237,19.43-.11,29.141-.335,2.45-.058,4.9-.11,7.354-.139,1.649-.021,3.293-.225,4.941-.335a6.128,6.128,0,0,1,1.343-.029c2.364.376,4.622-.34,6.892-.744a6.15,6.15,0,0,0,3.13-2.115c1.828-1.885,3.673-3.759,5.493-5.648a82.138,82.138,0,0,1,7.56-7.4,11.669,11.669,0,0,0,1.615-1.567,23.855,23.855,0,0,1,7.314-5.514c1.19-.625,2.364-1.285,3.555-1.906a11.565,11.565,0,0,1,3.448-1.194,9.927,9.927,0,0,1,2.634-.09c1.342.135,2.687.237,4.029.385.36.04.945.11.949.429.009.455-.552.262-.867.3-1.19.152-2.385.254-3.575.413a18.652,18.652,0,0,0-7.714,2.937,53.233,53.233,0,0,0-5.3,4.169c-3.346,2.831-5.788,6.472-8.889,9.51-1.338,1.313-2.581,2.737-4,3.956a23.506,23.506,0,0,1-16.125,5.882,56.979,56.979,0,0,0-9.35.548c-2.475.07-5.547.172-8.623.233a26.877,26.877,0,0,0-3.579.254,32.1,32.1,0,0,1-3.816.147c-.888-.924-1.747-.245-2.651,0a16.973,16.973,0,0,1-4.483.347c-3.3.021-6.606.021-9.9-.135-.347-.016-.691-.037-1.039-.056-2.422-.16-4.835-.475-7.252-.688-1.194-.106-2.393-.216-3.592-.225-3.166-.017-6.254-.777-9.4-.97a3,3,0,0,1-.663-.122.892.892,0,0,1-.593-1.055M110.009,1.451c2.1-.074,4.2-.118,6.3-.176q3.6-.092,7.2-.193l6.97-.2a.607.607,0,0,1,0,.086c6.152-.045,12.3-.135,18.448-.115,4.16.012,3.379-.43,4.569,3.861a19.279,19.279,0,0,1,.4,4.471c.049,1.5.008,3-.058,4.5-.052,1.19-.307,1.428-1.5,1.468-3,.1-6,.209-8.995.245-3.6.042-7.2-.07-10.8.038a99.724,99.724,0,0,0-10.32.658A62.513,62.513,0,0,0,111.9,18.312c-.711.22-.974.041-.945-.729a69.079,69.079,0,0,0-.642-9.42c-.192-1.926-.695-3.829-1.064-5.739-.143-.753-.033-.941.761-.974m-.847,8.234a3.087,3.087,0,0,1,.115-.6c.061.212.118.421.159.569-.033.217-.053.36-.078.508-.278-.066-.192-.307-.2-.475m-.413-3.424a.87.87,0,0,1,.061.168.88.88,0,0,1,0,.18.545.545,0,0,1-.1-.176.41.41,0,0,1,.037-.172m-.037,15.552a10.911,10.911,0,0,1,3.78-2.707,31.385,31.385,0,0,1,3.452-.99c1.166-.274,2.356-.446,3.53-.691a31.092,31.092,0,0,1,5.575-.634c2.925-.094,5.845-.295,8.766-.45.372-.021.749-.021,1.42-.041,3.755.074,7.8.159,11.858.229h.033a11.674,11.674,0,0,0,1.3-.122c.744-.077,1.489-.217,2.233-.241,3.448-.115,6.9-.189,10.353-.295.135,0,.27-.008.4-.008a7.762,7.762,0,0,1,2.483.368c.118.037.29.155.3.25.029.282-.209.347-.433.351-3.076.021-6.152,0-9.229.062-2.466.04-4.937.065-7.4.135-2.258.065-4.512.172-6.762.372-1.419.127-2.826.38-4.242.548-3.951.47-7.911.924-11.862,1.4-.368.04-.732.086-1.1.131-4.549.552-9,1.64-13.49,2.52a6.165,6.165,0,0,1-.654.147.821.821,0,0,1-.38-.131.324.324,0,0,1,.065-.2m-.442-17.842c.029.139.057.274.082.413-.041.036-.082.073-.123.106a3.417,3.417,0,0,1-.073-.413c0-.029.073-.07.114-.106M7.94,4.678c-.4-.131-1.133-.213-1.1-.569a.49.49,0,0,1,.56-.491c.237,0,.511.07.728.074,6.459.1,12.91-.221,19.364-.295,3.972-.045,7.948.008,11.924-.016,1.951-.013,3.9-.1,5.853-.156v-.02c7.658-.143,15.311-.3,22.968-.425,2.168-.037,4.34.086,6.512.04,2.4-.049,4.806-.094,7.187-.34,4.119-.421,8.251-.388,12.374-.527,2.851-.1,5.706-.07,8.553-.278.748-.053,1.5-.017,2.254-.036.544-.017.777.208.842.772.139,1.133.949,2.008,1.223,3.121a49.627,49.627,0,0,1,.97,5.771,49.96,49.96,0,0,1,.2,7.2,2.368,2.368,0,0,1-1.236,2.222c-.908.523-1.706,1.227-2.589,1.8a10.768,10.768,0,0,1-1.975,1.059c-3.571,1.362-7.183,2.626-10.733,4.046-.115.045-.229.086-.34.127a7.294,7.294,0,0,1-4.713.029c-5.154-1.612-10.426-2.8-15.556-4.5-4.917-1.628-9.883-3.105-14.8-4.713C50.133,16.516,43.752,14.827,37.4,13c-4.328-1.248-8.643-2.532-12.975-3.755-4.622-1.3-9.26-2.557-13.891-3.833-.867-.237-1.743-.454-2.6-.736m64.7,22.371c-2.933-.908-5.763-2.163-8.8-2.732a2.521,2.521,0,0,1-.65-.193,39.579,39.579,0,0,0-7.711-2.343c-1.521-.389-3-.937-4.508-1.4-2.433-.753-4.888-1.444-7.305-2.25q-11.431-3.816-22.834-7.706c-3.056-1.034-6.1-2.1-9.146-3.161-.127-.046-.311-.185-.311-.279,0-.331.254-.22.446-.188.221.037.442.077.663.131,1.378.355,2.765.687,4.14,1.071,7.588,2.124,15.155,4.328,22.764,6.381,9.494,2.561,18.8,5.719,28.188,8.635,4.941,1.538,9.887,3.076,14.84,4.577a18.64,18.64,0,0,1,3.653,1.1c.188.106.437.221.323.479a.834.834,0,0,1-.458.426c-.646.18-1.313.3-1.976.446a13.521,13.521,0,0,1-1.342-.225c-3.334-.884-6.667-1.746-9.972-2.765M26.191,53.138a1.68,1.68,0,0,1,.258-.36.951.951,0,0,1,.372-.249c.634-.234,1.247-.528,1.893-.729,5.089-1.583,9.989-3.685,14.963-5.575,10.226-3.886,20.4-7.911,30.7-11.617,1-.364,2.008-.72,3.014-1.076,1.412-.5,2.855-.94,4.23-1.534,1.051-.454,2.188-.355,3.248-.826,2.254-1,4.56-1.837,6.888-2.63,2.5-.859,5.015-1.665,7.493-2.568.213-.079.418-.168.634-.237,1.448-.467,1.571-.32,1.268,1.284-.139.737-.168,1.489-.233,2.238a2.935,2.935,0,0,1-2.348,2.9c-1.956.515-3.874,1.169-5.813,1.759q-2.35.712-4.712,1.37c-6.3,1.763-12.66,3.309-18.984,4.99-8.917,2.373-17.736,5.089-26.53,7.891-4.79,1.526-9.609,2.962-14.415,4.43-.63.192-1.273.356-1.91.535h-.017v0a.058.058,0,0,1-.02,0c-.115-.02-.233-.045-.348-.065.119.02.241.037.368.057M20.6,54.644l0,.1-.139-.046Zm-1.8.479a1.226,1.226,0,0,1,.045.118.558.558,0,0,1-.16.04c-.016,0-.033-.073-.045-.114.053-.017.107-.029.16-.045m93.57,6.5c-.384,1.194-.675,1.387-1.959,1.371-5.555-.074-11.114-.054-16.665-.246-2.831-.1-5.665-.09-8.5-.061-3.625.037-7.249.106-10.873.024-4.349-.147-8.7.029-13.057-.191-4.5-.229-9.008-.135-13.507-.27-5.853-.175-11.7-.418-17.552-.663-4.045-.168-8.1-.347-12.136-.605-3.289-.209-6.573-.539-9.858-.83-.1-.008-.188-.143-.282-.217.09-.11.164-.291.278-.327,1.709-.528,3.42-1.068,5.142-1.554,9.028-2.549,17.937-5.478,26.9-8.239,4.23-1.3,8.406-2.778,12.64-4.082q5.59-1.725,11.241-3.236c6.447-1.742,12.913-3.4,19.364-5.121,1.579-.421,3.137-.9,4.708-1.346.52-.151,1.043-.294,1.571-.437,2.823-.758,5.657-1.468,8.488-2.2.221-.058.434-.123.654-.164,1.694-.307,1.833-.225,2.34,1.441a12.943,12.943,0,0,0,1.746,4.348,16.515,16.515,0,0,0,4.577,4.569c1.232.724,2.385,1.57,3.608,2.3a2.532,2.532,0,0,1,1.329,1.71,23.55,23.55,0,0,1,.777,7.576q-.307,2.57-.663,5.138a7.708,7.708,0,0,1-.315,1.313m38.52,2.287a.992.992,0,0,1-.9.557c-.9.029-1.8.049-2.7.074v-.049c-3.828-.13-7.653-.278-11.478-.388-2.254-.065-4.508-.045-6.757-.127-1.722-.061-3.444-.241-5.166-.331-2.7-.148-5.4-.262-8.1-.393-.45-.021-.9-.045-1.346-.094-1.19-.118-1.248-.228-1.076-1.4.327-2.225.679-4.45.92-6.688a22.486,22.486,0,0,0-.233-5.617c-.074-.519-.164-1.039-.189-1.558a.461.461,0,0,1,.585-.5,6.291,6.291,0,0,1,1.284.4,79.938,79.938,0,0,0,11.089,3.71c.143.04.282.081.425.114,2.814.781,5.714,1.276,8.578,1.9.217.049.446.066.663.118.589.143.74.5.413.953a1.123,1.123,0,0,1-.147.168,2.754,2.754,0,0,0-.99,2.622,5.562,5.562,0,0,0,1.485,3.432,3.91,3.91,0,0,0,5.44-.229,4.536,4.536,0,0,0,1.2-3.076,2.969,2.969,0,0,0-1.047-2.148.325.325,0,0,1,.286-.573c1.632.22,3.264.438,4.893.666q1.792.245,3.579.516c1.079.168,1.316.482,1.206,1.5a17.675,17.675,0,0,1-1.918,6.43m122.8-25.933c-.45,2.347.066,4.8-.67,7.1a16.884,16.884,0,0,1-2.978,6.021,19.353,19.353,0,0,1-5.293,4.819,24.243,24.243,0,0,0-2.8,2.237,17.326,17.326,0,0,1-6.2,3.08c-1.456.372-2.9.8-4.332,1.239-2.667.806-5.436,1.125-8.156,1.673-2.062.418-4.132.79-6.214,1.08-5.134.724-10.3,1.063-15.474,1.407-3.6.242-7.2.328-11.923.565-4.512.025-10.145.189-15.773.049-4.274-.106-8.553-.18-12.82-.638-3.027-.324-6.07-.487-9.105-.683-.859-.057-1.718-.115-2.573-.18-2.319-.176-4.63-.437-6.949-.614s-4.647-.282-6.97-.433c-.974-.061-1.943-.139-2.912-.25a.432.432,0,0,1-.352-.658,18.049,18.049,0,0,0,1.624-6.508c.086-.945.3-1.088,1.342-.957,1.416.18,2.835.344,4.238.581,2.307.384,4.643.351,6.962.54,2.92.233,5.849.458,8.774.634.295.02.585.037.879.053,4.115.237,8.251.388,12.386.249,5.928-.2,11.859-.29,17.79-.45,1.2-.033,2.406-.118,3.6-.261,3.808-.471,7.645-.414,11.465-.7a32.842,32.842,0,0,0,5.776-.888,9.314,9.314,0,0,0,3.825-1.771c.851-.72,1.914-1.183,2.831-1.829a33.945,33.945,0,0,0,5.522-4.949A113.733,113.733,0,0,1,250.53,36.265a27.122,27.122,0,0,1,14.1-5.959,17.028,17.028,0,0,1,2.474.033,6.6,6.6,0,0,1,5.825,4.577c.245.789.43,1.6.634,2.4a1.742,1.742,0,0,1,.118.663M132.957,11.288a3.912,3.912,0,0,0,4.377.8c1.538-.625,1.935-1.959,2.017-3.456,0-.074,0-.147-.012-.409a4.185,4.185,0,0,0-.1-.928c-.364-1.269-.965-2.471-2.311-2.807a5.1,5.1,0,0,0-3.5.409,3.587,3.587,0,0,0-1.612,2.332,3.571,3.571,0,0,0,1.137,4.058m-.07-4.152a2.846,2.846,0,0,1,2.79-1.866,2.325,2.325,0,0,1,2.45,1.887,4.029,4.029,0,0,1,.2,1.992A2.269,2.269,0,0,1,136,11.166a3.011,3.011,0,0,1-3.113-4.029m-7.015,44.77a2.331,2.331,0,0,0-1.084-.147A4.9,4.9,0,0,0,121.81,53.2a2.865,2.865,0,0,0-.466,3.853c.344.58.675,1.165,1.059,1.718a2.859,2.859,0,0,0,2.917,1.264,4.548,4.548,0,0,0,3.424-4.341,4.605,4.605,0,0,0-2.872-3.784m-.793,6.872a1.4,1.4,0,0,1-1.4-.523c-.467-.586-.9-1.2-1.305-1.825a1.81,1.81,0,0,1-.1-2.111,2.5,2.5,0,0,1,2.209-1.329,5.817,5.817,0,0,1,2.127.65,2.141,2.141,0,0,1,1.01,1.923,3.214,3.214,0,0,1-2.54,3.215M119.52,14.214a2.828,2.828,0,0,0,2.442-1.395,8.075,8.075,0,0,0,.822-1.6,5.472,5.472,0,0,0-.9-4.9c-.839-1.342-2.119-1.551-3.865-1.4-.045,0-.422,0-.794.02a3.043,3.043,0,0,0-2.716,1.719,11.5,11.5,0,0,0-.863,2.306,3.1,3.1,0,0,0,.483,2.577,5.966,5.966,0,0,0,5.388,2.68m-3.8-5.662c.139-1.71,1.051-2.532,3.068-2.491a2.52,2.52,0,0,1,2.769,1.69,4,4,0,0,1-.442,4.409,2.259,2.259,0,0,1-2.622.687,3.851,3.851,0,0,1-2.773-4.3" transform="translate(0 0)" fill="#351b1b"/>
      </g>
    </g>
  </g>
</svg>
