<svg xmlns="http://www.w3.org/2000/svg" xmlns:xlink="http://www.w3.org/1999/xlink" width="287.439" height="195.38" viewBox="0 0 287.439 195.38">
  <defs>
    <clipPath id="clip-path">
      <rect id="Rectángulo_362248" data-name="Rectángulo 362248" width="287.439" height="127.75" fill="none"/>
    </clipPath>
  </defs>
  <g id="Grupo_1065383" data-name="Grupo 1065383" transform="translate(-1000 -758.131)">
    <g id="Grupo_1065164" data-name="Grupo 1065164" transform="translate(702.649 -34.078)">
      <path id="Trazado_100521" data-name="Trazado 100521" d="M103.783,434.588C-27.656,429.281,22.1,639.336,174.577,629.536S211.6,438.946,103.783,434.588Z" transform="translate(308.966 357.72)" fill="#fff"/>
    </g>
    <g id="Grupo_1065172" data-name="Grupo 1065172" transform="translate(1000 822.125)">
      <g id="Grupo_1065171" data-name="Grupo 1065171" clip-path="url(#clip-path)">
        <path id="Trazado_777837" data-name="Trazado 777837" d="M281.035,65.175c0-3.087.045-5.535-.025-7.978-.033-1.141.148-2.345-.523-3.4-1.4-.122-1.817,1.231-2.668,1.888-1.682,1.295-3.254,2.744-4.807,4.194a84.96,84.96,0,0,1-11.581,9.493,3.207,3.207,0,0,0-1.566,3.164c.071,4.15.3,8.293.626,12.43.11,1.379.226,2.758.36,4.131.477,4.981.973,9.956,1,14.963a19.717,19.717,0,0,0,.18,2.545c.161,1.115.9,1.482,1.8.844,1.726-1.237,3.4-2.565,5.109-3.828a45.5,45.5,0,0,0,7.23-6.728,14.522,14.522,0,0,0,1.289-1.713c.135-.2.264-.4.394-.6.5-.767.09-1.617.135-2.416.052-.953,1.476-.767,1.844-1.553a5.026,5.026,0,0,0,.425-1.837c.083-2.017.064-4.04.122-6.064.174-6.057,1.064-12.09.657-17.534m-21.053,35.39a1.241,1.241,0,0,1,.155-.006c-.1-2.127-.155-4.259-.309-6.38-.226-3.035-.49-6.07-.741-9.1-.1-1.109-.187-2.211-.271-3.313-.226-2.86-.374-5.735-.612-8.6-.122-1.411-.354-1.54-1.52-.9-1.772.967-3.564,1.915-5.368,2.8a74.86,74.86,0,0,1-11.5,4.736,1.83,1.83,0,0,0-1.4,2.159q.337,4.619.728,9.234.842,9.7,1.715,19.4c.18,2.017.341,4.034.541,6.044.142,1.379.509,1.6,1.927,1.186.508-.148,1-.342,1.508-.522.954-.334,1.894-.708,2.822-1.1,2.79-1.179,5.5-2.552,8.248-3.822.96-.444,1.837-1.076,2.778-1.572a2.955,2.955,0,0,0,1.7-3.576,59.19,59.19,0,0,1-.393-6.682M239.5,113c-.161-4.118-.349-7.411-.716-10.7-.528-4.645-.882-9.317-1.32-13.977-.18-1.907-.367-3.815-.6-5.716-.161-1.3-.606-1.585-1.959-1.36-.528.09-1.037.245-1.559.354-3.956.844-7.9,1.715-11.863,2.52-3.654.74-7.32,1.378-10.973,2.113-1.772.355-1.85.483-1.888,2.313a18.464,18.464,0,0,0,.1,2.23c.245,2.538.606,5.071.767,7.616.45,6.9.811,13.81,1.237,20.717.148,2.437.386,4.872.6,7.308.071.786.516,1.115,1.309.9q2.464-.676,4.89-1.463a113.635,113.635,0,0,1,11.026-3.2,94.7,94.7,0,0,0,10.04-3.138c1.153-.386,1.249-.689,1.179-1.927-.1-1.8-.213-3.609-.271-4.595m-31-5.251c-.238-4.576-.38-9.158-1-13.707-.258-1.9-.438-3.815-.657-5.722-.142-1.212-.419-1.4-1.689-1.115-.309.071-.605.2-.915.271q-5.239,1.14-10.426,2.468-5.026,1.3-10.007,2.777c-2.043.606-4.066,1.269-6.109,1.876a3.674,3.674,0,0,0-1.83,1.172c-.336.387-.954.374-.863,1.224.231,2.21.392,4.446.418,6.67.058,4.691.02,9.382.02,14.074.077,0,.155-.007.231-.007.174,5.117.335,10.233.541,15.343a24.1,24.1,0,0,0,.374,3.177c.194,1.121.626,1.456,1.779,1.23,5.851-1.165,11.735-2.2,17.483-3.821a3.249,3.249,0,0,0,1.688-.831c1.012-1.328,2.513-1.534,3.918-1.979,1.624-.509,3.267-.967,4.9-1.45,3.273-.972,3.3-.972,3.112-4.408-.309-5.747-.682-11.5-.973-17.243M187.578,82.438a20.293,20.293,0,0,0,4.917,2.938.9.9,0,0,0,1.36-.793,17.245,17.245,0,0,0,.064-1.907c-.02-1.553-.033-3.112-.052-4.665-.026-2.172-.057-4.337-.115-6.5-.2-7.662-.555-15.324.457-22.954a1.64,1.64,0,0,0-1.083-2c-1.862-.779-3.77-1.482-4.949-3.306-.225-.342-.927-.129-1,.284a21.069,21.069,0,0,0-.342,2.52q-.453,8.932-.863,17.856h-.2c0,4.892.045,9.783-.025,14.681v.077a4.494,4.494,0,0,0,1.83,3.776m-13.32,39.5h.064c-.045-1.385-.09-2.778-.142-4.163q-.289-8.777-.586-17.56c-.032-.96-.064-1.92-.148-2.874-.072-.824-.523-1.16-1.27-1.012a7.833,7.833,0,0,0-.927.238c-7.882,2.758-16.052,4.253-24.268,5.542-1.9.3-3.8.535-5.69.851-1.65.271-1.9.624-1.811,2.377.026.529.11,1.057.149,1.592.218,3.615.844,7.2.793,10.839q-.1,5.916-.1,11.832c-.006,2.77-.168,5.548.554,8.268a3.14,3.14,0,0,1-.052,2.2.985.985,0,0,1-.715.509,1.06,1.06,0,0,1-.76-.425,1.684,1.684,0,0,1-.258-.882c-.206-3.074-.354-6.155-.258-9.248.142-4.472.213-8.957.155-13.429a72.608,72.608,0,0,0-1.153-11.445c-.245-1.4-.49-1.539-1.92-1.475-.748.032-1.489.116-2.23.213-3.383.426-6.766.863-10.181.954-4.582.122-9.164.342-13.745.522a4.789,4.789,0,0,0-1.257.1,1.1,1.1,0,0,0-.644.612,7.213,7.213,0,0,0-.116,1.585c-.084,4.691.052,9.382-.483,14.061a18.856,18.856,0,0,0,.006,3.511c.329,4.254.709,8.494,1.07,12.74.058.638.142,1.275.2,1.914a1.279,1.279,0,0,0,1.237,1.231c.947.11,1.907.174,2.868.213q6.226.271,12.463.509c.871.032,1.741.064,2.61.064.3,0,.606-.006.909-.013,3.834-.11,7.663-.206,11.5-.348q1.915-.068,3.828-.155c8.2-.38,16.356-1.314,24.487-2.384,1.586-.213,3.17-.445,4.743-.741,1.289-.245,1.572-.632,1.63-1.945.013-.426-.019-.851-.032-1.277q-.262-6.553-.516-13.1M117.267,67.972c-.052,2.024-.11,4.04-.122,6.064q-.019,4.244-.039,8.487-.029,8.052-.052,16.1a17.17,17.17,0,0,0,.123,1.914,1.106,1.106,0,0,0,1.3,1.057c.213-.006.425,0,.638-.019,5.195-.438,10.394-.863,15.588-1.315a12.567,12.567,0,0,0,1.882-.36.813.813,0,0,0,.677-.922c-.11-1.057-.335-2.114-.342-3.17-.032-6.379-.013-12.765-.013-19.152h.188c0-4.472.044-8.944-.014-13.416-.032-2.552-.219-5.1-.374-7.649-.013-.251-.29-.5-.5-.7-.032-.032-.347.175-.49.309a1.766,1.766,0,0,0-.38.516c-1.8,4.034-5.393,6.141-8.944,8.287a2.136,2.136,0,0,1-.876.258c-2.461.258-4.639,1.482-7,2.088a1.57,1.57,0,0,0-1.257,1.624M25.228,57.023a75.314,75.314,0,0,0,16.336,6.334c2.88.747,5.773,1.469,8.654,2.237,7.629,2.023,15.285,3.86,22.515,3.518a138.579,138.579,0,0,0,16.678-1.025c2.976-.277,5.838-1.16,8.783-1.566,4.685-.638,9.35-1.385,13.945-2.487q1.5-.359,2.977-.767a71.233,71.233,0,0,0,8.752-3c.631-.271,1.108-.619,1.153-1.361.161-2.867.328-5.727.47-8.6.019-.309-.1-.657-.5-.657a.713.713,0,0,0-.535.258,11.112,11.112,0,0,1-4.317,3.679A66.615,66.615,0,0,1,99.553,59.06a164.6,164.6,0,0,1-20.079,1.205c-.458-.006-.915-.013-1.373-.013-4.33-.026-8.667.045-12.991-.4-8.583-.883-17.173-1.643-25.757-2.5a57.137,57.137,0,0,1-11.27-1.746,20.568,20.568,0,0,1-3.6-1.47.635.635,0,0,0-.851.309.963.963,0,0,0-.123.51c.052,1.14.825,1.6,1.721,2.068m89.327,10.6c-.515.129-1.044.213-1.559.361-.07.02-.148.045-.218.057A147.626,147.626,0,0,1,95.5,71.754c-3.106.5-3.112.49-3.261,3.518q-.242,4.9-.238,9.8,0,4.844.232,9.7c.064,1.385.039,2.772.078,4.156.032,1.018.271,1.276,1.32,1.418.528.071,1.063.09,1.592.122q8.458.58,16.915,1.141a18.969,18.969,0,0,0,1.915.006,1.192,1.192,0,0,0,1.211-1.224c.033-.316.065-.639.091-.954.5-5.632.425-11.277.5-16.922,0-2.558.033-5.117-.013-7.675-.032-2.133-.129-4.266-.238-6.392-.032-.605-.354-.992-1.05-.825m-8.583,61a56.893,56.893,0,0,1,.058-9.879,88.119,88.119,0,0,0,.226-11.812c-.052-1.4-.316-1.713-1.694-1.779-5-.238-9.976-.9-14.989-.825-1.676.026-1.953.316-2,2.114-.032.96-.006,1.914-.006,2.868-.058-.039-.11-.077-.168-.115,0-1.064.033-2.127-.006-3.19-.045-1.327-.38-1.715-1.675-1.855a47.068,47.068,0,0,1-8.2-1.193.958.958,0,0,0-1.256,1.025c-.006,1.488.064,2.977.1,4.466.135,5.638.315,11.277.38,16.915.032,3.105.721,6.128.876,9.208.155,3.048.161,3.048,3.125,3.55.419.072.851.072,1.27.142,5.78.967,11.637,1.27,17.45,1.921,1.8.206,3.6.431,5.4.56,1.4.1,1.765-.226,1.707-1.6-.148-3.506-.335-7.017-.593-10.523M35.3,52a13.574,13.574,0,0,0,1.869.418c7.275.986,14.518,2.288,21.89,2.468,2.127,0,4.26.077,6.386-.013,6.7-.29,13.391-.831,20.086-.915,5.258-.064,10.368-1.037,15.531-1.721a4.411,4.411,0,0,0,2.365-.786c.392-.38.128-1.4.238-2.12.329-2.185.084-2.642-1.907-3.248a6.222,6.222,0,0,0-1.25-.232,59.373,59.373,0,0,0-9.57-.284c-7.217.567-14.441.915-21.678,1.141-1.385.039-2.758.246-4.137.329-4.459.258-8.88,1-13.358,1.076-4.576.084-9.145.426-13.72.639a6.636,6.636,0,0,0-2.783.619c-.561.289-1.186.579-1.173,1.353S34.662,51.822,35.3,52M90.519,74.113c0-1.373-.329-1.682-1.721-1.6-6.811.418-13.609,1.05-20.447.618-1.34-.084-1.463.115-1.624,1.379a24.26,24.26,0,0,0-.155,3.918c.032,1.037.117,2.075.213,3.107.374,3.937.458,7.874.458,11.824,0,.742.026,1.489.091,2.229.154,1.889.2,1.992,1.991,2.269,3.151.477,6.308.922,9.478,1.315,2.217.277,4.453.451,6.683.651.657.058,1.3.032,1.436-.844.045-.29.123-.638.509-.586.1.013.2.354.226.554.129,1.012.831,1.1,1.637,1.05.831-.045,1.032-.586,1.064-1.289.044-1.063.148-2.12.154-3.183.026-3.3.013-6.605.013-9.9v-.548c0-3.654.007-7.307-.006-10.961M75.885,133.649a90.534,90.534,0,0,1-.651-15.833c-.3-4.659-.1-8.918-.581-13.159-.155-1.34-.3-1.8-1.881-2.094-1.985-.361-4-.606-5.967-1.043A81.4,81.4,0,0,1,54.148,97.2q-1.624-.648-3.3-1.153a.719.719,0,0,0-.922.624,3.944,3.944,0,0,0-.071.954c.335,8.081.626,16.162,1.057,24.236.019.354.045.715.07,1.07.206,2.5.651,4.988.921,7.488a2.8,2.8,0,0,0,2.694,2.913c2.842.4,5.633,1.121,8.449,1.675,3.228.644,6.456,1.321,9.7,1.856.1.019.2.032.3.052,2.675.432,2.893.348,2.861-2.945a2.742,2.742,0,0,0-.025-.316M44.85,89.024a92.929,92.929,0,0,0,14.306,6.225c1.708.567,3.486.909,5.24,1.334.779.193,1.179-.136,1.243-.979.033-.425.013-.85.026-1.276.2-5.291-.348-10.555-.554-15.833-.07-1.623-.1-3.248-.07-4.872a.866.866,0,0,0-.774-.851,9.473,9.473,0,0,0-1.875-.335,49.5,49.5,0,0,1-10.361-1.759c-2.359-.638-4.7-1.327-7.063-1.965-.915-.245-1.108-.09-1.385.767a12.662,12.662,0,0,0-.6,4.388c.026.69.033,1.379.033,2.068,0,1.122-.019,2.237-.019,3.358h.129c0,2.339.058,4.685-.02,7.018a2.689,2.689,0,0,0,1.746,2.713m4.839,33.992c-.251-3.693-.593-7.056-.754-9.131-.206-7.32-.122-12.321-.728-17.3a2.941,2.941,0,0,0-1.837-2.641,117.266,117.266,0,0,1-13.1-7.224c-2.752-1.824-5.587-3.511-8.2-5.535A.768.768,0,0,0,24.21,81c-.36.168-.342.5-.354.8-.026.637-.045,1.282-.019,1.914.36,8.081.837,16.149,1.063,24.229.142,4.9,1.211,9.718,1.2,14.621a2.219,2.219,0,0,0,1.572,2.172c.4.161.793.316,1.186.471,5.349,2.107,10.736,4.091,16.239,5.76,6.438,1.953,5.039,1.927,4.8-4.124-.052-1.289-.122-2.578-.207-3.821m-31.1-55.141c0,.045-.006.09-.006.136a4.867,4.867,0,0,0,1.991,4.375c.083.071.173.136.264.206,4.317,3.267,8.551,6.65,12.926,9.839A70.341,70.341,0,0,0,40.3,86.382c.883.5,1.347.168,1.353-.909.02-2.655.006-5.31.006-8.293a8.645,8.645,0,0,0,.077-1.237c0-2.011-.509-4.189-.328-6.392.128-1.585-.013-1.67-1.559-2.32-2.642-1.115-5.362-2.011-7.952-3.267-4.015-1.94-8.158-3.615-11.961-5.98-.883-.548-1.334-.289-1.443.8a20.851,20.851,0,0,0-.084,2.539c.052,2.185.284,4.382.175,6.554m5.664,51.971c-.69-7.1-.818-14.228-1.025-21.349-.213-4.91-.432-9.827-.618-14.744-.02-.509-.039-1.012-.058-1.521-.13-3.473.457-2.6-2.288-5.175-.316-.29-.651-.554-.967-.844s-.651-.606-.973-.922A64.347,64.347,0,0,1,8.686,64.35c-1.534-2.294-2.951-4.672-4.427-7.018-.277-.444-.535-.915-.838-1.353a.615.615,0,0,0-.47-.258.567.567,0,0,0-.349.412,18.294,18.294,0,0,0-.052,2.223c.251,5.316.483,10.626.793,15.937.329,5.625.684,11.251,1.219,16.87a72.824,72.824,0,0,0,3.493,16.464,6.638,6.638,0,0,0,1.011,1.592c3.75,5.136,8.636,9.06,13.687,12.8.329.245.728.548,1.16.251.38-.265.348-.735.348-1.153a10.4,10.4,0,0,0-.013-1.276M15.755,67.972c.387.322.69.979,1.3.626a.8.8,0,0,0,.36-.767c0-.232-.038-.477-.052-.69-.11-1.8-.264-3.6-.419-5.407a9.824,9.824,0,0,1,.181-4.118,1.916,1.916,0,0,0-.793-2.449A19.05,19.05,0,0,1,14.6,53.305a.652.652,0,0,0-.561-.148.586.586,0,0,0-.367.412c-.026,1.7-.014,3.4-.014,5.1h-.334a16.682,16.682,0,0,1-.046,3.5c-.47,2.152.413,3.692,1.8,5.116a8.3,8.3,0,0,0,.67.684" transform="translate(-0.902 -15.318)" fill="#f9cbbf"/>
        <path id="Trazado_777838" data-name="Trazado 777838" d="M337.368,71.493c.128,1.759.186,3.526.161,5.285-.02.9-.058,1.8-.122,2.7-.1,1.385-.291,1.6-1.708,1.836-1.367.233-2.759.316-4.124.535a209.924,209.924,0,0,0-25.016,5.2c-5.684,1.63-4.8,1.559-4.968-3.847q-.04-1.2-.052-2.4c-.038-3.358.026-6.715.026-10.073h-.09c0-3.73-.032-7.462.013-11.193a31.892,31.892,0,0,1,.722-7.623c.213-.832.613-1.089,1.38-.883,5.245,1.412,10.62,2.146,15.962,3.068a35.41,35.41,0,0,1,6.785,1.817c2.752,1.057,4.84,3.068,6.844,5.137,2.8,2.893,3.905,6.514,4.189,10.439" transform="translate(-107.2 -18.123)" fill="#f9eaf0"/>
        <path id="Trazado_777839" data-name="Trazado 777839" d="M106,53.7a1.384,1.384,0,0,0,.561-.033c.019-.006.026-.128.032-.192a2.179,2.179,0,0,0-.541-.058c-.329.032-.354.186-.052.283m-2.726.406c-1.268-.393-2.447.29-3.647.625-.064.019-.1.142-.155.219,2.159.019,4.369-.67,3.8-.844m9.629-1.856c.967-.264,1.92-.586,2.86-.941.168-.064.258-.3.368-.521.025-.052.052-.1.077-.149a17.769,17.769,0,0,0-3.2.464,25.717,25.717,0,0,0-3.17.979.62.62,0,0,0-.29.483c.006.11.284.322.413.309a23.938,23.938,0,0,0,2.945-.625m3.5-1.669c1.539-.045,3.092.013,4.33-1.141a8.475,8.475,0,0,0-4.33,1.141M287.13,23.43c-.831-6.9-4.614-11.747-10.523-15.092-2.159-1.218-4.594-1.663-6.934-2.378A102.936,102.936,0,0,0,246.391,2.1c-3.093-.2-6.173.213-9.26.3a132.407,132.407,0,0,0-24.958,3.428,47.248,47.248,0,0,0-14.66,6.193c-.264.161-.528.322-.785.49a23.983,23.983,0,0,0-2.056,1.52c-.3.24-.78.458-.483.961.032.071.561-.071.8-.213.149-.083.291-.168.439-.244a61.633,61.633,0,0,1,19.042-6.651,69.657,69.657,0,0,1,7.217-1.346c4.35-.394,8.725-.516,12.528-.716,7.275.135,14,.193,20.672.954,4.529.516,9.092.773,13.558,2.062a16.675,16.675,0,0,1,8.931,5.722c.658.838,1.34,1.663,1.985,2.507a15.685,15.685,0,0,1,3.409,9.131c.052,1.379-.019,2.771.006,4.156.006.277.1.709.29.8.394.194.476-.251.58-.516.349-.876.188-2.294,1.9-1.676.122.039.463-.367.618-.612a7.336,7.336,0,0,0,.967-4.923m-6.45.109c-.31-1.018-.748-1.991-1.146-2.976-.922-2.236-2.855-3.686-4.319-5.5a14.8,14.8,0,0,0-7.474-4.646,51.856,51.856,0,0,0-8.776-1.547c-.929-.122-1.863-.238-2.79-.342-7.025-.8-14.067-1.05-21.125-1.218a20.886,20.886,0,0,0-2.377.058,10.109,10.109,0,0,0-2.642.6c.329,4.653.812,9.292.934,13.951.122,5.007.786,10,.393,15.015a2.9,2.9,0,0,0,.831,1.985,23.528,23.528,0,0,1,4,8.982c.142.7.187,1.5.315,2.216a3.252,3.252,0,0,0,.587,1.45c.941,1.141,2.6.194,3.95.278,2.326.148,4.718-.278,6.979.5a23.015,23.015,0,0,0,5.006.979,3.209,3.209,0,0,0,2.159-.45,2.979,2.979,0,0,0,1.244-2.707c-.045-.954-.245-1.9-.284-2.855-.231-5.22-.412-10.439-.657-15.652-.3-6.386-.026-12.8-.773-19.171a7.315,7.315,0,0,1,.026-1.592,1.107,1.107,0,0,1,1.025-1.037.675.675,0,0,1,.258.012,1.027,1.027,0,0,1,.639,1.018c.006.213-.052.425-.052.639,0,11.94.541,23.868,1.21,35.783.188,3.261.246,3.286,2.913,1.688,1.643-.986,3.248-2.043,4.819-3.132,3.152-2.185,6.271-4.414,9.416-6.618a13.539,13.539,0,0,0,4.162-4.788c.812-1.54,2.487-3.118.773-5.161-.374-.445.135-1.018.406-1.45a5.027,5.027,0,0,0,.374-4.319m-6.618,18.469a1.557,1.557,0,0,0-.354-.11c-.309.188-.676.393-1.025.625-2.545,1.721-5,3.6-7.655,5.129-1.875,1.077-2.835,3.061-4.672,4.112-.406.232-.309,1.547.032,1.76.47.276.8-.052,1.121-.291,1.857-1.411,3.77-2.745,5.529-4.272,2.4-2.076,4.672-4.3,7-6.465.207-.192.213-.38.026-.489M257.455,53.129a4.64,4.64,0,0,0-1.108.6c-.122.09-.238.175-.361.257-2.642,1.915-5.271,3.841-7.9,5.755a4.247,4.247,0,0,0-.464.432c-.071.071-.155.193-.135.271s.161.122.245.187a1.443,1.443,0,0,0,.3-.052c1.057-.412,2.088-.876,3.1-1.379,2.223-1.1,4.35-2.391,6.5-3.634a1.481,1.481,0,0,0,.651-.684,2.809,2.809,0,0,0,.1-1.224.623.623,0,0,0-.928-.529m-21.954.3a24.951,24.951,0,0,0-.407-3.036,34.263,34.263,0,0,0-2.39-7.4,12.276,12.276,0,0,0-7.824-7c-2.5-.806-5.1-1.3-7.675-1.875-.128-.025-.258-.058-.387-.084a61.071,61.071,0,0,1-6.534-1.385c-3.125-1.076-6.341-1.721-9.511-2.565-1.952-.522-3.866-1.219-5.754-1.927a7.862,7.862,0,0,1-3.073-2.726c-.535-.637-.909-1.507-1.921-1.546-.38-.014-.857-.393-1.133.117a1.228,1.228,0,0,0-.039.921,9.148,9.148,0,0,0,3.383,4.125c3.937,2.835,8.558,3.737,13.12,4.736,3.222.7,6.534.979,9.776,1.585.574.11,1.148.219,1.721.342a25.9,25.9,0,0,1,5.033,1.553c2.926,1.282,4.969,3.633,7.069,5.9A14.567,14.567,0,0,1,231.8,48.1a24.594,24.594,0,0,1,1.346,10.645c0,.168,0,.387-.006.638-.007.612-.014,1.444.019,2.275a1.184,1.184,0,0,0,.876,1.185,1.314,1.314,0,0,0,1.489-.9,13.909,13.909,0,0,0,.386-6.327,16.278,16.278,0,0,1-.4-2.192M228.1,7.816c-.632-.032-1.264-.032-1.9-.013a74.283,74.283,0,0,0-11.361,1.675c-1.147.213-2.294.458-3.435.7a.857.857,0,0,0-.766,1.121,14.652,14.652,0,0,1,.148,2.855,51.028,51.028,0,0,0,.168,7.018c.117,1.437.155,2.874.2,4.311.02.477.032.96.052,1.436.039.961.078,1.921.1,2.881a1.512,1.512,0,0,0,1.282,1.585c1.973.451,3.957.838,5.928,1.282,3.319.748,6.709,1.238,9.776,2.855,1.109.586,1.483.322,1.457-1.05-.077-4.794-.193-9.589-.322-14.383-.084-3.086-.2-6.173-.329-9.259a3.7,3.7,0,0,1,.851-2.855,16.029,16.029,0,0,0-1.843-.161M216.078,67.661c-1.882.322-3.731.786-5.593,1.205-.444.1-.793.412-.683.877.045.161.541.315.825.3a22.144,22.144,0,0,0,2.526-.3c3.344-.587,6.682-1.179,10.02-1.818,1.869-.361,3.725-.825,5.587-1.237a1.519,1.519,0,0,0,.445-.161.681.681,0,0,0,.117-.084.647.647,0,0,0,.225-.374.2.2,0,0,0,.013-.109,31.9,31.9,0,0,0-3.428.13c-3.357.47-6.715,1-10.053,1.572m-19.2-40.6c3.029,1.4,6.289,1.952,9.492,2.681,3.261.735,3.486,1.3,3.383-2.945-.013-.45-.025-.9-.045-1.353-.135-3.158-.458-6.3-.689-9.453-.065-.934-.722-1.811-.3-2.744.013-.264.032-.477.032-.69,0-1.257-.3-1.514-1.494-1.25a51.267,51.267,0,0,0-6.644,2.236,30.58,30.58,0,0,0-4.517,2.172c-.483.276-.96.566-1.437.856a3.422,3.422,0,0,0-1.83,2.12c-.348,2.12-.979,4.331.973,6.173a11.376,11.376,0,0,0,3.08,2.2m9.415,42.878q-4.505,1-9,2.036a1.607,1.607,0,0,0-.554.3c-.064.052-.071.193-.1.29-.071.213.032.354.49.483.857-.18,1.894-.367,2.919-.624,2.159-.535,4.318-1.1,6.47-1.67a.659.659,0,0,0,.393-.445c.039-.445-.368-.419-.612-.367m-12.483,3.132c-3.234.753-6.481,1.475-9.7,2.293-1.933.49-3.861,1.018-5.762,1.611a5.328,5.328,0,0,0-1.392.754c-.09.065-.058.361-.032.548.013.07.161.122.316.231.361-.084.767-.174,1.173-.277,5.162-1.3,10.162-3.183,15.414-4.143a.793.793,0,0,0,.11-.026,4.5,4.5,0,0,0,.747-.374c.083-.045.186-.232.168-.251a1.138,1.138,0,0,0-.42-.329,1.207,1.207,0,0,0-.626-.038m-23.256,6.134c-.715.155-1.393.5-2.1.722-2.822.908-5.632,1.869-8.48,2.68-2.745.775-5.542,1.373-8.306,2.069-.148.039-.251.226-.38.347a6.082,6.082,0,0,0,.586.188,1.919,1.919,0,0,0,.394.006c.56-.064,1.191-.116,1.824-.219a97.344,97.344,0,0,0,16.9-4.395c.934-.341,2.526-.006,2.6-1.739-1.083-.568-2.043.122-3.036.341m-22.193,6.154c-.663,0-1.411-.29-1.888.445.657.342,1.327.039,1.991-.012a1,1,0,0,0,.271-.117c-.122-.11-.251-.316-.374-.316M141.122,86.4a1.214,1.214,0,0,0-.251.187,1.676,1.676,0,0,0-.161.219c.09.052.193.168.271.154.909-.173,1.849-.2,2.771-.322.232-.025.458-.064.683-.11.116-.019.226-.044.342-.07a5.321,5.321,0,0,0,1.507-.619c-1,.019-2.01.039-3.015.077a4.514,4.514,0,0,0-2.146.483m-8.1.882c-1.913.1-3.815.374-5.722.587-.412.045-.818.161-1.224.245.3.606.857.258,1.3.322a10.014,10.014,0,0,0,1.076.006c1.257-.148,2.951-.322,4.64-.547,1.237-.175,2.526.057,3.718-.483-1.237-.671-2.538-.194-3.789-.13m-5.613-54.509c-.052.973-.032,1.96-.026,2.938.014.3.014.6.014.9h-.059c0,2.236-.019,4.472.014,6.709.006.476.341.721.869.618a7.427,7.427,0,0,0,3.885-2.674c2.939-3.164,3.951-8.525,1.728-12.469a58.317,58.317,0,0,0-6.218-8.474A5.555,5.555,0,0,0,126.4,19.3c-1.7-1.095-3.4-2.2-5.149-3.215-.9-.516-1.862-1.553-2.873-1.011-1.225.663-.5,2.119-.638,3.222-.014.1-.02.193-.033.283a2.424,2.424,0,0,0,2.094,2.771,4.475,4.475,0,0,1,1.147.554c4.182,2.416,6.747,5.787,6.463,10.871m-15.9-11.76c-2.217-.277-4.427-.651-6.618-1.1a49.548,49.548,0,0,0-12.668-1.353c-3.19.167-6.4.07-9.577.367-6.791.632-13.558,1.457-20.336,2.172-6.883.728-13.784,1.353-20.6,2.6q-3.77.687-7.539,1.405c-1.147.213-2.294.464-3.448.664a14.8,14.8,0,0,0-3.673,1.05,13.3,13.3,0,0,0-3.2,1.418c-1.025.863-2.326.754-3.344,1.431a4.833,4.833,0,0,0-.76.58c-.128.13-.277.47-.238.516,1.3,1.153.032,1.211-.637,1.547a1.905,1.905,0,0,0-1.057,1.5c-.586,3.589.773,5.407,3.5,6.218a.777.777,0,0,0,.96-.232.966.966,0,0,0,.135-.458,17.863,17.863,0,0,0-.264-4.459A2.853,2.853,0,0,1,23.2,32.039a13.416,13.416,0,0,1,4.279-2.7,54.192,54.192,0,0,1,11.225-2.409c9.737-1.224,19.526-1.856,29.314-2.339,6.586-.328,13.177-1.005,19.8-.612.953.052,1.914.019,2.874.039a87.211,87.211,0,0,1,18.978,2.455,17.3,17.3,0,0,1,3.86,1.489,3.99,3.99,0,0,1,2.385,3.859,4.218,4.218,0,0,1-2.668,3.686,17,17,0,0,1-2.088.786c-.142.046-.277.1-.419.148a42.711,42.711,0,0,1-9.028,2.507c-4.337.51-8.641,1.334-13.017,1.5q-9.908.358-19.809.722a9.6,9.6,0,0,0-1.282.084,35.371,35.371,0,0,1-7.34.135c-2.023-.1-4.047-.175-6.064-.315A53.682,53.682,0,0,1,45,39.946c-4.046-.986-8.28-.664-12.282-1.862a1.064,1.064,0,0,0-.322-.013.732.732,0,0,0-.8.78c.006,1.205.521,1.959,1.539,2.087,2.43.31,4.859.7,7.3.787,5.974.219,11.89,1.064,17.831,1.6,6.476.593,12.946,1.166,19.442,1.431.284,0,.567.006.851.006.142,0,.284,0,.425-.006,5.974-.135,11.921-.579,17.857-1.25,3.918-.438,7.822-.94,11.682-1.753a7.327,7.327,0,0,0,3.022-.915,9.7,9.7,0,0,1,4-1.8c3.177-.773,5.414-2.893,7.249-5.432a6.051,6.051,0,0,0-.516-6.851,17.912,17.912,0,0,0-10.767-5.747m-2.288,67.308c-.18.083-.405.244-.438.405-.019.122.206.4.361.432a6.8,6.8,0,0,0,1.578.168c3.506-.135,7.018-.3,10.523-.451.026-.064.045-.129.071-.193-3.821-.155-7.649-.316-11.47-.463a1.461,1.461,0,0,0-.625.1M88.081,11.289a1.488,1.488,0,0,0-1.16,1.637c.019.806.026,1.443.064,1.939.136,1.83.651,1.811,3.608,1.727a79.109,79.109,0,0,1,21.8,2.262,13.619,13.619,0,0,0,3.718.8,2.428,2.428,0,0,0,.3-1.1c.052-.974-.361-1.959-.238-2.938.142-1.135-.464-1.728-1.5-2.108a116.105,116.105,0,0,0-12.476-3.8A58.322,58.322,0,0,0,91.438,8.422c-1.167,0-2.333-.006-3.5,0-.445.006-.858.161-.941.644a1.02,1.02,0,0,0,.406,1.115c.18.11.387.174.574.271.451.232.7.644.11.838m19.274,23.682c-.193.251-.316.568-.064.825a.723.723,0,0,0,.58.161,17.552,17.552,0,0,0,2.442-.74,24.137,24.137,0,0,0,2.326-1.045,2.418,2.418,0,0,0,1.115-2.757,3.51,3.51,0,0,0-1.856-2.48,13.774,13.774,0,0,0-2.977-1.122,87.03,87.03,0,0,0-16.768-2.185c-3.518-.052-7.037-.006-10.555-.006-9.518-.052-18.913,1.3-28.341,2.371-3.589.412-7.172.921-10.807,1.1a45.963,45.963,0,0,0-13.706,2.9c-2.146.792-2.835,2.043-2.294,4.189a14.485,14.485,0,0,0,1.25,2.931,1.95,1.95,0,0,0,1.153.806,1.048,1.048,0,0,0,.78-.019c.547-.38.284-.941.225-1.443-.012-.1-.044-.206-.057-.309-.238-3.861.406-4.769,4.208-5.819a15.731,15.731,0,0,1,2.2-.374A177.791,177.791,0,0,1,54.7,30.55q11.348-.213,22.644-1.231a122.6,122.6,0,0,1,25.215.187,27.328,27.328,0,0,1,3.447.637,5.85,5.85,0,0,1,1.721.813,1.927,1.927,0,0,1,.632,2.784c-.277.445-.683.812-1.005,1.231m-4.5,53.673c-.006.1-.019.186-.026.276.921.039,1.843.1,2.764.11.168.006.342-.173.516-.271-.148-.11-.309-.316-.45-.309-.941.039-1.869.122-2.8.194M56.75,18.275a17.164,17.164,0,0,0,1.9-.155c5.491-.682,10.987-1.173,16.516-1.321,2.552-.071,5.1-.052,7.649-.161,2.211-.1,2.848-.161,2.745-1.746-.019-.329-.077-.715-.154-1.186-.246-1.463-.233-2.964-.343-4.446a1.04,1.04,0,0,0-1.018-1.012c-.419-.058-.844-.084-1.269-.11a177.835,177.835,0,0,0-22.612.374c-.948.052-1.9.245-2.842.38a1.261,1.261,0,0,0-1.219,1.218c-.174,1.586-.387,3.158-.523,4.189,0,1.308-.019,2.049.007,2.79.032.818.406,1.206,1.16,1.186m16.767,67.32a3.715,3.715,0,0,0-.921-.219,51,51,0,0,1-7.809-1.8c-2.069-.606-4.125-1.262-6.213-1.811-.006.74.567.947,1.147,1.193a51.01,51.01,0,0,0,13.8,3.312c.135.02.3-.174.451-.271-.155-.135-.284-.328-.458-.4m-15.9-4.079c-.142-.039-.289-.084-.438-.11a1.9,1.9,0,0,0-.831-.006c.6.844,1.333.664,2.094.329a4.265,4.265,0,0,1-.6-.148,2.242,2.242,0,0,0-.225-.064m-1.727-.651c-.058-.039-.116-.071-.173-.1a.85.85,0,0,1-.188-.148.4.4,0,0,1-.064-.084c-.045.586.148.934.793.831a.564.564,0,0,0-.367-.5m-2.152-.677c.45.6,1.134.239,1.708.316,0-.006-.007-.006-.007-.013-.567-.1-1.128-.206-1.7-.3M30.994,22.463c.528-.064,1.05-.174,1.573-.258,6.418-1.037,12.823-2.088,19.241-3.093,2.481-.393,2.185-.715,2.2-2.674.012-.741,0-1.489,0-2.236h.258c0-1.173.019-2.339-.006-3.512-.026-1.211-.38-1.578-1.521-1.482-1.695.148-3.383.367-5.078.548-1.862.2-3.718.405-5.535.76a22.5,22.5,0,0,0-5.336,1.669c-.767.361-1.611.554-2.4.857-1.676.644-3.48.967-4.975,2.056-.122,1.9-.3,3.808-.348,5.709v.175c0,1.429.4,1.669,1.927,1.481m21.58,57.2c-.213.213-.135.348.175.361.232.013.47.026.7.032-.194-.142-.387-.284-.593-.412a.278.278,0,0,0-.284.019m-12.63-6.444c-.271-.135-.683,0-1.057.065.258.167.522.328.786.5,0,.006.006,0,.006,0q.87.542,1.759,1.064A49.826,49.826,0,0,0,46,77.25a3.249,3.249,0,0,0,.889.3c.142.019.315-.142.464-.238a.457.457,0,0,0-.135-.258c-2.417-1.289-4.826-2.6-7.275-3.834M37.65,71.914c-4.1-2.275-7.63-5.355-11.361-8.145a8.091,8.091,0,0,0-.76-.574c-.284-.174-.626-.226-.8.129a.657.657,0,0,0,.11.58,13.71,13.71,0,0,0,1.605,1.527,87.545,87.545,0,0,0,7.59,5.078q2.32,1.382,4.691,2.681c.019-.722-.579-1-1.076-1.276M21.012,26.272A32.313,32.313,0,0,1,24.46,24.59c2.944-1.186,3.092-1.269,3.047-3.583-.006-.316-.019-.677-.026-1.083-.052-.96-.064-1.92-.161-2.874-.077-.825-.567-1.179-1.3-.922a26.069,26.069,0,0,0-2.662,1.083,56.372,56.372,0,0,0-9.916,6.4A27.29,27.29,0,0,0,8.5,28.128,7.507,7.507,0,0,0,6.867,32.2a48.783,48.783,0,0,0,.052,7.327c.2,3.493,2.384,5.812,4.544,8.177a.451.451,0,0,0,.734-.25,26.389,26.389,0,0,0,.342-3.164c0-.078.006-.155.006-.233.052-2.153.006-4.317.058-6.47a26.265,26.265,0,0,1,.258-3.5c.155-1.019,1.3-1.328,1.772-2.2,1.417-2.648,3.846-4.221,6.379-5.619M20.1,58.827l-.187-.168a1.853,1.853,0,0,0-.58-.206.906.906,0,0,0-.265.123c-.057.052-.135.186-.115.225a7.962,7.962,0,0,0,.754.915A14.838,14.838,0,0,0,22.462,61.9c.032.025.213-.065.22-.123.037-.18.11-.463.019-.554-.857-.818-1.727-1.611-2.6-2.4m-4.846-3.937a.293.293,0,0,0,.057.264c.574.605,1.161,1.205,1.753,1.791.052.058.2.045.284.014a.307.307,0,0,0,.13-.194c-.677-.644-1.361-1.282-2.076-1.946-.019,0-.122.019-.148.071M4.419,32.413c-.309.251-.7.451-.579.986.07.31.135.638.477.69.373.052.47-.233.515-.568a.936.936,0,0,0-.206-.58,1.132,1.132,0,0,1-.206-.528" transform="translate(-1.358 -0.728)" fill="#e8e8e8"/>
        <path id="Trazado_777840" data-name="Trazado 777840" d="M285.069,14.951c-2.526-4.2-5.632-7.862-10.432-9.46a98.561,98.561,0,0,0-12.276-3.5A112.884,112.884,0,0,0,228.621.7c-2.752.3-5.5.7-8.242,1.089-7.514,1.057-14.828,2.636-21.607,6.392-1.14.639-2.243,1.308-3.306,2.023a42.921,42.921,0,0,0-8.531,7.577,9.194,9.194,0,0,0-2.224,5.832c-.206,4.575-.683,9.131-1.07,13.693-.4,4.781-.831,9.556-1.217,14.338-.188,2.333-.316,4.672-.438,7.011a23.4,23.4,0,0,0-.007,5.413c.026.147.291.322.464.342.116.012.362-.213.374-.349.142-1.256.245-2.525.354-3.788.117-.006.238-.019.354-.034,0,1.038.014,2.069.014,3.1,0,.561-.007,1.128-.026,1.688a3.2,3.2,0,0,0,1.817,3.105c1.3.735,2.526,1.586,3.776,2.4.264.179.529.419.342.779a.772.772,0,0,1-.47.329q-3.278.84-6.561,1.669-1.671.425-3.351.831c-4.761,1.153-9.433,2.63-14.079,4.182-2.52.845-5.059,1.624-7.611,2.359a91.627,91.627,0,0,1-16.606,3.183c-.909.091-1.9.818-2.712-.039-.625-.651.238-1.379.141-2.114-.18-1.365-.361-2.732-.45-4.1-.528-8.409.148-16.826-.13-25.241-.052-1.489-.09-2.984-.128-4.473-.149-5.967-.2-11.934-.3-17.9a6.679,6.679,0,0,0-.548-2.474,24.084,24.084,0,0,0-6.7-9.221,41.372,41.372,0,0,0-11.1-6.844c-2.172-.909-4.382-1.63-6.605-2.365a72.411,72.411,0,0,0-14.55-3.6,96.388,96.388,0,0,0-10.807-1.1c-3.944-.006-7.894.039-11.838.006-2.983-.025-5.954.381-8.918.42-3.21.044-6.387.349-9.556.632A142.53,142.53,0,0,0,41.732,7.727c-.445.09-.89.18-1.328.277A83.041,83.041,0,0,0,14.828,17.49a43.248,43.248,0,0,0-8.784,6.869,22.566,22.566,0,0,0-2.79,3.067A18.662,18.662,0,0,0,0,38.265C.02,43.91.161,49.554.606,55.187c.47,6.051.392,12.147,1.173,18.184.219,1.688.541,3.377.637,5.071A68.474,68.474,0,0,0,5.142,92.207a4.881,4.881,0,0,0,.89,1.675,77.637,77.637,0,0,0,10.961,11.149,34.057,34.057,0,0,0,12.488,6.934,15.879,15.879,0,0,1,1.457.651A132.992,132.992,0,0,0,50.7,118.924c3.2.811,6.483,1.264,9.724,1.882,3.834.735,7.675,1.431,11.521,2.055,3.41.554,6.825,1.057,10.252,1.476,4.337.535,8.693.921,13.01,1.546a124.188,124.188,0,0,0,14.3,1.411c5.76.161,11.528.4,17.3.444,2.648.026,5.291.007,7.939-.076,9.917-.31,19.789-.967,29.623-2.255,3.685-.483,7.385-.909,11.051-1.528,3.88-.657,7.726-1.5,11.586-2.281a60.082,60.082,0,0,0,7.785-1.715c7.353-2.513,14.8-4.756,22.045-7.6a9.312,9.312,0,0,1,1.211-.407c4.678-1.082,9.125-2.977,13.777-4.1,2.764-.671,5.284-2.307,8.262-2.178.257.006.566-.284.78-.5a6.016,6.016,0,0,1,2.242-1.173c1.385-.593,2.783-1.173,4.176-1.76,2.835-1.179,5.664-2.378,8.409-3.73a92.5,92.5,0,0,0,15.4-9.718,45.768,45.768,0,0,0,4.04-3.622,4.23,4.23,0,0,0,1.237-1.824,10.643,10.643,0,0,1,1.353-3.034c.58-.941,1.224-1.844,1.772-2.784a6.965,6.965,0,0,0,1.224-3.532c.052-5.013.5-10.008.671-15.014.232-7.024.418-14.068.1-21.1a5.1,5.1,0,0,1,.947-3.6c.915-1.172,1.663-2.474,2.578-3.646a11.6,11.6,0,0,0,2.423-7.121,15.388,15.388,0,0,0-2.365-8.493m-93.605,3.016a3.425,3.425,0,0,1,1.83-2.121c.477-.289.954-.579,1.438-.856a30.542,30.542,0,0,1,4.517-2.172,51.267,51.267,0,0,1,6.644-2.236c1.192-.264,1.494-.006,1.494,1.25,0,.213-.019.425-.032.69-.419.934.238,1.81.3,2.744.233,3.151.555,6.3.69,9.453.019.45.032.9.044,1.353.1,4.247-.122,3.68-3.383,2.945-3.2-.729-6.463-1.282-9.491-2.681a11.381,11.381,0,0,1-3.081-2.2c-1.952-1.843-1.321-4.053-.973-6.173m-3.93,5.3c.276-.51.754-.13,1.134-.116,1.012.038,1.385.909,1.92,1.546a7.864,7.864,0,0,0,3.074,2.726c1.887.708,3.8,1.4,5.754,1.927,3.17.844,6.386,1.489,9.511,2.565a60.93,60.93,0,0,0,6.535,1.385c.128.026.258.059.386.084,2.578.574,5.175,1.07,7.675,1.875a12.276,12.276,0,0,1,7.824,7,34.217,34.217,0,0,1,2.39,7.4,24.806,24.806,0,0,1,.407,3.036,16.3,16.3,0,0,0,.405,2.192,13.919,13.919,0,0,1-.387,6.327,1.312,1.312,0,0,1-1.488.9,1.186,1.186,0,0,1-.877-1.185c-.032-.831-.026-1.663-.019-2.274.006-.251.006-.471.006-.639a24.606,24.606,0,0,0-1.347-10.645,14.569,14.569,0,0,0-2.842-4.955c-2.1-2.262-4.144-4.614-7.07-5.9a25.908,25.908,0,0,0-5.032-1.554c-.574-.122-1.148-.232-1.721-.342-3.242-.606-6.554-.889-9.776-1.585-4.562-1-9.183-1.9-13.121-4.736a9.155,9.155,0,0,1-3.383-4.125,1.232,1.232,0,0,1,.039-.921m43.78-16.62a21.044,21.044,0,0,1,2.378-.057c7.057.167,14.1.418,21.124,1.218.927.1,1.862.219,2.79.342a51.856,51.856,0,0,1,8.776,1.547,14.8,14.8,0,0,1,7.475,4.646c1.463,1.81,3.4,3.26,4.318,5.5.4.985.837,1.958,1.146,2.976a5.024,5.024,0,0,1-.374,4.318c-.271.432-.78,1.005-.406,1.45,1.715,2.043.039,3.622-.773,5.162a13.538,13.538,0,0,1-4.162,4.788c-3.145,2.2-6.264,4.433-9.415,6.617-1.572,1.09-3.177,2.146-4.82,3.132-2.667,1.6-2.725,1.572-2.913-1.689-.67-11.915-1.211-23.842-1.211-35.783,0-.213.058-.425.052-.638a1.026,1.026,0,0,0-.638-1.018.679.679,0,0,0-.258-.012,1.107,1.107,0,0,0-1.025,1.037,7.356,7.356,0,0,0-.025,1.592c.748,6.372.47,12.784.773,19.171.245,5.213.425,10.432.657,15.651.039.954.238,1.9.284,2.854a2.981,2.981,0,0,1-1.244,2.708,3.212,3.212,0,0,1-2.159.45,23.061,23.061,0,0,1-5.006-.979c-2.262-.781-4.653-.355-6.979-.5-1.347-.083-3.009.864-3.951-.278a3.26,3.26,0,0,1-.586-1.45c-.129-.72-.174-1.514-.315-2.215a23.542,23.542,0,0,0-4-8.983A2.9,2.9,0,0,1,230,36.209c.394-5.013-.271-10.008-.393-15.015-.122-4.659-.606-9.3-.934-13.951a.113.113,0,0,0-.046.014c-.012,0-.032-.007-.045-.007a3.691,3.691,0,0,0-.851,2.855c.13,3.086.246,6.173.329,9.259q.193,7.191.322,14.382c.025,1.373-.349,1.637-1.457,1.051-3.067-1.617-6.457-2.108-9.776-2.855-1.972-.444-3.956-.831-5.928-1.282a1.512,1.512,0,0,1-1.283-1.586c-.019-.96-.058-1.92-.1-2.88-.019-.476-.032-.96-.052-1.436-.044-1.437-.083-2.874-.2-4.312a50.925,50.925,0,0,1-.167-7.018,14.643,14.643,0,0,0-.148-2.854.857.857,0,0,1,.766-1.121c1.141-.245,2.288-.49,3.435-.7a74.34,74.34,0,0,1,11.361-1.676c.637-.019,1.269-.019,1.9.014a16.018,16.018,0,0,1,1.842.161l.019-.019a.25.25,0,0,1,.059-.058.021.021,0,0,0,.006-.013.179.179,0,0,0,.006.058v.026a10.126,10.126,0,0,1,2.641-.6m43.613,32.968a4.365,4.365,0,0,1-.335.445,1.836,1.836,0,0,1-.173-.155c.11-.154.238-.3.354-.445.059.052.155.13.155.155m-2.249,2.158c-2.326,2.166-4.6,4.389-7,6.464-1.759,1.527-3.672,2.86-5.529,4.271-.322.24-.651.568-1.121.292-.341-.213-.438-1.529-.032-1.76,1.837-1.051,2.8-3.035,4.672-4.112,2.655-1.534,5.111-3.408,7.655-5.129.349-.232.716-.438,1.025-.625a1.56,1.56,0,0,1,.355.109c.186.11.18.3-.026.49M246.264,59.447a4.188,4.188,0,0,1,.463-.432c2.629-1.913,5.258-3.841,7.9-5.755.122-.082.239-.166.361-.256a4.606,4.606,0,0,1,1.108-.6.623.623,0,0,1,.929.529,2.8,2.8,0,0,1-.1,1.224,1.48,1.48,0,0,1-.65.684c-2.146,1.244-4.273,2.532-6.5,3.634-1.012.5-2.043.967-3.1,1.379a1.47,1.47,0,0,1-.3.052c-.084-.064-.226-.11-.245-.187s.064-.2.136-.271m-5.735.876a10.136,10.136,0,0,1-3.139.438.6.6,0,0,1-.689-.508q-.33-2.852-.555-5.716a1.2,1.2,0,0,1,1.109-1.335c1.469-.206,2.951-.335,4.433-.5,2.61-.057,5.046.774,7.52,1.373a.681.681,0,0,1,.181,1.237,38.425,38.425,0,0,1-8.86,5.008m-7.611,4.182a1.1,1.1,0,0,1-.566.031c-.039-.005-.072-.128-.1-.2a1.631,1.631,0,0,1,.541-.161c.29.026.354.226.129.329M228.5,63.19c-1.367.233-2.759.316-4.124.535a209.919,209.919,0,0,0-25.016,5.2c-5.684,1.631-4.8,1.56-4.968-3.846q-.04-1.2-.052-2.4c-.038-3.358.026-6.715.026-10.072h-.09c0-3.731-.032-7.463.013-11.193a31.9,31.9,0,0,1,.722-7.623c.213-.832.613-1.089,1.38-.883,5.245,1.413,10.62,2.146,15.962,3.068a35.409,35.409,0,0,1,6.785,1.817c2.752,1.057,4.84,3.068,6.844,5.136,2.8,2.894,3.905,6.514,4.189,10.439.128,1.759.186,3.525.161,5.285-.02.9-.058,1.8-.122,2.7-.1,1.385-.291,1.6-1.708,1.836M230.116,65a.216.216,0,0,1-.1.187,4.369,4.369,0,0,1-.483.135,1.829,1.829,0,0,1-1.237-.116,1.6,1.6,0,0,1,1.663-.438c.07.019.142.14.161.231m-1.83.206c-.007.007-.013.019-.02.025h-.058a.307.307,0,0,1-.019.11.648.648,0,0,1-.226.374.538.538,0,0,1-.117.085,1.569,1.569,0,0,1-.445.161c-1.862.412-3.718.876-5.587,1.237-3.338.638-6.675,1.23-10.02,1.817a22,22,0,0,1-2.526.3c-.284.014-.78-.14-.825-.3-.11-.464.239-.78.684-.876,1.862-.42,3.711-.883,5.593-1.206,3.338-.574,6.7-1.1,10.053-1.571a32.072,32.072,0,0,1,3.428-.131h.006a.167.167,0,0,0,.006-.057l.013.005a.164.164,0,0,0,.059.026m-22.742,4.375a.661.661,0,0,1-.392.446c-2.152.573-4.312,1.134-6.47,1.669-1.025.257-2.063.445-2.92.624-.458-.128-.561-.27-.489-.483.032-.1.039-.238.1-.289a1.6,1.6,0,0,1,.554-.3q4.495-1.033,9-2.036c.244-.052.651-.077.612.367m-18.867-2.461a4.493,4.493,0,0,1-1.83-3.776v-.076c.07-4.9.025-9.789.025-14.681h.2q.425-8.929.863-17.855a21.069,21.069,0,0,1,.342-2.52c.071-.412.773-.626,1-.284,1.179,1.824,3.087,2.527,4.949,3.306a1.64,1.64,0,0,1,1.083,2c-1.011,7.63-.657,15.291-.457,22.954.058,2.165.09,4.33.115,6.5.019,1.554.032,3.112.052,4.666a17.256,17.256,0,0,1-.064,1.907.9.9,0,0,1-1.36.792,20.273,20.273,0,0,1-4.917-2.938M175.6,77.006a5.321,5.321,0,0,1,1.393-.754c1.9-.593,3.828-1.121,5.761-1.611,3.216-.818,6.463-1.54,9.7-2.293a1.2,1.2,0,0,1,.625.038,1.138,1.138,0,0,1,.42.329c.019.019-.084.206-.168.251a4.451,4.451,0,0,1-.747.374.772.772,0,0,1-.11.026c-5.252.96-10.252,2.842-15.414,4.143-.407.1-.813.193-1.173.276-.155-.11-.3-.161-.316-.231-.025-.188-.057-.483.032-.548m-25.293,6.947c2.764-.7,5.561-1.3,8.306-2.07,2.848-.811,5.658-1.772,8.48-2.68.709-.226,1.385-.566,2.1-.722.993-.218,1.953-.908,3.036-.341-.071,1.733-1.663,1.4-2.6,1.739a97.354,97.354,0,0,1-16.9,4.4c-.632.1-1.264.155-1.824.218a1.912,1.912,0,0,1-.393-.006,5.8,5.8,0,0,1-.586-.188c.129-.121.232-.309.38-.347M147,84.635c.122,0,.252.206.374.316a1.008,1.008,0,0,1-.27.117c-.664.051-1.335.354-1.991.013.477-.735,1.224-.445,1.887-.445m-7.488,1.225a1.231,1.231,0,0,1,.251-.187,4.508,4.508,0,0,1,2.146-.483c1.006-.039,2.011-.059,3.016-.078h.02a.7.7,0,0,0,.1-.065h.007a.007.007,0,0,1,.006.008.176.176,0,0,0,.052.026.05.05,0,0,1-.013.024,1.034,1.034,0,0,0-.148.007,5.191,5.191,0,0,1-1.528.619c-.116.026-.226.052-.341.07-.226.046-.458.085-.684.11-.921.124-1.862.149-2.771.322-.077.014-.18-.1-.271-.154a1.685,1.685,0,0,1,.161-.218m-4.2-46.287c.206.2.483.451.5.7.155,2.545.342,5.1.374,7.648.058,4.472.014,8.945.014,13.416h-.188c0,6.387-.019,12.773.013,19.152.007,1.057.233,2.114.342,3.17a.812.812,0,0,1-.677.922,12.648,12.648,0,0,1-1.882.36c-5.194.452-10.394.878-15.588,1.315-.213.019-.425.014-.638.019a1.106,1.106,0,0,1-1.3-1.057,17.168,17.168,0,0,1-.123-1.913q.03-8.052.052-16.1.02-4.244.039-8.487c.013-2.024.071-4.04.122-6.063a1.571,1.571,0,0,1,1.257-1.625c2.358-.605,4.537-1.829,7-2.087a2.146,2.146,0,0,0,.876-.258c3.551-2.145,7.147-4.252,8.944-8.286a1.757,1.757,0,0,1,.38-.516c.142-.135.458-.342.49-.309m.142,47.112c-1.191.541-2.48.309-3.718.483-1.689.225-3.383.4-4.64.547a10.014,10.014,0,0,1-1.076-.006c-.445-.064-1,.284-1.3-.322.406-.084.812-.2,1.225-.246,1.907-.213,3.808-.489,5.722-.586,1.25-.064,2.552-.541,3.788.13M94.321,85.151c-.528-.032-1.063-.052-1.592-.122-1.05-.143-1.289-.4-1.32-1.418-.039-1.385-.014-2.77-.078-4.156q-.232-4.851-.232-9.7,0-4.9.238-9.8c.148-3.029.155-3.015,3.261-3.518a147.49,147.49,0,0,0,17.277-3.712c.07-.013.148-.038.218-.059.516-.147,1.045-.231,1.559-.36.7-.168,1.018.219,1.05.825.11,2.127.207,4.259.238,6.392.046,2.558.013,5.117.013,7.675-.077,5.644,0,11.289-.5,16.921-.026.316-.058.639-.091.954a1.193,1.193,0,0,1-1.211,1.224c-.638.025-1.276.032-1.915-.007q-8.458-.561-16.915-1.141m10.426,2.88c-.173.1-.347.277-.516.271-.921-.013-1.843-.071-2.764-.11.006-.09.02-.18.026-.276.934-.072,1.862-.155,2.8-.193.142-.007.3.2.45.309M77.9,83.856c-3.17-.393-6.327-.838-9.478-1.315-1.792-.277-1.837-.38-1.991-2.269-.064-.74-.091-1.487-.091-2.229,0-3.951-.083-7.887-.457-11.824-.1-1.032-.181-2.069-.213-3.107a24.255,24.255,0,0,1,.155-3.917c.161-1.264.284-1.463,1.624-1.38,6.838.432,13.635-.2,20.447-.618,1.392-.084,1.721.226,1.721,1.6.013,3.653.006,7.307.006,10.961V70.3c0,3.3.014,6.605-.013,9.9-.006,1.063-.11,2.121-.154,3.183-.032.7-.233,1.244-1.064,1.289-.805.052-1.508-.038-1.637-1.05-.025-.2-.122-.542-.225-.554-.387-.052-.465.3-.51.586-.135.876-.779.9-1.436.844-2.23-.2-4.466-.374-6.683-.65m5.484,2.313c-.284.045-.566.115-.851.142a2.285,2.285,0,0,1-.586-.071c-.077-.019-.142-.1-.219-.161a1.147,1.147,0,0,1,.271-.11c.193-.032.394-.038.735-.064.136.052.393.161.651.264M54.1,79.8a.1.1,0,0,1-.019-.026c-.574-.077-1.257.284-1.708-.316.573.1,1.134.2,1.7.3,0,.006.007.006.007.012H54.1V79.8a.444.444,0,0,0,.064.084.868.868,0,0,0,.188.149c.058.032.116.064.173.1a.566.566,0,0,1,.368.5.167.167,0,0,0,.058-.007.239.239,0,0,0,.032.045,1.893,1.893,0,0,1,.831.007,3.568,3.568,0,0,1,.438.109,2.3,2.3,0,0,1,.226.064,4.352,4.352,0,0,0,.6.149c.014,0,.02-.007.026-.007a.819.819,0,0,1,.11-.045l.006-.006a.182.182,0,0,1-.006.059v.032c2.088.548,4.143,1.205,6.213,1.811a50.947,50.947,0,0,0,7.809,1.8,3.721,3.721,0,0,1,.921.22c.174.07.3.264.458.4-.155.1-.316.291-.451.272a51.023,51.023,0,0,1-13.8-3.312c-.581-.246-1.153-.452-1.148-1.193-.026-.006-.045-.014-.07-.019A.258.258,0,0,1,57.081,81c-.76.334-1.494.515-2.094-.329a.455.455,0,0,0-.09.019v-.057c-.644.1-.838-.246-.793-.832M32.677,69.782a87.545,87.545,0,0,1-7.59-5.078,13.755,13.755,0,0,1-1.6-1.527.652.652,0,0,1-.11-.579c.173-.355.516-.3.8-.13a8.3,8.3,0,0,1,.76.574c3.73,2.79,7.255,5.87,11.361,8.145.5.276,1.1.554,1.076,1.277a.686.686,0,0,0,.077.045c.025.019.057.031.084.052.374-.065.786-.2,1.056-.065,2.449,1.238,4.859,2.546,7.275,3.835a.449.449,0,0,1,.135.258c-.148.1-.322.257-.464.238a3.245,3.245,0,0,1-.889-.3,49.753,49.753,0,0,1-4.563-2.4q-.888-.512-1.759-1.064s-.006.007-.006,0c-.264-.168-.528-.329-.786-.5-.007.006-.007.006-.014.006l-.161.019a.485.485,0,0,0,.006-.1.047.047,0,0,0,.007-.026q-2.369-1.3-4.692-2.681M19.932,57.275c-.091-.071-.181-.135-.264-.207a4.867,4.867,0,0,1-1.991-4.375c0-.045.006-.09.006-.136.11-2.172-.123-4.368-.175-6.553a20.851,20.851,0,0,1,.084-2.539c.11-1.088.561-1.347,1.443-.8,3.8,2.365,7.945,4.039,11.961,5.98,2.59,1.256,5.31,2.152,7.952,3.266,1.547.651,1.688.735,1.559,2.32-.181,2.2.328,4.383.328,6.392a8.666,8.666,0,0,1-.077,1.238c0,2.984.014,5.638-.006,8.293-.007,1.076-.47,1.411-1.354.909a70.391,70.391,0,0,1-6.54-3.951c-4.376-3.188-8.61-6.572-12.927-9.839m1.392,3.776c-.007.057-.188.148-.22.123a14.863,14.863,0,0,1-2.758-2.186,7.907,7.907,0,0,1-.754-.915c-.019-.039.058-.173.116-.225a.929.929,0,0,1,.264-.123,1.88,1.88,0,0,1,.58.206c.064.059.122.11.187.168.877.787,1.746,1.579,2.6,2.4.091.09.019.374-.019.554m-6.47-8.4a8.411,8.411,0,0,1-.67-.684c-1.392-1.423-2.275-2.964-1.8-5.115a16.688,16.688,0,0,0,.046-3.506h.334c0-1.695-.012-3.4.014-5.1a.586.586,0,0,1,.367-.412.652.652,0,0,1,.561.148,18.969,18.969,0,0,0,1.733,1.862,1.917,1.917,0,0,1,.793,2.449,9.824,9.824,0,0,0-.181,4.118c.155,1.8.309,3.6.419,5.407.014.213.052.458.052.69a.8.8,0,0,1-.36.767c-.613.352-.916-.3-1.3-.626m1.264,3.383a.308.308,0,0,1-.13.193c-.083.032-.232.044-.284-.013-.593-.587-1.179-1.187-1.753-1.791a.293.293,0,0,1-.058-.265c.026-.052.13-.071.148-.071.715.664,1.4,1.3,2.076,1.947m.341-22.954a1.9,1.9,0,0,1,1.057-1.5c.67-.336,1.933-.394.637-1.547-.038-.045.11-.386.238-.516a4.869,4.869,0,0,1,.76-.579c1.018-.677,2.32-.567,3.344-1.431a13.309,13.309,0,0,1,3.2-1.418,14.81,14.81,0,0,1,3.674-1.05c1.153-.2,2.3-.451,3.447-.664q3.771-.716,7.539-1.405c6.818-1.243,13.719-1.868,20.6-2.6,6.779-.714,13.545-1.54,20.337-2.171,3.177-.3,6.386-.2,9.576-.367a49.545,49.545,0,0,1,12.668,1.353c2.192.445,4.4.818,6.619,1.095a17.916,17.916,0,0,1,10.767,5.748,6.052,6.052,0,0,1,.516,6.851c-1.836,2.539-4.073,4.66-7.249,5.432a9.7,9.7,0,0,0-4,1.8,7.327,7.327,0,0,1-3.022.915c-3.859.813-7.764,1.315-11.682,1.753-5.936.671-11.883,1.114-17.857,1.25-.142.006-.283.006-.425.006-.284,0-.566-.006-.85-.006-6.5-.264-12.966-.838-19.442-1.431C50.973,42.061,45.056,41.216,39.083,41c-2.442-.083-4.871-.476-7.3-.786-1.018-.128-1.534-.882-1.54-2.087a.732.732,0,0,1,.8-.78,1.063,1.063,0,0,1,.322.013c4,1.2,8.235.876,12.282,1.862a53.6,53.6,0,0,0,9.2,1.121c2.017.141,4.041.219,6.064.315a35.37,35.37,0,0,0,7.34-.135,9.387,9.387,0,0,1,1.282-.084q9.9-.368,19.809-.722c4.375-.161,8.679-.986,13.016-1.5a42.676,42.676,0,0,0,9.029-2.506c.141-.052.276-.1.418-.148a17.11,17.11,0,0,0,2.088-.786,4.216,4.216,0,0,0,2.668-3.686,3.99,3.99,0,0,0-2.384-3.859,17.308,17.308,0,0,0-3.861-1.489,87.171,87.171,0,0,0-18.978-2.455c-.96-.019-1.92.013-2.874-.039-6.618-.393-13.21.284-19.8.612-9.788.483-19.576,1.115-29.314,2.339a54.192,54.192,0,0,0-11.225,2.409,13.4,13.4,0,0,0-4.279,2.7,2.855,2.855,0,0,0-1.056,2.842,17.861,17.861,0,0,1,.264,4.459.958.958,0,0,1-.135.458.776.776,0,0,1-.96.232c-2.725-.813-4.085-2.629-3.5-6.219m11.986,4.33c.013.1.045.207.058.31.059.5.322,1.063-.226,1.443a1.046,1.046,0,0,1-.78.019,1.947,1.947,0,0,1-1.153-.806,14.456,14.456,0,0,1-1.249-2.931c-.541-2.146.148-3.4,2.293-4.189a45.947,45.947,0,0,1,13.707-2.9c3.634-.175,7.217-.684,10.806-1.1,9.428-1.076,18.823-2.422,28.341-2.371,3.518,0,7.037-.046,10.555.006a86.98,86.98,0,0,1,16.767,2.185,13.771,13.771,0,0,1,2.977,1.121,3.511,3.511,0,0,1,1.856,2.48,2.42,2.42,0,0,1-1.114,2.758,24.057,24.057,0,0,1-2.327,1.045,17.468,17.468,0,0,1-2.442.741.727.727,0,0,1-.58-.161c-.251-.258-.128-.574.065-.825.322-.419.728-.786,1-1.231a1.926,1.926,0,0,0-.631-2.783,5.849,5.849,0,0,0-1.721-.813,27.244,27.244,0,0,0-3.448-.637,122.642,122.642,0,0,0-25.215-.188q-11.309,1.016-22.644,1.231a177.627,177.627,0,0,0-18.488,1.4,15.576,15.576,0,0,0-2.2.374c-3.8,1.05-4.446,1.958-4.208,5.818m76.787-5.451c-.038.058-.077.135-.116.206-.064.116-.135.226-.213.238-.547.091-.683-.322-.7-.741-.006-.175.194-.5.258-.5a.865.865,0,0,1,.7.477.963.963,0,0,1,.07.316m-2.706,4.176a4.411,4.411,0,0,1-2.365.786C95,37.608,89.887,38.58,84.629,38.645c-6.695.084-13.391.625-20.086.915-2.126.09-4.259.013-6.386.013-7.372-.18-14.614-1.482-21.89-2.468a13.573,13.573,0,0,1-1.869-.418c-.638-.182-1.191-.51-1.211-1.277s.612-1.063,1.173-1.353a6.646,6.646,0,0,1,2.783-.619c4.576-.213,9.144-.554,13.72-.639,4.478-.077,8.9-.818,13.358-1.076,1.379-.083,2.752-.289,4.137-.328,7.237-.226,14.461-.574,21.678-1.141a59.226,59.226,0,0,1,9.57.284,6.178,6.178,0,0,1,1.25.232c1.991.606,2.235,1.063,1.907,3.248-.11.722.155,1.74-.238,2.12M43.948,73.707A2.689,2.689,0,0,1,42.2,70.994c.077-2.333.019-4.679.019-7.018h-.129c0-1.122.019-2.237.019-3.358,0-.689-.006-1.378-.033-2.068a12.664,12.664,0,0,1,.6-4.389c.277-.857.47-1.012,1.385-.766,2.359.638,4.7,1.327,7.063,1.965a49.505,49.505,0,0,0,10.361,1.76,9.425,9.425,0,0,1,1.875.334c.406.1.78.336.774.85-.033,1.625,0,3.249.07,4.872.206,5.277.754,10.542.554,15.833-.013.426.007.851-.026,1.276-.064.844-.463,1.173-1.243.979-1.753-.425-3.532-.766-5.24-1.334a93.052,93.052,0,0,1-14.306-6.224m7.269,5.232a.276.276,0,0,1,.284-.019c.207.13.4.271.593.412.07.006.135.014.206.014a.656.656,0,0,0,.078.109c-.052-.006-.1-.019-.155-.025-.045-.033-.084-.065-.128-.1-.233-.006-.47-.019-.7-.032-.309-.013-.387-.148-.174-.361M88.509,52.771a138.59,138.59,0,0,1-16.678,1.023c-7.23.343-14.886-1.494-22.515-3.517-2.881-.767-5.774-1.489-8.654-2.237a75.312,75.312,0,0,1-16.336-6.334c-.9-.47-1.669-.928-1.721-2.068a.963.963,0,0,1,.123-.51.635.635,0,0,1,.851-.309,20.514,20.514,0,0,0,3.6,1.469,57.042,57.042,0,0,0,11.27,1.746c8.584.857,17.174,1.618,25.757,2.5,4.325.445,8.661.374,12.991.4.458,0,.915.007,1.373.014a164.724,164.724,0,0,0,20.079-1.205,66.615,66.615,0,0,0,20.582-5.465,11.117,11.117,0,0,0,4.317-3.679.713.713,0,0,1,.535-.258c.4,0,.522.348.5.657-.142,2.869-.309,5.729-.47,8.6-.046.742-.523,1.089-1.153,1.361a71.149,71.149,0,0,1-8.751,3q-1.48.406-2.978.767c-4.594,1.1-9.26,1.849-13.945,2.487-2.945.405-5.806,1.289-8.783,1.566m31.111-4.162c-.032.038-.064.076-.1.109-.052,0-.1-.007-.154-.007-1.237,1.154-2.791,1.1-4.33,1.141a.7.7,0,0,0-.1.051.343.343,0,0,0-.084.007c-.025.045-.052.1-.083.149-.11.218-.2.457-.367.521-.941.354-1.895.676-2.861.941a23.914,23.914,0,0,1-2.945.625c-.129.012-.407-.2-.413-.31a.622.622,0,0,1,.29-.483,25.6,25.6,0,0,1,3.17-.979,17.72,17.72,0,0,1,3.2-.464h.006c.013-.019.02-.034.033-.052.052,0,.1-.006.155-.006a8.463,8.463,0,0,1,4.33-1.141.683.683,0,0,0,.083-.072.241.241,0,0,1,.168-.03c.1-.1.194-.207.284-.31.122.392-.1.322-.284.31M105.23,52.745c-.006.064-.012.187-.032.192a1.384,1.384,0,0,1-.561.034c-.3-.1-.277-.252.052-.284a2.148,2.148,0,0,1,.541.058M98.11,54.22c.052-.077.09-.2.155-.22,1.2-.334,2.378-1.018,3.647-.625.568.175-1.643.864-3.8.845m9.756,33.373a1.462,1.462,0,0,1,.626-.1q5.731.221,11.47.464c-.026.064-.045.128-.072.193-3.5.155-7.018.316-10.523.452a6.808,6.808,0,0,1-1.578-.169c-.155-.031-.38-.309-.361-.431.033-.161.258-.322.438-.405M127.6,45.116c.07-.046.142-.084.213-.124.077.026.148.059.225.084-.109.07-.213.149-.322.219-.039-.058-.077-.122-.115-.18m6.862-17c.019-.046.129-.046.193-.071.039.09.11.186.1.271-.057.29-.2.322-.341.077-.039-.064.006-.2.051-.276M130.8,21.653c.387.334.761.683,1.135,1.019-.11.135-.161.263-.213.257-.5-.014-.606-.509-.9-.78a1.992,1.992,0,0,1-.284-.534c.09.012.2-.006.258.039m-13.783-7.307c1.011-.542,1.978.5,2.873,1.011,1.747,1.011,3.448,2.119,5.149,3.215a5.523,5.523,0,0,1,1.219,1.025,58.228,58.228,0,0,1,6.218,8.473c2.224,3.945,1.211,9.306-1.727,12.47a7.426,7.426,0,0,1-3.886,2.674c-.528.1-.863-.142-.869-.618-.033-2.236-.014-4.472-.014-6.708h.059c0-.3,0-.606-.013-.9-.007-.979-.026-1.965.026-2.939.283-5.084-2.281-8.454-6.464-10.87a4.475,4.475,0,0,0-1.147-.554,2.424,2.424,0,0,1-2.094-2.771c.014-.091.019-.187.033-.283.142-1.1-.586-2.559.638-3.222m-30.4-4.622c-.187-.1-.393-.161-.573-.27a1.021,1.021,0,0,1-.407-1.115c.084-.483.5-.638.941-.644,1.172-.006,2.339,0,3.5,0a58.315,58.315,0,0,1,10.755,1.289,116.06,116.06,0,0,1,12.476,3.8c1.037.38,1.643.972,1.5,2.107-.122.979.29,1.965.238,2.938a2.426,2.426,0,0,1-.3,1.1,13.6,13.6,0,0,1-3.718-.8,79.132,79.132,0,0,0-21.8-2.262c-2.958.084-3.473.1-3.609-1.726-.038-.5-.045-1.134-.064-1.939a1.486,1.486,0,0,1,1.159-1.637c.593-.194.342-.606-.11-.838M54.226,13.571c.136-1.03.349-2.6.522-4.189a1.261,1.261,0,0,1,1.219-1.217c.947-.135,1.894-.329,2.842-.38A177.835,177.835,0,0,1,81.42,7.411c.425.026.85.052,1.269.11a1.041,1.041,0,0,1,1.018,1.012c.11,1.482.1,2.983.342,4.446.077.47.135.857.154,1.185.1,1.586-.534,1.644-2.745,1.747-2.545.11-5.1.09-7.649.161-5.529.148-11.025.639-16.516,1.321a17.149,17.149,0,0,1-1.9.154c-.754.021-1.128-.367-1.16-1.185-.026-.741-.006-1.483-.006-2.791M27.709,20.08c.046-1.9.226-3.808.348-5.709,1.5-1.089,3.3-1.411,4.975-2.056.793-.3,1.636-.5,2.4-.857a22.457,22.457,0,0,1,5.336-1.669c1.817-.354,3.672-.561,5.535-.76,1.695-.182,3.383-.4,5.078-.548,1.141-.1,1.494.271,1.521,1.482.025,1.173.006,2.339.006,3.512h-.258c0,.747.013,1.494,0,2.236-.019,1.959.277,2.281-2.2,2.674-6.418,1-12.824,2.056-19.241,3.093-.523.084-1.045.193-1.572.257-1.528.188-1.927-.052-1.927-1.481ZM5.51,31.473A7.521,7.521,0,0,1,7.147,27.4a27.353,27.353,0,0,1,4.943-4.517,56.4,56.4,0,0,1,9.917-6.4A26.01,26.01,0,0,1,24.668,15.4c.728-.257,1.217.1,1.295.922.1.953.11,1.914.161,2.874.006.406.02.766.026,1.083.045,2.313-.1,2.4-3.047,3.583a32.31,32.31,0,0,0-3.448,1.682c-2.532,1.4-4.962,2.971-6.379,5.619-.471.87-1.617,1.179-1.772,2.2a26.492,26.492,0,0,0-.258,3.5c-.052,2.152-.006,4.317-.057,6.47,0,.077-.006.154-.006.232a26.384,26.384,0,0,1-.342,3.165.451.451,0,0,1-.735.249C7.945,44.612,5.762,42.293,5.561,38.8a48.877,48.877,0,0,1-.052-7.327m-2.094-.3a.006.006,0,0,0-.006.006c-.006,0-.006.006-.012.006-.026-.257-.058-.528-.084-.785.033.257.064.514.1.773m-.354.509v-.006a.007.007,0,0,0,.007-.007.422.422,0,0,1,.039-.173.587.587,0,0,1,.141-.188.879.879,0,0,1,.071-.064A.6.6,0,0,1,3.4,31.2V31.2a.839.839,0,0,1-.329.47,1.082,1.082,0,0,0,.2.542.939.939,0,0,1,.206.58c-.044.335-.142.619-.515.567-.342-.052-.407-.38-.477-.69-.117-.535.271-.735.579-.986m19.951,75.271c-.432.3-.831-.006-1.16-.251-5.051-3.743-9.936-7.668-13.687-12.8A6.638,6.638,0,0,1,7.153,92.31,72.861,72.861,0,0,1,3.661,75.847c-.535-5.62-.89-11.245-1.219-16.87-.309-5.31-.541-10.62-.793-15.936A18.307,18.307,0,0,1,1.7,40.816.566.566,0,0,1,2.05,40.4a.616.616,0,0,1,.47.258c.3.438.561.909.838,1.353,1.476,2.345,2.893,4.723,4.427,7.017a64.3,64.3,0,0,0,9.634,10.942c.322.316.644.619.972.922s.651.554.967.844c2.745,2.571,2.159,1.7,2.288,5.175.019.51.038,1.012.058,1.521.186,4.916.405,9.833.618,14.743.206,7.121.335,14.248,1.025,21.349a10.4,10.4,0,0,1,.013,1.276c0,.419.032.889-.348,1.153m21.181,8.687c-5.5-1.669-10.89-3.654-16.239-5.76-.392-.155-.786-.31-1.186-.471a2.219,2.219,0,0,1-1.572-2.171c.012-4.9-1.057-9.718-1.2-14.623-.226-8.08-.7-16.147-1.063-24.228-.026-.633-.007-1.277.019-1.915.013-.3-.006-.63.354-.8a.767.767,0,0,1,.857.187c2.616,2.023,5.452,3.711,8.2,5.535a117.266,117.266,0,0,0,13.1,7.224,2.941,2.941,0,0,1,1.837,2.641c.606,4.981.522,9.982.728,17.3.161,2.076.5,5.438.754,9.132.084,1.243.155,2.531.207,3.82.238,6.052,1.637,6.077-4.8,4.125m27.954,5.948c-.1-.02-.193-.032-.3-.052-3.248-.535-6.476-1.213-9.7-1.857-2.816-.554-5.606-1.275-8.449-1.675A2.8,2.8,0,0,1,51,115.1c-.271-2.5-.715-4.988-.921-7.488-.025-.355-.052-.715-.07-1.07-.432-8.074-.722-16.154-1.057-24.236a3.933,3.933,0,0,1,.071-.953.72.72,0,0,1,.922-.625q1.672.5,3.3,1.153A81.4,81.4,0,0,0,65.9,86.2c1.971.438,3.982.682,5.967,1.043,1.585.29,1.726.754,1.881,2.094.478,4.24.284,8.5.581,13.159a90.532,90.532,0,0,0,.651,15.833,2.742,2.742,0,0,1,.025.316c.032,3.292-.186,3.377-2.861,2.946m31.808,3.834c-1.8-.129-3.6-.355-5.4-.561-5.813-.65-11.671-.954-17.45-1.92-.42-.07-.851-.07-1.27-.142-2.964-.5-2.97-.5-3.125-3.551-.155-3.079-.844-6.1-.876-9.207-.065-5.638-.246-11.277-.38-16.915-.033-1.489-.1-2.978-.1-4.466a.958.958,0,0,1,1.256-1.025,47.007,47.007,0,0,0,8.2,1.193c1.295.14,1.63.528,1.675,1.855.039,1.065.006,2.128.006,3.191.058.039.11.077.168.115,0-.953-.025-1.908.006-2.868.052-1.8.329-2.087,2-2.113,5.013-.077,9.988.586,14.989.824,1.378.065,1.643.374,1.695,1.779a88.217,88.217,0,0,1-.226,11.811,56.9,56.9,0,0,0-.058,9.879c.258,3.5.445,7.018.593,10.522.058,1.373-.309,1.695-1.707,1.6m68.319-2.482c-1.573.3-3.158.529-4.743.742-8.132,1.069-16.284,2-24.487,2.384q-1.914.085-3.828.154c-3.834.142-7.662.239-11.5.349-.3.007-.605.013-.909.013-.869,0-1.739-.032-2.609-.065q-6.236-.242-12.463-.509c-.96-.039-1.92-.1-2.868-.212a1.281,1.281,0,0,1-1.237-1.232c-.058-.637-.142-1.275-.2-1.913-.361-4.246-.74-8.486-1.07-12.74a18.856,18.856,0,0,1-.006-3.511c.535-4.678.4-9.37.483-14.061a7.213,7.213,0,0,1,.116-1.585,1.1,1.1,0,0,1,.644-.612,4.844,4.844,0,0,1,1.257-.1c4.581-.179,9.163-.4,13.745-.521,3.415-.09,6.8-.528,10.181-.954.741-.1,1.483-.18,2.23-.213,1.431-.064,1.675.077,1.92,1.475a72.623,72.623,0,0,1,1.153,11.445c.058,4.473-.012,8.957-.155,13.43-.1,3.092.052,6.173.258,9.246a1.687,1.687,0,0,0,.258.883,1.064,1.064,0,0,0,.76.425.982.982,0,0,0,.715-.509,3.134,3.134,0,0,0,.052-2.2c-.721-2.721-.56-5.5-.554-8.269q.009-5.917.1-11.831c.052-3.642-.574-7.224-.793-10.839-.039-.535-.122-1.063-.149-1.592-.084-1.754.161-2.107,1.811-2.378,1.887-.316,3.795-.555,5.69-.851,8.216-1.289,16.386-2.784,24.268-5.542a7.833,7.833,0,0,1,.927-.238c.747-.148,1.2.188,1.27,1.012.083.954.116,1.915.148,2.874q.3,8.786.586,17.56c.052,1.385.1,2.777.142,4.163h-.064q.26,6.554.516,13.1c.013.426.044.851.032,1.276-.057,1.314-.341,1.7-1.63,1.946m33.187-8.866c-1.637.483-3.281.94-4.9,1.45-1.4.445-2.906.65-3.918,1.978a3.251,3.251,0,0,1-1.688.832c-5.748,1.617-11.632,2.656-17.483,3.821-1.153.226-1.585-.11-1.779-1.231a24.084,24.084,0,0,1-.374-3.178c-.206-5.109-.367-10.226-.541-15.342-.077,0-.155.006-.231.006,0-4.693.038-9.383-.02-14.074-.026-2.223-.187-4.459-.418-6.669-.091-.851.528-.838.863-1.225a3.674,3.674,0,0,1,1.83-1.172c2.043-.606,4.066-1.27,6.109-1.876q4.978-1.479,10.007-2.777,5.192-1.323,10.426-2.468c.31-.071.606-.2.915-.271,1.27-.284,1.547-.1,1.689,1.115.219,1.907.4,3.821.657,5.722.619,4.549.76,9.131,1,13.707.29,5.748.664,11.5.972,17.243.187,3.435.161,3.435-3.112,4.408m32.226-9.879a94.85,94.85,0,0,1-10.04,3.137,113.39,113.39,0,0,0-11.026,3.2q-2.427.782-4.891,1.462c-.793.22-1.238-.11-1.309-.9-.213-2.435-.45-4.871-.6-7.308-.426-6.907-.787-13.815-1.237-20.716-.161-2.546-.523-5.079-.767-7.617a18.458,18.458,0,0,1-.1-2.23c.038-1.83.116-1.958,1.888-2.313,3.654-.735,7.32-1.372,10.973-2.113,3.963-.806,7.907-1.675,11.863-2.52.523-.11,1.031-.264,1.559-.355,1.353-.225,1.8.057,1.959,1.36.233,1.9.42,3.808.6,5.715.438,4.66.792,9.332,1.32,13.976.367,3.287.555,6.58.716,10.7.058.986.168,2.79.271,4.595.07,1.238-.026,1.541-1.179,1.927m20.086-8.694c-.941.5-1.818,1.128-2.778,1.572-2.751,1.27-5.457,2.643-8.248,3.822-.929.387-1.869.761-2.822,1.1-.5.18-1,.373-1.508.521-1.418.412-1.786.193-1.927-1.186-.2-2.01-.361-4.027-.541-6.044q-.861-9.695-1.715-19.4-.4-4.611-.728-9.234a1.831,1.831,0,0,1,1.4-2.16,74.669,74.669,0,0,0,11.5-4.737c1.8-.888,3.6-1.835,5.368-2.8,1.166-.638,1.4-.51,1.52.9.239,2.86.387,5.736.613,8.6.083,1.1.174,2.2.271,3.313.251,3.028.515,6.064.74,9.1.155,2.12.206,4.252.309,6.38a1.381,1.381,0,0,0-.155.006,59.041,59.041,0,0,0,.394,6.682,2.956,2.956,0,0,1-1.7,3.576m21.7-28.115c-.057,2.023-.039,4.047-.122,6.064a5.022,5.022,0,0,1-.425,1.836c-.367.786-1.791.6-1.843,1.553-.046.8.36,1.65-.135,2.416-.13.2-.258.4-.394.6a14.452,14.452,0,0,1-1.289,1.713,45.507,45.507,0,0,1-7.23,6.728c-1.714,1.263-3.383,2.59-5.109,3.827-.9.638-1.637.271-1.8-.844a19.709,19.709,0,0,1-.18-2.545c-.025-5.007-.522-9.982-1-14.962-.135-1.373-.251-2.752-.36-4.131-.329-4.137-.555-8.281-.626-12.43a3.207,3.207,0,0,1,1.566-3.163,84.959,84.959,0,0,0,11.581-9.493c1.553-1.45,3.125-2.9,4.807-4.194.851-.658,1.264-2.011,2.668-1.888.671,1.057.49,2.262.523,3.4.07,2.442.025,4.89.025,7.977.407,5.445-.483,11.478-.657,17.534m5.329-39.766c-.155.246-.5.651-.618.612-1.714-.618-1.553.8-1.9,1.676-.1.264-.186.709-.579.516-.188-.09-.284-.522-.291-.8-.026-1.385.046-2.777-.006-4.156A15.682,15.682,0,0,0,278,16.343c-.644-.844-1.327-1.669-1.985-2.507a16.677,16.677,0,0,0-8.931-5.723c-4.466-1.289-9.028-1.546-13.558-2.061-6.67-.76-13.4-.819-20.672-.954-3.8.2-8.177.322-12.527.715a69.672,69.672,0,0,0-7.218,1.347,61.606,61.606,0,0,0-19.041,6.651c-.148.077-.291.161-.439.244-.238.142-.767.284-.8.213-.3-.5.187-.722.483-.961a23.873,23.873,0,0,1,2.056-1.52c.257-.168.522-.329.786-.49A47.241,47.241,0,0,1,210.815,5.1a132.446,132.446,0,0,1,24.958-3.428c3.087-.09,6.167-.5,9.26-.3a102.929,102.929,0,0,1,23.282,3.859c2.34.715,4.775,1.161,6.934,2.378,5.909,3.345,9.692,8.2,10.523,15.092a7.335,7.335,0,0,1-.967,4.923" transform="translate(0 0)" fill="#351b1b"/>
        <path id="Trazado_777841" data-name="Trazado 777841" d="M303.828,168.837a8.74,8.74,0,0,0,.874-4.363c-.267-3.349-2.483-4.216-4.08-4.058-2.694.244-3.656,2.766-3.455,5.285l.115,1.451-1.954.156-.116-1.451c-.151-1.9-1.321-4.22-3.6-4.038-1.541.123-2.825,1.209-2.634,3.609a7.1,7.1,0,0,0,1.581,3.75l-1.842.832a9.184,9.184,0,0,1-1.884-4.918c-.3-3.793,1.814-5.691,4.154-5.878,1.985-.159,3.769.893,4.817,3.195l.06,0a5.031,5.031,0,0,1,4.606-4.691c3.081-.246,5.969,1.94,6.337,6.563a9.825,9.825,0,0,1-.9,5.111Z" transform="translate(-101.987 -56.076)"/>
        <path id="Trazado_777842" data-name="Trazado 777842" d="M287.8,143.165l.005.059,2.074,3.2-1.946.662-2.587-4.028-.177-2.222,19.26-1.534.2,2.518Z" transform="translate(-101.405 -49.537)"/>
        <path id="Trazado_777843" data-name="Trazado 777843" d="M351.641,156.452a8.751,8.751,0,0,0,.463-4.426c-.579-3.309-2.866-3.964-4.443-3.66-2.659.5-3.381,3.1-2.946,5.585l.251,1.435-1.933.338-.251-1.434c-.328-1.875-1.709-4.076-3.964-3.682-1.523.266-2.7,1.467-2.285,3.839a7.092,7.092,0,0,0,1.924,3.586l-1.756,1a9.182,9.182,0,0,1-2.335-4.722c-.655-3.748,1.273-5.835,3.586-6.24,1.962-.343,3.835.536,5.095,2.73l.058-.01a5.033,5.033,0,0,1,4.147-5.1c3.045-.532,6.124,1.373,6.923,5.941a9.825,9.825,0,0,1-.423,5.173Z" transform="translate(-118.856 -51.777)"/>
        <path id="Trazado_777844" data-name="Trazado 777844" d="M350.61,132.577l-1.581.276-2.315-1.678c-5.476-4.051-8.319-5.816-11.194-5.344-1.933.338-3.556,1.587-3.058,4.427a6.578,6.578,0,0,0,2.317,3.759l-1.672,1.137a8.478,8.478,0,0,1-2.875-5.05c-.717-4.1,1.791-6.319,4.515-6.8,3.513-.614,6.8,1.437,11.365,4.772l1.672,1.278.059-.01-1.5-8.55,2.137-.374Z" transform="translate(-117.387 -42.824)"/>
        <path id="Trazado_777845" data-name="Trazado 777845" d="M390.878,132.22a7.092,7.092,0,0,0,.248-3.6c-.563-2.662-2.435-3.127-3.7-2.835-2.139.477-2.649,2.6-2.225,4.606l.244,1.155-1.554.329-.244-1.155c-.32-1.508-1.5-3.251-3.315-2.867-1.226.259-2.144,1.266-1.74,3.174a5.743,5.743,0,0,0,1.662,2.848l-1.393.861a7.437,7.437,0,0,1-2.027-3.756c-.638-3.016.863-4.761,2.725-5.155a3.886,3.886,0,0,1,4.2,2.065l.047-.01a4.078,4.078,0,0,1,3.211-4.249c2.451-.518,5,.936,5.776,4.611a7.949,7.949,0,0,1-.195,4.2Z" transform="translate(-133.948 -43.929)"/>
        <path id="Trazado_777846" data-name="Trazado 777846" d="M386.908,113.468a7.094,7.094,0,0,0,.248-3.6c-.564-2.662-2.435-3.127-3.7-2.835-2.139.477-2.649,2.6-2.226,4.606l.245,1.154-1.554.329-.245-1.154c-.319-1.508-1.5-3.252-3.315-2.868-1.226.259-2.144,1.266-1.74,3.175a5.746,5.746,0,0,0,1.662,2.848l-1.393.861a7.437,7.437,0,0,1-2.027-3.756c-.638-3.016.863-4.761,2.725-5.155a3.886,3.886,0,0,1,4.2,2.064l.047-.01a4.078,4.078,0,0,1,3.211-4.249c2.451-.518,5,.936,5.776,4.611a7.956,7.956,0,0,1-.195,4.2Z" transform="translate(-132.537 -37.26)"/>
        <path id="Trazado_777847" data-name="Trazado 777847" d="M422.847,112.8a7.091,7.091,0,0,0,.248-3.6c-.563-2.662-2.435-3.127-3.7-2.835-2.139.477-2.649,2.6-2.225,4.606l.244,1.155-1.554.329-.244-1.155c-.32-1.508-1.5-3.251-3.315-2.867-1.226.259-2.144,1.266-1.74,3.174a5.743,5.743,0,0,0,1.662,2.848l-1.393.861a7.436,7.436,0,0,1-2.027-3.756c-.638-3.016.863-4.761,2.725-5.155a3.886,3.886,0,0,1,4.2,2.065l.047-.01a4.078,4.078,0,0,1,3.211-4.249c2.451-.518,5,.936,5.776,4.611a7.95,7.95,0,0,1-.195,4.2Z" transform="translate(-145.317 -37.022)"/>
        <path id="Trazado_777848" data-name="Trazado 777848" d="M419.781,87.106l-4.17.883,1.506,7.115-1.366.289L404.528,90.63l-.474-2.238,9.518-2.014-.454-2.144,1.626-.345.454,2.145,4.17-.883Zm-5.8,1.227-5.113,1.082q-1.2.254-2.418.438l.015.071c.995.282,1.733.518,2.531.793l6,2.643.047-.01Z" transform="translate(-143.682 -29.831)"/>
        <path id="Trazado_777849" data-name="Trazado 777849" d="M245.431,180.859a8.726,8.726,0,0,0,.874-4.363c-.267-3.349-2.482-4.216-4.08-4.058-2.694.244-3.656,2.766-3.455,5.285l.115,1.451-1.955.156-.116-1.451c-.151-1.9-1.32-4.22-3.6-4.038-1.541.123-2.826,1.209-2.634,3.609a7.094,7.094,0,0,0,1.581,3.75l-1.842.832a9.184,9.184,0,0,1-1.884-4.918c-.3-3.793,1.814-5.691,4.154-5.878,1.985-.159,3.768.893,4.817,3.195l.059,0a5.032,5.032,0,0,1,4.606-4.691c3.081-.246,5.968,1.94,6.337,6.563a9.824,9.824,0,0,1-.9,5.111Z" transform="translate(-81.221 -60.351)"/>
        <path id="Trazado_777850" data-name="Trazado 777850" d="M235.71,145.327c6.548-.522,10.357,1.62,10.7,5.887.3,3.763-3.024,6.593-9.39,7.159-6.459.515-10.237-1.987-10.548-5.9-.323-4.06,3.107-6.659,9.241-7.147m1.13,10.435c5.008-.4,7.73-2.165,7.541-4.536-.213-2.667-3.426-3.693-8.344-3.3-4.741.378-7.755,1.84-7.54,4.537.182,2.282,3.1,3.718,8.344,3.3" transform="translate(-80.525 -51.651)"/>
        <path id="Trazado_777851" data-name="Trazado 777851" d="M198.2,182.817l-1.6.127-2.148-1.886c-5.073-4.546-7.739-6.57-10.645-6.368-1.956.155-3.688,1.248-3.458,4.122a6.576,6.576,0,0,0,1.955,3.96l-1.771.975a8.471,8.471,0,0,1-2.389-5.3c-.331-4.149,2.375-6.123,5.131-6.343,3.556-.284,6.635,2.065,10.869,5.812l1.546,1.428.059,0-.689-8.652,2.163-.173Z" transform="translate(-63.339 -60.637)"/>
        <path id="Trazado_777852" data-name="Trazado 777852" d="M194.346,158.045a10.815,10.815,0,0,0-.256-2.1,7.281,7.281,0,0,0-2.188-3.882,8.472,8.472,0,0,0-5.329-2.139l.008.089a5.668,5.668,0,0,1,2.435,4.368,5.6,5.6,0,0,1-5.444,6.159,6.624,6.624,0,0,1-7.368-6.034c-.314-3.941,2.693-6.625,7.612-7.017,4.237-.338,7.313.849,9.3,2.6a9.651,9.651,0,0,1,3.024,5.395,12.188,12.188,0,0,1,.34,2.388Zm-11.157-.066c2.4-.191,3.973-1.777,3.795-4.029a4.323,4.323,0,0,0-2.317-3.632,1.728,1.728,0,0,0-.968-.162c-3.288.262-5.71,1.677-5.493,4.4.177,2.223,2.257,3.637,4.983,3.42" transform="translate(-62.65 -52.428)"/>
        <path id="Trazado_777853" data-name="Trazado 777853" d="M146.653,183.335h-1.547l-1.919-1.978c-4.524-4.758-6.931-6.909-9.739-6.938-1.891,0-3.639.915-3.64,3.694a6.334,6.334,0,0,0,1.574,3.955l-1.777.8a8.17,8.17,0,0,1-1.889-5.273c0-4.012,2.754-5.7,5.418-5.7,3.438,0,6.217,2.5,10,6.423l1.375,1.49h.057l0-8.366h2.092Z" transform="translate(-45.416 -60.966)"/>
        <path id="Trazado_777854" data-name="Trazado 777854" d="M141.935,160.5c-2.349,0-4.01-1.406-4.983-3.7l-.086.028a4.613,4.613,0,0,1-4.184,2.949c-2.952,0-4.956-2.5-4.955-5.762,0-3.611,2.266-5.414,4.587-5.412a4.73,4.73,0,0,1,4.354,3.067h.086c.918-2.32,2.552-3.752,4.816-3.751,3.237,0,5.414,2.782,5.412,6.335,0,3.9-2.324,6.244-5.046,6.244m-9.424-3.1c1.862,0,2.866-1.4,3.439-3.552a3.667,3.667,0,0,0-3.379-2.837,2.9,2.9,0,0,0-3.04,3.15,2.962,2.962,0,0,0,2.979,3.239m9.315-6.93c-2.264,0-3.353,1.574-4.07,4.1.628,2.178,2.061,3.354,3.837,3.355a3.446,3.446,0,0,0,3.555-3.725c0-2.263-1.4-3.725-3.322-3.726" transform="translate(-45.42 -52.601)"/>
        <path id="Trazado_777855" data-name="Trazado 777855" d="M101.439,173.864H100.2l-1.531-1.579c-3.612-3.8-5.532-5.514-7.773-5.539a2.652,2.652,0,0,0-2.906,2.949,5.063,5.063,0,0,0,1.256,3.157l-1.418.639a6.521,6.521,0,0,1-1.507-4.209,4.183,4.183,0,0,1,4.325-4.549c2.744,0,4.962,1.992,7.98,5.127l1.1,1.19h.046l0-6.679h1.67Z" transform="translate(-30.697 -58.451)"/>
        <path id="Trazado_777856" data-name="Trazado 777856" d="M86.724,145.906H88.05l13.537,6.479v2.081l-13.148-6.456h-.045l0,7.273h-1.67Z" transform="translate(-30.837 -51.884)"/>
        <path id="Trazado_777857" data-name="Trazado 777857" d="M61.041,159.335H59.806l-1.531-1.579c-3.612-3.8-5.532-5.514-7.773-5.539a2.652,2.652,0,0,0-2.906,2.949,5.063,5.063,0,0,0,1.256,3.157l-1.418.639a6.52,6.52,0,0,1-1.507-4.209,4.183,4.183,0,0,1,4.325-4.549c2.744,0,4.962,1.992,7.98,5.127l1.1,1.19h.046l0-6.679h1.67Z" transform="translate(-16.331 -53.284)"/>
        <path id="Trazado_777858" data-name="Trazado 777858" d="M47.619,132.384a7.28,7.28,0,0,0,.09,1.51,6.044,6.044,0,0,0,5.282,5.171V139a4.431,4.431,0,0,1-1.714-3.592c0-2.63,1.9-4.482,4.805-4.481a4.971,4.971,0,0,1,5.235,4.943c0,3.179-2.473,5.26-6.338,5.258a9.347,9.347,0,0,1-6.7-2.519,8.094,8.094,0,0,1-2.194-4.758,9.562,9.562,0,0,1-.113-1.464Zm8.576.576c-2.127,0-3.408,1.211-3.409,3.063a3.312,3.312,0,0,0,1.828,2.883,1.714,1.714,0,0,0,.891.229c2.448-.045,4.254-1.165,4.256-3.269,0-1.739-1.439-2.906-3.566-2.906" transform="translate(-16.348 -46.557)"/>
        <path id="Trazado_777859" data-name="Trazado 777859" d="M22.056,139.019l-1.133-.051-1.341-1.51c-3.159-3.632-4.851-5.285-6.907-5.4a2.435,2.435,0,0,0-2.786,2.587,4.651,4.651,0,0,0,1.024,2.947l-1.327.529A5.993,5.993,0,0,1,8.375,134.2a3.841,3.841,0,0,1,4.153-4c2.518.113,4.47,2.03,7.112,5.028l.958,1.137.043,0,.275-6.127,1.531.069Z" transform="translate(-2.976 -46.299)"/>
        <path id="Trazado_777860" data-name="Trazado 777860" d="M11.152,113.67l-.233,5.2,3.481.682a7.224,7.224,0,0,1-.035-1.116,5.774,5.774,0,0,1,.866-2.9,3.892,3.892,0,0,1,3.592-1.795c2.665.119,4.562,2.328,4.43,5.287a6.674,6.674,0,0,1-.992,3.362l-1.385-.525a6.115,6.115,0,0,0,.886-2.882,3.012,3.012,0,0,0-2.812-3.364c-1.765-.057-3.076,1.061-3.2,3.788a14.21,14.21,0,0,0,.061,1.895l-6.506-1.174L9.6,113.6Z" transform="translate(-3.31 -40.396)"/>
      </g>
    </g>
  </g>
</svg>
