<svg xmlns="http://www.w3.org/2000/svg" xmlns:xlink="http://www.w3.org/1999/xlink" width="220.031" height="208.738" viewBox="0 0 220.031 208.738">
  <defs>
    <clipPath id="clip-path">
      <rect id="Rectángulo_362251" data-name="Rectángulo 362251" width="95.482" height="94.006" fill="none"/>
    </clipPath>
  </defs>
  <g id="Grupo_1065384" data-name="Grupo 1065384" transform="translate(-338.751 -1130.857)">
    <g id="Grupo_1065170" data-name="Grupo 1065170" transform="translate(1.782 338.648)">
      <path id="Trazado_100521" data-name="Trazado 100521" d="M103.783,434.588C-27.656,429.281,22.1,639.336,174.577,629.536S211.6,438.946,103.783,434.588Z" transform="translate(308.966 357.72)" fill="#fff"/>
    </g>
    <g id="Grupo_1065183" data-name="Grupo 1065183" transform="translate(338.751 1158.673)">
      <g id="Grupo_1065182" data-name="Grupo 1065182" clip-path="url(#clip-path)">
        <path id="Trazado_777897" data-name="Trazado 777897" d="M94.938,5.684A5.933,5.933,0,0,1,96.583,7.79a11.352,11.352,0,0,1,1.191,5.18,37.714,37.714,0,0,1-.353,4.474,24.511,24.511,0,0,1-1.027,4.8,3.8,3.8,0,0,0-.192.817c-.559,3.664-1.53,7.241-2.407,10.824-1.306,5.327-2.529,10.681-3.982,15.973-.887,3.238-1.883,6.447-2.822,9.675-.342,1.181-.657,2.375-1,3.56-.437,1.5-.883,3-1.327,4.505-.143.486-.3.964-.433,1.45-.6,2.277-1.163,4.562-1.792,6.825a70.438,70.438,0,0,1-4.88,13.035A15.075,15.075,0,0,1,75.318,92.1c-.29.325-.587.643-.887.954a3.8,3.8,0,0,1-3.619,1.338,7.142,7.142,0,0,0-1.341-.028,4.716,4.716,0,0,1-2.092-.552A18.2,18.2,0,0,1,64.347,91.7q-.713-.571-1.421-1.15c-2.829-2.3-5.6-4.673-8.236-7.2-4.569-4.384-9.054-8.848-13.3-13.546Q40,68.266,38.59,66.736q-2.451-2.683-4.932-5.348c-.838-.9-1.792-1.694-2.626-2.6-1.869-2.012-3.692-4.066-5.536-6.1q-2.143-2.362-4.227-4.768-5.129-5.9-9.937-12.082a52.313,52.313,0,0,1-4.16-6.9A26.513,26.513,0,0,1,5.153,24.7a5.892,5.892,0,0,1-.265-3.3,9.97,9.97,0,0,0,.3-1.484,8.026,8.026,0,0,1,1.872-4.247,4.417,4.417,0,0,1,2.892-1.851c5.264-.775,10.521-1.6,15.788-2.361Q49.026,8.09,72.321,4.772c3.1-.44,6.22-.814,9.333-1.181,1.834-.216,3.675-.394,5.515-.524a10.986,10.986,0,0,1,7.769,2.616M51.022,55.111a13.819,13.819,0,0,0,3.88,1.572,35.371,35.371,0,0,0,6.85.412A13.676,13.676,0,0,0,68.5,54.766a19.871,19.871,0,0,0,2.7-1.988A14.146,14.146,0,0,0,76.439,43.2a19.057,19.057,0,0,0,.234-3.4,18.484,18.484,0,0,0-1.781-8.124,43.077,43.077,0,0,0-3.329-5.236,27.079,27.079,0,0,0-1.729-2.266,5.541,5.541,0,0,0-1.271-1.328,29.27,29.27,0,0,0-4.415-2.4,19.552,19.552,0,0,0-13.968-.122,11.914,11.914,0,0,0-5.8,4.129,35.462,35.462,0,0,0-3.975,6.595,14.693,14.693,0,0,0-1.173,5.532A16.212,16.212,0,0,0,40.4,43.627a26.643,26.643,0,0,0,4.75,7.666,7.662,7.662,0,0,0,1.631,1.436q2.069,1.278,4.244,2.381" transform="translate(-3.096 -1.979)" fill="#e8e8e8"/>
        <path id="Trazado_777898" data-name="Trazado 777898" d="M138.484,60.894a16,16,0,0,1,2.979,8.254c.024.9.143,1.791.126,2.683-.014.838-.147,1.677-.231,2.511-.471,4.433-2.885,7.653-6.357,10.227a18.691,18.691,0,0,1-5.4,2.655,9.447,9.447,0,0,1-4.314.422,14,14,0,0,0-2.508-.154,6.962,6.962,0,0,1-3.1-.618,35.58,35.58,0,0,1-5.819-2.99,14.784,14.784,0,0,1-3.378-2.99,19.236,19.236,0,0,1-3.3-5.627c-.272-.8-.583-1.575-.891-2.358a11.552,11.552,0,0,1-.559-3.974c-.028-1.062.056-2.127.126-3.189a5.332,5.332,0,0,1,.8-2.7,3.229,3.229,0,0,0,.343-.765,24.5,24.5,0,0,1,3.831-6.27,11.372,11.372,0,0,1,5.62-3.782,18.762,18.762,0,0,1,10.587-.7,18.116,18.116,0,0,1,5.494,2.421c1.956,1.183,3.137,2.986,4.419,4.739.527.723,1.044,1.457,1.526,2.211" transform="translate(-68.802 -33.232)" fill="#e8e8e8"/>
        <path id="Trazado_777899" data-name="Trazado 777899" d="M3.47,67.406a10.8,10.8,0,0,1,1.6,2.86A52.069,52.069,0,0,0,8.86,76.973c1.481,2.088,3.154,4.051,4.806,6.014,2.051,2.438,4.164,4.824,6.245,7.231.185.213.353.432.527.649.095.122.077.216-.049.262a.192.192,0,0,1-.146,0,6.641,6.641,0,0,1-.622-.552,86.756,86.756,0,0,1-6.158-6.857c-1.464-1.9-3.189-3.59-4.555-5.574A39.622,39.622,0,0,1,3.7,68.807a2.023,2.023,0,0,1-.227-1.4" transform="translate(-2.216 -43.862)" fill="#fff2fc"/>
        <path id="Trazado_777900" data-name="Trazado 777900" d="M95.474,9.869A9.565,9.565,0,0,0,88.67.809a14.436,14.436,0,0,0-6.8-.664C76.323.938,70.787,1.763,65.2,2.3c-3.783.363-7.548.94-11.324,1.432Q49.135,4.347,44.394,5c-2.274.311-4.537.73-6.818.957-2.4.241-4.772.639-7.146,1.027-4.754.779-9.5,1.621-14.254,2.375-3.318.528-6.65.971-9.979,1.415a4.685,4.685,0,0,0-3.5,2.044A14.816,14.816,0,0,0,.094,19.3a13.463,13.463,0,0,0,1.191,7.366,45.56,45.56,0,0,0,5.069,8.5c1.471,1.9,3.13,3.661,4.624,5.547a49.722,49.722,0,0,0,3.811,4.251c.594.593,1.188,1.187,1.774,1.791.13.133.255.265.385.4,2.553,2.651,5.04,5.362,7.5,8.1,3.1,3.462,6.263,6.87,9.434,10.269.105.112.206.224.315.331,1.694,1.81,3.434,3.584,5.187,5.337,1.942,1.938,4.021,3.748,5.886,5.753,3.786,4.063,7.911,7.768,11.952,11.561.671.626,1.345,1.254,2.054,1.834A14.433,14.433,0,0,0,62.6,92.493a2.731,2.731,0,0,1,.793.608,2.346,2.346,0,0,0,2.571.776,2.621,2.621,0,0,1,.5-.021,8.618,8.618,0,0,0,5.019-2.127q.629-.6,1.212-1.226a16.883,16.883,0,0,0,2.913-4.241c1.089-2.337,1.994-4.747,2.847-7.178.59-1.694,1.226-3.37,1.656-5.114.391-1.575.8-3.147,1.205-4.719.248-.978.468-1.963.751-2.931,1.254-4.3,2.536-8.592,3.793-12.892,1.809-6.186,3.325-12.448,4.883-18.7q1.221-4.894,2.351-9.8c.653-2.836,1.24-5.69,1.858-8.533a33.769,33.769,0,0,0,.52-6.525m-77.3,37.4c-.045.014-.119.021-.147,0a6.634,6.634,0,0,1-.622-.552,86.682,86.682,0,0,1-6.158-6.857c-1.464-1.9-3.189-3.59-4.555-5.574a39.6,39.6,0,0,1-5.211-9.337,2.02,2.02,0,0,1-.227-1.4.16.16,0,0,1-.024-.025v-.049c-.073-.038-.164-.073-.171-.122-.028-.126.076-.185.147-.1.042.048.028.139.024.223l.042.021a.324.324,0,0,0-.018.053A10.821,10.821,0,0,1,2.85,26.4a52.064,52.064,0,0,0,3.793,6.706C8.124,35.2,9.8,37.163,11.45,39.126c2.05,2.438,4.164,4.824,6.245,7.231.185.213.352.432.527.649.095.122.077.216-.049.262m16.7,18.124-.1-.076L34.9,65.3ZM57.947,88.174l.017-.1.1.074Zm3.161,2.707c-.158-.109-.342-.214-.321-.44a.263.263,0,0,1-.039-.014c-.007-.018-.01-.035-.017-.049a1.872,1.872,0,0,1-1-.6,1.488,1.488,0,0,1-.29-.58l-.084-.084a.047.047,0,0,1-.049-.024l-.014-.014c-.067,0-.136,0-.2-.007.073-.132.119-.1.157-.049a.461.461,0,0,1,.038.049s0,0,.007.007c.038,0,.077,0,.115,0,.007.031.014.063.024.094a2.466,2.466,0,0,0,.293.244c.385.266.821.475,1,.957.017.008.038.011.059.018a.218.218,0,0,0,0,.046,3.789,3.789,0,0,1,.517.23c.053.032.039.172.056.262a.637.637,0,0,1-.251-.051M94.325,15.465a24.537,24.537,0,0,1-1.027,4.8,3.8,3.8,0,0,0-.192.817c-.559,3.664-1.53,7.241-2.407,10.824-1.306,5.327-2.529,10.682-3.982,15.973-.887,3.238-1.883,6.447-2.822,9.675-.342,1.181-.657,2.376-1,3.56-.437,1.5-.883,3-1.327,4.505-.143.486-.3.965-.433,1.45-.6,2.277-1.163,4.562-1.792,6.825a70.48,70.48,0,0,1-4.879,13.035,15.083,15.083,0,0,1-2.246,3.185c-.29.326-.587.643-.887.954a3.8,3.8,0,0,1-3.619,1.338,7.143,7.143,0,0,0-1.341-.028,4.718,4.718,0,0,1-2.092-.552,18.189,18.189,0,0,1-3.032-2.106q-.713-.571-1.422-1.149c-2.829-2.3-5.6-4.673-8.236-7.2-4.569-4.384-9.054-8.847-13.3-13.546q-1.388-1.54-2.794-3.07-2.452-2.683-4.932-5.348c-.838-.9-1.792-1.694-2.626-2.6-1.869-2.012-3.692-4.066-5.536-6.1q-2.143-2.362-4.226-4.768-5.129-5.9-9.938-12.082a52.351,52.351,0,0,1-4.16-6.9A26.5,26.5,0,0,1,2.057,22.72a5.89,5.89,0,0,1-.265-3.3,9.98,9.98,0,0,0,.3-1.484,8.019,8.019,0,0,1,1.872-4.247,4.417,4.417,0,0,1,2.892-1.852c5.264-.775,10.521-1.6,15.788-2.361Q45.93,6.11,69.225,2.793c3.1-.44,6.22-.814,9.333-1.181,1.834-.216,3.674-.394,5.515-.524A10.985,10.985,0,0,1,91.842,3.7a5.94,5.94,0,0,1,1.645,2.106,11.352,11.352,0,0,1,1.191,5.18,37.712,37.712,0,0,1-.353,4.474m-25.858,9A27.2,27.2,0,0,0,66.739,22.2a5.549,5.549,0,0,0-1.272-1.328,29.3,29.3,0,0,0-4.415-2.4,19.554,19.554,0,0,0-13.968-.122,11.912,11.912,0,0,0-5.8,4.128,35.457,35.457,0,0,0-3.975,6.6A14.694,14.694,0,0,0,36.137,34.6,16.217,16.217,0,0,0,37.3,41.648a26.651,26.651,0,0,0,4.75,7.667,7.66,7.66,0,0,0,1.631,1.436c1.379.852,2.8,1.648,4.244,2.381A13.821,13.821,0,0,0,51.806,54.7a35.339,35.339,0,0,0,6.849.412A13.67,13.67,0,0,0,65.4,52.787,19.916,19.916,0,0,0,68.1,50.8a14.146,14.146,0,0,0,5.239-9.574,19.089,19.089,0,0,0,.234-3.4A18.485,18.485,0,0,0,71.8,29.7a42.98,42.98,0,0,0-3.329-5.236M72.788,38.6c-.014.839-.147,1.677-.231,2.511-.472,4.433-2.885,7.653-6.357,10.227a18.706,18.706,0,0,1-5.4,2.654,9.436,9.436,0,0,1-4.313.422,13.968,13.968,0,0,0-2.508-.153,6.963,6.963,0,0,1-3.1-.618,35.619,35.619,0,0,1-5.819-2.99,14.784,14.784,0,0,1-3.378-2.99,19.232,19.232,0,0,1-3.3-5.626c-.272-.8-.583-1.576-.891-2.358a11.554,11.554,0,0,1-.559-3.975c-.028-1.062.056-2.128.126-3.19a5.323,5.323,0,0,1,.8-2.7,3.243,3.243,0,0,0,.342-.765,24.517,24.517,0,0,1,3.831-6.27,11.383,11.383,0,0,1,5.62-3.782,18.76,18.76,0,0,1,10.587-.7,18.125,18.125,0,0,1,5.495,2.421c1.956,1.184,3.137,2.986,4.419,4.739.527.723,1.044,1.457,1.526,2.211a16,16,0,0,1,2.98,8.254c.024.9.143,1.791.126,2.682" transform="translate(0 0)" fill="#351b1b"/>
      </g>
    </g>
    <g id="Grupo_1065184" data-name="Grupo 1065184" transform="translate(532.009 1158.126) rotate(98)">
      <g id="Grupo_1065182-2" data-name="Grupo 1065182" clip-path="url(#clip-path)">
        <path id="Trazado_777897-2" data-name="Trazado 777897" d="M94.938,5.684A5.933,5.933,0,0,1,96.583,7.79a11.352,11.352,0,0,1,1.191,5.18,37.714,37.714,0,0,1-.353,4.474,24.511,24.511,0,0,1-1.027,4.8,3.8,3.8,0,0,0-.192.817c-.559,3.664-1.53,7.241-2.407,10.824-1.306,5.327-2.529,10.681-3.982,15.973-.887,3.238-1.883,6.447-2.822,9.675-.342,1.181-.657,2.375-1,3.56-.437,1.5-.883,3-1.327,4.505-.143.486-.3.964-.433,1.45-.6,2.277-1.163,4.562-1.792,6.825a70.438,70.438,0,0,1-4.88,13.035A15.075,15.075,0,0,1,75.318,92.1c-.29.325-.587.643-.887.954a3.8,3.8,0,0,1-3.619,1.338,7.142,7.142,0,0,0-1.341-.028,4.716,4.716,0,0,1-2.092-.552A18.2,18.2,0,0,1,64.347,91.7q-.713-.571-1.421-1.15c-2.829-2.3-5.6-4.673-8.236-7.2-4.569-4.384-9.054-8.848-13.3-13.546Q40,68.266,38.59,66.736q-2.451-2.683-4.932-5.348c-.838-.9-1.792-1.694-2.626-2.6-1.869-2.012-3.692-4.066-5.536-6.1q-2.143-2.362-4.227-4.768-5.129-5.9-9.937-12.082a52.313,52.313,0,0,1-4.16-6.9A26.513,26.513,0,0,1,5.153,24.7a5.892,5.892,0,0,1-.265-3.3,9.97,9.97,0,0,0,.3-1.484,8.026,8.026,0,0,1,1.872-4.247,4.417,4.417,0,0,1,2.892-1.851c5.264-.775,10.521-1.6,15.788-2.361Q49.026,8.09,72.321,4.772c3.1-.44,6.22-.814,9.333-1.181,1.834-.216,3.675-.394,5.515-.524a10.986,10.986,0,0,1,7.769,2.616M51.022,55.111a13.819,13.819,0,0,0,3.88,1.572,35.371,35.371,0,0,0,6.85.412A13.676,13.676,0,0,0,68.5,54.766a19.871,19.871,0,0,0,2.7-1.988A14.146,14.146,0,0,0,76.439,43.2a19.057,19.057,0,0,0,.234-3.4,18.484,18.484,0,0,0-1.781-8.124,43.077,43.077,0,0,0-3.329-5.236,27.079,27.079,0,0,0-1.729-2.266,5.541,5.541,0,0,0-1.271-1.328,29.27,29.27,0,0,0-4.415-2.4,19.552,19.552,0,0,0-13.968-.122,11.914,11.914,0,0,0-5.8,4.129,35.462,35.462,0,0,0-3.975,6.595,14.693,14.693,0,0,0-1.173,5.532A16.212,16.212,0,0,0,40.4,43.627a26.643,26.643,0,0,0,4.75,7.666,7.662,7.662,0,0,0,1.631,1.436q2.069,1.278,4.244,2.381" transform="translate(-3.096 -1.979)" fill="#d2e1f1"/>
        <path id="Trazado_777898-2" data-name="Trazado 777898" d="M138.484,60.894a16,16,0,0,1,2.979,8.254c.024.9.143,1.791.126,2.683-.014.838-.147,1.677-.231,2.511-.471,4.433-2.885,7.653-6.357,10.227a18.691,18.691,0,0,1-5.4,2.655,9.447,9.447,0,0,1-4.314.422,14,14,0,0,0-2.508-.154,6.962,6.962,0,0,1-3.1-.618,35.58,35.58,0,0,1-5.819-2.99,14.784,14.784,0,0,1-3.378-2.99,19.236,19.236,0,0,1-3.3-5.627c-.272-.8-.583-1.575-.891-2.358a11.552,11.552,0,0,1-.559-3.974c-.028-1.062.056-2.127.126-3.189a5.332,5.332,0,0,1,.8-2.7,3.229,3.229,0,0,0,.343-.765,24.5,24.5,0,0,1,3.831-6.27,11.372,11.372,0,0,1,5.62-3.782,18.762,18.762,0,0,1,10.587-.7,18.116,18.116,0,0,1,5.494,2.421c1.956,1.183,3.137,2.986,4.419,4.739.527.723,1.044,1.457,1.526,2.211" transform="translate(-68.802 -33.232)" fill="#b0c0d2"/>
        <path id="Trazado_777899-2" data-name="Trazado 777899" d="M3.47,67.406a10.8,10.8,0,0,1,1.6,2.86A52.069,52.069,0,0,0,8.86,76.973c1.481,2.088,3.154,4.051,4.806,6.014,2.051,2.438,4.164,4.824,6.245,7.231.185.213.353.432.527.649.095.122.077.216-.049.262a.192.192,0,0,1-.146,0,6.641,6.641,0,0,1-.622-.552,86.756,86.756,0,0,1-6.158-6.857c-1.464-1.9-3.189-3.59-4.555-5.574A39.622,39.622,0,0,1,3.7,68.807a2.023,2.023,0,0,1-.227-1.4" transform="translate(-2.216 -43.862)" fill="#fff2fc"/>
        <path id="Trazado_777900-2" data-name="Trazado 777900" d="M95.474,9.869A9.565,9.565,0,0,0,88.67.809a14.436,14.436,0,0,0-6.8-.664C76.323.938,70.787,1.763,65.2,2.3c-3.783.363-7.548.94-11.324,1.432Q49.135,4.347,44.394,5c-2.274.311-4.537.73-6.818.957-2.4.241-4.772.639-7.146,1.027-4.754.779-9.5,1.621-14.254,2.375-3.318.528-6.65.971-9.979,1.415a4.685,4.685,0,0,0-3.5,2.044A14.816,14.816,0,0,0,.094,19.3a13.463,13.463,0,0,0,1.191,7.366,45.56,45.56,0,0,0,5.069,8.5c1.471,1.9,3.13,3.661,4.624,5.547a49.722,49.722,0,0,0,3.811,4.251c.594.593,1.188,1.187,1.774,1.791.13.133.255.265.385.4,2.553,2.651,5.04,5.362,7.5,8.1,3.1,3.462,6.263,6.87,9.434,10.269.105.112.206.224.315.331,1.694,1.81,3.434,3.584,5.187,5.337,1.942,1.938,4.021,3.748,5.886,5.753,3.786,4.063,7.911,7.768,11.952,11.561.671.626,1.345,1.254,2.054,1.834A14.433,14.433,0,0,0,62.6,92.493a2.731,2.731,0,0,1,.793.608,2.346,2.346,0,0,0,2.571.776,2.621,2.621,0,0,1,.5-.021,8.618,8.618,0,0,0,5.019-2.127q.629-.6,1.212-1.226a16.883,16.883,0,0,0,2.913-4.241c1.089-2.337,1.994-4.747,2.847-7.178.59-1.694,1.226-3.37,1.656-5.114.391-1.575.8-3.147,1.205-4.719.248-.978.468-1.963.751-2.931,1.254-4.3,2.536-8.592,3.793-12.892,1.809-6.186,3.325-12.448,4.883-18.7q1.221-4.894,2.351-9.8c.653-2.836,1.24-5.69,1.858-8.533a33.769,33.769,0,0,0,.52-6.525m-77.3,37.4c-.045.014-.119.021-.147,0a6.634,6.634,0,0,1-.622-.552,86.682,86.682,0,0,1-6.158-6.857c-1.464-1.9-3.189-3.59-4.555-5.574a39.6,39.6,0,0,1-5.211-9.337,2.02,2.02,0,0,1-.227-1.4.16.16,0,0,1-.024-.025v-.049c-.073-.038-.164-.073-.171-.122-.028-.126.076-.185.147-.1.042.048.028.139.024.223l.042.021a.324.324,0,0,0-.018.053A10.821,10.821,0,0,1,2.85,26.4a52.064,52.064,0,0,0,3.793,6.706C8.124,35.2,9.8,37.163,11.45,39.126c2.05,2.438,4.164,4.824,6.245,7.231.185.213.352.432.527.649.095.122.077.216-.049.262m16.7,18.124-.1-.076L34.9,65.3ZM57.947,88.174l.017-.1.1.074Zm3.161,2.707c-.158-.109-.342-.214-.321-.44a.263.263,0,0,1-.039-.014c-.007-.018-.01-.035-.017-.049a1.872,1.872,0,0,1-1-.6,1.488,1.488,0,0,1-.29-.58l-.084-.084a.047.047,0,0,1-.049-.024l-.014-.014c-.067,0-.136,0-.2-.007.073-.132.119-.1.157-.049a.461.461,0,0,1,.038.049s0,0,.007.007c.038,0,.077,0,.115,0,.007.031.014.063.024.094a2.466,2.466,0,0,0,.293.244c.385.266.821.475,1,.957.017.008.038.011.059.018a.218.218,0,0,0,0,.046,3.789,3.789,0,0,1,.517.23c.053.032.039.172.056.262a.637.637,0,0,1-.251-.051M94.325,15.465a24.537,24.537,0,0,1-1.027,4.8,3.8,3.8,0,0,0-.192.817c-.559,3.664-1.53,7.241-2.407,10.824-1.306,5.327-2.529,10.682-3.982,15.973-.887,3.238-1.883,6.447-2.822,9.675-.342,1.181-.657,2.376-1,3.56-.437,1.5-.883,3-1.327,4.505-.143.486-.3.965-.433,1.45-.6,2.277-1.163,4.562-1.792,6.825a70.48,70.48,0,0,1-4.879,13.035,15.083,15.083,0,0,1-2.246,3.185c-.29.326-.587.643-.887.954a3.8,3.8,0,0,1-3.619,1.338,7.143,7.143,0,0,0-1.341-.028,4.718,4.718,0,0,1-2.092-.552,18.189,18.189,0,0,1-3.032-2.106q-.713-.571-1.422-1.149c-2.829-2.3-5.6-4.673-8.236-7.2-4.569-4.384-9.054-8.847-13.3-13.546q-1.388-1.54-2.794-3.07-2.452-2.683-4.932-5.348c-.838-.9-1.792-1.694-2.626-2.6-1.869-2.012-3.692-4.066-5.536-6.1q-2.143-2.362-4.226-4.768-5.129-5.9-9.938-12.082a52.351,52.351,0,0,1-4.16-6.9A26.5,26.5,0,0,1,2.057,22.72a5.89,5.89,0,0,1-.265-3.3,9.98,9.98,0,0,0,.3-1.484,8.019,8.019,0,0,1,1.872-4.247,4.417,4.417,0,0,1,2.892-1.852c5.264-.775,10.521-1.6,15.788-2.361Q45.93,6.11,69.225,2.793c3.1-.44,6.22-.814,9.333-1.181,1.834-.216,3.674-.394,5.515-.524A10.985,10.985,0,0,1,91.842,3.7a5.94,5.94,0,0,1,1.645,2.106,11.352,11.352,0,0,1,1.191,5.18,37.712,37.712,0,0,1-.353,4.474m-25.858,9A27.2,27.2,0,0,0,66.739,22.2a5.549,5.549,0,0,0-1.272-1.328,29.3,29.3,0,0,0-4.415-2.4,19.554,19.554,0,0,0-13.968-.122,11.912,11.912,0,0,0-5.8,4.128,35.457,35.457,0,0,0-3.975,6.6A14.694,14.694,0,0,0,36.137,34.6,16.217,16.217,0,0,0,37.3,41.648a26.651,26.651,0,0,0,4.75,7.667,7.66,7.66,0,0,0,1.631,1.436c1.379.852,2.8,1.648,4.244,2.381A13.821,13.821,0,0,0,51.806,54.7a35.339,35.339,0,0,0,6.849.412A13.67,13.67,0,0,0,65.4,52.787,19.916,19.916,0,0,0,68.1,50.8a14.146,14.146,0,0,0,5.239-9.574,19.089,19.089,0,0,0,.234-3.4A18.485,18.485,0,0,0,71.8,29.7a42.98,42.98,0,0,0-3.329-5.236M72.788,38.6c-.014.839-.147,1.677-.231,2.511-.472,4.433-2.885,7.653-6.357,10.227a18.706,18.706,0,0,1-5.4,2.654,9.436,9.436,0,0,1-4.313.422,13.968,13.968,0,0,0-2.508-.153,6.963,6.963,0,0,1-3.1-.618,35.619,35.619,0,0,1-5.819-2.99,14.784,14.784,0,0,1-3.378-2.99,19.232,19.232,0,0,1-3.3-5.626c-.272-.8-.583-1.576-.891-2.358a11.554,11.554,0,0,1-.559-3.975c-.028-1.062.056-2.128.126-3.19a5.323,5.323,0,0,1,.8-2.7,3.243,3.243,0,0,0,.342-.765,24.517,24.517,0,0,1,3.831-6.27,11.383,11.383,0,0,1,5.62-3.782,18.76,18.76,0,0,1,10.587-.7,18.125,18.125,0,0,1,5.495,2.421c1.956,1.184,3.137,2.986,4.419,4.739.527.723,1.044,1.457,1.526,2.211a16,16,0,0,1,2.98,8.254c.024.9.143,1.791.126,2.682" transform="translate(0 0)" fill="#351b1b"/>
      </g>
    </g>
    <g id="Grupo_1065185" data-name="Grupo 1065185" transform="matrix(0.454, 0.891, -0.891, 0.454, 461.648, 1211.842)">
      <g id="Grupo_1065182-3" data-name="Grupo 1065182" clip-path="url(#clip-path)">
        <path id="Trazado_777897-3" data-name="Trazado 777897" d="M94.938,5.684A5.933,5.933,0,0,1,96.583,7.79a11.352,11.352,0,0,1,1.191,5.18,37.714,37.714,0,0,1-.353,4.474,24.511,24.511,0,0,1-1.027,4.8,3.8,3.8,0,0,0-.192.817c-.559,3.664-1.53,7.241-2.407,10.824-1.306,5.327-2.529,10.681-3.982,15.973-.887,3.238-1.883,6.447-2.822,9.675-.342,1.181-.657,2.375-1,3.56-.437,1.5-.883,3-1.327,4.505-.143.486-.3.964-.433,1.45-.6,2.277-1.163,4.562-1.792,6.825a70.438,70.438,0,0,1-4.88,13.035A15.075,15.075,0,0,1,75.318,92.1c-.29.325-.587.643-.887.954a3.8,3.8,0,0,1-3.619,1.338,7.142,7.142,0,0,0-1.341-.028,4.716,4.716,0,0,1-2.092-.552A18.2,18.2,0,0,1,64.347,91.7q-.713-.571-1.421-1.15c-2.829-2.3-5.6-4.673-8.236-7.2-4.569-4.384-9.054-8.848-13.3-13.546Q40,68.266,38.59,66.736q-2.451-2.683-4.932-5.348c-.838-.9-1.792-1.694-2.626-2.6-1.869-2.012-3.692-4.066-5.536-6.1q-2.143-2.362-4.227-4.768-5.129-5.9-9.937-12.082a52.313,52.313,0,0,1-4.16-6.9A26.513,26.513,0,0,1,5.153,24.7a5.892,5.892,0,0,1-.265-3.3,9.97,9.97,0,0,0,.3-1.484,8.026,8.026,0,0,1,1.872-4.247,4.417,4.417,0,0,1,2.892-1.851c5.264-.775,10.521-1.6,15.788-2.361Q49.026,8.09,72.321,4.772c3.1-.44,6.22-.814,9.333-1.181,1.834-.216,3.675-.394,5.515-.524a10.986,10.986,0,0,1,7.769,2.616M51.022,55.111a13.819,13.819,0,0,0,3.88,1.572,35.371,35.371,0,0,0,6.85.412A13.676,13.676,0,0,0,68.5,54.766a19.871,19.871,0,0,0,2.7-1.988A14.146,14.146,0,0,0,76.439,43.2a19.057,19.057,0,0,0,.234-3.4,18.484,18.484,0,0,0-1.781-8.124,43.077,43.077,0,0,0-3.329-5.236,27.079,27.079,0,0,0-1.729-2.266,5.541,5.541,0,0,0-1.271-1.328,29.27,29.27,0,0,0-4.415-2.4,19.552,19.552,0,0,0-13.968-.122,11.914,11.914,0,0,0-5.8,4.129,35.462,35.462,0,0,0-3.975,6.595,14.693,14.693,0,0,0-1.173,5.532A16.212,16.212,0,0,0,40.4,43.627a26.643,26.643,0,0,0,4.75,7.666,7.662,7.662,0,0,0,1.631,1.436q2.069,1.278,4.244,2.381" transform="translate(-3.096 -1.979)" fill="#f9cbbf"/>
        <path id="Trazado_777898-3" data-name="Trazado 777898" d="M138.484,60.894a16,16,0,0,1,2.979,8.254c.024.9.143,1.791.126,2.683-.014.838-.147,1.677-.231,2.511-.471,4.433-2.885,7.653-6.357,10.227a18.691,18.691,0,0,1-5.4,2.655,9.447,9.447,0,0,1-4.314.422,14,14,0,0,0-2.508-.154,6.962,6.962,0,0,1-3.1-.618,35.58,35.58,0,0,1-5.819-2.99,14.784,14.784,0,0,1-3.378-2.99,19.236,19.236,0,0,1-3.3-5.627c-.272-.8-.583-1.575-.891-2.358a11.552,11.552,0,0,1-.559-3.974c-.028-1.062.056-2.127.126-3.189a5.332,5.332,0,0,1,.8-2.7,3.229,3.229,0,0,0,.343-.765,24.5,24.5,0,0,1,3.831-6.27,11.372,11.372,0,0,1,5.62-3.782,18.762,18.762,0,0,1,10.587-.7,18.116,18.116,0,0,1,5.494,2.421c1.956,1.183,3.137,2.986,4.419,4.739.527.723,1.044,1.457,1.526,2.211" transform="translate(-68.802 -33.232)" fill="#f9cbbf"/>
        <path id="Trazado_777899-3" data-name="Trazado 777899" d="M3.47,67.406a10.8,10.8,0,0,1,1.6,2.86A52.069,52.069,0,0,0,8.86,76.973c1.481,2.088,3.154,4.051,4.806,6.014,2.051,2.438,4.164,4.824,6.245,7.231.185.213.353.432.527.649.095.122.077.216-.049.262a.192.192,0,0,1-.146,0,6.641,6.641,0,0,1-.622-.552,86.756,86.756,0,0,1-6.158-6.857c-1.464-1.9-3.189-3.59-4.555-5.574A39.622,39.622,0,0,1,3.7,68.807a2.023,2.023,0,0,1-.227-1.4" transform="translate(-2.216 -43.862)" fill="#fff2fc"/>
        <path id="Trazado_777900-3" data-name="Trazado 777900" d="M95.474,9.869A9.565,9.565,0,0,0,88.67.809a14.436,14.436,0,0,0-6.8-.664C76.323.938,70.787,1.763,65.2,2.3c-3.783.363-7.548.94-11.324,1.432Q49.135,4.347,44.394,5c-2.274.311-4.537.73-6.818.957-2.4.241-4.772.639-7.146,1.027-4.754.779-9.5,1.621-14.254,2.375-3.318.528-6.65.971-9.979,1.415a4.685,4.685,0,0,0-3.5,2.044A14.816,14.816,0,0,0,.094,19.3a13.463,13.463,0,0,0,1.191,7.366,45.56,45.56,0,0,0,5.069,8.5c1.471,1.9,3.13,3.661,4.624,5.547a49.722,49.722,0,0,0,3.811,4.251c.594.593,1.188,1.187,1.774,1.791.13.133.255.265.385.4,2.553,2.651,5.04,5.362,7.5,8.1,3.1,3.462,6.263,6.87,9.434,10.269.105.112.206.224.315.331,1.694,1.81,3.434,3.584,5.187,5.337,1.942,1.938,4.021,3.748,5.886,5.753,3.786,4.063,7.911,7.768,11.952,11.561.671.626,1.345,1.254,2.054,1.834A14.433,14.433,0,0,0,62.6,92.493a2.731,2.731,0,0,1,.793.608,2.346,2.346,0,0,0,2.571.776,2.621,2.621,0,0,1,.5-.021,8.618,8.618,0,0,0,5.019-2.127q.629-.6,1.212-1.226a16.883,16.883,0,0,0,2.913-4.241c1.089-2.337,1.994-4.747,2.847-7.178.59-1.694,1.226-3.37,1.656-5.114.391-1.575.8-3.147,1.205-4.719.248-.978.468-1.963.751-2.931,1.254-4.3,2.536-8.592,3.793-12.892,1.809-6.186,3.325-12.448,4.883-18.7q1.221-4.894,2.351-9.8c.653-2.836,1.24-5.69,1.858-8.533a33.769,33.769,0,0,0,.52-6.525m-77.3,37.4c-.045.014-.119.021-.147,0a6.634,6.634,0,0,1-.622-.552,86.682,86.682,0,0,1-6.158-6.857c-1.464-1.9-3.189-3.59-4.555-5.574a39.6,39.6,0,0,1-5.211-9.337,2.02,2.02,0,0,1-.227-1.4.16.16,0,0,1-.024-.025v-.049c-.073-.038-.164-.073-.171-.122-.028-.126.076-.185.147-.1.042.048.028.139.024.223l.042.021a.324.324,0,0,0-.018.053A10.821,10.821,0,0,1,2.85,26.4a52.064,52.064,0,0,0,3.793,6.706C8.124,35.2,9.8,37.163,11.45,39.126c2.05,2.438,4.164,4.824,6.245,7.231.185.213.352.432.527.649.095.122.077.216-.049.262m16.7,18.124-.1-.076L34.9,65.3ZM57.947,88.174l.017-.1.1.074Zm3.161,2.707c-.158-.109-.342-.214-.321-.44a.263.263,0,0,1-.039-.014c-.007-.018-.01-.035-.017-.049a1.872,1.872,0,0,1-1-.6,1.488,1.488,0,0,1-.29-.58l-.084-.084a.047.047,0,0,1-.049-.024l-.014-.014c-.067,0-.136,0-.2-.007.073-.132.119-.1.157-.049a.461.461,0,0,1,.038.049s0,0,.007.007c.038,0,.077,0,.115,0,.007.031.014.063.024.094a2.466,2.466,0,0,0,.293.244c.385.266.821.475,1,.957.017.008.038.011.059.018a.218.218,0,0,0,0,.046,3.789,3.789,0,0,1,.517.23c.053.032.039.172.056.262a.637.637,0,0,1-.251-.051M94.325,15.465a24.537,24.537,0,0,1-1.027,4.8,3.8,3.8,0,0,0-.192.817c-.559,3.664-1.53,7.241-2.407,10.824-1.306,5.327-2.529,10.682-3.982,15.973-.887,3.238-1.883,6.447-2.822,9.675-.342,1.181-.657,2.376-1,3.56-.437,1.5-.883,3-1.327,4.505-.143.486-.3.965-.433,1.45-.6,2.277-1.163,4.562-1.792,6.825a70.48,70.48,0,0,1-4.879,13.035,15.083,15.083,0,0,1-2.246,3.185c-.29.326-.587.643-.887.954a3.8,3.8,0,0,1-3.619,1.338,7.143,7.143,0,0,0-1.341-.028,4.718,4.718,0,0,1-2.092-.552,18.189,18.189,0,0,1-3.032-2.106q-.713-.571-1.422-1.149c-2.829-2.3-5.6-4.673-8.236-7.2-4.569-4.384-9.054-8.847-13.3-13.546q-1.388-1.54-2.794-3.07-2.452-2.683-4.932-5.348c-.838-.9-1.792-1.694-2.626-2.6-1.869-2.012-3.692-4.066-5.536-6.1q-2.143-2.362-4.226-4.768-5.129-5.9-9.938-12.082a52.351,52.351,0,0,1-4.16-6.9A26.5,26.5,0,0,1,2.057,22.72a5.89,5.89,0,0,1-.265-3.3,9.98,9.98,0,0,0,.3-1.484,8.019,8.019,0,0,1,1.872-4.247,4.417,4.417,0,0,1,2.892-1.852c5.264-.775,10.521-1.6,15.788-2.361Q45.93,6.11,69.225,2.793c3.1-.44,6.22-.814,9.333-1.181,1.834-.216,3.674-.394,5.515-.524A10.985,10.985,0,0,1,91.842,3.7a5.94,5.94,0,0,1,1.645,2.106,11.352,11.352,0,0,1,1.191,5.18,37.712,37.712,0,0,1-.353,4.474m-25.858,9A27.2,27.2,0,0,0,66.739,22.2a5.549,5.549,0,0,0-1.272-1.328,29.3,29.3,0,0,0-4.415-2.4,19.554,19.554,0,0,0-13.968-.122,11.912,11.912,0,0,0-5.8,4.128,35.457,35.457,0,0,0-3.975,6.6A14.694,14.694,0,0,0,36.137,34.6,16.217,16.217,0,0,0,37.3,41.648a26.651,26.651,0,0,0,4.75,7.667,7.66,7.66,0,0,0,1.631,1.436c1.379.852,2.8,1.648,4.244,2.381A13.821,13.821,0,0,0,51.806,54.7a35.339,35.339,0,0,0,6.849.412A13.67,13.67,0,0,0,65.4,52.787,19.916,19.916,0,0,0,68.1,50.8a14.146,14.146,0,0,0,5.239-9.574,19.089,19.089,0,0,0,.234-3.4A18.485,18.485,0,0,0,71.8,29.7a42.98,42.98,0,0,0-3.329-5.236M72.788,38.6c-.014.839-.147,1.677-.231,2.511-.472,4.433-2.885,7.653-6.357,10.227a18.706,18.706,0,0,1-5.4,2.654,9.436,9.436,0,0,1-4.313.422,13.968,13.968,0,0,0-2.508-.153,6.963,6.963,0,0,1-3.1-.618,35.619,35.619,0,0,1-5.819-2.99,14.784,14.784,0,0,1-3.378-2.99,19.232,19.232,0,0,1-3.3-5.626c-.272-.8-.583-1.576-.891-2.358a11.554,11.554,0,0,1-.559-3.975c-.028-1.062.056-2.128.126-3.19a5.323,5.323,0,0,1,.8-2.7,3.243,3.243,0,0,0,.342-.765,24.517,24.517,0,0,1,3.831-6.27,11.383,11.383,0,0,1,5.62-3.782,18.76,18.76,0,0,1,10.587-.7,18.125,18.125,0,0,1,5.495,2.421c1.956,1.184,3.137,2.986,4.419,4.739.527.723,1.044,1.457,1.526,2.211a16,16,0,0,1,2.98,8.254c.024.9.143,1.791.126,2.682" transform="translate(0 0)" fill="#351b1b"/>
      </g>
    </g>
  </g>
</svg>
