<svg xmlns="http://www.w3.org/2000/svg" xmlns:xlink="http://www.w3.org/1999/xlink" width="306.398" height="235.044" viewBox="0 0 306.398 235.044">
  <defs>
    <clipPath id="clip-path">
      <rect id="Rectángulo_362252" data-name="Rectángulo 362252" width="129.953" height="277.475" fill="none"/>
    </clipPath>
  </defs>
  <g id="Grupo_1065385" data-name="Grupo 1065385" transform="translate(-632.991 -1095.232)">
    <g id="Grupo_1065167" data-name="Grupo 1065167" transform="translate(353.043 338.648)">
      <path id="Trazado_100521" data-name="Trazado 100521" d="M103.783,434.588C-27.656,429.281,22.1,639.336,174.577,629.536S211.6,438.946,103.783,434.588Z" transform="translate(308.966 357.72)" fill="#fff"/>
    </g>
    <g id="Grupo_1065187" data-name="Grupo 1065187" transform="translate(687.912 1330.275) rotate(-115)">
      <g id="Grupo_1065186" data-name="Grupo 1065186" clip-path="url(#clip-path)">
        <path id="Trazado_777901" data-name="Trazado 777901" d="M62.711,23.636c-.078-4.48-.743-11.934-5.646-13.583-.593-1.064-1.18-2.127-1.679-3.221a4.091,4.091,0,0,0-4.164-2.1c-1.494-1.366-3.792-1.853-5.7-2.189a41.743,41.743,0,0,0-6.488-.645,13.864,13.864,0,0,0-2.27.165,12.238,12.238,0,0,0-4.523-.207c-2.3.2-5.047.573-7.08,1.812a8.218,8.218,0,0,0-.941.5,2.822,2.822,0,0,0-.564.461A33.375,33.375,0,0,0,5.462,17.762a27.44,27.44,0,0,0-3.2,6.7,4.6,4.6,0,0,0-.581,1.326,17.057,17.057,0,0,0-.443,2.269Q.979,29.132.763,30.2A29.825,29.825,0,0,0,.916,44.249c1.257,4.416,4.03,8.51,6.8,12.1a53.154,53.154,0,0,0,9.93,9.589c3.685,2.814,7.9,5.393,12.515,6.236l.258.045c.253.154.5.311.754.472a13.9,13.9,0,0,1,3.564,4.262c.037.2.073.41.107.615a2.6,2.6,0,0,0,1.64,1.789c1.215,1.142,2.756.519,3.547-.68a6.671,6.671,0,0,0,3-3.109,2.235,2.235,0,0,0,.848-1.479c1.261-7.313,5.583-13.356,9.441-19.514a49.638,49.638,0,0,0,6.469-14.164,3.542,3.542,0,0,0,1.947-2.566,90.889,90.889,0,0,0,.971-14.209M32.317,67.2c-1.094-.631-2.237-1.185-3.317-1.736-2.155-1.1-4.287-2.175-6.324-3.4.779-1.466-8.593-13.74-10.29-19.454-.755-2.544-1.488-5.092-2.039-7.69a21.35,21.35,0,0,1-.5-3.473,19.075,19.075,0,0,1-.022-1.924c.011-.242.033-.482.056-.722-.023.428.17-.636.188-.7a4.707,4.707,0,0,0,.163-1.258c.011-.165.026-.329.041-.494.638-1.657,1.489-3.232,2.1-4.9A84.2,84.2,0,0,1,17.811,14.7a3.451,3.451,0,0,0,.592-1.063,32.283,32.283,0,0,1,9.1-4.284,33.889,33.889,0,0,0,6.273-1.3c.158-.014.315-.033.473-.045.346-.029.7-.056,1.064-.082a23.775,23.775,0,0,1,5.151.364c1.519.282,3.03,1.259,4.527,1.752a2.189,2.189,0,0,0,1.772,1.5q.389.08.777.15a3.134,3.134,0,0,0,.757.4c1.3,2.576,2.932,4.918,3.5,7.805.331,1.667.5,3.437.782,5.212-.173,3.9-.563,7.792-.94,11.684-.482,4.97-2.329,9.306-3.921,13.987a2.453,2.453,0,0,0-.092,1.376c-1.91,3.376-4.148,6.592-6.256,9.831A13.959,13.959,0,0,1,38.3,65.836c-1.182.86-2.305,1.289-2.983,2.411a7.237,7.237,0,0,0-1.3-.591,14.786,14.786,0,0,0-1.695-.454" transform="translate(0 -1.135)" fill="#ae9988"/>
        <path id="Trazado_777902" data-name="Trazado 777902" d="M145.846,401.53a4.3,4.3,0,0,1-.122-1.458c-.007-3.559-.223-7.1-.529-10.647-.567-6.531-1.057-13.068-1.263-19.627q-.319-10.375-.634-20.762-.167-5.694-.307-11.392c-.083-3.74-.118-7.473-.2-11.21-.052-2.453-.153-4.9-.233-7.352a.808.808,0,0,0,.09,0c-.108-3.246-.271-6.493-.305-9.739-.073-6.127-.063-12.254-.254-18.378-.278-8.883-.518-17.766-.769-26.649-.16-5.755-.362-11.513-.455-17.271-.053-3.309-.133-6.611-.359-9.913a2.684,2.684,0,0,0-.08-.717.606.606,0,0,0-.372-.355.541.541,0,0,0-.438.237c-.568,1.016-1.1,2.053-1.653,3.072a4.275,4.275,0,0,0-.491,2.3c.184,4.287.218,8.584.566,12.857.181,2.258.216,4.509.289,6.764.129,4.036.324,8.072.39,12.108.083,5.087.007,10.173.108,15.257.139,6.983.035,13.97.393,20.949.358,6.914.536,13.838.79,20.755.2,5.39.324,10.783.609,16.166.4,7.463.919,14.923,1.385,22.383.205,3.3.376,6.607.612,9.906.223,3.059.581,6.1.755,9.161.285,4.955.588,9.906,1.333,14.819a5.155,5.155,0,0,1-.227,2.714c-.222.567-.344,1.176-.56,1.746-.852,2.293-1.722,4.579-2.582,6.872a1.287,1.287,0,0,0-.038.331.945.945,0,0,0,.261-.142,1.227,1.227,0,0,0,.184-.313c1.218-2.672,2.519-5.31,3.619-8.03a5.9,5.9,0,0,0,.491-4.436M125.4,238.245c-.122,0-.244,0-.418-.007-.772.177-1.712.1-2.317.811a7.784,7.784,0,0,0-2.084,4.766,3.736,3.736,0,0,0,2.857,3.751,14.237,14.237,0,0,0,1.427.275,6.425,6.425,0,0,0,3.584-.449,3.449,3.449,0,0,0,2.163-3.312,7.347,7.347,0,0,0-.653-2.829,4.522,4.522,0,0,0-4.558-3.007" transform="translate(-78.624 -153.921)" fill="#ae9988"/>
        <path id="Trazado_777903" data-name="Trazado 777903" d="M106.847,248.228a.258.258,0,0,0-.031-.07,3.026,3.026,0,0,0,.01-.309c-.007-.15.066-.331-.143-.411a1.081,1.081,0,0,0-.028.327,2.274,2.274,0,0,0,.16.393v.039s0,0,.007.007a.073.073,0,0,0,.011.017,3.088,3.088,0,0,1-1.5-2.714,79.012,79.012,0,0,1-.644-8.058,8.11,8.11,0,0,0-.282-1.43c-.254-1.5-.609-2.993-.021-4.52a2.01,2.01,0,0,0-.038-1.621,4.832,4.832,0,0,1-.344-2.153,7.021,7.021,0,0,0-.09-1.274,4.041,4.041,0,0,1,.682-2.954A7.751,7.751,0,0,1,105.664,222a38.342,38.342,0,0,1,6.416-5.755,1,1,0,0,1,1.179-.035,106.758,106.758,0,0,1,9.715,5.936,12.5,12.5,0,0,1,1.806,1.827,1.207,1.207,0,0,1,.268,1.034c-.257,2.209.476,4.367.341,6.573a4.142,4.142,0,0,0,.236,1.072,3.744,3.744,0,0,1,.209,1.075c-.156,1.66.324,3.27.338,4.92.01,1.59.149,3.184.205,4.774.031.8.01,1.594,0,2.39a2.238,2.238,0,0,1-2.115,2.45,13.666,13.666,0,0,1-2.547.344.483.483,0,0,0-.515.411c-.041.254.264.5.654.453a14.688,14.688,0,0,0,4.126-.843c.411-.181.546.049.592.393.045.365.08.73.094,1.1.254,7.412.459,14.822.341,22.244-.063,3.914.1,7.836.164,11.75q.057,3.4.136,6.8c.059,2.512.111,5.024.208,7.536.341,8.636.724,17.271,1.04,25.907.167,4.475.369,8.942.658,13.41.439,6.788.894,13.573,1.207,20.365.23,5.024.637,10.035,1.062,15.042.236,2.752.309,5.5.529,8.253q.183,2.29.463,4.571c.23,1.886-.014,3.8.425,5.672a2.249,2.249,0,0,1-.279,1.231c-1.569,4.711-3.6,9.235-5.449,13.838-1.026,2.561-2.154,5.072-3.323,7.571-.129.278-.257.553-.393.828a.326.326,0,0,1-.435.205.388.388,0,0,1-.212-.25,4.2,4.2,0,0,1-.08-.727c-.046-.982-.111-1.963-.111-2.941a73.6,73.6,0,0,0-.859-9.7c-.261-1.942-.393-3.9-.6-5.849-.24-2.317-.5-4.631-.752-6.949a5.587,5.587,0,0,1-.014-2.188.842.842,0,0,0,.007-.54c-.821-1.722-.511-3.608-.8-5.407-.3-1.931-.445-3.883-.818-5.811-.4-2.1-.532-4.252-.793-6.378-.7-5.6-1.27-11.207-1.813-16.819-.449-4.634-.912-9.272-1.5-13.89-.566-4.443-.817-8.907-1.21-13.36-.574-6.472-1.068-12.951-1.67-19.419-.609-6.59-1.326-13.173-1.962-19.76-.317-3.295-.518-6.6-.849-9.892-.376-3.782-.842-7.553-1.26-11.332-.139-1.28-.261-2.56-.355-3.844q-.333-4.583-.629-9.168c-.052-.759.16-.982.936-1,.487-.014.978.046,1.468.049.546,0,1.1-.011,1.646-.042.317-.017.63-.1.6-.515-.025-.3-.282-.358-.533-.376-.731-.045-1.461-.087-2.192-.139a2.684,2.684,0,0,1-1.367-.4,1.878,1.878,0,0,1-.206-.17,1.8,1.8,0,0,1-.254-.3s.007,0,.01,0m14.189-17.334a5.612,5.612,0,0,0-2.985-6.1c-.271-.135-.564-.233-.835-.372a6.032,6.032,0,0,0-5.623.121,1.3,1.3,0,0,0-.56.421c-.543.881-1.082,1.768-1.562,2.683a7.274,7.274,0,0,0-.9,3.33A3.888,3.888,0,0,0,109.638,234c1.409,1.326,2.961,2.39,4.923,2.022.386-.031.63-.042.873-.073,3.622-.48,5.094-2.14,5.6-5.052" transform="translate(-67.708 -140.871)" fill="#afb1a4"/>
        <path id="Trazado_777904" data-name="Trazado 777904" d="M137.5,706.111c.307.184.15.557.042.839a11.018,11.018,0,0,1-.637,1.517c-1.246,2.185-2.168,4.52-3.194,6.806-.351.786-.564,1.7-1.406,2.182a4.451,4.451,0,0,1,.689-2,45.82,45.82,0,0,0,2.105-5.08,19.937,19.937,0,0,1,1.767-3.827c.139-.23.261-.658.633-.432" transform="translate(-86.272 -460.385)" fill="#ae9988"/>
        <path id="Trazado_777905" data-name="Trazado 777905" d="M116.733,443.562a2.577,2.577,0,0,1-.324,1.921c-.616,1.054-1.113,2.181-1.653,3.277q-2.071,4.2-4.14,8.4a13.876,13.876,0,0,0-1.016,2.557,6.535,6.535,0,0,1-.717,1.677,21.862,21.862,0,0,0-1.59,4.443c-.059.171-.032.435-.143.519-1.117.832-1.2,2.223-1.8,3.33a32.685,32.685,0,0,0-1.423,3.58c-.062.16-.17.338-.375.279a.4.4,0,0,1-.2-.286,11.284,11.284,0,0,1-.2-1.635c0-1.531.041-3.062.066-4.593h-.077c-.021-.612,0-1.228-.07-1.834-.191-1.587-.08-3.169-.115-4.753a49.85,49.85,0,0,0,.021-5.678,43.734,43.734,0,0,1-.1-4.582c-.041-1.524-.15-3.048-.184-4.575-.031-1.285.041-2.568,0-3.852-.073-2.14-.216-4.28-.3-6.42-.063-1.527-.039-3.058-.112-4.582s-.229-3.055-.338-4.582c-.41-5.81-.407-11.638-.605-17.456-.108-3.125-.243-6.256-.208-9.38.073-6.256-.192-12.505-.223-18.757-.035-6.19.077-12.386-.021-18.577-.094-6.009.094-12.014.233-18.02.146-6.19.432-12.373.651-18.559.031-.922.059-1.841.045-2.76-.063-3.987.157-7.964.428-11.937a9.7,9.7,0,0,1,.209-1.267c.021-.1.132-.192.2-.282.021.018.048.035.073.053a.761.761,0,0,1,.2.177,4.445,4.445,0,0,1,.626,1.907c.226,1.948.449,3.9.64,5.846.365,3.723.727,7.442,1.058,11.165.327,3.664.6,7.335.926,11,.309,3.479.748,6.949.963,10.431.251,3.977.731,7.933,1.117,11.9.678,6.952,1.4,13.9,2.06,20.859.376,3.963.668,7.937,1.012,11.9.327,3.785.619,7.578,1.02,11.357.358,3.409.866,6.805,1.267,10.212.428,3.653.793,7.31,1.2,10.964.268,2.376.588,4.746.849,7.119.233,2.133.411,4.273.637,6.4.112,1.037.247,2.071.438,3.094" transform="translate(-65.764 -201.604)" fill="#afb1a4"/>
        <path id="Trazado_777906" data-name="Trazado 777906" d="M146.225,47.8c-.069.018-.128.184-.153.292a48.52,48.52,0,0,1-2.387,7.7,24.984,24.984,0,0,1-3.24,5.536,23.085,23.085,0,0,1-3.229,3.757,58.9,58.9,0,0,1-5.654,4.395A44.534,44.534,0,0,1,119.939,75.3a49.931,49.931,0,0,1-9.795,2.007c-1.684.181-3.466.307-5.383.379-1.66.167-4.589.4-7.488.908a43.692,43.692,0,0,0-6.005,1.7A17.033,17.033,0,0,0,82.2,87.109a.846.846,0,0,0-.056.32c.108,0,.24.038.317-.01.828-.526,1.642-1.072,2.467-1.6A43.563,43.563,0,0,1,101.6,79.353c2.874-.455,5.755-.862,8.646-1.179,1.736-.188,3.476-.345,5.219-.46a16.8,16.8,0,0,0,2-.233,36.1,36.1,0,0,0,14.168-6.27,80.475,80.475,0,0,0,8.5-7.3,16.731,16.731,0,0,0,4.784-7.509,48.305,48.305,0,0,0,1.44-6.263,16.129,16.129,0,0,0,.1-2.018c.007-.143.028-.379-.233-.327M99.337,69.159a9.7,9.7,0,0,0,3.6,1.761c3.521.647,6.976.963,10.449-.456a40.317,40.317,0,0,0,8-4.064c.23-.164.535-.272.539-.627a4.053,4.053,0,0,0-2.011.731,28.43,28.43,0,0,1-11.91,2.7,10.012,10.012,0,0,1-6.52-2.042,18.789,18.789,0,0,0-2.314-1.5,8.189,8.189,0,0,1-1.966-1.628,31.151,31.151,0,0,1-3.128-4.3,12.309,12.309,0,0,1-2.015-6.041c-.1-1.833-.119-3.67-.171-5.508a10.543,10.543,0,0,1,1.193-4.954,34.9,34.9,0,0,1,5.285-7.93,94.908,94.908,0,0,1,7.241-7.3c.129-.115.327-.222.2-.407-.035-.053-.327.024-.463.1a32,32,0,0,0-4.976,3.452,41.713,41.713,0,0,0-5.936,6.249,27.024,27.024,0,0,0-4.85,9.6,17.434,17.434,0,0,0-.658,5.991,19.7,19.7,0,0,0,2.937,8.427,25.96,25.96,0,0,0,7.467,7.742M89.584,80.216A45.708,45.708,0,0,1,103.5,77.053a92.576,92.576,0,0,0,10.417-1.006,46.923,46.923,0,0,0,7.463-1.909,45.251,45.251,0,0,0,10.974-5.9,34.632,34.632,0,0,0,6.847-6.35c3.271-4.088,4.972-8.831,6.072-13.827a22.915,22.915,0,0,0-.985-11.955,35.776,35.776,0,0,0-3.894-7.888,25.653,25.653,0,0,0-4.756-5.567,21.942,21.942,0,0,0-4.826-2.968A32.273,32.273,0,0,0,119.716,16c-1.03-.121-2.084-.083-3.107-.253a15.827,15.827,0,0,0-4.61-.2c-.936.1-1.733.143-2.519.268a21.427,21.427,0,0,0-6.207,1.559,27.051,27.051,0,0,0-3.445,2.077,33,33,0,0,0-6.879,6.325c-.971,1.18-1.914,2.388-2.832,3.608a50.376,50.376,0,0,0-5.181,7.776A12.093,12.093,0,0,1,83.732,39c-1.137,1.517-2.317,3-3.462,4.512a6.689,6.689,0,0,0-1.006,1.524,23.633,23.633,0,0,0-1.287,4.21,7.556,7.556,0,0,0,1.761,6.663A101.149,101.149,0,0,0,86.9,63.536a7.52,7.52,0,0,1,2.265,3.5c.146.529.3,1.057.428,1.59a6.744,6.744,0,0,1,.021,3.1,12.514,12.514,0,0,1-3.946,6.5c-1.353,1.232-2.86,2.3-4.283,3.462q-1.639,1.33-3.246,2.707a8.565,8.565,0,0,0-1.976,2.627.714.714,0,0,0,.167.988c.634.476,1.294.919,1.955,1.357a.513.513,0,0,0,.675-.073c.348-.341.685-.7,1.009-1.065,1.089-1.241,2.161-2.5,3.264-3.74a16.8,16.8,0,0,1,6.346-4.269M88.429,54.531a11.705,11.705,0,0,1-.209-3.288c.118-1.406.317-2.794.56-4.182.553-3.167,2.2-5.846,3.921-8.438a38.113,38.113,0,0,1,9.576-9.816,39.478,39.478,0,0,1,7.606-4.04A12.86,12.86,0,0,1,115.12,24a3.835,3.835,0,0,1,.894.167c.251.066.553.494.5.651l.494.017c.031-.1.15-.244.226-.24a17.307,17.307,0,0,1,1.994.17c3.333.574,6.6,1.357,9.4,3.409.591.435,1.232.8,1.841,1.211a13.077,13.077,0,0,1,5.723,9.022,24.913,24.913,0,0,1-.7,11.81A25.736,25.736,0,0,1,129.409,60.8a44.258,44.258,0,0,1-12.616,9.061c-.939.453-1.917.828-2.818,1.343a8.3,8.3,0,0,1-4.589,1.078A45.03,45.03,0,0,1,103.7,72a12.16,12.16,0,0,1-5.428-2.526,35.5,35.5,0,0,1-5.908-5.745,14.831,14.831,0,0,1-1.938-3.1,25.823,25.823,0,0,1-2-6.092M75.187,18.822A23.124,23.124,0,0,1,80.809,29a31.58,31.58,0,0,1,.689,5.456,29.593,29.593,0,0,1-.355,5.581c.034.084.055.292.17.383.17.132.355-.018.466-.154a6.377,6.377,0,0,0,1.684-5.239c-.247-1.514-.637-3-.909-4.5a21.64,21.64,0,0,0-5.17-10.205,25.358,25.358,0,0,0-2.554-2.359c-.052-.049-.2.014-.3.024.01.056-.007.136.024.17.206.227.428.435.634.665M77.779,90.4c-.609-.411-1.245-.779-1.837-1.214-2.616-1.925-5.379-3.636-8.114-5.383-1.837-1.18-1.983-1.144-3.744.063-.1.07-.2.146-.292.223-.491.379-.487.675.031.96,2.3,1.277,4.594,2.585,6.928,3.8,1.065.556,2.112,1.249,3.441,1.062.383-.056.661.275.72.692.09.6.052,1.28.564,1.7a2.046,2.046,0,0,1,.651,1.643c0,.1.1.209.146.31a.145.145,0,0,1,.045-.014c.014,0,.028-.01.045-.014.045-.014.094-.025.136-.042a.2.2,0,0,0,.094-.07c.522-.828,1.033-1.659,1.527-2.5.317-.546.23-.832-.341-1.218m-13.305-7.9a2.031,2.031,0,0,0,1.235-1.883,10.549,10.549,0,0,1,.522-2.881,36.03,36.03,0,0,1,4.009-8.027c1.489-2.171,2.964-4.349,4.45-6.527a49.007,49.007,0,0,0,3.333-5.7c.463-.922.765-1.8-.17-2.627a2.274,2.274,0,0,1-.348-.644c-.115-.208-.188-.463-.473-.5-.327-.048-.386.241-.494.443q-1.932,3.653-4.071,7.184c-.922,1.521-1.875,3.01-2.863,4.485-.922,1.371-1.632,2.881-2.536,4.259a51.33,51.33,0,0,0-4.614,8.959,9.39,9.39,0,0,0-.7,2.634c.035,1.868.494,2.129,1.938,1.294.264-.153.508-.344.786-.469M49.78,18.495c-.487-.035-.978-.031-1.461-.1a7,7,0,0,0-3.6.4c-1.137.438-2.3.845-3.465,1.193a10.779,10.779,0,0,0-4.328,2.679,40.7,40.7,0,0,0-6.385,7.558,22.918,22.918,0,0,0-2.94,6.684,30.118,30.118,0,0,0-.926,9.613,42.546,42.546,0,0,0,1.809,11.963,21.7,21.7,0,0,0,2.9,6.113c2.536,3.494,5.518,6.566,9.576,8.355.351.156.636.637,1.131.312-.209-.3-.4-.609-.627-.89-.306-.379-.651-.731-.964-1.106a19.529,19.529,0,0,1-3.065-4.336,58.4,58.4,0,0,1-3.772-9.547c-.585-2.255-1.009-4.537-1.367-6.834a23.825,23.825,0,0,1,.393-8.935,32.713,32.713,0,0,1,5.233-12.24c.215-.3.4-.617.612-.919a20.158,20.158,0,0,1,6.44-6.423c1.639-.943,3.125-2.147,4.826-3a.354.354,0,0,0,.119-.136.56.56,0,0,0,.059-.163c.031-.14-.035-.227-.2-.237" transform="translate(-17.346 -10.075)" fill="#f9cbbf"/>
        <path id="Trazado_777907" data-name="Trazado 777907" d="M130.756,30.775a42.08,42.08,0,0,0-1.708-5.807,43.123,43.123,0,0,0-5.386-9.377,21.2,21.2,0,0,0-6.746-5.846A38.79,38.79,0,0,0,107.054,5.8a18.782,18.782,0,0,0-4.715-.668,4.266,4.266,0,0,1-1.28-.112A13.131,13.131,0,0,0,96.132,4.8c-1.093.132-2.185.289-3.281.428a9.846,9.846,0,0,1-3.268.243.914.914,0,0,0-.675.205,13.057,13.057,0,0,1-1.273.72A27.306,27.306,0,0,0,83.7,8.741,38.955,38.955,0,0,0,75.725,16.3a32.61,32.61,0,0,0-2.255,2.9,4.459,4.459,0,0,1-1.225,1.357,5.157,5.157,0,0,0-1.42,1.625c-.675,1.006-1.423,1.966-2.147,2.94a.236.236,0,0,1-.17-.014c-.226-1.137-.466-2.276-.658-3.42a22.018,22.018,0,0,0-4.339-10.205,19.875,19.875,0,0,0-7.985-6.59,8.6,8.6,0,0,1-1.942-1.034,15.883,15.883,0,0,0-6.413-2.641A36.69,36.69,0,0,0,35.343.128,30.756,30.756,0,0,0,25.1,2.767c-.5.237-1,.466-1.517.66a17.763,17.763,0,0,0-3.532,1.949,57.922,57.922,0,0,0-5.477,4.317,42.633,42.633,0,0,0-4.617,4.733,2.319,2.319,0,0,0-.359.619c-.028.066.08.2.146.285.021.028.118.021.167,0a.786.786,0,0,0,.31-.171,41.822,41.822,0,0,1,5.567-5.588c2.742-2.265,5.484-4.52,8.9-5.748A12.954,12.954,0,0,0,26.018,3.2a19.448,19.448,0,0,1,5.574-1.75A35.321,35.321,0,0,1,48.645,2.516a2.705,2.705,0,0,1,1.277.678,3.191,3.191,0,0,0,1.608.839,11.207,11.207,0,0,1,3.834,2.122,26.4,26.4,0,0,1,5.63,5.745,24.929,24.929,0,0,1,2.485,4.687A26.081,26.081,0,0,1,64.57,30.7a6.285,6.285,0,0,1-.9,2.394,18.277,18.277,0,0,0-2.439,7.254,9.286,9.286,0,0,1-.894,2.957c-.79,1.521-1.562,3.051-2.383,4.558-.442.8-.957,1.569-1.458,2.339s-1.051,1.513-1.531,2.3c-1.8,2.919-3.6,5.845-5.365,8.785a46.359,46.359,0,0,0-4.109,8.608,4.934,4.934,0,0,0-.233,2.887c.087.359.122.727.223,1.079a.89.89,0,0,1-.3.985,4.194,4.194,0,0,1-.554.484,29.39,29.39,0,0,0-4.634,3.9c-.532.508-1.061,1.02-1.6,1.514a.514.514,0,0,1-.32.094c-.143.007-.2-.094-.205-.247-.017-.553-.049-1.1-.073-1.653a5.9,5.9,0,0,0-1.719-3.952,10.505,10.505,0,0,0-1.948-1.67,31.262,31.262,0,0,0-3.845-2.154c-1.618-.727-3.25-1.436-4.826-2.25A47.628,47.628,0,0,1,15.177,62.16,54.333,54.333,0,0,1,9.61,56.3a10.769,10.769,0,0,1-.988-1.541c-.915-1.594-1.823-3.191-2.7-4.8A11.758,11.758,0,0,1,5.2,48.27a32.155,32.155,0,0,1-1.475-5.862,40.736,40.736,0,0,1-.351-12.074,30.153,30.153,0,0,1,3.3-10.64,17.98,17.98,0,0,1,2.035-3.044,1.43,1.43,0,0,0,.216-.48.18.18,0,0,0-.052-.157c-.1-.059-.222-.138-.32-.118a1.02,1.02,0,0,0-.692.55,36.913,36.913,0,0,0-3.006,5.679,39.808,39.808,0,0,0-2.394,14.6A51.06,51.06,0,0,0,3.5,45.1a21.765,21.765,0,0,0,2.018,5.5c.5.985,1.047,1.938,1.6,2.895a27.135,27.135,0,0,0,2.679,4.169A43.819,43.819,0,0,0,24,68.833q3.21,1.587,6.433,3.152A20.718,20.718,0,0,1,34.3,74.438a6.521,6.521,0,0,1,2.474,6.848c-.164.838-.4,1.666-.536,2.512a5.248,5.248,0,0,0-.16,2.146,25.5,25.5,0,0,1,.63,5.637c.164,2.571.23,5.146.386,7.714.094,1.586.233,3.176.445,4.753.115.849.418,1.649-.365,2.362-.185.167-.185.571-.206.866-.045.672-.055,1.346-.066,2.018-.111,7.292-.087,14.589-.376,21.878-.1,2.571-.094,5.15-.222,7.72-.254,5.081-.348,10.167-.387,15.254-.045,6.19.039,12.384-.01,18.577-.038,4.659.07,9.318.184,13.977.073,2.94.046,5.884.094,8.823.08,5.028.184,10.052.281,15.08.153,9.133.675,18.256.929,27.386.136,4.84.352,9.68.286,14.523-.1,7.362.31,14.707.494,22.063a5.538,5.538,0,0,0,.167,1.085.614.614,0,0,0,.512.463.714.714,0,0,0,.789-.33,1.548,1.548,0,0,0,.251-.487,18.865,18.865,0,0,1,1.761-4.026c1.684-3.4,3.333-6.826,5.066-10.205,1.621-3.162,3.365-6.259,4.683-9.568a25.428,25.428,0,0,1,1.239-2.463.669.669,0,0,1,.407-.306c.226-.042.271.191.292.358.167,1.4.251,2.815.5,4.2.685,3.806.724,7.689,1.388,11.5a8.738,8.738,0,0,1,.083,1.285c.059,2.943.108,5.884.174,8.827.014.672.067,1.343.122,2.015a.545.545,0,0,0,.421.532.837.837,0,0,0,.839-.244,2.112,2.112,0,0,0,.264-.47c.762-1.458,1.556-2.9,2.272-4.384,1.148-2.366,2.276-4.746,3.354-7.146a15.179,15.179,0,0,1,1.357-2.592,14.6,14.6,0,0,0,1.75-3.218c.45-1.2,1.069-2.338,1.608-3.5.827-1.778,1.638-3.559,2.477-5.33a2.358,2.358,0,0,0,.07-2.115,6.5,6.5,0,0,1-.407-2.519c-.087-2.018-.188-4.04-.341-6.055-.425-5.685-.971-11.36-1.3-17.049-.64-11.019-.807-22.056-1.078-33.089-.056-2.206-.112-4.412-.153-6.614-.063-3.372-.076-6.747-.174-10.115-.222-7.6-.5-15.194-.508-22.8-.007-5.7-.22-11.4-.341-17.1-.084-3.863-.15-7.722-.261-11.583-.14-4.965-.327-9.927-.466-14.888-.122-4.413-.191-8.828-.31-13.239-.087-3.372-.181-6.743-.334-10.112a4.014,4.014,0,0,1,.713-2.6,12.374,12.374,0,0,1,2.724-2.961,43.156,43.156,0,0,1,4.485-2.874,41.808,41.808,0,0,1,11.963-4.593,120.514,120.514,0,0,1,12.933-1.694,41.681,41.681,0,0,0,7.971-1.242,36.792,36.792,0,0,0,11.252-5.72,82.031,82.031,0,0,0,8.883-7.7,17.867,17.867,0,0,0,3.462-4.506,26.239,26.239,0,0,0,2.724-10.414,23.468,23.468,0,0,0-.706-8.2m-65.7-11.851A23.124,23.124,0,0,0,59.431,8.747c-.205-.23-.428-.438-.634-.665-.031-.034-.014-.115-.024-.17.1-.01.251-.073.3-.024a25.28,25.28,0,0,1,2.554,2.359A21.637,21.637,0,0,1,66.8,20.452c.272,1.5.661,2.985.909,4.5a6.377,6.377,0,0,1-1.684,5.239c-.111.136-.3.286-.466.154-.115-.091-.136-.3-.17-.383a29.594,29.594,0,0,0,.355-5.581,31.545,31.545,0,0,0-.689-5.456M46.7,68.976a51.317,51.317,0,0,1,4.614-8.959c.9-1.378,1.615-2.888,2.536-4.259.989-1.476,1.942-2.964,2.863-4.485q2.14-3.533,4.072-7.184c.108-.2.167-.491.494-.443.285.042.358.3.473.5a2.279,2.279,0,0,0,.348.644c.936.832.633,1.7.17,2.627a49.036,49.036,0,0,1-3.333,5.7c-1.485,2.178-2.961,4.356-4.45,6.527a36.029,36.029,0,0,0-4.009,8.027,10.549,10.549,0,0,0-.522,2.881,2.029,2.029,0,0,1-1.234,1.882c-.279.126-.522.317-.787.47-1.444.835-1.9.574-1.938-1.294a9.389,9.389,0,0,1,.7-2.634m13.674,14.9a2.046,2.046,0,0,0-.651-1.643c-.511-.421-.473-1.1-.563-1.7-.059-.418-.338-.748-.721-.693a5.628,5.628,0,0,1-3.441-1.061c-2.334-1.218-4.624-2.526-6.927-3.8-.518-.285-.522-.581-.031-.96.094-.077.192-.153.292-.223,1.761-1.207,1.907-1.242,3.744-.063,2.735,1.746,5.5,3.458,8.114,5.383.592.435,1.228.8,1.837,1.214.571.386.658.672.341,1.218-.494.842-1,1.673-1.527,2.5a.2.2,0,0,1-.094.069.94.94,0,0,1-.135.042c-.018,0-.031.01-.046.014a.379.379,0,0,0-.045.017v0c-.049-.1-.143-.205-.146-.31M59.6,76.4c-.292.543-.546.605-1.044.334-.588-.32-1.152-.689-1.726-1.037-1.461-.891-2.926-1.775-4.374-2.683-1.889-1.182-1.882-1.151-1.59-3.406a15.42,15.42,0,0,1,1.4-4.349,43.616,43.616,0,0,1,3.6-6.378C57.754,56.1,59.8,53.423,61.481,50.5c.55-.953,1.026-1.945,1.559-2.908.334-.609.65-.634,1.12-.122,1.569,1.708,3.135,3.424,4.711,5.129a23,23,0,0,0,1.653,1.712,8.272,8.272,0,0,1,2.508,5.724,7.618,7.618,0,0,1-.776,3.368A14.279,14.279,0,0,1,68.3,68.385c-1.273.949-2.491,1.965-3.765,2.922a16.544,16.544,0,0,0-4.94,5.1M46.443,255.559a13.879,13.879,0,0,0-1.016,2.557,6.534,6.534,0,0,1-.717,1.677,21.86,21.86,0,0,0-1.59,4.443c-.059.171-.032.435-.143.519-1.117.832-1.2,2.223-1.8,3.33a32.686,32.686,0,0,0-1.423,3.58c-.063.16-.17.338-.375.279a.4.4,0,0,1-.2-.285,11.341,11.341,0,0,1-.2-1.635c0-1.531.042-3.062.066-4.593h-.077c-.021-.612,0-1.228-.07-1.833-.191-1.587-.08-3.17-.115-4.753a49.773,49.773,0,0,0,.021-5.678,43.732,43.732,0,0,1-.1-4.582c-.041-1.524-.15-3.048-.184-4.575-.031-1.285.041-2.568,0-3.852-.073-2.14-.216-4.28-.3-6.42-.063-1.527-.038-3.058-.111-4.582s-.229-3.055-.338-4.582c-.41-5.81-.407-11.638-.605-17.456-.108-3.125-.243-6.256-.209-9.38.073-6.256-.191-12.506-.223-18.758-.035-6.19.077-12.386-.021-18.577-.094-6.009.094-12.014.233-18.02.146-6.19.431-12.373.651-18.559.031-.922.059-1.841.045-2.76-.063-3.987.157-7.964.428-11.937a9.637,9.637,0,0,1,.209-1.267c.021-.1.132-.192.2-.282v0c.021.017.049.038.073.056a.761.761,0,0,1,.2.177,4.44,4.44,0,0,1,.626,1.907c.226,1.948.449,3.9.64,5.846.365,3.723.727,7.442,1.058,11.165.327,3.663.6,7.335.926,11,.31,3.479.748,6.949.964,10.432.251,3.977.73,7.932,1.117,11.9.678,6.952,1.4,13.9,2.06,20.859.376,3.963.668,7.937,1.012,11.9.327,3.785.619,7.578,1.02,11.357.358,3.409.866,6.805,1.266,10.212.428,3.653.794,7.31,1.2,10.964.268,2.376.588,4.746.849,7.119.233,2.133.411,4.273.637,6.4.111,1.037.247,2.071.438,3.093a2.578,2.578,0,0,1-.324,1.921c-.616,1.054-1.113,2.181-1.653,3.278q-2.072,4.2-4.14,8.4m6.42-8.994a11.1,11.1,0,0,1-.637,1.517c-1.246,2.185-2.168,4.52-3.194,6.806-.351.786-.564,1.7-1.406,2.182v.056l-.031.021a1.332,1.332,0,0,1,.042.261c0,.045-.056.128-.09.128-.146.014-.223-.08-.16-.212a.617.617,0,0,1,.208-.177c0-.018-.007-.035-.01-.053.014-.007.028-.018.042-.024a4.452,4.452,0,0,1,.689-2,45.753,45.753,0,0,0,2.1-5.08,19.982,19.982,0,0,1,1.767-3.827c.14-.23.261-.658.634-.431.307.184.149.557.042.839m8.19,19.3c-1.026,2.561-2.154,5.072-3.323,7.571-.129.278-.257.553-.393.828a.326.326,0,0,1-.435.2.388.388,0,0,1-.212-.25,4.207,4.207,0,0,1-.08-.727c-.046-.982-.111-1.963-.111-2.94a73.6,73.6,0,0,0-.859-9.7c-.261-1.941-.393-3.9-.6-5.849-.24-2.317-.5-4.631-.752-6.949a5.587,5.587,0,0,1-.014-2.188.842.842,0,0,0,.007-.54c-.821-1.722-.511-3.608-.8-5.407-.3-1.931-.445-3.883-.818-5.811-.4-2.1-.532-4.251-.793-6.378-.7-5.6-1.27-11.207-1.813-16.819-.449-4.634-.912-9.272-1.5-13.89-.566-4.443-.817-8.907-1.21-13.36-.574-6.472-1.068-12.951-1.67-19.419-.609-6.59-1.326-13.173-1.962-19.76-.317-3.294-.518-6.6-.849-9.892-.376-3.782-.842-7.553-1.26-11.333-.139-1.28-.261-2.56-.355-3.844q-.333-4.583-.629-9.168c-.052-.759.16-.981.936-1,.487-.014.978.046,1.468.049.546,0,1.1-.011,1.646-.042.317-.017.63-.1.6-.515-.025-.3-.282-.358-.533-.376-.731-.045-1.461-.087-2.192-.138a2.684,2.684,0,0,1-1.367-.4,1.372,1.372,0,0,1-.206-.17,1.8,1.8,0,0,1-.254-.3s.007,0,.01,0a.255.255,0,0,0-.031-.07v.039s0,0,.007.007a.072.072,0,0,0,.011.017,3.087,3.087,0,0,1-1.5-2.714,79.01,79.01,0,0,1-.644-8.058,8.113,8.113,0,0,0-.282-1.43c-.254-1.5-.609-2.993-.021-4.52a2.01,2.01,0,0,0-.038-1.621,4.831,4.831,0,0,1-.344-2.153,7.015,7.015,0,0,0-.09-1.273,4.042,4.042,0,0,1,.682-2.954,7.751,7.751,0,0,1,1.064-1.493,38.358,38.358,0,0,1,6.416-5.755,1,1,0,0,1,1.179-.034,106.679,106.679,0,0,1,9.715,5.935,12.52,12.52,0,0,1,1.806,1.827,1.208,1.208,0,0,1,.268,1.034c-.257,2.209.476,4.367.341,6.573a4.149,4.149,0,0,0,.236,1.072,3.742,3.742,0,0,1,.209,1.075c-.156,1.659.324,3.27.338,4.919.01,1.59.149,3.184.205,4.774.031.8.01,1.594,0,2.39a2.238,2.238,0,0,1-2.115,2.45,13.665,13.665,0,0,1-2.547.344.484.484,0,0,0-.515.411c-.041.254.264.5.654.453a14.674,14.674,0,0,0,4.126-.843c.411-.181.546.049.591.394.045.366.08.73.094,1.1.254,7.411.459,14.822.341,22.244-.063,3.914.1,7.835.164,11.75q.057,3.4.136,6.8c.059,2.512.111,5.024.208,7.536.341,8.636.724,17.271,1.04,25.907.167,4.475.369,8.943.658,13.41.439,6.788.894,13.573,1.207,20.365.23,5.024.637,10.035,1.062,15.041.236,2.752.309,5.5.529,8.254q.183,2.291.463,4.572c.23,1.885-.014,3.8.425,5.671a2.249,2.249,0,0,1-.279,1.231c-1.569,4.711-3.6,9.235-5.449,13.838m4-128.829c.191,6.124.181,12.251.254,18.378.034,3.246.2,6.493.305,9.739-.031,0-.062,0-.09,0,.08,2.45.181,4.9.233,7.352.087,3.737.122,7.47.2,11.21q.13,5.694.307,11.392.308,10.381.634,20.762c.205,6.559.7,13.1,1.263,19.627.306,3.542.522,7.088.529,10.647a4.3,4.3,0,0,0,.122,1.458,5.9,5.9,0,0,1-.491,4.436c-1.1,2.721-2.4,5.359-3.619,8.03a1.223,1.223,0,0,1-.184.313.953.953,0,0,1-.261.142,1.287,1.287,0,0,1,.038-.33c.859-2.293,1.729-4.579,2.582-6.872.216-.571.338-1.18.56-1.747a5.154,5.154,0,0,0,.227-2.714c-.745-4.913-1.047-9.864-1.333-14.819-.174-3.058-.532-6.1-.755-9.161-.237-3.3-.407-6.6-.612-9.906-.466-7.461-.988-14.92-1.385-22.383-.285-5.383-.411-10.776-.609-16.166-.254-6.917-.432-13.841-.79-20.755-.358-6.979-.254-13.966-.393-20.949-.1-5.084-.024-10.17-.108-15.257-.066-4.037-.261-8.073-.39-12.109-.073-2.255-.108-4.505-.289-6.764-.348-4.273-.382-8.57-.566-12.857a4.276,4.276,0,0,1,.491-2.3c.553-1.019,1.085-2.056,1.653-3.072a.542.542,0,0,1,.438-.237.606.606,0,0,1,.372.355,2.681,2.681,0,0,1,.08.717c.226,3.3.306,6.6.359,9.913.094,5.758.3,11.516.455,17.271.251,8.884.491,17.766.769,26.649m-.623-57.292a.2.2,0,0,1-.167.021.137.137,0,0,1-.073-.1c.014-.185.466-.609.609-.578.028.045.09.118.077.132a6.331,6.331,0,0,1-.445.529m-.209-1.6c-.323.369-.661.724-1.009,1.065a.513.513,0,0,1-.675.073c-.661-.438-1.322-.881-1.955-1.357a.715.715,0,0,1-.167-.988,8.572,8.572,0,0,1,1.976-2.627Q64,72.945,65.635,71.61c1.423-1.159,2.93-2.23,4.283-3.462a12.511,12.511,0,0,0,3.946-6.5,6.744,6.744,0,0,0-.021-3.1c-.125-.533-.282-1.062-.428-1.59a7.516,7.516,0,0,0-2.265-3.5,101.218,101.218,0,0,1-7.167-7.627,7.557,7.557,0,0,1-1.761-6.663,23.663,23.663,0,0,1,1.287-4.21,6.7,6.7,0,0,1,1.006-1.524c1.145-1.51,2.325-3,3.462-4.512a12.094,12.094,0,0,0,1.2-1.844A50.376,50.376,0,0,1,74.361,19.3c.919-1.221,1.861-2.429,2.833-3.608A33.008,33.008,0,0,1,84.072,9.37a27.074,27.074,0,0,1,3.445-2.077,21.426,21.426,0,0,1,6.207-1.559c.786-.125,1.583-.17,2.519-.268a15.828,15.828,0,0,1,4.61.2c1.023.17,2.077.132,3.107.253a32.272,32.272,0,0,1,11.1,3.685,21.939,21.939,0,0,1,4.826,2.968,25.654,25.654,0,0,1,4.756,5.567,35.759,35.759,0,0,1,3.893,7.888,22.914,22.914,0,0,1,.985,11.955c-1.1,5-2.8,9.739-6.072,13.827a34.622,34.622,0,0,1-6.847,6.35,45.275,45.275,0,0,1-10.974,5.9,46.949,46.949,0,0,1-7.463,1.91,92.65,92.65,0,0,1-10.417,1.006,45.706,45.706,0,0,0-13.918,3.163,16.8,16.8,0,0,0-6.347,4.269c-1.1,1.236-2.175,2.5-3.264,3.74m66.485-40.1a16.2,16.2,0,0,1-.1,2.018,48.364,48.364,0,0,1-1.441,6.263,16.731,16.731,0,0,1-4.784,7.509,80.475,80.475,0,0,1-8.5,7.3,36.107,36.107,0,0,1-14.168,6.27,16.8,16.8,0,0,1-2,.233q-2.615.172-5.219.459c-2.891.317-5.772.724-8.646,1.179a43.563,43.563,0,0,0-16.666,6.468c-.824.526-1.638,1.072-2.467,1.6-.077.048-.209.007-.317.01a.852.852,0,0,1,.056-.32,17.033,17.033,0,0,1,9.067-6.813,43.705,43.705,0,0,1,6.005-1.7c2.9-.508,5.828-.741,7.488-.908,1.917-.073,3.7-.2,5.383-.379a49.9,49.9,0,0,0,9.795-2.008A44.527,44.527,0,0,0,115.808,59.4a58.859,58.859,0,0,0,5.654-4.395,23.084,23.084,0,0,0,3.229-3.757,24.957,24.957,0,0,0,3.24-5.536,48.5,48.5,0,0,0,2.387-7.7c.025-.108.084-.275.153-.292.261-.053.24.184.233.327M76.613,53.652A35.485,35.485,0,0,0,82.521,59.4a12.163,12.163,0,0,0,5.428,2.526,44.96,44.96,0,0,0,5.682.281,8.3,8.3,0,0,0,4.589-1.079c.9-.515,1.879-.89,2.818-1.343a44.271,44.271,0,0,0,12.616-9.061,25.743,25.743,0,0,0,6.075-10.577,24.913,24.913,0,0,0,.7-11.81,13.075,13.075,0,0,0-5.723-9.022c-.609-.407-1.249-.776-1.841-1.211-2.8-2.052-6.065-2.835-9.4-3.409a17.3,17.3,0,0,0-1.994-.17c-.076,0-.195.143-.226.24a.463.463,0,0,0,.035.341.974.974,0,0,0,.96.407,16.842,16.842,0,0,1,4.158.633,21.063,21.063,0,0,1,9.568,5.216,10.068,10.068,0,0,1,3.239,5.244c1.74,7.7.623,14.843-4.513,21.074a29.025,29.025,0,0,1-6.868,6.058A30.475,30.475,0,0,1,96,58.054a15.059,15.059,0,0,1-7.1-.247,4.511,4.511,0,0,1-1.657-.752,19.773,19.773,0,0,0-3.058-2.025,9.6,9.6,0,0,1-1.458-1.106,21.194,21.194,0,0,1-3.58-4.642,11.54,11.54,0,0,1-1.952-5.107c-.1-1.034-.077-2.078-.112-3.118a.143.143,0,0,1-.034,0c-.025-.675-.063-1.346-.063-2.022a12.705,12.705,0,0,1,1.166-5.713A37.027,37.027,0,0,1,81.6,27.693a62.872,62.872,0,0,1,8.027-8.577,26.054,26.054,0,0,1,4.248-3.2,7.014,7.014,0,0,1,3.994-1.152,14.862,14.862,0,0,1,2.188.195.762.762,0,0,0,.679-.177.369.369,0,0,0,.021-.031c.056-.157-.247-.585-.5-.651a3.855,3.855,0,0,0-.894-.167,12.855,12.855,0,0,0-5.237.766,39.458,39.458,0,0,0-7.606,4.04,38.1,38.1,0,0,0-9.575,9.816c-1.722,2.592-3.368,5.271-3.921,8.438-.243,1.388-.442,2.776-.56,4.182a11.692,11.692,0,0,0,.208,3.288,25.839,25.839,0,0,0,2,6.092,14.818,14.818,0,0,0,1.938,3.1m30.438,1.107.3.051c-.1-.014-.205-.021-.31-.035,0,0,0-.01.007-.017M73.836,36.924a27.022,27.022,0,0,1,4.85-9.6,41.692,41.692,0,0,1,5.936-6.249A32,32,0,0,1,89.6,17.62c.136-.08.428-.157.463-.1.129.185-.07.292-.2.407a94.98,94.98,0,0,0-7.241,7.3,34.89,34.89,0,0,0-5.285,7.93,10.539,10.539,0,0,0-1.194,4.954c.052,1.837.066,3.675.17,5.508a12.314,12.314,0,0,0,2.015,6.041,31.105,31.105,0,0,0,3.128,4.3,8.179,8.179,0,0,0,1.966,1.628,18.79,18.79,0,0,1,2.314,1.5,10.013,10.013,0,0,0,6.52,2.042,28.43,28.43,0,0,0,11.91-2.7,4.058,4.058,0,0,1,2.011-.73v-.035c.014,0,.028,0,.042,0,.115-.435.654-.491.821-.881.014.686-.084.8-.821.881,0,.014-.007.025-.01.038h-.031c0,.355-.309.463-.539.627a40.326,40.326,0,0,1-8,4.064c-3.473,1.42-6.928,1.1-10.449.456a9.7,9.7,0,0,1-3.6-1.761,25.969,25.969,0,0,1-7.467-7.742,19.7,19.7,0,0,1-2.937-8.427,17.443,17.443,0,0,1,.658-5.991m-21.9,47c-.271-.135-.564-.233-.835-.372a6.032,6.032,0,0,0-5.623.121,1.3,1.3,0,0,0-.56.421c-.543.881-1.082,1.768-1.562,2.683a7.276,7.276,0,0,0-.9,3.33,3.888,3.888,0,0,0,1.068,3.023c1.409,1.326,2.961,2.39,4.923,2.022.386-.031.63-.042.873-.073,3.622-.48,5.094-2.14,5.6-5.052a5.612,5.612,0,0,0-2.985-6.1m-.518,9.551a6.418,6.418,0,0,1-3.584.448,14.227,14.227,0,0,1-1.427-.275,3.736,3.736,0,0,1-2.857-3.751,7.784,7.784,0,0,1,2.084-4.766c.605-.709,1.545-.633,2.317-.811.174,0,.3.007.418.007a4.523,4.523,0,0,1,4.558,3.007,7.349,7.349,0,0,1,.653,2.829,3.448,3.448,0,0,1-2.163,3.312M24.533,17.129a16.6,16.6,0,0,1,3.305-3.43c1.36-.933,2.724-1.872,4.134-2.732,1.093-.668,2.262-1.214,3.385-1.833a.593.593,0,0,0,.268-.417.8.8,0,0,0-.14-.418c-.184-.32-.515-.643-.737-.647-1.768-.041-3.552-.31-5.285.271-1.4.466-2.777.971-4.172,1.423a11.388,11.388,0,0,0-4.06,2.45,38.708,38.708,0,0,0-7.7,9.314,19.667,19.667,0,0,0-1.764,3.83A29.369,29.369,0,0,0,10.18,36.235a43.381,43.381,0,0,0,1.938,12.588,24,24,0,0,0,3.281,6.75,35.315,35.315,0,0,0,4.534,4.8,28.766,28.766,0,0,0,6.03,3.838,14.946,14.946,0,0,0,5,1.781c1.928.268,3.9.212,5.846.362a2.088,2.088,0,0,0,2.1-1.159,3.044,3.044,0,0,1,1.148-1.145,19.679,19.679,0,0,0,6.559-6.573,19.4,19.4,0,0,0,1.855-2.947,28.06,28.06,0,0,0,1.813-5.772c.163-.9.362-1.8.57-2.69.585-2.5,1.225-5,1.764-7.509a72.8,72.8,0,0,0,1.44-9.8,39.233,39.233,0,0,0-.167-8.431A16.105,16.105,0,0,0,50.5,12.119,9.65,9.65,0,0,0,46.6,9.168a23.394,23.394,0,0,0-5.87-1.433,13.184,13.184,0,0,0-3.845.007A2.333,2.333,0,0,0,36.22,8a.133.133,0,0,0-.063.208.45.45,0,0,0,.073.095,1.276,1.276,0,0,0,1.034.237,15.448,15.448,0,0,1,3.851.038,39.1,39.1,0,0,1,4.618,1.176,7.289,7.289,0,0,1,3.242,2.014,16.388,16.388,0,0,1,2.819,4.28,21.574,21.574,0,0,1,1.638,8.782c0,1.965-.181,3.914-.362,5.866a78.478,78.478,0,0,1-1.726,10.135c-.661,2.926-1.392,5.836-2.073,8.758a23.038,23.038,0,0,1-2.425,6.319,22.01,22.01,0,0,1-5.581,6.524c-2.178,1.681-4.457,3.059-7.38,2.7a6.982,6.982,0,0,0-1.1.031,6.975,6.975,0,0,1-4.739-1.688,22.253,22.253,0,0,1-5.1-5.988,52.526,52.526,0,0,1-3.525-7.867A48.654,48.654,0,0,1,17.432,41.8a25.117,25.117,0,0,1,.219-10.213,33.266,33.266,0,0,1,6.882-14.457m-8,23.347c.358,2.3.783,4.579,1.367,6.834a58.427,58.427,0,0,0,3.772,9.547,19.531,19.531,0,0,0,3.066,4.336c.313.375.657.727.963,1.106.226.281.418.594.627.89-.494.324-.779-.156-1.131-.312-4.057-1.789-7.039-4.861-9.576-8.355a21.722,21.722,0,0,1-2.9-6.113,42.546,42.546,0,0,1-1.809-11.963,30.118,30.118,0,0,1,.926-9.613,22.918,22.918,0,0,1,2.94-6.684,40.717,40.717,0,0,1,6.385-7.558A10.782,10.782,0,0,1,25.5,9.913c1.169-.348,2.328-.755,3.465-1.193a7,7,0,0,1,3.6-.4c.484.069.974.066,1.461.1.16.011.227.1.2.237a.56.56,0,0,1-.059.163.352.352,0,0,1-.119.136c-1.7.856-3.187,2.06-4.826,3a20.158,20.158,0,0,0-6.44,6.423c-.208.3-.4.619-.612.919A32.721,32.721,0,0,0,16.93,31.541a23.825,23.825,0,0,0-.393,8.935m24.029,66.091a1.081,1.081,0,0,0-.028.327,2.274,2.274,0,0,0,.16.393,3.021,3.021,0,0,0,.01-.309c-.007-.15.066-.331-.143-.411" transform="translate(-1.59 0)" fill="#351b1b"/>
      </g>
    </g>
  </g>
</svg>
