<svg xmlns="http://www.w3.org/2000/svg" width="400" height="389" viewBox="0 0 400 389">
  <g id="Grupo_1065377" data-name="Grupo 1065377" transform="translate(-600 -3785)">
    <path id="Trazado_774732" data-name="Trazado 774732" d="M20,0H380c11.046,0,20,7.318,20,16.345V372.655c0,9.027-8.954,16.345-20,16.345H20c-11.046,0-20-7.318-20-16.345V16.345C0,7.318,8.954,0,20,0Z" transform="translate(600 3785)" fill="#f5947a"/>
    <path id="Trazado_778152" data-name="Trazado 778152" d="M87.117,25.543a14.2,14.2,0,0,1-4.816.75,9.8,9.8,0,0,1-4.629-1.025A7.021,7.021,0,0,1,74.7,22.35a9.02,9.02,0,0,1-1.025-4.365,9.61,9.61,0,0,1,1.148-4.734,7.942,7.942,0,0,1,3.246-3.205A10.016,10.016,0,0,1,82.9,8.914a16.781,16.781,0,0,1,4.219.527v4.676a5.954,5.954,0,0,0-1.676-.656,8.375,8.375,0,0,0-1.969-.234,4.407,4.407,0,0,0-3.252,1.184,4.327,4.327,0,0,0-1.189,3.211A4.251,4.251,0,0,0,80.221,20.8,4.348,4.348,0,0,0,83.4,21.969a8.255,8.255,0,0,0,3.715-.937Zm9.8.457V24.148h-.047A6.568,6.568,0,0,1,95.748,25.4a4.306,4.306,0,0,1-1.125.645,3.978,3.978,0,0,1-1.459.246,3.63,3.63,0,0,1-3-1.277,5.9,5.9,0,0,1-1.031-3.773V14h4.992v6.867q0,1.77,1.324,1.77a1.3,1.3,0,0,0,1.1-.48,2.19,2.19,0,0,0,.369-1.359V14h4.992V26ZM108.6,21.418a1.686,1.686,0,0,0,.891,1.213,4.016,4.016,0,0,0,2.016.439,8.3,8.3,0,0,0,3.3-.668v3.164a11.877,11.877,0,0,1-4.406.727,6.952,6.952,0,0,1-4.887-1.605,5.7,5.7,0,0,1-1.746-4.418,7.289,7.289,0,0,1,.768-3.41,5.523,5.523,0,0,1,2.273-2.314,6.717,6.717,0,0,1,3.322-.838,6.537,6.537,0,0,1,3.188.727,4.84,4.84,0,0,1,2.01,2.039,6.542,6.542,0,0,1,.686,3.07v1.875Zm3-2.613q0-2.074-1.488-2.074a1.259,1.259,0,0,0-1.043.568,2.836,2.836,0,0,0-.492,1.506Zm15.164-.527a4.8,4.8,0,0,0-1.559-.34q-2.473,0-2.473,2.859V26h-4.992V14h4.992v2.109h.047a3.747,3.747,0,0,1,1.3-1.729,3.342,3.342,0,0,1,1.969-.592,1.691,1.691,0,0,1,.715.141Zm14.977,1.359a8.538,8.538,0,0,1-.668,3.48,5.4,5.4,0,0,1-1.887,2.344,4.752,4.752,0,0,1-2.742.832,3.674,3.674,0,0,1-3.2-1.535H133.2V31.52H128.2V14H133.2v1.629h.047a4.228,4.228,0,0,1,1.547-1.412,4.485,4.485,0,0,1,2.156-.51,4.286,4.286,0,0,1,3.557,1.547A6.863,6.863,0,0,1,141.738,19.637Zm-5.062.152a3.128,3.128,0,0,0-.439-1.781,1.649,1.649,0,0,0-2.643.035,3.122,3.122,0,0,0-.492,1.863v.234a3.416,3.416,0,0,0,.422,1.816,1.392,1.392,0,0,0,1.266.68,1.577,1.577,0,0,0,1.395-.744A3.8,3.8,0,0,0,136.676,19.789Zm20.285,0a6.249,6.249,0,0,1-1.834,4.77,8.473,8.473,0,0,1-10.219.041,6.061,6.061,0,0,1-1.822-4.67,6.256,6.256,0,0,1,.855-3.316,5.563,5.563,0,0,1,2.438-2.156,8.415,8.415,0,0,1,3.645-.75,8.151,8.151,0,0,1,3.7.785,5.715,5.715,0,0,1,2.4,2.18A5.935,5.935,0,0,1,156.961,19.789Zm-5.062.023q0-2.449-1.875-2.449t-1.875,2.566q0,2.707,1.9,2.707Q151.9,22.637,151.9,19.813ZM173.508,26V24.605h-.047a4.119,4.119,0,0,1-1.559,1.236,4.441,4.441,0,0,1-1.9.451,4.883,4.883,0,0,1-2.707-.756,4.59,4.59,0,0,1-1.752-2.115,8.141,8.141,0,0,1-.58-3.211,7.9,7.9,0,0,1,.691-3.387,5.412,5.412,0,0,1,1.945-2.3,5.025,5.025,0,0,1,2.813-.82,4.257,4.257,0,0,1,1.365.211,3.694,3.694,0,0,1,1.09.568,1.7,1.7,0,0,1,.592.709h.047V8.234H178.5V26Zm.105-6.363a2.633,2.633,0,0,0-.475-1.676,1.6,1.6,0,0,0-2.6.146,3.457,3.457,0,0,0-.51,1.986q0,2.543,1.758,2.543a1.564,1.564,0,0,0,1.33-.686,3.374,3.374,0,0,0,.5-2Zm11.59,1.781a1.686,1.686,0,0,0,.891,1.213,4.016,4.016,0,0,0,2.016.439,8.3,8.3,0,0,0,3.3-.668v3.164a11.877,11.877,0,0,1-4.406.727,6.952,6.952,0,0,1-4.887-1.605,5.7,5.7,0,0,1-1.746-4.418,7.289,7.289,0,0,1,.768-3.41,5.523,5.523,0,0,1,2.273-2.314,6.717,6.717,0,0,1,3.322-.838,6.537,6.537,0,0,1,3.188.727,4.84,4.84,0,0,1,2.01,2.039,6.542,6.542,0,0,1,.686,3.07v1.875Zm3-2.613q0-2.074-1.488-2.074a1.259,1.259,0,0,0-1.043.568,2.836,2.836,0,0,0-.492,1.506Zm6.141,7.2V8.234h4.992V26Zm20.4-1.676a6.822,6.822,0,0,1-2.174,5.385q-2.174,1.928-6.346,1.928a13.24,13.24,0,0,1-2.18-.176,6.007,6.007,0,0,1-1.512-.4V27.148a7.541,7.541,0,0,0,3.551,1.031,4.163,4.163,0,0,0,2.684-.809,2.612,2.612,0,0,0,1.008-2.145v-.738h-.047a3.878,3.878,0,0,1-1.482,1.313,4.307,4.307,0,0,1-2.021.492,4.529,4.529,0,0,1-3.668-1.611,6.726,6.726,0,0,1-1.348-4.447,7.952,7.952,0,0,1,.7-3.434,5.358,5.358,0,0,1,1.957-2.291,5.025,5.025,0,0,1,2.766-.8,3.461,3.461,0,0,1,3.094,1.535h.047V14h4.969Zm-4.887-4.664a2.694,2.694,0,0,0-.475-1.676,1.507,1.507,0,0,0-1.26-.621,1.551,1.551,0,0,0-1.348.75,3.541,3.541,0,0,0-.5,2,3.468,3.468,0,0,0,.422,1.84,1.457,1.457,0,0,0,1.336.68,1.548,1.548,0,0,0,1.342-.7,3.211,3.211,0,0,0,.486-1.869ZM223.8,26V24.172h-.047a3.926,3.926,0,0,1-3.656,2.121,3.5,3.5,0,0,1-2.66-1.008,3.744,3.744,0,0,1-.961-2.7q0-3.539,4.348-4.1L223.8,18.1a1.135,1.135,0,0,0-.527-.961,2.4,2.4,0,0,0-1.418-.375,9.34,9.34,0,0,0-4.254,1.148V14.668a11.38,11.38,0,0,1,2.438-.691,14.186,14.186,0,0,1,2.508-.27,6.3,6.3,0,0,1,4.436,1.307q1.377,1.307,1.377,4.365V26Zm-2.953-4.078a1.106,1.106,0,0,0,.311.809,1.184,1.184,0,0,0,.885.316,1.573,1.573,0,0,0,1.271-.586,2.27,2.27,0,0,0,.486-1.5V20.5l-1.687.234Q220.852,20.949,220.852,21.922ZM238.629,26V24.605h-.047a4.119,4.119,0,0,1-1.559,1.236,4.441,4.441,0,0,1-1.9.451,4.883,4.883,0,0,1-2.707-.756,4.59,4.59,0,0,1-1.752-2.115,8.141,8.141,0,0,1-.58-3.211,7.9,7.9,0,0,1,.691-3.387,5.412,5.412,0,0,1,1.945-2.3,5.025,5.025,0,0,1,2.813-.82,4.257,4.257,0,0,1,1.365.211,3.694,3.694,0,0,1,1.09.568,1.7,1.7,0,0,1,.592.709h.047V8.234h4.992V26Zm.105-6.363a2.633,2.633,0,0,0-.475-1.676,1.6,1.6,0,0,0-2.6.146,3.457,3.457,0,0,0-.51,1.986q0,2.543,1.758,2.543a1.564,1.564,0,0,0,1.33-.686,3.374,3.374,0,0,0,.5-2Zm20.637.152a6.249,6.249,0,0,1-1.834,4.77,8.473,8.473,0,0,1-10.219.041,6.061,6.061,0,0,1-1.822-4.67,6.256,6.256,0,0,1,.855-3.316,5.563,5.563,0,0,1,2.438-2.156,8.415,8.415,0,0,1,3.645-.75,8.151,8.151,0,0,1,3.7.785,5.715,5.715,0,0,1,2.4,2.18A5.935,5.935,0,0,1,259.371,19.789Zm-5.062.023q0-2.449-1.875-2.449t-1.875,2.566q0,2.707,1.9,2.707Q254.309,22.637,254.309,19.813Z" transform="translate(634 4097)" fill="#12263f"/>
    <g id="Grupo_56063" data-name="Grupo 56063" transform="translate(-5.698 964.22)">
      <g id="Grupo_55776" data-name="Grupo 55776" transform="translate(667 2868)">
        <path id="Trazado_100521" data-name="Trazado 100521" d="M93.682,434.575c-113.919-4.6-70.793,177.455,61.357,168.962S187.127,438.352,93.682,434.575Z" transform="translate(0.135 -389.106)" fill="#baefe4"/>
        <g id="Grupo_55728" data-name="Grupo 55728" transform="translate(0 20.669)">
          <g id="Grupo_53771" data-name="Grupo 53771" transform="translate(195.753 86.19)">
            <path id="Trazado_100522" data-name="Trazado 100522" d="M126.662,459.094c14.64-2.936,28.884,6.516,28.884,6.516s-9.5,14.213-24.138,17.152-28.884-6.516-28.884-6.516S112.019,462.033,126.662,459.094Z" transform="translate(-79.568 -458.529)" fill="#8f8b66"/>
            <path id="Trazado_100523" data-name="Trazado 100523" d="M94.079,486.906a.65.65,0,0,1-.519-.762.635.635,0,0,1,.2-.361,97.029,97.029,0,0,1,23.284-14.5A123.237,123.237,0,0,1,161.422,461.1a.653.653,0,1,1,.072,1.3h-.023a123.707,123.707,0,0,0-43.891,10.088,95.7,95.7,0,0,0-22.941,14.27A.656.656,0,0,1,94.079,486.906Z" transform="translate(-93.547 -454.534)" fill="#b3ae7f"/>
            <path id="Trazado_100524" data-name="Trazado 100524" d="M112.8,467.141a.654.654,0,0,1-.261-1.169l8.8-6.391a.653.653,0,0,1,.783,1.046l-.015.01-8.8,6.393A.649.649,0,0,1,112.8,467.141Z" transform="translate(-64.386 -457.094)" fill="#b3ae7f"/>
            <path id="Trazado_100525" data-name="Trazado 100525" d="M120.449,470.647a.608.608,0,0,1-.212-.079l-10.943-6.513a.652.652,0,1,1,.632-1.14l.033.018,10.945,6.513a.653.653,0,0,1-.458,1.2Z" transform="translate(-69.55 -451.83)" fill="#b3ae7f"/>
            <path id="Trazado_100526" data-name="Trazado 100526" d="M105.723,469.751a.656.656,0,0,1-.378-1.064l6.168-7.4a.652.652,0,0,1,1,.834l-6.166,7.4a.658.658,0,0,1-.624.23Z" transform="translate(-75.412 -454.568)" fill="#b3ae7f"/>
          </g>
          <g id="Grupo_53793" data-name="Grupo 53793" transform="translate(195.678 50.769)">
            <path id="Trazado_100527" data-name="Trazado 100527" d="M123.986,453.832c-2.066.887-10.03-.033-10.03-.033s4.749-6.559,6.813-7.447,8.155.765,8.155.765S126.052,452.944,123.986,453.832Z" transform="translate(-61.69 -442.48)" fill="#7d6871"/>
            <g id="Grupo_53773" data-name="Grupo 53773" transform="translate(0 9.805)">
              <g id="Grupo_53772" data-name="Grupo 53772">
                <path id="Trazado_100528" data-name="Trazado 100528" d="M94.122,506.539l-.6-.159c11.7-44.131,55.178-57.784,55.6-57.869l.123.611C148.824,449.208,105.734,462.746,94.122,506.539Z" transform="translate(-93.518 -448.512)" fill="#54464c"/>
              </g>
            </g>
            <g id="Grupo_53776" data-name="Grupo 53776" transform="translate(41.08 16.405)">
              <path id="Trazado_100529" data-name="Trazado 100529" d="M118.414,459.25c-2.1-.808-7.153-7.027-7.153-7.027s7.979-1.378,10.076-.57,5.3,6.24,5.3,6.24S120.511,460.059,118.414,459.25Z" transform="translate(-106.967 -450.617)" fill="#7d6871"/>
              <g id="Grupo_53775" data-name="Grupo 53775">
                <g id="Grupo_53774" data-name="Grupo 53774">
                  <path id="Trazado_100530" data-name="Trazado 100530" d="M124.266,456.33c-3.667-1.734-14.574-4.606-14.684-4.634l.156-.6c.453.118,11.076,2.913,14.794,4.675Z" transform="translate(-109.582 -451.093)" fill="#54464c"/>
                </g>
              </g>
            </g>
            <g id="Grupo_53779" data-name="Grupo 53779" transform="translate(28.133 25.197)">
              <path id="Trazado_100531" data-name="Trazado 100531" d="M113.353,462.69c-2.1-.808-7.155-7.03-7.155-7.03s7.981-1.376,10.078-.57,5.3,6.242,5.3,6.242S115.45,463.5,113.353,462.69Z" transform="translate(-101.904 -454.054)" fill="#7d6871"/>
              <g id="Grupo_53778" data-name="Grupo 53778">
                <g id="Grupo_53777" data-name="Grupo 53777">
                  <path id="Trazado_100532" data-name="Trazado 100532" d="M119.205,459.768c-3.667-1.734-14.574-4.606-14.686-4.634l.161-.6c.448.118,11.073,2.915,14.791,4.675Z" transform="translate(-104.519 -454.531)" fill="#54464c"/>
                </g>
              </g>
            </g>
            <g id="Grupo_53782" data-name="Grupo 53782" transform="translate(17.51 35.7)">
              <path id="Trazado_100533" data-name="Trazado 100533" d="M109.2,466.8c-2.1-.808-7.153-7.027-7.153-7.027s7.979-1.378,10.076-.57,5.3,6.24,5.3,6.24S111.3,467.6,109.2,466.8Z" transform="translate(-97.75 -458.162)" fill="#7d6871"/>
              <g id="Grupo_53781" data-name="Grupo 53781">
                <g id="Grupo_53780" data-name="Grupo 53780">
                  <path id="Trazado_100534" data-name="Trazado 100534" d="M115.049,463.875c-3.667-1.734-14.574-4.606-14.684-4.634l.159-.6c.45.118,11.073,2.913,14.791,4.672Z" transform="translate(-100.365 -458.638)" fill="#54464c"/>
                </g>
              </g>
            </g>
            <g id="Grupo_53785" data-name="Grupo 53785" transform="translate(9.49 46.238)">
              <path id="Trazado_100535" data-name="Trazado 100535" d="M106.061,470.918c-2.1-.808-7.153-7.025-7.153-7.025s7.979-1.381,10.078-.573,5.3,6.242,5.3,6.242S108.16,471.726,106.061,470.918Z" transform="translate(-94.614 -462.28)" fill="#7d6871"/>
              <g id="Grupo_53784" data-name="Grupo 53784">
                <g id="Grupo_53783" data-name="Grupo 53783">
                  <path id="Trazado_100536" data-name="Trazado 100536" d="M111.913,468c-3.667-1.734-14.574-4.606-14.684-4.636l.159-.6c.45.12,11.073,2.915,14.791,4.675Z" transform="translate(-97.229 -462.759)" fill="#54464c"/>
                </g>
              </g>
            </g>
            <g id="Grupo_53789" data-name="Grupo 53789" transform="translate(34.356)">
              <g id="Grupo_53787" data-name="Grupo 53787">
                <g id="Grupo_53786" data-name="Grupo 53786">
                  <path id="Trazado_100537" data-name="Trazado 100537" d="M114.917,452.71c-.578,2.174-6.222,7.866-6.222,7.866s-2.225-7.787-1.647-9.958,5.634-5.941,5.634-5.941S115.5,450.537,114.917,452.71Z" transform="translate(-106.953 -444.678)" fill="#7d6871"/>
                </g>
              </g>
              <g id="Grupo_53788" data-name="Grupo 53788" transform="translate(0.589 4.974)">
                <path id="Trazado_100538" data-name="Trazado 100538" d="M107.8,461.923l-.616-.092c.072-.46,1.711-11.324,3.064-15.208l.588.2C109.5,450.659,107.817,461.811,107.8,461.923Z" transform="translate(-107.183 -446.623)" fill="#54464c"/>
              </g>
            </g>
            <g id="Grupo_53792" data-name="Grupo 53792" transform="translate(18.199 10.707)">
              <path id="Trazado_100539" data-name="Trazado 100539" d="M108.76,456.353c-.169,2.243-4.68,8.869-4.68,8.869s-3.613-7.247-3.44-9.487,4.457-6.869,4.457-6.869S108.931,454.11,108.76,456.353Z" transform="translate(-100.635 -448.865)" fill="#7d6871"/>
              <g id="Grupo_53791" data-name="Grupo 53791" transform="translate(2.97 5.268)">
                <g id="Grupo_53790" data-name="Grupo 53790">
                  <path id="Trazado_100540" data-name="Trazado 100540" d="M101.921,466.438c-.018-.465-.386-11.446.23-15.513l.619.1c-.611,4.01-.23,15.282-.228,15.395Z" transform="translate(-101.796 -450.925)" fill="#54464c"/>
                </g>
              </g>
            </g>
          </g>
          <g id="Grupo_53821" data-name="Grupo 53821" transform="translate(111.454 103.239)">
            <g id="Grupo_53820" data-name="Grupo 53820">
              <g id="Grupo_53806" data-name="Grupo 53806" transform="translate(10.211 6.264)">
                <g id="Grupo_53803" data-name="Grupo 53803" transform="translate(0 12.493)">
                  <path id="Trazado_100548" data-name="Trazado 100548" d="M64.819,474.227a.242.242,0,0,1-.243-.248.234.234,0,0,1,.041-.136c.276-.409.563-.818.859-1.212a.243.243,0,0,1,.343-.051.246.246,0,0,1,.051.345h0c-.289.389-.575.79-.846,1.194A.25.25,0,0,1,64.819,474.227Z" transform="translate(-64.576 -472.531)" fill="#b5ac84"/>
                </g>
                <g id="Grupo_53804" data-name="Grupo 53804" transform="translate(2.524 0.793)">
                  <path id="Trazado_100549" data-name="Trazado 100549" d="M65.809,478.089a.246.246,0,0,1-.184-.409c.588-.667,1.212-1.317,1.849-1.933a.246.246,0,1,1,.363.332l-.023.021c-.632.606-1.245,1.245-1.823,1.9a.262.262,0,0,1-.182.089Zm3.833-3.672a.248.248,0,0,1-.245-.248.244.244,0,0,1,.09-.189c.693-.56,1.417-1.1,2.151-1.6a.246.246,0,0,1,.276.407h0c-.724.491-1.437,1.02-2.117,1.57a.242.242,0,0,1-.153.056Zm4.391-2.982a.243.243,0,0,1-.246-.243.247.247,0,0,1,.125-.215c.775-.437,1.578-.841,2.386-1.215a.247.247,0,0,1,.2.448c-.8.363-1.586.765-2.35,1.194a.245.245,0,0,1-.12.028Zm4.828-2.2a.249.249,0,0,1-.245-.248.245.245,0,0,1,.161-.23c.841-.3,1.7-.565,2.557-.793a.246.246,0,0,1,.125.476c-.844.223-1.69.486-2.516.78a.221.221,0,0,1-.082.01Z" transform="translate(-65.563 -467.956)" fill="#b5ac84"/>
                </g>
                <g id="Grupo_53805" data-name="Grupo 53805" transform="translate(20.711)">
                  <path id="Trazado_100550" data-name="Trazado 100550" d="M72.921,468.358a.245.245,0,0,1-.041-.486c.486-.084.979-.161,1.47-.225a.248.248,0,0,1,.064.491c-.483.061-.972.133-1.45.217a.223.223,0,0,1-.043,0Z" transform="translate(-72.675 -467.646)" fill="#b5ac84"/>
                </g>
              </g>
              <g id="Grupo_53810" data-name="Grupo 53810" transform="translate(4.856 6.832)">
                <g id="Grupo_53807" data-name="Grupo 53807" transform="translate(38.747)">
                  <path id="Trazado_100551" data-name="Trazado 100551" d="M79.307,468.728a.314.314,0,0,1-.066-.008c-.468-.133-.946-.253-1.417-.366a.247.247,0,0,1,.113-.481c.478.112.962.238,1.437.373a.243.243,0,0,1,.166.3.239.239,0,0,1-.233.176Z" transform="translate(-77.633 -467.868)" fill="#b5ac84"/>
                </g>
                <g id="Grupo_53808" data-name="Grupo 53808" transform="translate(0.044 1.319)">
                  <path id="Trazado_100552" data-name="Trazado 100552" d="M94.692,529.867a.246.246,0,1,1,0-.491h0c.99-.015,1.99-.074,2.969-.182a.247.247,0,0,1,.051.491c-.995.107-2.01.166-3.015.181Zm-3-.1h-.018c-1-.084-2.013-.21-3-.384a.247.247,0,0,1,.051-.491l.033.008c.972.166,1.964.3,2.951.376a.248.248,0,0,1,.238.256.244.244,0,0,1-.256.235Zm8.956-.545a.247.247,0,0,1-.051-.489c.969-.2,1.941-.447,2.882-.736a.246.246,0,0,1,.146.47h0c-.959.294-1.944.547-2.928.749l-.049.005Zm-14.855-.5a.312.312,0,0,1-.066-.008c-.967-.269-1.933-.591-2.869-.949a.245.245,0,1,1,.176-.458c.923.355,1.874.667,2.826.931a.246.246,0,0,1-.066.483Zm20.581-1.261a.249.249,0,0,1-.245-.248.242.242,0,0,1,.151-.225c.91-.381,1.816-.808,2.69-1.273a.245.245,0,1,1,.23.432c-.885.476-1.8.908-2.731,1.294a.2.2,0,0,1-.1.015ZM80.2,526.578a.228.228,0,0,1-.107-.026c-.9-.448-1.788-.944-2.639-1.473a.248.248,0,1,1,.261-.422c.839.524,1.713,1.01,2.6,1.453a.246.246,0,0,1-.11.465Zm31.465-1.933a.246.246,0,0,1-.245-.248.249.249,0,0,1,.107-.2c.826-.545,1.634-1.138,2.4-1.759a.248.248,0,0,1,.345.056.241.241,0,0,1-.036.325c-.78.632-1.6,1.233-2.437,1.788a.239.239,0,0,1-.138.036Zm-36.549-1.238a.25.25,0,0,1-.151-.051c-.8-.609-1.575-1.261-2.312-1.946a.246.246,0,1,1,.335-.361c.726.673,1.493,1.317,2.279,1.915a.245.245,0,0,1,.043.345.242.242,0,0,1-.194.1Zm41.208-2.534a.246.246,0,0,1-.176-.074.249.249,0,0,1,0-.348c.708-.69,1.391-1.424,2.028-2.179a.247.247,0,0,1,.391.3l-.015.015c-.647.767-1.34,1.514-2.059,2.215a.24.24,0,0,1-.171.071Zm-45.607-1.537a.241.241,0,0,1-.184-.084c-.673-.749-1.312-1.537-1.905-2.345a.245.245,0,1,1,.394-.292c.591.8,1.217,1.573,1.88,2.309a.248.248,0,0,1-.184.412Zm49.478-3.038a.249.249,0,0,1-.248-.245.232.232,0,0,1,.046-.141c.563-.813,1.092-1.662,1.58-2.524a.244.244,0,0,1,.34-.074.25.25,0,0,1,.089.317c-.494.875-1.033,1.736-1.606,2.56a.249.249,0,0,1-.2.107ZM67.162,514.51a.248.248,0,0,1-.212-.118c-.517-.862-1-1.759-1.43-2.665a.246.246,0,1,1,.445-.21h0c.425.89.9,1.772,1.407,2.621a.247.247,0,0,1-.21.373Zm55.971-3.437a.246.246,0,0,1-.248-.245.221.221,0,0,1,.023-.1c.4-.905.762-1.839,1.074-2.775a.242.242,0,0,1,.309-.156.245.245,0,0,1,.156.312h0c-.317.951-.683,1.9-1.092,2.818a.253.253,0,0,1-.222.148ZM64.583,509.1a.241.241,0,0,1-.23-.161c-.345-.944-.647-1.915-.9-2.887a.246.246,0,0,1,.176-.3.243.243,0,0,1,.3.176h0c.248.956.545,1.913.882,2.841a.242.242,0,0,1-.146.315h0a.246.246,0,0,1-.084.015Zm60.441-3.713a.387.387,0,0,1-.056-.005.247.247,0,0,1-.184-.3c.22-.962.4-1.946.524-2.928a.246.246,0,0,1,.488.064c-.13,1-.309,2-.534,2.974a.243.243,0,0,1-.238.192ZM63.079,503.3a.247.247,0,0,1-.243-.207c-.159-.992-.269-2-.335-3a.244.244,0,0,1,.215-.274.247.247,0,0,1,.274.215v.028c.061.987.171,1.982.325,2.956a.243.243,0,0,1-.2.281l-.036.005Zm62.72-3.854h-.008a.247.247,0,0,1-.238-.253c.015-.376.02-.757.02-1.138,0-.611-.018-1.23-.051-1.839a.246.246,0,0,1,.491-.028c.033.619.054,1.245.054,1.867,0,.384-.008.772-.02,1.156a.249.249,0,0,1-.245.238Zm-.348-5.984a.249.249,0,0,1-.243-.207c-.148-.979-.348-1.959-.588-2.918a.245.245,0,1,1,.476-.12c.248.974.45,1.969.6,2.964a.245.245,0,0,1-.2.279h0a.1.1,0,0,1-.038,0Zm-1.47-5.808a.243.243,0,0,1-.23-.164c-.338-.931-.716-1.854-1.138-2.749a.247.247,0,0,1,.44-.225l.008.015c.427.908.813,1.849,1.153,2.792a.249.249,0,0,1-.151.315.22.22,0,0,1-.082.015Zm-2.55-5.422a.242.242,0,0,1-.21-.12c-.506-.849-1.056-1.685-1.637-2.486a.245.245,0,0,1,.394-.292h0c.588.811,1.151,1.662,1.662,2.522a.247.247,0,0,1-.212.373Zm-3.529-4.843a.241.241,0,0,1-.184-.085c-.657-.739-1.355-1.458-2.077-2.133a.246.246,0,0,1,.335-.358c.734.685,1.442,1.414,2.11,2.166a.245.245,0,0,1-.026.348.241.241,0,0,1-.159.061Zm-4.378-4.094a.249.249,0,0,1-.151-.051c-.783-.6-1.6-1.176-2.437-1.706a.246.246,0,1,1,.261-.417c.849.537,1.683,1.12,2.481,1.734a.244.244,0,0,1,.043.345.248.248,0,0,1-.194.095Zm-5.071-3.194a.265.265,0,0,1-.11-.026c-.885-.447-1.8-.854-2.718-1.215a.244.244,0,0,1-.159-.309.248.248,0,0,1,.312-.159l.026.01c.933.366,1.864.78,2.759,1.233a.242.242,0,0,1,.113.327.247.247,0,0,1-.222.138Z" transform="translate(-62.499 -468.383)" fill="#b5ac84"/>
                </g>
                <g id="Grupo_53809" data-name="Grupo 53809" transform="translate(0 28.264)">
                  <path id="Trazado_100553" data-name="Trazado 100553" d="M62.73,480.869h-.01a.249.249,0,0,1-.238-.253c.018-.494.046-.992.084-1.483a.247.247,0,0,1,.491.038c-.038.483-.064.974-.084,1.46A.247.247,0,0,1,62.73,480.869Z" transform="translate(-62.482 -478.92)" fill="#b5ac84"/>
                </g>
              </g>
              <g id="Grupo_53814" data-name="Grupo 53814" transform="translate(10.211 6.264)">
                <g id="Grupo_53811" data-name="Grupo 53811" transform="translate(0 12.493)">
                  <path id="Trazado_100554" data-name="Trazado 100554" d="M64.819,474.227a.242.242,0,0,1-.243-.248.234.234,0,0,1,.041-.136c.276-.409.563-.818.859-1.212a.243.243,0,0,1,.343-.051.246.246,0,0,1,.051.345h0c-.289.389-.575.79-.846,1.194A.25.25,0,0,1,64.819,474.227Z" transform="translate(-64.576 -472.531)" fill="#b5ac84"/>
                </g>
                <g id="Grupo_53812" data-name="Grupo 53812" transform="translate(2.524 0.793)">
                  <path id="Trazado_100555" data-name="Trazado 100555" d="M65.809,478.089a.246.246,0,0,1-.184-.409c.588-.667,1.212-1.317,1.849-1.933a.246.246,0,1,1,.363.332l-.023.021c-.632.606-1.245,1.245-1.823,1.9a.262.262,0,0,1-.182.089Zm3.833-3.672a.248.248,0,0,1-.245-.248.244.244,0,0,1,.09-.189c.693-.56,1.417-1.1,2.151-1.6a.246.246,0,0,1,.276.407h0c-.724.491-1.437,1.02-2.117,1.57a.242.242,0,0,1-.153.056Zm4.391-2.982a.243.243,0,0,1-.246-.243.247.247,0,0,1,.125-.215c.775-.437,1.578-.841,2.386-1.215a.247.247,0,0,1,.2.448c-.8.363-1.586.765-2.35,1.194a.245.245,0,0,1-.12.028Zm4.828-2.2a.249.249,0,0,1-.245-.248.245.245,0,0,1,.161-.23c.841-.3,1.7-.565,2.557-.793a.246.246,0,0,1,.125.476c-.844.223-1.69.486-2.516.78a.221.221,0,0,1-.082.01Z" transform="translate(-65.563 -467.956)" fill="#b5ac84"/>
                </g>
                <g id="Grupo_53813" data-name="Grupo 53813" transform="translate(20.711)">
                  <path id="Trazado_100556" data-name="Trazado 100556" d="M72.921,468.358a.245.245,0,0,1-.041-.486c.486-.084.979-.161,1.47-.225a.248.248,0,0,1,.064.491c-.483.061-.972.133-1.45.217a.223.223,0,0,1-.043,0Z" transform="translate(-72.675 -467.646)" fill="#b5ac84"/>
                </g>
              </g>
              <g id="Grupo_53815" data-name="Grupo 53815" transform="translate(31.109)">
                <path id="Trazado_100557" data-name="Trazado 100557" d="M82.967,477.21l-3.9-2.836-3.9,2.836,1.491-4.59-3.9-2.836h4.823l1.491-4.588,1.491,4.588h4.826l-3.9,2.836Zm-3.9-3.447,2.966,2.156L80.9,472.431l2.966-2.156H80.2l-1.133-3.491-1.135,3.491h-3.67l2.966,2.156L76.1,475.919Z" transform="translate(-72.748 -465.196)" fill="#b5ac84"/>
              </g>
              <g id="Grupo_53819" data-name="Grupo 53819" transform="translate(0 20.635)">
                <g id="Grupo_53816" data-name="Grupo 53816">
                  <path id="Trazado_100558" data-name="Trazado 100558" d="M67.477,487.054a6.894,6.894,0,1,1,6.894-6.894h0A6.908,6.908,0,0,1,67.477,487.054Zm0-13.07a6.172,6.172,0,1,0,6.171,6.171,6.172,6.172,0,0,0-6.171-6.171Z" transform="translate(-60.583 -473.265)" fill="#b5ac84"/>
                </g>
                <g id="Grupo_53817" data-name="Grupo 53817" transform="translate(3.578 5.938)">
                  <path id="Trazado_100559" data-name="Trazado 100559" d="M62.933,477.492a.953.953,0,1,1,.675-.279.953.953,0,0,1-.675.279Zm0-1.422a.469.469,0,1,0,.468.47h0a.47.47,0,0,0-.468-.47Z" transform="translate(-61.982 -475.587)" fill="#b5ac84"/>
                </g>
                <g id="Grupo_53818" data-name="Grupo 53818" transform="translate(8.171 5.938)">
                  <path id="Trazado_100560" data-name="Trazado 100560" d="M64.732,477.492a.953.953,0,1,1,.951-.954h0A.953.953,0,0,1,64.732,477.492Zm0-1.422a.469.469,0,1,0,.468.47h0a.47.47,0,0,0-.468-.47Z" transform="translate(-63.778 -475.587)" fill="#b5ac84"/>
                </g>
              </g>
            </g>
          </g>
          <g id="Grupo_53852" data-name="Grupo 53852" transform="translate(13.801 0.482)">
            <path id="Trazado_100575" data-name="Trazado 100575" d="M28.9,425.818c1.823,1.312,5.138,8.61,5.138,8.61s-8.071-.691-9.892-2a4.071,4.071,0,1,1,4.654-6.68Z" transform="translate(-22.397 -425.014)" fill="#7d6871"/>
            <path id="Trazado_100576" data-name="Trazado 100576" d="M66.939,476.563a.37.37,0,0,1-.335-.217c-.12-.258-12.354-26.23-41.249-48.384a.375.375,0,0,1,.458-.593c29.046,22.269,41.349,48.4,41.469,48.663a.377.377,0,0,1-.182.5.351.351,0,0,1-.161.031Z" transform="translate(-17.994 -421.451)" fill="#54464c"/>
            <g id="Grupo_53850" data-name="Grupo 53850" transform="translate(7.858 16.106)">
              <path id="Trazado_100577" data-name="Trazado 100577" d="M28.782,431.353c2.212-.4,9.766,2.268,9.766,2.268s-6.091,5.337-8.3,5.741a4.071,4.071,0,1,1-1.463-8.009Z" transform="translate(-25.47 -431.312)" fill="#7d6871"/>
              <path id="Trazado_100578" data-name="Trazado 100578" d="M27.308,434.7a.376.376,0,0,1-.072-.744c6.756-1.327,9.613-1.946,9.641-1.951a.374.374,0,0,1,.159.731c-.028.008-2.89.627-9.654,1.956a.366.366,0,0,1-.074.008Z" transform="translate(-23.185 -430.25)" fill="#54464c"/>
            </g>
            <g id="Grupo_53851" data-name="Grupo 53851" transform="translate(27.092 13.331)">
              <path id="Trazado_100579" data-name="Trazado 100579" d="M41.1,434.769c-.253,2.235-4.994,8.7-4.994,8.7s-3.347-7.373-3.1-9.608a4.074,4.074,0,1,1,8.1.877l0,.033Z" transform="translate(-32.991 -430.227)" fill="#7d6871"/>
              <path id="Trazado_100580" data-name="Trazado 100580" d="M34.429,442.246H34.4a.371.371,0,0,1-.343-.4c0-.028.235-2.948.916-9.81a.374.374,0,0,1,.422-.32.379.379,0,0,1,.325.394c-.683,6.851-.913,9.766-.916,9.794a.375.375,0,0,1-.375.342Z" transform="translate(-31.334 -427.914)" fill="#54464c"/>
            </g>
          </g>
          <g id="Grupo_53853" data-name="Grupo 53853" transform="translate(0 95.515)">
            <path id="Trazado_100581" data-name="Trazado 100581" d="M17,462.192c26.483-.66,44.423,18.681,46.241,35.193,0,0-15.9-.056-20.233-2.125s-10-15.339-11.073-17.533-5.879-9.577-5.879-9.577Z" transform="translate(-17 -462.176)" fill="#8f8b66"/>
            <path id="Trazado_100582" data-name="Trazado 100582" d="M17,462.182c18.346,5.5,15.3,18.837,22.264,26.634s23.977,8.557,23.977,8.557c-29.457,5.813-30.319-10.93-34.05-20.926A27.853,27.853,0,0,0,17,462.182Z" transform="translate(-17 -462.166)" fill="#54464c"/>
            <path id="Trazado_100583" data-name="Trazado 100583" d="M70.9,517.6q-3.368-4.519-6.291-8.459c-7.444-10.019-12.978-17.469-17.852-23.317l.442-4.708A.624.624,0,0,0,45.956,481l-.33,3.488a86.656,86.656,0,0,0-9.733-9.932.606.606,0,0,0,0-.271l-1.841-7.935a.624.624,0,0,0-1.215.281h0l1.55,6.68a67.014,67.014,0,0,0-8.367-5.69.624.624,0,0,0-.62,1.081,64.325,64.325,0,0,1,15.188,11.994l-12.418-.673a.624.624,0,0,0-.228,1.217.818.818,0,0,0,.159.031l13.658.744.046-.008c1.192,1.3,2.412,2.7,3.677,4.217a.625.625,0,0,0,.422.563l.059.01c4.739,5.718,10.2,13.075,17.648,23.1q2.931,3.951,6.293,8.46a.624.624,0,1,0,1-.747Z" transform="translate(-4.405 -456.44)" fill="#b3ae7f"/>
          </g>
          <g id="Grupo_53854" data-name="Grupo 53854" transform="translate(6.383 130.398)">
            <path id="Trazado_100584" data-name="Trazado 100584" d="M40.034,476.222c-10.408-2.1-20.538,4.616-20.538,4.616s6.741,10.109,17.152,12.2,20.535-4.616,20.535-4.616S50.439,478.317,40.034,476.222Z" transform="translate(-19.496 -475.816)" fill="#8f8b66"/>
            <path id="Trazado_100585" data-name="Trazado 100585" d="M69.911,495.745a.324.324,0,0,1-.407-.023,68.1,68.1,0,0,0-16.336-10.181,88.069,88.069,0,0,0-31.25-7.2.324.324,0,0,1,.026-.647,88.758,88.758,0,0,1,31.488,7.26,68.783,68.783,0,0,1,16.51,10.293.321.321,0,0,1,.023.455.245.245,0,0,1-.054.049Z" transform="translate(-16.19 -472.899)" fill="#b3ae7f"/>
            <path id="Trazado_100586" data-name="Trazado 100586" d="M31.318,481.667a.318.318,0,0,1-.376,0l-6.253-4.549a.324.324,0,1,1,.358-.54l.023.015,6.25,4.549a.321.321,0,0,1,.074.45.291.291,0,0,1-.074.074Z" transform="translate(-11.632 -474.715)" fill="#b3ae7f"/>
            <path id="Trazado_100587" data-name="Trazado 100587" d="M34.582,479.533l-.023.015-7.782,4.626a.324.324,0,0,1-.33-.558h0l7.782-4.624a.323.323,0,0,1,.353.54Z" transform="translate(-8.917 -470.947)" fill="#b3ae7f"/>
            <path id="Trazado_100588" data-name="Trazado 100588" d="M35.211,483.535a.323.323,0,0,1-.437-.056L30.4,478.216a.324.324,0,1,1,.476-.44l.02.026,4.381,5.263a.327.327,0,0,1-.043.458Z" transform="translate(-2.657 -472.926)" fill="#b3ae7f"/>
          </g>
          <g id="Grupo_53919" data-name="Grupo 53919" transform="translate(116.581)">
            <g id="Grupo_53918" data-name="Grupo 53918">
              <g id="Grupo_53915" data-name="Grupo 53915">
                <path id="Trazado_100716" data-name="Trazado 100716" d="M63.161,442.053c-1.672-1.248.55-6.306,3.665-10.48s7.334-7.743,9-6.5-.55,6.306-3.665,10.48S64.831,443.3,63.161,442.053Zm12.405-16.622c-1.118-.834-4.757,1.539-8.388,6.406s-4.877,9.027-3.757,9.861,4.757-1.54,8.388-6.406,4.874-9.025,3.757-9.861Z" transform="translate(-62.588 -424.825)" fill="#b5ac84"/>
              </g>
              <g id="Grupo_53916" data-name="Grupo 53916" transform="translate(0.014 11.724)">
                <path id="Trazado_100717" data-name="Trazado 100717" d="M63.15,434.914c-.875-.655-.7-2.319.4-3.79s2.647-2.112,3.521-1.458.7,2.317-.4,3.787S64.027,435.568,63.15,434.914Zm3.654-4.895c-.655-.488-1.984.138-2.9,1.368s-1.141,2.682-.486,3.171,1.984-.138,2.9-1.368S67.459,430.507,66.8,430.019Z" transform="translate(-62.593 -429.41)" fill="#b5ac84"/>
              </g>
              <g id="Grupo_53917" data-name="Grupo 53917" transform="translate(7.618 0.222)">
                <path id="Trazado_100718" data-name="Trazado 100718" d="M68.853,428.075a1.322,1.322,0,0,1,.292,1.823,6.4,6.4,0,0,1,.806,1.314c1.555-2.954,2.069-5.381,1.11-6.094s-3.117.458-5.493,2.77a6.132,6.132,0,0,1,1.47.409A1.323,1.323,0,0,1,68.853,428.075Z" transform="translate(-65.567 -424.912)" fill="#b5ac84"/>
              </g>
            </g>
          </g>
        </g>
        <g id="Grupo_55775" data-name="Grupo 55775" transform="translate(22.737)">
          <g id="Grupo_55750" data-name="Grupo 55750" transform="translate(0 9.643)">
            <g id="Grupo_55729" data-name="Grupo 55729" transform="translate(37.295 29.734)">
              <path id="Trazado_105001" data-name="Trazado 105001" d="M66.812,459.455s-9.843,5.567-13.193,5.669-13.144-4.69-13.144-4.69.258-7.989,1.445-17.781c2.473-.928,5.255-2.319,6.132-3.4.448-.552.627-2.3.7-3.884.064-1.511.026-2.867.026-2.867l10.257-.361s-.061,1.892.082,3.841c.12,1.634.384,3.307.949,3.941,1.235,1.391,5.772,2.989,5.772,2.989Z" transform="translate(-40.475 -432.141)" fill="#b46e50"/>
              <path id="Trazado_105002" data-name="Trazado 105002" d="M46.794,449.586a65.428,65.428,0,0,0-.68-8.27,48.773,48.773,0,0,0-.506,8.27Z" transform="translate(-32.502 -417.853)" fill="#8c4834"/>
              <path id="Trazado_105003" data-name="Trazado 105003" d="M54.075,435.982c-1.442,1.424-3.3,2.831-5.01,2.831-2.4,0-4.376-2.138-5.355-3.445.064-1.511.026-2.867.026-2.867l10.257-.361S53.931,434.033,54.075,435.982Z" transform="translate(-35.437 -432.141)" fill="#8c4834"/>
              <path id="Trazado_105004" data-name="Trazado 105004" d="M42.417,436.968a30.2,30.2,0,0,0,8.393,1.463,29.8,29.8,0,0,0,8.457-1.652Z" transform="translate(-37.451 -424.918)" fill="#9b563e"/>
            </g>
            <g id="Grupo_55730" data-name="Grupo 55730" transform="translate(28.844 73.021)">
              <path id="Trazado_105005" data-name="Trazado 105005" d="M80.777,469.58s-6.933,4.056-19.865,4.751a54.032,54.032,0,0,1-23.742-4.519l.8-12.457.491-7.593,40.9-.7.568,8.288Z" transform="translate(-37.17 -449.068)" fill="#b46e50"/>
              <path id="Trazado_105006" data-name="Trazado 105006" d="M79.447,457.355H37.484l.49-7.591,40.9-.7Z" transform="translate(-36.681 -449.068)" fill="#9b563e"/>
              <path id="Trazado_105007" data-name="Trazado 105007" d="M46.264,453.326s-1.56,3.227-.169,5.82C47.975,457,46.264,453.326,46.264,453.326Z" transform="translate(-24.169 -442.437)" fill="#8c4834"/>
            </g>
            <g id="Grupo_55732" data-name="Grupo 55732" transform="translate(18.016 104.405)">
              <g id="Grupo_55731" data-name="Grupo 55731">
                <path id="Trazado_105008" data-name="Trazado 105008" d="M59.869,586.8c-.038-.327-.074-.68-.1-1.046-.228-13.85.138-43.029.573-62.1,3.851-14.551,5.332-45.064,5.332-45.064-.555-4.726-5.652-18.387-21.381-17-.023.056-1.465-.312-1.476-.253a130.054,130.054,0,0,0-2.036,22.617c.051,11.175,1.762,23.35,3.4,33.385-2.675,8.237-5.35,16.477-3.851,27.606,1.445,10.738,8.171,24.067,8.447,35.567-.35,2.882-1.24,5.025-4.268,7.861-3.537,3.322-9.224,7.176-10.408,8.36a3.356,3.356,0,0,0-1.164,2.13H50c4.475,0,3.227-.9,5.109-2.736.982-.946,2.931-.153,4.506-.673,1.2-.4,1.125-2.4.708-5.521C60.189,589,60.007,587.95,59.869,586.8Z" transform="translate(-32.936 -461.341)" fill="#b46e50"/>
                <path id="Trazado_105009" data-name="Trazado 105009" d="M39.259,515.233H37.28c-.194,0,.082-.691.77-.77C38.983,514.353,39.451,515.067,39.259,515.233Z" transform="translate(-26.266 -378.632)" fill="#d28369"/>
                <path id="Trazado_105010" data-name="Trazado 105010" d="M37.749,515.233h-1.98c-.192,0,.084-.691.77-.77C37.475,514.353,37.943,515.067,37.749,515.233Z" transform="translate(-28.617 -378.632)" fill="#d28369"/>
                <path id="Trazado_105011" data-name="Trazado 105011" d="M36.4,515.151H34.424c-.192,0,.082-.57.77-.637C36.13,514.422,36.6,515.013,36.4,515.151Z" transform="translate(-30.711 -378.55)" fill="#d28369"/>
                <path id="Trazado_105012" data-name="Trazado 105012" d="M35.039,515.151H33.234c-.176,0,.074-.57.7-.637C34.788,514.422,35.215,515.013,35.039,515.151Z" transform="translate(-32.558 -378.55)" fill="#d28369"/>
                <path id="Trazado_105013" data-name="Trazado 105013" d="M46.109,517.15c-1.575.519-3.455-.2-4.5.673,2.166-2.606,2.266-5.659,5.209-6.194C47.235,514.746,47.314,516.746,46.109,517.15Z" transform="translate(-19.434 -383.027)" fill="#9b563e"/>
                <path id="Trazado_105014" data-name="Trazado 105014" d="M42.813,512.411a1.039,1.039,0,0,1,.734,1.777l-.092.084a31.054,31.054,0,0,0-3.567,3.373,3.257,3.257,0,0,0-.555,1.7H38.049a3.211,3.211,0,0,1,1.391-2.463c.99-.836,3.562-2.7,3.885-3.57.2-.54-.511-.9-.511-.9Z" transform="translate(-24.974 -381.81)" fill="#8c4834"/>
                <path id="Trazado_105015" data-name="Trazado 105015" d="M39.214,515.472h3.35s.534-1.235-.749-1.452a2.19,2.19,0,0,0-2.6,1.452Z" transform="translate(-23.159 -379.362)" fill="#d28369"/>
                <path id="Trazado_105016" data-name="Trazado 105016" d="M43.421,512.772s-.023,1.1-2.253,2.642c-1.7,1.169-3.232,2.317-3.465,3.365H36.3a8.28,8.28,0,0,1,2.309-2.491C40.4,514.946,42.764,514.063,43.421,512.772Z" transform="translate(-27.691 -381.247)" fill="#8c4834"/>
                <path id="Trazado_105017" data-name="Trazado 105017" d="M40.495,513.3c-.527.547-2.78,2.309-3.631,3.1a3.2,3.2,0,0,0-.939,1.552h-.88C35.434,516.057,38.07,514.7,40.495,513.3Z" transform="translate(-29.652 -380.425)" fill="#8c4834"/>
                <path id="Trazado_105018" data-name="Trazado 105018" d="M39.231,513.3c-.519.547-2.78,2.309-3.631,3.1a3.2,3.2,0,0,0-.939,1.552h-.872C34.17,516.057,36.807,514.7,39.231,513.3Z" transform="translate(-31.608 -380.425)" fill="#8c4834"/>
              </g>
              <path id="Trazado_105019" data-name="Trazado 105019" d="M38.962,484.28c-1.048,1.309,1.087,10.158,4,9.475,3.317-.545,5.851-7.733,4.583-9.367C46.452,482.981,40.619,482.211,38.962,484.28Z" transform="translate(-23.974 -427.594)" fill="#9b563e"/>
            </g>
            <g id="Grupo_55734" data-name="Grupo 55734" transform="translate(52.685 104.405)">
              <g id="Grupo_55733" data-name="Grupo 55733">
                <path id="Trazado_105020" data-name="Trazado 105020" d="M52.29,586.8c.038-.327.074-.68.107-1.046.225-13.85-.141-43.029-.575-62.1-3.851-14.551-5.329-45.064-5.329-45.064.555-4.726,5.652-18.387,21.379-17,.026.056,1.465-.312,1.476-.253a130.048,130.048,0,0,1,2.038,22.617c-.054,11.175-1.765,23.35-3.406,33.385,2.675,8.237,5.35,16.477,3.851,27.606-1.445,10.738-8.171,24.067-8.447,35.567.35,2.882,1.24,5.025,4.268,7.861,3.537,3.322,9.227,7.176,10.408,8.36a3.356,3.356,0,0,1,1.164,2.13H62.167c-4.478,0-3.227-.9-5.112-2.736-.982-.946-2.931-.153-4.506-.673-1.2-.4-1.125-2.4-.706-5.521C51.973,589,52.152,587.95,52.29,586.8Z" transform="translate(-46.493 -461.341)" fill="#b46e50"/>
                <path id="Trazado_105021" data-name="Trazado 105021" d="M54.238,515.233h1.979c.192,0-.082-.691-.77-.77C54.512,514.353,54.046,515.067,54.238,515.233Z" transform="translate(-34.498 -378.632)" fill="#d28369"/>
                <path id="Trazado_105022" data-name="Trazado 105022" d="M55.747,515.233h1.979c.192,0-.082-.691-.77-.77C56.021,514.353,55.555,515.067,55.747,515.233Z" transform="translate(-32.148 -378.632)" fill="#d28369"/>
                <path id="Trazado_105023" data-name="Trazado 105023" d="M57.092,515.151h1.979c.192,0-.082-.57-.77-.637C57.368,514.422,56.9,515.013,57.092,515.151Z" transform="translate(-30.054 -378.55)" fill="#d28369"/>
                <path id="Trazado_105024" data-name="Trazado 105024" d="M58.345,515.151h1.808c.174,0-.077-.57-.7-.637C58.6,514.422,58.171,515.013,58.345,515.151Z" transform="translate(-28.095 -378.55)" fill="#d28369"/>
                <path id="Trazado_105025" data-name="Trazado 105025" d="M49.461,517.15c1.575.519,3.457-.2,4.5.673-2.166-2.606-2.263-5.659-5.209-6.194C48.336,514.746,48.257,516.746,49.461,517.15Z" transform="translate(-43.405 -383.027)" fill="#9b563e"/>
                <path id="Trazado_105026" data-name="Trazado 105026" d="M52.955,512.411a1.038,1.038,0,0,0-.734,1.777l.09.084a31.054,31.054,0,0,1,3.567,3.373,3.233,3.233,0,0,1,.555,1.7h1.286a3.213,3.213,0,0,0-1.394-2.463c-.99-.836-3.562-2.7-3.885-3.57-.2-.54.514-.9.514-.9Z" transform="translate(-38.062 -381.81)" fill="#8c4834"/>
                <path id="Trazado_105027" data-name="Trazado 105027" d="M55.123,515.472H51.771s-.532-1.235.752-1.452a2.192,2.192,0,0,1,2.6,1.452Z" transform="translate(-38.445 -379.362)" fill="#d28369"/>
                <path id="Trazado_105028" data-name="Trazado 105028" d="M53.141,512.772s.023,1.1,2.253,2.642c1.7,1.169,3.235,2.317,3.465,3.365h1.4a8.305,8.305,0,0,0-2.312-2.491C56.159,514.946,53.8,514.063,53.141,512.772Z" transform="translate(-36.14 -381.247)" fill="#8c4834"/>
                <path id="Trazado_105029" data-name="Trazado 105029" d="M55.052,513.3c.527.547,2.78,2.309,3.631,3.1a3.155,3.155,0,0,1,.939,1.552h.88C60.113,516.057,57.479,514.7,55.052,513.3Z" transform="translate(-33.164 -380.425)" fill="#8c4834"/>
                <path id="Trazado_105030" data-name="Trazado 105030" d="M56.311,513.3c.519.547,2.78,2.309,3.631,3.1a3.176,3.176,0,0,1,.939,1.552h.872C61.372,516.057,58.735,514.7,56.311,513.3Z" transform="translate(-31.204 -380.425)" fill="#8c4834"/>
              </g>
              <path id="Trazado_105031" data-name="Trazado 105031" d="M58.858,484.28c1.048,1.309-1.087,10.158-4,9.475-3.314-.545-5.848-7.733-4.583-9.367C51.37,482.981,57.2,482.211,58.858,484.28Z" transform="translate(-41.115 -427.594)" fill="#9b563e"/>
            </g>
            <g id="Grupo_55737" data-name="Grupo 55737" transform="translate(26.793 92.705)">
              <g id="Grupo_55736" data-name="Grupo 55736">
                <g id="Grupo_55735" data-name="Grupo 55735">
                  <path id="Trazado_105032" data-name="Trazado 105032" d="M37.9,456.773l45.561-.008,2.685,14.773S69.7,475.221,62.26,485.721H60.322s-10.7-12.538-23.954-13.047C37.081,460.442,37.9,456.773,37.9,456.773Z" transform="translate(-36.368 -456.765)" fill="#ffad54"/>
                </g>
              </g>
            </g>
            <g id="Grupo_55738" data-name="Grupo 55738" transform="translate(61.927 40.917)">
              <path id="Trazado_105033" data-name="Trazado 105033" d="M62.886,456.27a30.477,30.477,0,0,0-5.907-1c-1.227.1-3.818,3.133-4.434,3.452s-1.851.55-1.959,1.008.872.946,1.969.788S62.482,459.157,62.886,456.27Z" transform="translate(-49.374 -407.324)" fill="#9b563e"/>
              <path id="Trazado_105034" data-name="Trazado 105034" d="M55.838,457.167c1.066-.788,9.129-2.831,10.746-.246,1.238,1.982,1.13,3.688.228,4.9a23.865,23.865,0,0,1-7.549,5.969c-2.128,1.107-3.3,1.673-3.657.9-.2-.445,4.427-3.043,4.352-3.491-.09-.263-.8-.276-1.35,0-.01.005-5.508,3.419-5.831,2.314-.153-.527,2.412-1.841,4.227-3.279A4.757,4.757,0,0,0,58.27,463a.7.7,0,0,0,.077-.5.274.274,0,0,0-.391-.182c-1.606.813-4.345,2.266-4.769,2.5-.926.509-1.959.933-2.115.2-.056-.268,3.964-3.243,6.051-4.608a.261.261,0,0,0-.028-.455H57.09a2.018,2.018,0,0,0-1.73.041c-1.678.995-2.759,1.928-3.383,2.327-1.268.985-1.777.5-1.869.008C50.2,461.653,54.28,458.315,55.838,457.167Z" transform="translate(-50.107 -406.707)" fill="#b46e50"/>
              <path id="Trazado_105035" data-name="Trazado 105035" d="M50.909,436.514c2.279.394,35.191,15.239,37.7,28.12-.159,4.322-7.777,17.047-22.857,27.1-4.948-5.263-5.028-5.5-5.028-5.5s12.8-18.3,13.2-19.637c-9.741-6.677-16.259-10.526-16.259-10.526l.156,4.557a12.8,12.8,0,0,1-6.677-8.406C49.418,445.861,50.909,436.514,50.909,436.514Z" transform="translate(-49.789 -436.514)" fill="#b46e50"/>
            </g>
            <g id="Grupo_55739" data-name="Grupo 55739" transform="translate(0 40.917)">
              <path id="Trazado_105036" data-name="Trazado 105036" d="M35.789,456.27a30.474,30.474,0,0,1,5.907-1c1.227.1,3.818,3.133,4.434,3.452s1.851.55,1.959,1.008-.872.946-1.969.788S36.193,459.157,35.789,456.27Z" transform="translate(-10.477 -407.324)" fill="#9b563e"/>
              <path id="Trazado_105037" data-name="Trazado 105037" d="M45.937,457.167c-1.069-.788-9.132-2.831-10.748-.246-1.238,1.982-1.13,3.688-.228,4.9a23.864,23.864,0,0,0,7.549,5.969c2.13,1.107,3.3,1.673,3.657.9.2-.445-4.427-3.043-4.352-3.491.09-.263.8-.276,1.35,0,.01.005,5.508,3.419,5.831,2.314.153-.527-2.412-1.841-4.227-3.279A4.757,4.757,0,0,1,43.5,463a.7.7,0,0,1-.077-.5.274.274,0,0,1,.391-.182c1.606.813,4.345,2.266,4.769,2.5.926.509,1.959.933,2.115.2.056-.268-3.964-3.243-6.051-4.608a.261.261,0,0,1,.028-.455h.005a2.018,2.018,0,0,1,1.729.046c1.678,1,2.759,1.928,3.383,2.327,1.268.985,1.777.5,1.869.008C51.568,461.653,47.492,458.315,45.937,457.167Z" transform="translate(-12.84 -406.707)" fill="#b46e50"/>
              <path id="Trazado_105038" data-name="Trazado 105038" d="M63.6,436.514c-2.279.394-35.191,15.239-37.7,28.12.159,4.322,7.777,17.047,22.857,27.1,4.951-5.263,5.028-5.5,5.028-5.5s-12.8-18.3-13.2-19.637c9.741-6.677,16.259-10.526,16.259-10.526l-.156,4.557a12.8,12.8,0,0,0,6.677-8.406C65.086,445.861,63.6,436.514,63.6,436.514Z" transform="translate(-25.891 -436.514)" fill="#b46e50"/>
            </g>
            <g id="Grupo_55740" data-name="Grupo 55740" transform="translate(29.125 39.066)">
              <path id="Trazado_105039" data-name="Trazado 105039" d="M48.356,435.79l-.054,2.977a18.57,18.57,0,0,0,9.339,16.41c.44.253.846.5,1.207.747a.449.449,0,0,0,.476.013h0a18.512,18.512,0,0,0,9.16-16.538l-.1-3.521,5.493,2.3S73.4,454,78.925,461.4l1.6,13.045-43.244.036.788-13.121s4.529-4.746,4.795-23.263a59.484,59.484,0,0,0,5.492-2.307Z" transform="translate(-37.28 -435.79)" fill="#ffad54"/>
            </g>
            <g id="Grupo_55749" data-name="Grupo 55749" transform="translate(34.158)">
              <path id="Trazado_105040" data-name="Trazado 105040" d="M70.922,435.884a3.926,3.926,0,0,0,.555-3.018,3.4,3.4,0,0,0-.685-1.33c-.069-.082-.992-.867-1.023-.785a4.2,4.2,0,0,0-3.427-5.557,3.365,3.365,0,0,0-3.959-3.764,2.464,2.464,0,0,0-.995.4c-.159.1-.343.432-.552.437-.358.008-1.061-1.038-1.44-1.261a3.521,3.521,0,0,0-2.059-.486,3.854,3.854,0,0,0-3.125,2.153,3.663,3.663,0,0,0-3.67-1.335,4.163,4.163,0,0,0-2.918,2.995,4.753,4.753,0,0,0-3.8,1.488,5.451,5.451,0,0,0-1.419,4.145,3.387,3.387,0,0,0-2.562,2.417c-.309,1.2-.258,2.959.688,3.759a2.725,2.725,0,0,0-1.281,2.383,3.493,3.493,0,0,0,1.383,2.754,3.656,3.656,0,0,0,.557,3.736c.857,1.013,2.445,1.931,3.734,1.611a2.923,2.923,0,0,0,1.626,2.762,3.745,3.745,0,0,0,3.642-.338,2.047,2.047,0,0,0,3.9.995c.1.573.655,1.253,1.235,1.248s1.678-.407,1.767-.982a2.707,2.707,0,0,0,4.4-2.01c.12-.031.56-.12.68-.151A3.207,3.207,0,0,0,65.5,449.3a2.954,2.954,0,0,0,2.314-2.437,2.757,2.757,0,0,0,2.7-1.578,3.037,3.037,0,0,0-.586-3.245,3.749,3.749,0,0,0,1.941-2.775A4.03,4.03,0,0,0,70.922,435.884Z" transform="translate(-39.248 -420.514)" fill="#2e3b4a"/>
              <g id="Grupo_55741" data-name="Grupo 55741" transform="translate(4.256 19.071)">
                <path id="Trazado_105041" data-name="Trazado 105041" d="M45.627,431.241c-.107-.082-1.593-3.189-3.322-3.268s-1.486,2.565-1.161,3.322.972,2.864,2.89,3.432a3.066,3.066,0,0,0,2.025-.946Z" transform="translate(-40.913 -427.971)" fill="#b46e50"/>
                <path id="Trazado_105042" data-name="Trazado 105042" d="M41.446,430.282c-.02-.1-.65-1.667.286-1.91s2.5,2.053,3.253,2.826c-.673-.041-1.568-.223-1.547.407s1.038,1.363,1.933,1.322c-.9.427-1.24.711-1.892.55s-1.32-1.179-1.32-1.179a2.078,2.078,0,0,0,1.89.731c-1.056-.55-1.851-1.79-1.1-2.115a1.767,1.767,0,0,1,1.381-.021s-1.2-1.5-1.972-1.688S41.446,430.282,41.446,430.282Z" transform="translate(-40.433 -427.375)" fill="#9b563e"/>
                <path id="Trazado_105043" data-name="Trazado 105043" d="M42.734,429.239s-.642.01-.78.35a1.523,1.523,0,0,0,.176,1.294C41.139,430.016,41.177,428.709,42.734,429.239Z" transform="translate(-40.058 -426.188)" fill="#9b563e"/>
              </g>
              <g id="Grupo_55742" data-name="Grupo 55742" transform="translate(24.119 19.071)">
                <path id="Trazado_105044" data-name="Trazado 105044" d="M49.112,431.241c.107-.082,1.593-3.189,3.322-3.268s1.486,2.565,1.161,3.322-.972,2.864-2.89,3.432a3.066,3.066,0,0,1-2.025-.946Z" transform="translate(-48.68 -427.971)" fill="#b46e50"/>
                <path id="Trazado_105045" data-name="Trazado 105045" d="M52.686,430.282c.02-.1.65-1.667-.284-1.91s-2.5,2.053-3.255,2.826c.673-.041,1.568-.223,1.547.407s-1.038,1.363-1.933,1.322c.9.427,1.24.711,1.892.55s1.322-1.179,1.322-1.179a2.085,2.085,0,0,1-1.892.731c1.059-.55,1.851-1.79,1.1-2.115a1.767,1.767,0,0,0-1.381-.021s1.2-1.5,1.972-1.688S52.686,430.282,52.686,430.282Z" transform="translate(-48.554 -427.375)" fill="#9b563e"/>
                <path id="Trazado_105046" data-name="Trazado 105046" d="M49.646,429.239s.642.01.78.35a1.523,1.523,0,0,1-.176,1.294C51.242,430.016,51.2,428.709,49.646,429.239Z" transform="translate(-47.176 -426.188)" fill="#9b563e"/>
              </g>
              <path id="Trazado_105047" data-name="Trazado 105047" d="M42.406,431.931c.051.977.128,1.956.2,2.936a22.135,22.135,0,0,0,.811,5.322c.823,2.529,3.353,4.912,6.992,5.969a2.569,2.569,0,0,0,1.424,0,10.636,10.636,0,0,0,6.915-5.723,19.418,19.418,0,0,0,.852-4.222c.046-.355.419-4.8.4-4.8a1.677,1.677,0,0,1-1.6-2.534,1.981,1.981,0,0,1-2.475-2.424,3.061,3.061,0,0,1-3.24-.828,2.653,2.653,0,0,1-1.7.852c-.246.033-1.869.018-1.887-.381a1.865,1.865,0,0,1-1.212,1.77c-.238.09-2.353.261-2.256-.166a2.925,2.925,0,0,1-3.289,2.133C42.345,430.534,42.37,431.233,42.406,431.931Z" transform="translate(-34.423 -412.551)" fill="#b46e50"/>
              <g id="Grupo_55747" data-name="Grupo 55747" transform="translate(9.776 18.941)">
                <g id="Grupo_55744" data-name="Grupo 55744" transform="translate(8.227)">
                  <path id="Trazado_105048" data-name="Trazado 105048" d="M46.288,429.574a16.7,16.7,0,0,1,2.654-.8,19.535,19.535,0,0,1,2.808-.228,5.934,5.934,0,0,0-2.417-.627,6.773,6.773,0,0,0-2.675.512,5.665,5.665,0,0,0-.37,1.143Z" transform="translate(-46.288 -427.92)" fill="#312342"/>
                  <g id="Grupo_55743" data-name="Grupo 55743" transform="translate(0.499 1.465)">
                    <path id="Trazado_105049" data-name="Trazado 105049" d="M46.483,430.612a3.141,3.141,0,0,1,.563.1,3.714,3.714,0,0,0,2.171.077A3.2,3.2,0,0,0,51.1,429C49,429.451,46.821,430.123,46.483,430.612Z" transform="translate(-46.483 -427.707)" fill="#9b563e"/>
                    <path id="Trazado_105050" data-name="Trazado 105050" d="M51.1,429.3a4.236,4.236,0,0,1-2.256,1.468,5.594,5.594,0,0,1-1.759.025,1.065,1.065,0,0,0-.555.1l-.051.023a2.5,2.5,0,0,1,.125-.58,2.227,2.227,0,0,1,.588-.939,2.038,2.038,0,0,1,.859-.47,3.969,3.969,0,0,1,1.864-.021,5.188,5.188,0,0,1,1.185.394Z" transform="translate(-46.483 -428.01)" fill="#fff"/>
                    <path id="Trazado_105051" data-name="Trazado 105051" d="M48.514,430.5a1.445,1.445,0,0,1-1.752-1.1,2.037,2.037,0,0,1,.859-.47,3.969,3.969,0,0,1,1.864-.021,1.355,1.355,0,0,1-.971,1.591Z" transform="translate(-46.049 -428.01)" fill="#312342"/>
                    <path id="Trazado_105052" data-name="Trazado 105052" d="M48.327,428.822a2.388,2.388,0,0,0-1.844,2.289,2.479,2.479,0,0,1,1.954-1.854,4.255,4.255,0,0,1,2.665.24l.619-.532A7.539,7.539,0,0,0,48.327,428.822Z" transform="translate(-46.483 -428.206)" fill="#312342"/>
                    <path id="Trazado_105053" data-name="Trazado 105053" d="M46.506,429.835a2.8,2.8,0,0,1,1.442-.885,7.052,7.052,0,0,1,2.314-.156,4.086,4.086,0,0,0-1.982-.276,2.1,2.1,0,0,0-1.774,1.317Z" transform="translate(-46.447 -428.493)" fill="#9b563e"/>
                    <path id="Trazado_105054" data-name="Trazado 105054" d="M48.715,429.217c.013-.266-1.23-.24-1.192.036S48.7,429.483,48.715,429.217Z" transform="translate(-44.864 -427.655)" fill="#fff"/>
                  </g>
                </g>
                <g id="Grupo_55746" data-name="Grupo 55746">
                  <path id="Trazado_105055" data-name="Trazado 105055" d="M48.558,429.574a16.6,16.6,0,0,0-2.654-.8,19.509,19.509,0,0,0-2.808-.228,5.953,5.953,0,0,1,2.419-.627,6.786,6.786,0,0,1,2.675.512,5.558,5.558,0,0,1,.368,1.143Z" transform="translate(-43.032 -427.92)" fill="#312342"/>
                  <g id="Grupo_55745" data-name="Grupo 55745" transform="translate(0 1.664)">
                    <path id="Trazado_105056" data-name="Trazado 105056" d="M47.933,430.688a3.4,3.4,0,0,0-.563.1,3.71,3.71,0,0,1-2.171.079,3.219,3.219,0,0,1-1.887-1.793C45.412,429.527,47.6,430.2,47.933,430.688Z" transform="translate(-42.696 -427.784)" fill="#9b563e"/>
                    <path id="Trazado_105057" data-name="Trazado 105057" d="M43.312,429.382a4.24,4.24,0,0,0,2.253,1.465,5.609,5.609,0,0,0,1.762.026,1.064,1.064,0,0,1,.555.1l.051.023a2.523,2.523,0,0,0-.125-.581,2.25,2.25,0,0,0-.591-.938A2.012,2.012,0,0,0,46.36,429a3.97,3.97,0,0,0-1.864-.02,5.255,5.255,0,0,0-1.184.4Z" transform="translate(-42.696 -428.088)" fill="#fff"/>
                    <path id="Trazado_105058" data-name="Trazado 105058" d="M44.753,430.578a1.441,1.441,0,0,0,1.749-1.1,2.012,2.012,0,0,0-.857-.471,3.97,3.97,0,0,0-1.864-.02,1.358,1.358,0,0,0,.972,1.591Z" transform="translate(-41.981 -428.088)" fill="#312342"/>
                    <path id="Trazado_105059" data-name="Trazado 105059" d="M44.882,429.94a1.062,1.062,0,0,1,.555.1l.051.023a2.523,2.523,0,0,0-.125-.581,1.325,1.325,0,0,1-.481.458Z" transform="translate(-40.251 -427.156)" fill="#8c4834"/>
                    <path id="Trazado_105060" data-name="Trazado 105060" d="M46.465,428.9a2.39,2.39,0,0,1,1.844,2.289,2.482,2.482,0,0,0-1.954-1.854,4.254,4.254,0,0,0-2.667.243l-.616-.534A7.538,7.538,0,0,1,46.465,428.9Z" transform="translate(-43.071 -428.284)" fill="#312342"/>
                    <path id="Trazado_105061" data-name="Trazado 105061" d="M47.385,429.916a2.778,2.778,0,0,0-1.442-.885,7.026,7.026,0,0,0-2.317-.159,4.1,4.1,0,0,1,1.984-.276A2.1,2.1,0,0,1,47.385,429.916Z" transform="translate(-42.207 -428.571)" fill="#9b563e"/>
                    <path id="Trazado_105062" data-name="Trazado 105062" d="M44.435,429.467c-.013-.269,1.23-.24,1.192.036S44.448,429.733,44.435,429.467Z" transform="translate(-40.947 -427.468)" fill="#fff"/>
                  </g>
                </g>
              </g>
              <path id="Trazado_105063" data-name="Trazado 105063" d="M45.064,430.294c.084.059,1.3,1.059,2.064,1.043.816-.018,1.9-1.153,1.9-1.153a10,10,0,0,1-1.89.563,10.629,10.629,0,0,1-2.074-.453Z" transform="translate(-30.192 -405.454)" fill="#8c4834"/>
              <g id="Grupo_55748" data-name="Grupo 55748" transform="translate(13.829 26.621)">
                <path id="Trazado_105064" data-name="Trazado 105064" d="M44.656,431.994s2.074-1.54,6.314-.926a6.106,6.106,0,0,1-6.314.926Z" transform="translate(-44.656 -430.923)" fill="#9b563e"/>
                <path id="Trazado_105065" data-name="Trazado 105065" d="M44.656,431.906a4.891,4.891,0,0,0,3.5.88,4.121,4.121,0,0,0,2.818-1.8A8.736,8.736,0,0,1,44.656,431.906Z" transform="translate(-44.656 -430.836)" fill="#8c4834"/>
              </g>
              <path id="Trazado_105066" data-name="Trazado 105066" d="M45.436,432.259a3.534,3.534,0,0,0,1.557.107,3.7,3.7,0,0,0,1.34-.524,1.814,1.814,0,0,1-1.358,1.033,1.792,1.792,0,0,1-1.539-.616Z" transform="translate(-29.612 -402.873)" fill="#9b563e"/>
            </g>
          </g>
          <g id="Grupo_55774" data-name="Grupo 55774" transform="translate(111.382)">
            <g id="Grupo_55752" data-name="Grupo 55752" transform="translate(0 33.797)">
              <path id="Trazado_105068" data-name="Trazado 105068" d="M78.11,466.541s-6.342-3.892-5.764-5.38,6.053,3.6,7.015,3.892c-3.7-4.47-4.9-7.017-3.892-7.112s5.046,5.429,5.046,5.429-3.941-6.342-3.268-6.871,4.805,5.526,4.805,5.526S82,466.06,78.11,466.541Z" transform="translate(-64.988 -388.68)" fill="#e87454"/>
              <path id="Trazado_105069" data-name="Trazado 105069" d="M104.642,429.959s-1.5,3.854-3.232,8.155c-1.793,4.447-3.838,9.375-4.741,11.012-.565,1.033-2.253,3.488-4.281,6.35-4.3,6.063-10.134,13.945-10.134,13.945s4.672,17.154,8.457,27.059c.565,1.854-.644,5.475-4.831,4.992-9.907-11.111-16.592-29.312-16.431-32.05,5.879-13.932,15.722-25.688,20.537-31.434C93.666,433.593,104.466,429.939,104.642,429.959Z" transform="translate(-69.446 -429.959)" fill="#ffa78f"/>
              <path id="Trazado_105070" data-name="Trazado 105070" d="M87.439,433.148C85.646,437.6,83.6,442.523,82.7,444.16c-.565,1.033-2.253,3.488-4.281,6.35.954-12.574,2.936-16.707,3.107-17.134Z" transform="translate(-55.475 -424.993)" fill="#ff8762"/>
              <path id="Trazado_105071" data-name="Trazado 105071" d="M87.03,455.971a7.5,7.5,0,0,1,.483,5.718c-1.046,3.061-4.994,8.536-7.168,8.3s-8.454-3.867-8.536-5.4c1.289-1.048,4.994,2.335,7.329,2.335,2.657-3.785,2.335-8.053,3.864-8.94S87.03,455.971,87.03,455.971Z" transform="translate(-65.766 -389.451)" fill="#ffa78f"/>
            </g>
            <g id="Grupo_55752-2" data-name="Grupo 55752" transform="translate(55.961 33.797)">
              <path id="Trazado_105068-2" data-name="Trazado 105068" d="M76.251,466.541s6.342-3.892,5.764-5.38-6.053,3.6-7.015,3.892c3.7-4.47,4.9-7.017,3.892-7.112s-5.046,5.429-5.046,5.429,3.941-6.342,3.268-6.871-4.805,5.526-4.805,5.526S72.361,466.06,76.251,466.541Z" transform="translate(-54.177 -388.68)" fill="#e87454"/>
              <path id="Trazado_105069-2" data-name="Trazado 105069" d="M69.446,429.959s1.5,3.854,3.232,8.155c1.793,4.447,3.838,9.375,4.741,11.012.565,1.033,2.253,3.488,4.281,6.35,4.3,6.063,10.134,13.945,10.134,13.945s-4.672,17.154-8.457,27.059c-.565,1.854.644,5.475,4.831,4.992,9.907-11.111,16.592-29.312,16.431-32.05C98.761,455.49,88.917,443.734,84.1,437.988,80.422,433.593,69.622,429.939,69.446,429.959Z" transform="translate(-69.446 -429.959)" fill="#ffa78f"/>
              <path id="Trazado_105070-2" data-name="Trazado 105070" d="M78.419,433.148c1.793,4.452,3.839,9.375,4.739,11.012.565,1.033,2.253,3.488,4.281,6.35-.954-12.574-2.936-16.707-3.107-17.134Z" transform="translate(-75.187 -424.993)" fill="#ff8762"/>
              <path id="Trazado_105071-2" data-name="Trazado 105071" d="M72.646,455.971a7.5,7.5,0,0,0-.483,5.718c1.046,3.061,4.994,8.536,7.168,8.3s8.454-3.867,8.536-5.4c-1.289-1.048-4.994,2.335-7.329,2.335-2.657-3.785-2.335-8.053-3.864-8.94S72.646,455.971,72.646,455.971Z" transform="translate(-58.713 -389.451)" fill="#ffa78f"/>
            </g>
            <g id="Grupo_55755" data-name="Grupo 55755" transform="translate(7.925 130.051)">
              <g id="Grupo_55754" data-name="Grupo 55754">
                <g id="Grupo_55753" data-name="Grupo 55753">
                  <path id="Trazado_105072" data-name="Trazado 105072" d="M85.851,467.6s.033,3.278.084,8.672v.015c.079,8.193.2,21.261.325,35.142-5.7,18.591,3.184,36.515,2.238,57.142,0,.112,0,.225,0,.34-.233,3.936-.762,6.342-4.416,9.766-3.524,3.309-9.193,7.15-10.372,8.329a3.344,3.344,0,0,0-1.158,2.122h17c4.46,0,3.217-.9,5.094-2.726.977-.944,2.92-.151,4.488-.67,1.2-.4,1.12-2.394.7-5.5-.128-.944-.309-1.987-.445-3.13a83.222,83.222,0,0,1-.4-8.531c.376-14.357,2.363-51.23,2.363-51.23l4.923-41.257v-.018l.987-8.265Z" transform="translate(-72.545 -467.598)" fill="#ffa78f"/>
                  <path id="Trazado_105073" data-name="Trazado 105073" d="M78.844,515.232H76.872c-.192,0,.082-.685.767-.767C78.57,514.355,79.036,515.068,78.844,515.232Z" transform="translate(-65.899 -394.631)" fill="#ff8762"/>
                  <path id="Trazado_105074" data-name="Trazado 105074" d="M77.34,515.232H75.368c-.192,0,.082-.685.767-.767C77.066,514.355,77.532,515.068,77.34,515.232Z" transform="translate(-68.241 -394.631)" fill="#ff8762"/>
                  <path id="Trazado_105075" data-name="Trazado 105075" d="M76,515.15H74.028c-.192,0,.082-.568.767-.634C75.726,514.426,76.192,515.014,76,515.15Z" transform="translate(-70.328 -394.548)" fill="#ff8762"/>
                  <path id="Trazado_105076" data-name="Trazado 105076" d="M74.639,515.15h-1.8c-.176,0,.074-.568.7-.634C74.391,514.426,74.816,515.014,74.639,515.15Z" transform="translate(-72.169 -394.548)" fill="#ff8762"/>
                  <path id="Trazado_105077" data-name="Trazado 105077" d="M85.669,517.143c-1.568.519-3.445-.2-4.485.67,2.156-2.6,2.256-5.639,5.189-6.171C86.79,514.749,86.869,516.741,85.669,517.143Z" transform="translate(-59.092 -399.009)" fill="#ff8762"/>
                  <path id="Trazado_105078" data-name="Trazado 105078" d="M82.385,512.421a1.034,1.034,0,0,1,.731,1.77l-.089.084a30.866,30.866,0,0,0-3.555,3.363,3.26,3.26,0,0,0-.555,1.688H77.639a3.189,3.189,0,0,1,1.389-2.452c.985-.836,3.549-2.693,3.869-3.557.2-.54-.511-.9-.511-.9Z" transform="translate(-64.612 -397.796)" fill="#e87454"/>
                  <path id="Trazado_105079" data-name="Trazado 105079" d="M78.8,515.471h3.337s.532-1.23-.747-1.448a2.179,2.179,0,0,0-2.59,1.448Z" transform="translate(-62.804 -395.358)" fill="#ff8762"/>
                  <path id="Trazado_105080" data-name="Trazado 105080" d="M82.991,512.781s-.02,1.092-2.243,2.631c-1.69,1.166-3.222,2.309-3.452,3.353H75.9a8.331,8.331,0,0,1,2.3-2.483C79.987,514.945,82.337,514.067,82.991,512.781Z" transform="translate(-67.32 -397.235)" fill="#e87454"/>
                  <path id="Trazado_105081" data-name="Trazado 105081" d="M80.078,513.307c-.527.545-2.77,2.3-3.619,3.092a3.189,3.189,0,0,0-.936,1.547h-.877C75.035,516.054,77.661,514.7,80.078,513.307Z" transform="translate(-69.273 -396.416)" fill="#e87454"/>
                  <path id="Trazado_105082" data-name="Trazado 105082" d="M78.816,513.307c-.517.545-2.767,2.3-3.616,3.092a3.168,3.168,0,0,0-.936,1.547H73.4C73.776,516.054,76.4,514.7,78.816,513.307Z" transform="translate(-71.221 -396.416)" fill="#e87454"/>
                </g>
                <path id="Trazado_105083" data-name="Trazado 105083" d="M99.155,467.8l-.987,8.265-20.336.2c-.051-5.393-.084-8.672-.084-8.672Z" transform="translate(-64.442 -467.598)" fill="#ff8762"/>
              </g>
              <path id="Trazado_105084" data-name="Trazado 105084" d="M79.443,485.578s.647,7.383,3.567,7.332c2.58-.046,4.91-3.391,4.46-6.892S79.435,481.821,79.443,485.578Z" transform="translate(-61.803 -443.518)" fill="#ff8762"/>
            </g>
            <g id="Grupo_55758" data-name="Grupo 55758" transform="translate(48.56 130.051)">
              <g id="Grupo_55757" data-name="Grupo 55757">
                <g id="Grupo_55756" data-name="Grupo 55756">
                  <path id="Trazado_105085" data-name="Trazado 105085" d="M109.842,467.6s-.033,3.278-.084,8.672v.015c-.077,8.193-.2,21.261-.325,35.142,5.7,18.591-3.184,36.515-2.238,57.142,0,.112,0,.225,0,.34.233,3.936.765,6.342,4.416,9.766,3.524,3.309,9.193,7.15,10.372,8.329a3.344,3.344,0,0,1,1.158,2.122h-17c-4.46,0-3.215-.9-5.092-2.726-.979-.944-2.92-.151-4.491-.67-1.2-.4-1.12-2.394-.7-5.5.128-.944.309-1.987.445-3.13a83.847,83.847,0,0,0,.4-8.531c-.378-14.357-2.365-51.23-2.365-51.23L89.42,476.084v-.018l-.987-8.265Z" transform="translate(-88.435 -467.598)" fill="#ffa78f"/>
                  <path id="Trazado_105086" data-name="Trazado 105086" d="M96.973,515.232h1.972c.192,0-.082-.685-.767-.767C97.247,514.355,96.781,515.068,96.973,515.232Z" transform="translate(-75.205 -394.631)" fill="#ff8762"/>
                  <path id="Trazado_105087" data-name="Trazado 105087" d="M98.477,515.232h1.972c.192,0-.082-.685-.767-.767C98.751,514.355,98.285,515.068,98.477,515.232Z" transform="translate(-72.863 -394.631)" fill="#ff8762"/>
                  <path id="Trazado_105088" data-name="Trazado 105088" d="M99.817,515.15h1.972c.192,0-.082-.568-.767-.634C100.091,514.426,99.625,515.014,99.817,515.15Z" transform="translate(-70.776 -394.548)" fill="#ff8762"/>
                  <path id="Trazado_105089" data-name="Trazado 105089" d="M101.067,515.15h1.8c.176,0-.074-.568-.7-.634C101.318,514.426,100.89,515.014,101.067,515.15Z" transform="translate(-68.825 -394.548)" fill="#ff8762"/>
                  <path id="Trazado_105090" data-name="Trazado 105090" d="M92.214,517.143c1.57.519,3.445-.2,4.485.67-2.156-2.6-2.256-5.639-5.189-6.171C91.093,514.749,91.014,516.741,92.214,517.143Z" transform="translate(-84.079 -399.009)" fill="#ff8762"/>
                  <path id="Trazado_105091" data-name="Trazado 105091" d="M95.695,512.421a1.034,1.034,0,0,0-.731,1.77l.089.084a30.871,30.871,0,0,1,3.555,3.363,3.26,3.26,0,0,1,.555,1.688h1.279a3.189,3.189,0,0,0-1.389-2.452c-.985-.836-3.549-2.693-3.869-3.557-.2-.54.511-.9.511-.9Z" transform="translate(-78.756 -397.796)" fill="#e87454"/>
                  <path id="Trazado_105092" data-name="Trazado 105092" d="M97.856,515.471h-3.34s-.532-1.23.747-1.448a2.184,2.184,0,0,1,2.593,1.448Z" transform="translate(-79.136 -395.358)" fill="#ff8762"/>
                  <path id="Trazado_105093" data-name="Trazado 105093" d="M95.881,512.781s.02,1.092,2.243,2.631c1.69,1.166,3.222,2.309,3.452,3.353h1.4a8.331,8.331,0,0,0-2.3-2.483C98.886,514.945,96.536,514.067,95.881,512.781Z" transform="translate(-76.84 -397.235)" fill="#e87454"/>
                  <path id="Trazado_105094" data-name="Trazado 105094" d="M97.784,513.307c.527.545,2.77,2.3,3.619,3.092a3.189,3.189,0,0,1,.936,1.547h.877C102.827,516.054,100.2,514.7,97.784,513.307Z" transform="translate(-73.876 -396.416)" fill="#e87454"/>
                  <path id="Trazado_105095" data-name="Trazado 105095" d="M99.039,513.307c.517.545,2.77,2.3,3.616,3.092a3.168,3.168,0,0,1,.936,1.547h.869C104.079,516.054,101.456,514.7,99.039,513.307Z" transform="translate(-71.922 -396.416)" fill="#e87454"/>
                </g>
                <path id="Trazado_105096" data-name="Trazado 105096" d="M88.435,467.8l.987,8.265,20.335.2c.051-5.393.084-8.672.084-8.672Z" transform="translate(-88.435 -467.598)" fill="#ff8762"/>
              </g>
              <path id="Trazado_105097" data-name="Trazado 105097" d="M100.033,485.578s-.644,7.383-3.567,7.332c-2.58-.046-4.91-3.391-4.46-6.892S100.041,481.821,100.033,485.578Z" transform="translate(-82.961 -443.518)" fill="#ff8762"/>
            </g>
            <g id="Grupo_55759" data-name="Grupo 55759" transform="translate(24.934 23.42)">
              <path id="Trazado_105098" data-name="Trazado 105098" d="M120.685,498.5a44.909,44.909,0,0,1-21.947,5.787C86.185,504.215,79.2,498.5,79.2,498.5s.182-46.673.182-52.243c0-4.606,2.78-7.368,4.808-7.968s10.646-4.5,10.646-4.5l.409-4.432.266-2.856,10.221-.6.217,2.872.384,5.017s8.421,3.532,10.976,4.583,3.833,3.232,3.908,7.214S120.685,498.5,120.685,498.5Z" transform="translate(-79.196 -425.901)" fill="#ffa78f"/>
              <path id="Trazado_105099" data-name="Trazado 105099" d="M96.175,428.773a19.9,19.9,0,0,1-3,3.524,3.425,3.425,0,0,1-3.918.537,16.374,16.374,0,0,1-3.782-3.475l.266-2.856,10.221-.6Z" transform="translate(-69.426 -425.901)" fill="#e87454"/>
              <path id="Trazado_105100" data-name="Trazado 105100" d="M86.6,438.8c.1-1.11-3.943-1.5-4.258,0S86.447,440.613,86.6,438.8Z" transform="translate(-74.318 -407.35)" fill="#e87454"/>
              <path id="Trazado_105101" data-name="Trazado 105101" d="M95.894,438.8c.1-1.11-3.943-1.5-4.258,0S95.738,440.613,95.894,438.8Z" transform="translate(-59.849 -407.35)" fill="#e87454"/>
              <path id="Trazado_105102" data-name="Trazado 105102" d="M87.8,448.746s-2.161,4.061.166,7.311A8.02,8.02,0,0,0,87.8,448.746Z" transform="translate(-67.213 -390.325)" fill="#e87454"/>
              <path id="Trazado_105103" data-name="Trazado 105103" d="M83.107,430.723a48.847,48.847,0,0,0,10.672,2.13A30.2,30.2,0,0,0,105.76,430.9S92.546,432.124,83.107,430.723Z" transform="translate(-73.105 -418.392)" fill="#ff8762"/>
            </g>
            <path id="Trazado_105104" data-name="Trazado 105104" d="M125.654,454.074H80.61l-3.562,38.38h23.977c.325,0,2.107-9.137,2.107-9.137s1.782,9.137,2.107,9.137h23.98Z" transform="translate(-57.607 -358.608)" fill="#86bec4"/>
            <g id="Grupo_55773" data-name="Grupo 55773" transform="translate(34.535)">
              <path id="Trazado_105105" data-name="Trazado 105105" d="M105.5,430.287c.051-.161.813-3.8-.286-6.16s-2.163-3.02-4.447-3.918c-2.123-3.59-7.687-4.437-12-2.325-4.161,2.038-9.587,8.812-2.079,16.277S103.832,435.47,105.5,430.287Z" transform="translate(-82.951 -416.743)" fill="#2e3b4a"/>
              <g id="Grupo_55772" data-name="Grupo 55772" transform="translate(0.11 7.186)">
                <g id="Grupo_55771" data-name="Grupo 55771">
                  <g id="Grupo_55760" data-name="Grupo 55760" transform="translate(0 5.326)">
                    <path id="Trazado_105106" data-name="Trazado 105106" d="M86.78,424.335s-.56-2.243-1.621-2.644-2.414,1.478-2.125,2.936a5.339,5.339,0,0,0,2.767,3.527c.839.238,1.527-.719,1.66-1.309A7.825,7.825,0,0,0,86.78,424.335Z" transform="translate(-82.994 -421.636)" fill="#ff8762"/>
                    <path id="Trazado_105107" data-name="Trazado 105107" d="M84.007,425.178a3.407,3.407,0,0,1-.6-1.721c.087-.7.611-1.514,1.033-1.486s1.383,2.151,1.427,2.511-.8.376-.685.821.716.857.908,1.1c.128.166.212.481-.3.55s-1.3-.953-1.3-.953.933.713,1.181.532-.629-.836-.949-1.322.688-.632.665-.9c-.008-.09-.606-1.555-.985-1.527S83.585,423.636,84.007,425.178Z" transform="translate(-82.356 -421.113)" fill="#e87454"/>
                    <path id="Trazado_105108" data-name="Trazado 105108" d="M84.3,422.724a1.307,1.307,0,0,0-.34,1.115,1.443,1.443,0,0,0,.483.89,1.339,1.339,0,0,1-.752-1.161.826.826,0,0,1,.609-.844Z" transform="translate(-81.912 -419.941)" fill="#e87454"/>
                  </g>
                  <g id="Grupo_55761" data-name="Grupo 55761" transform="translate(2.951)">
                    <path id="Trazado_105109" data-name="Trazado 105109" d="M84.576,425.02a1.786,1.786,0,0,0-.427,1.227,26.267,26.267,0,0,0,.425,3.156,25.746,25.746,0,0,0,1.7,6.145,21.012,21.012,0,0,0,4.245,3.895,6.248,6.248,0,0,0,4.007-.077c.591-.314,4.017-2.642,4.572-3.526.616-.979,2.56-8.086,2.56-8.086-1.412.174-.877-1.619-1.322-2.353-.361-.591-1.3-.849-1.854-1.217a11.019,11.019,0,0,1-1.887-1.575,4.246,4.246,0,0,1-1.419-3.056q-3.951,1.887-7.9,3.777a7.738,7.738,0,0,0-2.7,1.69Z" transform="translate(-84.147 -419.553)" fill="#ffa78f"/>
                  </g>
                  <g id="Grupo_55763" data-name="Grupo 55763" transform="translate(12.647 6.552)">
                    <g id="Grupo_55762" data-name="Grupo 55762" transform="translate(0 0.476)">
                      <path id="Trazado_105110" data-name="Trazado 105110" d="M87.939,423.359s.3.527,2.383.542,2.775-.951,2.775-.951l-4.728.161Z" transform="translate(-87.939 -421.291)" fill="#ff8762"/>
                      <path id="Trazado_105111" data-name="Trazado 105111" d="M88.559,422.51a2.679,2.679,0,0,0-.511,1.614c.946-.074,2.629-1.7,2.629-1.7A9.154,9.154,0,0,0,88.559,422.51Z" transform="translate(-87.769 -422.142)" fill="#e87454"/>
                      <path id="Trazado_105112" data-name="Trazado 105112" d="M88.65,422.826c-.051.008-.765.721-.673.872.082.079.43-.041.43-.041Z" transform="translate(-87.893 -421.484)" fill="#ff8762"/>
                      <path id="Trazado_105113" data-name="Trazado 105113" d="M88.114,424.224c0-.074.289-1.476,1.008-1.675a4.511,4.511,0,0,1,2.383,0c.642.228,1.32,1.276,1.32,1.276a10.109,10.109,0,0,1-2.7.465C88.27,424.4,88.114,424.224,88.114,424.224Z" transform="translate(-87.667 -422.166)" fill="#fff"/>
                      <path id="Trazado_105114" data-name="Trazado 105114" d="M90.522,423.352a.955.955,0,0,1-1.041.849.939.939,0,0,1-.89-1,.954.954,0,0,1,1.041-.849.937.937,0,0,1,.89.995Z" transform="translate(-86.929 -422.219)" fill="#312342"/>
                      <path id="Trazado_105115" data-name="Trazado 105115" d="M90.159,423.106c.066-.292-.974-.488-1.046-.184C89.069,423.1,90.108,423.313,90.159,423.106Z" transform="translate(-86.113 -421.572)" fill="#fff"/>
                      <path id="Trazado_105116" data-name="Trazado 105116" d="M88.088,422.848a13.525,13.525,0,0,1,2.879-.008,4.444,4.444,0,0,1,1.9,1.12,2.757,2.757,0,0,0-1.634-1.537A4,4,0,0,0,88.088,422.848Z" transform="translate(-87.707 -422.301)" fill="#312342"/>
                    </g>
                    <path id="Trazado_105117" data-name="Trazado 105117" d="M88.492,422.368a7.343,7.343,0,0,1,2.153.087,4.452,4.452,0,0,1,1.271.67,2.793,2.793,0,0,0-.91-.859,4.091,4.091,0,0,0-2.514.1Z" transform="translate(-87.078 -422.115)" fill="#ff8762"/>
                  </g>
                  <g id="Grupo_55764" data-name="Grupo 55764" transform="translate(4.551 4.771)">
                    <path id="Trazado_105118" data-name="Trazado 105118" d="M86.9,421.542a6.023,6.023,0,0,1,1.079,1.583A5.743,5.743,0,0,1,88.032,425c-.041,0-1.591-2.81-1.591-2.81Z" transform="translate(-82.175 -421.226)" fill="#ff8762"/>
                    <path id="Trazado_105119" data-name="Trazado 105119" d="M86.972,422.514c.887,0,2.9.23,2.885.176a2.876,2.876,0,0,0-.363-.956c-1.22,0-2.059-.473-3.094-.261a2.783,2.783,0,0,0-1.626,1.376A11.3,11.3,0,0,1,86.972,422.514Z" transform="translate(-84.773 -421.419)" fill="#312342"/>
                  </g>
                  <g id="Grupo_55765" data-name="Grupo 55765" transform="translate(11.912 4.771)">
                    <path id="Trazado_105120" data-name="Trazado 105120" d="M88.757,421.542a11.322,11.322,0,0,0-.939,1.58,3.559,3.559,0,0,0-.084,1.844c.468-1.079,1.284-2.987,1.284-2.987Z" transform="translate(-87.652 -421.226)" fill="#ff8762"/>
                    <path id="Trazado_105121" data-name="Trazado 105121" d="M90.825,422.514c-.887,0-2.9.23-2.882.176a2.8,2.8,0,0,1,.361-.956c1.22,0,2.061-.473,3.094-.261a2.792,2.792,0,0,1,1.629,1.376A11.332,11.332,0,0,0,90.825,422.514Z" transform="translate(-87.198 -421.419)" fill="#312342"/>
                  </g>
                  <g id="Grupo_55766" data-name="Grupo 55766" transform="translate(9.473 10.315)">
                    <path id="Trazado_105122" data-name="Trazado 105122" d="M86.7,423.885s1.164,2.2,1.808,2.1,1.665-2.122,1.665-2.122a3.221,3.221,0,0,1-1.913.828,3.068,3.068,0,0,1-1.56-.806Z" transform="translate(-86.698 -423.154)" fill="#ff8762"/>
                    <path id="Trazado_105123" data-name="Trazado 105123" d="M88.376,424.34a10.031,10.031,0,0,0,1.8-.476A3.237,3.237,0,0,1,88.4,424.9c-.729.038-1.7-1.02-1.7-1.018a6.988,6.988,0,0,0,1.676.458Z" transform="translate(-86.698 -423.154)" fill="#e87454"/>
                    <path id="Trazado_105124" data-name="Trazado 105124" d="M87.381,423.641c-.522.115-.4.9.35.949s.949-.509.742-.829a1.289,1.289,0,0,0-1.092-.12Z" transform="translate(-86.131 -423.587)" fill="#ff8762"/>
                  </g>
                  <path id="Trazado_105125" data-name="Trazado 105125" d="M86.758,426.549a1.9,1.9,0,0,1,1.586-.716,1.879,1.879,0,0,1,1.657.8,6.42,6.42,0,0,1-3.243-.084Z" transform="translate(-77.131 -409.775)" fill="#ff8762"/>
                  <g id="Grupo_55769" data-name="Grupo 55769" transform="translate(4.482 6.439)">
                    <g id="Grupo_55768" data-name="Grupo 55768">
                      <g id="Grupo_55767" data-name="Grupo 55767" transform="translate(0 0.514)">
                        <path id="Trazado_105126" data-name="Trazado 105126" d="M89.861,423.507s-.317.542-2.383.491a3.253,3.253,0,0,1-2.731-1.082l4.693.322Z" transform="translate(-84.746 -421.269)" fill="#ff8762"/>
                        <path id="Trazado_105127" data-name="Trazado 105127" d="M87.736,422.54a2.888,2.888,0,0,1,.463,1.7c-.939-.11-2.562-1.854-2.562-1.854a8.549,8.549,0,0,1,2.1.154Z" transform="translate(-83.36 -422.1)" fill="#e87454"/>
                        <path id="Trazado_105128" data-name="Trazado 105128" d="M86.462,422.812c.051.008.765.719.673.87-.082.079-.43-.038-.43-.038Z" transform="translate(-82.074 -421.431)" fill="#ff8762"/>
                        <path id="Trazado_105129" data-name="Trazado 105129" d="M89.413,424.351c.008-.079-.243-1.55-.951-1.78a4.262,4.262,0,0,0-2.368-.079c-.642.217-1.348,1.291-1.348,1.291a9.671,9.671,0,0,0,2.67.573C89.255,424.533,89.413,424.351,89.413,424.351Z" transform="translate(-84.746 -422.137)" fill="#fff"/>
                        <path id="Trazado_105130" data-name="Trazado 105130" d="M87.3,423.26a.963.963,0,1,1-1.01-.921.963.963,0,0,1,1.01.921Z" transform="translate(-83.772 -422.168)" fill="#312342"/>
                        <path id="Trazado_105131" data-name="Trazado 105131" d="M89.523,422.909a12.788,12.788,0,0,0-2.856-.1,4.375,4.375,0,0,0-1.921,1.11s.578-1.337,1.67-1.552a3.828,3.828,0,0,1,3.107.542Z" transform="translate(-84.746 -422.272)" fill="#312342"/>
                      </g>
                      <path id="Trazado_105132" data-name="Trazado 105132" d="M88.306,422.386a6.951,6.951,0,0,0-2.14.023,4.34,4.34,0,0,0-1.281.657,2.779,2.779,0,0,1,.928-.867,3.865,3.865,0,0,1,2.493.187Z" transform="translate(-84.531 -422.071)" fill="#ff8762"/>
                    </g>
                    <path id="Trazado_105133" data-name="Trazado 105133" d="M86.929,423.017c.028-.309-1.025-.386-1.056-.061C85.855,423.145,86.909,423.24,86.929,423.017Z" transform="translate(-82.991 -421.02)" fill="#fff"/>
                  </g>
                  <g id="Grupo_55770" data-name="Grupo 55770" transform="translate(19.125 5.359)">
                    <path id="Trazado_105134" data-name="Trazado 105134" d="M91.167,424.348s.56-2.243,1.621-2.644,2.414,1.478,2.125,2.936a5.325,5.325,0,0,1-2.767,3.527c-.839.238-1.527-.719-1.66-1.309A7.826,7.826,0,0,1,91.167,424.348Z" transform="translate(-90.472 -421.649)" fill="#ffa78f"/>
                    <path id="Trazado_105135" data-name="Trazado 105135" d="M93.042,425.191a3.4,3.4,0,0,0,.6-1.721c-.09-.7-.611-1.514-1.033-1.486s-1.383,2.153-1.427,2.514.8.373.683.818-.716.857-.9,1.1c-.128.166-.215.478.294.547S92.563,426,92.563,426s-.933.713-1.181.534.629-.839.949-1.325-.688-.632-.665-.9c.008-.089.609-1.555.987-1.527S93.464,423.649,93.042,425.191Z" transform="translate(-89.869 -421.126)" fill="#e87454"/>
                    <path id="Trazado_105136" data-name="Trazado 105136" d="M91.514,422.737a1.327,1.327,0,0,1,.34,1.118,1.445,1.445,0,0,1-.483.887,1.343,1.343,0,0,0,.752-1.161.832.832,0,0,0-.609-.844Z" transform="translate(-89.073 -419.954)" fill="#ff8762"/>
                  </g>
                </g>
              </g>
              <path id="Trazado_105137" data-name="Trazado 105137" d="M86.394,425.6A4.248,4.248,0,0,0,89,426.633a3.888,3.888,0,0,0,3.639-2.14A7.306,7.306,0,0,1,86.394,425.6Z" transform="translate(-77.588 -404.674)" fill="#e87454"/>
            </g>
          </g>
        </g>
      </g>
    </g>
  </g>
</svg>
