<svg xmlns="http://www.w3.org/2000/svg" xmlns:xlink="http://www.w3.org/1999/xlink" width="610" height="401.919" viewBox="0 0 610 401.919">
  <defs>
    <clipPath id="clip-path">
      <rect id="Rectángulo_362164" data-name="Rectángulo 362164" width="108.265" height="33.771" transform="translate(135.574 16.952)" fill="none"/>
    </clipPath>
    <clipPath id="clip-path-2">
      <rect id="Rectángulo_362162" data-name="Rectángulo 362162" width="76.652" height="15.771" transform="translate(135.574 16.952)" fill="none"/>
    </clipPath>
    <clipPath id="clip-path-3">
      <rect id="Rectángulo_362163" data-name="Rectángulo 362163" width="108.265" height="15.771" fill="none"/>
    </clipPath>
    <clipPath id="clip-path-4">
      <rect id="Rectángulo_362167" data-name="Rectángulo 362167" width="111.493" height="33.771" transform="translate(264.362 47.952)" fill="none"/>
    </clipPath>
    <clipPath id="clip-path-5">
      <rect id="Rectángulo_362165" data-name="Rectángulo 362165" width="101.493" height="15.771" transform="translate(264.362 47.952)" fill="none"/>
    </clipPath>
    <clipPath id="clip-path-6">
      <rect id="Rectángulo_362166" data-name="Rectángulo 362166" width="107.273" height="15.771" fill="none"/>
    </clipPath>
    <clipPath id="clip-path-7">
      <rect id="Rectángulo_362170" data-name="Rectángulo 362170" width="108.265" height="33.771" transform="translate(388.353 67.952)" fill="none"/>
    </clipPath>
    <clipPath id="clip-path-8">
      <rect id="Rectángulo_362168" data-name="Rectángulo 362168" width="93.736" height="15.771" fill="none"/>
    </clipPath>
    <clipPath id="clip-path-9">
      <rect id="Rectángulo_362169" data-name="Rectángulo 362169" width="108.264" height="15.771" fill="none"/>
    </clipPath>
    <clipPath id="clip-path-10">
      <rect id="Rectángulo_362179" data-name="Rectángulo 362179" width="75" height="303" fill="none" stroke="#f58da0" stroke-width="1"/>
    </clipPath>
    <clipPath id="clip-path-11">
      <rect id="Rectángulo_362180" data-name="Rectángulo 362180" width="107.263" height="322.856" fill="#025157"/>
    </clipPath>
    <clipPath id="clip-path-12">
      <rect id="Rectángulo_362189" data-name="Rectángulo 362189" width="75" height="279.5" fill="none" stroke="#f58da0" stroke-width="1"/>
    </clipPath>
    <clipPath id="clip-path-13">
      <rect id="Rectángulo_362190" data-name="Rectángulo 362190" width="111.119" height="297.32" fill="#025157"/>
    </clipPath>
    <clipPath id="clip-path-14">
      <rect id="Rectángulo_362198" data-name="Rectángulo 362198" width="75" height="254.5" fill="none" stroke="#f58da0" stroke-width="1"/>
    </clipPath>
    <clipPath id="clip-path-15">
      <rect id="Rectángulo_362199" data-name="Rectángulo 362199" width="79.983" height="273.064" fill="#025157"/>
    </clipPath>
  </defs>
  <g id="Grupo_1065403" data-name="Grupo 1065403" transform="translate(-495 -2596.997)">
    <path id="Trazado_778157" data-name="Trazado 778157" d="M0,0H610V401.919H0Z" transform="translate(495 2596.997)" fill="#baefe4" opacity="0.18"/>
    <path id="Trazado_774885" data-name="Trazado 774885" d="M233.088,375.26c0,5.017-25.813,9.083-57.654,9.083s-57.655-4.066-57.655-9.083,25.813-9.083,57.655-9.083,57.654,4.066,57.654,9.083" transform="translate(462.221 2596.997)" fill="#baefe4"/>
    <path id="Trazado_774886" data-name="Trazado 774886" d="M362.477,375.26c0,5.017-25.814,9.083-57.655,9.083s-57.655-4.066-57.655-9.083,25.813-9.083,57.655-9.083,57.655,4.066,57.655,9.083" transform="translate(497.221 2596.997)" fill="#baefe4"/>
    <path id="Trazado_774887" data-name="Trazado 774887" d="M485.311,375.26c0,5.017-25.813,9.083-57.654,9.083S370,380.277,370,375.26s25.813-9.083,57.655-9.083,57.654,4.066,57.654,9.083" transform="translate(527.219 2596.997)" fill="#baefe4"/>
    <g id="Grupo_1065082" data-name="Grupo 1065082" transform="translate(462.221 2596.997)" clip-path="url(#clip-path)">
      <g id="Grupo_1065078" data-name="Grupo 1065078" style="isolation: isolate">
        <g id="Grupo_1065077" data-name="Grupo 1065077">
          <g id="Grupo_1065076" data-name="Grupo 1065076" clip-path="url(#clip-path-2)">
            <text id="Raza_Blanca" data-name="Raza Blanca" transform="translate(135.574 28.929)" fill="#12263f" font-size="14" font-family="Roboto-Regular, Roboto"><tspan x="0" y="0">Raza Blanca</tspan></text>
          </g>
        </g>
      </g>
      <g id="Grupo_1065081" data-name="Grupo 1065081" style="isolation: isolate">
        <g id="Grupo_1065080" data-name="Grupo 1065080" transform="translate(135.574 34.952)">
          <g id="Grupo_1065079" data-name="Grupo 1065079" clip-path="url(#clip-path-3)">
            <text id="Estatura_1.80_Mt" data-name="Estatura 1.80 Mt" transform="translate(0 11.977)" fill="#12263f" font-size="14" font-family="Roboto-Regular, Roboto"><tspan x="0" y="0">Estatu</tspan><tspan y="0" letter-spacing="-0.019em">r</tspan><tspan y="0">a 1.80 Mt</tspan></text>
          </g>
        </g>
      </g>
    </g>
    <g id="Grupo_1065091" data-name="Grupo 1065091" transform="translate(496.365 2582.882)" clip-path="url(#clip-path-4)">
      <g id="Grupo_1065087" data-name="Grupo 1065087" style="isolation: isolate">
        <g id="Grupo_1065086" data-name="Grupo 1065086">
          <g id="Grupo_1065085" data-name="Grupo 1065085" clip-path="url(#clip-path-5)">
            <text id="Raza_Americana" data-name="Raza Americana" transform="translate(264.362 59.929)" fill="#12263f" font-size="14" font-family="Roboto-Regular, Roboto"><tspan x="0" y="0">Raza Americana</tspan></text>
          </g>
        </g>
      </g>
      <g id="Grupo_1065090" data-name="Grupo 1065090" style="isolation: isolate">
        <g id="Grupo_1065089" data-name="Grupo 1065089">
          <g id="Grupo_1065088" data-name="Grupo 1065088" transform="translate(264.362 65.952)" clip-path="url(#clip-path-6)">
            <text id="Estatura_1.70_Mt" data-name="Estatura 1.70 Mt" transform="translate(0 11.977)" fill="#12263f" font-size="14" font-family="Roboto-Regular, Roboto"><tspan x="0" y="0">Estatu</tspan><tspan y="0" letter-spacing="-0.019em">r</tspan><tspan y="0">a 1.70 Mt</tspan></text>
          </g>
        </g>
      </g>
    </g>
    <g id="Grupo_1065100" data-name="Grupo 1065100" transform="translate(524.911 2589.063)" clip-path="url(#clip-path-7)">
      <g id="Grupo_1065096" data-name="Grupo 1065096" style="isolation: isolate">
        <g id="Grupo_1065095" data-name="Grupo 1065095">
          <g id="Grupo_1065094" data-name="Grupo 1065094" transform="translate(388.353 67.952)" clip-path="url(#clip-path-8)">
            <text id="Raza_Asiática" data-name="Raza  Asiática" transform="translate(0.001 11.977)" fill="#12263f" font-size="14" font-family="Roboto-Regular, Roboto"><tspan x="0" y="0" xml:space="preserve">Raza  Asiática</tspan></text>
          </g>
        </g>
      </g>
      <g id="Grupo_1065099" data-name="Grupo 1065099" style="isolation: isolate">
        <g id="Grupo_1065098" data-name="Grupo 1065098" transform="translate(388.353 85.952)">
          <g id="Grupo_1065097" data-name="Grupo 1065097" clip-path="url(#clip-path-9)">
            <text id="Estatura_1.60_Mt" data-name="Estatura 1.60 Mt" transform="translate(0.001 11.977)" fill="#12263f" font-size="14" font-family="Roboto-Regular, Roboto"><tspan x="0" y="0">Estatu</tspan><tspan y="0" letter-spacing="-0.019em">r</tspan><tspan y="0">a 1.60 Mt</tspan></text>
          </g>
        </g>
      </g>
    </g>
    <g id="Grupo_1065102" data-name="Grupo 1065102" transform="translate(596.221 2649.4)">
      <g id="Grupo_1065101" data-name="Grupo 1065101" clip-path="url(#clip-path-10)">
        <path id="Rectángulo_362171" data-name="Rectángulo 362171" d="M-.75-.75h75v39h-75ZM72.75.75H.75v36h72Z" transform="translate(0.75 0.75)" fill="#f58da0"/>
        <path id="Rectángulo_362172" data-name="Rectángulo 362172" d="M-.75-.75h75v39h-75ZM72.75.75H.75v36h72Z" transform="translate(0.75 75.75)" fill="#f58da0"/>
        <path id="Rectángulo_362173" data-name="Rectángulo 362173" d="M-.75-.75h75v39h-75ZM72.75.75H.75v36h72Z" transform="translate(0.75 151.75)" fill="#f58da0"/>
        <path id="Rectángulo_362174" data-name="Rectángulo 362174" d="M-.75-.75h75v39h-75ZM72.75.75H.75v36h72Z" transform="translate(0.75 227.75)" fill="#f58da0"/>
        <path id="Rectángulo_362175" data-name="Rectángulo 362175" d="M-.75-.75h75v39h-75ZM72.75.75H.75v36h72Z" transform="translate(0.75 37.75)" fill="#f58da0"/>
        <path id="Rectángulo_362176" data-name="Rectángulo 362176" d="M-.75-.75h75v39h-75ZM72.75.75H.75v36h72Z" transform="translate(0.75 113.75)" fill="#f58da0"/>
        <path id="Rectángulo_362177" data-name="Rectángulo 362177" d="M-.75-.75h75v39h-75ZM72.75.75H.75v36h72Z" transform="translate(0.75 189.75)" fill="#f58da0"/>
        <path id="Rectángulo_362178" data-name="Rectángulo 362178" d="M-.75-.75h75v39h-75ZM72.75.75H.75v36h72Z" transform="translate(0.75 264.75)" fill="#f58da0"/>
        <path id="Línea_242" data-name="Línea 242" d="M.75,303H-.75V0H.75Z" transform="translate(37.5)" fill="#f58da0"/>
      </g>
    </g>
    <g id="Grupo_1065104" data-name="Grupo 1065104" transform="translate(580.221 2649.4)">
      <g id="Grupo_1065103" data-name="Grupo 1065103" clip-path="url(#clip-path-11)">
        <path id="Trazado_774888" data-name="Trazado 774888" d="M53.694,45.176a.523.523,0,0,1-.085-.008,21.272,21.272,0,0,1-8.871-5.49c-3.264-3.515-3.432-13.924-3.437-14.365a.391.391,0,0,1,.3-.391c7.856-1.754,15.485-8.733,15.561-8.8a.368.368,0,0,1,.486-.018.4.4,0,0,1,.1.492L55.3,21.5c1.615-.844,5.008-3.26,7.2-9.378a.381.381,0,0,1,.4-.254.388.388,0,0,1,.33.353c.518,5.5,4.7,12.715,4.743,12.786a.408.408,0,0,1,.045.292c-.1.465-2.572,11.413-4.467,13.932-1.861,2.476-8.583,5.942-9.869,5.942M42.069,25.62c.055,1.785.464,10.548,3.218,13.514a20.8,20.8,0,0,0,8.447,5.258c.7.021,7.386-3.189,9.229-5.641,1.677-2.23,3.98-12.117,4.29-13.472-.553-.972-3.635-6.528-4.561-11.524-3.136,7.444-7.893,8.845-8.106,8.9a.372.372,0,0,1-.394-.133.4.4,0,0,1-.042-.427l2.08-4.168c-2.578,2.095-8.269,6.275-14.161,7.689" fill="#025157"/>
        <path id="Trazado_774889" data-name="Trazado 774889" d="M53.956,32.886a2.253,2.253,0,0,1-1.163-.306,1.717,1.717,0,0,1-.8-1.734.38.38,0,0,1,.42-.346.39.39,0,0,1,.335.435.92.92,0,0,0,.427.967,1.691,1.691,0,0,0,1.744-.1.873.873,0,0,0,.348-.94.394.394,0,0,1,.3-.465.383.383,0,0,1,.449.306,1.675,1.675,0,0,1-.65,1.739,2.386,2.386,0,0,1-1.409.441" fill="#025157"/>
        <path id="Trazado_774890" data-name="Trazado 774890" d="M52.773,35.655c-.658,0-1.4-.006-2.236-.019a.385.385,0,0,1-.364-.3.4.4,0,0,1,.192-.44,9.869,9.869,0,0,1,3.15-1.083.376.376,0,0,1,.236.049.7.7,0,0,0,.247.113.368.368,0,0,1,.059-.04,1.409,1.409,0,0,1,.54-.214,9.8,9.8,0,0,1,3.139.972.4.4,0,0,1,.23.4.388.388,0,0,1-.293.349,28.182,28.182,0,0,1-4.9.219m-.329-.787c1.585.007,2.7-.023,3.466-.059a4.276,4.276,0,0,0-1.188-.314.673.673,0,0,0-.275.113.826.826,0,0,1-.953,0,8.952,8.952,0,0,0-1.05.258" fill="#025157"/>
        <path id="Trazado_774891" data-name="Trazado 774891" d="M53.75,37.24a3.171,3.171,0,0,1-2.578-.854.4.4,0,0,1,.058-.553.371.371,0,0,1,.53.054c.022.025.586.628,2.247.561,1.986-.08,2.513-.645,2.518-.65a.379.379,0,0,1,.532-.037.4.4,0,0,1,.055.537c-.066.086-.712.841-3.075.936-.1,0-.194.006-.287.006" fill="#025157"/>
        <path id="Trazado_774892" data-name="Trazado 774892" d="M63.387,23.669a.372.372,0,0,1-.269-.115c-1.649-1.706-5.35-.713-5.387-.7a.378.378,0,0,1-.465-.278.394.394,0,0,1,.269-.482c.169-.046,4.161-1.121,6.121.907a.4.4,0,0,1,0,.556.372.372,0,0,1-.269.115" fill="#025157"/>
        <path id="Trazado_774893" data-name="Trazado 774893" d="M48.652,22.905a.383.383,0,0,1-.361-.269.4.4,0,0,1,.241-.5,4.826,4.826,0,0,1,2.5-.13.4.4,0,0,1,.281.473.381.381,0,0,1-.458.292,4.146,4.146,0,0,0-2.086.111.387.387,0,0,1-.12.02" fill="#025157"/>
        <path id="Trazado_774894" data-name="Trazado 774894" d="M48.285,28.309c-.741,0-1.322-.789-1.322-1.8s.581-1.794,1.322-1.794,1.322.788,1.322,1.794-.58,1.8-1.322,1.8m0-2.8c-.266,0-.562.414-.562,1.007s.3,1.008.562,1.008.562-.414.562-1.008-.3-1.007-.562-1.007" fill="#025157"/>
        <path id="Trazado_774895" data-name="Trazado 774895" d="M59.707,28.309c-.741,0-1.322-.789-1.322-1.8s.581-1.794,1.322-1.794,1.322.788,1.322,1.794-.581,1.8-1.322,1.8m0-2.8c-.266,0-.562.414-.562,1.007s.3,1.008.562,1.008.561-.414.561-1.008-.3-1.007-.561-1.007" fill="#025157"/>
        <path id="Trazado_774896" data-name="Trazado 774896" d="M21.9,322.856a2.974,2.974,0,0,1-2.238-1.265,2.83,2.83,0,0,1-1.223.938,3.38,3.38,0,0,1-2.762-.292c-.6-.3-1.182-.54-1.741-.774-1.954-.819-3.642-1.527-3.4-3.758a64.928,64.928,0,0,1,4.291-14.857c2.54-6.084,2.616-9.47,1.835-21.312a128.842,128.842,0,0,0-1.86-13.478c-1.378-7.949-2.8-16.169-1.868-25.036a75.207,75.207,0,0,1,4.929-19.436c1.059-2.856,1.9-5.112,2-6.863a17.691,17.691,0,0,1,1.541-6.168,11.646,11.646,0,0,0,.992-3.354c.273-2.97-.465-15.384-2-29.13-1.579-14.157,1.453-22.991,4.387-31.534l.162-.472a45.636,45.636,0,0,0,1.968-12.423c.242-3.915.493-7.962,1.9-11.969a41.622,41.622,0,0,1,6.969-12.348,17.123,17.123,0,0,0,1.186-1.633c.876-1.553.718-3.43-.7-8.371-1.144-3.98-2.627-10.118-3.214-12.583L27.8,98.22c-.178,1.344-2.433,18.271-3.614,21.255-.624,1.579-3.1,5.693-5.73,10.05-2.37,3.933-4.822,8-5.463,9.525-1.253,2.981-.678,8.113.025,11.9.716,3.849-.56,6.127-1.91,8.539a9.059,9.059,0,0,0-.877,3.469c-.116,1.06-.207,1.9-.723,2.306a1.141,1.141,0,0,1-.918.2c-1.75-.279-2.66-2.289-2.318-5.122a11.386,11.386,0,0,0-.083-3.679,10.249,10.249,0,0,0-.765,5.167c.129.667.343,1.464.569,2.308.472,1.761.959,3.582.763,4.6a1.53,1.53,0,0,1-1.208,1.38c-.366.044-1.287-.059-2.044-1.85a14.153,14.153,0,0,0-1.285-2.178C1.135,164.466-.09,162.631,0,160.372c.016-.379.032-.837.05-1.354.142-4.075.38-10.9,1.593-13.281.246-.484.561-1.058.913-1.7,1.519-2.77,3.815-6.956,4.241-10.7.506-4.453,4.733-25.132,7.362-30.716A93.782,93.782,0,0,1,18.94,93.69c.1-.6.721-4.588,1.449-11.747a36.444,36.444,0,0,1,2.125-9.716A40.167,40.167,0,0,0,23.861,67.7a27.284,27.284,0,0,0,.591-4.747,15.576,15.576,0,0,1,2.526-8.606c2.607-4.1,6.392-4.235,9.434-4.343a18.374,18.374,0,0,0,2.8-.237c2.99-.594,6.873-3.245,7.691-3.821l.127-4.21a.392.392,0,0,1,.392-.381.388.388,0,0,1,.368.405l-.133,4.41a.4.4,0,0,1-.161.309c-.188.137-4.636,3.364-8.141,4.061a18.683,18.683,0,0,1-2.918.249c-3.016.108-6.434.23-8.825,3.99A14.731,14.731,0,0,0,25.211,63a27.844,27.844,0,0,1-.61,4.879,40.858,40.858,0,0,1-1.371,4.61,35.708,35.708,0,0,0-2.084,9.534C20.354,89.8,19.683,93.862,19.677,93.9a.393.393,0,0,1-.057.148,91.94,91.94,0,0,0-4.772,8.914c-2.422,5.142-6.728,25.519-7.291,30.463-.444,3.9-2.785,8.172-4.334,11-.348.635-.659,1.2-.9,1.68C1.189,148.329.946,155.3.815,159.046c-.018.52-.034.979-.05,1.36-.084,2,1.015,3.641,2.077,5.232a14.738,14.738,0,0,1,1.356,2.31c.454,1.073.96,1.418,1.265,1.383.252-.029.46-.316.544-.752a13.6,13.6,0,0,0-.75-4.233c-.23-.858-.447-1.669-.582-2.365-.405-2.1.5-5.628,1.211-6.178a.526.526,0,0,1,.61-.049c.763.458.682,3.408.528,4.684-.235,1.943.193,4.01,1.679,4.247a.4.4,0,0,0,.34-.051c.259-.205.341-.965.429-1.769a9.7,9.7,0,0,1,.975-3.776c1.545-2.76,2.438-4.675,1.821-8-.723-3.89-1.306-9.191.025-12.357.663-1.578,3.02-5.488,5.515-9.628s5.072-8.414,5.671-9.931c1.168-2.95,3.548-20.942,3.572-21.123a.466.466,0,0,1,.033-.116L32.813,85.4a.379.379,0,0,1,.382-.223.384.384,0,0,1,.331.3c.02.086,2.013,8.593,3.459,13.622,1.493,5.194,1.634,7.211.63,8.992a16.971,16.971,0,0,1-1.25,1.729,40.887,40.887,0,0,0-6.847,12.124c-1.366,3.9-1.6,7.714-1.852,11.751a46.279,46.279,0,0,1-2.011,12.636l-.162.472c-2.9,8.459-5.907,17.206-4.348,31.181,1.589,14.244,2.275,26.3,2,29.295a12.368,12.368,0,0,1-1.047,3.583,17.032,17.032,0,0,0-1.483,5.91c-.106,1.873-.962,4.179-2.045,7.1a74.537,74.537,0,0,0-4.883,19.239c-.922,8.755.492,16.918,1.861,24.813a129.594,129.594,0,0,1,1.87,13.562c.791,12,.711,15.435-1.9,21.678a64.061,64.061,0,0,0-4.233,14.632c-.169,1.569.833,2.062,2.932,2.942.542.228,1.157.486,1.782.794a2.7,2.7,0,0,0,2.161.267,2.225,2.225,0,0,0,1.135-1.069.38.38,0,0,1,.329-.233.4.4,0,0,1,.349.2c.009.017.882,1.582,2.195,1.353,1.286-.222,3.006-3.133,2.613-8.677a25.147,25.147,0,0,1,.649-8.453c.149-.653.289-1.271.389-1.922a15.475,15.475,0,0,1,.583-2.325c.431-1.385.771-2.48.114-3.922-.974-2.143-1.26-10.9-1.452-18.932l-.017-.7c-.073-3,1.891-9.05,3.971-15.453,1.806-5.564,3.675-11.317,4.293-15.347.919-5.988.753-13.519.655-18.019a30.577,30.577,0,0,1,.014-3.9,24.379,24.379,0,0,1,.906-2.679c.927-2.506,2.2-5.938,2.284-8.009.131-3.109,0-5.311,0-5.333a.4.4,0,0,1,.062-.24c.055-.088,5.55-8.834,6.2-16.9.462-5.73,2.79-12.851,4.489-18.05.78-2.384,1.452-4.443,1.782-5.848a64.4,64.4,0,0,0,1.321-9.711.4.4,0,0,1,.144-.287.377.377,0,0,1,.3-.079c1.7.313,3.787.391,4.194-.029a.371.371,0,0,1,.449-.068.4.4,0,0,1,.192.426c-.443,2.212,1.952,9.075,4.268,15.712a122.935,122.935,0,0,1,4.125,13.2,199.348,199.348,0,0,0,6.509,23.226.408.408,0,0,1,.024.19,22.03,22.03,0,0,0,3.133,13.647.406.406,0,0,1,.066.222c0,.753-.012,1.717-.026,2.844-.078,6.152-.224,17.6,1.35,25.045.613,2.9,1.609,6.708,2.664,10.743,2.168,8.289,4.624,17.684,4.8,23.086a41.909,41.909,0,0,1-1.133,11.028,12.734,12.734,0,0,0-.48,3.508,16.529,16.529,0,0,0,.621,2.588,24.181,24.181,0,0,1,1.225,7.955c-.018.68-.04,1.315-.061,1.91-.13,3.783-.2,5.867,1.216,7.785,1.452,1.966,3.03.878,3.2.748a.378.378,0,0,1,.313-.065c.048.014,4.748,1.153,7.1-1.4s2.044-4.984-.219-12.005a69.423,69.423,0,0,1-2.816-23.993c.069-.926.169-2.167.288-3.65.806-10.031,2.485-30.9,1.446-39.262-1.178-9.473-6.443-21.4-6.5-21.519a.405.405,0,0,1-.021-.268c.011-.044,1.156-4.463.274-7.07a19.377,19.377,0,0,1-.953-8.7c.4-5.812,1.323-20.345,1.2-29.731-.128-9.636-2.307-22.179-4.758-27.391-.546-1.16-1.1-2.3-1.65-3.409-1.83-3.724-3.558-7.241-3.978-10.069-.292-1.96-1.885-12.009-4.624-17.376a24.169,24.169,0,0,0-4.293-5.694c-1.367-1.448-2.354-2.494-2.277-3.612a10.006,10.006,0,0,1,1.4-3.426,17.336,17.336,0,0,0,2.2-5.56C70.477,93.11,72.6,84.59,72.62,84.5a.376.376,0,0,1,.709-.076L78.658,95.59a.389.389,0,0,1,.035.116c.01.065.94,6.515,1.6,10.323.633,3.666,2.063,9.613,7.15,18.891,5.964,10.876,8.68,17.36,8.305,19.822a32.156,32.156,0,0,1-.765,3.151c-.792,2.9-1.777,6.5-1.239,8.821a52.193,52.193,0,0,1,.823,5.443,21.722,21.722,0,0,0,.751,4.407c.163.37.381.552.693.532a2.114,2.114,0,0,0,1.535-1.468,7.71,7.71,0,0,0,.176-2.584,6.673,6.673,0,0,1,.233-2.677c.535-1.244,1.572-3.126,1.616-3.205a.374.374,0,0,1,.394-.193.386.386,0,0,1,.31.317,32.026,32.026,0,0,1,.536,6.737,19.686,19.686,0,0,1-2.616,6.677,2.57,2.57,0,0,0-.174,2.215.473.473,0,0,0,.51.311c.931-.1,2.577-1.874,3.9-3.3.364-.394.721-.78,1.064-1.134,1.555-1.608,2.664-5.189,2.954-7.9a42.279,42.279,0,0,0-1.979-13.742l-.318-.93c-1.542-4.5-3.462-10.1-3.964-15.561-.493-5.349-1.93-15.445-3.583-21.145-1.566-5.4-8.68-17.424-8.752-17.544a.4.4,0,0,1-.056-.217c0-.1.248-9.923-1.185-15.177-1.445-5.3-3.437-11.218-3.457-11.277a.412.412,0,0,1-.021-.148c0-.056.244-5.606-1.3-9.334C80,51.414,75.5,50.371,72.046,50.272c-4.828-.139-11.347-3.616-11.622-3.764a.4.4,0,0,1-.2-.36l.133-5.1a.369.369,0,0,1,.391-.382.388.388,0,0,1,.37.4l-.127,4.849c1.165.6,6.9,3.445,11.08,3.566,5.275.151,8.893,2.235,10.464,6.025,1.532,3.7,1.393,8.882,1.366,9.6.231.692,2.081,6.243,3.446,11.25,1.4,5.118,1.243,14.109,1.216,15.3.74,1.252,7.238,12.335,8.774,17.63,1.667,5.751,3.115,15.916,3.611,21.3.494,5.362,2.4,10.913,3.924,15.373l.319.931a42.562,42.562,0,0,1,2.018,14.091c-.248,2.3-1.3,6.424-3.174,8.365-.338.35-.692.732-1.052,1.121-1.556,1.678-3.164,3.414-4.374,3.539a1.211,1.211,0,0,1-1.258-.724,3.345,3.345,0,0,1,.262-3.088,19.372,19.372,0,0,0,2.446-6.277,25.259,25.259,0,0,0-.355-5.381c-.342.651-.774,1.5-1.052,2.149a6.25,6.25,0,0,0-.168,2.329,8.228,8.228,0,0,1-.222,2.881,2.83,2.83,0,0,1-2.22,1.985,1.467,1.467,0,0,1-1.414-.992,21.11,21.11,0,0,1-.814-4.64A51.651,51.651,0,0,0,93,156.9c-.584-2.516.431-6.232,1.247-9.219.338-1.235.629-2.3.745-3.06.236-1.545-1-6.15-8.215-19.311-5.144-9.383-6.594-15.418-7.237-19.141-.625-3.62-1.494-9.614-1.591-10.284L73.1,85.732c-.581,2.385-1.989,8.3-2.4,11.192a18.218,18.218,0,0,1-2.285,5.828,9.725,9.725,0,0,0-1.309,3.1c-.053.765.88,1.754,2.062,3.006a24.8,24.8,0,0,1,4.422,5.877c2.795,5.478,4.408,15.641,4.7,17.623.4,2.7,2.1,6.166,3.9,9.832.547,1.114,1.109,2.257,1.656,3.422,2.492,5.3,4.706,17.993,4.835,27.725.124,9.415-.8,23.975-1.2,29.8a18.47,18.47,0,0,0,.913,8.385c.879,2.6-.025,6.59-.223,7.4.577,1.328,5.376,12.561,6.5,21.619,1.049,8.442-.634,29.37-1.443,39.427-.119,1.481-.219,2.722-.288,3.645a68.546,68.546,0,0,0,2.779,23.684c2.225,6.9,2.805,9.795.049,12.8-2.421,2.636-6.769,1.86-7.668,1.664a2.926,2.926,0,0,1-4.1-1.007c-1.584-2.142-1.5-4.457-1.371-8.292.02-.592.042-1.224.059-1.9a23.45,23.45,0,0,0-1.193-7.706,17.023,17.023,0,0,1-.647-2.722,12.829,12.829,0,0,1,.492-3.771,41.177,41.177,0,0,0,1.117-10.831c-.178-5.311-2.622-14.66-4.779-22.908-1.058-4.044-2.056-7.864-2.673-10.781-1.592-7.527-1.446-19.038-1.368-25.223.014-1.063.026-1.981.027-2.712a22.97,22.97,0,0,1-3.206-13.987,201.384,201.384,0,0,1-6.511-23.257,122.716,122.716,0,0,0-4.1-13.1c-2.246-6.435-4.378-12.544-4.363-15.408a10.566,10.566,0,0,1-3.739-.053,64.327,64.327,0,0,1-1.315,9.417c-.337,1.438-1.015,3.512-1.8,5.914-1.686,5.161-4,12.228-4.451,17.864-.626,7.772-5.608,16.108-6.254,17.159.026.522.108,2.564-.006,5.286-.093,2.2-1.388,5.7-2.334,8.257a25.877,25.877,0,0,0-.871,2.55,37.252,37.252,0,0,0,0,3.734c.1,4.526.266,12.1-.664,18.16-.628,4.1-2.507,9.88-4.323,15.475-2.058,6.335-4,12.318-3.932,15.182l.017.705c.128,5.337.393,16.444,1.381,18.616a5.692,5.692,0,0,1-.079,4.5,14.687,14.687,0,0,0-.556,2.207c-.1.68-.247,1.311-.4,1.98a24.379,24.379,0,0,0-.631,8.215c.406,5.743-1.37,9.186-3.247,9.51a2.306,2.306,0,0,1-.4.035" fill="#025157"/>
        <path id="Trazado_774897" data-name="Trazado 774897" d="M34.222,70.528a.364.364,0,0,1-.214-.069l-2.531-1.791a.4.4,0,0,1-.1-.547.371.371,0,0,1,.528-.1l2.531,1.791a.4.4,0,0,1,.1.547.376.376,0,0,1-.314.171" fill="#025157"/>
        <path id="Trazado_774898" data-name="Trazado 774898" d="M39.91,89.843c-.269,0-.534-.01-.793-.03-3.039-.236-5.339-1.727-6.311-4.092-1.966-4.784-.977-7.944.069-11.289.2-.624.4-1.262.582-1.927.882-3.144-.044-4.168-.489-4.661a.913.913,0,0,1-.326-.6.38.38,0,0,1,.753-.082c.027.036.082.1.128.148.5.551,1.667,1.843.664,5.417-.189.673-.391,1.318-.588,1.95-1.045,3.34-1.947,6.226-.093,10.739.857,2.085,2.923,3.4,5.668,3.615,3.538.272,7.119-1.4,8.711-4.081a.373.373,0,0,1,.524-.128.4.4,0,0,1,.124.541c-1.872,3.148-5.541,4.483-8.623,4.483M33.4,67.24h0Z" fill="#025157"/>
        <path id="Trazado_774899" data-name="Trazado 774899" d="M71.124,70.528a.376.376,0,0,1-.314-.171.4.4,0,0,1,.1-.547l2.531-1.791a.371.371,0,0,1,.528.1.4.4,0,0,1-.1.547l-2.531,1.791a.364.364,0,0,1-.214.069" fill="#025157"/>
        <path id="Trazado_774900" data-name="Trazado 774900" d="M65.434,89.843a10.074,10.074,0,0,1-8.513-4.3l-8.629-.361a.388.388,0,0,1-.364-.409.382.382,0,0,1,.4-.377l8.827.369a.376.376,0,0,1,.309.187c1.593,2.677,5.18,4.352,8.712,4.081,2.745-.214,4.811-1.531,5.668-3.616,1.854-4.513.951-7.4-.093-10.739-.2-.631-.4-1.277-.589-1.95-1-3.573.165-4.865.664-5.417.046-.051.1-.112.129-.148a.379.379,0,0,1,.752.082.915.915,0,0,1-.326.6c-.445.492-1.37,1.516-.488,4.66.186.665.386,1.3.581,1.927,1.047,3.345,2.035,6.5.069,11.289-.971,2.365-3.272,3.856-6.311,4.092-.258.02-.523.03-.793.03m6.507-22.6h0Z" fill="#025157"/>
        <path id="Trazado_774901" data-name="Trazado 774901" d="M52.739,54.13a.382.382,0,0,1-.368-.3c-.179-.738-1.16-.79-4.773-.257a16.006,16.006,0,0,1-6.555-.773,6.252,6.252,0,0,0-1.638-.345.383.383,0,0,1-.479-.255.393.393,0,0,1,.238-.492c.379-.131.941.016,2.077.332a15.33,15.33,0,0,0,6.249.754c3.715-.548,5.263-.626,5.618.845a.394.394,0,0,1-.277.477.363.363,0,0,1-.092.012" fill="#025157"/>
        <path id="Trazado_774902" data-name="Trazado 774902" d="M55.138,54.13a.379.379,0,0,1-.094-.012.4.4,0,0,1-.276-.477c.357-1.471,1.906-1.393,5.618-.845a15.4,15.4,0,0,0,6.249-.754c1.136-.316,1.7-.465,2.077-.332a.394.394,0,0,1,.239.492.384.384,0,0,1-.48.255,6.244,6.244,0,0,0-1.638.345,15.994,15.994,0,0,1-6.555.773c-3.611-.534-4.594-.482-4.773.257a.382.382,0,0,1-.367.3" fill="#025157"/>
        <path id="Trazado_774903" data-name="Trazado 774903" d="M52.206,51.237a.37.37,0,0,1-.233-.083c-2.458-1.977-3.927-6.2-3.988-6.38a.4.4,0,0,1,.231-.5.376.376,0,0,1,.485.239c.014.042,1.458,4.187,3.739,6.022a.4.4,0,0,1,.067.552.377.377,0,0,1-.3.152" fill="#025157"/>
        <path id="Trazado_774904" data-name="Trazado 774904" d="M55.67,51.374a.372.372,0,0,1-.269-.115.4.4,0,0,1,0-.556c1.918-1.985,3.758-6.976,3.776-7.026a.377.377,0,0,1,.491-.229.4.4,0,0,1,.221.507c-.077.211-1.917,5.2-3.95,7.3a.372.372,0,0,1-.269.115" fill="#025157"/>
        <path id="Trazado_774905" data-name="Trazado 774905" d="M38.885,50.548a.373.373,0,0,1-.057,0,.394.394,0,0,1-.32-.448,31.378,31.378,0,0,0-.35-9.714l-.184-.835a49.24,49.24,0,0,1-.487-21.468C39.538,7.34,47.534-.427,56.088.018c6.86.355,8.179,4.158,8.43,5.46A4.729,4.729,0,0,1,69.47,8.514c1.731,3.878,4.688,13.35,3.494,21.444-1.189,8.067-2.121,15.109-1.465,19.587a.39.39,0,0,1-.319.447.379.379,0,0,1-.433-.33c-.672-4.586.266-11.691,1.466-19.822,1.166-7.909-1.736-17.192-3.434-21a3.948,3.948,0,0,0-4.5-2.538.374.374,0,0,1-.319-.071.4.4,0,0,1-.149-.3c-.006-.192-.25-4.741-7.764-5.13C47.859.369,40.212,7.873,38.234,18.232a48.488,48.488,0,0,0,.481,21.138l.186.842a31.608,31.608,0,0,1,.36,10,.386.386,0,0,1-.376.335" fill="#025157"/>
        <path id="Trazado_774906" data-name="Trazado 774906" d="M40.98,104.182a.371.371,0,0,1-.074-.007.394.394,0,0,1-.3-.462c.023-.117,2.325-11.676,10.9-12.9a.379.379,0,0,1,.429.336.391.391,0,0,1-.325.443c-8.039,1.147-10.231,12.161-10.252,12.272a.385.385,0,0,1-.373.317" fill="#025157"/>
        <path id="Trazado_774907" data-name="Trazado 774907" d="M64.444,104.182a.385.385,0,0,1-.373-.317c-.021-.111-2.221-11.126-10.252-12.272a.391.391,0,0,1-.325-.443.377.377,0,0,1,.429-.336c8.57,1.223,10.872,12.782,10.9,12.9a.393.393,0,0,1-.3.461.316.316,0,0,1-.074.008" fill="#025157"/>
        <path id="Trazado_774908" data-name="Trazado 774908" d="M52.948,122.567c-.035,0-.071,0-.106,0a1.909,1.909,0,0,1-1.3-.706.4.4,0,0,1,.066-.552.372.372,0,0,1,.532.066,1.147,1.147,0,0,0,.755.407,1.579,1.579,0,0,0,1.14-.591.373.373,0,0,1,.538,0,.4.4,0,0,1,0,.557,2.3,2.3,0,0,1-1.626.822" fill="#025157"/>
        <path id="Trazado_774909" data-name="Trazado 774909" d="M24.757,96.241a.37.37,0,0,1-.211-.066,11.32,11.32,0,0,0-1.95-1.008.4.4,0,0,1-.223-.506.376.376,0,0,1,.49-.23,11.794,11.794,0,0,1,2.1,1.089.4.4,0,0,1,.106.546.376.376,0,0,1-.317.175" fill="#025157"/>
        <path id="Trazado_774910" data-name="Trazado 774910" d="M82.26,96.241a.376.376,0,0,1-.317-.175.4.4,0,0,1,.106-.546,11.794,11.794,0,0,1,2.1-1.089.377.377,0,0,1,.49.23.4.4,0,0,1-.223.506,11.32,11.32,0,0,0-1.95,1.008.37.37,0,0,1-.211.066" fill="#025157"/>
        <path id="Trazado_774911" data-name="Trazado 774911" d="M25.192,216.995a.335.335,0,0,1-.063,0,.392.392,0,0,1-.312-.453c.114-.707.034-4.945-.006-6.518a.381.381,0,1,1,.761-.02c.015.586.141,5.758-.005,6.667a.384.384,0,0,1-.375.329" fill="#025157"/>
        <path id="Trazado_774912" data-name="Trazado 774912" d="M30.262,219.392a.382.382,0,0,1-.361-.269.4.4,0,0,1,.241-.5c1.115-.384,2.214-3.794,2.645-5.852a.4.4,0,0,1,.134-.224l2.173-1.8a.372.372,0,0,1,.534.062.4.4,0,0,1-.059.553L33.5,213.077c-.221,1.009-1.333,5.679-3.119,6.295a.36.36,0,0,1-.12.02" fill="#025157"/>
        <path id="Trazado_774913" data-name="Trazado 774913" d="M83.853,216.995a.384.384,0,0,1-.375-.329c-.146-.909-.02-6.081,0-6.667a.382.382,0,0,1,.39-.383.389.389,0,0,1,.371.4c-.04,1.573-.119,5.811-.005,6.518a.393.393,0,0,1-.313.453.335.335,0,0,1-.063,0" fill="#025157"/>
        <path id="Trazado_774914" data-name="Trazado 774914" d="M78.784,219.392a.36.36,0,0,1-.12-.02c-1.786-.615-2.9-5.286-3.12-6.295l-2.067-1.712a.4.4,0,0,1-.059-.553.373.373,0,0,1,.534-.062l2.173,1.8a.4.4,0,0,1,.134.224c.43,2.058,1.53,5.468,2.645,5.852a.4.4,0,0,1,.241.5.382.382,0,0,1-.361.269" fill="#025157"/>
        <path id="Trazado_774915" data-name="Trazado 774915" d="M54.013,56.492c-.585,0-1.037-.635-1.124-.766a.4.4,0,0,1,.1-.546.372.372,0,0,1,.529.1c.137.2.384.422.5.425.038,0,.109-.073.182-.224a.375.375,0,0,1,.51-.176.4.4,0,0,1,.17.528.991.991,0,0,1-.809.657l-.058,0" fill="#025157"/>
        <path id="Trazado_774916" data-name="Trazado 774916" d="M41.392,34.246a.944.944,0,0,1-.572-.2c-.629-.464-1.052-2.978-1.131-3.477-.177-1.13-.4-3.138.129-3.887a.954.954,0,0,1,.88-.48c.727.072,1.234,1.114,1.329,1.322a.4.4,0,0,1-.183.523.376.376,0,0,1-.506-.188c-.181-.4-.524-.855-.713-.874-.06-.006-.164.12-.192.159-.6.86.329,5.783.836,6.267.3.225.832-.478.837-.485a.372.372,0,0,1,.531-.085.4.4,0,0,1,.083.548,1.872,1.872,0,0,1-1.328.854" fill="#025157"/>
        <path id="Trazado_774917" data-name="Trazado 774917" d="M67.56,34.218c-.8,0-1.706-.939-1.913-1.166a.4.4,0,0,1,.015-.555.372.372,0,0,1,.537.014c.5.541,1.234,1.05,1.443.9.5-.478,1.431-5.4.828-6.261-.028-.039-.142-.166-.192-.159-.188.018-.532.476-.713.873a.376.376,0,0,1-.506.188.4.4,0,0,1-.182-.522c.094-.209.6-1.25,1.328-1.323a.946.946,0,0,1,.88.48c.526.749.307,2.756.13,3.885-.079.5-.5,3.015-1.131,3.479a.861.861,0,0,1-.524.17" fill="#025157"/>
        <path id="Trazado_774918" data-name="Trazado 774918" d="M51.407,158.026a.377.377,0,0,1-.328-.194c-.122-.214-12.271-21.433-23.478-21.152a.372.372,0,0,1-.388-.385.388.388,0,0,1,.372-.4c4.906-.119,10.473,3.5,16.535,10.713a82.283,82.283,0,0,1,7.615,10.828.4.4,0,0,1-.136.538.375.375,0,0,1-.192.054" fill="#025157"/>
        <path id="Trazado_774919" data-name="Trazado 774919" d="M55.575,126.175a183.335,183.335,0,0,1-26.568-2.215.393.393,0,0,1-.314-.452.381.381,0,0,1,.437-.325c.314.054,31.54,5.257,46.27-.488a.376.376,0,0,1,.49.229.4.4,0,0,1-.222.507c-5.319,2.074-12.736,2.744-20.093,2.744" fill="#025157"/>
        <path id="Trazado_774920" data-name="Trazado 774920" d="M55.936,157.889a.366.366,0,0,1-.154-.034.4.4,0,0,1-.193-.519c.079-.183,8.037-18.374,22.544-22.7a.379.379,0,0,1,.471.269.4.4,0,0,1-.26.487c-14.164,4.221-21.983,22.082-22.06,22.262a.38.38,0,0,1-.348.233" fill="#025157"/>
        <path id="Trazado_774921" data-name="Trazado 774921" d="M32.377,78.387a.367.367,0,0,1-.229-.08.4.4,0,0,1-.073-.551l6.348-8.647L34.137,50.878a.394.394,0,0,1,.279-.476.381.381,0,0,1,.46.29l4.329,18.413a.4.4,0,0,1-.067.331l-6.458,8.8a.373.373,0,0,1-.3.156" fill="#025157"/>
        <path id="Trazado_774922" data-name="Trazado 774922" d="M53.151,81.95a.373.373,0,0,1-.279-.126L42,69.688a.394.394,0,0,1-.086-.155L36.533,50.717a.4.4,0,0,1,.256-.489.378.378,0,0,1,.473.265l5.357,18.728L53.175,81l12.133-11.25,6.386-20a.376.376,0,0,1,.481-.25.4.4,0,0,1,.241.5L66,70.1a.385.385,0,0,1-.107.169L53.4,81.849a.37.37,0,0,1-.254.1" fill="#025157"/>
        <path id="Trazado_774923" data-name="Trazado 774923" d="M72.742,77.273a.377.377,0,0,1-.323-.186L68.544,70.63a.406.406,0,0,1-.043-.316l5.6-20.263a.381.381,0,0,1,.47-.27.4.4,0,0,1,.262.486l-5.552,20.1,3.787,6.309a.4.4,0,0,1-.123.542.369.369,0,0,1-.2.059" fill="#025157"/>
        <path id="Trazado_774924" data-name="Trazado 774924" d="M19.645,321.279a.442.442,0,0,1-.08-.008.4.4,0,0,1-.292-.468l.46-2.224a.383.383,0,0,1,.452-.3.394.394,0,0,1,.292.467l-.461,2.224a.382.382,0,0,1-.371.311" fill="#025157"/>
        <path id="Trazado_774925" data-name="Trazado 774925" d="M88.041,321.724a.385.385,0,0,1-.375-.328l-.509-3.146a.392.392,0,0,1,.312-.453.378.378,0,0,1,.438.322l.509,3.146a.393.393,0,0,1-.312.454.447.447,0,0,1-.063.005" fill="#025157"/>
        <path id="Trazado_774926" data-name="Trazado 774926" d="M42.045,22.307a.382.382,0,0,1-.365-.283.4.4,0,0,1,.258-.488c.139-.042,13.944-4.337,17.95-14.575a.375.375,0,0,1,.495-.217.4.4,0,0,1,.21.512C58.422,12.8,53.517,16.6,49.785,18.805a39.3,39.3,0,0,1-7.633,3.486.365.365,0,0,1-.107.016" fill="#025157"/>
        <path id="Trazado_774927" data-name="Trazado 774927" d="M52.235,14.026a.377.377,0,0,1-.329-.2.4.4,0,0,1,.138-.538,14.342,14.342,0,0,0,5.9-7.061.379.379,0,0,1,.482-.248.4.4,0,0,1,.24.5,14.867,14.867,0,0,1-6.236,7.493.367.367,0,0,1-.19.053" fill="#025157"/>
      </g>
    </g>
    <g id="Grupo_1065106" data-name="Grupo 1065106" transform="translate(762.447 2682.9)">
      <g id="Grupo_1065105" data-name="Grupo 1065105" clip-path="url(#clip-path-12)">
        <path id="Rectángulo_362181" data-name="Rectángulo 362181" d="M-.75-.75h75v39h-75ZM72.75.75H.75v36h72Z" transform="translate(0.75 1.25)" fill="#f58da0"/>
        <path id="Rectángulo_362182" data-name="Rectángulo 362182" d="M-.75-.75h75v39h-75ZM72.75.75H.75v36h72Z" transform="translate(0.75 39.25)" fill="#f58da0"/>
        <path id="Rectángulo_362183" data-name="Rectángulo 362183" d="M-.75-.75h75v39h-75ZM72.75.75H.75v36h72Z" transform="translate(0.75 76.25)" fill="#f58da0"/>
        <path id="Rectángulo_362184" data-name="Rectángulo 362184" d="M-.75-.75h75v39h-75ZM72.75.75H.75v36h72Z" transform="translate(0.75 115.25)" fill="#f58da0"/>
        <path id="Rectángulo_362185" data-name="Rectángulo 362185" d="M-.75-.75h75v39h-75ZM72.75.75H.75v36h72Z" transform="translate(0.75 152.25)" fill="#f58da0"/>
        <path id="Rectángulo_362186" data-name="Rectángulo 362186" d="M-.75-.75h75v39h-75ZM72.75.75H.75v36h72Z" transform="translate(0.75 190.25)" fill="#f58da0"/>
        <path id="Rectángulo_362187" data-name="Rectángulo 362187" d="M-.75-.75h75v39h-75ZM72.75.75H.75v36h72Z" transform="translate(0.75 227.25)" fill="#f58da0"/>
        <path id="Rectángulo_362188" data-name="Rectángulo 362188" d="M-.75-.75h75v15h-75ZM72.75.75H.75v12h72Z" transform="translate(0.75 265.25)" fill="#f58da0"/>
        <path id="Trazado_774928" data-name="Trazado 774928" d="M.75,280H-.75V0H.75Z" transform="translate(37.5)" fill="#f58da0"/>
      </g>
    </g>
    <g id="Grupo_1065108" data-name="Grupo 1065108" transform="translate(744.388 2673.9)">
      <g id="Grupo_1065107" data-name="Grupo 1065107" clip-path="url(#clip-path-13)">
        <path id="Trazado_774929" data-name="Trazado 774929" d="M55.353,43.214a10.372,10.372,0,0,1-1.177-.067,9.588,9.588,0,0,1-6.668-3.811,16.754,16.754,0,0,1-3.483-7.561,1.593,1.593,0,0,1-1.91-.721,22.05,22.05,0,0,1-.572-4.676A.364.364,0,0,1,41.9,26a.359.359,0,0,1,.379.347,21.779,21.779,0,0,0,.514,4.419c.263.606,1.426.209,1.438.2a.372.372,0,0,1,.332.041.362.362,0,0,1,.159.29c0,.032.111,3.219,3.381,7.6A8.86,8.86,0,0,0,54.26,42.43a9.055,9.055,0,0,0,6.755-1.925C64.542,37.543,66.23,30.37,66.246,30.3a.364.364,0,0,1,.193-.242.376.376,0,0,1,.313-.007c.324.14,1.084.343,1.357.074a18.461,18.461,0,0,0,.707-4.848.366.366,0,0,1,.731.042c-.084,1.408-.342,4.746-.921,5.316a1.823,1.823,0,0,1-1.763.22c-.412,1.591-2.11,7.463-5.373,10.2a9.538,9.538,0,0,1-6.137,2.16" fill="#025157"/>
        <path id="Trazado_774930" data-name="Trazado 774930" d="M68.1,47.188a.37.37,0,0,1-.274-.121.358.358,0,0,1-.028-.444c3.071-4.414,3.9-14.208,2.8-18.02-.766-2.644-3.21-5.228-5.367-7.507-.837-.885-1.627-1.72-2.3-2.529-1.744-2.1-2.8-6.471-3.284-8.99-.647,2.284-2.257,5.991-6.066,7.493C47.836,19.333,41.81,22.8,40.643,31.361a24.618,24.618,0,0,0,2.932,15.274.359.359,0,0,1-.014.405.368.368,0,0,1-.386.137c-.27-.068-6.634-1.787-8.007-12.341-1.27-9.762,4.444-16.963,5.281-17.957-.069-1.393-.29-11.891,8.236-15.456C53.42-.557,56.85-.111,58.891.612a8.648,8.648,0,0,1,3.254,1.979,9.03,9.03,0,0,1,6.346,2.386c2.544,2.508,2.678,11.139,2.684,12.2.46.824,4.11,7.531,4.748,13.7.747,7.213-2.187,13.448-7.657,16.272a.367.367,0,0,1-.17.041M55.177.7a16.091,16.091,0,0,0-6.206,1.384c-8.6,3.6-7.792,14.773-7.783,14.886a.357.357,0,0,1-.092.269c-.065.072-6.52,7.363-5.2,17.5,1,7.695,4.792,10.471,6.553,11.36a25.712,25.712,0,0,1-2.529-14.84c1.216-8.928,7.45-12.525,13.388-14.866,5.165-2.036,6.006-8.733,6.014-8.8a.364.364,0,0,1,.36-.319h0a.364.364,0,0,1,.362.311c.011.077,1.1,7.691,3.449,10.521.656.79,1.438,1.617,2.267,2.493,2.212,2.339,4.721,4.99,5.536,7.8,1.072,3.7.457,12.391-2.154,17.386,4.41-2.941,6.708-8.491,6.051-14.843-.663-6.4-4.663-13.431-4.7-13.5a.356.356,0,0,1-.047-.178c0-.093-.03-9.375-2.471-11.782a8.484,8.484,0,0,0-5.956-2.169.373.373,0,0,1-.307-.127A8.7,8.7,0,0,0,55.177.7" fill="#025157"/>
        <path id="Trazado_774931" data-name="Trazado 774931" d="M60.089,6.358a.385.385,0,0,1-.154-.033.36.36,0,0,1-.178-.48,15.9,15.9,0,0,1,1.368-2.384.37.37,0,0,1,.514-.061.358.358,0,0,1,.062.507,15.629,15.629,0,0,0-1.28,2.242.366.366,0,0,1-.332.209" fill="#025157"/>
        <path id="Trazado_774932" data-name="Trazado 774932" d="M55.758,30.939c-.075,0-.151,0-.227-.01a2,2,0,0,1-1.806-1.36.359.359,0,0,1,.243-.45.366.366,0,0,1,.457.239,1.269,1.269,0,0,0,1.171.852,1.591,1.591,0,0,0,1.565-.792.37.37,0,0,1,.493-.157.359.359,0,0,1,.159.486,2.287,2.287,0,0,1-2.055,1.192" fill="#025157"/>
        <path id="Trazado_774933" data-name="Trazado 774933" d="M56.779,33.855a30.84,30.84,0,0,1-5.083-.216.363.363,0,0,1-.279-.291c-.051-.3.067-.733.924-1.109,1.609-.7,5.443-.979,7.04,1.012a.358.358,0,0,1,.043.379.367.367,0,0,1-.325.206c-.868.013-1.637.019-2.32.019m-4.355-.85c.753.068,2.4.155,5.729.121a6.634,6.634,0,0,0-4.491-.533,4.275,4.275,0,0,0-1.238.412" fill="#025157"/>
        <path id="Trazado_774934" data-name="Trazado 774934" d="M55.592,35.725c-.093,0-.189,0-.287-.006-2.391-.092-2.849-.737-2.933-.933a.359.359,0,0,1,.2-.472.369.369,0,0,1,.479.192h0c.011,0,.4.421,2.286.493a3.7,3.7,0,0,0,2.538-.608.372.372,0,0,1,.516,0,.355.355,0,0,1,0,.5,4,4,0,0,1-2.8.826" fill="#025157"/>
        <path id="Trazado_774935" data-name="Trazado 774935" d="M45.755,21.992a.366.366,0,0,1-.259-.106.357.357,0,0,1,0-.51c2.023-1.994,6.154-.935,6.329-.889a.36.36,0,0,1,.259.441.366.366,0,0,1-.448.256c-.038-.009-3.9-1-5.622.7a.366.366,0,0,1-.259.106" fill="#025157"/>
        <path id="Trazado_774936" data-name="Trazado 774936" d="M64.476,21.992a.366.366,0,0,1-.259-.106c-1.725-1.7-5.583-.712-5.622-.7a.366.366,0,0,1-.448-.256.36.36,0,0,1,.259-.441c.175-.046,4.3-1.106,6.329.889a.357.357,0,0,1,0,.51.366.366,0,0,1-.259.106" fill="#025157"/>
        <path id="Trazado_774937" data-name="Trazado 774937" d="M61.438,26.583c-.754,0-1.344-.767-1.344-1.746s.59-1.747,1.344-1.747,1.344.768,1.344,1.747-.59,1.746-1.344,1.746m0-2.772c-.29,0-.612.422-.612,1.026s.322,1.026.612,1.026.612-.422.612-1.026-.322-1.026-.612-1.026" fill="#025157"/>
        <path id="Trazado_774938" data-name="Trazado 774938" d="M49.577,26.583c-.754,0-1.344-.767-1.344-1.746s.59-1.747,1.344-1.747,1.344.768,1.344,1.747-.59,1.746-1.344,1.746m0-2.772c-.29,0-.612.422-.612,1.026s.322,1.026.612,1.026.612-.422.612-1.026-.322-1.026-.612-1.026" fill="#025157"/>
        <path id="Trazado_774939" data-name="Trazado 774939" d="M11.05,165.221a1.919,1.919,0,0,1-1.308-.857,1.831,1.831,0,0,1-1.5.682c-.651-.128-1.205-1.029-1.461-1.515-.684.109-1.628.024-1.877-.836-.232-.8.769-8.1,1.254-11.489L2.4,156.068a.361.361,0,0,1-.335.14,2.781,2.781,0,0,1-1.889-.991,1.368,1.368,0,0,1-.051-1.273c.34-.843,1.37-2.652,2.563-4.747.914-1.605,1.949-3.423,2.77-4.983a13.305,13.305,0,0,1,5.973-5.324c.32-2.236,3.247-22.6,4.5-28.4a34.666,34.666,0,0,1,5.176-11.44c-.009-2.579-.06-35.078,2.84-40.141,2.966-5.18,13.511-4.324,14.353-4.245,4.758-.52,9.224-4.258,9.651-5.939.486-1.921.41-8.541.409-8.608a.363.363,0,0,1,.361-.366h.005a.364.364,0,0,1,.366.357c0,.276.079,6.781-.431,8.791-.542,2.139-5.485,5.975-10.319,6.486a.47.47,0,0,1-.075,0c-.109-.011-10.893-.994-13.683,3.878-2.861,5-2.746,39.551-2.744,39.9a.355.355,0,0,1-.07.213,33.976,33.976,0,0,0-5.123,11.265c-1.312,6.077-4.484,28.32-4.516,28.544a.362.362,0,0,1-.22.282c-.041.017-4.024,1.7-5.8,5.076-.826,1.571-1.865,3.394-2.781,5-1.131,1.986-2.2,3.863-2.522,4.661a.684.684,0,0,0,0,.637,1.87,1.87,0,0,0,1.147.609l4.47-5.792a.372.372,0,0,1,.433-.114.359.359,0,0,1,.221.384c-.659,4.5-1.641,11.883-1.473,12.563.16.552,1.269.276,1.281.273a.368.368,0,0,1,.428.2c.247.534.756,1.307,1.069,1.369.287.052.821-.417,1.1-.78a.344.344,0,0,1,.311-.144.365.365,0,0,1,.3.174c.3.484.8.977,1.013.9a3.673,3.673,0,0,0,1.132-1.519.37.37,0,0,1,.473-.184c.013.007,1.31.513,1.67-.108a70.668,70.668,0,0,0,2.88-11.145c.519-3.321-.259-10.189-.268-10.258a.361.361,0,0,1,.033-.194c.113-.237,11.309-23.746,12.617-27.357,1.29-3.561.913-12.355.909-12.444a.328.328,0,0,1,.008-.088l3.167-15.21a.366.366,0,0,1,.432-.28.36.36,0,0,1,.285.426l-3.158,15.165c.032.767.35,9.076-.954,12.674-1.292,3.565-11.721,25.483-12.6,27.329.1.9.756,7.116.252,10.347-.539,3.453-2.408,10.427-2.969,11.393-.47.812-1.526.749-2.259.531a3.559,3.559,0,0,1-1.379,1.591.883.883,0,0,1-.324.063" fill="#025157"/>
        <path id="Trazado_774940" data-name="Trazado 774940" d="M44.169,95.387a11.3,11.3,0,0,1-5.042-1.138c-6.53-3.219-5.563-9.885-4.844-12.6.77-2.911-.4-11.7-.408-11.787a.362.362,0,0,1,.315-.4.367.367,0,0,1,.411.31c.049.367,1.2,9.017.39,12.064-.674,2.547-1.588,8.792,4.463,11.774,5.862,2.89,12.472-1.122,12.538-1.162a.359.359,0,0,1,.194-.056h7.086a.374.374,0,0,1,.165.039,19.218,19.218,0,0,0,9.607,1.523c4.239-.454,8.777-3.285,9.248-7.816.448-4.295-.607-5.482-.618-5.493a.375.375,0,0,1-.1-.267c.015-.306.372-7.516,1.224-9.556a.369.369,0,0,1,.478-.2.359.359,0,0,1,.2.471c-.743,1.779-1.109,8.16-1.163,9.178.323.439,1.123,1.964.71,5.936-.512,4.913-5.366,7.975-9.9,8.46a19.7,19.7,0,0,1-9.936-1.557h-6.9a17.23,17.23,0,0,1-8.12,2.28" fill="#025157"/>
        <path id="Trazado_774941" data-name="Trazado 774941" d="M34.637,88.914a.367.367,0,0,1-.213-.068.357.357,0,0,1-.084-.5,26.289,26.289,0,0,0,4.321-11.1c.651-6.031-2.883-22.133-2.919-22.3a.366.366,0,0,1,.716-.153c.146.666,3.594,16.377,2.931,22.524a26.524,26.524,0,0,1-4.454,11.443.369.369,0,0,1-.3.15" fill="#025157"/>
        <path id="Trazado_774942" data-name="Trazado 774942" d="M55.776,88.39a.362.362,0,0,1-.108-.016c-.359-.109-8.825-2.724-11-7.537-2.118-4.7-6.538-24.874-6.726-25.73a.366.366,0,0,1,.716-.152c.046.209,4.592,20.959,6.68,25.589,1.9,4.211,9.352,6.756,10.415,7.1.987-.421,7.575-3.3,9.841-6,1.945-2.32,4.508-18.553,5.592-26.812a.369.369,0,0,1,.41-.312.363.363,0,0,1,.316.4c-.129.984-3.19,24.121-5.754,27.18s-9.931,6.132-10.244,6.262a.367.367,0,0,1-.142.028" fill="#025157"/>
        <path id="Trazado_774943" data-name="Trazado 774943" d="M6.984,163.48a.388.388,0,0,1-.067-.006.36.36,0,0,1-.293-.42l1.861-9.96a.369.369,0,0,1,.427-.29.362.362,0,0,1,.293.421l-1.861,9.96a.366.366,0,0,1-.36.295" fill="#025157"/>
        <path id="Trazado_774944" data-name="Trazado 774944" d="M9.776,164.136a.311.311,0,0,1-.043,0,.362.362,0,0,1-.321-.4l1.2-9.96a.366.366,0,0,1,.727.085l-1.2,9.959a.364.364,0,0,1-.363.319" fill="#025157"/>
        <path id="Trazado_774945" data-name="Trazado 774945" d="M12.568,163.48h-.034a.363.363,0,0,1-.331-.393l.874-9.3a.368.368,0,0,1,.4-.326.363.363,0,0,1,.331.392l-.875,9.3a.364.364,0,0,1-.364.328" fill="#025157"/>
        <path id="Trazado_774946" data-name="Trazado 774946" d="M12.647,154.18a8.151,8.151,0,0,1-5.39-2.075.356.356,0,0,1,0-.509.372.372,0,0,1,.517,0,7.394,7.394,0,0,0,7.156,1.51.366.366,0,0,1,.459.235.358.358,0,0,1-.239.452,8.381,8.381,0,0,1-2.5.39" fill="#025157"/>
        <path id="Trazado_774947" data-name="Trazado 774947" d="M100.068,165.221a.883.883,0,0,1-.324-.063,3.565,3.565,0,0,1-1.379-1.591c-.734.218-1.789.281-2.259-.531-.561-.967-2.43-7.94-2.969-11.393-.5-3.231.152-9.441.252-10.347-.878-1.846-11.307-23.764-12.6-27.329-1.305-3.6-.985-11.927-.954-12.676L77.5,89.168a.36.36,0,0,1,.291-.422.367.367,0,0,1,.428.287L80.564,101.2a.387.387,0,0,1,.006.083c0,.089-.381,8.883.909,12.444,1.309,3.611,12.5,27.12,12.617,27.357a.351.351,0,0,1,.032.194c-.008.069-.786,6.937-.267,10.258a70.7,70.7,0,0,0,2.88,11.145c.361.621,1.657.115,1.67.108a.371.371,0,0,1,.473.184,3.673,3.673,0,0,0,1.132,1.519c.214.076.717-.416,1.013-.9a.368.368,0,0,1,.295-.174.378.378,0,0,1,.311.143c.278.364.812.834,1.1.781.313-.062.821-.835,1.068-1.369a.368.368,0,0,1,.428-.2c.012,0,1.121.279,1.281-.275.168-.679-.813-8.065-1.472-12.561a.359.359,0,0,1,.22-.384.371.371,0,0,1,.433.114l4.47,5.792a1.87,1.87,0,0,0,1.147-.609.684.684,0,0,0,0-.637c-.322-.8-1.391-2.675-2.522-4.661-.916-1.61-1.955-3.433-2.781-5-1.779-3.383-5.759-5.059-5.8-5.076a.361.361,0,0,1-.221-.282c-.032-.224-3.2-22.467-4.516-28.544a33.976,33.976,0,0,0-5.123-11.265.355.355,0,0,1-.07-.213c0-.348.117-34.9-2.744-39.9C83.74,54.392,72.96,55.378,72.85,55.389a.314.314,0,0,1-.075,0C67.941,54.878,63,51.042,62.456,48.9c-.509-2.006-.572-8.583-.575-8.862a.364.364,0,0,1,.363-.364h0a.363.363,0,0,1,.366.358c0,.068.065,6.769.553,8.694.427,1.681,4.893,5.419,9.651,5.939.841-.079,11.387-.935,14.353,4.245,2.9,5.063,2.849,37.562,2.84,40.141a34.666,34.666,0,0,1,5.176,11.44c1.251,5.793,4.177,26.16,4.5,28.4a13.305,13.305,0,0,1,5.973,5.324c.821,1.56,1.856,3.378,2.77,4.982,1.193,2.1,2.223,3.9,2.563,4.748a1.368,1.368,0,0,1-.051,1.273,2.781,2.781,0,0,1-1.889.991.36.36,0,0,1-.335-.14l-3.752-4.862c.484,3.391,1.486,10.687,1.253,11.489-.249.859-1.191.945-1.877.836-.256.486-.81,1.387-1.461,1.515a1.825,1.825,0,0,1-1.5-.682,1.919,1.919,0,0,1-1.308.857" fill="#025157"/>
        <path id="Trazado_774948" data-name="Trazado 774948" d="M104.135,163.48a.365.365,0,0,1-.36-.295l-1.861-9.96a.362.362,0,0,1,.293-.421.369.369,0,0,1,.427.29l1.861,9.96a.36.36,0,0,1-.293.42.388.388,0,0,1-.067.006" fill="#025157"/>
        <path id="Trazado_774949" data-name="Trazado 774949" d="M101.343,164.136a.364.364,0,0,1-.363-.319l-1.2-9.959a.366.366,0,0,1,.727-.085l1.2,9.96a.362.362,0,0,1-.321.4.311.311,0,0,1-.043,0" fill="#025157"/>
        <path id="Trazado_774950" data-name="Trazado 774950" d="M98.551,163.48a.364.364,0,0,1-.364-.328l-.875-9.3a.367.367,0,0,1,.73-.066l.874,9.3a.363.363,0,0,1-.331.393h-.034" fill="#025157"/>
        <path id="Trazado_774951" data-name="Trazado 774951" d="M98.472,154.18a8.386,8.386,0,0,1-2.5-.39.358.358,0,0,1-.239-.452.369.369,0,0,1,.459-.235,7.5,7.5,0,0,0,7.155-1.509.369.369,0,0,1,.518,0,.358.358,0,0,1,0,.51,8.147,8.147,0,0,1-5.389,2.075" fill="#025157"/>
        <path id="Trazado_774952" data-name="Trazado 774952" d="M48.213,297.32a8.782,8.782,0,0,1-2.377-.329c-1.154.726-2.984.015-3.5-.212a5.408,5.408,0,0,1-3.394-.01,17.62,17.62,0,0,1-4.637-.28.363.363,0,0,1-.294-.4c.023-.155.569-3.808,2.231-5.447,1.486-1.464,4.672-9.352,5.212-17.329.281-4.157-1.706-13.633-3.627-22.8-1.691-8.065-3.288-15.682-3.288-19.376,0-7.452,3.352-15.929,3.718-16.833-.04-.614-.306-4.632-.791-10.132-.208-2.351-1.427-8.241-2.84-15.061-2.237-10.805-5.022-24.251-5.669-32.382-.783-9.834.707-14.415,1.9-18.1a26.111,26.111,0,0,0,1.025-3.746c.08-.474.154-.936.228-1.391.665-4.12,1.24-7.68,5.09-15.7-1.96-12-1.341-25.975-1.335-26.115a.366.366,0,0,1,.732.033c-.007.14-.626,14.131,1.344,26.078a.361.361,0,0,1-.031.212c-3.849,8-4.418,11.52-5.077,15.6-.074.457-.149.92-.229,1.4a27.179,27.179,0,0,1-1.049,3.848c-1.178,3.62-2.644,8.126-1.873,17.819.644,8.087,3.424,21.509,5.657,32.293,1.476,7.124,2.641,12.752,2.852,15.144.526,5.963.8,10.188.8,10.23a.363.363,0,0,1-.027.16c-.037.088-3.695,8.938-3.695,16.637,0,3.62,1.589,11.2,3.272,19.23,1.931,9.212,3.928,18.737,3.64,22.992-.515,7.609-3.645,16.038-5.424,17.791-1.215,1.2-1.791,3.764-1.965,4.694a15.106,15.106,0,0,0,4.135.2.379.379,0,0,1,.237.034,4.772,4.772,0,0,0,3.075-.021.375.375,0,0,1,.281.018c.577.28,2.243.867,3.017.244a.37.37,0,0,1,.342-.064c2.186.685,4.82.309,5.32-.759.39-.831-.108-3.47-.547-5.8-.194-1.029-.377-2-.5-2.856a9.969,9.969,0,0,1,.29-4.116,8.685,8.685,0,0,0,.322-2.106c0-1.89-1.768-4.53-1.786-4.556a.355.355,0,0,1-.06-.238c.026-.241,2.569-24.188,2.873-34.377.3-10.162-2.327-22.76-2.354-22.886a.362.362,0,0,1,0-.143c.008-.04.8-4.089.415-5.611-.187-.739.064-2.775.563-6.612.57-4.391,1.352-10.4,1.582-16.661.406-11.009,2.241-36.889,2.26-37.149a.363.363,0,0,1,.365-.336h1.642a.361.361,0,1,1,0,.722h-1.3c-.217,3.082-1.854,26.475-2.234,36.789-.232,6.289-1.016,12.322-1.588,16.727a35.945,35.945,0,0,0-.579,6.345c.4,1.577-.281,5.274-.392,5.853.214,1.041,2.648,13.137,2.354,22.983-.293,9.83-2.662,32.4-2.863,34.3.354.548,1.836,2.949,1.836,4.846a9.289,9.289,0,0,1-.341,2.272,9.227,9.227,0,0,0-.278,3.851c.117.839.3,1.8.491,2.824.5,2.671.979,5.194.492,6.234s-2.006,1.526-3.652,1.526" fill="#025157"/>
        <path id="Trazado_774953" data-name="Trazado 774953" d="M45.678,217.477a9.519,9.519,0,0,1-2.854-.384c-2-.658-2.026-3.434-2.026-3.552a.366.366,0,0,1,.732,0c0,.024.024,2.375,1.526,2.868a10.973,10.973,0,0,0,3.982.276.361.361,0,1,1,.091.716,12.637,12.637,0,0,1-1.451.077" fill="#025157"/>
        <path id="Trazado_774954" data-name="Trazado 774954" d="M48.86,283.194a.367.367,0,0,1-.318-.182,5.1,5.1,0,0,1-.491-2.7.355.355,0,0,1,.4-.322.361.361,0,0,1,.328.394,4.439,4.439,0,0,0,.4,2.265.358.358,0,0,1-.136.493.382.382,0,0,1-.181.047" fill="#025157"/>
        <path id="Trazado_774955" data-name="Trazado 774955" d="M45.769,296.954a.363.363,0,0,1-.365-.343,13.092,13.092,0,0,1,.2-3.295.367.367,0,0,1,.463-.228.361.361,0,0,1,.231.457,12.228,12.228,0,0,0-.166,3.031.362.362,0,0,1-.348.377h-.018" fill="#025157"/>
        <path id="Trazado_774956" data-name="Trazado 774956" d="M42.359,296.754h-.018a.363.363,0,0,1-.348-.377l.1-1.909a.354.354,0,0,1,.384-.342.363.363,0,0,1,.348.377l-.1,1.909a.363.363,0,0,1-.365.343" fill="#025157"/>
        <path id="Trazado_774957" data-name="Trazado 774957" d="M38.937,296.634h-.006a.364.364,0,0,1-.36-.367l.025-1.507a.364.364,0,0,1,.366-.354h.006a.363.363,0,0,1,.36.367L39.3,296.28a.364.364,0,0,1-.366.354" fill="#025157"/>
        <path id="Trazado_774958" data-name="Trazado 774958" d="M36.724,296.615h-.032a.363.363,0,0,1-.333-.391l.112-1.269a.372.372,0,0,1,.4-.328.361.361,0,0,1,.332.39l-.112,1.269a.364.364,0,0,1-.364.33" fill="#025157"/>
        <path id="Trazado_774959" data-name="Trazado 774959" d="M63.882,297.32c-1.646,0-3.164-.483-3.652-1.526s-.012-3.563.492-6.235c.192-1.02.374-1.984.491-2.823a9.227,9.227,0,0,0-.278-3.851,9.289,9.289,0,0,1-.341-2.272c0-1.9,1.481-4.3,1.836-4.846-.2-1.908-2.569-24.474-2.863-34.3-.293-9.846,2.14-21.942,2.354-22.983-.111-.579-.793-4.276-.393-5.853a35.8,35.8,0,0,0-.578-6.345c-.572-4.4-1.356-10.438-1.588-16.727-.38-10.314-2.017-33.707-2.234-36.789h-1.3a.361.361,0,1,1,0-.722h1.642a.363.363,0,0,1,.365.336c.019.26,1.853,26.14,2.26,37.149.231,6.257,1.012,12.271,1.582,16.662.5,3.836.75,5.872.562,6.611-.385,1.522.408,5.571.415,5.611a.362.362,0,0,1,0,.143c-.027.126-2.657,12.726-2.354,22.886.3,10.189,2.847,34.136,2.872,34.377a.359.359,0,0,1-.059.238c-.018.026-1.786,2.666-1.786,4.556a8.669,8.669,0,0,0,.322,2.1,9.958,9.958,0,0,1,.29,4.117c-.119.855-.3,1.827-.5,2.856-.439,2.329-.937,4.969-.547,5.8.5,1.068,3.134,1.444,5.32.759a.367.367,0,0,1,.342.064c.775.624,2.44.036,3.016-.244a.366.366,0,0,1,.281-.018,4.8,4.8,0,0,0,3.076.021.379.379,0,0,1,.237-.034,15.1,15.1,0,0,0,4.134-.2c-.175-.93-.75-3.5-1.964-4.694-1.779-1.753-4.91-10.182-5.425-17.791-.287-4.255,1.71-13.78,3.641-22.991,1.682-8.027,3.272-15.611,3.272-19.231,0-7.7-3.658-16.549-3.695-16.637a.349.349,0,0,1-.026-.16c0-.041.272-4.267.8-10.23.211-2.392,1.376-8.017,2.851-15.139,2.234-10.787,5.014-24.211,5.657-32.3.771-9.693-.694-14.2-1.872-17.819A27.179,27.179,0,0,1,79.489,135c-.078-.46-.153-.925-.23-1.4a49.02,49.02,0,0,0-4.95-16.048.359.359,0,0,1-.033-.23A88.24,88.24,0,0,0,75.5,91.746a.366.366,0,0,1,.726-.1,89.031,89.031,0,0,1-1.206,25.693,49.658,49.658,0,0,1,4.963,16.148q.114.705.229,1.393a26.111,26.111,0,0,0,1.025,3.746c1.2,3.681,2.687,8.261,1.9,18.1-.647,8.132-3.432,21.581-5.67,32.387-1.412,6.818-2.632,12.706-2.839,15.056-.485,5.5-.752,9.518-.791,10.132.366.9,3.717,9.381,3.717,16.833,0,3.694-1.6,11.312-3.287,19.378-1.921,9.164-3.908,18.639-3.627,22.8.54,7.977,3.726,15.865,5.212,17.329,1.662,1.639,2.208,5.292,2.231,5.447a.363.363,0,0,1-.294.4,17.67,17.67,0,0,1-4.638.28,5.405,5.405,0,0,1-3.393.01c-.518.227-2.347.938-3.5.212a8.782,8.782,0,0,1-2.377.329" fill="#025157"/>
        <path id="Trazado_774960" data-name="Trazado 774960" d="M66.417,217.477a12.617,12.617,0,0,1-1.451-.077.361.361,0,1,1,.09-.716,11.052,11.052,0,0,0,3.983-.276c1.5-.493,1.526-2.844,1.526-2.868a.366.366,0,0,1,.732,0c0,.118-.023,2.894-2.026,3.552a9.515,9.515,0,0,1-2.854.384" fill="#025157"/>
        <path id="Trazado_774961" data-name="Trazado 774961" d="M63.235,283.194a.382.382,0,0,1-.181-.047.358.358,0,0,1-.136-.493,4.439,4.439,0,0,0,.4-2.265.361.361,0,0,1,.328-.394.356.356,0,0,1,.4.322,5.1,5.1,0,0,1-.491,2.7.367.367,0,0,1-.318.182" fill="#025157"/>
        <path id="Trazado_774962" data-name="Trazado 774962" d="M66.326,296.954h-.018a.362.362,0,0,1-.348-.377,12.228,12.228,0,0,0-.166-3.031.361.361,0,0,1,.231-.457.366.366,0,0,1,.463.228,13.092,13.092,0,0,1,.2,3.295.363.363,0,0,1-.365.343" fill="#025157"/>
        <path id="Trazado_774963" data-name="Trazado 774963" d="M69.735,296.754a.363.363,0,0,1-.365-.343l-.1-1.909a.361.361,0,0,1,.347-.377.352.352,0,0,1,.384.342l.1,1.909a.362.362,0,0,1-.348.377h-.018" fill="#025157"/>
        <path id="Trazado_774964" data-name="Trazado 774964" d="M73.158,296.634a.364.364,0,0,1-.366-.354l-.026-1.507a.363.363,0,0,1,.36-.367.351.351,0,0,1,.372.354l.026,1.507a.364.364,0,0,1-.36.367Z" fill="#025157"/>
        <path id="Trazado_774965" data-name="Trazado 774965" d="M75.37,296.615a.364.364,0,0,1-.364-.33l-.112-1.269a.361.361,0,0,1,.332-.39.37.37,0,0,1,.4.328l.112,1.269a.363.363,0,0,1-.333.391H75.37" fill="#025157"/>
        <path id="Trazado_774966" data-name="Trazado 774966" d="M54.625,152.766a.368.368,0,0,1-.326-.2,49.113,49.113,0,0,0-6.088-8.659c-3.49-3.952-9.035-8.727-15.638-9.026a.363.363,0,0,1-.349-.377.37.37,0,0,1,.382-.344c5.436.246,11.026,3.457,16.168,9.285a49.777,49.777,0,0,1,6.176,8.791.36.36,0,0,1-.158.487.385.385,0,0,1-.167.039" fill="#025157"/>
        <path id="Trazado_774967" data-name="Trazado 774967" d="M54.074,134.512a122.483,122.483,0,0,1-21.437-1.756.361.361,0,1,1,.145-.708,125.709,125.709,0,0,0,26.357,1.645c14.981-.582,20.006-1.4,20.055-1.411a.368.368,0,0,1,.422.295.361.361,0,0,1-.3.416c-.049.009-5.1.837-20.149,1.421-1.752.068-3.454.1-5.094.1" fill="#025157"/>
        <path id="Trazado_774968" data-name="Trazado 774968" d="M57.47,152.766a.373.373,0,0,1-.081-.009.36.36,0,0,1-.276-.431c.037-.165,3.987-16.505,22.232-17.925a.361.361,0,1,1,.058.72c-17.714,1.378-21.54,17.2-21.576,17.364a.365.365,0,0,1-.357.281" fill="#025157"/>
        <path id="Trazado_774969" data-name="Trazado 774969" d="M54.122,132.237a116.645,116.645,0,0,1-20.55-1.744c-.283-.051-.458-.084-.52-.09a.369.369,0,0,1-.341-.375.358.358,0,0,1,.358-.346,5.168,5.168,0,0,1,.636.1,119.515,119.515,0,0,0,24.479,1.668c14.74-.465,20.7-1.633,20.759-1.644a.366.366,0,0,1,.432.281.362.362,0,0,1-.286.426c-.059.012-6.065,1.191-20.881,1.658-1.236.039-2.606.064-4.086.064" fill="#025157"/>
        <path id="Trazado_774970" data-name="Trazado 774970" d="M55.278,120.836a3.524,3.524,0,0,1-1.964-.527.357.357,0,0,1-.081-.5.37.37,0,0,1,.51-.081,3.427,3.427,0,0,0,3.124.075.368.368,0,0,1,.474.206.359.359,0,0,1-.209.467,5.171,5.171,0,0,1-1.854.364" fill="#025157"/>
        <path id="Trazado_774971" data-name="Trazado 774971" d="M78.058,87.944a.369.369,0,0,1-.145-.03c-.119-.051-2.928-1.317-4.989-7.651-2.037-6.259.59-24.424.7-25.195a.365.365,0,0,1,.414-.305.361.361,0,0,1,.31.408c-.027.187-2.715,18.771-.73,24.871,1.944,5.975,4.56,7.2,4.586,7.211a.36.36,0,0,1,.185.476.365.365,0,0,1-.334.215" fill="#025157"/>
        <path id="Trazado_774972" data-name="Trazado 774972" d="M52.213,59.755a.368.368,0,0,1-.323-.19c-.005-.009-.8-1.329-3.852-1.226a49.13,49.13,0,0,1-7-.356.362.362,0,0,1-.314-.406.367.367,0,0,1,.411-.31,49.193,49.193,0,0,0,6.879.351c3.536-.126,4.484,1.534,4.523,1.6a.359.359,0,0,1-.149.489.369.369,0,0,1-.173.043" fill="#025157"/>
        <path id="Trazado_774973" data-name="Trazado 774973" d="M58.554,59.753a.362.362,0,0,1-.322-.53c.039-.07.984-1.729,4.524-1.6a48.375,48.375,0,0,0,6.878-.351.367.367,0,0,1,.411.31.361.361,0,0,1-.314.405,49.329,49.329,0,0,1-7,.357c-3.034-.093-3.847,1.217-3.855,1.23a.373.373,0,0,1-.321.183" fill="#025157"/>
        <path id="Trazado_774974" data-name="Trazado 774974" d="M55.525,61.753a2.489,2.489,0,0,1-1.675-.826.356.356,0,0,1,.039-.508.371.371,0,0,1,.516.037,1.764,1.764,0,0,0,1.159.575,1.406,1.406,0,0,0,1.021-.671.369.369,0,0,1,.511-.077.359.359,0,0,1,.079.5,2.088,2.088,0,0,1-1.587.964h-.063" fill="#025157"/>
        <path id="Trazado_774975" data-name="Trazado 774975" d="M54.248,58.222a.368.368,0,0,1-.3-.156c-1.342-1.924-3.9-13.439-4-13.928a.36.36,0,0,1,.28-.429.367.367,0,0,1,.436.276c.9,4.1,2.884,12.225,3.892,13.672a.357.357,0,0,1-.094.5.365.365,0,0,1-.207.063" fill="#025157"/>
        <path id="Trazado_774976" data-name="Trazado 774976" d="M57.478,57.161a.371.371,0,0,1-.093-.012.359.359,0,0,1-.261-.44c.025-.1,2.516-9.459,3.1-12.479a.369.369,0,0,1,.429-.286.361.361,0,0,1,.29.422c-.593,3.044-3.091,12.431-3.116,12.526a.366.366,0,0,1-.354.269" fill="#025157"/>
        <path id="Trazado_774977" data-name="Trazado 774977" d="M85.774,101.286a2.026,2.026,0,0,1-1.253-.4.357.357,0,0,1-.04-.509.37.37,0,0,1,.514-.041,1.679,1.679,0,0,0,1.961-.159.37.37,0,0,1,.5.11.358.358,0,0,1-.112.5,2.955,2.955,0,0,1-1.575.5" fill="#025157"/>
        <path id="Trazado_774978" data-name="Trazado 774978" d="M27.04,100.84a6.367,6.367,0,0,1-2.554-.833.36.36,0,0,1-.14-.492.37.37,0,0,1,.5-.137c.779.431,2.126.943,2.542.67a.368.368,0,0,1,.508.1.357.357,0,0,1-.1.5,1.361,1.361,0,0,1-.754.192" fill="#025157"/>
        <path id="Trazado_774979" data-name="Trazado 774979" d="M40.627,106.522a.362.362,0,0,1-.168-.041A.358.358,0,0,1,40.3,106c.165-.312,4.115-7.666,11.13-9.405a.368.368,0,0,1,.444.262.359.359,0,0,1-.265.438c-6.7,1.66-10.62,8.964-10.659,9.038a.367.367,0,0,1-.325.194" fill="#025157"/>
        <path id="Trazado_774980" data-name="Trazado 774980" d="M73.051,106.372a.367.367,0,0,1-.317-.179c-3.7-6.274-10.876-9.574-10.948-9.607a.358.358,0,0,1-.18-.478.369.369,0,0,1,.485-.178c.3.137,7.456,3.424,11.276,9.9a.357.357,0,0,1-.132.493.37.37,0,0,1-.184.049" fill="#025157"/>
        <path id="Trazado_774981" data-name="Trazado 774981" d="M52.585,86.948a.366.366,0,0,1-.231-.081.357.357,0,0,1-.057-.5,8.254,8.254,0,0,0,.856-3.234.366.366,0,0,1,.726.1c-.382,2.76-.947,3.509-1.01,3.586a.364.364,0,0,1-.284.133" fill="#025157"/>
        <path id="Trazado_774982" data-name="Trazado 774982" d="M58.967,86.555a.367.367,0,0,1-.332-.207,9.491,9.491,0,0,1-.964-3.856.366.366,0,0,1,.73.065,8.977,8.977,0,0,0,.9,3.484.359.359,0,0,1-.175.48.379.379,0,0,1-.156.034" fill="#025157"/>
        <path id="Trazado_774983" data-name="Trazado 774983" d="M35.169,73.843a.369.369,0,0,1-.183-.049.357.357,0,0,1-.133-.493l1.462-2.49a.368.368,0,0,1,.5-.131.357.357,0,0,1,.133.493l-1.462,2.49a.366.366,0,0,1-.317.18" fill="#025157"/>
        <path id="Trazado_774984" data-name="Trazado 774984" d="M78.378,74.5a.369.369,0,0,1-.3-.147L76.62,72.385a.359.359,0,0,1,.079-.505.371.371,0,0,1,.512.078l1.462,1.966a.358.358,0,0,1-.079.5.368.368,0,0,1-.216.07" fill="#025157"/>
        <path id="Trazado_774985" data-name="Trazado 774985" d="M43.264,47.185a.367.367,0,0,1-.183-.049.356.356,0,0,1-.135-.486c.043-.075,1.1-1.835,5.784-1.835a.361.361,0,1,1,0,.721c-4.188,0-5.14,1.459-5.15,1.474a.371.371,0,0,1-.316.175" fill="#025157"/>
        <path id="Trazado_774986" data-name="Trazado 774986" d="M68.1,47.188a.37.37,0,0,1-.289-.138,6.8,6.8,0,0,0-5.118-2.169.361.361,0,1,1,0-.722,7.416,7.416,0,0,1,5.7,2.447.357.357,0,0,1-.065.506.365.365,0,0,1-.224.076" fill="#025157"/>
        <path id="Trazado_774987" data-name="Trazado 774987" d="M38.891,22.6a.364.364,0,0,1-.33-.517c2.835-5.821,9.271-7.517,13.117-8.53.6-.157,1.136-.3,1.6-.439,3.176-.963,3.595-5.278,3.6-5.321a.366.366,0,0,1,.729.062c-.017.2-.462,4.842-4.113,5.949-.468.142-1.017.287-1.623.446-3.724.982-9.957,2.623-12.646,8.145a.365.365,0,0,1-.33.2" fill="#025157"/>
        <path id="Trazado_774988" data-name="Trazado 774988" d="M66.545,18.541a.366.366,0,0,1-.259-.106c-4.042-3.984-4.477-11.957-4.494-12.294a.366.366,0,0,1,.731-.035c0,.08.44,8.033,4.281,11.819a.357.357,0,0,1,0,.51.366.366,0,0,1-.259.106" fill="#025157"/>
        <path id="Trazado_774989" data-name="Trazado 774989" d="M44.35,31.674a.364.364,0,0,1-.365-.335,59.08,59.08,0,0,1-.141-5.974.366.366,0,0,1,.731.045c-.13,2.049.138,5.84.14,5.878a.361.361,0,0,1-.339.385H44.35" fill="#025157"/>
        <path id="Trazado_774990" data-name="Trazado 774990" d="M66.6,30.738l-.037,0a.363.363,0,0,1-.329-.394,45.957,45.957,0,0,0,.207-5.72.366.366,0,0,1,.731-.041,46.113,46.113,0,0,1-.209,5.831.364.364,0,0,1-.363.326" fill="#025157"/>
        <path id="Trazado_774991" data-name="Trazado 774991" d="M56.443,37.619a.367.367,0,0,1-.144-.029,3.189,3.189,0,0,0-1.8-.064.365.365,0,0,1-.452-.249.359.359,0,0,1,.251-.445,3.9,3.9,0,0,1,2.292.095.357.357,0,0,1,.192.473.365.365,0,0,1-.336.219" fill="#025157"/>
      </g>
    </g>
    <g id="Grupo_1065110" data-name="Grupo 1065110" transform="translate(917.375 2708.192)">
      <g id="Grupo_1065109" data-name="Grupo 1065109" clip-path="url(#clip-path-14)">
        <path id="Rectángulo_362191" data-name="Rectángulo 362191" d="M-.75-.75h75v31h-75ZM72.75.75H.75v28h72Z" transform="translate(0.75 1.25)" fill="#f58da0"/>
        <path id="Rectángulo_362192" data-name="Rectángulo 362192" d="M-.75-.75h75v41h-75ZM72.75.75H.75v38h72Z" transform="translate(0.75 30.25)" fill="#f58da0"/>
        <path id="Rectángulo_362193" data-name="Rectángulo 362193" d="M-.75-.75h75v41h-75ZM72.75.75H.75v38h72Z" transform="translate(0.75 69.25)" fill="#f58da0"/>
        <path id="Rectángulo_362194" data-name="Rectángulo 362194" d="M-.75-.75h75v36h-75ZM72.75.75H.75v33h72Z" transform="translate(0.75 109.25)" fill="#f58da0"/>
        <path id="Rectángulo_362195" data-name="Rectángulo 362195" d="M-.75-.75h75v42h-75ZM72.75.75H.75v39h72Z" transform="translate(0.75 143.25)" fill="#f58da0"/>
        <path id="Rectángulo_362196" data-name="Rectángulo 362196" d="M-.75-.75h75v39h-75ZM72.75.75H.75v36h72Z" transform="translate(0.75 183.25)" fill="#f58da0"/>
        <path id="Rectángulo_362197" data-name="Rectángulo 362197" d="M-.75-.75h75v34h-75ZM72.75.75H.75v31h72Z" transform="translate(0.75 221.25)" fill="#f58da0"/>
        <path id="Línea_243" data-name="Línea 243" d="M.75,254H-.75V0H.75Z" transform="translate(37.5)" fill="#f58da0"/>
      </g>
    </g>
    <g id="Grupo_1065112" data-name="Grupo 1065112" transform="translate(914.883 2699.192)">
      <g id="Grupo_1065111" data-name="Grupo 1065111" clip-path="url(#clip-path-15)">
        <path id="Trazado_774992" data-name="Trazado 774992" d="M40.254,36.943c-1.328,0-4.962-1.932-6.86-3.491-1.836-1.507-3.342-5.325-3.759-6.455l-1.2.453a.323.323,0,0,1-.427-.227c-.157-.649-1.519-6.37-1.124-7.559a1.3,1.3,0,0,1,.693-.81,1.578,1.578,0,0,1,.784-.115,16.809,16.809,0,0,1-.465-4.428.321.321,0,0,1,.1-.227.313.313,0,0,1,.231-.089l6.137.182.889-4.462a.321.321,0,0,1,.321-.261.324.324,0,0,1,.314.269l.71,4.1c1.753.072,11.923.431,15.459-.752a.321.321,0,0,1,.284.039.327.327,0,0,1,.141.251,20.149,20.149,0,0,1-.342,5.188c.673-.161,1.549-.239,1.748.363.186.56-.281,6.467-1.07,7a1.338,1.338,0,0,1-1.322.015c-.411,1.144-1.739,4.592-3.359,6.218a27.378,27.378,0,0,1-7.688,4.79.949.949,0,0,1-.194.018M29.828,26.254a.312.312,0,0,1,.137.031.322.322,0,0,1,.168.187c.017.049,1.691,4.853,3.67,6.478,2.109,1.732,5.749,3.49,6.518,3.339a27.106,27.106,0,0,0,7.358-4.613c1.81-1.817,3.318-6.291,3.333-6.336a.324.324,0,0,1,.5-.157s.586.421.947.179c.393-.449.994-5.6.814-6.253a3,3,0,0,0-1.475.208.321.321,0,0,1-.326-.074.327.327,0,0,1-.087-.325,17.938,17.938,0,0,0,.47-5.114c-4.293,1.172-15.076.673-15.548.651a.325.325,0,0,1-.3-.269l-.457-2.643-.6,3.03a.322.322,0,0,1-.326.26l-6.08-.18a12.561,12.561,0,0,0,.637,4.4.324.324,0,0,1-.415.444,1.337,1.337,0,0,0-.922-.051.653.653,0,0,0-.342.423c-.241.725.488,4.437,1.054,6.845l1.165-.439a.32.32,0,0,1,.114-.021" fill="#025157"/>
        <path id="Trazado_774993" data-name="Trazado 774993" d="M29.724,81.873a8.75,8.75,0,0,1-2.631-.378c-6.023-1.9-7.513-7.721-7.874-10.136-.48-3.214,2.568-8.308,2.7-8.523a.32.32,0,0,1,.329-.152l18.047,2.967,18.2-4.529a.322.322,0,0,1,.353.145c.124.2,3.018,5.01,2.545,10.074-.337,3.6-1.928,6.938-4.153,8.706a6.885,6.885,0,0,1-5.426,1.459,54.154,54.154,0,0,1-11.477-3.248c-.936.59-5.955,3.615-10.615,3.615M22.36,63.36c-.543.947-2.9,5.248-2.5,7.9.425,2.849,1.957,7.887,7.428,9.613,5.255,1.658,12.767-3.2,12.842-3.254a.319.319,0,0,1,.3-.027A53.953,53.953,0,0,0,51.9,80.864a6.266,6.266,0,0,0,4.936-1.326c2.092-1.662,3.59-4.826,3.91-8.258.4-4.277-1.795-8.5-2.334-9.47L40.384,66.3a.335.335,0,0,1-.13.005Z" fill="#025157"/>
        <path id="Trazado_774994" data-name="Trazado 774994" d="M40.306,66.306a.323.323,0,0,1-.316-.258,6.7,6.7,0,0,0-5.358-5.075.324.324,0,0,1,.106-.64,7.226,7.226,0,0,1,5.543,4.552,7.406,7.406,0,0,1,5.092-4.7.324.324,0,0,1,.171.625,6.823,6.823,0,0,0-4.918,5.22.324.324,0,0,1-.311.277Z" fill="#025157"/>
        <path id="Trazado_774995" data-name="Trazado 774995" d="M9.234,153.92H7.36a.322.322,0,0,1-.258-.13c-.038-.049-3.744-5.006-4.655-5.921a5.051,5.051,0,0,1-1.028-3.075,5.521,5.521,0,0,1-1.407-2.92c-.154-1.554,1.268-9.353,1.4-10.08a32.5,32.5,0,0,1,.006-5.829c.036-.25.088-.653.157-1.184.509-3.942,2.06-15.939,4.694-24.569a74.863,74.863,0,0,1,6.082-14.894c.026-.414.15-2.422.15-3.662V59.4c-.036-.241-.928-6.984.651-10.631,1.61-3.717,6.213-5.25,7.376-5.049.523.088,3.689-.233,6-.466,1.7-.172,3.173-.321,3.625-.321.53,0,2.027-2.211,3.112-4.3l.006-5.429a.324.324,0,1,1,.647,0l-.007,5.509a.321.321,0,0,1-.036.149c-.57,1.107-2.525,4.72-3.722,4.72-.419,0-1.945.155-3.561.318a51.949,51.949,0,0,1-6.173.462,8.743,8.743,0,0,0-6.677,4.668c-1.508,3.481-.61,10.26-.6,10.328l0,22.3c0,1.4-.155,3.759-.157,3.782a.321.321,0,0,1-.046.147A72.8,72.8,0,0,0,6.888,100.4c-2.618,8.577-4.164,20.534-4.672,24.463-.069.533-.121.94-.157,1.192a32.905,32.905,0,0,0,0,5.726.365.365,0,0,1,0,.087c-.538,2.911-1.522,8.735-1.4,9.939a5.041,5.041,0,0,0,1.313,2.625.326.326,0,0,1,.094.229A4.723,4.723,0,0,0,2.9,147.41c.869.873,4.01,5.051,4.617,5.861H8.889l-.134-2a.324.324,0,0,1,.2-.322,1.026,1.026,0,0,0,.577-.952c0-.554-1.029-1.2-1.528-1.429a.328.328,0,0,1-.153-.146l-1.873-3.6a.329.329,0,0,1-.033-.2l.781-4.858a.323.323,0,0,1,.608-.094l.937,1.881a.331.331,0,0,1,.034.144,14.649,14.649,0,0,0,.442,3.79c.257.6.761,1.1,1.078,1.067.272-.019.43-.454.5-.711a20.031,20.031,0,0,0,.287-4.053,22.945,22.945,0,0,1,.175-3.285,19.932,19.932,0,0,0,0-5.235c-.12-1.088-2.139-4.105-2.907-5.176a.322.322,0,0,1-.046-.287c.04-.129,4.092-13.086,6.416-18.218.654-1.446,1.443-3.062,2.277-4.771,2.059-4.22,4.392-9,4.723-11.438.459-3.383.156-16.276.153-16.4a.323.323,0,0,1,.315-.332.307.307,0,0,1,.331.315c.013.532.308,13.075-.158,16.509-.346,2.539-2.6,7.163-4.783,11.635-.833,1.707-1.619,3.319-2.27,4.755-2.171,4.793-5.874,16.51-6.34,17.991.55.776,2.782,4,2.932,5.351a20.533,20.533,0,0,1,0,5.421,22.986,22.986,0,0,0-.164,3.179,20.191,20.191,0,0,1-.31,4.215c-.255.937-.727,1.162-1.078,1.187-.691.033-1.391-.7-1.717-1.458a14.223,14.223,0,0,1-.494-3.968l-.455-.914-.6,3.761,1.774,3.412c.422.208,1.8.966,1.8,1.971a1.655,1.655,0,0,1-.767,1.437l.142,2.146a.325.325,0,0,1-.086.242.322.322,0,0,1-.236.1" fill="#025157"/>
        <path id="Trazado_774996" data-name="Trazado 774996" d="M9.077,151.569a.321.321,0,0,1-.228-.1l-1.406-1.411a.33.33,0,0,1-.078-.126l-1.249-3.762a.323.323,0,1,1,.613-.205l1.225,3.689,1.351,1.356a.325.325,0,0,1-.228.554" fill="#025157"/>
        <path id="Trazado_774997" data-name="Trazado 774997" d="M7.047,140.128a.324.324,0,0,1-.212-.08,3.666,3.666,0,0,1-1.043-3.275.32.32,0,0,1,.372-.267.325.325,0,0,1,.266.373,3.014,3.014,0,0,0,.831,2.681.326.326,0,0,1,.028.458.319.319,0,0,1-.242.11" fill="#025157"/>
        <path id="Trazado_774998" data-name="Trazado 774998" d="M7.2,129.47a.323.323,0,0,1-.268-.5c.435-.655.011-2.158-.189-2.682a.323.323,0,1,1,.6-.233c.086.225.82,2.225.123,3.275a.324.324,0,0,1-.269.144" fill="#025157"/>
        <path id="Trazado_774999" data-name="Trazado 774999" d="M15.886,92.644c-.9,0-1.768-1.878-2.111-2.714a.324.324,0,1,1,.6-.248c.549,1.34,1.284,2.359,1.511,2.314a13.061,13.061,0,0,0,2.407-1.064.324.324,0,0,1,.309.569,13.911,13.911,0,0,1-2.589,1.131.662.662,0,0,1-.125.012" fill="#025157"/>
        <path id="Trazado_775000" data-name="Trazado 775000" d="M22.193,63.328a.314.314,0,0,1-.13-.028.325.325,0,0,1-.166-.427c.045-.1,4.468-10.36,2.789-19.244a.323.323,0,1,1,.635-.121c1.716,9.085-2.787,19.522-2.832,19.626a.323.323,0,0,1-.3.194" fill="#025157"/>
        <path id="Trazado_775001" data-name="Trazado 775001" d="M24.691,63.642a.324.324,0,0,1-.29-.467c.045-.092,4.447-9.27,2.006-19.53a.323.323,0,1,1,.629-.151c2.5,10.494-2.009,19.873-2.055,19.967a.324.324,0,0,1-.29.181" fill="#025157"/>
        <path id="Trazado_775002" data-name="Trazado 775002" d="M72.623,153.92H70.749a.32.32,0,0,1-.235-.1.326.326,0,0,1-.087-.242l.143-2.146a1.653,1.653,0,0,1-.768-1.437c0-1.005,1.382-1.763,1.8-1.971l1.774-3.412-.6-3.761-.455.914a14.185,14.185,0,0,1-.494,3.968c-.325.762-1.009,1.509-1.717,1.458-.351-.025-.823-.25-1.077-1.187a20.06,20.06,0,0,1-.31-4.216,23.1,23.1,0,0,0-.165-3.178,20.533,20.533,0,0,1,0-5.421c.15-1.351,2.383-4.575,2.932-5.351-.466-1.481-4.169-13.2-6.339-17.991-.651-1.436-1.437-3.046-2.269-4.752-2.182-4.474-4.439-9.1-4.784-11.638-.467-3.434-.225-14.449-.215-14.916a.324.324,0,0,1,.323-.317h.007a.324.324,0,0,1,.316.332c0,.114-.25,11.431.209,14.814.331,2.436,2.665,7.218,4.724,11.44.835,1.709,1.622,3.325,2.277,4.769,2.323,5.132,6.375,18.089,6.416,18.218a.328.328,0,0,1-.046.287c-.768,1.071-2.788,4.088-2.908,5.176a19.932,19.932,0,0,0,0,5.235,22.945,22.945,0,0,1,.175,3.285,19.948,19.948,0,0,0,.288,4.053c.07.259.227.692.5.711.34.034.821-.465,1.078-1.067a14.663,14.663,0,0,0,.443-3.79.318.318,0,0,1,.034-.144l.936-1.881a.323.323,0,0,1,.608.092l.781,4.86a.328.328,0,0,1-.032.2l-1.874,3.6a.328.328,0,0,1-.153.146c-.591.269-1.528.9-1.528,1.429a1.023,1.023,0,0,0,.58.952.33.33,0,0,1,.2.322l-.133,2h1.367c.607-.81,3.749-4.988,4.617-5.861a4.723,4.723,0,0,0,.842-2.747.326.326,0,0,1,.094-.229,5.033,5.033,0,0,0,1.313-2.625c.12-1.2-.864-7.028-1.4-9.939a.365.365,0,0,1,0-.087,32.8,32.8,0,0,0,0-5.726c-.035-.252-.087-.655-.156-1.187-.508-3.931-2.053-15.888-4.673-24.468a72.731,72.731,0,0,0-6.057-14.817.321.321,0,0,1-.046-.147c0-.023-.157-2.377-.157-3.782V59.4c.012-.112.91-6.892-.6-10.372-1.523-3.518-5.965-4.785-6.677-4.668a51.7,51.7,0,0,1-6.173-.462c-1.615-.163-3.141-.318-3.561-.318-1.2,0-3.151-3.613-3.722-4.72a.321.321,0,0,1-.036-.149L46.062,33.2a.324.324,0,0,1,.322-.325h0a.325.325,0,0,1,.323.325l.006,5.429c1.085,2.091,2.582,4.3,3.112,4.3.452,0,1.923.149,3.626.321,2.314.233,5.482.554,6,.466,1.158-.2,5.766,1.332,7.376,5.049,1.579,3.647.687,10.39.648,10.675l0,22.213c0,1.24.124,3.248.151,3.662a74.968,74.968,0,0,1,6.081,14.894c2.636,8.632,4.186,20.632,4.7,24.574.068.528.119.929.155,1.179a32.5,32.5,0,0,1,.006,5.829c.133.727,1.556,8.526,1.4,10.08a5.521,5.521,0,0,1-1.407,2.92,5.045,5.045,0,0,1-1.028,3.075c-.91.915-4.617,5.872-4.655,5.921a.319.319,0,0,1-.258.13" fill="#025157"/>
        <path id="Trazado_775003" data-name="Trazado 775003" d="M70.906,151.569a.325.325,0,0,1-.228-.554l1.351-1.356,1.225-3.689a.323.323,0,1,1,.613.205l-1.249,3.762a.33.33,0,0,1-.078.126l-1.406,1.411a.321.321,0,0,1-.228.1" fill="#025157"/>
        <path id="Trazado_775004" data-name="Trazado 775004" d="M72.935,140.128a.319.319,0,0,1-.243-.111.326.326,0,0,1,.029-.457,3.011,3.011,0,0,0,.832-2.681.325.325,0,0,1,.266-.373.32.32,0,0,1,.371.267,3.667,3.667,0,0,1-1.042,3.275.327.327,0,0,1-.213.08" fill="#025157"/>
        <path id="Trazado_775005" data-name="Trazado 775005" d="M72.779,129.47a.324.324,0,0,1-.269-.144c-.7-1.05.037-3.05.123-3.275a.323.323,0,1,1,.6.233c-.2.524-.623,2.027-.189,2.682a.323.323,0,0,1-.268.5" fill="#025157"/>
        <path id="Trazado_775006" data-name="Trazado 775006" d="M64.1,92.644a.662.662,0,0,1-.125-.012,13.9,13.9,0,0,1-2.59-1.131.324.324,0,0,1,.31-.569A13.061,13.061,0,0,0,64.1,92c.232.041.962-.975,1.511-2.314a.324.324,0,1,1,.6.248c-.343.836-1.214,2.714-2.111,2.714" fill="#025157"/>
        <path id="Trazado_775007" data-name="Trazado 775007" d="M58.575,61.761A.321.321,0,0,1,58.3,61.6c-.054-.089-5.358-8.989-3.638-18.1a.321.321,0,0,1,.378-.259.325.325,0,0,1,.257.38c-1.674,8.858,3.5,17.551,3.555,17.638a.324.324,0,0,1-.276.493" fill="#025157"/>
        <path id="Trazado_775008" data-name="Trazado 775008" d="M54.678,62.578a.322.322,0,0,1-.291-.184,31.08,31.08,0,0,1-1.44-18.9.323.323,0,1,1,.629.151,30.407,30.407,0,0,0,1.393,18.469.324.324,0,0,1-.151.433.318.318,0,0,1-.14.032" fill="#025157"/>
        <path id="Trazado_775009" data-name="Trazado 775009" d="M50.994,273.064a1.664,1.664,0,0,1-1.261-.721,1.906,1.906,0,0,1-1.512.36,1.608,1.608,0,0,1-.866-.573,2.464,2.464,0,0,1-1.724.536,1.6,1.6,0,0,1-1.076-.746c-1.678.507-2.717.689-3.333.263a2.065,2.065,0,0,1-.653-1.661,49.936,49.936,0,0,1,.774-6.955c.1-.628.187-1.221.191-1.317,0-.053-.04-.275-.075-.47a10.3,10.3,0,0,1-.155-3.761,8.314,8.314,0,0,1,.447-1.339c.53-1.338,1.331-3.359,1.68-8.968.378-6.057-.662-14.792-1.422-21.171-.187-1.573-.354-2.977-.473-4.126a62.658,62.658,0,0,1,.119-16.382c.869-6.6,1.064-8.854,1.064-9.122-.011-.065-.144-.456-.286-.87-.6-1.761-1.848-5.426-1.848-8.294a43.3,43.3,0,0,1,1.067-8.247c-.015-.777-.223-12.3.119-19.619l-1.637-20.376c-.628,4.969-1.752,14.881-1.495,20.376.341,7.32.134,18.842.119,19.619a43.329,43.329,0,0,1,1.066,8.247c0,2.868-1.248,6.533-1.848,8.294-.141.414-.274.8-.287.892,0,.246.2,2.5,1.066,9.1a62.7,62.7,0,0,1,.119,16.382c-.119,1.149-.286,2.553-.474,4.126-.759,6.378-1.8,15.114-1.422,21.171.349,5.608,1.15,7.629,1.68,8.967a8.331,8.331,0,0,1,.448,1.34,10.321,10.321,0,0,1-.155,3.761c-.035.2-.075.417-.075.473.005.1.116.72.234,1.38a46.9,46.9,0,0,1,.943,7.094,1.936,1.936,0,0,1-.633,1.531c-.628.434-1.622.254-3.566-.337a1.6,1.6,0,0,1-1.076.745,2.455,2.455,0,0,1-1.723-.536,1.611,1.611,0,0,1-.867.573,1.908,1.908,0,0,1-1.511-.36,1.668,1.668,0,0,1-1.317.72,1.881,1.881,0,0,1-1.338-.9,1.649,1.649,0,0,1-.938-1.576,10.274,10.274,0,0,1,1.117-3.1,28.941,28.941,0,0,0,1.387-3.422c.7-2.353.455-6.234.226-7.957-.134-1.012-.779-4.12-1.3-6.618-.534-2.574-.72-3.49-.72-3.661-.01-.053-.128-.578-.277-1.243-3.589-15.98-5.132-27.184-4.584-33.3a120.379,120.379,0,0,1,2.489-16.673c0-.289-.011-2.1-.117-3.385-.115-1.38.4-6.393.468-7.025-.324-1.272-5.893-23.079-8.634-31.1-2.874-8.416-3.109-11.94-1.675-25.135,1.245-11.455,2.06-13.709,3.409-17.443.2-.551.411-1.137.638-1.79a81.483,81.483,0,0,1,5.339-11.323l.447-1.8a27.257,27.257,0,0,1-.126-7.553A66.4,66.4,0,0,1,21.64,77.614a.323.323,0,1,1,.626-.16c.018.07,1.79,7.027,3.531,10.4a.326.326,0,0,1,.031.208,27.07,27.07,0,0,0,.12,7.506.321.321,0,0,1-.006.131l-.475,1.9a.334.334,0,0,1-.033.084,81.362,81.362,0,0,0-5.31,11.251c-.229.657-.441,1.245-.641,1.8-1.333,3.688-2.138,5.914-3.375,17.292-1.42,13.071-1.19,16.554,1.645,24.853,2.817,8.249,8.6,30.98,8.663,31.209a.336.336,0,0,1,.008.114c-.006.056-.588,5.579-.474,6.961.119,1.426.12,3.458.12,3.479a.3.3,0,0,1-.01.079,118.53,118.53,0,0,0-2.481,16.612c-.542,6.051,1,17.188,4.571,33.1a13.433,13.433,0,0,1,.292,1.385c.013.182.366,1.884.707,3.529.52,2.508,1.168,5.629,1.305,6.664.236,1.771.487,5.771-.247,8.229a29.355,29.355,0,0,1-1.418,3.505,11.01,11.01,0,0,0-1.059,2.829.956.956,0,0,0,.6,1,.336.336,0,0,1,.189.152c.1.184.465.664.873.681.375.04.725-.375.951-.705a.323.323,0,0,1,.466-.072,1.524,1.524,0,0,0,1.224.436,1.115,1.115,0,0,0,.656-.556.323.323,0,0,1,.512-.1,2.113,2.113,0,0,0,1.474.607,1.076,1.076,0,0,0,.748-.641.32.32,0,0,1,.38-.158c1.738.536,2.827.79,3.252.5.206-.143.316-.463.354-1.04a48.133,48.133,0,0,0-.934-6.936c-.182-1.016-.244-1.374-.244-1.495a3.986,3.986,0,0,1,.085-.588,9.8,9.8,0,0,0,.159-3.51,7.714,7.714,0,0,0-.416-1.236c-.545-1.376-1.369-3.455-1.725-9.166-.381-6.116.664-14.886,1.426-21.289.187-1.569.353-2.97.472-4.117a62.1,62.1,0,0,0-.117-16.229c-.785-5.967-1.07-8.775-1.07-9.207a5.032,5.032,0,0,1,.32-1.08c.589-1.728,1.814-5.324,1.814-8.084a42.962,42.962,0,0,0-1.058-8.138.366.366,0,0,1-.009-.081c0-.12.233-12.1-.118-19.617-.353-7.56,1.878-23.349,1.9-23.508a.311.311,0,0,1,.33-.278.323.323,0,0,1,.312.3l1.881,23.447c-.351,7.56-.12,19.538-.118,19.658a.314.314,0,0,1-.008.081,42.835,42.835,0,0,0-1.059,8.138c0,2.76,1.225,6.356,1.814,8.084a5.032,5.032,0,0,1,.32,1.08c0,.432-.284,3.24-1.069,9.207a62.1,62.1,0,0,0-.118,16.229c.119,1.147.286,2.549.473,4.118.762,6.4,1.806,15.172,1.425,21.288-.355,5.711-1.179,7.79-1.724,9.166a7.758,7.758,0,0,0-.417,1.236,9.819,9.819,0,0,0,.159,3.51,4.041,4.041,0,0,1,.086.588c0,.112-.048.437-.2,1.412a51.288,51.288,0,0,0-.768,6.813c.045.671.156,1.02.374,1.171.423.291,1.513.043,3.019-.423a.322.322,0,0,1,.381.158,1.076,1.076,0,0,0,.748.641,2.128,2.128,0,0,0,1.474-.607.322.322,0,0,1,.513.1,1.1,1.1,0,0,0,.654.555,1.515,1.515,0,0,0,1.224-.436.327.327,0,0,1,.249-.065.319.319,0,0,1,.217.137c.227.33.586.735.952.705.408-.017.768-.5.872-.681a.323.323,0,0,1,.193-.152.96.96,0,0,0,.6-1,11,11,0,0,0-1.058-2.829A29.188,29.188,0,0,1,50.2,264.25c-.734-2.456-.483-6.457-.248-8.229.138-1.035.785-4.154,1.3-6.661.341-1.646.7-3.35.708-3.542,0-.067.025-.184.292-1.375,3.575-15.914,5.112-27.051,4.571-33.1a118.23,118.23,0,0,0-2.482-16.612.349.349,0,0,1-.01-.079c0-.021,0-2.053.12-3.479.115-1.382-.468-6.9-.474-6.961a.313.313,0,0,1,.009-.114c.058-.229,5.845-22.96,8.663-31.209,2.834-8.3,3.065-11.782,1.644-24.853-1.236-11.377-2.041-13.6-3.374-17.292-.2-.554-.413-1.142-.641-1.8a81.188,81.188,0,0,0-5.311-11.251.334.334,0,0,1-.033-.084l-.474-1.9a.321.321,0,0,1-.006-.131,27.112,27.112,0,0,0,.12-7.506.326.326,0,0,1,.031-.208,65.383,65.383,0,0,0,3.431-9.107.323.323,0,1,1,.62.183,66.955,66.955,0,0,1-3.427,9.124,27.194,27.194,0,0,1-.127,7.552l.448,1.8A81.644,81.644,0,0,1,60.9,108.73c.227.654.439,1.24.639,1.791,1.349,3.734,2.164,5.988,3.409,17.442,1.433,13.2,1.2,16.719-1.676,25.135-2.74,8.023-8.31,29.83-8.634,31.1.066.632.584,5.645.469,7.025-.107,1.289-.117,3.1-.117,3.385a120.663,120.663,0,0,1,2.488,16.673c.548,6.118-.994,17.322-4.584,33.3-.149.665-.267,1.19-.277,1.271,0,.143-.186,1.06-.721,3.637-.518,2.5-1.162,5.6-1.3,6.614-.229,1.724-.477,5.606.226,7.957a28.932,28.932,0,0,0,1.386,3.422,10.284,10.284,0,0,1,1.118,3.1,1.649,1.649,0,0,1-.938,1.576,1.884,1.884,0,0,1-1.339.9h-.055" fill="#025157"/>
        <path id="Trazado_775010" data-name="Trazado 775010" d="M35.7,271.579a.3.3,0,0,1-.042,0,.324.324,0,0,1-.279-.363l.2-1.577a.323.323,0,1,1,.641.083l-.2,1.577a.323.323,0,0,1-.32.283" fill="#025157"/>
        <path id="Trazado_775011" data-name="Trazado 775011" d="M32.98,271.98h-.018a.323.323,0,0,1-.305-.341l.056-1.019a.318.318,0,0,1,.34-.306.325.325,0,0,1,.305.342l-.056,1.018a.324.324,0,0,1-.322.307" fill="#025157"/>
        <path id="Trazado_775012" data-name="Trazado 775012" d="M30.609,272.218a.347.347,0,0,1-.078-.009.325.325,0,0,1-.236-.393l.31-1.257a.323.323,0,1,1,.627.156l-.31,1.257a.323.323,0,0,1-.313.246" fill="#025157"/>
        <path id="Trazado_775013" data-name="Trazado 775013" d="M28.237,272.218a.31.31,0,0,1-.138-.032.323.323,0,0,1-.153-.432l.563-1.187a.323.323,0,1,1,.583.278l-.563,1.188a.322.322,0,0,1-.292.185" fill="#025157"/>
        <path id="Trazado_775014" data-name="Trazado 775014" d="M44.632,271.784a.323.323,0,0,1-.32-.283l-.205-1.576a.323.323,0,1,1,.64-.084l.206,1.577a.324.324,0,0,1-.279.363l-.042,0" fill="#025157"/>
        <path id="Trazado_775015" data-name="Trazado 775015" d="M47.352,272.185a.324.324,0,0,1-.322-.307l-.056-1.018a.323.323,0,0,1,.305-.341.319.319,0,0,1,.34.3l.056,1.019a.323.323,0,0,1-.305.341h-.018" fill="#025157"/>
        <path id="Trazado_775016" data-name="Trazado 775016" d="M49.723,272.424a.323.323,0,0,1-.313-.246l-.31-1.257a.323.323,0,1,1,.627-.156l.31,1.257a.325.325,0,0,1-.236.393.347.347,0,0,1-.078.009" fill="#025157"/>
        <path id="Trazado_775017" data-name="Trazado 775017" d="M52.1,272.424a.322.322,0,0,1-.292-.185l-.563-1.188a.323.323,0,1,1,.583-.279l.563,1.188a.323.323,0,0,1-.153.432.31.31,0,0,1-.138.032" fill="#025157"/>
        <path id="Trazado_775018" data-name="Trazado 775018" d="M36.792,262.253a.319.319,0,0,1-.162-.044.326.326,0,0,1-.117-.444l.956-1.645c.318-.546-.159-1.774-.351-2.161a.325.325,0,0,1,.145-.435.321.321,0,0,1,.433.145c.092.184.882,1.831.332,2.777l-.957,1.646a.323.323,0,0,1-.279.161" fill="#025157"/>
        <path id="Trazado_775019" data-name="Trazado 775019" d="M43.761,262.115a.323.323,0,0,1-.293-.187,8.516,8.516,0,0,0-.84-1.435,4.9,4.9,0,0,1-.42-2.486.338.338,0,0,1,.335-.312.324.324,0,0,1,.311.337,4.56,4.56,0,0,0,.264,2.04,8.856,8.856,0,0,1,.936,1.582.325.325,0,0,1-.157.431.313.313,0,0,1-.136.03" fill="#025157"/>
        <path id="Trazado_775020" data-name="Trazado 775020" d="M48.7,198.348c-.037,0-.073,0-.109,0a10.364,10.364,0,0,1-3.006-1.208.324.324,0,0,1,.32-.563,9.625,9.625,0,0,0,2.732,1.124,6.027,6.027,0,0,0,2.466-.936l1.324-2.526a.323.323,0,1,1,.572.3l-1.367,2.606a.317.317,0,0,1-.116.125,7.184,7.184,0,0,1-2.816,1.08" fill="#025157"/>
        <path id="Trazado_775021" data-name="Trazado 775021" d="M32.9,197.659h-.008c-.7-.016-3.009-.1-3.527-.471a17.349,17.349,0,0,1-1.916-2.266.323.323,0,1,1,.519-.386,16.678,16.678,0,0,0,1.773,2.124,11.935,11.935,0,0,0,3.076.348l2.995-1.737a.324.324,0,0,1,.324.561l-3.074,1.783a.321.321,0,0,1-.162.044" fill="#025157"/>
        <path id="Trazado_775022" data-name="Trazado 775022" d="M52.368,190.8a.323.323,0,0,1-.314-.25,36.793,36.793,0,0,1-.487-6.8.323.323,0,0,1,.323-.319H51.9a.323.323,0,0,1,.318.329,37.051,37.051,0,0,0,.47,6.641.323.323,0,0,1-.241.389.311.311,0,0,1-.074.008" fill="#025157"/>
        <path id="Trazado_775023" data-name="Trazado 775023" d="M28.322,190.459a.29.29,0,0,1-.1-.015.324.324,0,0,1-.214-.4,18.056,18.056,0,0,0,.26-5.02.324.324,0,1,1,.645-.054,18.394,18.394,0,0,1-.287,5.265.323.323,0,0,1-.309.229" fill="#025157"/>
        <path id="Trazado_775024" data-name="Trazado 775024" d="M40.213,136.773a.319.319,0,0,1-.18-.054c-.143-.1-14.434-9.681-23.44-14.142a.324.324,0,0,1,.286-.582c8.5,4.213,21.675,12.957,23.34,14.069,1.727-1.079,15.6-9.709,23.447-13.592a.321.321,0,0,1,.432.146.325.325,0,0,1-.146.435c-8.308,4.111-23.416,13.577-23.568,13.672a.319.319,0,0,1-.171.048" fill="#025157"/>
        <path id="Trazado_775025" data-name="Trazado 775025" d="M40.067,118.341c-.233,0-.465-.005-.7-.016-10.423-.475-19.782-8.209-19.875-8.287a.324.324,0,0,1,.413-.5c.092.077,9.29,7.673,19.491,8.138,10.184.465,20.641-9.8,20.746-9.9a.323.323,0,0,1,.457,0,.326.326,0,0,1,0,.459c-.1.1-10.305,10.107-20.53,10.107" fill="#025157"/>
        <path id="Trazado_775026" data-name="Trazado 775026" d="M39.288,120.961c-12.4,0-20.461-9.08-20.543-9.174a.324.324,0,0,1,.031-.457.321.321,0,0,1,.455.03c.082.094,8.36,9.386,20.97,8.936,12.617-.466,20.2-9.9,20.271-9.994a.324.324,0,1,1,.507.4c-.077.1-7.831,9.763-20.754,10.24q-.472.017-.937.017" fill="#025157"/>
        <path id="Trazado_775027" data-name="Trazado 775027" d="M40.546,111.458a1.673,1.673,0,0,1-.234-.016,2.235,2.235,0,0,1-1.443-1.011.323.323,0,1,1,.553-.334,1.6,1.6,0,0,0,.984.7,1.576,1.576,0,0,0,1.247-.535.324.324,0,0,1,.44.475,2.3,2.3,0,0,1-1.547.718" fill="#025157"/>
        <path id="Trazado_775028" data-name="Trazado 775028" d="M28.475,94.4a.336.336,0,0,1-.054,0,.324.324,0,0,1-.265-.373c.063-.391,1.621-9.6,6.118-11.552a.324.324,0,0,1,.256.6c-4.173,1.812-5.723,10.969-5.738,11.061a.322.322,0,0,1-.317.272" fill="#025157"/>
        <path id="Trazado_775029" data-name="Trazado 775029" d="M53.137,94.878h-.015a.325.325,0,0,1-.308-.339c.343-7.567-6.068-11.69-6.133-11.731a.324.324,0,0,1,.343-.55c.068.042,6.8,4.358,6.435,12.311a.323.323,0,0,1-.322.309" fill="#025157"/>
        <path id="Trazado_775030" data-name="Trazado 775030" d="M38.434,45.723a.323.323,0,0,1-.323-.324c0-.042-.039-.471-.7-.638a44.653,44.653,0,0,0-5.029-.347.325.325,0,0,1,.018-.649,48.57,48.57,0,0,1,5.167.367A1.385,1.385,0,0,1,38.757,45.4a.323.323,0,0,1-.323.324" fill="#025157"/>
        <path id="Trazado_775031" data-name="Trazado 775031" d="M42.347,45.72H42.34a.321.321,0,0,1-.316-.321,1.385,1.385,0,0,1,1.194-1.267,48.794,48.794,0,0,1,5.167-.366.317.317,0,0,1,.332.315.323.323,0,0,1-.314.333,44.653,44.653,0,0,0-5.029.347c-.665.168-.7.6-.7.645a.327.327,0,0,1-.323.314" fill="#025157"/>
        <path id="Trazado_775032" data-name="Trazado 775032" d="M40.673,47.964a2.282,2.282,0,0,1-1.549-.942.323.323,0,0,1,.517-.389c.154.2.637.725,1.088.68.269-.029.515-.278.732-.742a.323.323,0,1,1,.585.276,1.651,1.651,0,0,1-1.252,1.111c-.041,0-.081.006-.121.006" fill="#025157"/>
        <path id="Trazado_775033" data-name="Trazado 775033" d="M39.976,43.819a.324.324,0,0,1-.274-.152l-4.624-7.379a.323.323,0,1,1,.547-.345l4.624,7.379a.325.325,0,0,1-.1.447.32.32,0,0,1-.172.05" fill="#025157"/>
        <path id="Trazado_775034" data-name="Trazado 775034" d="M42.7,42.034a.314.314,0,0,1-.127-.026.326.326,0,0,1-.17-.426L44.9,35.75a.321.321,0,0,1,.424-.17.324.324,0,0,1,.17.425L43,41.837a.322.322,0,0,1-.3.2" fill="#025157"/>
        <path id="Trazado_775035" data-name="Trazado 775035" d="M40.525,25.849a4.517,4.517,0,0,1-2.1-.454,1.371,1.371,0,0,1-.821-1.429.323.323,0,1,1,.639.1c-.017.113-.068.457.492.766a4.245,4.245,0,0,0,3.733-.12.447.447,0,0,0,.152-.554.323.323,0,1,1,.6-.229,1.091,1.091,0,0,1-.332,1.273,3.842,3.842,0,0,1-2.369.652" fill="#025157"/>
        <path id="Trazado_775036" data-name="Trazado 775036" d="M40.378,28.886a13.6,13.6,0,0,1-3.315-.489.324.324,0,0,1,.156-.629,9.877,9.877,0,0,0,6.535-.171.324.324,0,0,1,.186.621,11.719,11.719,0,0,1-3.562.668" fill="#025157"/>
        <path id="Trazado_775037" data-name="Trazado 775037" d="M40.587,30.4h-.123a2.624,2.624,0,0,1-2.254-.918.325.325,0,0,1,.1-.447.321.321,0,0,1,.443.1c.022.032.43.6,1.722.619,1.663.025,1.859-.638,1.86-.644a.328.328,0,0,1,.384-.242.318.318,0,0,1,.25.366c-.021.123-.269,1.17-2.383,1.17" fill="#025157"/>
        <path id="Trazado_775038" data-name="Trazado 775038" d="M49.368,17.351a.321.321,0,0,1-.228-.095c-1.586-1.592-5.131-.669-5.166-.659a.324.324,0,0,1-.167-.626c.159-.044,3.94-1.03,5.789.826a.325.325,0,0,1-.228.554" fill="#025157"/>
        <path id="Trazado_775039" data-name="Trazado 775039" d="M32.206,17.351a.325.325,0,0,1-.228-.554c1.85-1.856,5.63-.87,5.789-.826a.324.324,0,0,1-.167.626c-.036-.01-3.579-.934-5.166.659a.321.321,0,0,1-.228.095" fill="#025157"/>
        <path id="Trazado_775040" data-name="Trazado 775040" d="M34.991,21.637c-.684,0-1.22-.711-1.22-1.619s.536-1.618,1.22-1.618,1.22.711,1.22,1.618-.536,1.619-1.22,1.619m0-2.588c-.271,0-.574.4-.574.969s.3.97.574.97.574-.4.574-.97-.3-.969-.574-.969" fill="#025157"/>
        <path id="Trazado_775041" data-name="Trazado 775041" d="M45.865,21.637c-.684,0-1.22-.711-1.22-1.619s.536-1.618,1.22-1.618,1.22.711,1.22,1.618-.536,1.619-1.22,1.619m0-2.588c-.271,0-.574.4-.574.969s.3.97.574.97.574-.4.574-.97-.3-.969-.574-.969" fill="#025157"/>
        <path id="Trazado_775042" data-name="Trazado 775042" d="M57.944,44.132a.323.323,0,0,1-.321-.286c-.023-.2-2.337-20.041-2.679-27.937A21.32,21.32,0,0,0,50.233,3.427l-.847.212a.321.321,0,0,1-.336-.118C49.025,3.488,46.437.2,38.62.7c-6.137.393-10.45,3.6-11.536,8.588-1.192,5.467-4.2,34.177-4.226,34.465a.319.319,0,0,1-.355.289.324.324,0,0,1-.288-.356c.03-.29,3.038-29.036,4.238-34.537C27.6,3.867,32.137.466,38.579.055c7.258-.468,10.194,2.191,10.845,2.907l.842-.211a.318.318,0,0,1,.313.091,21.381,21.381,0,0,1,5.011,13.04c.341,7.871,2.652,27.688,2.675,27.888a.323.323,0,0,1-.283.36.242.242,0,0,1-.038,0" fill="#025157"/>
        <path id="Trazado_775043" data-name="Trazado 775043" d="M28.15,43.612h-.026a.324.324,0,0,1-.3-.349l.863-11.009a.323.323,0,1,1,.644.051l-.863,11.009a.324.324,0,0,1-.322.3" fill="#025157"/>
        <path id="Trazado_775044" data-name="Trazado 775044" d="M29.359,43.266l-.043,0a.325.325,0,0,1-.278-.364L29.47,39.6a.323.323,0,1,1,.641.085l-.432,3.294a.324.324,0,0,1-.32.282" fill="#025157"/>
        <path id="Trazado_775045" data-name="Trazado 775045" d="M52.33,43.612a.323.323,0,0,1-.321-.29L50.886,32.4a.323.323,0,1,1,.643-.066l1.123,10.923a.324.324,0,0,1-.289.355l-.033,0" fill="#025157"/>
      </g>
    </g>
  </g>
</svg>
