<svg id="Grupo_1065070" data-name="Grupo 1065070" xmlns="http://www.w3.org/2000/svg" xmlns:xlink="http://www.w3.org/1999/xlink" width="342.667" height="265.364" viewBox="0 0 342.667 265.364">
  <defs>
    <clipPath id="clip-path">
      <rect id="Rectángulo_362159" data-name="Rectángulo 362159" width="342.667" height="265.364" fill="none"/>
    </clipPath>
    <clipPath id="clip-path-3">
      <rect id="Rectángulo_362098" data-name="Rectángulo 362098" width="323.393" height="135.111" fill="none"/>
    </clipPath>
    <clipPath id="clip-path-4">
      <rect id="Rectángulo_362094" data-name="Rectángulo 362094" width="80.266" height="134.443" fill="none"/>
    </clipPath>
    <clipPath id="clip-path-5">
      <rect id="Rectángulo_362096" data-name="Rectángulo 362096" width="74.885" height="132.523" fill="none"/>
    </clipPath>
    <clipPath id="clip-path-6">
      <rect id="Rectángulo_362097" data-name="Rectángulo 362097" width="110.529" height="132.939" fill="none"/>
    </clipPath>
    <clipPath id="clip-path-7">
      <rect id="Rectángulo_362099" data-name="Rectángulo 362099" width="320.693" height="30.312" fill="none"/>
    </clipPath>
    <clipPath id="clip-path-9">
      <rect id="Rectángulo_362102" data-name="Rectángulo 362102" width="16.004" height="49.609" fill="none"/>
    </clipPath>
    <clipPath id="clip-path-10">
      <rect id="Rectángulo_362101" data-name="Rectángulo 362101" width="8.08" height="7.023" fill="none"/>
    </clipPath>
    <clipPath id="clip-path-11">
      <rect id="Rectángulo_362103" data-name="Rectángulo 362103" width="7.662" height="12.299" fill="none"/>
    </clipPath>
    <clipPath id="clip-path-12">
      <rect id="Rectángulo_362104" data-name="Rectángulo 362104" width="21.082" height="60.113" fill="none"/>
    </clipPath>
    <clipPath id="clip-path-13">
      <rect id="Rectángulo_362105" data-name="Rectángulo 362105" width="22.019" height="61.173" fill="none"/>
    </clipPath>
    <clipPath id="clip-path-14">
      <rect id="Rectángulo_362106" data-name="Rectángulo 362106" width="40.21" height="16.16" fill="none"/>
    </clipPath>
    <clipPath id="clip-path-15">
      <rect id="Rectángulo_362107" data-name="Rectángulo 362107" width="13.994" height="49.247" fill="none"/>
    </clipPath>
    <clipPath id="clip-path-16">
      <rect id="Rectángulo_362108" data-name="Rectángulo 362108" width="10.626" height="10.042" fill="none"/>
    </clipPath>
    <clipPath id="clip-path-17">
      <rect id="Rectángulo_362109" data-name="Rectángulo 362109" width="5.646" height="11.4" fill="none"/>
    </clipPath>
    <clipPath id="clip-path-18">
      <rect id="Rectángulo_362110" data-name="Rectángulo 362110" width="3.133" height="8.522" fill="none"/>
    </clipPath>
    <clipPath id="clip-path-19">
      <rect id="Rectángulo_362113" data-name="Rectángulo 362113" width="38.604" height="55.005" fill="none"/>
    </clipPath>
    <clipPath id="clip-path-20">
      <rect id="Rectángulo_362111" data-name="Rectángulo 362111" width="4.641" height="55.005" fill="none"/>
    </clipPath>
    <clipPath id="clip-path-21">
      <rect id="Rectángulo_362112" data-name="Rectángulo 362112" width="3.986" height="52.479" fill="none"/>
    </clipPath>
    <clipPath id="clip-path-22">
      <rect id="Rectángulo_362114" data-name="Rectángulo 362114" width="9.014" height="15.094" fill="none"/>
    </clipPath>
    <clipPath id="clip-path-23">
      <rect id="Rectángulo_362115" data-name="Rectángulo 362115" width="2.804" height="4.956" fill="none"/>
    </clipPath>
    <clipPath id="clip-path-25">
      <rect id="Rectángulo_362117" data-name="Rectángulo 362117" width="2.719" height="7.774" fill="none"/>
    </clipPath>
    <clipPath id="clip-path-26">
      <rect id="Rectángulo_362118" data-name="Rectángulo 362118" width="5.014" height="2.152" fill="none"/>
    </clipPath>
    <clipPath id="clip-path-27">
      <rect id="Rectángulo_362119" data-name="Rectángulo 362119" width="5.073" height="5.073" fill="none"/>
    </clipPath>
    <clipPath id="clip-path-29">
      <rect id="Rectángulo_362121" data-name="Rectángulo 362121" width="29.384" height="57.917" fill="none"/>
    </clipPath>
    <clipPath id="clip-path-30">
      <rect id="Rectángulo_362122" data-name="Rectángulo 362122" width="2.607" height="1.251" fill="none"/>
    </clipPath>
    <clipPath id="clip-path-31">
      <rect id="Rectángulo_362123" data-name="Rectángulo 362123" width="28.029" height="15.791" fill="none"/>
    </clipPath>
    <clipPath id="clip-path-32">
      <rect id="Rectángulo_362124" data-name="Rectángulo 362124" width="7.836" height="9.458" fill="none"/>
    </clipPath>
    <clipPath id="clip-path-33">
      <rect id="Rectángulo_362125" data-name="Rectángulo 362125" width="3.438" height="5.14" fill="none"/>
    </clipPath>
    <clipPath id="clip-path-34">
      <rect id="Rectángulo_362126" data-name="Rectángulo 362126" width="3.175" height="5.86" fill="none"/>
    </clipPath>
    <clipPath id="clip-path-35">
      <rect id="Rectángulo_362127" data-name="Rectángulo 362127" width="2.608" height="5.636" fill="none"/>
    </clipPath>
    <clipPath id="clip-path-36">
      <rect id="Rectángulo_362128" data-name="Rectángulo 362128" width="47.222" height="57.412" fill="none"/>
    </clipPath>
    <clipPath id="clip-path-37">
      <rect id="Rectángulo_362129" data-name="Rectángulo 362129" width="46.293" height="21.741" fill="none"/>
    </clipPath>
    <clipPath id="clip-path-38">
      <rect id="Rectángulo_362130" data-name="Rectángulo 362130" width="9.547" height="68.36" fill="none"/>
    </clipPath>
    <clipPath id="clip-path-39">
      <rect id="Rectángulo_362131" data-name="Rectángulo 362131" width="9.718" height="68.761" fill="none"/>
    </clipPath>
    <clipPath id="clip-path-40">
      <rect id="Rectángulo_362132" data-name="Rectángulo 362132" width="10.202" height="17.082" fill="none"/>
    </clipPath>
    <clipPath id="clip-path-41">
      <rect id="Rectángulo_362135" data-name="Rectángulo 362135" width="19.522" height="5.073" fill="none"/>
    </clipPath>
    <clipPath id="clip-path-44">
      <rect id="Rectángulo_362136" data-name="Rectángulo 362136" width="2.805" height="4.956" fill="none"/>
    </clipPath>
    <clipPath id="clip-path-45">
      <rect id="Rectángulo_362137" data-name="Rectángulo 362137" width="2.72" height="7.774" fill="none"/>
    </clipPath>
    <clipPath id="clip-path-47">
      <rect id="Rectángulo_362140" data-name="Rectángulo 362140" width="12.823" height="8.169" fill="none"/>
    </clipPath>
    <clipPath id="clip-path-48">
      <rect id="Rectángulo_362139" data-name="Rectángulo 362139" width="3.714" height="1.847" fill="none"/>
    </clipPath>
    <clipPath id="clip-path-49">
      <rect id="Rectángulo_362141" data-name="Rectángulo 362141" width="52.064" height="65.404" fill="none"/>
    </clipPath>
    <clipPath id="clip-path-50">
      <rect id="Rectángulo_362142" data-name="Rectángulo 362142" width="14.252" height="33.949" fill="none"/>
    </clipPath>
    <clipPath id="clip-path-51">
      <rect id="Rectángulo_362143" data-name="Rectángulo 362143" width="15.718" height="53.103" fill="none"/>
    </clipPath>
    <clipPath id="clip-path-52">
      <rect id="Rectángulo_362144" data-name="Rectángulo 362144" width="5.646" height="12.083" fill="none"/>
    </clipPath>
    <clipPath id="clip-path-53">
      <rect id="Rectángulo_362145" data-name="Rectángulo 362145" width="3.133" height="9.033" fill="none"/>
    </clipPath>
    <clipPath id="clip-path-54">
      <rect id="Rectángulo_362146" data-name="Rectángulo 362146" width="14.263" height="51.938" fill="none"/>
    </clipPath>
    <clipPath id="clip-path-55">
      <rect id="Rectángulo_362147" data-name="Rectángulo 362147" width="7.95" height="12.763" fill="none"/>
    </clipPath>
    <clipPath id="clip-path-56">
      <rect id="Rectángulo_362148" data-name="Rectángulo 362148" width="8.012" height="65.936" fill="none"/>
    </clipPath>
    <clipPath id="clip-path-57">
      <rect id="Rectángulo_362149" data-name="Rectángulo 362149" width="8.012" height="65.868" fill="none"/>
    </clipPath>
    <clipPath id="clip-path-58">
      <rect id="Rectángulo_362150" data-name="Rectángulo 362150" width="10.829" height="18.134" fill="none"/>
    </clipPath>
    <clipPath id="clip-path-63">
      <rect id="Rectángulo_362155" data-name="Rectángulo 362155" width="2.804" height="4.957" fill="none"/>
    </clipPath>
    <clipPath id="clip-path-65">
      <rect id="Rectángulo_362157" data-name="Rectángulo 362157" width="5.014" height="2.153" fill="none"/>
    </clipPath>
  </defs>
  <g id="Grupo_1065069" data-name="Grupo 1065069" clip-path="url(#clip-path)">
    <g id="Grupo_1064895" data-name="Grupo 1064895">
      <g id="Grupo_1064894" data-name="Grupo 1064894" clip-path="url(#clip-path)">
        <g id="Grupo_1064890" data-name="Grupo 1064890" opacity="0.54">
          <g id="Grupo_1064889" data-name="Grupo 1064889">
            <g id="Grupo_1064888" data-name="Grupo 1064888" clip-path="url(#clip-path-3)">
              <g id="Grupo_1064881" data-name="Grupo 1064881" transform="translate(243.126)" opacity="0.55">
                <g id="Grupo_1064880" data-name="Grupo 1064880">
                  <g id="Grupo_1064879" data-name="Grupo 1064879" clip-path="url(#clip-path-4)">
                    <path id="Trazado_774734" data-name="Trazado 774734" d="M438.339,0H358.073l16.578,54.766a42.99,42.99,0,0,1,0,24.911l-16.578,54.766h80.266L421.761,79.677a42.99,42.99,0,0,1,0-24.911Z" transform="translate(-358.073)" fill="#b7d0ef"/>
                  </g>
                </g>
              </g>
              <g id="Grupo_1064884" data-name="Grupo 1064884" transform="translate(133.417 2.171)" opacity="0.55">
                <g id="Grupo_1064883" data-name="Grupo 1064883">
                  <g id="Grupo_1064882" data-name="Grupo 1064882" clip-path="url(#clip-path-5)">
                    <rect id="Rectángulo_362095" data-name="Rectángulo 362095" width="74.886" height="132.523" transform="translate(-0.001 0)" fill="#b7d0ef"/>
                  </g>
                </g>
              </g>
              <g id="Grupo_1064887" data-name="Grupo 1064887" transform="translate(0 2.171)" opacity="0.55">
                <g id="Grupo_1064886" data-name="Grupo 1064886">
                  <g id="Grupo_1064885" data-name="Grupo 1064885" clip-path="url(#clip-path-6)">
                    <path id="Trazado_774735" data-name="Trazado 774735" d="M110.529,69.668c0,36.71-24.743,66.469-55.264,66.469S0,106.378,0,69.668,24.743,3.2,55.265,3.2s55.264,29.759,55.264,66.469" transform="translate(0 -3.198)" fill="#b7d0ef"/>
                  </g>
                </g>
              </g>
            </g>
          </g>
        </g>
        <g id="Grupo_1064893" data-name="Grupo 1064893" transform="translate(7.068 235.052)" opacity="0.22">
          <g id="Grupo_1064892" data-name="Grupo 1064892">
            <g id="Grupo_1064891" data-name="Grupo 1064891" clip-path="url(#clip-path-7)">
              <path id="Trazado_774736" data-name="Trazado 774736" d="M97.891,361.336c0,8.37-19.583,15.156-43.741,15.156s-43.741-6.786-43.741-15.156S29.993,346.18,54.15,346.18s43.741,6.786,43.741,15.156" transform="translate(-10.409 -346.18)" fill="#b7d0ef"/>
              <path id="Trazado_774737" data-name="Trazado 774737" d="M272.112,361.336c0,8.37-18.394,15.156-41.085,15.156s-41.085-6.786-41.085-15.156,18.394-15.156,41.085-15.156,41.085,6.786,41.085,15.156" transform="translate(-68.042 -346.18)" fill="#b7d0ef"/>
              <path id="Trazado_774738" data-name="Trazado 774738" d="M443.873,361.336c0,8.37-18.394,15.156-41.085,15.156S361.7,369.707,361.7,361.336,380.1,346.18,402.788,346.18s41.085,6.786,41.085,15.156" transform="translate(-123.18 -346.18)" fill="#b7d0ef"/>
            </g>
          </g>
        </g>
      </g>
    </g>
    <g id="Grupo_1065068" data-name="Grupo 1065068">
      <g id="Grupo_1065067" data-name="Grupo 1065067" clip-path="url(#clip-path)">
        <path id="Trazado_774739" data-name="Trazado 774739" d="M258.748,47.962c-1.365-.745-2.96-1.2-3.752-2.506-1.247-2.059.278-5-1.019-7.026-1.156-1.807-3.765-1.786-5.673-2.768-1.587-.816-2.67-2.338-4.025-3.5a10.538,10.538,0,0,0-16.639,4.075,7.113,7.113,0,0,1-1.611,3.018,8.391,8.391,0,0,1-2.468,1.095,2.572,2.572,0,0,0-1.812,1.839c-.1.822.473,1.575.574,2.4.225,1.825-1.666,3.053-2.588,4.373a5.114,5.114,0,0,0,.311,6.14c.932,1.188,2.121,2.236,2.622,3.66.513,1.456.31,3.283,1.462,4.312,1.284,1.145,3.275.486,4.995.57,2.19.107,4.069,1.5,5.915,2.685s4.068,2.238,6.163,1.588c1.625-.5,2.818-1.945,4.423-2.51,1.74-.612,3.643-.106,5.477.079s4.01-.145,4.919-1.75c.7-1.234.392-2.808.9-4.134.687-1.81,2.686-2.754,3.774-4.356a5.153,5.153,0,0,0-1.126-6.764,6.727,6.727,0,0,0-.819-.518" transform="translate(-70.256 -9.514)" fill="#5c2521"/>
        <path id="Trazado_774740" data-name="Trazado 774740" d="M294.827,141.752a33.966,33.966,0,0,1-.278,4.312l-2.533,21.666-5.921-2.281s-.53-2.967-1.222-7.224c-1.331-8.256-3.273-21.347-3.089-26.847L275.1,115.638l-1.636-3.85H270.39l1.426-14.659L271.924,96l2.865.713c8.3-.306,13.4,3.1,13.987,11.76a43.594,43.594,0,0,1,1.976,4.943A61.653,61.653,0,0,1,293.7,133.2a32.894,32.894,0,0,1,1.127,8.555" transform="translate(-86.799 -30.818)" fill="#e27f69"/>
        <path id="Trazado_774741" data-name="Trazado 774741" d="M290.753,113.418a55.5,55.5,0,0,0-12.283,1.406c-1.114.251-2.234.516-3.368.815l-1.636-3.85H270.39l.272-2.825,1.154-11.835L271.924,96l2.865.713c8.3-.306,13.4,3.1,13.987,11.76a43.594,43.594,0,0,1,1.976,4.943" transform="translate(-86.799 -30.818)" fill="#b7d0ef"/>
        <g id="Grupo_1064901" data-name="Grupo 1064901" transform="translate(183.591 77.797)" opacity="0.25" style="mix-blend-mode: multiply;isolation: isolate">
          <g id="Grupo_1064900" data-name="Grupo 1064900">
            <g id="Grupo_1064899" data-name="Grupo 1064899" clip-path="url(#clip-path-9)">
              <path id="Trazado_774742" data-name="Trazado 774742" d="M288.526,154.962,287.1,167.123c-1.331-8.256-3.273-21.347-3.089-26.854l-6.681-15.732c1.134-.3,2.254-.564,3.368-.815a38.316,38.316,0,0,1,5.289,16.146s3.225,8.189,2.539,15.094" transform="translate(-272.618 -117.514)" fill="#e27f69"/>
              <g id="Grupo_1064898" data-name="Grupo 1064898" style="mix-blend-mode: multiply;isolation: isolate">
                <g id="Grupo_1064897" data-name="Grupo 1064897">
                  <g id="Grupo_1064896" data-name="Grupo 1064896" clip-path="url(#clip-path-10)">
                    <path id="Trazado_774743" data-name="Trazado 774743" d="M278.47,120.787c-1.114.251-2.234.516-3.368.815l-1.636-3.85H270.39l.272-2.825a1.187,1.187,0,0,0,.319-.088c1.48-.713,3.836.136,4.794,1.385.326.421.36,1,.665,1.433.754,1.046,1.426,2.1,2.03,3.13" transform="translate(-270.39 -114.579)" fill="#b7d0ef"/>
                  </g>
                </g>
              </g>
            </g>
          </g>
        </g>
        <path id="Trazado_774744" data-name="Trazado 774744" d="M300.1,203.39V206.9a2.358,2.358,0,0,1-.536,1.5l-.249.3c-.206.24-.439.516-.7.806-.46.524-1,1.1-1.549,1.62l-.007.007a11.156,11.156,0,0,1-1.189,1l-.346.261-1.585,1.2a4.96,4.96,0,0,1-1.351.184h-.008a1.708,1.708,0,0,1-.756-.184s-.064.007-.17.007c-.581.029-2.349-.035-.708-1.825L293,209.318l.056-5.447-1.11-2.3s.757,5.822-.906,7.237a.708.708,0,0,1-1.139-.573,51.339,51.339,0,0,0-.34-6.459,3.932,3.932,0,0,1,.276-2.15l2.4-5.674-.354-9.162,6.268,9.162v2.278Z" transform="translate(-92.939 -59.321)" fill="#e27f69"/>
        <g id="Grupo_1064904" data-name="Grupo 1064904" transform="translate(198.717 142.163)" opacity="0.33" style="mix-blend-mode: multiply;isolation: isolate">
          <g id="Grupo_1064903" data-name="Grupo 1064903">
            <g id="Grupo_1064902" data-name="Grupo 1064902" clip-path="url(#clip-path-11)">
              <path id="Trazado_774745" data-name="Trazado 774745" d="M296.416,217.854a7.638,7.638,0,0,1-2.816,3.82h-.007a1.7,1.7,0,0,1-.757-.184,1.618,1.618,0,0,1-.17.007,7.685,7.685,0,0,0,3.056-3.764c0-.056.2-2.363.2-4.69a20.451,20.451,0,0,0-.205-3.254.353.353,0,0,1,.29-.41.363.363,0,0,1,.41.29,43.34,43.34,0,0,1,0,8.185" transform="translate(-292.667 -209.375)" fill="#e27f69"/>
              <path id="Trazado_774746" data-name="Trazado 774746" d="M300.771,211.988l-.29,6.693a.437.437,0,0,1-.05.162l-.523.9-.007.007a11.15,11.15,0,0,1-1.189,1l-.346.261a.347.347,0,0,1,.042-.12l1.365-2.328.29-6.6a.354.354,0,0,1,.708.029" transform="translate(-294.496 -210.095)" fill="#e27f69"/>
              <path id="Trazado_774747" data-name="Trazado 774747" d="M303.616,213.621v4.223c-.205.24-.439.517-.7.807a.227.227,0,0,1-.007-.071v-4.959a.354.354,0,1,1,.707,0" transform="translate(-295.955 -210.624)" fill="#e27f69"/>
            </g>
          </g>
        </g>
        <path id="Trazado_774748" data-name="Trazado 774748" d="M238.908,184.046l-17.33-.834s-4.476,17.093-2.238,30.226l6.2,36.064c-3.136,10.264,3.544,29.185,4.587,48.571h7.921l-.43-4.946a65.02,65.02,0,0,1,.567-15.522,53.353,53.353,0,0,0-2.222-25.185l3.834-45.846Z" transform="translate(-70.21 -58.814)" fill="#e27f69"/>
        <path id="Trazado_774749" data-name="Trazado 774749" d="M238.206,352.378l.533,5.287a3.747,3.747,0,0,1-2.858,4.02,5.816,5.816,0,0,0-3.165,1.977c-1.807,2.218-5.024,6.831-10.162,6.723a3.405,3.405,0,0,1-2.917-5.031,16.945,16.945,0,0,1,4.691-4.8,25.413,25.413,0,0,0,3.926-3.886c1.293-1.656,2.109-2.607,2.03-4.295" transform="translate(-70.369 -113.118)" fill="#b7d0ef"/>
        <path id="Trazado_774750" data-name="Trazado 774750" d="M229.774,366.937a5.88,5.88,0,0,0-3.969-1.651.315.315,0,0,0,0,.629,5.223,5.223,0,0,1,3.525,1.466c.29.282.735-.162.444-.444" transform="translate(-72.39 -117.262)" fill="#fff"/>
        <path id="Trazado_774751" data-name="Trazado 774751" d="M231.7,364.175a3.946,3.946,0,0,0-3.134-1.582.314.314,0,0,0,0,.628,3.288,3.288,0,0,1,2.59,1.271.325.325,0,0,0,.43.113.317.317,0,0,0,.113-.43" transform="translate(-73.276 -116.398)" fill="#fff"/>
        <path id="Trazado_774752" data-name="Trazado 774752" d="M247.34,182.444l20.281,2.6s2.493,14.123,1.508,27.409l-2.757,36.489c4.093,9.921-.766,29.389.032,48.787l-7.886.75-.04-4.965a65.02,65.02,0,0,0-2.033-15.4,53.345,53.345,0,0,1-.172-25.282L248.1,206.208Z" transform="translate(-79.4 -58.567)" fill="#e27f69"/>
        <path id="Trazado_774753" data-name="Trazado 774753" d="M238.908,184.046l-17.33-.834s-4.476,17.093-2.238,30.226l6.2,36.064c-3.136,10.264,3.544,29.185,4.587,48.571a12.272,12.272,0,0,0,7.921,0l-.43-4.946a65.02,65.02,0,0,1,.567-15.522,53.353,53.353,0,0,0-2.222-25.185l3.834-45.846Z" transform="translate(-70.21 -58.814)" fill="#e27f69"/>
        <g id="Grupo_1064907" data-name="Grupo 1064907" transform="translate(148.504 124.398)" opacity="0.38" style="mix-blend-mode: multiply;isolation: isolate">
          <g id="Grupo_1064906" data-name="Grupo 1064906">
            <g id="Grupo_1064905" data-name="Grupo 1064905" clip-path="url(#clip-path-12)">
              <path id="Trazado_774754" data-name="Trazado 774754" d="M230.4,243.191a12.065,12.065,0,0,0,6.4-.729l3-35.886-.888-22.529-17.33-.834s-4.476,17.093-2.238,30.226l4.934,28.705c2.046.3,4.064.773,6.122,1.047" transform="translate(-218.714 -183.212)" fill="#e27f69"/>
            </g>
          </g>
        </g>
        <path id="Trazado_774755" data-name="Trazado 774755" d="M247.34,182.444l20.281,2.6s2.493,14.123,1.508,27.409l-2.757,36.489c4.093,9.921-.766,29.389.032,48.787-1.934,1.877-4.506,2.257-7.886.75l-.04-4.965a65.02,65.02,0,0,0-2.033-15.4,53.345,53.345,0,0,1-.172-25.282L248.1,206.208Z" transform="translate(-79.4 -58.567)" fill="#e27f69"/>
        <g id="Grupo_1064910" data-name="Grupo 1064910" transform="translate(167.94 123.877)" opacity="0.38" style="mix-blend-mode: multiply;isolation: isolate">
          <g id="Grupo_1064909" data-name="Grupo 1064909">
            <g id="Grupo_1064908" data-name="Grupo 1064908" clip-path="url(#clip-path-13)">
              <path id="Trazado_774756" data-name="Trazado 774756" d="M266.845,242.688l2.285-30.233c.985-13.286-1.508-27.409-1.508-27.409l-20.281-2.6.757,23.764,6.36,36.279a19.23,19.23,0,0,0,12.387.2" transform="translate(-247.34 -182.444)" fill="#e27f69"/>
            </g>
          </g>
        </g>
        <path id="Trazado_774757" data-name="Trazado 774757" d="M259.938,212.456,259.6,238.1c-1.018.251-2.029.465-3.029.635-.213.037-.427.075-.634.1-.352.056-.7.107-1.049.145-.214.031-.421.056-.629.075a31.025,31.025,0,0,1-11.943-.955l-2.526-23.585V238.1a38.655,38.655,0,0,1-14.607.8c-.208-.019-.415-.044-.629-.082-.345-.044-.7-.094-1.049-.157-.213-.025-.421-.063-.634-.1-.779-.139-1.558-.289-2.344-.465l-1.194-24.9c-2.237-13.132,2.243-30.226,2.243-30.226l2.275.107.641.031,1,.05.641.031,12.051.578-.044-1.319,15.512,1.991.666.081,1.062.139.665.088,2.375.3s2.495,14.124,1.508,27.412" transform="translate(-70.21 -58.567)" fill="#ff9fa8"/>
        <path id="Trazado_774758" data-name="Trazado 774758" d="M224.136,220.487q.368,9.236.729,18.471c-.213-.025-.421-.062-.634-.1q-.132-3.459-.27-6.9c-.339-8.614-.786-17.233-.98-25.847-.177-7.622.075-15.386,2.23-22.738l.641.032a56.019,56.019,0,0,0-2.067,12.063,122.146,122.146,0,0,0-.139,12.226c.132,4.266.32,8.532.49,12.8" transform="translate(-71.565 -58.864)" fill="#fff"/>
        <path id="Trazado_774759" data-name="Trazado 774759" d="M226.6,220.526q.368,9.349.735,18.71c-.208-.019-.415-.044-.629-.081q-.142-3.581-.282-7.163c-.34-8.614-.786-17.233-.98-25.847-.176-7.6.075-15.33,2.205-22.656l.641.031a56.429,56.429,0,0,0-2.042,11.981,121.959,121.959,0,0,0-.139,12.226c.132,4.266.32,8.532.49,12.8" transform="translate(-72.355 -58.903)" fill="#fff"/>
        <path id="Trazado_774760" data-name="Trazado 774760" d="M275.173,206.855c-.195,8.614-.641,17.234-.98,25.848q-.141,3.534-.276,7.074c-.213.037-.427.075-.634.1q.368-9.321.735-18.642c.17-4.265.365-8.531.49-12.8.12-4.077.151-8.161-.132-12.227a58.241,58.241,0,0,0-1.646-10.511l.665.088c1.74,6.848,1.942,14.017,1.778,21.066" transform="translate(-87.55 -59.613)" fill="#fff"/>
        <path id="Trazado_774761" data-name="Trazado 774761" d="M272.684,206.751c-.195,8.614-.641,17.234-.98,25.848q-.141,3.656-.289,7.319c-.214.031-.421.056-.628.075q.367-9.434.741-18.862c.17-4.265.358-8.531.49-12.8a122.174,122.174,0,0,0-.138-12.227,57.9,57.9,0,0,0-1.7-10.731l.666.081c1.79,6.924,2,14.168,1.835,21.292" transform="translate(-86.733 -59.509)" fill="#fff"/>
        <path id="Trazado_774762" data-name="Trazado 774762" d="M250.052,230.362c-.064.066-.124.136-.183.206l2.45,22.913a29.515,29.515,0,0,0,4.02.851c-1.625-8.091-4.153-15.975-6.283-23.944,0-.009,0-.017,0-.026" transform="translate(-80.212 -73.95)" fill="#ff9fa8"/>
        <g id="Grupo_1064913" data-name="Grupo 1064913" transform="translate(149.191 123.876)" opacity="0.32" style="mix-blend-mode: multiply;isolation: isolate">
          <g id="Grupo_1064912" data-name="Grupo 1064912">
            <g id="Grupo_1064911" data-name="Grupo 1064911" clip-path="url(#clip-path-14)">
              <path id="Trazado_774763" data-name="Trazado 774763" d="M259.936,194.393c-4.938,2.576-12.27,4.21-20.456,4.21-7.8,0-14.834-1.483-19.753-3.851a102.4,102.4,0,0,1,2.18-11.787l16.611.8-.044-1.32,20.281,2.6s.673,3.814,1.181,9.349" transform="translate(-219.726 -182.443)" fill="#ff9fa8"/>
            </g>
          </g>
        </g>
        <path id="Trazado_774764" data-name="Trazado 774764" d="M283.5,364.148a16.946,16.946,0,0,0-5.124-4.329,25.408,25.408,0,0,1-4.276-3.5c-1.444-1.526-2.347-2.4-2.428-4.083-1.993,1.9-4.59,2.235-7.886.75l-.03,5.314a3.746,3.746,0,0,0,3.225,3.732,5.816,5.816,0,0,1,3.339,1.669c2.009,2.036,5.649,6.324,10.752,5.731a3.406,3.406,0,0,0,2.428-5.285" transform="translate(-84.67 -113.073)" fill="#b7d0ef"/>
        <path id="Trazado_774765" data-name="Trazado 774765" d="M280.838,367.563a5.882,5.882,0,0,1,3.969-1.651.315.315,0,0,1,0,.629,5.222,5.222,0,0,0-3.525,1.466c-.29.282-.735-.162-.444-.444" transform="translate(-90.123 -117.463)" fill="#fff"/>
        <path id="Trazado_774766" data-name="Trazado 774766" d="M279.329,364.8a3.946,3.946,0,0,1,3.133-1.582.314.314,0,0,1,0,.628,3.287,3.287,0,0,0-2.591,1.271.324.324,0,0,1-.43.113.317.317,0,0,1-.113-.43" transform="translate(-89.654 -116.599)" fill="#fff"/>
        <path id="Trazado_774767" data-name="Trazado 774767" d="M215.414,97.652v18.692h-3.2l-.081.143-8.406,15.447c.251,7.184-3.049,25.958-4.169,32.116-.231,1.263-.373,2-.373,2l-4.278,3.239-2.967-19.677a34.345,34.345,0,0,1,.876-13.349,62.353,62.353,0,0,1,3.687-22.3q.642-1.711,1.426-3.361c.6-8.99,5.9-12.52,14.5-12.2Z" transform="translate(-61.522 -31.348)" fill="#e27f69"/>
        <path id="Trazado_774768" data-name="Trazado 774768" d="M217.71,97.652v18.692h-3.2l-.081.143c-2.485-.686-4.936-1.263-7.347-1.684a53.49,53.49,0,0,0-8.284-.849q.642-1.711,1.426-3.361c.6-8.99,5.9-12.52,14.5-12.2Z" transform="translate(-63.818 -31.348)" fill="#b7d0ef"/>
        <g id="Grupo_1064916" data-name="Grupo 1064916" transform="translate(136.619 83.455)" opacity="0.25" style="mix-blend-mode: multiply;isolation: isolate">
          <g id="Grupo_1064915" data-name="Grupo 1064915">
            <g id="Grupo_1064914" data-name="Grupo 1064914" clip-path="url(#clip-path-15)">
              <path id="Trazado_774769" data-name="Trazado 774769" d="M206.8,140.043c.251,7.184-3.049,25.958-4.169,32.116L201.5,164.7a34.216,34.216,0,0,1,.883-13.349c.007-9.187,1.419-17.851,5.106-25.659a21,21,0,0,1,.367-2.777c2.41.421,4.862,1,7.347,1.684Z" transform="translate(-201.21 -122.912)" fill="#e27f69"/>
            </g>
          </g>
        </g>
        <g id="Grupo_1064919" data-name="Grupo 1064919" transform="translate(143.266 75.098)" opacity="0.27" style="mix-blend-mode: multiply;isolation: isolate">
          <g id="Grupo_1064918" data-name="Grupo 1064918">
            <g id="Grupo_1064917" data-name="Grupo 1064917" clip-path="url(#clip-path-16)">
              <path id="Trazado_774770" data-name="Trazado 774770" d="M221.626,110.6v9.912h-3.2l-.081.13c-2.485-.626-4.936-1.153-7.347-1.537,1.209-5.312,4.943-7.94,10.626-8.5" transform="translate(-211 -110.603)" fill="#b7d0ef"/>
            </g>
          </g>
        </g>
        <path id="Trazado_774771" data-name="Trazado 774771" d="M195.908,199.748l-1.646,7.637A4.834,4.834,0,0,0,194.91,211l3.657,5.749a.434.434,0,0,0,.8-.259,6.63,6.63,0,0,0-.76-2.292l2.321,2.465a.435.435,0,0,0,.741-.2c.175-.77-.268-2.751-3.7-7.846l2.329-5.054-.636-8.2Z" transform="translate(-62.326 -62.712)" fill="#e27f69"/>
        <g id="Grupo_1064922" data-name="Grupo 1064922" transform="translate(133.73 142.687)" opacity="0.38" style="mix-blend-mode: multiply;isolation: isolate">
          <g id="Grupo_1064921" data-name="Grupo 1064921">
            <g id="Grupo_1064920" data-name="Grupo 1064920" clip-path="url(#clip-path-17)">
              <path id="Trazado_774772" data-name="Trazado 774772" d="M198.872,213.362l.24-.521a.765.765,0,0,1-.191-.7c.03-.118.068-.235.1-.353a1.108,1.108,0,0,1-.02-.144c0-.051-.01-.1-.015-.152-.054-.35-.141-.693-.2-1.042-.015-.085-.025-.167-.036-.25a3.177,3.177,0,0,1-1.465-.05c-.179,1.966-.668,3.935.058,5.855a10.123,10.123,0,0,0,1.786,2.6c.218.276.424.561.614.853-.071-.161-.146-.327-.235-.508l2.321,2.465a.435.435,0,0,0,.741-.2c.174-.77-.268-2.751-3.7-7.846" transform="translate(-196.955 -210.148)" fill="#e27f69"/>
            </g>
          </g>
        </g>
        <g id="Grupo_1064925" data-name="Grupo 1064925" transform="translate(133.388 143.202)" opacity="0.33" style="mix-blend-mode: multiply;isolation: isolate">
          <g id="Grupo_1064924" data-name="Grupo 1064924">
            <g id="Grupo_1064923" data-name="Grupo 1064923" clip-path="url(#clip-path-18)">
              <path id="Trazado_774773" data-name="Trazado 774773" d="M199.346,219.428a.238.238,0,0,1-.2-.105l-2.653-3.916a.24.24,0,0,1-.041-.144l.166-4.127a.24.24,0,0,1,.479.019l-.164,4.049,2.61,3.851a.239.239,0,0,1-.2.373" transform="translate(-196.452 -210.906)" fill="#e27f69"/>
            </g>
          </g>
        </g>
        <path id="Trazado_774774" data-name="Trazado 774774" d="M200.557,197.128l2.021,1.251a4.2,4.2,0,0,1,1.922,2.826l.359,2a5.052,5.052,0,0,0,.6,1.634l2.3,3.988a.708.708,0,0,1-.12.883c-.614.539-2.17.637-5.534-5.285l-4.463,13.751c-.512.505-.817-.275-.834-1.029-.058-2.647.85-5.4,1.816-9.95l-1.388-10.069Z" transform="translate(-63.177 -63.281)" fill="#e27f69"/>
        <path id="Trazado_774775" data-name="Trazado 774775" d="M258.115,149.92l.652,5.561-36.889-2.92-.088-2.268a84.672,84.672,0,0,0,.319-14.069l-2.478-40.9c.822-.177,1.616-.367,2.4-.577a.566.566,0,0,0,.1-.027c.353-.088.713-.19,1.059-.292.285-.081.564-.163.842-.251.686-.21,1.351-.435,2-.672a28.933,28.933,0,0,0,4.094-1.826,18.192,18.192,0,0,0,5.052-3.945h9.859a11.756,11.756,0,0,0,3.605,2.689,27.027,27.027,0,0,0,2.519,1.127.47.47,0,0,0,.054.02c2.084.815,4.413,1.494,6.742,2.173.129.041.244.075.353.109a1.469,1.469,0,0,0,.163.048c.109.034.21.068.292.088l-1.2,43.727a85.27,85.27,0,0,0,.55,12.208" transform="translate(-70.504 -28.163)" fill="#e27f69"/>
        <path id="Trazado_774776" data-name="Trazado 774776" d="M258.115,151.191l.652,5.561c-11.509,8.229-24.05,8.861-37.752.876l.53-3.986q.132-1.039.244-2.078a84.672,84.672,0,0,0,.319-14.069l-2.478-40.9c.822-.177,1.616-.367,2.4-.577a.566.566,0,0,0,.1-.027c.353-.088.713-.19,1.059-.292.285-.081.564-.163.842-.251.686-.21,1.351-.435,2-.672a28.934,28.934,0,0,0,4.094-1.826c.177,7.673,4.95,11.183,9.974,11.183,5.12,0,8.555-3.646,8.555-11.631,0-.272-.007-.543-.014-.808a27.027,27.027,0,0,0,2.519,1.127.467.467,0,0,0,.054.02c1.2.373,4.855,1.575,6.742,2.173.129.041.244.075.353.109a1.471,1.471,0,0,0,.163.048c.109.034.21.068.292.088l-1.2,43.727a85.27,85.27,0,0,0,.55,12.208" transform="translate(-70.504 -29.434)" fill="#b7d0ef"/>
        <g id="Grupo_1064934" data-name="Grupo 1064934" transform="translate(149.659 75.098)" opacity="0.23">
          <g id="Grupo_1064933" data-name="Grupo 1064933">
            <g id="Grupo_1064932" data-name="Grupo 1064932" clip-path="url(#clip-path-19)">
              <g id="Grupo_1064928" data-name="Grupo 1064928" style="mix-blend-mode: multiply;isolation: isolate">
                <g id="Grupo_1064927" data-name="Grupo 1064927">
                  <g id="Grupo_1064926" data-name="Grupo 1064926" clip-path="url(#clip-path-20)">
                    <path id="Trazado_774777" data-name="Trazado 774777" d="M223.644,110.6c-.2.075-.394.153-.593.221a9.5,9.5,0,0,1-2.634.623l1.944,32.121a84.792,84.792,0,0,1-.32,14.067c-.075.691-.157,1.389-.245,2.08l-.528,3.984q1.81,1.055,3.6,1.91.349-8.539.057-17.1Z" transform="translate(-220.416 -110.603)" fill="#b7d0ef"/>
                  </g>
                </g>
              </g>
              <g id="Grupo_1064931" data-name="Grupo 1064931" transform="translate(34.619 2.117)" style="mix-blend-mode: multiply;isolation: isolate">
                <g id="Grupo_1064930" data-name="Grupo 1064930">
                  <g id="Grupo_1064929" data-name="Grupo 1064929" clip-path="url(#clip-path-21)">
                    <path id="Trazado_774778" data-name="Trazado 774778" d="M274.187,146.058l.854-31.117a31.223,31.223,0,0,1-3-1.216l-.033,0-.583,38.054q-.113,7.219.232,14.426a40.29,40.29,0,0,0,3.726-2.375l-.653-5.56a84.3,84.3,0,0,1-.547-12.207" transform="translate(-271.402 -113.721)" fill="#b7d0ef"/>
                  </g>
                </g>
              </g>
            </g>
          </g>
        </g>
        <path id="Trazado_774779" data-name="Trazado 774779" d="M252.1,83.037v.035c-.01.242-.012.916-.011,1.618a5.143,5.143,0,0,1-2.6,4.57c-1.607.866-3.315.593-5.107-.633a5.249,5.249,0,0,1-2.253-4.237l-.265-13.827a3.839,3.839,0,0,1,3.987-3.679l3.075.129a3.841,3.841,0,0,1,3.672,4Z" transform="translate(-77.643 -21.47)" fill="#e27f69"/>
        <g id="Grupo_1064937" data-name="Grupo 1064937" transform="translate(165.949 46.473)" opacity="0.25" style="mix-blend-mode: multiply;isolation: isolate">
          <g id="Grupo_1064936" data-name="Grupo 1064936">
            <g id="Grupo_1064935" data-name="Grupo 1064935" clip-path="url(#clip-path-22)">
              <path id="Trazado_774780" data-name="Trazado 774780" d="M252.917,83.539c-.143-.007.136-.015,0-.028a9.6,9.6,0,0,1-8.5-9.668l.1-2.441c.074-1.721,1.845-3.041,3.96-2.952l3.075.128a4.535,4.535,0,0,1,.786.1,3.814,3.814,0,0,1,1.081,2.835Z" transform="translate(-244.407 -68.445)" fill="#e27f69"/>
            </g>
          </g>
        </g>
        <path id="Trazado_774781" data-name="Trazado 774781" d="M258.268,56.753c-.719,2.626-2.739,3.4-4.626,3.861a.359.359,0,0,1-.071.013,17.01,17.01,0,0,1-.881,1.475c-.2.3-.411.6-.632.889-.046.062-.1.124-.145.187a19.276,19.276,0,0,1-2.032,2.273,10.636,10.636,0,0,1-5.69,3.321c-.067.008-.133.025-.2.033-.132.02-.253.058-.382.075-.091.012-.174,0-.257.016s-.145,0-.221.009c-.17.008-.336.012-.511,0a4.17,4.17,0,0,1-.5-.05c-.075,0-.145-.016-.216-.024-.088-.017-.179-.017-.262-.037-.124-.029-.245-.071-.37-.109-.067-.012-.132-.033-.191-.05a10.674,10.674,0,0,1-5.39-3.782c-.166-.187-.333-.382-.49-.578a16.8,16.8,0,0,1-1.06-1.425c-.05-.062-.092-.133-.133-.2-.233-.345-.453-.694-.652-1.052a18.36,18.36,0,0,1-.944-1.866c-.062-.021-.128-.041-.191-.067-1.8-.611-3.682-1.567-4.16-4.189-.4-2.14.295-4.908,2.065-4.987a2.6,2.6,0,0,1,1.321.353,3.276,3.276,0,0,1,.37.212.282.282,0,0,0,.017-.05,23.092,23.092,0,0,1,5.336-9.642c1.018-1.251,2.161-.769,3.392-1.217a5.541,5.541,0,0,1,1.995-.507,12.1,12.1,0,0,1,1.351.008,12.285,12.285,0,0,1,1.342.1,5.7,5.7,0,0,1,1.945.674c1.188.557,2.261.166,3.171,1.492a23.248,23.248,0,0,1,4.409,9.534v0c.042.191.079.382.113.573l.12-.062h0a2.879,2.879,0,0,1,1.609-.362c1.762.225,2.22,3.047,1.642,5.145" transform="translate(-73.177 -12.722)" fill="#e27f69"/>
        <g id="Grupo_1064940" data-name="Grupo 1064940" transform="translate(180.484 41.322)" opacity="0.38" style="mix-blend-mode: multiply;isolation: isolate">
          <g id="Grupo_1064939" data-name="Grupo 1064939">
            <g id="Grupo_1064938" data-name="Grupo 1064938" clip-path="url(#clip-path-23)">
              <path id="Trazado_774782" data-name="Trazado 774782" d="M268.39,60.874a4.1,4.1,0,0,0-2.45,4.806.191.191,0,0,0,.368-.1,3.672,3.672,0,0,1-.111-.962s.007,0,.011-.007c.446-.54,1.264-.44,1.878-.6a.191.191,0,0,0-.1-.368,5.855,5.855,0,0,0-1.736.43,3.689,3.689,0,0,1,2.243-2.833c.225-.091.127-.46-.1-.368" transform="translate(-265.814 -60.859)" fill="#e27f69"/>
            </g>
          </g>
        </g>
        <g id="Grupo_1064943" data-name="Grupo 1064943" transform="translate(156.426 40.637)" opacity="0.38" style="mix-blend-mode: multiply;isolation: isolate">
          <g id="Grupo_1064942" data-name="Grupo 1064942">
            <g id="Grupo_1064941" data-name="Grupo 1064941" clip-path="url(#clip-path-23)">
              <path id="Trazado_774783" data-name="Trazado 774783" d="M230.611,59.863a4.1,4.1,0,0,1,2.45,4.806.191.191,0,0,1-.368-.1,3.67,3.67,0,0,0,.111-.962s-.007,0-.011-.007c-.446-.54-1.264-.44-1.878-.6a.191.191,0,0,1,.1-.368,5.853,5.853,0,0,1,1.737.43,3.689,3.689,0,0,0-2.243-2.833c-.225-.091-.127-.46.1-.368" transform="translate(-230.382 -59.849)" fill="#e27f69"/>
            </g>
          </g>
        </g>
        <g id="Grupo_1064946" data-name="Grupo 1064946" transform="translate(169.918 40.423)" opacity="0.38" style="mix-blend-mode: multiply;isolation: isolate">
          <g id="Grupo_1064945" data-name="Grupo 1064945">
            <g id="Grupo_1064944" data-name="Grupo 1064944" clip-path="url(#clip-path-25)">
              <path id="Trazado_774784" data-name="Trazado 774784" d="M252.921,65.2c-.342-1.818-.746-3.626-1.119-5.439-.068-.33-.6-.293-.53.042q.457,2.217.914,4.434c.121.587.475,1.48.139,2.041a1.238,1.238,0,0,1-1.7.281c-.3-.164-.53.314-.232.478a1.858,1.858,0,0,0,1.927,0,1.676,1.676,0,0,0,.6-1.834" transform="translate(-250.253 -59.535)" fill="#e27f69"/>
            </g>
          </g>
        </g>
        <g id="Grupo_1064949" data-name="Grupo 1064949" transform="translate(166.379 48.612)" opacity="0.38" style="mix-blend-mode: multiply;isolation: isolate">
          <g id="Grupo_1064948" data-name="Grupo 1064948">
            <g id="Grupo_1064947" data-name="Grupo 1064947" clip-path="url(#clip-path-26)">
              <path id="Trazado_774785" data-name="Trazado 774785" d="M245.645,71.7a4.5,4.5,0,0,0,4.043,1.312.33.33,0,0,1,.1.652,5.184,5.184,0,0,1-4.661-1.555c-.291-.31.228-.716.517-.409" transform="translate(-245.041 -71.595)" fill="#e27f69"/>
            </g>
          </g>
        </g>
        <path id="Trazado_774786" data-name="Trazado 774786" d="M259.042,57.667l0,0a.323.323,0,0,1,.092-.039,3.759,3.759,0,0,0-3.218-1.645,1.116,1.116,0,0,0-.57.147.478.478,0,0,0-.221.511.647.647,0,0,0,.516.364,5.818,5.818,0,0,0,1.367.081,3.979,3.979,0,0,1,1.357.154,1.726,1.726,0,0,1,.674.433" transform="translate(-81.895 -17.968)" fill="#5c2521"/>
        <path id="Trazado_774787" data-name="Trazado 774787" d="M245.927,55.9a1.113,1.113,0,0,0-.569-.155,3.751,3.751,0,0,0-3.33,1.756,1.85,1.85,0,0,1,.493-.363c.012-.005.022-.007.033-.011a1.833,1.833,0,0,1,.34-.156,3.986,3.986,0,0,1,1.359-.137,5.825,5.825,0,0,0,1.367-.062.649.649,0,0,0,.521-.357.479.479,0,0,0-.215-.514" transform="translate(-77.694 -17.894)" fill="#5c2521"/>
        <path id="Trazado_774788" data-name="Trazado 774788" d="M244.269,61.157c.005.662.378,1.2.832,1.208s.817-.526.811-1.188-.378-1.2-.832-1.209-.816.527-.811,1.189" transform="translate(-78.414 -19.251)" fill="#5c2521"/>
        <path id="Trazado_774789" data-name="Trazado 774789" d="M256.274,61.793c.005.662.378,1.2.832,1.208s.817-.526.811-1.188-.378-1.2-.832-1.208-.816.526-.811,1.188" transform="translate(-82.268 -19.455)" fill="#5c2521"/>
        <g id="Grupo_1064952" data-name="Grupo 1064952" transform="translate(160.782 43.114)" opacity="0.38" style="mix-blend-mode: multiply;isolation: isolate">
          <g id="Grupo_1064951" data-name="Grupo 1064951">
            <g id="Grupo_1064950" data-name="Grupo 1064950" clip-path="url(#clip-path-27)">
              <path id="Trazado_774790" data-name="Trazado 774790" d="M241.87,66.035a2.536,2.536,0,1,1-2.537-2.537,2.537,2.537,0,0,1,2.537,2.537" transform="translate(-236.797 -63.498)" fill="#ff9fa8"/>
            </g>
          </g>
        </g>
        <g id="Grupo_1064955" data-name="Grupo 1064955" transform="translate(175.231 43.114)" opacity="0.38" style="mix-blend-mode: multiply;isolation: isolate">
          <g id="Grupo_1064954" data-name="Grupo 1064954">
            <g id="Grupo_1064953" data-name="Grupo 1064953" clip-path="url(#clip-path-27)">
              <path id="Trazado_774791" data-name="Trazado 774791" d="M263.151,66.035a2.536,2.536,0,1,1-2.537-2.537,2.537,2.537,0,0,1,2.537,2.537" transform="translate(-258.078 -63.498)" fill="#ff9fa8"/>
            </g>
          </g>
        </g>
        <path id="Trazado_774792" data-name="Trazado 774792" d="M258.037,47.465a13.975,13.975,0,0,0-2.918-7.618,7.949,7.949,0,0,0-7.347-2.892,6.4,6.4,0,0,0-2.281.94,5.174,5.174,0,0,0-.621.488,5.122,5.122,0,0,0-.621-.488,6.4,6.4,0,0,0-2.281-.94,7.949,7.949,0,0,0-7.347,2.892,13.975,13.975,0,0,0-2.918,7.618l.473.893a4.749,4.749,0,0,0,.089,3.343,3.038,3.038,0,0,0,2.662,1.836,2.252,2.252,0,0,0,2.226-2.121c-.018-1.079-.932-2.12-.554-3.131A2.213,2.213,0,0,1,239,47.233a9.22,9.22,0,0,0,2.8.253,2.571,2.571,0,0,0,1.92-1.789c.193-.689.206-1.611.881-1.848a1.13,1.13,0,0,1,.26-.051,1.116,1.116,0,0,1,.26.051c.676.238.689,1.159.881,1.848a2.573,2.573,0,0,0,1.921,1.789,9.221,9.221,0,0,0,2.8-.253,2.214,2.214,0,0,1,2.406,1.052c.378,1.011-.537,2.052-.555,3.131a2.253,2.253,0,0,0,2.227,2.121,3.036,3.036,0,0,0,2.661-1.836,4.745,4.745,0,0,0,.089-3.343Z" transform="translate(-74.38 -11.824)" fill="#5c2521"/>
        <path id="Trazado_774793" data-name="Trazado 774793" d="M450.736,110.688l5.989,1.249c3.4,6.009,17.946,16.927,17.946,16.927-4.868,7.408-5.629,13.023-5.629,13.023l-8.684,10.769.285.21,5.69,4.169a52.528,52.528,0,0,0,19.446-24.627,9.389,9.389,0,0,0-.17-7.027c-3.361-7.639-13.858-16.988-13.858-16.988C467.025,95.4,458.809,91.636,454.423,90.55a4.047,4.047,0,0,0-4.522,1.976,18.316,18.316,0,0,0-1.127,2.424,17.31,17.31,0,0,0,1.962,15.739" transform="translate(-143.711 -29.029)" fill="#ffc7af"/>
        <g id="Grupo_1064958" data-name="Grupo 1064958" transform="translate(303.967 65.921)" opacity="0.24" style="mix-blend-mode: multiply;isolation: isolate">
          <g id="Grupo_1064957" data-name="Grupo 1064957">
            <g id="Grupo_1064956" data-name="Grupo 1064956" clip-path="url(#clip-path-29)">
              <path id="Trazado_774794" data-name="Trazado 774794" d="M450.736,112.826l5.989,1.249C460.126,120.084,474.67,131,474.67,131c-4.868,7.408-5.629,13.023-5.629,13.023l-8.684,10.769.285.21a46.409,46.409,0,0,0,15.888-20.852,8.333,8.333,0,0,0-.149-6.226c-2.981-6.763-12.269-15.04-12.269-15.04-4.183-11.5-11.454-14.836-15.338-15.8a17.31,17.31,0,0,0,1.962,15.739" transform="translate(-447.678 -97.087)" fill="#ffc7af"/>
            </g>
          </g>
        </g>
        <g id="Grupo_1064961" data-name="Grupo 1064961" transform="translate(309.071 122.729)" opacity="0.48" style="mix-blend-mode: multiply;isolation: isolate">
          <g id="Grupo_1064960" data-name="Grupo 1064960">
            <g id="Grupo_1064959" data-name="Grupo 1064959" clip-path="url(#clip-path-30)">
              <path id="Trazado_774795" data-name="Trazado 774795" d="M455.195,182l2.607-.49-2.538-.76Z" transform="translate(-455.195 -180.753)" fill="#ffc7af"/>
            </g>
          </g>
        </g>
        <path id="Trazado_774796" data-name="Trazado 774796" d="M345.972,115.533a10.329,10.329,0,0,0,3.8.048,28.706,28.706,0,0,0,3.925-.781,20.335,20.335,0,0,0,12.588-4.081l7.727-.38a28.513,28.513,0,0,0,3.789-9.268,18.323,18.323,0,0,0-.421-9.709s-8.7-3-17.606,8.026c0,0-7.313,2.512-8.908,4.427Z" transform="translate(-111.062 -29.208)" fill="#ffc7af"/>
        <g id="Grupo_1064964" data-name="Grupo 1064964" transform="translate(238.705 70.581)" opacity="0.24" style="mix-blend-mode: multiply;isolation: isolate">
          <g id="Grupo_1064963" data-name="Grupo 1064963">
            <g id="Grupo_1064962" data-name="Grupo 1064962" clip-path="url(#clip-path-31)">
              <path id="Trazado_774797" data-name="Trazado 774797" d="M351.562,119.741a28.7,28.7,0,0,0,3.925-.781,20.335,20.335,0,0,0,12.588-4.081l7.727-.38a28.513,28.513,0,0,0,3.789-9.268c-.081-.306-.177-.6-.278-.91,0,0-8.7-2.994-17.606,8.026,0,0-2.479.854-4.865,1.944a10.388,10.388,0,0,0-5.279,5.45" transform="translate(-351.562 -103.95)" fill="#ffc7af"/>
            </g>
          </g>
        </g>
        <path id="Trazado_774798" data-name="Trazado 774798" d="M362.148,73.915c-2.014-1.867-5.1-1.327-5.1-1.327l-7.117-6.943c-4.079.521-5.207,9.113-5.207,9.113-3.372,10.864-7.078,17.51-7.232,29.181a3.048,3.048,0,0,0,2.66,3.06l3.1.4,5.208-5.189a13.685,13.685,0,0,0,.721-7.651,32.046,32.046,0,0,1,.71-15.063c.373-1.242.652-2.043.652-2.043a8.495,8.495,0,0,0,4.687-1.735,7.819,7.819,0,0,1,5.968-.28.917.917,0,0,0,.954-1.517" transform="translate(-108.34 -21.073)" fill="#ffc7af"/>
        <g id="Grupo_1064967" data-name="Grupo 1064967" transform="translate(241.045 45.096)" opacity="0.35" style="mix-blend-mode: multiply;isolation: isolate">
          <g id="Grupo_1064966" data-name="Grupo 1064966">
            <g id="Grupo_1064965" data-name="Grupo 1064965" clip-path="url(#clip-path-32)">
              <path id="Trazado_774799" data-name="Trazado 774799" d="M355.015,67.855a14.278,14.278,0,0,0,.731,2.43,12.914,12.914,0,0,1,.149,5.588,21.224,21.224,0,0,1,6.949-3.062c-.109.013-.173.023-.173.023l-6.58-6.419c-.593.327-1.157.693-1.076,1.439" transform="translate(-355.008 -66.416)" fill="#ffc7af"/>
            </g>
          </g>
        </g>
        <path id="Trazado_774800" data-name="Trazado 774800" d="M367.4,69.644l-1.826,2.417a1.66,1.66,0,0,1-1.141.686c-.72.048-1.08-.081-1.229-.285-.36-.475.428-1.358.428-1.358l1.691-3.137a1.3,1.3,0,0,1,.808-.645h.007a1.264,1.264,0,0,1,1.541.788.025.025,0,0,1,.007.02,1.7,1.7,0,0,1-.285,1.514" transform="translate(-116.562 -21.597)" fill="#ffc7af"/>
        <g id="Grupo_1064970" data-name="Grupo 1064970" transform="translate(246.544 45.724)" opacity="0.13" style="mix-blend-mode: multiply;isolation: isolate">
          <g id="Grupo_1064969" data-name="Grupo 1064969">
            <g id="Grupo_1064968" data-name="Grupo 1064968" clip-path="url(#clip-path-33)">
              <path id="Trazado_774801" data-name="Trazado 774801" d="M366.18,69.379l-1.82,2.417a1.626,1.626,0,0,1-1.141.686h-.02c-.36-.475.428-1.358.428-1.358l1.691-3.137a1.3,1.3,0,0,1,.808-.645h.007a1.19,1.19,0,0,1,.333.509c0,.007.007.014.007.02a1.688,1.688,0,0,1-.292,1.507" transform="translate(-363.106 -67.342)" fill="#ffc7af"/>
            </g>
          </g>
        </g>
        <path id="Trazado_774802" data-name="Trazado 774802" d="M364.363,68.076l-1.433,2.73a1.71,1.71,0,0,1-1.134.889c-.9.2-1.358.109-1.569-.1-.441-.435.17-1.378.17-1.378l1.365-4.352a2.705,2.705,0,0,1,.469-.129,1.927,1.927,0,0,1,2.037.794,1.48,1.48,0,0,1,.1,1.541" transform="translate(-115.587 -21.088)" fill="#ffc7af"/>
        <g id="Grupo_1064973" data-name="Grupo 1064973" transform="translate(244.481 44.651)" opacity="0.13" style="mix-blend-mode: multiply;isolation: isolate">
          <g id="Grupo_1064972" data-name="Grupo 1064972">
            <g id="Grupo_1064971" data-name="Grupo 1064971" clip-path="url(#clip-path-34)">
              <path id="Trazado_774803" data-name="Trazado 774803" d="M363.066,67.948l-1.433,2.723a1.679,1.679,0,0,1-1.127.889c-.1.02-.19.041-.278.061-.441-.435.17-1.378.17-1.378l1.365-4.352a2.7,2.7,0,0,1,.469-.129,2.017,2.017,0,0,1,.74.638,1.462,1.462,0,0,1,.1,1.548" transform="translate(-360.068 -65.762)" fill="#ffc7af"/>
            </g>
          </g>
        </g>
        <path id="Trazado_774804" data-name="Trazado 774804" d="M357.506,69.79s-1.014,2.09,1.611,1.15a1.644,1.644,0,0,0,.985-.971l1-2.687a1.285,1.285,0,0,0-.329-1.4,2.121,2.121,0,0,0-2.577-.256Z" transform="translate(-114.703 -20.967)" fill="#ffc7af"/>
        <g id="Grupo_1064976" data-name="Grupo 1064976" transform="translate(242.611 44.448)" opacity="0.13" style="mix-blend-mode: multiply;isolation: isolate">
          <g id="Grupo_1064975" data-name="Grupo 1064975">
            <g id="Grupo_1064974" data-name="Grupo 1064974" clip-path="url(#clip-path-35)">
              <path id="Trazado_774805" data-name="Trazado 774805" d="M359.84,67.329l-1,2.689a1.656,1.656,0,0,1-.985.971c-.115.041-.224.075-.326.109-.462-.346-.02-1.263-.02-1.263l.693-4.162a2.82,2.82,0,0,1,.536-.21h.007a2.257,2.257,0,0,1,.767.468,1.285,1.285,0,0,1,.333,1.4" transform="translate(-357.314 -65.462)" fill="#ffc7af"/>
            </g>
          </g>
        </g>
        <path id="Trazado_774806" data-name="Trazado 774806" d="M355.579,65.6a2.963,2.963,0,0,1,2.2.228.68.68,0,0,1,.321.733l-.51,2.429a1.143,1.143,0,0,1-.8.862l-1.178.349c-1.181-.369,0-1.8,0-1.8l.206-1.215" transform="translate(-113.988 -21.024)" fill="#ffc7af"/>
        <path id="Trazado_774807" data-name="Trazado 774807" d="M387.808,247.41c-1.811-21.759-3.569-31.542,3.989-59.774l18.352.91,18.1-.91s7.015,10.888,4.629,24.021l-6.611,36.064c3.345,10.264-3.779,29.185-4.89,48.571a7.057,7.057,0,0,1-8.447,0l.46-4.945a61.03,61.03,0,0,0-.606-15.522,50.184,50.184,0,0,1,2.369-25.185l-5.437-49.966c-2.3,14.328-5.938,36.612-11.141,50.628a50.123,50.123,0,0,1-.185,25.283,61.229,61.229,0,0,0-2.168,15.4l-.043,4.964c-3.244,1.264-6.033.965-8.409-.75.851-19.4-4.331-38.865.035-48.786" transform="translate(-123.923 -60.234)" fill="#ffc7af"/>
        <g id="Grupo_1064979" data-name="Grupo 1064979" transform="translate(262.231 127.402)" opacity="0.35" style="mix-blend-mode: multiply;isolation: isolate">
          <g id="Grupo_1064978" data-name="Grupo 1064978">
            <g id="Grupo_1064977" data-name="Grupo 1064977" clip-path="url(#clip-path-36)">
              <path id="Trazado_774808" data-name="Trazado 774808" d="M387.568,243.933c-1.745-20.433-3.045-28.915,4.285-56.3l18.352.91,18.1-.91s7.015,10.888,4.628,24.021l-5.528,30.163c-4.379,1.305-8.76,1.676-13.14.144l-4.492-41.29c-1.915,11.922-4.756,29.349-8.654,42.941-2.014,1.911-13.543,1.8-13.555.318" transform="translate(-386.21 -187.636)" fill="#ffc7af"/>
            </g>
          </g>
        </g>
        <path id="Trazado_774809" data-name="Trazado 774809" d="M425.373,347.663c2.958,1.826,5.78,1.915,8.447,0-.084,1.688.787,2.639,2.165,4.295a26.369,26.369,0,0,0,4.186,3.887,17.469,17.469,0,0,1,5,4.795,3.409,3.409,0,0,1-3.11,5.031c-5.479.108-8.909-4.505-10.837-6.723a6.27,6.27,0,0,0-3.376-1.977,3.776,3.776,0,0,1-3.047-4.02Z" transform="translate(-136.362 -111.605)" fill="#ff9fa8"/>
        <path id="Trazado_774810" data-name="Trazado 774810" d="M441.976,363.853a5.026,5.026,0,0,1,4.68-2.307.361.361,0,0,1,.362.339.354.354,0,0,1-.362.34A4.306,4.306,0,0,0,442.6,364.2c-.228.381-.853.039-.625-.343" transform="translate(-141.865 -116.055)" fill="#fff"/>
        <path id="Trazado_774811" data-name="Trazado 774811" d="M439.365,361.058a6.628,6.628,0,0,1,1.875-1.865,2.818,2.818,0,0,1,2.57-.183c.416.2.05.783-.365.587a2.091,2.091,0,0,0-1.945.246,6.061,6.061,0,0,0-1.51,1.558.387.387,0,0,1-.5.122.33.33,0,0,1-.13-.464" transform="translate(-141.026 -115.173)" fill="#fff"/>
        <path id="Trazado_774812" data-name="Trazado 774812" d="M369.721,359.432a17.787,17.787,0,0,1,5.464-4.329,26.838,26.838,0,0,0,4.56-3.5c1.539-1.526,2.5-2.4,2.589-4.083a9.642,9.642,0,0,0,8.409.75l.032,5.314a3.833,3.833,0,0,1-3.44,3.732,6.364,6.364,0,0,0-3.56,1.669c-2.142,2.036-6.023,6.324-11.465,5.73a3.374,3.374,0,0,1-2.589-5.285" transform="translate(-118.482 -111.56)" fill="#ff9fa8"/>
        <path id="Trazado_774813" data-name="Trazado 774813" d="M381.152,357.215a5.463,5.463,0,0,1,4.208,1.9.335.335,0,0,1,0,.48.382.382,0,0,1-.512,0,4.758,4.758,0,0,0-3.7-1.7.34.34,0,1,1,0-.679" transform="translate(-122.243 -114.671)" fill="#fff"/>
        <path id="Trazado_774814" data-name="Trazado 774814" d="M377.794,359.327a5.232,5.232,0,0,1,4.365,2.507c.221.384-.4.728-.625.342a4.486,4.486,0,0,0-3.739-2.171.34.34,0,1,1,0-.679" transform="translate(-121.165 -115.349)" fill="#fff"/>
        <path id="Trazado_774815" data-name="Trazado 774815" d="M385.338,233.382c.443.13.879.276,1.321.391.007.007.007.007.015.007.225.054.443.107.668.153.383.1.766.176,1.149.245.233.046.466.084.691.122a32.816,32.816,0,0,0,6.434.429,17.936,17.936,0,0,0,4.775-.667c.5-.153,3.633-.276,3.633-.276s3.747-22.859,5.414-34.124l3.506,32.906a38.481,38.481,0,0,0,4.722.858,40.872,40.872,0,0,0,7.605.023c.24-.016.473-.039.706-.069.4-.039.788-.084,1.164-.138.232-.031.465-.062.691-.107a14.943,14.943,0,0,0,2.725-.659l2.327-29.281c2.47-14.821-4.8-27.113-4.8-27.113h-.015l-.7.038-1.118.062-.706.038-16.491-3.735L394.234,176.3l-.714-.038-1.148-.062-.706-.038-1.389-.077c-6.667,27.128-6.337,39.167-4.94,57.3" transform="translate(-123.435 -55.371)" fill="#b7d0ef"/>
        <g id="Grupo_1064982" data-name="Grupo 1064982" transform="translate(263.529 117.116)" opacity="0.25" style="mix-blend-mode: multiply;isolation: isolate">
          <g id="Grupo_1064981" data-name="Grupo 1064981">
            <g id="Grupo_1064980" data-name="Grupo 1064980" clip-path="url(#clip-path-37)">
              <path id="Trazado_774816" data-name="Trazado 774816" d="M388.122,191.295a153.144,153.144,0,0,0,31.233,2.933c5.249,0,10.314-.217,15.06-.618a44.96,44.96,0,0,0-5.181-17.525h-.014l-.7.034-1.114.061-.706.041-16.493-3.734L395.394,176.3l-.713-.034-1.154-.061-.7-.041-1.392-.075c-1.392,5.663-2.478,10.674-3.313,15.209" transform="translate(-388.122 -172.487)" fill="#b7d0ef"/>
            </g>
          </g>
        </g>
        <path id="Trazado_774817" data-name="Trazado 774817" d="M447.293,234.945c.233-.031.466-.061.691-.107.03-.513.053-1.027.075-1.532.5-10.522,1.111-21.051,1.449-31.588.255-7.977.172-16.085-1.291-23.933l-.7.039a78.627,78.627,0,0,1,1.246,10.866c.27,4.974.172,9.97-.022,14.951-.2,5.211-.473,10.422-.713,15.633q-.372,7.84-.736,15.672" transform="translate(-143.588 -57.071)" fill="#fff"/>
        <path id="Trazado_774818" data-name="Trazado 774818" d="M444.54,235.2c.24-.016.473-.038.705-.069.023-.6.053-1.211.083-1.816.5-10.522,1.112-21.059,1.449-31.588a112.518,112.518,0,0,0-1.262-23.8l-.705.039a79.869,79.869,0,0,1,1.224,10.729c.263,4.974.173,9.97-.015,14.951-.2,5.211-.48,10.422-.728,15.64q-.372,7.955-.751,15.909" transform="translate(-142.704 -57.118)" fill="#fff"/>
        <path id="Trazado_774819" data-name="Trazado 774819" d="M387.672,235.51c.007.007.007.007.015.007.225.054.443.107.668.153.248-5.479.488-10.981.729-16.476.24-5.211.443-10.422.72-15.633.263-4.981.616-9.963,1.344-14.89a79.956,79.956,0,0,1,2.237-10.736l-.706-.039c-2.169,7.656-2.988,15.718-3.461,23.68-.631,10.522-.976,21.059-1.441,31.588-.038.782-.068,1.564-.105,2.345" transform="translate(-124.448 -57.108)" fill="#fff"/>
        <path id="Trazado_774820" data-name="Trazado 774820" d="M390.37,235.963c.233.046.466.084.691.122q.361-8.357.743-16.7c.225-5.219.428-10.437.7-15.64.27-4.982.638-9.963,1.352-14.89a78.819,78.819,0,0,1,2.26-10.775l-.714-.038c-2.169,7.671-3,15.74-3.476,23.71-.623,10.522-.976,21.067-1.441,31.6-.037.874-.075,1.74-.113,2.613" transform="translate(-125.314 -57.155)" fill="#fff"/>
        <path id="Trazado_774821" data-name="Trazado 774821" d="M384.512,154.126a26.547,26.547,0,0,0,3.809,1.894c11.78,4.8,30.548,4.291,41.343-.041a24.222,24.222,0,0,0,3.734-1.854l-4.515-12.358a29.018,29.018,0,0,1-.081-19.691l5.147-14.449-.455-19.7c-1.27-.075-2.485-.177-3.633-.312-6.77-.774-11.529-2.505-15.033-5.072h-9.166a38.987,38.987,0,0,1-14.34,4.712,26.847,26.847,0,0,1-3.015.2l-1.928,20.173,4.142,15.121a28.945,28.945,0,0,1-.9,18.075Z" transform="translate(-123.434 -26.499)" fill="#ff9fa8"/>
        <g id="Grupo_1064985" data-name="Grupo 1064985" transform="translate(300.968 61.12)" opacity="0.25" style="mix-blend-mode: multiply;isolation: isolate">
          <g id="Grupo_1064984" data-name="Grupo 1064984">
            <g id="Grupo_1064983" data-name="Grupo 1064983" clip-path="url(#clip-path-38)">
              <path id="Trazado_774822" data-name="Trazado 774822" d="M443.262,134.891a37.862,37.862,0,0,0,1.514,10.613l3.748,12.874a24.225,24.225,0,0,0,3.734-1.854l-4.515-12.358a29.018,29.018,0,0,1-.081-19.691l5.147-14.449-.455-19.7c-1.27-.075-2.485-.177-3.633-.312l.054,3.171a107.3,107.3,0,0,1-4.074,31.356,37.989,37.989,0,0,0-1.439,10.348" transform="translate(-443.262 -90.017)" fill="#ff9fa8"/>
            </g>
          </g>
        </g>
        <g id="Grupo_1064988" data-name="Grupo 1064988" transform="translate(261.078 60.76)" opacity="0.25" style="mix-blend-mode: multiply;isolation: isolate">
          <g id="Grupo_1064987" data-name="Grupo 1064987">
            <g id="Grupo_1064986" data-name="Grupo 1064986" clip-path="url(#clip-path-39)">
              <path id="Trazado_774823" data-name="Trazado 774823" d="M384.512,156.353a26.549,26.549,0,0,0,3.809,1.894l4.264-13.926a38.191,38.191,0,0,0,.767-19.229l-.143-.659a107.628,107.628,0,0,1-2.173-31.186l.285-3.762a26.846,26.846,0,0,1-3.015.2l-1.928,20.173,4.142,15.121a28.945,28.945,0,0,1-.9,18.075Z" transform="translate(-384.512 -89.487)" fill="#ff9fa8"/>
            </g>
          </g>
        </g>
        <path id="Trazado_774824" data-name="Trazado 774824" d="M413.695,75.692v.039c.012.274.014,1.037.012,1.831a5.822,5.822,0,0,0,2.941,5.172c1.82.981,3.752.672,5.779-.716a5.94,5.94,0,0,0,2.55-4.795l.3-15.649a4.343,4.343,0,0,0-4.513-4.163l-3.48.145a4.347,4.347,0,0,0-4.156,4.525Z" transform="translate(-132.619 -18.429)" fill="#ffc7af"/>
        <g id="Grupo_1064991" data-name="Grupo 1064991" transform="translate(280.506 40.182)" opacity="0.35" style="mix-blend-mode: multiply;isolation: isolate">
          <g id="Grupo_1064990" data-name="Grupo 1064990">
            <g id="Grupo_1064989" data-name="Grupo 1064989" clip-path="url(#clip-path-40)">
              <path id="Trazado_774825" data-name="Trazado 774825" d="M413.695,76.261c.162-.009-.155-.017,0-.031a10.864,10.864,0,0,0,9.623-10.943l-.114-2.762c-.083-1.947-2.089-3.442-4.482-3.341l-3.48.145a5.043,5.043,0,0,0-.889.112,4.316,4.316,0,0,0-1.224,3.209Z" transform="translate(-413.125 -59.179)" fill="#ffc7af"/>
            </g>
          </g>
        </g>
        <path id="Trazado_774826" data-name="Trazado 774826" d="M399.815,50.473c.719,2.626,2.739,3.4,4.626,3.861a.358.358,0,0,0,.071.013,17.013,17.013,0,0,0,.881,1.475c.2.3.411.6.632.889.045.062.1.124.145.187a19.276,19.276,0,0,0,2.032,2.273,10.637,10.637,0,0,0,5.69,3.321c.067.008.133.025.2.033.132.02.253.058.382.075.091.012.174,0,.257.016s.145,0,.221.009c.17.008.336.012.511,0a4.309,4.309,0,0,0,.5-.05c.075,0,.145-.017.216-.025.088-.017.179-.017.262-.037.124-.029.245-.071.37-.109a1.9,1.9,0,0,0,.191-.05,10.674,10.674,0,0,0,5.391-3.782c.166-.187.333-.382.49-.578a16.8,16.8,0,0,0,1.06-1.425c.05-.062.092-.133.133-.2.233-.345.453-.694.652-1.052a18.212,18.212,0,0,0,.943-1.866c.062-.021.129-.041.191-.067,1.8-.611,3.682-1.566,4.16-4.189.4-2.14-.295-4.908-2.065-4.987a2.6,2.6,0,0,0-1.321.353,3.277,3.277,0,0,0-.37.212.289.289,0,0,1-.017-.05,23.092,23.092,0,0,0-5.336-9.642c-1.018-1.251-2.161-.769-3.392-1.217a5.541,5.541,0,0,0-1.995-.507,12.1,12.1,0,0,0-1.351.008,12.453,12.453,0,0,0-1.342.1,5.7,5.7,0,0,0-1.945.674c-1.188.557-2.261.166-3.171,1.492a23.257,23.257,0,0,0-4.41,9.534v0q-.062.286-.112.574c-.041-.021-.079-.042-.12-.062h0a2.879,2.879,0,0,0-1.609-.362c-1.763.225-2.22,3.047-1.642,5.145" transform="translate(-128.271 -10.706)" fill="#ffc7af"/>
        <path id="Trazado_774827" data-name="Trazado 774827" d="M400.452,35.193a3.911,3.911,0,0,0,2.338-1.16c1.112-1.154,1.4-2.848,2.068-4.3a8.607,8.607,0,0,1,7.623-4.887l-.878-2c1.141,1.454,3.1,1.972,4.944,2.157a19.755,19.755,0,0,1,5.462.827c1.716.688,3.214,2.411,2.884,4.23a3.428,3.428,0,0,1,2.677,1.449,13.089,13.089,0,0,1,2.357,9.841,11.508,11.508,0,0,1-1.9,4.862,10.812,10.812,0,0,1-4.557,3.414,24.171,24.171,0,0,0,1.207-3.287,2.515,2.515,0,0,1-1.439.055,5.06,5.06,0,0,0,1.019-2.959,3.8,3.8,0,0,1-4.069-.753A5.578,5.578,0,0,1,418.532,39a12.2,12.2,0,0,1-5.145,2.715,29.2,29.2,0,0,1-7.127.759,3.984,3.984,0,0,0,1.526-.994,11.77,11.77,0,0,1-1.406.337,6.6,6.6,0,0,0-.428,1.81,3.929,3.929,0,0,0,.856,2.877.906.906,0,0,1-.988-.8,8.86,8.86,0,0,0-.32,2.324,3.376,3.376,0,0,0,.786,2.166,2.042,2.042,0,0,1-1.318-.56c-2.462-1.848-2.947-5.541-2.567-8.388.025-.187.061-.371.1-.553a5.91,5.91,0,0,1,.063-5.381,2.276,2.276,0,0,1-2.114-.118" transform="translate(-128.551 -7.333)" fill="#985235"/>
        <g id="Grupo_1065000" data-name="Grupo 1065000" transform="translate(276.427 39.478)" opacity="0.37">
          <g id="Grupo_1064999" data-name="Grupo 1064999">
            <g id="Grupo_1064998" data-name="Grupo 1064998" clip-path="url(#clip-path-41)">
              <g id="Grupo_1064994" data-name="Grupo 1064994" transform="translate(14.449)" opacity="0.38" style="mix-blend-mode: multiply;isolation: isolate">
                <g id="Grupo_1064993" data-name="Grupo 1064993">
                  <g id="Grupo_1064992" data-name="Grupo 1064992" clip-path="url(#clip-path-27)">
                    <path id="Trazado_774828" data-name="Trazado 774828" d="M428.4,60.68a2.536,2.536,0,1,0,2.537-2.537A2.537,2.537,0,0,0,428.4,60.68" transform="translate(-428.398 -58.143)" fill="#ff8a4f"/>
                  </g>
                </g>
              </g>
              <g id="Grupo_1064997" data-name="Grupo 1064997" opacity="0.38" style="mix-blend-mode: multiply;isolation: isolate">
                <g id="Grupo_1064996" data-name="Grupo 1064996">
                  <g id="Grupo_1064995" data-name="Grupo 1064995" clip-path="url(#clip-path-27)">
                    <path id="Trazado_774829" data-name="Trazado 774829" d="M407.117,60.68a2.536,2.536,0,1,0,2.537-2.537,2.537,2.537,0,0,0-2.537,2.537" transform="translate(-407.117 -58.143)" fill="#ff8a4f"/>
                  </g>
                </g>
              </g>
            </g>
          </g>
        </g>
        <g id="Grupo_1065003" data-name="Grupo 1065003" transform="translate(273.347 37.059)" opacity="0.35" style="mix-blend-mode: multiply;isolation: isolate">
          <g id="Grupo_1065002" data-name="Grupo 1065002">
            <g id="Grupo_1065001" data-name="Grupo 1065001" clip-path="url(#clip-path-44)">
              <path id="Trazado_774830" data-name="Trazado 774830" d="M402.81,54.594a4.1,4.1,0,0,1,2.45,4.806.191.191,0,0,1-.368-.1,3.673,3.673,0,0,0,.111-.962s-.007,0-.011-.007c-.446-.54-1.264-.44-1.878-.6a.191.191,0,0,1,.1-.368,5.854,5.854,0,0,1,1.736.43,3.688,3.688,0,0,0-2.243-2.833c-.225-.091-.127-.46.1-.368" transform="translate(-402.581 -54.58)" fill="#ffc7af"/>
            </g>
          </g>
        </g>
        <g id="Grupo_1065006" data-name="Grupo 1065006" transform="translate(283.997 36.159)" opacity="0.35" style="mix-blend-mode: multiply;isolation: isolate">
          <g id="Grupo_1065005" data-name="Grupo 1065005">
            <g id="Grupo_1065004" data-name="Grupo 1065004" clip-path="url(#clip-path-45)">
              <path id="Trazado_774831" data-name="Trazado 774831" d="M418.318,58.923c.342-1.818.746-3.626,1.119-5.439.069-.33.6-.293.53.041q-.457,2.218-.914,4.435c-.121.587-.475,1.48-.139,2.041a1.238,1.238,0,0,0,1.7.28c.3-.164.53.315.232.478a1.856,1.856,0,0,1-1.927,0,1.676,1.676,0,0,1-.6-1.834" transform="translate(-418.267 -53.255)" fill="#ffc7af"/>
            </g>
          </g>
        </g>
        <g id="Grupo_1065009" data-name="Grupo 1065009" transform="translate(285.242 44.348)" opacity="0.35" style="mix-blend-mode: multiply;isolation: isolate">
          <g id="Grupo_1065008" data-name="Grupo 1065008">
            <g id="Grupo_1065007" data-name="Grupo 1065007" clip-path="url(#clip-path-26)">
              <path id="Trazado_774832" data-name="Trazado 774832" d="M424.51,65.424a4.5,4.5,0,0,1-4.043,1.312.33.33,0,0,0-.1.652,5.185,5.185,0,0,0,4.661-1.555c.291-.309-.228-.716-.517-.409" transform="translate(-420.1 -65.315)" fill="#ffc7af"/>
            </g>
          </g>
        </g>
        <path id="Trazado_774833" data-name="Trazado 774833" d="M411.581,51.387l0,0a.324.324,0,0,0-.092-.039A3.759,3.759,0,0,1,414.7,49.7a1.117,1.117,0,0,1,.57.147.478.478,0,0,1,.221.511.646.646,0,0,1-.516.364,5.818,5.818,0,0,1-1.367.081,3.979,3.979,0,0,0-1.357.154,1.726,1.726,0,0,0-.674.433" transform="translate(-132.092 -15.952)" fill="#5c2521"/>
        <path id="Trazado_774834" data-name="Trazado 774834" d="M424.646,49.624a1.113,1.113,0,0,1,.569-.155,3.751,3.751,0,0,1,3.33,1.756,1.851,1.851,0,0,0-.493-.363.318.318,0,0,0-.033-.011,1.832,1.832,0,0,0-.34-.156,3.986,3.986,0,0,0-1.359-.137,5.826,5.826,0,0,1-1.368-.062.65.65,0,0,1-.521-.357.48.48,0,0,1,.215-.514" transform="translate(-136.243 -15.878)" fill="#5c2521"/>
        <path id="Trazado_774835" data-name="Trazado 774835" d="M427.48,54.877c-.006.662-.378,1.2-.832,1.208s-.817-.526-.811-1.188.378-1.2.832-1.208.816.526.811,1.188" transform="translate(-136.7 -17.235)" fill="#5c2521"/>
        <path id="Trazado_774836" data-name="Trazado 774836" d="M415.475,55.514c-.005.662-.378,1.2-.832,1.208s-.817-.526-.811-1.188.378-1.2.832-1.208.816.526.811,1.188" transform="translate(-132.846 -17.439)" fill="#5c2521"/>
        <path id="Trazado_774837" data-name="Trazado 774837" d="M439.911,187.733c-1.236.971-1.3,1.65-1.066,2.084a1.1,1.1,0,0,0,1.3.455l1.6-.53,3.164-1.039,4.936-.869-2.533,3.585c-.17.91.7,1.236,1.392,1.351a1.605,1.605,0,0,0,1.351-.407l2.186-2.336.414.278-2.152,2.675a.751.751,0,0,0,.278.869,1.542,1.542,0,0,0,2.1-.238l1.9-2.125,1.073-.244c8.27-1.046,7.476-5.975,7.476-5.975l-5.948-3.891-4.963-.143-3.714-1.358.631,1.847a13.982,13.982,0,0,0-5.88,1.283l-4.488,2.743c-1.623,1.772.944,1.983.944,1.983" transform="translate(-140.742 -57.743)" fill="#ffc7af"/>
        <g id="Grupo_1065015" data-name="Grupo 1065015" transform="translate(298.853 122.134)" opacity="0.39" style="mix-blend-mode: multiply;isolation: isolate">
          <g id="Grupo_1065014" data-name="Grupo 1065014">
            <g id="Grupo_1065013" data-name="Grupo 1065013" clip-path="url(#clip-path-47)">
              <path id="Trazado_774838" data-name="Trazado 774838" d="M440.461,189.952a.317.317,0,0,0,.128-.027l5-2.223,3.459-1.278a.314.314,0,0,0-.217-.59l-3.478,1.285-5.018,2.231a.314.314,0,0,0,.128.6" transform="translate(-440.147 -181.783)" fill="#ffc7af"/>
              <g id="Grupo_1065012" data-name="Grupo 1065012" transform="translate(9.109)" opacity="0.5" style="mix-blend-mode: multiply;isolation: isolate">
                <g id="Grupo_1065011" data-name="Grupo 1065011">
                  <g id="Grupo_1065010" data-name="Grupo 1065010" clip-path="url(#clip-path-48)">
                    <path id="Trazado_774839" data-name="Trazado 774839" d="M453.562,179.877l.631,1.847,3.083-.489Z" transform="translate(-453.562 -179.877)" fill="#ffc7af"/>
                  </g>
                </g>
              </g>
            </g>
          </g>
        </g>
        <path id="Trazado_774840" data-name="Trazado 774840" d="M51.495,52.579a9.187,9.187,0,0,1,.9-12.205,2.22,2.22,0,0,1-1.374-.791,4.291,4.291,0,0,0,3.307-1.326,14.128,14.128,0,0,0,2.09-2.922,22.671,22.671,0,0,1,5.4-6.4,11.628,11.628,0,0,1,8-2.535,8.213,8.213,0,0,1,4.035,1.551,7.918,7.918,0,0,1,4.832,1.086c2.262,1.392,3.551,3.8,4.9,6.026s3.062,4.5,5.636,5.26l-1.578.265c3.009,2.731,4.456,7.345,2.41,10.825-.631,1.076-1.549,1.986-2.133,3.085a3.125,3.125,0,0,0,.057,3.48,3.93,3.93,0,0,1-2.929-1.3,7.091,7.091,0,0,1-2.819,5,6.735,6.735,0,0,0-1.852,1.586,1.355,1.355,0,0,0,.5,2.016,10.165,10.165,0,0,1-7.218-3.127,5.243,5.243,0,0,1-3.184,3.137,14.972,14.972,0,0,1-4.618.843c.081-.445-.375-.793-.775-1.03L59.91,62.027a3.658,3.658,0,0,1-3.152,1.051,2.527,2.527,0,0,0,1.126-2.45,5.563,5.563,0,0,0-1.124-2.565,3.563,3.563,0,0,1-2.792,1.04,3.16,3.16,0,0,0-.029-3.566,27.943,27.943,0,0,0-2.443-2.958" transform="translate(-15.92 -8.459)" fill="#5c2521"/>
        <path id="Trazado_774841" data-name="Trazado 774841" d="M45.992,243.383c-9.322-48.653.777-55.269.777-55.269l23.717,1.819,21.07.451s9.069,7.97-7,54.829v7.509c1.5,11.993-.986,30.5-5.155,49.364-2.727,2.433-5.369,2.5-7.922,0,1.2-22.182-5.547-27.436,1.211-48.313,0,0-5.938-22.847-5.482-38.9-1.8,15.956-10.672,38.652-10.672,38.652,3.756,21.62-3.664,25.872-5.594,48-2.879,2.119-5.486,1.678-7.842-1.114-1.475-19.264-1.331-37.934,1.837-49.6Z" transform="translate(-13.496 -60.387)" fill="#985235"/>
        <g id="Grupo_1065018" data-name="Grupo 1065018" transform="translate(28.546 127.727)" opacity="0.33" style="mix-blend-mode: multiply;isolation: isolate">
          <g id="Grupo_1065017" data-name="Grupo 1065017">
            <g id="Grupo_1065016" data-name="Grupo 1065016" clip-path="url(#clip-path-49)">
              <path id="Trazado_774842" data-name="Trazado 774842" d="M56.709,253.076a28.1,28.1,0,0,1-6.021.4,19.332,19.332,0,0,1-6.09-1.331c.109-.451.221-.895.338-1.327l1.057-7.435c-9.322-48.653.777-55.269.777-55.269l23.717,1.819,21.069.452s9.069,7.97-7,54.829v6.667a16.187,16.187,0,0,1-5.968,1.636,22.254,22.254,0,0,1-6.235-1.1c-1.249-5.125-5.534-23.812-5.143-37.54-1.658,14.656-9.268,34.983-10.5,38.2" transform="translate(-42.041 -188.114)" fill="#985235"/>
            </g>
          </g>
        </g>
        <path id="Trazado_774843" data-name="Trazado 774843" d="M42.6,248.647c.007.36,1.039.76,2.587,1.1.217.048.448.1.686.136.435.081.9.156,1.378.224.224.034.448.068.679.1a38.9,38.9,0,0,0,4.834.306,15.543,15.543,0,0,0,5.187-.7c.38-1.059.828-2.309,1.31-3.714.1-.278.2-.564.292-.856.978-2.845,2.078-6.24,3.144-9.872.115-.387.231-.788.346-1.181,1-3.483,1.969-7.163,2.743-10.769.081-.387.163-.774.244-1.168s.156-.774.231-1.161.143-.767.21-1.147.136-.767.2-1.141.129-.754.183-1.127c.149-.951.278-1.888.38-2.8-.339,11.971,2.879,27.723,4.536,34.954.618,1.236,7.245,1.548,12.072.489.238-.054.475-.109.706-.17.516-.136,1.012-.285,1.467-.455.258-.1.509-.2.74-.319a5.449,5.449,0,0,0,1.331-.835s5.086-33.331,5.805-41.6c1.181-13.491-2.309-16.554-2.309-16.554l-.815-.02-.72-.014-1.365-.027-.713-.014-17.457-.38-19.086-1.467-.74-.054-1.351-.1-.74-.061-1.8-.136s-3.028,1.989-4.237,11.767c-1,8.087.041,48.772.041,48.772" transform="translate(-13.522 -60.386)" fill="#ff9fa8"/>
        <g id="Grupo_1065021" data-name="Grupo 1065021" transform="translate(39.239 156.173)" opacity="0.46" style="mix-blend-mode: multiply;isolation: isolate">
          <g id="Grupo_1065020" data-name="Grupo 1065020">
            <g id="Grupo_1065019" data-name="Grupo 1065019" clip-path="url(#clip-path-50)">
              <path id="Trazado_774844" data-name="Trazado 774844" d="M57.791,263.958a15.543,15.543,0,0,0,5.187-.7c.38-1.059.828-2.309,1.31-3.714.1-.278.2-.564.292-.856.978-2.845,2.078-6.24,3.144-9.872.115-.387.231-.788.346-1.181,1-3.483,1.969-7.163,2.743-10.769.081-.387.163-.774.244-1.168s.156-.774.231-1.161.143-.767.21-1.147.136-.767.2-1.141.129-.754.183-1.127.115-.747.163-1.114c-.822,1.86-13.77,33.06-14.252,33.949" transform="translate(-57.791 -230.009)" fill="#ff9fa8"/>
            </g>
          </g>
        </g>
        <path id="Trazado_774845" data-name="Trazado 774845" d="M106.761,250.752c.258-.1.509-.2.74-.319q.611-3.4,1.181-6.817c1.582-9.519,2.926-19.086,3.6-28.714.326-4.766.516-9.553.428-14.333a34.544,34.544,0,0,0-1.2-9.146l-.72-.014a37.107,37.107,0,0,1,1.249,11.088,213.991,213.991,0,0,1-2.146,28.64c-.889,6.559-1.976,13.1-3.137,19.616" transform="translate(-34.272 -61.445)" fill="#fff"/>
        <path id="Trazado_774846" data-name="Trazado 774846" d="M103.561,251.358c.238-.054.475-.109.706-.17q.682-3.789,1.317-7.591c1.582-9.519,2.933-19.086,3.6-28.714.326-4.766.523-9.553.428-14.333a34,34,0,0,0-1.209-9.187l-.713-.014a36.751,36.751,0,0,1,1.256,11.129,212.87,212.87,0,0,1-2.146,28.64c-.917,6.77-2.044,13.512-3.239,20.241" transform="translate(-33.245 -61.426)" fill="#fff"/>
        <path id="Trazado_774847" data-name="Trazado 774847" d="M45.682,242.445c.136,2.458.285,4.909.448,7.367.217.048.448.1.686.136-.441-6.674-.815-13.349-.978-20.037a213.258,213.258,0,0,1,1-28.707c.482-4.4,1.181-8.956,3.436-12.833l-.74-.061a30.292,30.292,0,0,0-3.144,10.9c-.618,4.739-.951,9.526-1.141,14.3-.394,9.642-.109,19.3.428,28.932" transform="translate(-14.468 -60.45)" fill="#fff"/>
        <path id="Trazado_774848" data-name="Trazado 774848" d="M48.711,242.746c.136,2.5.292,5,.455,7.5.224.034.448.068.679.1-.435-6.7-.815-13.41-.978-20.132a213.337,213.337,0,0,1,1-28.707c.489-4.427,1.188-9.01,3.47-12.9l-.74-.054a29.9,29.9,0,0,0-3.178,10.972c-.618,4.739-.951,9.519-1.147,14.293-.387,9.648-.1,19.3.435,28.932" transform="translate(-15.44 -60.527)" fill="#fff"/>
        <path id="Trazado_774849" data-name="Trazado 774849" d="M45.271,354.624c-2.966,1.646-5.621,1.5-7.843-1.114-.16,1.683-1.1,2.509-2.613,3.967a25.472,25.472,0,0,1-4.434,3.3,16.935,16.935,0,0,0-5.318,4.088,3.405,3.405,0,0,0,2.18,5.392c5.071.829,8.9-3.286,11.006-5.227a5.822,5.822,0,0,1,3.413-1.513,3.746,3.746,0,0,0,3.394-3.578Z" transform="translate(-7.826 -113.482)" fill="#b7d0ef"/>
        <path id="Trazado_774850" data-name="Trazado 774850" d="M108.972,96.519c8.6-.339,13.9,3.4,14.5,12.933,3.688,8.275,5.1,17.455,5.113,27.2a38.389,38.389,0,0,1,.879,14.149L126.5,171.654l-4.278-3.428s-6.514-24.431-6.218-33.6l-6.815-19.078h-3.194V95.734Z" transform="translate(-34.026 -30.732)" fill="#985235"/>
        <g id="Grupo_1065024" data-name="Grupo 1065024" transform="translate(71.968 79.033)" opacity="0.28" style="mix-blend-mode: multiply;isolation: isolate">
          <g id="Grupo_1065023" data-name="Grupo 1065023">
            <g id="Grupo_1065022" data-name="Grupo 1065022" clip-path="url(#clip-path-51)">
              <path id="Trazado_774851" data-name="Trazado 774851" d="M113.818,120.436c2.3,3.272,2.821,7.484,3.9,11.294a67.754,67.754,0,0,1,2.034,7.818,64.915,64.915,0,0,1,.363,7.643c.194,5.137,1.852,10.1,1.562,15.274a63.647,63.647,0,0,1-.814,7.038c-1.892-7.725-5.069-21.776-4.862-28.244l-6.814-19.079h-3.194V116.4a9.989,9.989,0,0,1,7.824,4.038" transform="translate(-105.994 -116.399)" fill="#985235"/>
            </g>
          </g>
        </g>
        <path id="Trazado_774852" data-name="Trazado 774852" d="M133.169,203.942l1.646,8.094a5.38,5.38,0,0,1-.647,3.83l-3.657,6.093a.432.432,0,0,1-.8-.274,7.333,7.333,0,0,1,.76-2.429l-2.321,2.613a.427.427,0,0,1-.741-.215c-.174-.815.268-2.915,3.7-8.316l-2.329-5.357.636-8.694Z" transform="translate(-40.889 -63.974)" fill="#985235"/>
        <g id="Grupo_1065027" data-name="Grupo 1065027" transform="translate(86.486 145.958)" opacity="0.38" style="mix-blend-mode: multiply;isolation: isolate">
          <g id="Grupo_1065026" data-name="Grupo 1065026">
            <g id="Grupo_1065025" data-name="Grupo 1065025" clip-path="url(#clip-path-52)">
              <path id="Trazado_774853" data-name="Trazado 774853" d="M131.1,218.372l-.24-.552a.846.846,0,0,0,.191-.744c-.03-.125-.068-.249-.1-.374a1.234,1.234,0,0,0,.02-.153c0-.054.01-.107.015-.161.054-.371.141-.735.2-1.1.015-.09.025-.177.036-.265a3,3,0,0,0,1.465-.053c.179,2.082.668,4.17-.058,6.205a10.788,10.788,0,0,1-1.786,2.752c-.218.293-.424.594-.615.905.071-.171.146-.348.235-.538l-2.321,2.613a.427.427,0,0,1-.741-.215c-.174-.816.268-2.916,3.7-8.316" transform="translate(-127.376 -214.965)" fill="#985235"/>
            </g>
          </g>
        </g>
        <g id="Grupo_1065030" data-name="Grupo 1065030" transform="translate(89.341 146.503)" opacity="0.33" style="mix-blend-mode: multiply;isolation: isolate">
          <g id="Grupo_1065029" data-name="Grupo 1065029">
            <g id="Grupo_1065028" data-name="Grupo 1065028" clip-path="url(#clip-path-53)">
              <path id="Trazado_774854" data-name="Trazado 774854" d="M131.819,224.8a.236.236,0,0,0,.2-.111l2.653-4.151a.267.267,0,0,0,.041-.153l-.166-4.374a.24.24,0,1,0-.479.02l.164,4.291-2.61,4.082a.264.264,0,0,0,.064.352.233.233,0,0,0,.134.043" transform="translate(-131.58 -215.768)" fill="#985235"/>
            </g>
          </g>
        </g>
        <path id="Trazado_774855" data-name="Trazado 774855" d="M126.862,201.166l-2.021,1.326a4.466,4.466,0,0,0-1.922,3l-.359,2.119a5.568,5.568,0,0,1-.6,1.732l-2.3,4.227a.783.783,0,0,0,.121.936c.614.571,2.169.675,5.534-5.6l4.463,14.574c.512.536.818-.291.835-1.09.058-2.8-.85-5.722-1.816-10.546l1.388-10.672Z" transform="translate(-38.38 -64.577)" fill="#985235"/>
        <path id="Trazado_774856" data-name="Trazado 774856" d="M22.5,143.229a33.763,33.763,0,0,0,.292,4.454l2.634,22.481,6.131-2.363s.353-1.969.856-5.018c1.365-8.161,3.836-24.043,3.619-30.344l8.637-20.322h3.191l-1.134-11.624-.462-4.76-2.974.74c-8.61-.319-13.9,3.212-14.5,12.2-3.694,7.808-5.106,16.472-5.113,25.659a34.3,34.3,0,0,0-1.175,8.895" transform="translate(-7.221 -30.732)" fill="#985235"/>
        <g id="Grupo_1065033" data-name="Grupo 1065033" transform="translate(23.197 80.113)" opacity="0.36" style="mix-blend-mode: multiply;isolation: isolate">
          <g id="Grupo_1065032" data-name="Grupo 1065032">
            <g id="Grupo_1065031" data-name="Grupo 1065031" clip-path="url(#clip-path-54)">
              <path id="Trazado_774857" data-name="Trazado 774857" d="M43.156,118.287q.284-.089.576-.155a5.973,5.973,0,0,1,3.5.284,3.139,3.139,0,0,1,.967.568,1.119,1.119,0,0,1,.223.278H48.41l-8.637,20.322c.217,6.3-2.254,22.182-3.619,30.344l-1.718-14.68a31.454,31.454,0,0,1-.272-4.149,31.885,31.885,0,0,1,1.093-8.277,59.045,59.045,0,0,1,3.063-19.761,7.626,7.626,0,0,1,4.835-4.775" transform="translate(-34.165 -117.99)" fill="#985235"/>
            </g>
          </g>
        </g>
        <path id="Trazado_774858" data-name="Trazado 774858" d="M23.817,207.17v3.645a2.444,2.444,0,0,0,.556,1.556c.079.1.166.2.259.312.213.249.455.536.727.837.477.543,1.043,1.145,1.608,1.681l.007.007a11.566,11.566,0,0,0,1.233,1.035l.36.272,1.645,1.248a5.128,5.128,0,0,0,1.4.191h.007a1.767,1.767,0,0,0,.786-.191,1.727,1.727,0,0,0,.176.007c.6.029,2.438-.037.734-1.894l-2.129-2.555-.059-5.653,1.153-2.386s-.786,6.042.94,7.51A.735.735,0,0,0,34.4,212.2a53.386,53.386,0,0,1,.352-6.7,4.083,4.083,0,0,0-.286-2.232l-2.488-5.887.367-9.506-6.5,9.506v2.364Z" transform="translate(-7.646 -60.309)" fill="#985235"/>
        <g id="Grupo_1065036" data-name="Grupo 1065036" transform="translate(16.986 144.882)" opacity="0.33" style="mix-blend-mode: multiply;isolation: isolate">
          <g id="Grupo_1065035" data-name="Grupo 1065035">
            <g id="Grupo_1065034" data-name="Grupo 1065034" clip-path="url(#clip-path-55)">
              <path id="Trazado_774859" data-name="Trazado 774859" d="M30.892,222.179a7.928,7.928,0,0,0,2.922,3.964h.007a1.767,1.767,0,0,0,.786-.191,1.723,1.723,0,0,0,.176.007c-1.329-1.021-2.745-2.275-3.172-3.906,0-.058-.205-2.452-.205-4.867a21.177,21.177,0,0,1,.213-3.377.367.367,0,0,0-.3-.426.376.376,0,0,0-.426.3,44.919,44.919,0,0,0,0,8.493" transform="translate(-26.832 -213.38)" fill="#985235"/>
              <path id="Trazado_774860" data-name="Trazado 774860" d="M27.136,216.092l.3,6.945a.462.462,0,0,0,.052.169l.543.932.007.007a11.574,11.574,0,0,0,1.233,1.035l.36.272a.356.356,0,0,0-.044-.125l-1.417-2.415-.3-6.849a.367.367,0,1,0-.734.029" transform="translate(-25.697 -214.128)" fill="#985235"/>
              <path id="Trazado_774861" data-name="Trazado 774861" d="M25.017,217.786v4.383c.213.249.455.536.727.837a.245.245,0,0,0,.007-.073v-5.146a.367.367,0,1,0-.734,0" transform="translate(-25.017 -214.677)" fill="#985235"/>
            </g>
          </g>
        </g>
        <path id="Trazado_774862" data-name="Trazado 774862" d="M46.355,122.708c-3.3-7.9-.9-18.836-.9-18.836V94.078l16.893-6.127H74.53l15.9,6.127v9.793s2.4,10.939-.9,18.836c0,0,10.4,17.64,1.745,35.522,0,0-6.63,4.95-23.333,4.349-16.7.6-23.333-4.349-23.333-4.349-8.654-17.882,1.745-35.522,1.745-35.522" transform="translate(-13.216 -28.234)" fill="#985235"/>
        <path id="Trazado_774863" data-name="Trazado 774863" d="M44.614,159.1s6.627,4.95,23.33,4.346c16.7.6,23.33-4.346,23.33-4.346,8.657-17.884-1.745-35.524-1.745-35.524,3.307-7.9.9-18.835.9-18.835V94.947l-11.142-4.3a15.476,15.476,0,0,1,.38,3.449c0,7.53-5.276,13.641-11.787,13.641S56.089,101.628,56.089,94.1a15.667,15.667,0,0,1,.312-3.123L45.456,94.947v9.791s-2.4,10.938.9,18.835c0,0-10.4,17.64-1.745,35.524" transform="translate(-13.217 -29.1)" fill="#b7d0ef"/>
        <g id="Grupo_1065039" data-name="Grupo 1065039" transform="translate(73.487 64.713)" opacity="0.29" style="mix-blend-mode: multiply;isolation: isolate">
          <g id="Grupo_1065038" data-name="Grupo 1065038">
            <g id="Grupo_1065037" data-name="Grupo 1065037" clip-path="url(#clip-path-56)">
              <path id="Trazado_774864" data-name="Trazado 774864" d="M108.231,124.159s7.1,17.443,3.483,37.086a9.379,9.379,0,0,0,1.086-.652c8.657-17.884-1.745-35.524-1.745-35.524,3.307-7.9.9-18.835.9-18.835V96.443l-2.94-1.134v5.133s2.091,13.777-.788,23.717" transform="translate(-108.231 -95.309)" fill="#b7d0ef"/>
            </g>
          </g>
        </g>
        <g id="Grupo_1065042" data-name="Grupo 1065042" transform="translate(27.955 64.781)" opacity="0.29" style="mix-blend-mode: multiply;isolation: isolate">
          <g id="Grupo_1065041" data-name="Grupo 1065041">
            <g id="Grupo_1065040" data-name="Grupo 1065040" clip-path="url(#clip-path-57)">
              <path id="Trazado_774865" data-name="Trazado 774865" d="M44.614,160.626a9.379,9.379,0,0,0,1.086.652c-3.619-19.643,3.483-37.086,3.483-37.086-2.879-9.94-.788-23.717-.788-23.717V95.409l-2.94,1.066v9.791s-2.4,10.938.9,18.835c0,0-10.4,17.64-1.745,35.525" transform="translate(-41.172 -95.409)" fill="#b7d0ef"/>
            </g>
          </g>
        </g>
        <path id="Trazado_774866" data-name="Trazado 774866" d="M85.134,355.971c2.706,2.047,5.353,2.28,7.922,0-.079,1.688.737,2.639,2.03,4.295a25.448,25.448,0,0,0,3.926,3.887,16.935,16.935,0,0,1,4.691,4.8,3.405,3.405,0,0,1-2.917,5.031c-5.137.108-8.354-4.505-10.162-6.723a5.816,5.816,0,0,0-3.165-1.977,3.747,3.747,0,0,1-2.858-4.02Z" transform="translate(-27.152 -114.272)" fill="#b7d0ef"/>
        <path id="Trazado_774867" data-name="Trazado 774867" d="M99.185,370.948a4.217,4.217,0,0,1,4.519-1.917c.425.1.245.755-.181.655a3.523,3.523,0,0,0-3.752,1.605.34.34,0,0,1-.586-.343" transform="translate(-31.824 -118.431)" fill="#fff"/>
        <path id="Trazado_774868" data-name="Trazado 774868" d="M96.636,368.089a3.727,3.727,0,0,1,4.236-2.176c.424.1.244.758-.181.655a3.035,3.035,0,0,0-3.4,1.7.35.35,0,0,1-.418.237.342.342,0,0,1-.237-.418" transform="translate(-31.016 -117.432)" fill="#fff"/>
        <path id="Trazado_774869" data-name="Trazado 774869" d="M35.851,367.294a4.217,4.217,0,0,0-4.519-1.917c-.425.1-.245.755.181.655a3.523,3.523,0,0,1,3.752,1.605.34.34,0,0,0,.586-.343" transform="translate(-9.98 -117.258)" fill="#fff"/>
        <path id="Trazado_774870" data-name="Trazado 774870" d="M39.11,365.238a3.728,3.728,0,0,0-4.237-2.176c-.424.1-.244.758.181.655a3.037,3.037,0,0,1,3.4,1.7.35.35,0,0,0,.417.237.343.343,0,0,0,.238-.418" transform="translate(-11.117 -116.517)" fill="#fff"/>
        <path id="Trazado_774871" data-name="Trazado 774871" d="M72.3,80.2v.041c.012.291.014,1.1.013,1.944a6.179,6.179,0,0,0,3.123,5.49c1.931,1.042,3.983.714,6.135-.76a6.3,6.3,0,0,0,2.706-5.09l.318-16.613a4.612,4.612,0,0,0-4.79-4.42l-3.694.155a4.615,4.615,0,0,0-4.411,4.8Z" transform="translate(-23.014 -19.514)" fill="#985235"/>
        <g id="Grupo_1065045" data-name="Grupo 1065045" transform="translate(48.678 42.552)" opacity="0.35" style="mix-blend-mode: multiply;isolation: isolate">
          <g id="Grupo_1065044" data-name="Grupo 1065044">
            <g id="Grupo_1065043" data-name="Grupo 1065043" clip-path="url(#clip-path-58)">
              <path id="Trazado_774872" data-name="Trazado 774872" d="M72.3,80.8c.172-.009-.164-.018,0-.033A11.532,11.532,0,0,0,82.513,69.154l-.121-2.932c-.089-2.068-2.217-3.654-4.758-3.547l-3.694.154a5.4,5.4,0,0,0-.944.119,4.582,4.582,0,0,0-1.3,3.406Z" transform="translate(-71.692 -62.67)" fill="#985235"/>
            </g>
          </g>
        </g>
        <path id="Trazado_774873" data-name="Trazado 774873" d="M58.272,47.1a3.238,3.238,0,0,1,1.835.448,24.59,24.59,0,0,1,4.728-10.723,8.245,8.245,0,0,1,3.337-2.94,6.125,6.125,0,0,1,2.061-.732c.478-.055.956-.1,1.422-.117s.944-.026,1.421-.01a6,6,0,0,1,2.12.523,8.327,8.327,0,0,1,3.6,2.627,24.507,24.507,0,0,1,5.7,10.23,3.236,3.236,0,0,1,1.8-.615c1.862.078,2.621,3,2.2,5.264-.5,2.778-2.481,3.8-4.388,4.46-.13.05-.146.777-.167.9a9.249,9.249,0,0,1-4.184,5.919c-2.292,1.581-4.965,3.3-7.884,2.9a12.788,12.788,0,0,1-4.9-2.091c-2.341-1.461-4.277-3.184-5.082-5.915-.073-.124-.149-.249-.219-.373-.048-.072-.082-.156-.129-.228-2.013-.474-4.2-1.26-4.986-4.074-.611-2.215-.151-5.2,1.714-5.452" transform="translate(-18.074 -10.6)" fill="#985235"/>
        <g id="Grupo_1065054" data-name="Grupo 1065054" transform="translate(45.101 41.911)" opacity="0.37">
          <g id="Grupo_1065053" data-name="Grupo 1065053">
            <g id="Grupo_1065052" data-name="Grupo 1065052" clip-path="url(#clip-path-41)">
              <g id="Grupo_1065048" data-name="Grupo 1065048" transform="translate(14.449)" opacity="0.38" style="mix-blend-mode: multiply;isolation: isolate">
                <g id="Grupo_1065047" data-name="Grupo 1065047">
                  <g id="Grupo_1065046" data-name="Grupo 1065046" clip-path="url(#clip-path-27)">
                    <path id="Trazado_774874" data-name="Trazado 774874" d="M87.705,64.263a2.536,2.536,0,1,0,2.537-2.537,2.537,2.537,0,0,0-2.537,2.537" transform="translate(-87.705 -61.726)" fill="#ff8a4f"/>
                  </g>
                </g>
              </g>
              <g id="Grupo_1065051" data-name="Grupo 1065051" opacity="0.38" style="mix-blend-mode: multiply;isolation: isolate">
                <g id="Grupo_1065050" data-name="Grupo 1065050">
                  <g id="Grupo_1065049" data-name="Grupo 1065049" clip-path="url(#clip-path-27)">
                    <path id="Trazado_774875" data-name="Trazado 774875" d="M66.424,64.263a2.536,2.536,0,1,0,2.537-2.537,2.537,2.537,0,0,0-2.537,2.537" transform="translate(-66.424 -61.726)" fill="#ff8a4f"/>
                  </g>
                </g>
              </g>
            </g>
          </g>
        </g>
        <g id="Grupo_1065057" data-name="Grupo 1065057" transform="translate(41.492 39.492)" opacity="0.35" style="mix-blend-mode: multiply;isolation: isolate">
          <g id="Grupo_1065056" data-name="Grupo 1065056">
            <g id="Grupo_1065055" data-name="Grupo 1065055" clip-path="url(#clip-path-23)">
              <path id="Trazado_774876" data-name="Trazado 774876" d="M61.337,58.178a4.1,4.1,0,0,1,2.45,4.806.191.191,0,0,1-.368-.1,3.67,3.67,0,0,0,.111-.962s-.008,0-.011-.007c-.446-.54-1.264-.44-1.878-.6a.191.191,0,0,1,.1-.368,5.858,5.858,0,0,1,1.737.43,3.688,3.688,0,0,0-2.243-2.833c-.225-.091-.127-.46.1-.368" transform="translate(-61.109 -58.163)" fill="#985235"/>
            </g>
          </g>
        </g>
        <g id="Grupo_1065060" data-name="Grupo 1065060" transform="translate(65.55 38.805)" opacity="0.35" style="mix-blend-mode: multiply;isolation: isolate">
          <g id="Grupo_1065059" data-name="Grupo 1065059">
            <g id="Grupo_1065058" data-name="Grupo 1065058" clip-path="url(#clip-path-63)">
              <path id="Trazado_774877" data-name="Trazado 774877" d="M99.116,57.167a4.1,4.1,0,0,0-2.45,4.806.191.191,0,0,0,.368-.1,3.67,3.67,0,0,1-.111-.962s.007,0,.01-.007c.447-.54,1.264-.44,1.879-.6a.191.191,0,0,0-.1-.368,5.854,5.854,0,0,0-1.736.43,3.687,3.687,0,0,1,2.243-2.833c.225-.091.127-.46-.1-.368" transform="translate(-96.541 -57.152)" fill="#985235"/>
            </g>
          </g>
        </g>
        <g id="Grupo_1065063" data-name="Grupo 1065063" transform="translate(52.142 38.593)" opacity="0.35" style="mix-blend-mode: multiply;isolation: isolate">
          <g id="Grupo_1065062" data-name="Grupo 1065062">
            <g id="Grupo_1065061" data-name="Grupo 1065061" clip-path="url(#clip-path-45)">
              <path id="Trazado_774878" data-name="Trazado 774878" d="M76.845,62.507c.342-1.818.746-3.627,1.119-5.439.068-.331.6-.293.53.041q-.457,2.218-.914,4.435c-.121.587-.475,1.48-.139,2.041a1.238,1.238,0,0,0,1.7.28c.3-.164.53.315.232.478a1.856,1.856,0,0,1-1.927,0,1.676,1.676,0,0,1-.6-1.834" transform="translate(-76.794 -56.839)" fill="#985235"/>
            </g>
          </g>
        </g>
        <g id="Grupo_1065066" data-name="Grupo 1065066" transform="translate(53.386 46.781)" opacity="0.35" style="mix-blend-mode: multiply;isolation: isolate">
          <g id="Grupo_1065065" data-name="Grupo 1065065">
            <g id="Grupo_1065064" data-name="Grupo 1065064" clip-path="url(#clip-path-65)">
              <path id="Trazado_774879" data-name="Trazado 774879" d="M83.038,69.007a4.5,4.5,0,0,1-4.043,1.312.33.33,0,0,0-.1.652,5.184,5.184,0,0,0,4.661-1.555c.291-.309-.228-.716-.517-.409" transform="translate(-78.627 -68.898)" fill="#985235"/>
            </g>
          </g>
        </g>
        <path id="Trazado_774880" data-name="Trazado 774880" d="M70.108,54.971l0,0a.324.324,0,0,0-.092-.039,3.759,3.759,0,0,1,3.218-1.645,1.117,1.117,0,0,1,.571.147.478.478,0,0,1,.221.511.646.646,0,0,1-.516.364,5.82,5.82,0,0,1-1.367.081,3.979,3.979,0,0,0-1.357.154,1.732,1.732,0,0,0-.674.433" transform="translate(-22.475 -17.103)" fill="#5c2521"/>
        <path id="Trazado_774881" data-name="Trazado 774881" d="M83.173,53.208a1.108,1.108,0,0,1,.568-.155,3.749,3.749,0,0,1,3.33,1.756,1.847,1.847,0,0,0-.492-.363c-.012-.005-.022-.007-.034-.011a1.792,1.792,0,0,0-.34-.156,3.985,3.985,0,0,0-1.359-.137,5.827,5.827,0,0,1-1.367-.062.65.65,0,0,1-.521-.357.479.479,0,0,1,.215-.514" transform="translate(-26.625 -17.029)" fill="#5c2521"/>
        <path id="Trazado_774882" data-name="Trazado 774882" d="M86.007,58.461c-.005.662-.378,1.2-.832,1.208s-.817-.526-.811-1.188.378-1.2.832-1.208.816.526.811,1.188" transform="translate(-27.082 -18.385)" fill="#5c2521"/>
        <path id="Trazado_774883" data-name="Trazado 774883" d="M74,59.1c-.005.662-.378,1.2-.832,1.208s-.817-.526-.811-1.188.378-1.2.832-1.208.816.526.811,1.188" transform="translate(-23.229 -18.59)" fill="#5c2521"/>
        <path id="Trazado_774884" data-name="Trazado 774884" d="M51.779,46.324a11.531,11.531,0,0,0,5.949-3.815,4.42,4.42,0,0,1-3.511-.126c2.1.181,3.9-1.559,4.856-3.432s1.412-4,2.562-5.761a8.253,8.253,0,0,1,6.414-3.713,7.678,7.678,0,0,1,6.6,3.273,7.991,7.991,0,0,1,3.2-.131,6.164,6.164,0,0,1,2.08,1.011,13.464,13.464,0,0,1,3.816,18.055,10.193,10.193,0,0,0,.446-4.946,19.19,19.19,0,0,1-1.6,4.9,8.274,8.274,0,0,0-2.463-7.705,18.738,18.738,0,0,1,2.1,7.784C79.945,50,77.3,48.779,75.1,46.944a9.335,9.335,0,0,1-3.637-6.319,17.23,17.23,0,0,1-4.281,4.124,25.472,25.472,0,0,1-5.873,3.586,9.2,9.2,0,0,1-6.735.225,7.615,7.615,0,0,0,3.059-1.894,10.091,10.091,0,0,1-5.851-.343" transform="translate(-16.622 -9.46)" fill="#5c2521"/>
      </g>
    </g>
  </g>
</svg>
