<svg xmlns="http://www.w3.org/2000/svg" xmlns:xlink="http://www.w3.org/1999/xlink" width="396" height="251" viewBox="0 0 396 251">
  <defs>
    <clipPath id="clip-path">
      <path id="Trazado_105590" data-name="Trazado 105590" d="M349.282,1059.851H271.135l9.7-152.522h58.206Z" transform="translate(-271.135 -907.33)" fill="none"/>
    </clipPath>
    <clipPath id="clip-path-2">
      <path id="Trazado_105595" data-name="Trazado 105595" d="M345.885,886.11c-.818,20.493-19.673,32.789-28.689,49.184s3.278,36.888,5.738,59.84-22.953,73.777-18.035,101.648l136.9-1.64s-23.771-72.957-25.411-99.188,10.656-46.724,14.755-63.121-31.969-22.951-36.067-28.689-1.64-18.855-1.64-18.855Z" transform="translate(-304.266 -885.29)" fill="none"/>
    </clipPath>
    <clipPath id="clip-path-3">
      <path id="Trazado_105598" data-name="Trazado 105598" d="M333.858,937.035,439.33,974.2s22.407,50.55,19.947,57.108-165.587.82-165.587.82,7.752-31.095,18.035-53.284C327.3,945.231,333.858,937.035,333.858,937.035Z" transform="translate(-293.69 -937.035)" fill="none"/>
    </clipPath>
    <clipPath id="clip-path-4">
      <path id="Trazado_105614" data-name="Trazado 105614" d="M430.333,1041.9H370.765l7.395-116.26h44.368Z" transform="translate(-370.765 -925.639)" fill="none"/>
    </clipPath>
    <clipPath id="clip-path-5">
      <path id="Trazado_105624" data-name="Trazado 105624" d="M394.413,909.888l6.287,79.241a67.468,67.468,0,0,1-19.675,1.366c-12.675-.911-16.395-2.46-16.395-2.46l8.04-77.347Z" transform="translate(-364.63 -909.888)" fill="none"/>
    </clipPath>
    <clipPath id="clip-path-6">
      <path id="Trazado_105628" data-name="Trazado 105628" d="M371.7,900.054c.763,3.545,4.411,2.816,8.794.89l.956-10.369-8.613,2.39Z" transform="translate(-371.698 -890.576)" fill="none"/>
    </clipPath>
    <clipPath id="clip-path-7">
      <path id="Trazado_105641" data-name="Trazado 105641" d="M381.517,947.06s2.872,7.571,1.044,9.922-18.8,1.828-18.8,1.828a3.555,3.555,0,0,1,2.089-4.44c3.133-1.3,9.662-4.438,10.183-6.527S381.517,947.06,381.517,947.06Z" transform="translate(-363.593 -946.657)" fill="none"/>
    </clipPath>
    <clipPath id="clip-path-8">
      <path id="Trazado_105645" data-name="Trazado 105645" d="M384.408,946.654s4.8,6.52,3.672,9.275c-.485,1.185-3.806,2.61-7.435,3.849-4.819,1.647-11.9.6-11.9.6s-.317-.772,2.349-2.872,8.3-6.475,8.241-8.627S384.408,946.654,384.408,946.654Z" transform="translate(-368.734 -946.654)" fill="none"/>
    </clipPath>
    <clipPath id="clip-path-9">
      <path id="Trazado_105660" data-name="Trazado 105660" d="M292.518,932.321c-.763,3.545-4.411,2.816-8.794.89l-.956-10.369,8.613,2.39Z" transform="translate(-282.768 -922.843)" fill="none"/>
    </clipPath>
    <clipPath id="clip-path-10">
      <path id="Trazado_105672" data-name="Trazado 105672" d="M288.188,979.327s-2.873,7.573-1.044,9.922,18.8,1.828,18.8,1.828a3.556,3.556,0,0,0-2.089-4.44c-3.135-1.3-9.662-4.438-10.185-6.527S288.188,979.327,288.188,979.327Z" transform="translate(-286.535 -978.924)" fill="none"/>
    </clipPath>
    <clipPath id="clip-path-11">
      <path id="Trazado_105675" data-name="Trazado 105675" d="M285.264,978.921s-4.8,6.52-3.672,9.275c.485,1.185,3.8,2.61,7.435,3.849,4.818,1.647,11.9.6,11.9.6s.317-.773-2.349-2.873-8.3-6.472-8.241-8.624S285.264,978.921,285.264,978.921Z" transform="translate(-281.42 -978.921)" fill="none"/>
    </clipPath>
  </defs>
  <g id="Grupo_55932" data-name="Grupo 55932" transform="translate(-248.519 -874.327)">
    <g id="Grupo_55886" data-name="Grupo 55886" transform="translate(248.519 874.327)">
      <path id="Trazado_100521" data-name="Trazado 100521" d="M394.657,881.354c-45.811-1.851-28.469,71.36,24.673,67.944S432.236,882.872,394.657,881.354Z" transform="translate(-89.08 -865.478)" fill="#f7f1d7"/>
      <g id="Grupo_53771" data-name="Grupo 53771" transform="translate(302.932 50.165)">
        <path id="Trazado_100522" data-name="Trazado 100522" d="M410.368,896.993c13.513-2.71,26.659,6.012,26.659,6.012s-8.763,13.121-22.278,15.831-26.659-6.012-26.659-6.012S396.852,899.7,410.368,896.993Z" transform="translate(-366.9 -896.471)" fill="#8f8b66"/>
        <path id="Trazado_100523" data-name="Trazado 100523" d="M379.227,922.967a.6.6,0,0,1-.295-1.035,89.566,89.566,0,0,1,21.489-13.379,113.769,113.769,0,0,1,40.963-9.408.6.6,0,0,1,.066,1.205h-.023a114.142,114.142,0,0,0-40.51,9.311,88.307,88.307,0,0,0-21.172,13.169A.6.6,0,0,1,379.227,922.967Z" transform="translate(-378.736 -893.088)" fill="#b3ae7f"/>
        <path id="Trazado_100524" data-name="Trazado 100524" d="M398.736,904.531a.6.6,0,0,1-.242-1.078l8.121-5.9a.6.6,0,0,1,.723.965l-.014.011-8.121,5.9A.6.6,0,0,1,398.736,904.531Z" transform="translate(-354.048 -895.255)" fill="#b3ae7f"/>
        <path id="Trazado_100525" data-name="Trazado 100525" d="M405.4,908.166a.594.594,0,0,1-.195-.073l-10.1-6.012a.6.6,0,1,1,.584-1.053l.029.018,10.1,6.01a.6.6,0,0,1-.421,1.11Z" transform="translate(-358.419 -890.799)" fill="#b3ae7f"/>
        <path id="Trazado_100526" data-name="Trazado 100526" d="M391.359,907.13a.606.606,0,0,1-.349-.981l5.693-6.83a.6.6,0,0,1,.924.773l-5.691,6.83A.6.6,0,0,1,391.359,907.13Z" transform="translate(-363.383 -893.117)" fill="#b3ae7f"/>
      </g>
      <g id="Grupo_53793" data-name="Grupo 53793" transform="translate(282.998 1.446)">
        <path id="Trazado_100527" data-name="Trazado 100527" d="M408.515,885.847c-2.406,1.033-11.687-.041-11.687-.041s5.534-7.643,7.938-8.679,9.506.893,9.506.893S410.923,884.811,408.515,885.847Z" transform="translate(-335.909 -872.615)" fill="#7d6871"/>
        <g id="Grupo_53773" data-name="Grupo 53773" transform="translate(0 11.429)">
          <g id="Grupo_53772" data-name="Grupo 53772">
            <path id="Trazado_100528" data-name="Trazado 100528" d="M370.639,947.643l-.7-.186c13.638-51.436,64.312-67.35,64.808-67.448l.145.714C434.4,880.821,384.175,896.6,370.639,947.643Z" transform="translate(-369.937 -880.01)" fill="#54464c"/>
          </g>
        </g>
        <g id="Grupo_53776" data-name="Grupo 53776" transform="translate(47.879 19.12)">
          <path id="Trazado_100529" data-name="Trazado 100529" d="M401.618,892.961c-2.449-.943-8.337-8.192-8.337-8.192s9.3-1.606,11.746-.666,6.173,7.274,6.173,7.274S404.064,893.9,401.618,892.961Z" transform="translate(-388.277 -882.895)" fill="#7d6871"/>
          <g id="Grupo_53775" data-name="Grupo 53775">
            <g id="Grupo_53774" data-name="Grupo 53774">
              <path id="Trazado_100530" data-name="Trazado 100530" d="M408.187,889.51c-4.273-2.021-16.988-5.369-17.115-5.4l.184-.7c.526.138,12.908,3.4,17.242,5.45Z" transform="translate(-391.072 -883.405)" fill="#54464c"/>
            </g>
          </g>
        </g>
        <g id="Grupo_53779" data-name="Grupo 53779" transform="translate(32.789 29.369)">
          <path id="Trazado_100531" data-name="Trazado 100531" d="M394.959,897.485c-2.451-.94-8.339-8.192-8.339-8.192s9.3-1.606,11.748-.666,6.173,7.276,6.173,7.276S397.406,898.425,394.959,897.485Z" transform="translate(-381.616 -887.419)" fill="#7d6871"/>
          <g id="Grupo_53778" data-name="Grupo 53778">
            <g id="Grupo_53777" data-name="Grupo 53777">
              <path id="Trazado_100532" data-name="Trazado 100532" d="M401.528,894.034c-4.275-2.021-16.988-5.369-17.117-5.4l.186-.7c.523.138,12.908,3.4,17.242,5.45Z" transform="translate(-384.411 -887.929)" fill="#54464c"/>
            </g>
          </g>
        </g>
        <g id="Grupo_53782" data-name="Grupo 53782" transform="translate(20.407 41.608)">
          <path id="Trazado_100533" data-name="Trazado 100533" d="M389.491,902.887c-2.449-.942-8.337-8.192-8.337-8.192s9.3-1.606,11.746-.664,6.173,7.274,6.173,7.274S391.937,903.829,389.491,902.887Z" transform="translate(-376.15 -892.822)" fill="#7d6871"/>
          <g id="Grupo_53781" data-name="Grupo 53781">
            <g id="Grupo_53780" data-name="Grupo 53780">
              <path id="Trazado_100534" data-name="Trazado 100534" d="M396.06,899.44c-4.273-2.023-16.986-5.369-17.115-5.4l.184-.7c.526.138,12.908,3.4,17.242,5.448Z" transform="translate(-378.945 -893.332)" fill="#54464c"/>
            </g>
          </g>
        </g>
        <g id="Grupo_53785" data-name="Grupo 53785" transform="translate(11.06 53.894)">
          <path id="Trazado_100535" data-name="Trazado 100535" d="M385.365,908.312c-2.449-.943-8.337-8.189-8.337-8.189s9.3-1.609,11.746-.666,6.173,7.274,6.173,7.274S387.811,909.252,385.365,908.312Z" transform="translate(-372.024 -898.242)" fill="#7d6871"/>
          <g id="Grupo_53784" data-name="Grupo 53784">
            <g id="Grupo_53783" data-name="Grupo 53783">
              <path id="Trazado_100536" data-name="Trazado 100536" d="M391.934,904.862c-4.275-2.023-16.988-5.369-17.115-5.4l.184-.7c.525.138,12.908,3.4,17.242,5.451Z" transform="translate(-374.819 -898.755)" fill="#54464c"/>
            </g>
          </g>
        </g>
        <g id="Grupo_53789" data-name="Grupo 53789" transform="translate(40.042)">
          <g id="Grupo_53787" data-name="Grupo 53787">
            <g id="Grupo_53786" data-name="Grupo 53786">
              <path id="Trazado_100537" data-name="Trazado 100537" d="M396.9,884.328c-.675,2.533-7.252,9.168-7.252,9.168s-2.6-9.075-1.921-11.608,6.565-6.923,6.565-6.923S397.57,881.8,396.9,884.328Z" transform="translate(-387.613 -874.965)" fill="#7d6871"/>
            </g>
          </g>
          <g id="Grupo_53788" data-name="Grupo 53788" transform="translate(0.687 5.797)">
            <path id="Trazado_100538" data-name="Trazado 100538" d="M388.636,895.359l-.72-.109c.082-.537,1.994-13.2,3.57-17.727l.684.24C390.621,882.227,388.657,895.228,388.636,895.359Z" transform="translate(-387.916 -877.524)" fill="#54464c"/>
          </g>
        </g>
        <g id="Grupo_53792" data-name="Grupo 53792" transform="translate(21.211 12.48)">
          <path id="Trazado_100539" data-name="Trazado 100539" d="M388.77,889.2c-.195,2.612-5.453,10.337-5.453,10.337s-4.214-8.448-4.01-11.06,5.195-8.006,5.195-8.006S388.969,886.588,388.77,889.2Z" transform="translate(-379.3 -880.474)" fill="#7d6871"/>
          <g id="Grupo_53791" data-name="Grupo 53791" transform="translate(3.462 6.141)">
            <g id="Grupo_53790" data-name="Grupo 53790">
              <path id="Trazado_100540" data-name="Trazado 100540" d="M380.973,901.265c-.018-.544-.451-13.341.27-18.08l.72.109c-.711,4.674-.267,17.813-.263,17.947Z" transform="translate(-380.828 -883.185)" fill="#54464c"/>
            </g>
          </g>
        </g>
      </g>
      <path id="Trazado_100541" data-name="Trazado 100541" d="M307.064,1110.835c-49.654-22.869-89.608-153.825-5.82-208.106s178.049-19.358,198.22,10.629,31.7,56.381,67.5,52c40.343-4.934,100.273,92.428,2.813,145.475Z" transform="translate(-243.221 -874.327)" fill="#f7f1d7" opacity="0.5" style="isolation: isolate"/>
      <g id="Grupo_53795" data-name="Grupo 53795" transform="translate(334.132 82.177)">
        <g id="Grupo_53794" data-name="Grupo 53794">
          <path id="Trazado_100542" data-name="Trazado 100542" d="M419.041,963.674c-.22,0-.439,0-.657-.007a.29.29,0,0,1-.281-.295h0a.3.3,0,0,1,.294-.279,26.584,26.584,0,0,0,3.4-.136.286.286,0,1,1,.059.569A26.527,26.527,0,0,1,419.041,963.674Zm-4.073-.315a.157.157,0,0,1-.045,0,26.329,26.329,0,0,1-3.389-.759.287.287,0,0,1,.145-.555l.018,0a25.929,25.929,0,0,0,3.317.743.286.286,0,0,1,.236.331.289.289,0,0,1-.281.24Zm10.244-.415a.284.284,0,0,1-.29-.281.287.287,0,0,1,.224-.286,25.791,25.791,0,0,0,3.242-1.01.285.285,0,0,1,.365.181.289.289,0,0,1-.156.353,26.626,26.626,0,0,1-3.316,1.033.237.237,0,0,1-.068.009Zm-16.825-1.522a.286.286,0,0,1-.115-.025,26.686,26.686,0,0,1-3.076-1.618.288.288,0,0,1,.3-.492,25.614,25.614,0,0,0,3.011,1.583.287.287,0,0,1-.118.548Zm23.225-.947a.286.286,0,0,1-.285-.288.29.29,0,0,1,.147-.251,25.6,25.6,0,0,0,2.87-1.821.287.287,0,0,1,.338.464,26.515,26.515,0,0,1-2.934,1.862.266.266,0,0,1-.138.034Zm-29.072-2.639a.28.28,0,0,1-.181-.063,26.646,26.646,0,0,1-2.546-2.356.286.286,0,0,1,.414-.392,25.9,25.9,0,0,0,2.5,2.306.287.287,0,0,1-.181.51Zm34.611-1.407a.288.288,0,0,1-.281-.292.282.282,0,0,1,.086-.2,26.4,26.4,0,0,0,2.3-2.5.288.288,0,0,1,.449.36h0a26.737,26.737,0,0,1-2.354,2.555.282.282,0,0,1-.2.075Zm-39.334-3.563a.286.286,0,0,1-.233-.118,26.729,26.729,0,0,1-1.862-2.936.287.287,0,0,1,.5-.274,26.452,26.452,0,0,0,1.817,2.873.286.286,0,0,1-.061.4.279.279,0,0,1-.168.054Zm43.643-1.774a.279.279,0,0,1-.147-.043.287.287,0,0,1-.1-.392,26.048,26.048,0,0,0,1.579-3.011.287.287,0,0,1,.523.231,26.358,26.358,0,0,1-1.613,3.078.289.289,0,0,1-.245.136Zm-46.923-4.245a.289.289,0,0,1-.265-.183,26.538,26.538,0,0,1-1.033-3.319.288.288,0,0,1,.56-.134,25.394,25.394,0,0,0,1.008,3.247.288.288,0,0,1-.165.371.292.292,0,0,1-.109.018Zm-1.6-6.672a.285.285,0,0,1-.285-.256,27.133,27.133,0,0,1-.143-2.782c0-.229,0-.458.009-.684a.286.286,0,0,1,.571.014h0c0,.224-.007.449-.007.675a26.6,26.6,0,0,0,.14,2.721.286.286,0,0,1-.256.315Zm.179-6.86a.149.149,0,0,1-.045,0,.283.283,0,0,1-.238-.326,26.288,26.288,0,0,1,.763-3.391.286.286,0,0,1,.557.131l-.009.032a25.511,25.511,0,0,0-.745,3.316.288.288,0,0,1-.288.24Zm1.944-6.579a.282.282,0,0,1-.261-.4,26.162,26.162,0,0,1,1.62-3.074.287.287,0,1,1,.489.3h0a25.878,25.878,0,0,0-1.586,3.009.287.287,0,0,1-.265.174Zm47.084-1.8a.286.286,0,0,1-.254-.149,26.662,26.662,0,0,0-1.81-2.877.287.287,0,1,1,.446-.36l.018.025a26.907,26.907,0,0,1,1.851,2.938.288.288,0,0,1-.118.39A.272.272,0,0,1,442.144,924.938Zm-43.493-4.046a.288.288,0,0,1-.285-.288.293.293,0,0,1,.064-.181,27.252,27.252,0,0,1,2.36-2.546.288.288,0,0,1,.4.048.294.294,0,0,1-.011.369,25.83,25.83,0,0,0-2.309,2.494.287.287,0,0,1-.224.109Zm39.468-1.509a.285.285,0,0,1-.208-.088,26.171,26.171,0,0,0-2.494-2.313.291.291,0,0,1-.066-.4.287.287,0,0,1,.4-.066l.027.023a26.72,26.72,0,0,1,2.549,2.363.287.287,0,0,1-.208.482Zm-34.491-3.212a.286.286,0,0,1-.168-.517A26.434,26.434,0,0,1,406.4,913.8a.287.287,0,0,1,.272.505,25.951,25.951,0,0,0-2.872,1.815.284.284,0,0,1-.174.059Zm29.163-1.11a.3.3,0,0,1-.15-.043,26.255,26.255,0,0,0-3.006-1.59.287.287,0,0,1,.236-.523,26.726,26.726,0,0,1,3.072,1.624.288.288,0,0,1-.152.532ZM409.649,912.9a.285.285,0,0,1-.281-.292.29.29,0,0,1,.184-.263,26.521,26.521,0,0,1,3.319-1.026.289.289,0,0,1,.347.213.286.286,0,0,1-.213.344h0a25.372,25.372,0,0,0-3.246,1.006.3.3,0,0,1-.109.021Zm16.879-.645a.342.342,0,0,1-.082-.011,25.594,25.594,0,0,0-3.314-.752.287.287,0,0,1,.088-.566,26.274,26.274,0,0,1,3.389.768.287.287,0,0,1-.082.562Zm-10.21-.945a.286.286,0,0,1-.027-.571,26.862,26.862,0,0,1,3.471-.131.284.284,0,0,1,.263.308.287.287,0,0,1-.279.265,26.142,26.142,0,0,0-3.4.127Z" transform="translate(-392.509 -910.602)" fill="#b5ac84"/>
        </g>
      </g>
      <g id="Grupo_53802" data-name="Grupo 53802" transform="translate(379.927 98.425)">
        <g id="Grupo_53801" data-name="Grupo 53801">
          <g id="Grupo_53796" data-name="Grupo 53796">
            <path id="Trazado_100543" data-name="Trazado 100543" d="M420.762,933.847a8.037,8.037,0,1,1,8.035-8.038h0A8.052,8.052,0,0,1,420.762,933.847Zm0-15.233a7.193,7.193,0,1,0,7.193,7.193,7.191,7.191,0,0,0-7.193-7.193Z" transform="translate(-412.724 -917.774)" fill="#b5ac84"/>
          </g>
          <g id="Grupo_53797" data-name="Grupo 53797" transform="translate(3.604 6.923)">
            <path id="Trazado_100544" data-name="Trazado 100544" d="M415.425,923.05a1.11,1.11,0,1,1,1.11-1.11A1.109,1.109,0,0,1,415.425,923.05Zm0-1.656a.546.546,0,1,0,.546.546h0A.548.548,0,0,0,415.425,921.394Z" transform="translate(-414.315 -920.83)" fill="#b5ac84"/>
          </g>
          <g id="Grupo_53798" data-name="Grupo 53798" transform="translate(10.09 6.923)">
            <path id="Trazado_100545" data-name="Trazado 100545" d="M418.288,923.05a1.11,1.11,0,1,1,1.11-1.11A1.109,1.109,0,0,1,418.288,923.05Zm0-1.656a.546.546,0,1,0,.546.546h0A.546.546,0,0,0,418.288,921.394Z" transform="translate(-417.178 -920.83)" fill="#b5ac84"/>
          </g>
          <g id="Grupo_53799" data-name="Grupo 53799" transform="translate(6.846 3.677)">
            <path id="Trazado_100546" data-name="Trazado 100546" d="M415.746,920.507a1.111,1.111,0,1,1,1.112,1.112A1.112,1.112,0,0,1,415.746,920.507Zm1.656,0a.545.545,0,1,0-.544.546h0A.544.544,0,0,0,417.4,920.507Z" transform="translate(-415.746 -919.397)" fill="#b5ac84"/>
          </g>
          <g id="Grupo_53800" data-name="Grupo 53800" transform="translate(6.846 10.167)">
            <path id="Trazado_100547" data-name="Trazado 100547" d="M415.746,923.372a1.111,1.111,0,1,1,1.112,1.11A1.111,1.111,0,0,1,415.746,923.372Zm1.656,0a.545.545,0,1,0-.544.546h0A.544.544,0,0,0,417.4,923.372Z" transform="translate(-415.746 -922.262)" fill="#b5ac84"/>
          </g>
        </g>
      </g>
      <g id="Grupo_53821" data-name="Grupo 53821" transform="translate(6.361 1.926)">
        <g id="Grupo_53820" data-name="Grupo 53820">
          <g id="Grupo_53806" data-name="Grupo 53806" transform="translate(11.902 7.303)">
            <g id="Grupo_53803" data-name="Grupo 53803" transform="translate(0 14.562)">
              <path id="Trazado_100548" data-name="Trazado 100548" d="M256.866,886.805a.288.288,0,0,1-.285-.29.284.284,0,0,1,.048-.159c.322-.476.657-.951,1-1.413a.287.287,0,1,1,.46.342h0c-.338.455-.668.924-.988,1.393A.282.282,0,0,1,256.866,886.805Z" transform="translate(-256.581 -884.828)" fill="#b5ac84"/>
            </g>
            <g id="Grupo_53804" data-name="Grupo 53804" transform="translate(2.943 0.923)">
              <path id="Trazado_100549" data-name="Trazado 100549" d="M258.165,890.618a.288.288,0,0,1-.215-.476c.686-.777,1.414-1.534,2.157-2.254a.287.287,0,0,1,.421.39l-.025.023c-.736.707-1.452,1.452-2.127,2.216A.281.281,0,0,1,258.165,890.618Zm4.467-4.279a.287.287,0,0,1-.179-.51c.807-.652,1.649-1.273,2.5-1.862a.286.286,0,1,1,.322.473h0c-.843.573-1.672,1.189-2.467,1.833a.285.285,0,0,1-.179.063Zm5.12-3.475a.285.285,0,0,1-.14-.535c.9-.51,1.839-.981,2.78-1.414a.287.287,0,0,1,.238.521c-.926.424-1.849.89-2.739,1.391a.3.3,0,0,1-.138.034Zm5.627-2.564a.285.285,0,0,1-.285-.288.288.288,0,0,1,.188-.269c.979-.349,1.978-.659,2.979-.924a.287.287,0,1,1,.147.555c-.985.258-1.971.566-2.934.908a.266.266,0,0,1-.1.014Z" transform="translate(-257.88 -878.808)" fill="#b5ac84"/>
            </g>
            <g id="Grupo_53805" data-name="Grupo 53805" transform="translate(24.14)">
              <path id="Trazado_100550" data-name="Trazado 100550" d="M267.525,879.231a.286.286,0,0,1-.048-.569c.566-.1,1.142-.186,1.715-.26a.288.288,0,0,1,.072.571c-.564.07-1.133.156-1.688.254A.417.417,0,0,1,267.525,879.231Z" transform="translate(-267.237 -878.401)" fill="#b5ac84"/>
            </g>
          </g>
          <g id="Grupo_53810" data-name="Grupo 53810" transform="translate(5.663 7.964)">
            <g id="Grupo_53807" data-name="Grupo 53807" transform="translate(45.16)">
              <path id="Trazado_100551" data-name="Trazado 100551" d="M275.713,879.695a.292.292,0,0,1-.077-.009c-.548-.156-1.1-.294-1.654-.426a.287.287,0,0,1,.131-.56c.557.131,1.124.276,1.676.433a.287.287,0,0,1-.077.562Z" transform="translate(-273.762 -878.693)" fill="#b5ac84"/>
            </g>
            <g id="Grupo_53808" data-name="Grupo 53808" transform="translate(0.048 1.537)">
              <path id="Trazado_100552" data-name="Trazado 100552" d="M291.372,951.034a.287.287,0,1,1,0-.573h0c1.153-.016,2.32-.086,3.462-.211a.287.287,0,0,1,.061.571c-1.16.125-2.345.195-3.516.213Zm-3.493-.116h-.025c-1.169-.1-2.345-.245-3.493-.449a.287.287,0,1,1,.059-.571l.039.007c1.133.195,2.288.349,3.441.442a.286.286,0,1,1-.023.571Zm10.434-.636a.286.286,0,0,1-.057-.567c1.128-.233,2.259-.523,3.36-.861a.286.286,0,0,1,.358.188.29.29,0,0,1-.19.36h0c-1.117.342-2.265.636-3.412.872a.263.263,0,0,1-.059.007ZM281,949.7a.229.229,0,0,1-.077-.009c-1.128-.313-2.254-.686-3.346-1.1a.286.286,0,0,1,.2-.535c1.078.412,2.186.777,3.294,1.088a.285.285,0,0,1,.2.349.288.288,0,0,1-.279.213Zm23.988-1.468a.287.287,0,0,1-.111-.553c1.062-.442,2.116-.94,3.135-1.484a.286.286,0,1,1,.27.505c-1.033.553-2.107,1.058-3.185,1.509a.3.3,0,0,1-.109.018Zm-30.51-1.031a.28.28,0,0,1-.127-.03c-1.047-.521-2.082-1.1-3.076-1.719a.288.288,0,0,1,.3-.489c.981.609,2,1.176,3.029,1.692a.287.287,0,0,1,.129.385.29.29,0,0,1-.258.159Zm36.672-2.254a.286.286,0,0,1-.285-.288.282.282,0,0,1,.127-.236c.961-.636,1.9-1.327,2.8-2.052a.287.287,0,0,1,.36.446c-.911.736-1.867,1.436-2.843,2.082a.277.277,0,0,1-.159.043Zm-42.6-1.443a.285.285,0,0,1-.174-.059c-.929-.709-1.837-1.47-2.7-2.27a.287.287,0,1,1,.392-.419c.845.784,1.738,1.534,2.655,2.234a.29.29,0,0,1,.052.4.287.287,0,0,1-.227.111Zm48.031-2.952a.278.278,0,0,1-.2-.088.286.286,0,0,1,0-.4c.825-.807,1.62-1.661,2.363-2.54a.286.286,0,0,1,.4-.052.29.29,0,0,1,.052.4l-.018.018c-.754.893-1.561,1.765-2.4,2.58A.3.3,0,0,1,316.583,940.552Zm-53.158-1.792a.291.291,0,0,1-.215-.1c-.784-.874-1.527-1.794-2.222-2.734a.288.288,0,0,1,.462-.342c.686.927,1.418,1.833,2.188,2.694a.287.287,0,0,1-.023.406.281.281,0,0,1-.19.072Zm57.67-3.543a.284.284,0,0,1-.288-.283.293.293,0,0,1,.052-.168c.657-.945,1.273-1.935,1.842-2.938a.287.287,0,0,1,.5.281c-.573,1.019-1.205,2.025-1.874,2.986a.282.282,0,0,1-.233.122Zm-61.814-2.082a.287.287,0,0,1-.247-.138c-.6-1-1.162-2.048-1.665-3.106a.286.286,0,0,1,.516-.245h0c.5,1.04,1.049,2.068,1.642,3.056a.289.289,0,0,1-.247.435Zm65.237-4.005a.285.285,0,0,1-.285-.288.253.253,0,0,1,.025-.116c.467-1.056.886-2.143,1.251-3.235a.287.287,0,0,1,.544.181h0c-.369,1.11-.8,2.216-1.273,3.287a.289.289,0,0,1-.261.17Zm-68.241-2.3a.284.284,0,0,1-.27-.188c-.4-1.1-.752-2.231-1.044-3.366a.285.285,0,1,1,.553-.143h0c.29,1.115.637,2.229,1.031,3.312a.286.286,0,0,1-.172.367h0a.25.25,0,0,1-.1.018Zm70.447-4.329a.323.323,0,0,1-.066-.007.286.286,0,0,1-.215-.342c.256-1.121.464-2.27.614-3.414a.287.287,0,0,1,.569.073c-.152,1.162-.362,2.329-.623,3.468a.286.286,0,0,1-.279.224Zm-72.2-2.431a.289.289,0,0,1-.283-.242c-.184-1.155-.313-2.331-.392-3.5a.287.287,0,0,1,.571-.066l0,.03c.072,1.151.2,2.313.381,3.448a.287.287,0,0,1-.238.329l-.041,0Zm73.107-4.492h-.011a.29.29,0,0,1-.276-.294q.024-.659.025-1.325c0-.714-.023-1.434-.063-2.145a.288.288,0,0,1,.288-.288.292.292,0,0,1,.285.254c.041.723.063,1.454.063,2.179,0,.446-.009.9-.025,1.346a.285.285,0,0,1-.285.276Zm-.408-6.975a.287.287,0,0,1-.283-.242c-.174-1.14-.406-2.284-.684-3.4a.286.286,0,1,1,.555-.14c.288,1.133.523,2.295.7,3.453a.287.287,0,0,1-.24.326h0a.33.33,0,0,1-.048,0Zm-1.715-6.769a.288.288,0,0,1-.27-.19c-.392-1.085-.834-2.161-1.323-3.206a.287.287,0,0,1,.51-.263l.009.021c.5,1.058.951,2.154,1.346,3.255a.286.286,0,0,1-.174.365.27.27,0,0,1-.1.018Zm-2.97-6.318a.287.287,0,0,1-.247-.141c-.587-.99-1.228-1.964-1.907-2.9a.287.287,0,0,1,.462-.34l0,0c.684.945,1.341,1.934,1.937,2.938a.288.288,0,0,1-.1.394.275.275,0,0,1-.147.039Zm-4.116-5.645a.286.286,0,0,1-.213-.1c-.763-.863-1.579-1.7-2.419-2.488a.284.284,0,0,1,.009-.406.29.29,0,0,1,.383-.014c.854.8,1.681,1.649,2.456,2.528a.284.284,0,0,1-.027.4.276.276,0,0,1-.188.073Zm-5.1-4.771a.286.286,0,0,1-.174-.061c-.913-.7-1.869-1.371-2.841-1.989a.284.284,0,0,1-.091-.394.289.289,0,0,1,.4-.09c.988.625,1.96,1.3,2.888,2.021a.285.285,0,0,1,.052.4.29.29,0,0,1-.229.113Zm-5.908-3.724a.3.3,0,0,1-.131-.032c-1.029-.519-2.093-.995-3.169-1.414a.287.287,0,0,1-.181-.363.29.29,0,0,1,.362-.183l.029.011c1.09.426,2.173.908,3.219,1.436a.287.287,0,0,1-.131.544Z" transform="translate(-253.848 -879.371)" fill="#b5ac84"/>
            </g>
            <g id="Grupo_53809" data-name="Grupo 53809" transform="translate(0 32.944)">
              <path id="Trazado_100553" data-name="Trazado 100553" d="M254.113,895.505H254.1a.289.289,0,0,1-.276-.295c.018-.575.05-1.158.1-1.731a.287.287,0,0,1,.571.045c-.043.564-.075,1.137-.1,1.7A.288.288,0,0,1,254.113,895.505Z" transform="translate(-253.827 -893.235)" fill="#b5ac84"/>
            </g>
          </g>
          <g id="Grupo_53814" data-name="Grupo 53814" transform="translate(11.902 7.303)">
            <g id="Grupo_53811" data-name="Grupo 53811" transform="translate(0 14.562)">
              <path id="Trazado_100554" data-name="Trazado 100554" d="M256.866,886.805a.288.288,0,0,1-.285-.29.284.284,0,0,1,.048-.159c.322-.476.657-.951,1-1.413a.287.287,0,1,1,.46.342h0c-.338.455-.668.924-.988,1.393A.282.282,0,0,1,256.866,886.805Z" transform="translate(-256.581 -884.828)" fill="#b5ac84"/>
            </g>
            <g id="Grupo_53812" data-name="Grupo 53812" transform="translate(2.943 0.923)">
              <path id="Trazado_100555" data-name="Trazado 100555" d="M258.165,890.618a.288.288,0,0,1-.215-.476c.686-.777,1.414-1.534,2.157-2.254a.287.287,0,0,1,.421.39l-.025.023c-.736.707-1.452,1.452-2.127,2.216A.281.281,0,0,1,258.165,890.618Zm4.467-4.279a.287.287,0,0,1-.179-.51c.807-.652,1.649-1.273,2.5-1.862a.286.286,0,1,1,.322.473h0c-.843.573-1.672,1.189-2.467,1.833a.285.285,0,0,1-.179.063Zm5.12-3.475a.285.285,0,0,1-.14-.535c.9-.51,1.839-.981,2.78-1.414a.287.287,0,0,1,.238.521c-.926.424-1.849.89-2.739,1.391a.3.3,0,0,1-.138.034Zm5.627-2.564a.285.285,0,0,1-.285-.288.288.288,0,0,1,.188-.269c.979-.349,1.978-.659,2.979-.924a.287.287,0,1,1,.147.555c-.985.258-1.971.566-2.934.908a.266.266,0,0,1-.1.014Z" transform="translate(-257.88 -878.808)" fill="#b5ac84"/>
            </g>
            <g id="Grupo_53813" data-name="Grupo 53813" transform="translate(24.14)">
              <path id="Trazado_100556" data-name="Trazado 100556" d="M267.525,879.231a.286.286,0,0,1-.048-.569c.566-.1,1.142-.186,1.715-.26a.288.288,0,0,1,.072.571c-.564.07-1.133.156-1.688.254A.417.417,0,0,1,267.525,879.231Z" transform="translate(-267.237 -878.401)" fill="#b5ac84"/>
            </g>
          </g>
          <g id="Grupo_53815" data-name="Grupo 53815" transform="translate(36.26)">
            <path id="Trazado_100557" data-name="Trazado 100557" d="M279.244,889.179l-4.549-3.305-4.549,3.305,1.738-5.349-4.551-3.305h5.625l1.735-5.349,1.738,5.349h5.625l-4.551,3.305Zm-4.549-4.019,3.459,2.514-1.323-4.066,3.459-2.512h-4.275L274.7,877.03l-1.321,4.066H269.1l3.459,2.512-1.321,4.066Z" transform="translate(-267.333 -875.177)" fill="#b5ac84"/>
          </g>
          <g id="Grupo_53819" data-name="Grupo 53819" transform="translate(0 24.052)">
            <g id="Grupo_53816" data-name="Grupo 53816">
              <path id="Trazado_100558" data-name="Trazado 100558" d="M259.362,901.865a8.035,8.035,0,1,1,8.035-8.035h0A8.047,8.047,0,0,1,259.362,901.865Zm0-15.233a7.193,7.193,0,1,0,7.193,7.193A7.194,7.194,0,0,0,259.362,886.632Z" transform="translate(-251.327 -885.794)" fill="#b5ac84"/>
            </g>
            <g id="Grupo_53817" data-name="Grupo 53817" transform="translate(4.171 6.921)">
              <path id="Trazado_100559" data-name="Trazado 100559" d="M254.278,891.069a1.11,1.11,0,1,1,1.11-1.11A1.11,1.11,0,0,1,254.278,891.069Zm0-1.656a.546.546,0,1,0,.546.546h0A.546.546,0,0,0,254.278,889.413Z" transform="translate(-253.168 -888.849)" fill="#b5ac84"/>
            </g>
            <g id="Grupo_53818" data-name="Grupo 53818" transform="translate(9.524 6.921)">
              <path id="Trazado_100560" data-name="Trazado 100560" d="M256.643,891.069a1.11,1.11,0,1,1,1.11-1.112v0A1.113,1.113,0,0,1,256.643,891.069Zm0-1.656a.546.546,0,1,0,.546.546h0A.546.546,0,0,0,256.643,889.413Z" transform="translate(-255.531 -888.849)" fill="#b5ac84"/>
            </g>
          </g>
        </g>
      </g>
      <g id="Grupo_53849" data-name="Grupo 53849" transform="translate(329.096 150.588)">
        <path id="Trazado_100561" data-name="Trazado 100561" d="M420.8,949.408c-1.905.818-9.245-.032-9.245-.032s4.379-6.046,6.282-6.864,7.517.7,7.517.7S422.7,948.585,420.8,949.408Z" transform="translate(-363.371 -938.939)" fill="#8f8b66"/>
        <g id="Grupo_53823" data-name="Grupo 53823" transform="translate(0 9.034)">
          <g id="Grupo_53822" data-name="Grupo 53822">
            <path id="Trazado_100562" data-name="Trazado 100562" d="M390.841,998.287l-.555-.147c10.788-40.686,50.872-53.275,51.264-53.352l.113.564C441.273,945.434,401.547,957.911,390.841,998.287Z" transform="translate(-390.286 -944.788)" fill="#b3ae7f"/>
          </g>
        </g>
        <g id="Grupo_53827" data-name="Grupo 53827" transform="translate(37.871 15.121)">
          <path id="Trazado_100563" data-name="Trazado 100563" d="M415.346,955.033c-1.935-.743-6.595-6.479-6.595-6.479s7.356-1.273,9.29-.526,4.886,5.754,4.886,5.754S417.278,955.778,415.346,955.033Z" transform="translate(-404.791 -947.072)" fill="#8f8b66"/>
          <g id="Grupo_53826" data-name="Grupo 53826">
            <g id="Grupo_53825" data-name="Grupo 53825">
              <g id="Grupo_53824" data-name="Grupo 53824">
                <path id="Trazado_100564" data-name="Trazado 100564" d="M420.541,952.3c-3.38-1.6-13.436-4.248-13.538-4.275l.147-.555c.415.109,10.21,2.687,13.638,4.311Z" transform="translate(-407.003 -947.475)" fill="#b3ae7f"/>
              </g>
            </g>
          </g>
        </g>
        <g id="Grupo_53831" data-name="Grupo 53831" transform="translate(25.936 23.227)">
          <path id="Trazado_100565" data-name="Trazado 100565" d="M410.078,958.612c-1.935-.745-6.595-6.479-6.595-6.479s7.356-1.273,9.29-.526,4.886,5.754,4.886,5.754S412.012,959.355,410.078,958.612Z" transform="translate(-399.523 -950.649)" fill="#8f8b66"/>
          <g id="Grupo_53830" data-name="Grupo 53830">
            <g id="Grupo_53829" data-name="Grupo 53829">
              <g id="Grupo_53828" data-name="Grupo 53828">
                <path id="Trazado_100566" data-name="Trazado 100566" d="M415.273,955.885c-3.38-1.6-13.438-4.248-13.538-4.275l.145-.557c.417.111,10.21,2.689,13.638,4.313Z" transform="translate(-401.735 -951.053)" fill="#b3ae7f"/>
              </g>
            </g>
          </g>
        </g>
        <g id="Grupo_53835" data-name="Grupo 53835" transform="translate(16.141 32.91)">
          <path id="Trazado_100567" data-name="Trazado 100567" d="M405.755,962.887c-1.935-.745-6.6-6.479-6.6-6.479s7.358-1.273,9.29-.526,4.886,5.754,4.886,5.754S407.687,963.628,405.755,962.887Z" transform="translate(-395.2 -954.922)" fill="#8f8b66"/>
          <g id="Grupo_53834" data-name="Grupo 53834">
            <g id="Grupo_53833" data-name="Grupo 53833">
              <g id="Grupo_53832" data-name="Grupo 53832">
                <path id="Trazado_100568" data-name="Trazado 100568" d="M410.949,960.157c-3.382-1.6-13.438-4.245-13.538-4.272l.145-.557c.417.109,10.21,2.689,13.638,4.313Z" transform="translate(-397.411 -955.327)" fill="#b3ae7f"/>
              </g>
            </g>
          </g>
        </g>
        <g id="Grupo_53839" data-name="Grupo 53839" transform="translate(8.747 42.63)">
          <path id="Trazado_100569" data-name="Trazado 100569" d="M402.49,967.177c-1.935-.743-6.595-6.479-6.595-6.479s7.356-1.273,9.29-.526,4.887,5.754,4.887,5.754S404.427,967.922,402.49,967.177Z" transform="translate(-391.935 -959.214)" fill="#8f8b66"/>
          <g id="Grupo_53838" data-name="Grupo 53838">
            <g id="Grupo_53837" data-name="Grupo 53837">
              <g id="Grupo_53836" data-name="Grupo 53836">
                <path id="Trazado_100570" data-name="Trazado 100570" d="M407.685,964.45c-3.38-1.6-13.436-4.248-13.538-4.275l.147-.557c.415.109,10.208,2.689,13.638,4.313Z" transform="translate(-394.147 -959.618)" fill="#b3ae7f"/>
              </g>
            </g>
          </g>
        </g>
        <g id="Grupo_53844" data-name="Grupo 53844" transform="translate(31.674)">
          <g id="Grupo_53842" data-name="Grupo 53842">
            <g id="Grupo_53841" data-name="Grupo 53841">
              <g id="Grupo_53840" data-name="Grupo 53840">
                <path id="Trazado_100571" data-name="Trazado 100571" d="M411.61,948.2c-.535,2-5.736,7.252-5.736,7.252s-2.052-7.177-1.518-9.182,5.192-5.473,5.192-5.473S412.143,946.2,411.61,948.2Z" transform="translate(-404.268 -940.8)" fill="#8f8b66"/>
              </g>
            </g>
          </g>
          <g id="Grupo_53843" data-name="Grupo 53843" transform="translate(0.542 4.585)">
            <path id="Trazado_100572" data-name="Trazado 100572" d="M405.076,956.931l-.569-.086c.063-.424,1.579-10.439,2.823-14.021l.544.188C406.646,946.544,405.091,956.826,405.076,956.931Z" transform="translate(-404.507 -942.824)" fill="#b3ae7f"/>
          </g>
        </g>
        <g id="Grupo_53848" data-name="Grupo 53848" transform="translate(16.779 9.87)">
          <path id="Trazado_100573" data-name="Trazado 100573" d="M405.181,952.059c-.156,2.068-4.311,8.178-4.311,8.178s-3.332-6.683-3.171-8.749,4.109-6.332,4.109-6.332S405.339,950,405.181,952.059Z" transform="translate(-397.693 -945.157)" fill="#8f8b66"/>
          <g id="Grupo_53847" data-name="Grupo 53847" transform="translate(2.737 4.857)">
            <g id="Grupo_53846" data-name="Grupo 53846">
              <g id="Grupo_53845" data-name="Grupo 53845">
                <path id="Trazado_100574" data-name="Trazado 100574" d="M399.015,961.6c-.014-.431-.356-10.552.213-14.3l.569.086c-.562,3.7-.208,14.091-.206,14.2Z" transform="translate(-398.9 -947.301)" fill="#b3ae7f"/>
              </g>
            </g>
          </g>
        </g>
      </g>
      <g id="Grupo_53852" data-name="Grupo 53852" transform="translate(14.111 106.694)">
        <path id="Trazado_100575" data-name="Trazado 100575" d="M262.321,922.36c2.127,1.532,5.99,10.036,5.99,10.036s-9.408-.8-11.531-2.333a4.745,4.745,0,1,1,5.426-7.786C262.244,922.3,262.283,922.33,262.321,922.36Z" transform="translate(-254.748 -921.424)" fill="#7d6871"/>
        <path id="Trazado_100576" data-name="Trazado 100576" d="M307.091,981.852a.43.43,0,0,1-.392-.254c-.143-.3-14.4-30.574-48.078-56.393a.438.438,0,0,1,.532-.693c33.854,25.957,48.2,56.415,48.337,56.719a.44.44,0,0,1-.213.58A.444.444,0,0,1,307.091,981.852Z" transform="translate(-250.042 -917.614)" fill="#54464c"/>
        <g id="Grupo_53850" data-name="Grupo 53850" transform="translate(9.157 18.773)">
          <path id="Trazado_100577" data-name="Trazado 100577" d="M262.652,929.759c2.578-.471,11.384,2.644,11.384,2.644s-7.1,6.219-9.678,6.69a4.744,4.744,0,0,1-1.706-9.333Z" transform="translate(-258.79 -929.711)" fill="#7d6871"/>
          <path id="Trazado_100578" data-name="Trazado 100578" d="M261.156,933.757a.437.437,0,0,1-.084-.865c7.875-1.545,11.2-2.268,11.236-2.274a.437.437,0,0,1,.186.854c-.034.007-3.371.729-11.254,2.279A.524.524,0,0,1,261.156,933.757Z" transform="translate(-256.347 -928.576)" fill="#54464c"/>
        </g>
        <g id="Grupo_53851" data-name="Grupo 53851" transform="translate(31.578 15.538)">
          <path id="Trazado_100579" data-name="Trazado 100579" d="M278.131,933.58c-.294,2.6-5.82,10.135-5.82,10.135s-3.9-8.595-3.609-11.2a4.745,4.745,0,0,1,9.435,1.019l0,.043Z" transform="translate(-268.687 -928.283)" fill="#7d6871"/>
          <path id="Trazado_100580" data-name="Trazado 100580" d="M270.524,942.515h-.036a.437.437,0,0,1-.4-.469c0-.034.276-3.437,1.069-11.434a.437.437,0,0,1,.87.086c-.8,7.986-1.065,11.381-1.067,11.418A.438.438,0,0,1,270.524,942.515Z" transform="translate(-266.917 -925.809)" fill="#54464c"/>
        </g>
      </g>
      <g id="Grupo_53853" data-name="Grupo 53853" transform="translate(3.552 137.371)">
        <path id="Trazado_100581" data-name="Trazado 100581" d="M250.087,934.985c30.868-.77,51.778,21.775,53.9,41.017,0,0-18.538-.063-23.585-2.476s-11.655-17.876-12.906-20.434-6.853-11.164-6.853-11.164Z" transform="translate(-250.087 -934.966)" fill="#8f8b66"/>
        <path id="Trazado_100582" data-name="Trazado 100582" d="M250.087,934.974c21.383,6.4,17.835,21.956,25.952,31.043s27.946,9.975,27.946,9.975c-34.334,6.774-35.34-12.741-39.69-24.392A32.478,32.478,0,0,0,250.087,934.974Z" transform="translate(-250.087 -934.955)" fill="#54464c"/>
        <path id="Trazado_100583" data-name="Trazado 100583" d="M314.132,1000.113q-3.928-5.267-7.335-9.859c-8.674-11.678-15.124-20.361-20.808-27.178l.516-5.489a.727.727,0,0,0-1.448-.136l-.383,4.069a100.694,100.694,0,0,0-11.347-11.578.682.682,0,0,0,0-.317l-2.145-9.25a.727.727,0,1,0-1.416.331h0l1.806,7.784a77.764,77.764,0,0,0-9.753-6.631.727.727,0,0,0-.727,1.26,75.011,75.011,0,0,1,17.7,13.98l-14.476-.784a.727.727,0,0,0-.265,1.418.635.635,0,0,0,.186.034l15.919.868c.02,0,.036-.007.054-.007,1.389,1.516,2.809,3.147,4.286,4.914a.719.719,0,0,0,.489.655.664.664,0,0,0,.07.014c5.523,6.665,11.891,15.239,20.57,26.92q3.418,4.608,7.335,9.861a.728.728,0,1,0,1.167-.87Z" transform="translate(-236.621 -928.833)" fill="#b3ae7f"/>
      </g>
      <g id="Grupo_53854" data-name="Grupo 53854" transform="translate(12.598 188.007)">
        <path id="Trazado_100584" data-name="Trazado 100584" d="M278.018,957.79c-12.131-2.442-23.938,5.38-23.938,5.38s7.859,11.785,19.992,14.227,23.936-5.38,23.936-5.38S290.147,960.232,278.018,957.79Z" transform="translate(-254.08 -957.317)" fill="#8f8b66"/>
        <path id="Trazado_100585" data-name="Trazado 100585" d="M313.162,980.827a.376.376,0,0,1-.471-.03,79.446,79.446,0,0,0-19.043-11.866,102.636,102.636,0,0,0-36.423-8.4.376.376,0,0,1,.027-.752,103.439,103.439,0,0,1,36.7,8.461,80.211,80.211,0,0,1,19.242,12,.376.376,0,0,1,.027.532.391.391,0,0,1-.063.057Z" transform="translate(-250.546 -954.196)" fill="#b3ae7f"/>
        <path id="Trazado_100586" data-name="Trazado 100586" d="M268.619,964.243a.381.381,0,0,1-.44,0l-7.288-5.3a.377.377,0,1,1,.419-.627l.025.018,7.288,5.3a.376.376,0,0,1,.086.523.385.385,0,0,1-.086.086Z" transform="translate(-245.673 -956.139)" fill="#b3ae7f"/>
        <path id="Trazado_100587" data-name="Trazado 100587" d="M272.686,962.12l-.027.018-9.071,5.389a.377.377,0,1,1-.385-.648h0l9.071-5.389a.376.376,0,0,1,.412.63Z" transform="translate(-242.769 -952.111)" fill="#b3ae7f"/>
        <path id="Trazado_100588" data-name="Trazado 100588" d="M274.021,966.595a.38.38,0,0,1-.51-.066l-5.1-6.137a.378.378,0,0,1,.555-.512l.025.032,5.1,6.135a.375.375,0,0,1-.05.53Z" transform="translate(-236.076 -954.227)" fill="#b3ae7f"/>
      </g>
      <g id="Grupo_53900" data-name="Grupo 53900" transform="translate(90.808 12.155)">
        <g id="Grupo_53899" data-name="Grupo 53899">
          <g id="Grupo_53896" data-name="Grupo 53896">
            <path id="Trazado_100702" data-name="Trazado 100702" d="M292.418,888.964a4.636,4.636,0,1,1,4.635-4.635h0A4.641,4.641,0,0,1,292.418,888.964Zm0-8.783a4.148,4.148,0,1,0,4.148,4.148h0A4.153,4.153,0,0,0,292.418,880.181Z" transform="translate(-287.781 -879.692)" fill="#b5ac84"/>
          </g>
          <g id="Grupo_53897" data-name="Grupo 53897" transform="translate(2.08 3.998)">
            <path id="Trazado_100703" data-name="Trazado 100703" d="M289.338,882.737a.64.64,0,1,1,.641-.641A.64.64,0,0,1,289.338,882.737Zm0-.956a.315.315,0,1,0,.315.315.314.314,0,0,0-.315-.315Z" transform="translate(-288.699 -881.457)" fill="#b5ac84"/>
          </g>
          <g id="Grupo_53898" data-name="Grupo 53898" transform="translate(5.822 3.998)">
            <path id="Trazado_100704" data-name="Trazado 100704" d="M290.99,882.737a.64.64,0,1,1,.641-.641A.64.64,0,0,1,290.99,882.737Zm0-.956a.315.315,0,1,0,.315.315.311.311,0,0,0-.313-.315Z" transform="translate(-290.351 -881.457)" fill="#b5ac84"/>
          </g>
        </g>
      </g>
      <g id="Grupo_53905" data-name="Grupo 53905" transform="translate(357.454 34.718)">
        <g id="Grupo_53904" data-name="Grupo 53904">
          <g id="Grupo_53901" data-name="Grupo 53901">
            <path id="Trazado_100705" data-name="Trazado 100705" d="M407.441,898.924a4.636,4.636,0,1,1,4.635-4.637v0A4.641,4.641,0,0,1,407.441,898.924Zm0-8.783a4.148,4.148,0,1,0,4.148,4.148h0A4.153,4.153,0,0,0,407.441,890.141Z" transform="translate(-402.804 -889.652)" fill="#b5ac84"/>
          </g>
          <g id="Grupo_53902" data-name="Grupo 53902" transform="translate(2.08 3.996)">
            <path id="Trazado_100706" data-name="Trazado 100706" d="M404.363,892.7a.64.64,0,1,1,.639-.639A.64.64,0,0,1,404.363,892.7Zm0-.954a.315.315,0,1,0,.313.315.314.314,0,0,0-.313-.315Z" transform="translate(-403.722 -891.416)" fill="#b5ac84"/>
          </g>
          <g id="Grupo_53903" data-name="Grupo 53903" transform="translate(5.822 3.996)">
            <path id="Trazado_100707" data-name="Trazado 100707" d="M406.013,892.7a.64.64,0,1,1,.641-.639A.64.64,0,0,1,406.013,892.7Zm0-.954a.315.315,0,0,0,0,.63.315.315,0,0,0,0-.63Z" transform="translate(-405.374 -891.416)" fill="#b5ac84"/>
          </g>
        </g>
      </g>
      <g id="Grupo_53914" data-name="Grupo 53914" transform="translate(287.101 6.172)">
        <g id="Grupo_53913" data-name="Grupo 53913">
          <g id="Grupo_53906" data-name="Grupo 53906" transform="translate(0 2.17)">
            <path id="Trazado_100708" data-name="Trazado 100708" d="M382.362,893.126h-9.714V878.009h9.714Zm-8.973-.741h8.23V878.75h-8.23Z" transform="translate(-372.648 -878.009)" fill="#b5ac84"/>
          </g>
          <g id="Grupo_53907" data-name="Grupo 53907" transform="translate(2.7)">
            <path id="Trazado_100709" data-name="Trazado 100709" d="M378.151,879.912H373.84v-2.861h4.311Zm-3.57-.739h2.832v-1.384h-2.832Z" transform="translate(-373.84 -877.051)" fill="#b5ac84"/>
          </g>
          <g id="Grupo_53908" data-name="Grupo 53908" transform="translate(2.7 16.567)">
            <path id="Trazado_100710" data-name="Trazado 100710" d="M378.151,887.225H373.84v-2.861h4.311Zm-3.57-.738h2.832V885.1h-2.832Z" transform="translate(-373.84 -884.364)" fill="#b5ac84"/>
          </g>
          <g id="Grupo_53909" data-name="Grupo 53909" transform="translate(0.948 3.362)">
            <path id="Trazado_100711" data-name="Trazado 100711" d="M380.353,883.732a.368.368,0,0,1-.1-.014c-1.341-.362-5.521-2.127-7.129-4.612a.37.37,0,1,1,.623-.4c1.47,2.275,5.487,3.971,6.7,4.3a.369.369,0,0,1,.256.455.376.376,0,0,1-.356.272Z" transform="translate(-373.066 -878.535)" fill="#b5ac84"/>
          </g>
          <g id="Grupo_53910" data-name="Grupo 53910" transform="translate(0.947 5.724)">
            <path id="Trazado_100712" data-name="Trazado 100712" d="M380.354,884.775a.383.383,0,0,1-.1-.013c-1.341-.363-5.521-2.127-7.129-4.612a.37.37,0,1,1,.623-.4h0c1.47,2.274,5.487,3.971,6.7,4.3a.371.371,0,0,1-.1.727Z" transform="translate(-373.066 -879.578)" fill="#b5ac84"/>
          </g>
          <g id="Grupo_53911" data-name="Grupo 53911" transform="translate(0.956 8.103)">
            <path id="Trazado_100713" data-name="Trazado 100713" d="M380.348,885.807a.3.3,0,0,1-.1-.011c-1.341-.362-5.521-2.127-7.129-4.612a.371.371,0,0,1,.623-.4c1.47,2.277,5.487,3.971,6.7,4.3a.37.37,0,0,1-.1.727Z" transform="translate(-373.07 -880.628)" fill="#b5ac84"/>
          </g>
          <g id="Grupo_53912" data-name="Grupo 53912" transform="translate(0.947 10.45)">
            <path id="Trazado_100714" data-name="Trazado 100714" d="M380.354,886.861a.383.383,0,0,1-.1-.013c-1.341-.36-5.521-2.125-7.129-4.613a.37.37,0,0,1,.623-.4h0c1.47,2.274,5.487,3.971,6.7,4.3a.37.37,0,0,1-.1.727Z" transform="translate(-373.066 -881.664)" fill="#b5ac84"/>
          </g>
        </g>
      </g>
      <path id="Trazado_100715" data-name="Trazado 100715" d="M416.613,919.966a.278.278,0,0,0-.31.245v0a1.679,1.679,0,0,1-.9,1.09c-.65.367-2.116.818-4.606-.322-2.213-1.01-4.232-1.108-5.541-.267a2.777,2.777,0,0,0-1,1.124c-.02,0-.038-.007-.059-.007a1.214,1.214,0,0,0-1.214,1.214h0c0,.67.544,16.107,1.214,16.107s1.214-15.436,1.214-16.107a1.207,1.207,0,0,0-.6-1.047,2.247,2.247,0,0,1,.759-.811c1.144-.734,2.965-.623,5,.308,2.718,1.244,4.374.72,5.12.3a2.2,2.2,0,0,0,1.182-1.52A.28.28,0,0,0,416.613,919.966Zm-11.76,3.314a.663.663,0,1,1-.865-.627,3.747,3.747,0,0,0-.052.573.283.283,0,0,0,.564,0,3.092,3.092,0,0,1,.048-.5.657.657,0,0,1,.306.555Z" transform="translate(-45.129 -816.577)" fill="#b5ac84"/>
      <g id="Grupo_53919" data-name="Grupo 53919" transform="translate(36.325 94.839)">
        <g id="Grupo_53918" data-name="Grupo 53918">
          <g id="Grupo_53915" data-name="Grupo 53915">
            <path id="Trazado_100716" data-name="Trazado 100716" d="M265.22,936.269c-1.948-1.454.643-7.349,4.273-12.215s8.55-9.023,10.5-7.569-.643,7.349-4.275,12.215S267.169,937.723,265.22,936.269ZM279.68,916.9c-1.3-.972-5.541,1.8-9.775,7.464s-5.684,10.523-4.377,11.495,5.541-1.794,9.775-7.464,5.682-10.521,4.379-11.495Z" transform="translate(-264.554 -916.191)" fill="#b5ac84"/>
          </g>
          <g id="Grupo_53916" data-name="Grupo 53916" transform="translate(0.017 13.663)">
            <path id="Trazado_100717" data-name="Trazado 100717" d="M265.211,928.637c-1.022-.761-.818-2.7.462-4.418s3.083-2.462,4.1-1.7.816,2.7-.464,4.415S266.233,929.4,265.211,928.637Zm4.259-5.7c-.763-.571-2.313.161-3.384,1.595s-1.328,3.126-.566,3.695,2.313-.158,3.384-1.592,1.328-3.126.566-3.7Z" transform="translate(-264.561 -922.222)" fill="#b5ac84"/>
          </g>
          <g id="Grupo_53917" data-name="Grupo 53917" transform="translate(8.879 0.258)">
            <path id="Trazado_100718" data-name="Trazado 100718" d="M272.306,919.991a1.541,1.541,0,0,1,.338,2.125,7.285,7.285,0,0,1,.938,1.534c1.815-3.446,2.413-6.273,1.3-7.1s-3.631.532-6.4,3.226a7.013,7.013,0,0,1,1.715.478A1.545,1.545,0,0,1,272.306,919.991Z" transform="translate(-268.473 -916.305)" fill="#b5ac84"/>
          </g>
        </g>
      </g>
      <g id="Grupo_53921" data-name="Grupo 53921" transform="translate(0 166.267)">
        <g id="Grupo_53920" data-name="Grupo 53920">
          <path id="Trazado_100719" data-name="Trazado 100719" d="M260.43,961.723l-4.549-3.305-4.551,3.305,1.738-5.349-4.549-3.305h5.625l1.738-5.349,1.738,5.349h5.623l-4.549,3.305Zm-4.549-4.016,3.457,2.512-1.321-4.066,3.459-2.512H257.2l-1.321-4.066-1.323,4.066h-4.275l3.459,2.512-1.321,4.066Z" transform="translate(-248.519 -947.721)" fill="#b5ac84"/>
        </g>
      </g>
      <g id="Grupo_53923" data-name="Grupo 53923" transform="translate(367.828 193.658)">
        <g id="Grupo_53922" data-name="Grupo 53922">
          <path id="Trazado_100720" data-name="Trazado 100720" d="M419.294,973.814l-4.551-3.305-4.549,3.305,1.738-5.349-4.549-3.305h5.623l1.737-5.348,1.74,5.348h5.623l-4.549,3.305Zm-4.551-4.017,3.459,2.512-1.321-4.066,3.459-2.512h-4.282l-1.321-4.066-1.321,4.066h-4.277l3.459,2.512-1.321,4.066Z" transform="translate(-407.383 -959.812)" fill="#b5ac84"/>
        </g>
      </g>
    </g>
    <g id="Grupo_55931" data-name="Grupo 55931" transform="translate(299.753 881.834)">
      <path id="Trazado_105574" data-name="Trazado 105574" d="M385.378,908.087s-16.75,28.834-21.313,36.068c-3.382,5.36-15.849,23.5-13.662-11.477,1.121-17.96,14.483-18.853,34.975-24.591" transform="translate(-165.471 -839.114)" fill="#c67575"/>
      <g id="Grupo_55890" data-name="Grupo 55890" transform="translate(0 61.868)">
        <rect id="Rectángulo_5361" data-name="Rectángulo 5361" width="28.69" height="163.756" transform="translate(24.459)" fill="#877481"/>
        <path id="Trazado_105575" data-name="Trazado 105575" d="M349.282,1059.851H271.135l9.7-152.522h58.206Z" transform="translate(-271.135 -901.94)" fill="#ecd4df"/>
        <g id="Grupo_55889" data-name="Grupo 55889" transform="translate(0 5.389)">
          <g id="Grupo_55888" data-name="Grupo 55888" clip-path="url(#clip-path)">
            <g id="Grupo_55887" data-name="Grupo 55887" transform="translate(-10.038 -4.845)">
              <path id="Trazado_105576" data-name="Trazado 105576" d="M272.4,908.039s13.622,31.546,69.543,38.716" transform="translate(-259.495 -901.587)" fill="none" stroke="#ddb8cb" stroke-miterlimit="10" stroke-width="1"/>
              <path id="Trazado_105577" data-name="Trazado 105577" d="M269.888,912.874s13.8,32.862,81.029,45.89" transform="translate(-262.675 -895.469)" fill="none" stroke="#ddb8cb" stroke-miterlimit="10" stroke-width="1"/>
              <path id="Trazado_105578" data-name="Trazado 105578" d="M269.482,918.132s13.8,32.862,81.029,45.89" transform="translate(-263.189 -888.815)" fill="none" stroke="#ddb8cb" stroke-miterlimit="10" stroke-width="1"/>
              <path id="Trazado_105579" data-name="Trazado 105579" d="M268.578,924.089s13.8,32.862,81.029,45.89" transform="translate(-264.333 -881.277)" fill="none" stroke="#ddb8cb" stroke-miterlimit="10" stroke-width="1"/>
              <path id="Trazado_105580" data-name="Trazado 105580" d="M270.513,938.123S309.2,956,331.427,948.118" transform="translate(-261.884 -863.519)" fill="none" stroke="#ddb8cb" stroke-miterlimit="10" stroke-width="1"/>
              <path id="Trazado_105581" data-name="Trazado 105581" d="M345.569,944.434s-14.34,9.32-38.716,11.472c-29.28,2.583-40.15,0-40.15,0" transform="translate(-266.704 -855.533)" fill="none" stroke="#ddb8cb" stroke-miterlimit="10" stroke-width="1"/>
              <path id="Trazado_105582" data-name="Trazado 105582" d="M353.92,948.232S328.11,967.59,268.6,971.174" transform="translate(-264.301 -850.727)" fill="none" stroke="#ddb8cb" stroke-miterlimit="10" stroke-width="1"/>
              <path id="Trazado_105583" data-name="Trazado 105583" d="M354.869,953.928s-19.358,20.792-85.317,27.244" transform="translate(-263.1 -843.519)" fill="none" stroke="#ddb8cb" stroke-miterlimit="10" stroke-width="1"/>
              <path id="Trazado_105584" data-name="Trazado 105584" d="M354.235,961.207S334.877,982,268.92,988.45" transform="translate(-263.9 -834.308)" fill="none" stroke="#ddb8cb" stroke-miterlimit="10" stroke-width="1"/>
              <path id="Trazado_105585" data-name="Trazado 105585" d="M356.135,965.954s-19.358,20.792-85.317,27.246" transform="translate(-261.498 -828.302)" fill="none" stroke="#ddb8cb" stroke-miterlimit="10" stroke-width="1"/>
              <path id="Trazado_105586" data-name="Trazado 105586" d="M275.882,922.4s41.584-2.868,61.657-17.206" transform="translate(-255.09 -905.191)" fill="none" stroke="#ddb8cb" stroke-miterlimit="10" stroke-width="1"/>
              <path id="Trazado_105587" data-name="Trazado 105587" d="M280.946,926.829s41.581-2.868,61.657-17.208" transform="translate(-248.682 -899.585)" fill="none" stroke="#ddb8cb" stroke-miterlimit="10" stroke-width="1"/>
              <path id="Trazado_105588" data-name="Trazado 105588" d="M287.908,930.309s41.584-2.868,61.657-17.206" transform="translate(-239.873 -895.179)" fill="none" stroke="#ddb8cb" stroke-miterlimit="10" stroke-width="1"/>
              <path id="Trazado_105589" data-name="Trazado 105589" d="M295.82,933.159s41.584-2.868,61.657-17.208" transform="translate(-229.861 -891.575)" fill="none" stroke="#ddb8cb" stroke-miterlimit="10" stroke-width="1"/>
            </g>
          </g>
        </g>
      </g>
      <path id="Trazado_105591" data-name="Trazado 105591" d="M345.885,886.11c-.818,20.493-19.673,32.789-28.689,49.184s3.278,36.888,5.738,59.84-22.953,73.777-18.035,101.648l136.9-1.64s-23.771-72.957-25.411-99.188,10.656-46.724,14.755-63.121-31.969-22.951-36.067-28.689-1.64-18.855-1.64-18.855Z" transform="translate(-225.178 -867.961)" fill="#84747e"/>
      <g id="Grupo_55893" data-name="Grupo 55893" transform="translate(79.088 17.329)">
        <g id="Grupo_55892" data-name="Grupo 55892" clip-path="url(#clip-path-2)">
          <g id="Grupo_55891" data-name="Grupo 55891" transform="translate(9.65 -10.656)">
            <path id="Trazado_105592" data-name="Trazado 105592" d="M345.195,880.586s0,24.593-6.558,36.887-11.748,36.89-4.37,59.843,1.912,36.067-8.745,59.841-13.937,58.2-8.2,66.4" transform="translate(-300.929 -880.586)" fill="none" stroke="#b28ea1" stroke-miterlimit="10" stroke-width="2" stroke-dasharray="9 10"/>
            <path id="Trazado_105593" data-name="Trazado 105593" d="M308.526,917.495s1.64,9.836,33.338,12.022c43.629,3.009,79.241-9.836,79.241-9.836" transform="translate(-308.526 -833.881)" fill="none" stroke="#b28ea1" stroke-miterlimit="10" stroke-width="2" stroke-dasharray="9 10"/>
            <path id="Trazado_105594" data-name="Trazado 105594" d="M309.25,962.217s15.575,17.215,63.939,9.836S419.915,957.3,419.915,957.3" transform="translate(-307.61 -783.514)" fill="none" stroke="#b28ea1" stroke-miterlimit="10" stroke-width="2" stroke-dasharray="9 10"/>
          </g>
        </g>
      </g>
      <path id="Trazado_105596" data-name="Trazado 105596" d="M333.858,937.035,439.33,974.2s22.407,50.55,19.947,57.108-165.587.82-165.587.82,7.752-31.095,18.035-53.284C327.3,945.231,333.858,937.035,333.858,937.035Z" transform="translate(-239.199 -802.483)" fill="#f16c7a"/>
      <g id="Grupo_55895" data-name="Grupo 55895" transform="translate(54.491 134.552)">
        <g id="Grupo_55894" data-name="Grupo 55894" clip-path="url(#clip-path-3)">
          <path id="Trazado_105597" data-name="Trazado 105597" d="M411.341,897.412s20.493,3.28,33.609,16.395S459.705,930.2,459.705,930.2s-24.768,10.19-40.988,22.953c-33.335,26.231-32.894,135.022-36.887,145.23-35.521,1.64-48.026-37.859-62.027-45.222-20.778-10.926-23.861-38.294-28.07-55.747.562,3.253,14.15,1.418,26.566-12.974,5.43-6.293,8.2-3.28,18.855-14.347C353.248,953.383,384.046,906.906,411.341,897.412Z" transform="translate(-296.166 -987.174)" fill="#d1596a"/>
        </g>
      </g>
      <g id="Grupo_55899" data-name="Grupo 55899" transform="translate(233.639 104.626)">
        <rect id="Rectángulo_5362" data-name="Rectángulo 5362" width="21.869" height="124.823" transform="translate(18.644)" fill="#877481"/>
        <path id="Trazado_105599" data-name="Trazado 105599" d="M430.333,1041.9H370.765l7.395-116.26h44.368Z" transform="translate(-370.765 -921.53)" fill="#86bec4"/>
        <g id="Grupo_55898" data-name="Grupo 55898" transform="translate(0 4.108)">
          <g id="Grupo_55897" data-name="Grupo 55897" clip-path="url(#clip-path-4)">
            <g id="Grupo_55896" data-name="Grupo 55896" transform="translate(-7.65 -3.694)">
              <path id="Trazado_105600" data-name="Trazado 105600" d="M371.73,926.179a35.593,35.593,0,0,0,4.683,6.252,48.605,48.605,0,0,0,5.616,5.376,66.676,66.676,0,0,0,13.026,8.393,89.2,89.2,0,0,0,14.458,5.75c2.481.793,5.029,1.364,7.546,2.066,2.548.576,5.12,1.06,7.682,1.674-2.612-.231-5.224-.555-7.843-.856-2.574-.542-5.181-.976-7.739-1.627a68.918,68.918,0,0,1-7.557-2.383c-1.235-.478-2.483-.92-3.706-1.427l-3.6-1.681a61.441,61.441,0,0,1-13.121-8.928C377.307,935.186,373.792,931.045,371.73,926.179Z" transform="translate(-361.894 -921.261)" fill="#76aaad"/>
              <path id="Trazado_105601" data-name="Trazado 105601" d="M369.814,929.865a35.683,35.683,0,0,0,5.5,7.211c.99,1.142,2.141,2.134,3.21,3.2,1.13,1,2.3,1.959,3.455,2.925a83.41,83.41,0,0,0,15.337,9.562,128.288,128.288,0,0,0,16.741,6.986l8.695,2.714c2.934.8,5.886,1.536,8.822,2.386-3.011-.471-6.008-1.054-9.023-1.577-2.963-.734-5.931-1.484-8.889-2.277a112.15,112.15,0,0,1-17.108-6.717,77.034,77.034,0,0,1-15.4-10.074C376.574,940.145,372.274,935.5,369.814,929.865Z" transform="translate(-364.318 -916.596)" fill="#76aaad"/>
              <path id="Trazado_105602" data-name="Trazado 105602" d="M369.5,933.873a35.692,35.692,0,0,0,5.5,7.211c.99,1.142,2.141,2.134,3.21,3.194,1.131,1,2.3,1.962,3.453,2.927a83.509,83.509,0,0,0,15.339,9.562,128.325,128.325,0,0,0,16.741,6.986l8.695,2.714c2.934.8,5.885,1.536,8.822,2.386-3.011-.474-6.008-1.053-9.023-1.579-2.965-.734-5.933-1.482-8.889-2.274a112.186,112.186,0,0,1-17.108-6.717,77.214,77.214,0,0,1-15.4-10.074C376.263,944.151,371.965,939.5,369.5,933.873Z" transform="translate(-364.709 -911.525)" fill="#76aaad"/>
              <path id="Trazado_105603" data-name="Trazado 105603" d="M368.816,938.413a35.637,35.637,0,0,0,5.5,7.213c.99,1.142,2.141,2.134,3.21,3.194,1.13,1,2.3,1.96,3.455,2.927a83.421,83.421,0,0,0,15.337,9.562,128.621,128.621,0,0,0,16.741,6.986l8.695,2.712c2.934.8,5.885,1.536,8.821,2.385-3.011-.471-6.008-1.051-9.023-1.577-2.963-.734-5.931-1.482-8.889-2.274a112.186,112.186,0,0,1-17.108-6.717,77.133,77.133,0,0,1-15.4-10.077C375.574,948.693,371.276,944.045,368.816,938.413Z" transform="translate(-365.581 -905.78)" fill="#76aaad"/>
              <path id="Trazado_105604" data-name="Trazado 105604" d="M370.291,949.11c3.788,1.314,7.576,2.558,11.388,3.7,3.819,1.112,7.646,2.186,11.524,2.983a79.276,79.276,0,0,0,11.71,1.758,39.47,39.47,0,0,0,11.81-.816,29.767,29.767,0,0,1-11.853,2.123,55.808,55.808,0,0,1-12.025-1.407,81.664,81.664,0,0,1-11.576-3.407A80.283,80.283,0,0,1,370.291,949.11Z" transform="translate(-363.715 -892.244)" fill="#76aaad"/>
              <path id="Trazado_105605" data-name="Trazado 105605" d="M427.5,953.921a53.173,53.173,0,0,1-14.016,6.545,78.783,78.783,0,0,1-15.248,3.027c-5.142.39-10.294.725-15.461.673a68.641,68.641,0,0,1-15.387-1.5,62.214,62.214,0,0,0,7.684.353c2.56.021,5.122-.027,7.68-.161,5.118-.218,10.233-.537,15.332-1.056a89.482,89.482,0,0,0,15.04-2.587,74.7,74.7,0,0,0,7.308-2.277A55.82,55.82,0,0,0,427.5,953.921Z" transform="translate(-367.388 -886.156)" fill="#76aaad"/>
              <path id="Trazado_105606" data-name="Trazado 105606" d="M433.868,956.816a65.777,65.777,0,0,1-14.945,8.194,124.6,124.6,0,0,1-16.275,5.219l-4.168.943-4.2.784c-2.793.555-5.618.931-8.439,1.289-2.825.335-5.664.532-8.491.8-2.843.1-5.682.229-8.518.265,2.814-.419,5.63-.711,8.434-1.094,2.8-.431,5.607-.77,8.391-1.26,5.564-.977,11.132-1.926,16.587-3.369a150.516,150.516,0,0,0,16.209-4.787c2.648-.958,5.285-1.971,7.85-3.144A61.2,61.2,0,0,0,433.868,956.816Z" transform="translate(-365.557 -882.493)" fill="#76aaad"/>
              <path id="Trazado_105607" data-name="Trazado 105607" d="M434.592,961.158c-4.03,4.2-9.222,7.077-14.431,9.578a105.657,105.657,0,0,1-16.349,5.944,163.5,163.5,0,0,1-16.995,3.6l-8.608,1.065c-2.888.193-5.766.444-8.649.582,2.845-.523,5.7-.936,8.538-1.407l8.5-1.529c2.8-.657,5.636-1.128,8.432-1.787,2.784-.7,5.591-1.309,8.332-2.156a121.773,121.773,0,0,0,16.272-5.5,79.16,79.16,0,0,0,7.764-3.677A40.9,40.9,0,0,0,434.592,961.158Z" transform="translate(-364.641 -876.998)" fill="#76aaad"/>
              <path id="Trazado_105608" data-name="Trazado 105608" d="M434.109,966.707c-4.028,4.193-9.22,7.075-14.43,9.578a105.974,105.974,0,0,1-16.347,5.944,163.577,163.577,0,0,1-16.995,3.6l-8.611,1.067c-2.888.193-5.765.442-8.649.582,2.845-.523,5.7-.938,8.541-1.409l8.5-1.527c2.8-.659,5.639-1.128,8.432-1.79,2.784-.7,5.591-1.309,8.332-2.154a122.24,122.24,0,0,0,16.275-5.5,78.348,78.348,0,0,0,7.764-3.677A40.893,40.893,0,0,0,434.109,966.707Z" transform="translate(-365.252 -869.977)" fill="#76aaad"/>
              <path id="Trazado_105609" data-name="Trazado 105609" d="M435.557,970.325c-4.03,4.2-9.222,7.077-14.431,9.578a105.672,105.672,0,0,1-16.349,5.944,163.5,163.5,0,0,1-17,3.6l-8.611,1.065c-2.886.193-5.763.444-8.647.582,2.845-.523,5.7-.936,8.538-1.407l8.5-1.529c2.8-.657,5.636-1.128,8.432-1.787,2.782-.7,5.591-1.31,8.332-2.157a121.741,121.741,0,0,0,16.272-5.5,79.384,79.384,0,0,0,7.764-3.677A40.888,40.888,0,0,0,435.557,970.325Z" transform="translate(-363.42 -865.398)" fill="#76aaad"/>
              <path id="Trazado_105610" data-name="Trazado 105610" d="M374.383,937.125c4.064-.673,8.1-1.364,12.122-2.134,4.012-.8,8.024-1.581,11.975-2.592,3.955-.983,7.9-2.043,11.735-3.4a67.062,67.062,0,0,0,11.168-5,43.237,43.237,0,0,1-10.7,6.216,77.411,77.411,0,0,1-11.8,3.824,105.656,105.656,0,0,1-12.177,2.227A95.079,95.079,0,0,1,374.383,937.125Z" transform="translate(-358.537 -924.008)" fill="#76aaad"/>
              <path id="Trazado_105611" data-name="Trazado 105611" d="M378.243,940.5c4.062-.671,8.1-1.364,12.122-2.134,4.012-.8,8.024-1.581,11.975-2.591,3.955-.983,7.895-2.041,11.735-3.394a67.16,67.16,0,0,0,11.166-5,43.26,43.26,0,0,1-10.7,6.214,77.431,77.431,0,0,1-11.8,3.826,105.946,105.946,0,0,1-12.174,2.227A95.511,95.511,0,0,1,378.243,940.5Z" transform="translate(-353.652 -919.733)" fill="#76aaad"/>
              <path id="Trazado_105612" data-name="Trazado 105612" d="M383.55,943.156c4.064-.673,8.1-1.364,12.122-2.134,4.012-.8,8.024-1.581,11.975-2.592,3.955-.983,7.9-2.043,11.735-3.4a67.063,67.063,0,0,0,11.168-5,43.237,43.237,0,0,1-10.7,6.216,77.406,77.406,0,0,1-11.8,3.824,105.626,105.626,0,0,1-12.177,2.227A95.84,95.84,0,0,1,383.55,943.156Z" transform="translate(-346.937 -916.376)" fill="#76aaad"/>
              <path id="Trazado_105613" data-name="Trazado 105613" d="M389.581,945.327c4.064-.673,8.1-1.364,12.122-2.134,4.012-.8,8.024-1.581,11.975-2.592,3.955-.983,7.895-2.043,11.735-3.4a66.972,66.972,0,0,0,11.166-5,43.264,43.264,0,0,1-10.7,6.216,77.462,77.462,0,0,1-11.8,3.824,105.083,105.083,0,0,1-12.174,2.227A95.514,95.514,0,0,1,389.581,945.327Z" transform="translate(-339.305 -913.629)" fill="#76aaad"/>
            </g>
          </g>
        </g>
      </g>
      <path id="Trazado_105615" data-name="Trazado 105615" d="M299.635,934.49a46.961,46.961,0,0,1,3.616-3.72c2.028-1.108-.256,2.832-.256,2.832s5.981-3.4,6.753-2.39c.616.8-2.256,2.508-2.256,2.508s3.19-1.944,3.86-1.015S308.4,935.1,308.4,935.1s3.058-.625,3.081-.011c.036,1.033-3.108,1.443-3.108,1.443s2.583.526,2.152,1.275-7.8,1.293-7.8,1.293Z" transform="translate(-233.197 -810.659)" fill="#e2857b"/>
      <path id="Trazado_105616" data-name="Trazado 105616" d="M292.76,936.12l4.177,4.177,14.97-8.355,3.271,5.783s-11.277,10.58-17.2,11.624-7.659-3.831-7.659-3.831Z" transform="translate(-245.531 -808.927)" fill="#edad54"/>
      <path id="Trazado_105617" data-name="Trazado 105617" d="M411.16,893.613s20.493,3.278,33.609,16.395S459.524,926.4,459.524,926.4s-24.765,10.188-40.988,22.953c-33.335,26.231-43.96,126.414-47.954,136.622-35.521,1.64-36.96-29.253-50.96-36.613-20.778-10.926-23.861-38.3-28.071-55.749.562,3.253,14.15,1.42,26.566-12.974,5.43-6.293,8.2-3.278,18.855-14.344C353.067,949.584,383.865,903.1,411.16,893.613Z" transform="translate(-242.169 -857.429)" fill="#f16c7a"/>
      <g id="Grupo_55913" data-name="Grupo 55913" transform="translate(195.451)">
        <path id="Trazado_105618" data-name="Trazado 105618" d="M365.749,902.224a46.94,46.94,0,0,0-3.616-3.72c-2.027-1.108.256,2.832.256,2.832s-5.981-3.4-6.753-2.39c-.616.8,2.256,2.506,2.256,2.506s-3.19-1.941-3.86-1.013,2.956,2.392,2.956,2.392-3.058-.628-3.081-.011c-.036,1.033,3.108,1.443,3.108,1.443s-2.583.523-2.152,1.276,7.8,1.294,7.8,1.294Z" transform="translate(-353.908 -851.489)" fill="#e2857b"/>
        <path id="Trazado_105619" data-name="Trazado 105619" d="M377.926,885.869s-3.208-6.176-7.039-1-1.719,6.64.274,11.2c1.742,3.994,2.241,8.541,7.65,8.2s.188.136.188.136Z" transform="translate(-335.121 -871.109)" fill="#4c4048"/>
        <path id="Trazado_105620" data-name="Trazado 105620" d="M384.126,927.5l-1.092,9.734a62.8,62.8,0,0,1,1.568,18.017,94.876,94.876,0,0,1-2.872,18.8l-6.789-.263-2.612-42.3Z" transform="translate(-330.599 -814.551)" fill="#e2857b"/>
        <path id="Trazado_105621" data-name="Trazado 105621" d="M378.454,932.084l-.26,4.961a62.8,62.8,0,0,1,1.568,18.017,94.874,94.874,0,0,1-2.873,18.8l-6.006-.523-3.4-45.693Z" transform="translate(-336.725 -814.364)" fill="#e2857b"/>
        <path id="Trazado_105622" data-name="Trazado 105622" d="M394.413,909.888l6.287,79.241a67.468,67.468,0,0,1-19.675,1.366c-12.675-.911-16.395-2.46-16.395-2.46l8.04-77.347Z" transform="translate(-340.34 -836.835)" fill="#ecd4df"/>
        <g id="Grupo_55901" data-name="Grupo 55901" transform="translate(24.29 73.053)">
          <g id="Grupo_55900" data-name="Grupo 55900" clip-path="url(#clip-path-5)">
            <path id="Trazado_105623" data-name="Trazado 105623" d="M372.924,911.56l-7.1,77.6,4.1,1.093L375.93,913.2l3.006-.273-5.192,77.056,4.1.273,4.372-77.055,3.279-.273-2.733,77.6,4.1.273.82-77.875,2.459-.273.546,77.329,5.465-.273-4.372-78.968" transform="translate(-363.125 -908.809)" fill="none" stroke="#e0b8cd" stroke-miterlimit="10" stroke-width="1"/>
          </g>
        </g>
        <path id="Trazado_105625" data-name="Trazado 105625" d="M382.042,894.731c2.644.218,6.615-.347,9.4,12.185,1.556,7-.358,26.46-.358,26.46-8.706,2.272-16.114,1.563-22.337-1.325,0,0,2.46-10.221-.947-18.739-1.781-4.456,1.96-8.7,4.32-12.313C377.342,892.991,380.162,894.577,382.042,894.731Z" transform="translate(-336.918 -856.303)" fill="#fff"/>
        <g id="Grupo_55906" data-name="Grupo 55906" transform="translate(34.904 10.2)">
          <g id="Grupo_55904" data-name="Grupo 55904" transform="translate(5.398 19.103)">
            <path id="Trazado_105626" data-name="Trazado 105626" d="M371.7,900.054c.763,3.545,4.411,2.816,8.794.89l.956-10.369-8.613,2.39Z" transform="translate(-371.698 -890.576)" fill="#e2857b"/>
            <g id="Grupo_55903" data-name="Grupo 55903">
              <g id="Grupo_55902" data-name="Grupo 55902" clip-path="url(#clip-path-6)">
                <path id="Trazado_105627" data-name="Trazado 105627" d="M369.325,892.166c-1.371,5.949-1.1,11.823,4.313,13.069s12.367-2.852,13.737-8.8-1.586-10.269-7-11.515S370.7,886.215,369.325,892.166Z" transform="translate(-375.584 -898.129)" fill="#2b1c40"/>
              </g>
            </g>
          </g>
          <path id="Trazado_105629" data-name="Trazado 105629" d="M370.012,891.449c-1.368,5.949-1.1,11.823,4.313,13.069s12.369-2.852,13.737-8.8-1.584-10.269-7-11.515S371.383,885.5,370.012,891.449Z" transform="translate(-369.315 -879.933)" fill="#e2857b"/>
          <path id="Trazado_105630" data-name="Trazado 105630" d="M381.076,896.376c-.111,2.451-.029,8.314,1.2,7.7,7.333-3.666,10.894-15.232.467-20.124-12.147-5.7-11.7,3.881-11.7,3.881S381.311,891.2,381.076,896.376Z" transform="translate(-367.135 -882.143)" fill="#4c4048"/>
          <path id="Trazado_105631" data-name="Trazado 105631" d="M371.1,890.062a1.84,1.84,0,0,0,3.613.537" transform="translate(-367.082 -872.123)" fill="none" stroke="#2b1c40" stroke-miterlimit="10" stroke-width="0.516"/>
          <path id="Trazado_105632" data-name="Trazado 105632" d="M373.279,888.968a.651.651,0,1,0,.793-.548A.682.682,0,0,0,373.279,888.968Z" transform="translate(-364.325 -874.221)" fill="#2b1c40"/>
          <path id="Trazado_105633" data-name="Trazado 105633" d="M370.583,888.53a.652.652,0,1,0,.791-.548A.684.684,0,0,0,370.583,888.53Z" transform="translate(-367.736 -874.775)" fill="#2b1c40"/>
          <path id="Trazado_105634" data-name="Trazado 105634" d="M372.735,888.538s-.476,1.515-1.015,1.769-.344,1.2.716,1.357" transform="translate(-366.639 -874.051)" fill="none" stroke="#2b1c40" stroke-miterlimit="10" stroke-width="0.604"/>
          <path id="Trazado_105635" data-name="Trazado 105635" d="M376.12,888.163s-1.57-1.235-2.995-.614" transform="translate(-364.495 -875.523)" fill="none" stroke="#2b1c40" stroke-miterlimit="10" stroke-width="0.604"/>
          <path id="Trazado_105636" data-name="Trazado 105636" d="M370.376,887.259s1.86-.725,3.045.286" transform="translate(-367.973 -875.989)" fill="none" stroke="#2b1c40" stroke-miterlimit="10" stroke-width="0.604"/>
          <g id="Grupo_55905" data-name="Grupo 55905" transform="translate(13.291 13.856)">
            <path id="Trazado_105637" data-name="Trazado 105637" d="M375.956,893.077a2.907,2.907,0,0,0,3.251-2.227c.231-1.554-1.237-2.979-2.467-2.494C375.057,889.024,374.649,892.884,375.956,893.077Z" transform="translate(-375.183 -888.259)" fill="#e2857b"/>
            <path id="Trazado_105638" data-name="Trazado 105638" d="M376.011,888.962s.743.609.288.877-1.389,2.046.881.8" transform="translate(-374.508 -887.371)" fill="none" stroke="#2b1c40" stroke-miterlimit="10" stroke-width="0.604"/>
          </g>
        </g>
        <g id="Grupo_55909" data-name="Grupo 55909" transform="translate(21.941 156.35)">
          <path id="Trazado_105639" data-name="Trazado 105639" d="M381.517,947.06s2.872,7.571,1.044,9.922-18.8,1.828-18.8,1.828a3.555,3.555,0,0,1,2.089-4.44c3.133-1.3,9.662-4.438,10.183-6.527S381.517,947.06,381.517,947.06Z" transform="translate(-363.593 -946.657)" fill="#e2857b"/>
          <g id="Grupo_55908" data-name="Grupo 55908">
            <g id="Grupo_55907" data-name="Grupo 55907" clip-path="url(#clip-path-7)">
              <path id="Trazado_105640" data-name="Trazado 105640" d="M387.782,949.2s-12.011,3.656-14.1,3.133-4.7-2.87-4.7-2.87l-7.834,2.61.523,4.177s18.277-.521,19.322-.521a66.765,66.765,0,0,0,7.05-1.828Z" transform="translate(-366.687 -943.441)" fill="#fff"/>
            </g>
          </g>
        </g>
        <path id="Trazado_105642" data-name="Trazado 105642" d="M379.894,903.853l-4.177,4.177-14.97-8.355-3.271,5.781s11.277,10.582,17.2,11.626,7.659-3.831,7.659-3.831Z" transform="translate(-349.393 -849.757)" fill="#fff"/>
        <g id="Grupo_55912" data-name="Grupo 55912" transform="translate(33.587 156.343)">
          <path id="Trazado_105643" data-name="Trazado 105643" d="M384.408,946.654s4.8,6.52,3.672,9.275c-.485,1.185-3.806,2.61-7.435,3.849-4.819,1.647-11.9.6-11.9.6s-.317-.772,2.349-2.872,8.3-6.475,8.241-8.627S384.408,946.654,384.408,946.654Z" transform="translate(-368.734 -946.654)" fill="#e2857b"/>
          <g id="Grupo_55911" data-name="Grupo 55911">
            <g id="Grupo_55910" data-name="Grupo 55910" clip-path="url(#clip-path-8)">
              <path id="Trazado_105644" data-name="Trazado 105644" d="M389.536,948.969l-8.618,4.7s-4.44,1.565-7.05-.784-5.745,3.917-5.745,3.917l-.521,3.917,23.76-2.091Z" transform="translate(-370.165 -943.724)" fill="#fff"/>
            </g>
          </g>
        </g>
        <path id="Trazado_105646" data-name="Trazado 105646" d="M371.368,897.947c-2.2,3-5.754,6.309-3.133,11.662s.521,17.756.521,17.756" transform="translate(-336.95 -851.945)" fill="none" stroke="#d4d4d4" stroke-miterlimit="10" stroke-width="1"/>
        <path id="Trazado_105647" data-name="Trazado 105647" d="M378,898.3c-.245,5.3-.788,18.954-.788,18.954l-5.419-1.45-4.372,6.83s10.854,10.219,18.787,3.951c4.415-3.489,1.79-22.994,1.79-22.994Z" transform="translate(-336.805 -851.497)" fill="#fff"/>
        <path id="Trazado_105648" data-name="Trazado 105648" d="M367.665,918.577s9.29,8.744,15.5,4.121c4.513-3.36,4.3-21.188,4.3-21.188" transform="translate(-336.5 -847.438)" fill="none" stroke="#d4d4d4" stroke-miterlimit="10" stroke-width="1"/>
        <path id="Trazado_105649" data-name="Trazado 105649" d="M375.671,900.026c-.245,5.3-.594,15.047-.594,15.047l-5.965-1.724" transform="translate(-334.667 -849.314)" fill="none" stroke="#d4d4d4" stroke-miterlimit="10" stroke-width="1"/>
        <path id="Trazado_105650" data-name="Trazado 105650" d="M371.36,906.709s1.359.141,5.482,2.764" transform="translate(-331.824 -840.858)" fill="none" stroke="#d4d4d4" stroke-miterlimit="10" stroke-width="1"/>
        <path id="Trazado_105651" data-name="Trazado 105651" d="M375.461,908.4a46.944,46.944,0,0,0-3.616-3.72c-2.028-1.108.256,2.832.256,2.832s-5.981-3.4-6.753-2.39c-.616.8,2.256,2.506,2.256,2.506s-3.192-1.942-3.86-1.013,2.956,2.392,2.956,2.392-3.061-.628-3.081-.011c-.039,1.033,3.108,1.443,3.108,1.443s-2.583.523-2.152,1.275,7.8,1.294,7.8,1.294Z" transform="translate(-341.618 -843.673)" fill="#e2857b"/>
        <path id="Trazado_105652" data-name="Trazado 105652" d="M376.029,880.822c-1.087,2.628-1.221,8.978,1.407,10.065s7.023-3.5,8.11-6.126a5.15,5.15,0,0,0-9.517-3.939Z" transform="translate(-326.842 -877.641)" fill="#4c4048"/>
      </g>
      <g id="Grupo_55925" data-name="Grupo 55925" transform="translate(18.532 84.791)">
        <path id="Trazado_105653" data-name="Trazado 105653" d="M287.58,918.135s3.208-6.173,7.039-1,4.866,12.734,2.875,17.3c-1.742,3.994-4.223,4.852-9.632,4.508s-2.254-4.1-2.254-4.1Z" transform="translate(-272.512 -915.069)" fill="#2e3b4a"/>
        <path id="Trazado_105654" data-name="Trazado 105654" d="M281.546,959.765l1.092,9.734a62.8,62.8,0,0,0-1.568,18.017,94.846,94.846,0,0,0,2.873,18.8l6.789-.261,2.612-42.3Z" transform="translate(-277.2 -858.512)" fill="#ff8762"/>
        <path id="Trazado_105655" data-name="Trazado 105655" d="M287.219,964.351l.261,4.961a62.8,62.8,0,0,0-1.568,18.017,94.849,94.849,0,0,0,2.873,18.8l6.006-.523,3.4-45.693Z" transform="translate(-271.074 -858.325)" fill="#ff8762"/>
        <path id="Trazado_105656" data-name="Trazado 105656" d="M305.38,943.2l5.679,39.044s-1.638,2.732-8.2,3.824S281,983.336,281,983.336s-1.094-12.568-1.64-23.5,3.656-14.981,3.656-14.981Z" transform="translate(-279.315 -879.473)" fill="#fcb268"/>
        <path id="Trazado_105657" data-name="Trazado 105657" d="M290.534,927c-2.644.217-6.615-.347-9.4,12.186-1.556,7,.356,26.462.356,26.462,8.708,2.27,16.114,1.561,22.339-1.325,0,0-2.46-10.224.947-18.742,1.781-4.456-1.96-8.7-4.32-12.312C295.235,925.258,292.414,926.844,290.534,927Z" transform="translate(-277.785 -900.263)" fill="#fcb268"/>
        <g id="Grupo_55918" data-name="Grupo 55918" transform="translate(3.888 2.465)">
          <g id="Grupo_55916" data-name="Grupo 55916" transform="translate(3.933 15.145)">
            <path id="Trazado_105658" data-name="Trazado 105658" d="M292.518,932.321c-.763,3.545-4.411,2.816-8.794.89l-.956-10.369,8.613,2.39Z" transform="translate(-282.768 -922.843)" fill="#e2857b"/>
            <g id="Grupo_55915" data-name="Grupo 55915">
              <g id="Grupo_55914" data-name="Grupo 55914" clip-path="url(#clip-path-9)">
                <path id="Trazado_105659" data-name="Trazado 105659" d="M300.1,924.433c1.371,5.951,1.1,11.823-4.313,13.069s-12.367-2.852-13.737-8.8,1.583-10.269,7-11.517S298.733,918.481,300.1,924.433Z" transform="translate(-284.094 -930.395)" fill="#2b1c40"/>
              </g>
            </g>
          </g>
          <path id="Trazado_105661" data-name="Trazado 105661" d="M299.416,923.716c1.368,5.951,1.1,11.823-4.316,13.069s-12.367-2.852-13.735-8.8,1.584-10.269,7-11.517S298.045,917.765,299.416,923.716Z" transform="translate(-281.032 -916.157)" fill="#e2857b"/>
          <path id="Trazado_105662" data-name="Trazado 105662" d="M289.7,922.329a1.839,1.839,0,0,1-3.611.537" transform="translate(-274.634 -908.348)" fill="none" stroke="#2b1c40" stroke-miterlimit="10" stroke-width="0.516"/>
          <path id="Trazado_105663" data-name="Trazado 105663" d="M286.219,921.235a.651.651,0,1,1-.793-.548A.687.687,0,0,1,286.219,921.235Z" transform="translate(-276.092 -910.446)" fill="#2b1c40"/>
          <path id="Trazado_105664" data-name="Trazado 105664" d="M288.915,920.8a.652.652,0,1,1-.791-.548A.682.682,0,0,1,288.915,920.8Z" transform="translate(-272.681 -911)" fill="#2b1c40"/>
          <path id="Trazado_105665" data-name="Trazado 105665" d="M286.764,920.8s.476,1.516,1.013,1.769.347,1.2-.716,1.357" transform="translate(-273.778 -910.277)" fill="none" stroke="#2b1c40" stroke-miterlimit="10" stroke-width="0.604"/>
          <path id="Trazado_105666" data-name="Trazado 105666" d="M284.323,920.43s1.568-1.235,2.995-.612" transform="translate(-276.867 -911.748)" fill="none" stroke="#2b1c40" stroke-miterlimit="10" stroke-width="0.604"/>
          <path id="Trazado_105667" data-name="Trazado 105667" d="M290.095,919.526s-1.86-.725-3.045.285" transform="translate(-273.416 -912.214)" fill="none" stroke="#2b1c40" stroke-miterlimit="10" stroke-width="0.604"/>
          <g id="Grupo_55917" data-name="Grupo 55917" transform="translate(1.741 9.899)">
            <path id="Trazado_105668" data-name="Trazado 105668" d="M285.075,925.345a2.909,2.909,0,0,1-3.251-2.229c-.231-1.554,1.237-2.979,2.467-2.492C285.975,921.29,286.382,925.15,285.075,925.345Z" transform="translate(-281.8 -920.527)" fill="#e2857b"/>
            <path id="Trazado_105669" data-name="Trazado 105669" d="M283.577,921.229s-.743.609-.288.877,1.389,2.046-.881.8" transform="translate(-281.031 -919.639)" fill="none" stroke="#2b1c40" stroke-miterlimit="10" stroke-width="0.604"/>
          </g>
        </g>
        <g id="Grupo_55921" data-name="Grupo 55921" transform="translate(16.356 144.657)">
          <path id="Trazado_105670" data-name="Trazado 105670" d="M288.188,979.327s-2.873,7.573-1.044,9.922,18.8,1.828,18.8,1.828a3.556,3.556,0,0,0-2.089-4.44c-3.135-1.3-9.662-4.438-10.185-6.527S288.188,979.327,288.188,979.327Z" transform="translate(-286.535 -978.924)" fill="#ff8762"/>
          <g id="Grupo_55920" data-name="Grupo 55920">
            <g id="Grupo_55919" data-name="Grupo 55919" clip-path="url(#clip-path-10)">
              <path id="Trazado_105671" data-name="Trazado 105671" d="M286.01,981.467s12.011,3.654,14.1,3.133,4.7-2.873,4.7-2.873l7.834,2.61-.523,4.18s-18.277-.523-19.322-.523a66.762,66.762,0,0,1-7.05-1.828Z" transform="translate(-287.529 -975.707)" fill="#3b4b5e"/>
            </g>
          </g>
        </g>
        <g id="Grupo_55924" data-name="Grupo 55924" transform="translate(4.768 144.649)">
          <path id="Trazado_105673" data-name="Trazado 105673" d="M285.264,978.921s-4.8,6.52-3.672,9.275c.485,1.185,3.8,2.61,7.435,3.849,4.818,1.647,11.9.6,11.9.6s.317-.773-2.349-2.873-8.3-6.472-8.241-8.624S285.264,978.921,285.264,978.921Z" transform="translate(-281.42 -978.921)" fill="#ff8762"/>
          <g id="Grupo_55923" data-name="Grupo 55923">
            <g id="Grupo_55922" data-name="Grupo 55922" clip-path="url(#clip-path-11)">
              <path id="Trazado_105674" data-name="Trazado 105674" d="M282.5,981.236l8.618,4.7s4.438,1.565,7.05-.784,5.745,3.917,5.745,3.917l.521,3.917-23.76-2.089Z" transform="translate(-282.358 -975.992)" fill="#3b4b5e"/>
            </g>
          </g>
        </g>
        <path id="Trazado_105676" data-name="Trazado 105676" d="M292.693,930.568c.245,5.3.788,18.955.788,18.955l5.419-1.45,4.372,6.83s-10.854,10.219-18.787,3.951c-4.415-3.486-1.79-22.994-1.79-22.994Z" transform="translate(-276.018 -895.458)" fill="#fcb268"/>
        <path id="Trazado_105677" data-name="Trazado 105677" d="M302.319,950.842a20.451,20.451,0,0,1-8.192,5.659,9.328,9.328,0,0,1-5.253.347,7.354,7.354,0,0,1-2.485-1.167A5.983,5.983,0,0,1,284.6,953.5a26.827,26.827,0,0,1-2.2-9.834,57.218,57.218,0,0,1,.118-9.891c.331,3.276.655,6.533,1.142,9.748.546,3.176,1.063,6.47,2.433,9.186a4.806,4.806,0,0,0,1.28,1.617,5.772,5.772,0,0,0,1.923.945,8.6,8.6,0,0,0,4.447-.07,18.057,18.057,0,0,0,4.415-1.781A33.586,33.586,0,0,0,302.319,950.842Z" transform="translate(-275.611 -891.397)" fill="#edad54"/>
        <path id="Trazado_105678" data-name="Trazado 105678" d="M287.011,932.293a84.7,84.7,0,0,1,1.4,15.017l-1.033-.748a31.625,31.625,0,0,1,6.189-.947,31.605,31.605,0,0,1-5.741,2.5l-.972.322-.063-1.072A84.709,84.709,0,0,1,287.011,932.293Z" transform="translate(-270.142 -893.275)" fill="#edad54"/>
        <path id="Trazado_105679" data-name="Trazado 105679" d="M290.472,939.07a11.2,11.2,0,0,1-1.18,1.112,8.823,8.823,0,0,1-1.248.831,6.254,6.254,0,0,1-3.054.82,5.025,5.025,0,0,1,2.252-2.318A4.144,4.144,0,0,1,290.472,939.07Z" transform="translate(-272.135 -884.912)" fill="#edad54"/>
        <path id="Trazado_105680" data-name="Trazado 105680" d="M289.657,940.937a47.42,47.42,0,0,1,3.618-3.722c2.028-1.106-.256,2.832-.256,2.832s5.978-3.4,6.751-2.388c.616.8-2.254,2.506-2.254,2.506s3.19-1.944,3.858-1.013-2.954,2.392-2.954,2.392,3.058-.628,3.081-.011c.036,1.031-3.11,1.443-3.11,1.443s2.585.523,2.154,1.273-7.807,1.3-7.807,1.3Z" transform="translate(-266.229 -887.294)" fill="#e2857b"/>
        <path id="Trazado_105681" data-name="Trazado 105681" d="M280.951,944.671a26.019,26.019,0,0,0,12.054,1.318c6.968-.82,10.285-2.644,10.285-2.644" transform="translate(-277.246 -879.288)" fill="#edad54"/>
      </g>
      <path id="Trazado_105682" data-name="Trazado 105682" d="M369.663,888.439c0,2.9-10.482,5.258-23.415,5.258s-23.415-2.354-23.415-5.258,10.482-5.258,23.415-5.258S369.663,885.535,369.663,888.439Z" transform="translate(-201.817 -870.63)" fill="#b29aa7"/>
      <g id="Grupo_55929" data-name="Grupo 55929" transform="translate(208.268 166.62)">
        <rect id="Rectángulo_5363" data-name="Rectángulo 5363" width="49.184" height="61.207" transform="translate(4.058 2.361)" fill="#fcb268"/>
        <rect id="Rectángulo_5364" data-name="Rectángulo 5364" width="57.301" height="9.589" fill="#877481"/>
        <rect id="Rectángulo_5365" data-name="Rectángulo 5365" width="57.301" height="9.589" transform="translate(0 59.021)" fill="#877481"/>
        <g id="Grupo_55928" data-name="Grupo 55928" transform="translate(4.059 12.443)">
          <g id="Grupo_55926" data-name="Grupo 55926">
            <path id="Trazado_105683" data-name="Trazado 105683" d="M361.357,957.53c4.053-.349,8.106-.514,12.158-.65,4.053-.154,8.108-.177,12.161-.2,4.053.018,8.106.041,12.158.195,4.053.136,8.106.3,12.161.652-4.055.353-8.108.516-12.161.655-4.053.154-8.106.177-12.158.195-4.053-.02-8.108-.043-12.161-.2C369.463,958.047,365.41,957.881,361.357,957.53Z" transform="translate(-361.357 -956.683)" fill="#e29a59"/>
            <path id="Trazado_105684" data-name="Trazado 105684" d="M361.357,960.185c4.053-.351,8.106-.514,12.158-.65,4.053-.156,8.108-.177,12.161-.2,4.053.02,8.106.043,12.158.2,4.053.136,8.106.3,12.161.652-4.055.354-8.108.517-12.161.655s-8.106.175-12.158.195c-4.053-.023-8.108-.043-12.161-.2C369.463,960.7,365.41,960.537,361.357,960.185Z" transform="translate(-361.357 -953.326)" fill="#e29a59"/>
            <path id="Trazado_105685" data-name="Trazado 105685" d="M361.357,962.839c4.053-.351,8.106-.516,12.158-.652,4.053-.154,8.108-.177,12.161-.2,4.053.018,8.106.041,12.158.195,4.053.138,8.106.3,12.161.655-4.055.351-8.108.516-12.161.652-4.053.154-8.106.177-12.158.195-4.053-.021-8.108-.043-12.161-.2C369.463,963.354,365.41,963.188,361.357,962.839Z" transform="translate(-361.357 -949.967)" fill="#e29a59"/>
            <path id="Trazado_105686" data-name="Trazado 105686" d="M361.357,965.492c4.053-.349,8.106-.514,12.158-.65,4.053-.154,8.108-.177,12.161-.2,4.053.02,8.106.043,12.158.2,4.053.136,8.106.3,12.161.652-4.055.353-8.108.516-12.161.655-4.053.154-8.106.177-12.158.195-4.053-.02-8.108-.043-12.161-.2C369.463,966.007,365.41,965.844,361.357,965.492Z" transform="translate(-361.357 -946.61)" fill="#e29a59"/>
          </g>
          <g id="Grupo_55927" data-name="Grupo 55927" transform="translate(0 23.499)">
            <path id="Trazado_105687" data-name="Trazado 105687" d="M361.357,967.905c4.053-.351,8.106-.516,12.158-.652,4.053-.154,8.108-.177,12.161-.2,4.053.018,8.106.041,12.158.195,4.053.138,8.106.3,12.161.655-4.055.351-8.108.516-12.161.652-4.053.154-8.106.177-12.158.195-4.053-.02-8.108-.043-12.161-.2C369.463,968.42,365.41,968.254,361.357,967.905Z" transform="translate(-361.357 -967.056)" fill="#e29a59"/>
            <path id="Trazado_105688" data-name="Trazado 105688" d="M361.357,970.558c4.053-.349,8.106-.514,12.158-.65,4.053-.156,8.108-.177,12.161-.2,4.053.02,8.106.043,12.158.2,4.053.136,8.106.3,12.161.652-4.055.353-8.108.517-12.161.655-4.053.154-8.106.177-12.158.195-4.053-.021-8.108-.043-12.161-.2C369.463,971.073,365.41,970.91,361.357,970.558Z" transform="translate(-361.357 -963.699)" fill="#e29a59"/>
            <path id="Trazado_105689" data-name="Trazado 105689" d="M361.357,973.212c4.053-.351,8.106-.514,12.158-.65,4.053-.156,8.108-.179,12.161-.2,4.053.018,8.106.041,12.158.195,4.053.138,8.106.3,12.161.655-4.055.354-8.108.517-12.161.653-4.053.154-8.106.177-12.158.2-4.053-.022-8.108-.045-12.161-.2C369.463,973.727,365.41,973.561,361.357,973.212Z" transform="translate(-361.357 -960.341)" fill="#e29a59"/>
            <path id="Trazado_105690" data-name="Trazado 105690" d="M361.357,975.864c4.053-.349,8.106-.514,12.158-.65,4.053-.154,8.108-.177,12.161-.2,4.053.018,8.106.041,12.158.195,4.053.136,8.106.3,12.161.652-4.055.353-8.108.516-12.161.655-4.053.154-8.106.177-12.158.195-4.053-.02-8.108-.043-12.161-.2C369.463,976.378,365.41,976.215,361.357,975.864Z" transform="translate(-361.357 -956.982)" fill="#e29a59"/>
          </g>
        </g>
      </g>
      <path id="Trazado_105691" data-name="Trazado 105691" d="M299.243,915.04c3.147.5.2,6.969-1.846,8.812s-7.172,2.048-8.4,4.712,1.228,12.3,3.278,12.707c0,0-8.2-.2-10.656-1.64s-4.714-16.8.41-21.313S294.118,914.22,299.243,915.04Z" transform="translate(-261.261 -830.97)" fill="#2e3b4a"/>
      <g id="Grupo_55930" data-name="Grupo 55930" transform="translate(70.027 40.008)">
        <path id="Trazado_105692" data-name="Trazado 105692" d="M338.922,959.982a168.929,168.929,0,0,1,7.687-15.108c2.761-4.934,5.8-9.707,8.987-14.392a126.431,126.431,0,0,1,10.539-13.352c3.831-4.137,8.106-8.205,13.366-10.43-1.14.861-2.345,1.57-3.412,2.469-1.026.963-2.1,1.84-3.065,2.854l-2.886,3.031-2.689,3.217q-5.216,6.569-9.993,13.5c-3.2,4.61-6.264,9.313-9.365,14.007Z" transform="translate(-252.03 -880.877)" fill="#d1596a"/>
        <path id="Trazado_105693" data-name="Trazado 105693" d="M343.6,918.641c-2.648,5.5-5.641,10.813-8.74,16.062-3.074,5.267-6.425,10.366-9.875,15.4a173.676,173.676,0,0,1-11.15,14.537c-4,4.608-8.208,9.155-13.271,12.612l3.226-3.219,3.008-3.409c1.944-2.322,3.883-4.642,5.684-7.082,3.643-4.834,7.22-9.723,10.643-14.73,3.477-4.968,6.855-10.008,10.269-15.038Z" transform="translate(-300.566 -865.767)" fill="#d1596a"/>
        <path id="Trazado_105694" data-name="Trazado 105694" d="M333.372,931.487c-.938,3.169-2,6.291-2.979,9.442l-3.144,9.377c-2.08,6.257-4.3,12.46-6.454,18.68l-6.576,18.624c-1.1,3.1-2.166,6.214-3.151,9.349-.519,1.559-1.013,3.126-1.452,4.708a17.75,17.75,0,0,0-.836,4.825,14.932,14.932,0,0,1,.249-4.952c.279-1.635.612-3.26.97-4.877.773-3.219,1.656-6.4,2.562-9.583,1.817-6.357,3.933-12.611,6.1-18.846,2.218-6.214,4.492-12.408,6.964-18.526C328.071,943.582,330.585,937.479,333.372,931.487Z" transform="translate(-290.336 -849.511)" fill="#d1596a"/>
        <path id="Trazado_105695" data-name="Trazado 105695" d="M357.473,896.568c-3.6,3.217-7.057,6.345-10.491,9.567l-5.131,4.857c-1.724,1.62-3.419,3.276-5.281,4.839a44.423,44.423,0,0,1,8.865-11.35,49.047,49.047,0,0,1,5.643-4.519A28.547,28.547,0,0,1,357.473,896.568Z" transform="translate(-255.007 -893.698)" fill="#d1596a"/>
        <path id="Trazado_105696" data-name="Trazado 105696" d="M359.138,895.3c-3.276,5.165-6.807,10.031-10.174,15.008-1.7,2.474-3.375,4.959-4.97,7.5-1.568,2.551-3.156,5.09-4.529,7.827,1.135-6.069,4.25-11.563,7.63-16.6A72.878,72.878,0,0,1,359.138,895.3Z" transform="translate(-251.343 -895.301)" fill="#d1596a"/>
      </g>
    </g>
  </g>
</svg>
