<svg xmlns="http://www.w3.org/2000/svg" width="295.862" height="820" viewBox="0 0 295.862 820">
  <g id="Grupo_1065320" data-name="Grupo 1065320" transform="translate(1836.862 6460.497)">
    <g id="Grupo_55725" data-name="Grupo 55725" transform="translate(-1554.6 -6460.497) rotate(90)">
      <path id="Trazado_104997" data-name="Trazado 104997" d="M447.325,588.147H278.84V449.48H447.325l19.52,68.984Z" transform="translate(217.37 -463.08)" fill="#73d8c0"/>
      <path id="Trazado_104998" data-name="Trazado 104998" d="M370.045,588.147H201.56V449.48H370.045l19.52,68.984Z" transform="translate(129.247 -463.08)" fill="#9ee3d3"/>
      <path id="Trazado_104999" data-name="Trazado 104999" d="M292.765,588.147H124.28V449.48H292.765l19.52,68.984Z" transform="translate(41.124 -463.08)" fill="#dee4f0"/>
      <path id="Trazado_105000" data-name="Trazado 105000" d="M215.485,588.147H47V449.48H215.485L235,518.465Z" transform="translate(-47 -463.08)" fill="#f3f9ff"/>
      <g id="Grupo_55723" data-name="Grupo 55723" transform="translate(708.304 0)">
        <circle id="Elipse_4040" data-name="Elipse 4040" cx="55.848" cy="55.848" r="55.848" transform="translate(0 0)" fill="#73d8c0"/>
      </g>
      <g id="Grupo_55724" data-name="Grupo 55724" transform="translate(717.322 9.018)">
        <circle id="Elipse_4040-2" data-name="Elipse 4040" cx="46.83" cy="46.83" r="46.83" transform="translate(0 0)" fill="none" stroke="#fff" stroke-width="2"/>
      </g>
    </g>
    <path id="Trazado_778130" data-name="Trazado 778130" d="M-37.375-.4a7.388,7.388,0,0,1-3.2.594A5.4,5.4,0,0,1-44.633-1.32a5.54,5.54,0,0,1-1.477-4.039,5.919,5.919,0,0,1,1.66-4.359,5.807,5.807,0,0,1,4.309-1.672,8.058,8.058,0,0,1,2.766.414v2.43a4.9,4.9,0,0,0-2.562-.672,3.4,3.4,0,0,0-2.547.992,3.682,3.682,0,0,0-.969,2.688,3.611,3.611,0,0,0,.914,2.59,3.229,3.229,0,0,0,2.461.965,5.249,5.249,0,0,0,2.7-.719Zm4.18.4h-2.469V-11.844H-33.2Zm8.734,0H-26.8V-1.148h-.031A2.607,2.607,0,0,1-29.211.2a2.492,2.492,0,0,1-1.832-.66,2.366,2.366,0,0,1-.668-1.762q0-2.328,2.758-2.687l2.172-.289q0-1.312-1.422-1.312a4.853,4.853,0,0,0-2.719.852V-7.523a6.116,6.116,0,0,1,1.41-.469,7.413,7.413,0,0,1,1.629-.2q3.422,0,3.422,3.414Zm-2.32-3.25v-.539l-1.453.188q-1.2.156-1.2,1.086a.9.9,0,0,0,.293.691,1.126,1.126,0,0,0,.793.27,1.462,1.462,0,0,0,1.133-.48A1.735,1.735,0,0,0-26.781-3.25Zm3.75,3.039v-2a5.256,5.256,0,0,0,1.215.547,4.028,4.028,0,0,0,1.145.18,2.455,2.455,0,0,0,1.035-.18.581.581,0,0,0,.379-.547A.506.506,0,0,0-19.43-2.6a1.6,1.6,0,0,0-.441-.273,5.009,5.009,0,0,0-.59-.211q-.32-.094-.617-.211a5.913,5.913,0,0,1-.84-.387,2.427,2.427,0,0,1-.609-.48A1.889,1.889,0,0,1-22.9-4.8a2.525,2.525,0,0,1-.129-.852A2.192,2.192,0,0,1-22.738-6.8a2.393,2.393,0,0,1,.781-.793,3.57,3.57,0,0,1,1.117-.453A5.825,5.825,0,0,1-19.531-8.2a7.261,7.261,0,0,1,1.078.082,8.047,8.047,0,0,1,1.078.238v1.906a3.9,3.9,0,0,0-1-.41,4.235,4.235,0,0,0-1.051-.137,2.328,2.328,0,0,0-.457.043,1.505,1.505,0,0,0-.379.125.7.7,0,0,0-.258.211.486.486,0,0,0-.094.293.541.541,0,0,0,.141.375,1.221,1.221,0,0,0,.367.27,3.625,3.625,0,0,0,.5.2q.277.09.551.184a7.161,7.161,0,0,1,.891.375,2.848,2.848,0,0,1,.684.477,1.871,1.871,0,0,1,.438.641,2.277,2.277,0,0,1,.152.875A2.282,2.282,0,0,1-17.2-1.23a2.471,2.471,0,0,1-.82.82A3.72,3.72,0,0,1-19.2.051,6.54,6.54,0,0,1-20.586.2,7.149,7.149,0,0,1-23.031-.211Zm8.813-9.055a1.442,1.442,0,0,1-1.023-.371,1.2,1.2,0,0,1-.4-.91,1.153,1.153,0,0,1,.4-.906,1.49,1.49,0,0,1,1.023-.352,1.486,1.486,0,0,1,1.027.352,1.158,1.158,0,0,1,.395.906,1.191,1.191,0,0,1-.395.922A1.466,1.466,0,0,1-14.219-9.266ZM-13,0h-2.469V-8H-13Zm7.3-9.953a2.494,2.494,0,0,0-.914-.187q-1.188,0-1.187,1.289V-8h1.828v1.82H-7.8V0h-2.461V-6.18h-1.344V-8h1.344v-.992a2.88,2.88,0,0,1,.891-2.2,3.4,3.4,0,0,1,2.422-.836,4.253,4.253,0,0,1,1.25.156Zm2.164.688a1.442,1.442,0,0,1-1.023-.371,1.2,1.2,0,0,1-.4-.91,1.153,1.153,0,0,1,.4-.906A1.49,1.49,0,0,1-3.539-11.8a1.486,1.486,0,0,1,1.027.352,1.158,1.158,0,0,1,.395.906,1.191,1.191,0,0,1-.395.922A1.466,1.466,0,0,1-3.539-9.266ZM-2.32,0H-4.789V-8H-2.32ZM5.82-.289A4.881,4.881,0,0,1,3.406.2,4.083,4.083,0,0,1,.422-.922,3.859,3.859,0,0,1-.719-3.8,4.251,4.251,0,0,1,.5-7.02,4.518,4.518,0,0,1,3.773-8.2,4.2,4.2,0,0,1,5.82-7.82v2.094A2.814,2.814,0,0,0,4.094-6.3a2.275,2.275,0,0,0-1.684.621,2.317,2.317,0,0,0-.621,1.715A2.28,2.28,0,0,0,2.383-2.3,2.182,2.182,0,0,0,4.016-1.7a3.258,3.258,0,0,0,1.8-.578ZM14.094,0H11.758V-1.148h-.031A2.607,2.607,0,0,1,9.344.2a2.492,2.492,0,0,1-1.832-.66,2.366,2.366,0,0,1-.668-1.762q0-2.328,2.758-2.687L11.773-5.2q0-1.312-1.422-1.312a4.853,4.853,0,0,0-2.719.852V-7.523a6.116,6.116,0,0,1,1.41-.469,7.413,7.413,0,0,1,1.629-.2q3.422,0,3.422,3.414Zm-2.32-3.25v-.539L10.32-3.6q-1.2.156-1.2,1.086a.9.9,0,0,0,.293.691,1.126,1.126,0,0,0,.793.27,1.462,1.462,0,0,0,1.133-.48A1.735,1.735,0,0,0,11.773-3.25ZM22.109-.289A4.881,4.881,0,0,1,19.7.2,4.083,4.083,0,0,1,16.711-.922,3.859,3.859,0,0,1,15.57-3.8,4.251,4.251,0,0,1,16.793-7.02,4.518,4.518,0,0,1,20.063-8.2a4.2,4.2,0,0,1,2.047.375v2.094A2.814,2.814,0,0,0,20.383-6.3a2.275,2.275,0,0,0-1.684.621,2.317,2.317,0,0,0-.621,1.715A2.28,2.28,0,0,0,18.672-2.3,2.182,2.182,0,0,0,20.3-1.7a3.258,3.258,0,0,0,1.8-.578Zm2.867-8.977a1.442,1.442,0,0,1-1.023-.371,1.2,1.2,0,0,1-.4-.91,1.153,1.153,0,0,1,.4-.906,1.49,1.49,0,0,1,1.023-.352A1.486,1.486,0,0,1,26-11.453a1.158,1.158,0,0,1,.395.906A1.191,1.191,0,0,1,26-9.625,1.466,1.466,0,0,1,24.977-9.266ZM26.2,0H23.727V-8H26.2Zm5.891.2A4.3,4.3,0,0,1,28.941-.926,4.064,4.064,0,0,1,27.8-3.969a4.065,4.065,0,0,1,1.188-3.105A4.487,4.487,0,0,1,32.2-8.2,4.249,4.249,0,0,1,35.32-7.074a3.985,3.985,0,0,1,1.133,2.965A4.23,4.23,0,0,1,35.285-.961,4.348,4.348,0,0,1,32.086.2Zm.063-6.5a1.647,1.647,0,0,0-1.359.6A2.653,2.653,0,0,0,30.3-4q0,2.3,1.859,2.3,1.773,0,1.773-2.367Q33.938-6.3,32.148-6.3ZM34.8-11.789,32.352-9.266H30.57L32.6-11.789ZM45.773,0H43.313V-4.445q0-1.859-1.328-1.859a1.318,1.318,0,0,0-1.055.492,1.875,1.875,0,0,0-.414,1.25V0H38.047V-8h2.469v1.266h.031A2.829,2.829,0,0,1,43.117-8.2q2.656,0,2.656,3.3Z" transform="translate(-1611.234 -6353.997)" fill="#12263f"/>
    <path id="Trazado_778132" data-name="Trazado 778132" d="M-47.441,0h-2.9l-1.742-2.883q-.2-.328-.375-.586a3.255,3.255,0,0,0-.363-.441,1.445,1.445,0,0,0-.383-.281.972.972,0,0,0-.434-.1h-.68V0H-56.84V-11.2h4q4.078,0,4.078,3.047a3.155,3.155,0,0,1-.18,1.082,3.006,3.006,0,0,1-.508.895,3.219,3.219,0,0,1-.793.688,4.089,4.089,0,0,1-1.035.453v.031a1.606,1.606,0,0,1,.484.254,3.468,3.468,0,0,1,.453.41,5.723,5.723,0,0,1,.418.5q.2.27.363.527Zm-6.875-9.312V-6.2h1.094a1.813,1.813,0,0,0,1.3-.469,1.564,1.564,0,0,0,.5-1.18q0-1.469-1.758-1.469ZM-39.848-3.3h-5.219q.125,1.742,2.2,1.742a4.286,4.286,0,0,0,2.32-.625V-.4A6.1,6.1,0,0,1-43.434.2,4.058,4.058,0,0,1-46.441-.879a4.058,4.058,0,0,1-1.07-3,4.281,4.281,0,0,1,1.156-3.156A3.852,3.852,0,0,1-43.512-8.2,3.5,3.5,0,0,1-40.8-7.156a4,4,0,0,1,.957,2.82Zm-2.289-1.516q0-1.719-1.391-1.719a1.328,1.328,0,0,0-1.027.492,2.234,2.234,0,0,0-.527,1.227Zm8.109,1.406H-38.3V-5.133h4.273Zm8.18,3.117A4.881,4.881,0,0,1-28.262.2,4.083,4.083,0,0,1-31.246-.922,3.859,3.859,0,0,1-32.387-3.8,4.251,4.251,0,0,1-31.164-7.02,4.518,4.518,0,0,1-27.895-8.2a4.2,4.2,0,0,1,2.047.375v2.094A2.814,2.814,0,0,0-27.574-6.3a2.275,2.275,0,0,0-1.684.621,2.317,2.317,0,0,0-.621,1.715A2.28,2.28,0,0,0-29.285-2.3a2.182,2.182,0,0,0,1.633.605,3.258,3.258,0,0,0,1.8-.578ZM-21.762,0H-24.23V-11.844h2.469Zm8.734,0h-2.336V-1.148h-.031A2.607,2.607,0,0,1-17.777.2a2.492,2.492,0,0,1-1.832-.66,2.366,2.366,0,0,1-.668-1.762q0-2.328,2.758-2.687l2.172-.289q0-1.312-1.422-1.312a4.853,4.853,0,0,0-2.719.852V-7.523a6.116,6.116,0,0,1,1.41-.469,7.413,7.413,0,0,1,1.629-.2q3.422,0,3.422,3.414Zm-2.32-3.25v-.539L-16.8-3.6Q-18-3.445-18-2.516a.9.9,0,0,0,.293.691,1.126,1.126,0,0,0,.793.27,1.462,1.462,0,0,0,1.133-.48A1.735,1.735,0,0,0-15.348-3.25ZM-11.6-.211v-2a5.256,5.256,0,0,0,1.215.547,4.028,4.028,0,0,0,1.145.18A2.455,2.455,0,0,0-8.2-1.664a.581.581,0,0,0,.379-.547A.506.506,0,0,0-8-2.6a1.6,1.6,0,0,0-.441-.273,5.009,5.009,0,0,0-.59-.211q-.32-.094-.617-.211a5.913,5.913,0,0,1-.84-.387,2.427,2.427,0,0,1-.609-.48,1.889,1.889,0,0,1-.375-.633,2.525,2.525,0,0,1-.129-.852A2.192,2.192,0,0,1-11.3-6.8a2.393,2.393,0,0,1,.781-.793,3.57,3.57,0,0,1,1.117-.453A5.825,5.825,0,0,1-8.1-8.2a7.261,7.261,0,0,1,1.078.082,8.047,8.047,0,0,1,1.078.238v1.906a3.9,3.9,0,0,0-1-.41A4.235,4.235,0,0,0-8-6.516a2.328,2.328,0,0,0-.457.043,1.505,1.505,0,0,0-.379.125.7.7,0,0,0-.258.211.486.486,0,0,0-.094.293.541.541,0,0,0,.141.375,1.221,1.221,0,0,0,.367.27,3.625,3.625,0,0,0,.5.2q.277.09.551.184a7.161,7.161,0,0,1,.891.375,2.848,2.848,0,0,1,.684.477,1.871,1.871,0,0,1,.438.641,2.277,2.277,0,0,1,.152.875A2.282,2.282,0,0,1-5.766-1.23a2.471,2.471,0,0,1-.82.82,3.72,3.72,0,0,1-1.18.461A6.54,6.54,0,0,1-9.152.2,7.149,7.149,0,0,1-11.6-.211Zm8.813-9.055a1.442,1.442,0,0,1-1.023-.371,1.2,1.2,0,0,1-.4-.91,1.153,1.153,0,0,1,.4-.906A1.49,1.49,0,0,1-2.785-11.8a1.486,1.486,0,0,1,1.027.352,1.158,1.158,0,0,1,.395.906,1.191,1.191,0,0,1-.395.922A1.466,1.466,0,0,1-2.785-9.266ZM-1.566,0H-4.035V-8h2.469Zm7.3-9.953a2.494,2.494,0,0,0-.914-.187q-1.188,0-1.187,1.289V-8H5.457v1.82H3.629V0H1.168V-6.18H-.176V-8H1.168v-.992a2.88,2.88,0,0,1,.891-2.2,3.4,3.4,0,0,1,2.422-.836,4.253,4.253,0,0,1,1.25.156Zm2.164.688a1.442,1.442,0,0,1-1.023-.371,1.2,1.2,0,0,1-.4-.91,1.153,1.153,0,0,1,.4-.906A1.49,1.49,0,0,1,7.895-11.8a1.486,1.486,0,0,1,1.027.352,1.158,1.158,0,0,1,.395.906,1.191,1.191,0,0,1-.395.922A1.466,1.466,0,0,1,7.895-9.266ZM9.113,0H6.645V-8H9.113Zm8.141-.289A4.881,4.881,0,0,1,14.84.2,4.083,4.083,0,0,1,11.855-.922,3.859,3.859,0,0,1,10.715-3.8,4.251,4.251,0,0,1,11.938-7.02,4.518,4.518,0,0,1,15.207-8.2a4.2,4.2,0,0,1,2.047.375v2.094A2.814,2.814,0,0,0,15.527-6.3a2.275,2.275,0,0,0-1.684.621,2.317,2.317,0,0,0-.621,1.715A2.28,2.28,0,0,0,13.816-2.3a2.182,2.182,0,0,0,1.633.605,3.258,3.258,0,0,0,1.8-.578ZM25.527,0H23.191V-1.148H23.16A2.607,2.607,0,0,1,20.777.2a2.492,2.492,0,0,1-1.832-.66,2.366,2.366,0,0,1-.668-1.762q0-2.328,2.758-2.687L23.207-5.2q0-1.312-1.422-1.312a4.853,4.853,0,0,0-2.719.852V-7.523a6.116,6.116,0,0,1,1.41-.469,7.413,7.413,0,0,1,1.629-.2q3.422,0,3.422,3.414Zm-2.32-3.25v-.539L21.754-3.6q-1.2.156-1.2,1.086a.9.9,0,0,0,.293.691,1.126,1.126,0,0,0,.793.27,1.462,1.462,0,0,0,1.133-.48A1.735,1.735,0,0,0,23.207-3.25ZM33.543-.289A4.881,4.881,0,0,1,31.129.2,4.083,4.083,0,0,1,28.145-.922,3.859,3.859,0,0,1,27-3.8,4.251,4.251,0,0,1,28.227-7.02,4.518,4.518,0,0,1,31.5-8.2a4.2,4.2,0,0,1,2.047.375v2.094A2.814,2.814,0,0,0,31.816-6.3a2.275,2.275,0,0,0-1.684.621,2.317,2.317,0,0,0-.621,1.715A2.28,2.28,0,0,0,30.105-2.3a2.182,2.182,0,0,0,1.633.605,3.258,3.258,0,0,0,1.8-.578ZM36.41-9.266a1.442,1.442,0,0,1-1.023-.371,1.2,1.2,0,0,1-.4-.91,1.153,1.153,0,0,1,.4-.906A1.49,1.49,0,0,1,36.41-11.8a1.486,1.486,0,0,1,1.027.352,1.158,1.158,0,0,1,.395.906,1.191,1.191,0,0,1-.395.922A1.466,1.466,0,0,1,36.41-9.266ZM37.629,0H35.16V-8h2.469ZM43.52.2A4.3,4.3,0,0,1,40.375-.926,4.064,4.064,0,0,1,39.23-3.969a4.065,4.065,0,0,1,1.188-3.105A4.487,4.487,0,0,1,43.629-8.2a4.249,4.249,0,0,1,3.125,1.121,3.985,3.985,0,0,1,1.133,2.965A4.23,4.23,0,0,1,46.719-.961,4.348,4.348,0,0,1,43.52.2Zm.063-6.5a1.647,1.647,0,0,0-1.359.6A2.653,2.653,0,0,0,41.738-4q0,2.3,1.859,2.3,1.773,0,1.773-2.367Q45.371-6.3,43.582-6.3Zm2.648-5.484L43.785-9.266H42l2.031-2.523ZM57.207,0H54.746V-4.445q0-1.859-1.328-1.859a1.318,1.318,0,0,0-1.055.492,1.875,1.875,0,0,0-.414,1.25V0H49.48V-8h2.469v1.266h.031A2.829,2.829,0,0,1,54.551-8.2q2.656,0,2.656,3.3Z" transform="translate(-1611.234 -6185.997)" fill="#12263f"/>
    <path id="Trazado_778133" data-name="Trazado 778133" d="M-52.484,0V-11.2h3.969q5.969,0,5.969,5.461a5.522,5.522,0,0,1-1.629,4.18A6.007,6.007,0,0,1-48.516,0Zm2.523-9.148v7.1h1.25a3.378,3.378,0,0,0,2.574-.984,3.735,3.735,0,0,0,.934-2.68,3.388,3.388,0,0,0-.926-2.52,3.529,3.529,0,0,0-2.6-.918ZM-33.742-3.3h-5.219q.125,1.742,2.2,1.742a4.286,4.286,0,0,0,2.32-.625V-.4A6.1,6.1,0,0,1-37.328.2,4.058,4.058,0,0,1-40.336-.879a4.058,4.058,0,0,1-1.07-3A4.281,4.281,0,0,1-40.25-7.031,3.852,3.852,0,0,1-37.406-8.2,3.5,3.5,0,0,1-34.7-7.156a4,4,0,0,1,.957,2.82Zm-2.289-1.516q0-1.719-1.391-1.719a1.328,1.328,0,0,0-1.027.492,2.234,2.234,0,0,0-.527,1.227Zm3.234,4.6v-2a5.256,5.256,0,0,0,1.215.547,4.028,4.028,0,0,0,1.145.18,2.455,2.455,0,0,0,1.035-.18.581.581,0,0,0,.379-.547A.506.506,0,0,0-29.2-2.6a1.6,1.6,0,0,0-.441-.273,5.009,5.009,0,0,0-.59-.211q-.32-.094-.617-.211a5.913,5.913,0,0,1-.84-.387,2.427,2.427,0,0,1-.609-.48,1.889,1.889,0,0,1-.375-.633,2.525,2.525,0,0,1-.129-.852A2.192,2.192,0,0,1-32.5-6.8a2.393,2.393,0,0,1,.781-.793,3.57,3.57,0,0,1,1.117-.453A5.825,5.825,0,0,1-29.3-8.2a7.261,7.261,0,0,1,1.078.082,8.047,8.047,0,0,1,1.078.238v1.906a3.9,3.9,0,0,0-1-.41A4.235,4.235,0,0,0-29.2-6.516a2.328,2.328,0,0,0-.457.043,1.505,1.505,0,0,0-.379.125.7.7,0,0,0-.258.211.486.486,0,0,0-.094.293.541.541,0,0,0,.141.375,1.221,1.221,0,0,0,.367.27,3.625,3.625,0,0,0,.5.2q.277.09.551.184a7.161,7.161,0,0,1,.891.375,2.848,2.848,0,0,1,.684.477,1.871,1.871,0,0,1,.438.641,2.277,2.277,0,0,1,.152.875,2.282,2.282,0,0,1-.309,1.215,2.471,2.471,0,0,1-.82.82,3.72,3.72,0,0,1-1.18.461A6.54,6.54,0,0,1-30.352.2,7.149,7.149,0,0,1-32.8-.211ZM-17.555,0h-2.461V-4.547q0-1.758-1.281-1.758a1.312,1.312,0,0,0-1.062.492,1.9,1.9,0,0,0-.406,1.25V0h-2.469V-11.844h2.469v5.031h.031A2.805,2.805,0,0,1-20.273-8.2q2.719,0,2.719,3.281Zm3.2-9.266a1.442,1.442,0,0,1-1.023-.371,1.2,1.2,0,0,1-.4-.91,1.153,1.153,0,0,1,.4-.906,1.49,1.49,0,0,1,1.023-.352,1.486,1.486,0,0,1,1.027.352,1.158,1.158,0,0,1,.395.906,1.191,1.191,0,0,1-.395.922A1.466,1.466,0,0,1-14.352-9.266ZM-13.133,0H-15.6V-8h2.469Zm4.547,0h-2.469V-11.844h2.469ZM.148,0H-2.187V-1.148h-.031A2.607,2.607,0,0,1-4.6.2a2.492,2.492,0,0,1-1.832-.66A2.366,2.366,0,0,1-7.1-2.227q0-2.328,2.758-2.687L-2.172-5.2q0-1.312-1.422-1.312a4.853,4.853,0,0,0-2.719.852V-7.523A6.116,6.116,0,0,1-4.9-7.992a7.413,7.413,0,0,1,1.629-.2Q.148-8.2.148-4.781Zm-2.32-3.25v-.539L-3.625-3.6q-1.2.156-1.2,1.086a.9.9,0,0,0,.293.691,1.126,1.126,0,0,0,.793.27,1.462,1.462,0,0,0,1.133-.48A1.735,1.735,0,0,0-2.172-3.25ZM8.164-.289A4.881,4.881,0,0,1,5.75.2,4.083,4.083,0,0,1,2.766-.922,3.859,3.859,0,0,1,1.625-3.8,4.251,4.251,0,0,1,2.848-7.02,4.518,4.518,0,0,1,6.117-8.2a4.2,4.2,0,0,1,2.047.375v2.094A2.814,2.814,0,0,0,6.438-6.3a2.275,2.275,0,0,0-1.684.621,2.317,2.317,0,0,0-.621,1.715A2.28,2.28,0,0,0,4.727-2.3,2.182,2.182,0,0,0,6.359-1.7a3.258,3.258,0,0,0,1.8-.578Zm9.3.289H15V-4.547Q15-6.3,13.719-6.3a1.312,1.312,0,0,0-1.062.492,1.9,1.9,0,0,0-.406,1.25V0H9.781V-11.844H12.25v5.031h.031A2.805,2.805,0,0,1,14.742-8.2q2.719,0,2.719,3.281ZM26.07,0H23.734V-1.148H23.7A2.607,2.607,0,0,1,21.32.2a2.492,2.492,0,0,1-1.832-.66,2.366,2.366,0,0,1-.668-1.762q0-2.328,2.758-2.687L23.75-5.2q0-1.312-1.422-1.312a4.853,4.853,0,0,0-2.719.852V-7.523a6.116,6.116,0,0,1,1.41-.469,7.413,7.413,0,0,1,1.629-.2q3.422,0,3.422,3.414ZM23.75-3.25v-.539L22.3-3.6q-1.2.156-1.2,1.086a.9.9,0,0,0,.293.691,1.126,1.126,0,0,0,.793.27,1.462,1.462,0,0,0,1.133-.48A1.735,1.735,0,0,0,23.75-3.25ZM35.852,0H33.383V-1.1h-.031A2.768,2.768,0,0,1,30.875.2,3.033,3.033,0,0,1,28.461-.863a4.382,4.382,0,0,1-.914-2.957A4.77,4.77,0,0,1,28.555-7,3.287,3.287,0,0,1,31.2-8.2a2.246,2.246,0,0,1,2.156,1.109h.031v-4.758h2.469ZM33.43-3.891v-.6a1.893,1.893,0,0,0-.453-1.3A1.5,1.5,0,0,0,31.8-6.3a1.487,1.487,0,0,0-1.281.645,2.993,2.993,0,0,0-.461,1.77A2.59,2.59,0,0,0,30.5-2.266a1.479,1.479,0,0,0,1.234.57,1.485,1.485,0,0,0,1.223-.6A2.507,2.507,0,0,0,33.43-3.891ZM41.742.2A4.3,4.3,0,0,1,38.6-.926a4.064,4.064,0,0,1-1.145-3.043,4.065,4.065,0,0,1,1.188-3.105A4.487,4.487,0,0,1,41.852-8.2a4.249,4.249,0,0,1,3.125,1.121,3.985,3.985,0,0,1,1.133,2.965A4.23,4.23,0,0,1,44.941-.961,4.348,4.348,0,0,1,41.742.2ZM41.8-6.3a1.647,1.647,0,0,0-1.359.6A2.653,2.653,0,0,0,39.961-4q0,2.3,1.859,2.3,1.773,0,1.773-2.367Q43.594-6.3,41.8-6.3Zm12.148-4.9L48.492,1.859h-2.2L51.727-11.2ZM-40.1,24V12.8h3.969q5.969,0,5.969,5.461a5.522,5.522,0,0,1-1.629,4.18A6.007,6.007,0,0,1-36.129,24Zm2.523-9.148v7.1h1.25a3.378,3.378,0,0,0,2.574-.984,3.735,3.735,0,0,0,.934-2.68,3.388,3.388,0,0,0-.926-2.52,3.529,3.529,0,0,0-2.6-.918ZM-21.355,20.7h-5.219q.125,1.742,2.2,1.742a4.286,4.286,0,0,0,2.32-.625V23.6a6.1,6.1,0,0,1-2.883.594,4.058,4.058,0,0,1-3.008-1.074,4.058,4.058,0,0,1-1.07-3,4.281,4.281,0,0,1,1.156-3.156A3.852,3.852,0,0,1-25.02,15.8a3.5,3.5,0,0,1,2.707,1.039,4,4,0,0,1,.957,2.82Zm-2.289-1.516q0-1.719-1.391-1.719a1.328,1.328,0,0,0-1.027.492,2.234,2.234,0,0,0-.527,1.227Zm3.234,4.6v-2a5.256,5.256,0,0,0,1.215.547,4.028,4.028,0,0,0,1.145.18,2.455,2.455,0,0,0,1.035-.18.581.581,0,0,0,.379-.547.506.506,0,0,0-.172-.391,1.6,1.6,0,0,0-.441-.273,5.009,5.009,0,0,0-.59-.211q-.32-.094-.617-.211a5.913,5.913,0,0,1-.84-.387,2.428,2.428,0,0,1-.609-.48,1.888,1.888,0,0,1-.375-.633,2.525,2.525,0,0,1-.129-.852,2.192,2.192,0,0,1,.293-1.156,2.393,2.393,0,0,1,.781-.793,3.57,3.57,0,0,1,1.117-.453A5.825,5.825,0,0,1-16.91,15.8a7.261,7.261,0,0,1,1.078.082,8.047,8.047,0,0,1,1.078.238v1.906a3.9,3.9,0,0,0-1-.41,4.235,4.235,0,0,0-1.051-.137,2.328,2.328,0,0,0-.457.043,1.505,1.505,0,0,0-.379.125.7.7,0,0,0-.258.211.486.486,0,0,0-.094.293.541.541,0,0,0,.141.375,1.221,1.221,0,0,0,.367.27,3.625,3.625,0,0,0,.5.2q.277.09.551.184a7.161,7.161,0,0,1,.891.375,2.848,2.848,0,0,1,.684.477,1.872,1.872,0,0,1,.438.641,2.277,2.277,0,0,1,.152.875,2.282,2.282,0,0,1-.309,1.215,2.471,2.471,0,0,1-.82.82,3.72,3.72,0,0,1-1.18.461,6.54,6.54,0,0,1-1.387.145A7.149,7.149,0,0,1-20.41,23.789Zm12.781-9.742a2.494,2.494,0,0,0-.914-.187q-1.188,0-1.187,1.289V16H-7.9v1.82H-9.73V24h-2.461V17.82h-1.344V16h1.344v-.992a2.88,2.88,0,0,1,.891-2.2,3.4,3.4,0,0,1,2.422-.836,4.253,4.253,0,0,1,1.25.156Zm2.164.688a1.442,1.442,0,0,1-1.023-.371,1.2,1.2,0,0,1-.4-.91,1.153,1.153,0,0,1,.4-.906A1.49,1.49,0,0,1-5.465,12.2a1.486,1.486,0,0,1,1.027.352,1.158,1.158,0,0,1,.395.906,1.191,1.191,0,0,1-.395.922A1.466,1.466,0,0,1-5.465,14.734ZM-4.246,24H-6.715V16h2.469Zm4.578-.93H.3V24H-2.168V12.156H.3V17.2H.332a2.929,2.929,0,0,1,2.6-1.4,2.855,2.855,0,0,1,2.383,1.063,4.582,4.582,0,0,1,.836,2.906,4.962,4.962,0,0,1-.977,3.211A3.181,3.181,0,0,1,2.566,24.2,2.521,2.521,0,0,1,.332,23.07ZM.262,19.7v.82A1.872,1.872,0,0,0,.707,21.8a1.449,1.449,0,0,0,1.141.508,1.514,1.514,0,0,0,1.309-.652A3.15,3.15,0,0,0,3.621,19.8,2.506,2.506,0,0,0,3.2,18.254,1.437,1.437,0,0,0,1.98,17.7a1.569,1.569,0,0,0-1.23.555A2.107,2.107,0,0,0,.262,19.7Zm12.711-1.469a2.141,2.141,0,0,0-1.039-.242,1.5,1.5,0,0,0-1.258.59,2.573,2.573,0,0,0-.453,1.605V24H7.754V16h2.469v1.484h.031a2.136,2.136,0,0,1,2.109-1.625,1.59,1.59,0,0,1,.609.094ZM20.777,24H18.441V22.852H18.41A2.607,2.607,0,0,1,16.027,24.2a2.492,2.492,0,0,1-1.832-.66,2.366,2.366,0,0,1-.668-1.762q0-2.328,2.758-2.687l2.172-.289q0-1.312-1.422-1.312a4.853,4.853,0,0,0-2.719.852V16.477a6.116,6.116,0,0,1,1.41-.469,7.413,7.413,0,0,1,1.629-.2q3.422,0,3.422,3.414Zm-2.32-3.25v-.539L17,20.4q-1.2.156-1.2,1.086a.9.9,0,0,0,.293.691,1.126,1.126,0,0,0,.793.27,1.462,1.462,0,0,0,1.133-.48A1.735,1.735,0,0,0,18.457,20.75ZM30.559,24H28.09V22.9h-.031a2.768,2.768,0,0,1-2.477,1.3,3.033,3.033,0,0,1-2.414-1.059,4.382,4.382,0,0,1-.914-2.957A4.77,4.77,0,0,1,23.262,17,3.287,3.287,0,0,1,25.9,15.8a2.246,2.246,0,0,1,2.156,1.109h.031V12.156h2.469Zm-2.422-3.891v-.6a1.893,1.893,0,0,0-.453-1.3,1.6,1.6,0,0,0-2.461.129,2.993,2.993,0,0,0-.461,1.77,2.59,2.59,0,0,0,.445,1.625,1.581,1.581,0,0,0,2.457-.031A2.507,2.507,0,0,0,28.137,20.109ZM36.449,24.2A4.3,4.3,0,0,1,33.3,23.074a4.064,4.064,0,0,1-1.145-3.043,4.065,4.065,0,0,1,1.188-3.105A4.487,4.487,0,0,1,36.559,15.8a4.249,4.249,0,0,1,3.125,1.121,3.985,3.985,0,0,1,1.133,2.965,4.23,4.23,0,0,1-1.168,3.148A4.348,4.348,0,0,1,36.449,24.2Zm.063-6.5a1.647,1.647,0,0,0-1.359.6,2.653,2.653,0,0,0-.484,1.7q0,2.3,1.859,2.3,1.773,0,1.773-2.367Q38.3,17.7,36.512,17.7Z" transform="translate(-1611.234 -6036.997)" fill="#12263f"/>
    <path id="Trazado_778134" data-name="Trazado 778134" d="M-57.18-.4a7.388,7.388,0,0,1-3.2.594A5.4,5.4,0,0,1-64.437-1.32a5.54,5.54,0,0,1-1.477-4.039,5.919,5.919,0,0,1,1.66-4.359,5.807,5.807,0,0,1,4.309-1.672,8.058,8.058,0,0,1,2.766.414v2.43a4.9,4.9,0,0,0-2.562-.672,3.4,3.4,0,0,0-2.547.992,3.682,3.682,0,0,0-.969,2.688,3.611,3.611,0,0,0,.914,2.59,3.229,3.229,0,0,0,2.461.965,5.249,5.249,0,0,0,2.7-.719Zm8.367.4h-2.336V-1.148h-.031A2.607,2.607,0,0,1-53.562.2a2.492,2.492,0,0,1-1.832-.66,2.366,2.366,0,0,1-.668-1.762q0-2.328,2.758-2.687l2.172-.289q0-1.312-1.422-1.312a4.853,4.853,0,0,0-2.719.852V-7.523a6.116,6.116,0,0,1,1.41-.469,7.413,7.413,0,0,1,1.629-.2q3.422,0,3.422,3.414Zm-2.32-3.25v-.539l-1.453.188q-1.2.156-1.2,1.086a.9.9,0,0,0,.293.691,1.126,1.126,0,0,0,.793.27,1.462,1.462,0,0,0,1.133-.48A1.735,1.735,0,0,0-51.133-3.25Zm9.492-2.523a2.142,2.142,0,0,0-1.039-.242,1.5,1.5,0,0,0-1.258.59,2.573,2.573,0,0,0-.453,1.605V0h-2.469V-8h2.469v1.484h.031A2.136,2.136,0,0,1-42.25-8.141a1.59,1.59,0,0,1,.609.094ZM-32.727,0H-35.2V-1.1h-.031A2.768,2.768,0,0,1-37.7.2,3.033,3.033,0,0,1-40.117-.863a4.382,4.382,0,0,1-.914-2.957A4.77,4.77,0,0,1-40.023-7a3.287,3.287,0,0,1,2.641-1.2,2.246,2.246,0,0,1,2.156,1.109h.031v-4.758h2.469Zm-2.422-3.891v-.6a1.893,1.893,0,0,0-.453-1.3,1.5,1.5,0,0,0-1.18-.516,1.487,1.487,0,0,0-1.281.645,2.993,2.993,0,0,0-.461,1.77,2.59,2.59,0,0,0,.445,1.625,1.479,1.479,0,0,0,1.234.57,1.485,1.485,0,0,0,1.223-.6A2.507,2.507,0,0,0-35.148-3.891ZM-23.992,0h-2.336V-1.148h-.031A2.607,2.607,0,0,1-28.742.2a2.492,2.492,0,0,1-1.832-.66,2.366,2.366,0,0,1-.668-1.762q0-2.328,2.758-2.687l2.172-.289q0-1.312-1.422-1.312a4.853,4.853,0,0,0-2.719.852V-7.523a6.116,6.116,0,0,1,1.41-.469,7.413,7.413,0,0,1,1.629-.2q3.422,0,3.422,3.414Zm-2.32-3.25v-.539l-1.453.188q-1.2.156-1.2,1.086a.9.9,0,0,0,.293.691,1.126,1.126,0,0,0,.793.27,1.462,1.462,0,0,0,1.133-.48A1.735,1.735,0,0,0-26.312-3.25ZM-14.211,0H-16.68V-1.1h-.031A2.768,2.768,0,0,1-19.187.2,3.033,3.033,0,0,1-21.6-.863a4.382,4.382,0,0,1-.914-2.957A4.77,4.77,0,0,1-21.508-7a3.287,3.287,0,0,1,2.641-1.2,2.246,2.246,0,0,1,2.156,1.109h.031v-4.758h2.469Zm-2.422-3.891v-.6a1.893,1.893,0,0,0-.453-1.3,1.5,1.5,0,0,0-1.18-.516,1.487,1.487,0,0,0-1.281.645,2.993,2.993,0,0,0-.461,1.77,2.59,2.59,0,0,0,.445,1.625,1.479,1.479,0,0,0,1.234.57,1.485,1.485,0,0,0,1.223-.6A2.507,2.507,0,0,0-16.633-3.891ZM-8.32.2A4.3,4.3,0,0,1-11.465-.926a4.064,4.064,0,0,1-1.145-3.043,4.065,4.065,0,0,1,1.188-3.105A4.487,4.487,0,0,1-8.211-8.2,4.249,4.249,0,0,1-5.086-7.074,3.985,3.985,0,0,1-3.953-4.109,4.23,4.23,0,0,1-5.121-.961,4.348,4.348,0,0,1-8.32.2Zm.063-6.5a1.647,1.647,0,0,0-1.359.6A2.653,2.653,0,0,0-10.1-4q0,2.3,1.859,2.3,1.773,0,1.773-2.367Q-6.469-6.3-8.258-6.3ZM-.016-1.969-1.164,1.984H-3.086l.8-3.953ZM13.586-3.3H8.367q.125,1.742,2.2,1.742a4.286,4.286,0,0,0,2.32-.625V-.4A6.1,6.1,0,0,1,10,.2,4.058,4.058,0,0,1,6.992-.879a4.058,4.058,0,0,1-1.07-3A4.281,4.281,0,0,1,7.078-7.031,3.852,3.852,0,0,1,9.922-8.2a3.5,3.5,0,0,1,2.707,1.039,4,4,0,0,1,.957,2.82ZM11.3-4.812q0-1.719-1.391-1.719a1.328,1.328,0,0,0-1.027.492,2.234,2.234,0,0,0-.527,1.227Zm3.234,4.6v-2a5.256,5.256,0,0,0,1.215.547,4.028,4.028,0,0,0,1.145.18,2.455,2.455,0,0,0,1.035-.18.581.581,0,0,0,.379-.547.506.506,0,0,0-.172-.391,1.6,1.6,0,0,0-.441-.273,5.009,5.009,0,0,0-.59-.211q-.32-.094-.617-.211a5.913,5.913,0,0,1-.84-.387,2.427,2.427,0,0,1-.609-.48A1.889,1.889,0,0,1,14.66-4.8a2.525,2.525,0,0,1-.129-.852A2.192,2.192,0,0,1,14.824-6.8a2.393,2.393,0,0,1,.781-.793,3.57,3.57,0,0,1,1.117-.453A5.825,5.825,0,0,1,18.031-8.2a7.261,7.261,0,0,1,1.078.082,8.047,8.047,0,0,1,1.078.238v1.906a3.9,3.9,0,0,0-1-.41,4.235,4.235,0,0,0-1.051-.137,2.328,2.328,0,0,0-.457.043,1.505,1.505,0,0,0-.379.125.7.7,0,0,0-.258.211.486.486,0,0,0-.094.293.541.541,0,0,0,.141.375,1.221,1.221,0,0,0,.367.27,3.625,3.625,0,0,0,.5.2q.277.09.551.184a7.161,7.161,0,0,1,.891.375,2.848,2.848,0,0,1,.684.477,1.871,1.871,0,0,1,.438.641,2.277,2.277,0,0,1,.152.875,2.282,2.282,0,0,1-.309,1.215,2.471,2.471,0,0,1-.82.82,3.72,3.72,0,0,1-1.18.461A6.54,6.54,0,0,1,16.977.2,7.149,7.149,0,0,1,14.531-.211Zm12.4.117A3.649,3.649,0,0,1,25.281.2q-2.609,0-2.609-2.711V-6.18h-1.3V-8h1.3V-9.727l2.461-.7V-8h1.8v1.82h-1.8v3.234q0,1.25.992,1.25a1.673,1.673,0,0,0,.8-.227ZM29.57-9.266a1.442,1.442,0,0,1-1.023-.371,1.2,1.2,0,0,1-.4-.91,1.153,1.153,0,0,1,.4-.906A1.49,1.49,0,0,1,29.57-11.8a1.486,1.486,0,0,1,1.027.352,1.158,1.158,0,0,1,.395.906,1.191,1.191,0,0,1-.395.922A1.466,1.466,0,0,1,29.57-9.266ZM30.789,0H28.32V-8h2.469Zm7.3-5.773a2.142,2.142,0,0,0-1.039-.242,1.5,1.5,0,0,0-1.258.59,2.573,2.573,0,0,0-.453,1.605V0H32.867V-8h2.469v1.484h.031a2.136,2.136,0,0,1,2.109-1.625,1.59,1.59,0,0,1,.609.094ZM45.891,0H43.555V-1.148h-.031A2.607,2.607,0,0,1,41.141.2a2.492,2.492,0,0,1-1.832-.66,2.366,2.366,0,0,1-.668-1.762q0-2.328,2.758-2.687L43.57-5.2q0-1.312-1.422-1.312a4.853,4.853,0,0,0-2.719.852V-7.523a6.116,6.116,0,0,1,1.41-.469,7.413,7.413,0,0,1,1.629-.2q3.422,0,3.422,3.414ZM43.57-3.25v-.539L42.117-3.6q-1.2.156-1.2,1.086a.9.9,0,0,0,.293.691,1.126,1.126,0,0,0,.793.27,1.462,1.462,0,0,0,1.133-.48A1.735,1.735,0,0,0,43.57-3.25ZM55.672,0H53.2V-1.1h-.031A2.768,2.768,0,0,1,50.7.2,3.033,3.033,0,0,1,48.281-.863a4.382,4.382,0,0,1-.914-2.957A4.77,4.77,0,0,1,48.375-7a3.287,3.287,0,0,1,2.641-1.2,2.246,2.246,0,0,1,2.156,1.109H53.2v-4.758h2.469ZM53.25-3.891v-.6a1.893,1.893,0,0,0-.453-1.3,1.5,1.5,0,0,0-1.18-.516,1.487,1.487,0,0,0-1.281.645,2.993,2.993,0,0,0-.461,1.77,2.59,2.59,0,0,0,.445,1.625,1.479,1.479,0,0,0,1.234.57,1.485,1.485,0,0,0,1.223-.6A2.507,2.507,0,0,0,53.25-3.891ZM61.563.2A4.3,4.3,0,0,1,58.418-.926a4.064,4.064,0,0,1-1.145-3.043,4.065,4.065,0,0,1,1.188-3.105A4.487,4.487,0,0,1,61.672-8.2,4.249,4.249,0,0,1,64.8-7.074,3.985,3.985,0,0,1,65.93-4.109,4.23,4.23,0,0,1,64.762-.961,4.348,4.348,0,0,1,61.563.2Zm.063-6.5a1.647,1.647,0,0,0-1.359.6A2.653,2.653,0,0,0,59.781-4q0,2.3,1.859,2.3,1.773,0,1.773-2.367Q63.414-6.3,61.625-6.3ZM-28.406,16l-3.25,8.641q-1.172,3.117-3.531,3.117a4.524,4.524,0,0,1-1.477-.2V25.586a2.076,2.076,0,0,0,1.07.289,1.337,1.337,0,0,0,1.328-.9l.422-.992L-37.094,16h2.734l1.492,4.867a6.325,6.325,0,0,1,.219,1.07h.031a7.463,7.463,0,0,1,.258-1.055L-30.852,16Zm7.906,7.07h-.031V27.68H-23V16h2.469v1.2h.031a2.9,2.9,0,0,1,2.57-1.4,2.892,2.892,0,0,1,2.4,1.066,4.54,4.54,0,0,1,.848,2.9,4.922,4.922,0,0,1-.988,3.211A3.222,3.222,0,0,1-18.3,24.2,2.491,2.491,0,0,1-20.5,23.07Zm-.07-3.281v.641a2.037,2.037,0,0,0,.438,1.352,1.424,1.424,0,0,0,1.148.523,1.514,1.514,0,0,0,1.309-.652,3.15,3.15,0,0,0,.465-1.848q0-2.109-1.641-2.109a1.541,1.541,0,0,0-1.238.574A2.29,2.29,0,0,0-20.57,19.789Zm14.68.914h-5.219q.125,1.742,2.2,1.742a4.286,4.286,0,0,0,2.32-.625V23.6a6.1,6.1,0,0,1-2.883.594,4.058,4.058,0,0,1-3.008-1.074,4.058,4.058,0,0,1-1.07-3A4.281,4.281,0,0,1-12.4,16.969,3.852,3.852,0,0,1-9.555,15.8a3.5,3.5,0,0,1,2.707,1.039,4,4,0,0,1,.957,2.82ZM-8.18,19.188q0-1.719-1.391-1.719a1.328,1.328,0,0,0-1.027.492,2.234,2.234,0,0,0-.527,1.227Zm5.008-4.453A1.442,1.442,0,0,1-4.2,14.363a1.2,1.2,0,0,1-.4-.91,1.153,1.153,0,0,1,.4-.906A1.49,1.49,0,0,1-3.172,12.2a1.486,1.486,0,0,1,1.027.352,1.158,1.158,0,0,1,.395.906,1.191,1.191,0,0,1-.395.922A1.466,1.466,0,0,1-3.172,14.734ZM-1.953,24H-4.422V16h2.469Zm9.8,0H5.391V19.555q0-1.859-1.328-1.859a1.318,1.318,0,0,0-1.055.492,1.875,1.875,0,0,0-.414,1.25V24H.125V16H2.594v1.266h.031A2.829,2.829,0,0,1,5.2,15.8q2.656,0,2.656,3.3Zm8.609,0H14.125V22.852h-.031A2.607,2.607,0,0,1,11.711,24.2a2.492,2.492,0,0,1-1.832-.66,2.366,2.366,0,0,1-.668-1.762q0-2.328,2.758-2.687l2.172-.289q0-1.312-1.422-1.312A4.853,4.853,0,0,0,10,18.336V16.477a6.116,6.116,0,0,1,1.41-.469,7.413,7.413,0,0,1,1.629-.2q3.422,0,3.422,3.414Zm-2.32-3.25v-.539l-1.453.188q-1.2.156-1.2,1.086a.9.9,0,0,0,.293.691,1.126,1.126,0,0,0,.793.27,1.462,1.462,0,0,0,1.133-.48A1.735,1.735,0,0,0,14.141,20.75ZM26.242,24H23.773V22.9h-.031a2.768,2.768,0,0,1-2.477,1.3,3.033,3.033,0,0,1-2.414-1.059,4.382,4.382,0,0,1-.914-2.957A4.77,4.77,0,0,1,18.945,17a3.287,3.287,0,0,1,2.641-1.2,2.246,2.246,0,0,1,2.156,1.109h.031V12.156h2.469ZM23.82,20.109v-.6a1.893,1.893,0,0,0-.453-1.3,1.6,1.6,0,0,0-2.461.129,2.993,2.993,0,0,0-.461,1.77,2.59,2.59,0,0,0,.445,1.625,1.581,1.581,0,0,0,2.457-.031A2.507,2.507,0,0,0,23.82,20.109ZM32.133,24.2a4.3,4.3,0,0,1-3.145-1.121,4.064,4.064,0,0,1-1.145-3.043,4.065,4.065,0,0,1,1.188-3.105A4.487,4.487,0,0,1,32.242,15.8a4.249,4.249,0,0,1,3.125,1.121A3.985,3.985,0,0,1,36.5,19.891a4.23,4.23,0,0,1-1.168,3.148A4.348,4.348,0,0,1,32.133,24.2Zm.063-6.5a1.647,1.647,0,0,0-1.359.6,2.653,2.653,0,0,0-.484,1.7q0,2.3,1.859,2.3,1.773,0,1.773-2.367Q33.984,17.7,32.2,17.7Z" transform="translate(-1611.234 -5871.997)" fill="#12263f"/>
    <path id="Trazado_778135" data-name="Trazado 778135" d="M-19.445,0h-2.531V-4.562h-4.641V0h-2.523V-11.2h2.523v4.469h4.641V-11.2h2.531Zm3.57-9.266A1.442,1.442,0,0,1-16.9-9.637a1.2,1.2,0,0,1-.4-.91,1.153,1.153,0,0,1,.4-.906,1.49,1.49,0,0,1,1.023-.352,1.486,1.486,0,0,1,1.027.352,1.158,1.158,0,0,1,.395.906,1.191,1.191,0,0,1-.395.922A1.466,1.466,0,0,1-15.875-9.266ZM-14.656,0h-2.469V-8h2.469Zm4.547,0h-2.469V-11.844h2.469Zm8.734,0H-3.711V-1.148h-.031A2.607,2.607,0,0,1-6.125.2a2.492,2.492,0,0,1-1.832-.66,2.366,2.366,0,0,1-.668-1.762q0-2.328,2.758-2.687L-3.7-5.2q0-1.312-1.422-1.312a4.853,4.853,0,0,0-2.719.852V-7.523a6.116,6.116,0,0,1,1.41-.469A7.413,7.413,0,0,1-4.8-8.2q3.422,0,3.422,3.414ZM-3.7-3.25v-.539L-5.148-3.6q-1.2.156-1.2,1.086a.9.9,0,0,0,.293.691,1.126,1.126,0,0,0,.793.27,1.462,1.462,0,0,0,1.133-.48A1.735,1.735,0,0,0-3.7-3.25ZM5.414-.094A3.649,3.649,0,0,1,3.766.2Q1.156.2,1.156-2.516V-6.18h-1.3V-8h1.3V-9.727l2.461-.7V-8h1.8v1.82h-1.8v3.234q0,1.25.992,1.25a1.673,1.673,0,0,0,.8-.227ZM14.406,0H11.945V-1.219h-.039A2.792,2.792,0,0,1,9.461.2Q6.68.2,6.68-3.172V-8H9.141v4.609q0,1.7,1.344,1.7a1.329,1.329,0,0,0,1.063-.465,1.874,1.874,0,0,0,.4-1.262V-8h2.461Zm7.3-5.773a2.142,2.142,0,0,0-1.039-.242,1.5,1.5,0,0,0-1.258.59,2.573,2.573,0,0,0-.453,1.605V0H16.484V-8h2.469v1.484h.031a2.136,2.136,0,0,1,2.109-1.625,1.59,1.59,0,0,1,.609.094ZM29.508,0H27.172V-1.148h-.031A2.607,2.607,0,0,1,24.758.2a2.492,2.492,0,0,1-1.832-.66,2.366,2.366,0,0,1-.668-1.762q0-2.328,2.758-2.687L27.188-5.2q0-1.312-1.422-1.312a4.853,4.853,0,0,0-2.719.852V-7.523a6.116,6.116,0,0,1,1.41-.469,7.413,7.413,0,0,1,1.629-.2q3.422,0,3.422,3.414Zm-2.32-3.25v-.539L25.734-3.6q-1.2.156-1.2,1.086a.9.9,0,0,0,.293.691,1.126,1.126,0,0,0,.793.27,1.462,1.462,0,0,0,1.133-.48A1.735,1.735,0,0,0,27.188-3.25Z" transform="translate(-1611.234 -5690.997)" fill="#12263f"/>
    <path id="Trazado_778129" data-name="Trazado 778129" d="M12.051,6.984H8.816V17H7.5V6.984H4.277V5.8h7.773ZM18.5,13.32H12.855a2.992,2.992,0,0,0,.719,2.063,2.478,2.478,0,0,0,1.891.727,3.931,3.931,0,0,0,2.484-.891v1.2a4.643,4.643,0,0,1-2.789.766A3.381,3.381,0,0,1,12.5,16.1a4.461,4.461,0,0,1-.969-3.066,4.375,4.375,0,0,1,1.059-3.043,3.394,3.394,0,0,1,2.629-1.176,3.008,3.008,0,0,1,2.43,1.016,4.234,4.234,0,0,1,.859,2.82Zm-1.312-1.086a2.607,2.607,0,0,0-.535-1.727,1.823,1.823,0,0,0-1.465-.617,2.07,2.07,0,0,0-1.539.648,2.943,2.943,0,0,0-.781,1.7ZM26.285,9,23.6,13.047,26.238,17H24.746l-1.57-2.594q-.148-.242-.352-.609h-.031q-.039.07-.367.609L20.824,17H19.348l2.727-3.922L19.465,9h1.492L22.5,11.734q.172.3.336.625h.031l2-3.359ZM31.5,16.922a2.47,2.47,0,0,1-1.2.25q-2.1,0-2.1-2.344V10.094H26.824V9H28.2V7.047l1.281-.414V9H31.5v1.094H29.48V14.6a1.869,1.869,0,0,0,.273,1.148,1.091,1.091,0,0,0,.906.344,1.347,1.347,0,0,0,.836-.266Zm2.367-9.953a.812.812,0,0,1-.586-.234.791.791,0,0,1-.242-.594.821.821,0,0,1,.828-.836.827.827,0,0,1,.6.238.835.835,0,0,1,0,1.184A.82.82,0,0,1,33.863,6.969ZM34.488,17H33.207V9h1.281Zm3.875,0H37.082V5.156h1.281Zm9.023-3.68H41.738a2.992,2.992,0,0,0,.719,2.063,2.478,2.478,0,0,0,1.891.727,3.931,3.931,0,0,0,2.484-.891v1.2a4.643,4.643,0,0,1-2.789.766,3.381,3.381,0,0,1-2.664-1.09,4.461,4.461,0,0,1-.969-3.066,4.375,4.375,0,0,1,1.059-3.043A3.394,3.394,0,0,1,44.1,8.813a3.008,3.008,0,0,1,2.43,1.016,4.234,4.234,0,0,1,.859,2.82Zm-1.312-1.086a2.607,2.607,0,0,0-.535-1.727,1.823,1.823,0,0,0-1.465-.617,2.07,2.07,0,0,0-1.539.648,2.943,2.943,0,0,0-.781,1.7Zm2.766,4.477V15.336a3.792,3.792,0,0,0,2.3.773q1.688,0,1.688-1.125a.976.976,0,0,0-.145-.543,1.44,1.44,0,0,0-.391-.395,3.007,3.007,0,0,0-.578-.309q-.332-.137-.715-.285a9.207,9.207,0,0,1-.934-.426,2.82,2.82,0,0,1-.672-.484,1.8,1.8,0,0,1-.406-.613,2.17,2.17,0,0,1-.137-.8,1.912,1.912,0,0,1,.258-1A2.286,2.286,0,0,1,49.8,9.4a3.206,3.206,0,0,1,.98-.441,4.349,4.349,0,0,1,1.137-.148,4.59,4.59,0,0,1,1.859.359v1.3a3.624,3.624,0,0,0-2.031-.578,2.374,2.374,0,0,0-.648.082,1.587,1.587,0,0,0-.5.23,1.065,1.065,0,0,0-.32.355.936.936,0,0,0-.113.457,1.1,1.1,0,0,0,.113.523,1.152,1.152,0,0,0,.332.375,2.538,2.538,0,0,0,.531.3q.312.133.711.289a9.894,9.894,0,0,1,.953.418,3.269,3.269,0,0,1,.719.484,1.893,1.893,0,0,1,.457.621,2,2,0,0,1,.16.836,1.971,1.971,0,0,1-.262,1.031,2.243,2.243,0,0,1-.7.727,3.2,3.2,0,0,1-1.008.43,4.976,4.976,0,0,1-1.2.141A4.539,4.539,0,0,1,48.84,16.711ZM64.668,10.3a1.567,1.567,0,0,0-.969-.258,1.635,1.635,0,0,0-1.371.773,3.576,3.576,0,0,0-.551,2.109V17H60.5V9h1.281v1.648h.031a2.794,2.794,0,0,1,.836-1.316A1.906,1.906,0,0,1,63.9,8.859a2.092,2.092,0,0,1,.766.109Zm7.82,3.023H66.84a2.992,2.992,0,0,0,.719,2.063,2.478,2.478,0,0,0,1.891.727,3.931,3.931,0,0,0,2.484-.891v1.2a4.643,4.643,0,0,1-2.789.766A3.381,3.381,0,0,1,66.48,16.1a4.461,4.461,0,0,1-.969-3.066A4.375,4.375,0,0,1,66.57,9.988,3.394,3.394,0,0,1,69.2,8.813a3.008,3.008,0,0,1,2.43,1.016,4.234,4.234,0,0,1,.859,2.82Zm-1.312-1.086a2.607,2.607,0,0,0-.535-1.727,1.823,1.823,0,0,0-1.465-.617,2.07,2.07,0,0,0-1.539.648,2.943,2.943,0,0,0-.781,1.7ZM80.895,17H79.613V15.734h-.031a2.631,2.631,0,0,1-2.469,1.453q-2.859,0-2.859-3.406V9h1.273v4.578q0,2.531,1.938,2.531a1.96,1.96,0,0,0,1.543-.691,2.645,2.645,0,0,0,.605-1.809V9h1.281Zm6.3-.078a2.47,2.47,0,0,1-1.2.25q-2.1,0-2.1-2.344V10.094H82.52V9h1.375V7.047l1.281-.414V9h2.016v1.094H85.176V14.6a1.869,1.869,0,0,0,.273,1.148,1.091,1.091,0,0,0,.906.344,1.347,1.347,0,0,0,.836-.266Zm2.367-9.953a.812.812,0,0,1-.586-.234.791.791,0,0,1-.242-.594.821.821,0,0,1,.828-.836.827.827,0,0,1,.6.238.835.835,0,0,1,0,1.184A.82.82,0,0,1,89.559,6.969ZM90.184,17H88.9V9h1.281Zm3.875,0H92.777V5.156h1.281Zm3.25-10.031a.812.812,0,0,1-.586-.234.791.791,0,0,1-.242-.594.821.821,0,0,1,.828-.836.827.827,0,0,1,.6.238.835.835,0,0,1,0,1.184A.82.82,0,0,1,97.309,6.969ZM97.934,17H96.652V9h1.281Zm8.172-7.633-4.734,6.539h4.688V17h-6.57v-.4l4.734-6.508H99.934V9h6.172ZM113.488,17h-1.281V15.75h-.031a2.682,2.682,0,0,1-2.461,1.438,2.63,2.63,0,0,1-1.871-.633,2.192,2.192,0,0,1-.676-1.68q0-2.242,2.641-2.609l2.4-.336q0-2.039-1.648-2.039a3.938,3.938,0,0,0-2.609.984V9.563a4.958,4.958,0,0,1,2.719-.75q2.82,0,2.82,2.984Zm-1.281-4.047-1.93.266a3.133,3.133,0,0,0-1.344.441,1.273,1.273,0,0,0-.453,1.121,1.221,1.221,0,0,0,.418.957,1.615,1.615,0,0,0,1.113.371,2.056,2.056,0,0,0,1.574-.668,2.387,2.387,0,0,0,.621-1.691Zm5.008,2.891h-.031V17H115.9V5.156h1.281v5.25h.031a3.03,3.03,0,0,1,2.766-1.594,2.932,2.932,0,0,1,2.41,1.074,4.436,4.436,0,0,1,.871,2.879,4.959,4.959,0,0,1-.977,3.215,3.251,3.251,0,0,1-2.672,1.207A2.631,2.631,0,0,1,117.215,15.844Zm-.031-3.227v1.117a2.379,2.379,0,0,0,.645,1.684,2.3,2.3,0,0,0,3.461-.2,4.086,4.086,0,0,0,.66-2.477,3.225,3.225,0,0,0-.617-2.094,2.043,2.043,0,0,0-1.672-.758,2.27,2.27,0,0,0-1.8.777A2.854,2.854,0,0,0,117.184,12.617ZM126.59,17h-1.281V5.156h1.281Zm9.023-3.68h-5.648a2.992,2.992,0,0,0,.719,2.063,2.478,2.478,0,0,0,1.891.727,3.931,3.931,0,0,0,2.484-.891v1.2a4.643,4.643,0,0,1-2.789.766,3.381,3.381,0,0,1-2.664-1.09,4.461,4.461,0,0,1-.969-3.066A4.374,4.374,0,0,1,129.7,9.988a3.394,3.394,0,0,1,2.629-1.176,3.008,3.008,0,0,1,2.43,1.016,4.234,4.234,0,0,1,.859,2.82ZM134.3,12.234a2.607,2.607,0,0,0-.535-1.727,1.823,1.823,0,0,0-1.465-.617,2.07,2.07,0,0,0-1.539.648,2.943,2.943,0,0,0-.781,1.7Zm2.766,4.477V15.336a3.792,3.792,0,0,0,2.3.773q1.688,0,1.688-1.125a.976.976,0,0,0-.145-.543,1.44,1.44,0,0,0-.391-.395,3.007,3.007,0,0,0-.578-.309q-.332-.137-.715-.285a9.207,9.207,0,0,1-.934-.426,2.82,2.82,0,0,1-.672-.484,1.8,1.8,0,0,1-.406-.613,2.17,2.17,0,0,1-.137-.8,1.912,1.912,0,0,1,.258-1,2.286,2.286,0,0,1,.688-.727,3.206,3.206,0,0,1,.98-.441,4.349,4.349,0,0,1,1.137-.148A4.59,4.59,0,0,1,142,9.172v1.3a3.624,3.624,0,0,0-2.031-.578,2.374,2.374,0,0,0-.648.082,1.587,1.587,0,0,0-.5.23,1.065,1.065,0,0,0-.32.355.936.936,0,0,0-.113.457,1.1,1.1,0,0,0,.113.523,1.152,1.152,0,0,0,.332.375,2.538,2.538,0,0,0,.531.3q.312.133.711.289a9.894,9.894,0,0,1,.953.418,3.269,3.269,0,0,1,.719.484,1.893,1.893,0,0,1,.457.621,2,2,0,0,1,.16.836,1.971,1.971,0,0,1-.262,1.031,2.243,2.243,0,0,1-.7.727,3.2,3.2,0,0,1-1.008.43,4.976,4.976,0,0,1-1.2.141A4.539,4.539,0,0,1,137.066,16.711ZM44.758,30.984H41.523V41H40.211V30.984H36.984V29.8h7.773Zm6.453,6.336H45.563a2.992,2.992,0,0,0,.719,2.063,2.478,2.478,0,0,0,1.891.727,3.931,3.931,0,0,0,2.484-.891v1.2a4.643,4.643,0,0,1-2.789.766A3.381,3.381,0,0,1,45.2,40.1a4.461,4.461,0,0,1-.969-3.066,4.375,4.375,0,0,1,1.059-3.043,3.394,3.394,0,0,1,2.629-1.176,3.008,3.008,0,0,1,2.43,1.016,4.234,4.234,0,0,1,.859,2.82ZM49.9,36.234a2.607,2.607,0,0,0-.535-1.727,1.823,1.823,0,0,0-1.465-.617,2.07,2.07,0,0,0-1.539.648,2.943,2.943,0,0,0-.781,1.7ZM58.992,33,56.3,37.047,58.945,41H57.453l-1.57-2.594q-.148-.242-.352-.609H55.5q-.039.07-.367.609L53.531,41H52.055l2.727-3.922L52.172,33h1.492l1.547,2.734q.172.3.336.625h.031l2-3.359ZM64.2,40.922a2.47,2.47,0,0,1-1.2.25q-2.1,0-2.1-2.344V34.094H59.531V33h1.375V31.047l1.281-.414V33H64.2v1.094H62.188V38.6a1.869,1.869,0,0,0,.273,1.148,1.091,1.091,0,0,0,.906.344,1.347,1.347,0,0,0,.836-.266Zm2.367-9.953a.812.812,0,0,1-.586-.234.791.791,0,0,1-.242-.594.821.821,0,0,1,.828-.836.827.827,0,0,1,.6.238.835.835,0,0,1,0,1.184A.82.82,0,0,1,66.57,30.969ZM67.2,41H65.914V33H67.2Zm3.875,0H69.789V29.156H71.07Zm9.023-3.68H74.445a2.992,2.992,0,0,0,.719,2.063,2.478,2.478,0,0,0,1.891.727,3.931,3.931,0,0,0,2.484-.891v1.2a4.643,4.643,0,0,1-2.789.766,3.381,3.381,0,0,1-2.664-1.09,4.461,4.461,0,0,1-.969-3.066,4.375,4.375,0,0,1,1.059-3.043A3.394,3.394,0,0,1,76.8,32.813a3.008,3.008,0,0,1,2.43,1.016,4.234,4.234,0,0,1,.859,2.82Zm-1.312-1.086a2.607,2.607,0,0,0-.535-1.727,1.823,1.823,0,0,0-1.465-.617,2.07,2.07,0,0,0-1.539.648,2.943,2.943,0,0,0-.781,1.7Zm2.766,4.477V39.336a3.792,3.792,0,0,0,2.3.773q1.688,0,1.688-1.125a.976.976,0,0,0-.145-.543A1.44,1.44,0,0,0,85,38.047a3.007,3.007,0,0,0-.578-.309q-.332-.137-.715-.285a9.206,9.206,0,0,1-.934-.426,2.82,2.82,0,0,1-.672-.484,1.8,1.8,0,0,1-.406-.613,2.17,2.17,0,0,1-.137-.8,1.912,1.912,0,0,1,.258-1,2.286,2.286,0,0,1,.688-.727,3.206,3.206,0,0,1,.98-.441,4.349,4.349,0,0,1,1.137-.148,4.59,4.59,0,0,1,1.859.359v1.3a3.624,3.624,0,0,0-2.031-.578,2.374,2.374,0,0,0-.648.082,1.587,1.587,0,0,0-.5.23,1.065,1.065,0,0,0-.32.355.936.936,0,0,0-.113.457,1.1,1.1,0,0,0,.113.523,1.152,1.152,0,0,0,.332.375,2.538,2.538,0,0,0,.531.3q.313.133.711.289a9.9,9.9,0,0,1,.953.418,3.269,3.269,0,0,1,.719.484,1.893,1.893,0,0,1,.457.621,2,2,0,0,1,.16.836,1.971,1.971,0,0,1-.262,1.031,2.243,2.243,0,0,1-.7.727,3.2,3.2,0,0,1-1.008.43,4.976,4.976,0,0,1-1.2.141A4.539,4.539,0,0,1,81.547,40.711Zm18.3.289H98.563V36.438q0-2.547-1.859-2.547a2.017,2.017,0,0,0-1.59.723,2.679,2.679,0,0,0-.629,1.824V41H93.2V33h1.281v1.328h.031a2.887,2.887,0,0,1,2.625-1.516,2.448,2.448,0,0,1,2.008.848,3.776,3.776,0,0,1,.7,2.449Zm5.758.188a3.711,3.711,0,0,1-2.832-1.121,4.153,4.153,0,0,1-1.059-2.973,4.326,4.326,0,0,1,1.1-3.148,3.96,3.96,0,0,1,2.977-1.133,3.588,3.588,0,0,1,2.793,1.1,4.368,4.368,0,0,1,1,3.055,4.3,4.3,0,0,1-1.082,3.066A3.791,3.791,0,0,1,105.6,41.188Zm.094-7.3a2.437,2.437,0,0,0-1.953.84,3.449,3.449,0,0,0-.719,2.316,3.262,3.262,0,0,0,.727,2.242,2.469,2.469,0,0,0,1.945.82,2.342,2.342,0,0,0,1.91-.8,3.492,3.492,0,0,0,.668-2.289,3.552,3.552,0,0,0-.668-2.312A2.332,2.332,0,0,0,105.7,33.891ZM37.047,58.3a1.567,1.567,0,0,0-.969-.258,1.635,1.635,0,0,0-1.371.773,3.576,3.576,0,0,0-.551,2.109V65H32.875V57h1.281v1.648h.031a2.794,2.794,0,0,1,.836-1.316,1.906,1.906,0,0,1,1.258-.473,2.092,2.092,0,0,1,.766.109Zm7.82,3.023H39.219a2.992,2.992,0,0,0,.719,2.063,2.478,2.478,0,0,0,1.891.727,3.931,3.931,0,0,0,2.484-.891v1.2a4.643,4.643,0,0,1-2.789.766,3.381,3.381,0,0,1-2.664-1.09,4.461,4.461,0,0,1-.969-3.066,4.375,4.375,0,0,1,1.059-3.043,3.394,3.394,0,0,1,2.629-1.176,3.008,3.008,0,0,1,2.43,1.016,4.234,4.234,0,0,1,.859,2.82Zm-1.312-1.086a2.607,2.607,0,0,0-.535-1.727,1.823,1.823,0,0,0-1.465-.617,2.07,2.07,0,0,0-1.539.648,2.943,2.943,0,0,0-.781,1.7ZM53.273,65H51.992V63.734h-.031a2.631,2.631,0,0,1-2.469,1.453q-2.859,0-2.859-3.406V57h1.273v4.578q0,2.531,1.938,2.531a1.96,1.96,0,0,0,1.543-.691,2.645,2.645,0,0,0,.605-1.809V57h1.281Zm6.3-.078a2.47,2.47,0,0,1-1.2.25q-2.1,0-2.1-2.344V58.094H54.9V57h1.375V55.047l1.281-.414V57H59.57v1.094H57.555V62.6a1.869,1.869,0,0,0,.273,1.148,1.091,1.091,0,0,0,.906.344,1.347,1.347,0,0,0,.836-.266Zm2.367-9.953a.812.812,0,0,1-.586-.234.791.791,0,0,1-.242-.594.821.821,0,0,1,.828-.836.827.827,0,0,1,.6.238.835.835,0,0,1,0,1.184A.82.82,0,0,1,61.938,54.969ZM62.563,65H61.281V57h1.281Zm3.875,0H65.156V53.156h1.281Zm3.25-10.031a.812.812,0,0,1-.586-.234.791.791,0,0,1-.242-.594.821.821,0,0,1,.828-.836.827.827,0,0,1,.6.238.835.835,0,0,1,0,1.184A.82.82,0,0,1,69.688,54.969ZM70.313,65H69.031V57h1.281Zm8.172-7.633L73.75,63.906h4.688V65h-6.57v-.4L76.6,58.094H72.313V57h6.172ZM85.867,65H84.586V63.75h-.031a2.682,2.682,0,0,1-2.461,1.438,2.63,2.63,0,0,1-1.871-.633,2.192,2.192,0,0,1-.676-1.68q0-2.242,2.641-2.609l2.4-.336q0-2.039-1.648-2.039a3.938,3.938,0,0,0-2.609.984V57.563a4.958,4.958,0,0,1,2.719-.75q2.82,0,2.82,2.984Zm-1.281-4.047-1.93.266a3.133,3.133,0,0,0-1.344.441,1.273,1.273,0,0,0-.453,1.121,1.221,1.221,0,0,0,.418.957,1.615,1.615,0,0,0,1.113.371,2.056,2.056,0,0,0,1.574-.668,2.387,2.387,0,0,0,.621-1.691Zm5.008,2.891h-.031V65H88.281V53.156h1.281v5.25h.031a3.03,3.03,0,0,1,2.766-1.594,2.932,2.932,0,0,1,2.41,1.074,4.436,4.436,0,0,1,.871,2.879,4.959,4.959,0,0,1-.977,3.215,3.251,3.251,0,0,1-2.672,1.207A2.631,2.631,0,0,1,89.594,63.844Zm-.031-3.227v1.117a2.379,2.379,0,0,0,.645,1.684,2.3,2.3,0,0,0,3.461-.2,4.086,4.086,0,0,0,.66-2.477,3.225,3.225,0,0,0-.617-2.094,2.043,2.043,0,0,0-1.672-.758,2.27,2.27,0,0,0-1.8.777A2.854,2.854,0,0,0,89.563,60.617ZM98.969,65H97.688V53.156h1.281Zm9.023-3.68h-5.648a2.992,2.992,0,0,0,.719,2.063,2.478,2.478,0,0,0,1.891.727,3.931,3.931,0,0,0,2.484-.891v1.2a4.643,4.643,0,0,1-2.789.766,3.381,3.381,0,0,1-2.664-1.09,4.461,4.461,0,0,1-.969-3.066,4.375,4.375,0,0,1,1.059-3.043,3.394,3.394,0,0,1,2.629-1.176,3.008,3.008,0,0,1,2.43,1.016,4.234,4.234,0,0,1,.859,2.82Zm-1.312-1.086a2.607,2.607,0,0,0-.535-1.727,1.823,1.823,0,0,0-1.465-.617,2.07,2.07,0,0,0-1.539.648,2.943,2.943,0,0,0-.781,1.7Zm2.766,4.477V63.336a3.792,3.792,0,0,0,2.3.773q1.688,0,1.688-1.125a.976.976,0,0,0-.145-.543,1.44,1.44,0,0,0-.391-.395,3.007,3.007,0,0,0-.578-.309q-.332-.137-.715-.285a9.206,9.206,0,0,1-.934-.426,2.82,2.82,0,0,1-.672-.484,1.8,1.8,0,0,1-.406-.613,2.17,2.17,0,0,1-.137-.8,1.912,1.912,0,0,1,.258-1,2.286,2.286,0,0,1,.688-.727,3.206,3.206,0,0,1,.98-.441,4.349,4.349,0,0,1,1.137-.148,4.59,4.59,0,0,1,1.859.359v1.3a3.624,3.624,0,0,0-2.031-.578,2.374,2.374,0,0,0-.648.082,1.587,1.587,0,0,0-.5.23,1.065,1.065,0,0,0-.32.355.936.936,0,0,0-.113.457,1.1,1.1,0,0,0,.113.523,1.152,1.152,0,0,0,.332.375,2.538,2.538,0,0,0,.531.3q.313.133.711.289a9.9,9.9,0,0,1,.953.418,3.269,3.269,0,0,1,.719.484,1.893,1.893,0,0,1,.457.621,2,2,0,0,1,.16.836,1.971,1.971,0,0,1-.262,1.031,2.243,2.243,0,0,1-.7.727,3.2,3.2,0,0,1-1.008.43,4.976,4.976,0,0,1-1.2.141A4.539,4.539,0,0,1,109.445,64.711Z" transform="translate(-1841.14 -6412.497)" fill="#12263f"/>
    <path id="Trazado_778131" data-name="Trazado 778131" d="M14.906,16.531a6.571,6.571,0,0,1-3.094.656,4.989,4.989,0,0,1-3.828-1.539,5.679,5.679,0,0,1-1.437-4.039A5.952,5.952,0,0,1,8.164,7.266a5.489,5.489,0,0,1,4.1-1.656,6.576,6.576,0,0,1,2.641.461v1.4A5.355,5.355,0,0,0,12.25,6.8,4.076,4.076,0,0,0,9.121,8.086a4.856,4.856,0,0,0-1.2,3.445,4.621,4.621,0,0,0,1.121,3.262,3.815,3.815,0,0,0,2.941,1.215,5.518,5.518,0,0,0,2.922-.75Zm5.453.656a3.711,3.711,0,0,1-2.832-1.121,4.153,4.153,0,0,1-1.059-2.973,4.326,4.326,0,0,1,1.1-3.148,3.96,3.96,0,0,1,2.977-1.133,3.588,3.588,0,0,1,2.793,1.1,4.368,4.368,0,0,1,1,3.055,4.3,4.3,0,0,1-1.082,3.066A3.791,3.791,0,0,1,20.359,17.188Zm.094-7.3a2.437,2.437,0,0,0-1.953.84,3.449,3.449,0,0,0-.719,2.316,3.262,3.262,0,0,0,.727,2.242,2.469,2.469,0,0,0,1.945.82,2.342,2.342,0,0,0,1.91-.8,3.492,3.492,0,0,0,.668-2.289,3.552,3.552,0,0,0-.668-2.312A2.332,2.332,0,0,0,20.453,9.891ZM37.75,17H36.469V12.406a3.466,3.466,0,0,0-.41-1.922,1.555,1.555,0,0,0-1.379-.594,1.708,1.708,0,0,0-1.395.75,2.869,2.869,0,0,0-.574,1.8V17H31.43V12.25q0-2.359-1.82-2.359a1.686,1.686,0,0,0-1.391.707,2.923,2.923,0,0,0-.547,1.84V17H26.391V9h1.281v1.266H27.7a2.718,2.718,0,0,1,2.484-1.453,2.311,2.311,0,0,1,2.266,1.656,2.855,2.855,0,0,1,2.656-1.656q2.641,0,2.641,3.258Zm3.734-1.156h-.031V20.68H40.172V9h1.281v1.406h.031A3.03,3.03,0,0,1,44.25,8.813a2.93,2.93,0,0,1,2.414,1.074,4.449,4.449,0,0,1,.867,2.879,4.959,4.959,0,0,1-.977,3.215,3.251,3.251,0,0,1-2.672,1.207A2.676,2.676,0,0,1,41.484,15.844Zm-.031-3.227v1.117a2.379,2.379,0,0,0,.645,1.684,2.3,2.3,0,0,0,3.461-.2,4.086,4.086,0,0,0,.66-2.477,3.225,3.225,0,0,0-.617-2.094,2.043,2.043,0,0,0-1.672-.758,2.27,2.27,0,0,0-1.8.777A2.854,2.854,0,0,0,41.453,12.617Zm11.469,4.57a3.711,3.711,0,0,1-2.832-1.121,4.153,4.153,0,0,1-1.059-2.973,4.326,4.326,0,0,1,1.1-3.148,3.96,3.96,0,0,1,2.977-1.133,3.588,3.588,0,0,1,2.793,1.1,4.368,4.368,0,0,1,1,3.055,4.3,4.3,0,0,1-1.082,3.066A3.791,3.791,0,0,1,52.922,17.188Zm.094-7.3a2.437,2.437,0,0,0-1.953.84,3.449,3.449,0,0,0-.719,2.316,3.262,3.262,0,0,0,.727,2.242,2.469,2.469,0,0,0,1.945.82,2.342,2.342,0,0,0,1.91-.8,3.492,3.492,0,0,0,.668-2.289,3.552,3.552,0,0,0-.668-2.312A2.332,2.332,0,0,0,53.016,9.891Zm5.453,6.82V15.336a3.792,3.792,0,0,0,2.3.773q1.688,0,1.688-1.125a.976.976,0,0,0-.145-.543,1.44,1.44,0,0,0-.391-.395,3.007,3.007,0,0,0-.578-.309q-.332-.137-.715-.285a9.207,9.207,0,0,1-.934-.426,2.82,2.82,0,0,1-.672-.484,1.8,1.8,0,0,1-.406-.613,2.17,2.17,0,0,1-.137-.8,1.912,1.912,0,0,1,.258-1A2.286,2.286,0,0,1,59.43,9.4a3.206,3.206,0,0,1,.98-.441,4.349,4.349,0,0,1,1.137-.148,4.59,4.59,0,0,1,1.859.359v1.3a3.624,3.624,0,0,0-2.031-.578,2.374,2.374,0,0,0-.648.082,1.587,1.587,0,0,0-.5.23,1.065,1.065,0,0,0-.32.355.936.936,0,0,0-.113.457,1.1,1.1,0,0,0,.113.523,1.152,1.152,0,0,0,.332.375,2.538,2.538,0,0,0,.531.3q.312.133.711.289a9.894,9.894,0,0,1,.953.418,3.269,3.269,0,0,1,.719.484,1.893,1.893,0,0,1,.457.621,2,2,0,0,1,.16.836,1.971,1.971,0,0,1-.262,1.031,2.243,2.243,0,0,1-.7.727,3.2,3.2,0,0,1-1.008.43,4.976,4.976,0,0,1-1.2.141A4.539,4.539,0,0,1,58.469,16.711ZM66.4,6.969a.812.812,0,0,1-.586-.234.791.791,0,0,1-.242-.594A.821.821,0,0,1,66.4,5.3a.827.827,0,0,1,.6.238.835.835,0,0,1,0,1.184A.82.82,0,0,1,66.4,6.969ZM67.023,17H65.742V9h1.281Zm8.047-.367a4.163,4.163,0,0,1-2.187.555,3.622,3.622,0,0,1-2.762-1.113,4.035,4.035,0,0,1-1.051-2.887A4.435,4.435,0,0,1,70.2,10.012a3.963,3.963,0,0,1,3.023-1.2,4.209,4.209,0,0,1,1.859.391v1.313a3.258,3.258,0,0,0-1.906-.625,2.576,2.576,0,0,0-2.012.879,3.335,3.335,0,0,0-.785,2.309,3.176,3.176,0,0,0,.738,2.219,2.545,2.545,0,0,0,1.98.813,3.211,3.211,0,0,0,1.969-.7Zm2.594-9.664a.812.812,0,0,1-.586-.234.791.791,0,0,1-.242-.594.821.821,0,0,1,.828-.836.827.827,0,0,1,.6.238.835.835,0,0,1,0,1.184A.82.82,0,0,1,77.664,6.969ZM78.289,17H77.008V9h1.281Zm5.938.188a3.711,3.711,0,0,1-2.832-1.121,4.153,4.153,0,0,1-1.059-2.973,4.326,4.326,0,0,1,1.1-3.148,3.96,3.96,0,0,1,2.977-1.133,3.588,3.588,0,0,1,2.793,1.1,4.368,4.368,0,0,1,1,3.055,4.3,4.3,0,0,1-1.082,3.066A3.791,3.791,0,0,1,84.227,17.188Zm.094-7.3a2.437,2.437,0,0,0-1.953.84,3.449,3.449,0,0,0-.719,2.316,3.262,3.262,0,0,0,.727,2.242,2.469,2.469,0,0,0,1.945.82,2.342,2.342,0,0,0,1.91-.8,3.492,3.492,0,0,0,.668-2.289A3.552,3.552,0,0,0,86.23,10.7,2.332,2.332,0,0,0,84.32,9.891ZM86.2,4.922,84.148,7.484h-.992L84.9,4.922ZM96.9,17H95.617V12.438q0-2.547-1.859-2.547a2.017,2.017,0,0,0-1.59.723,2.679,2.679,0,0,0-.629,1.824V17H90.258V9h1.281v1.328h.031A2.887,2.887,0,0,1,94.2,8.813,2.448,2.448,0,0,1,96.2,9.66a3.776,3.776,0,0,1,.7,2.449Zm13.625,0h-1.281V15.641h-.031a2.958,2.958,0,0,1-2.75,1.547,2.988,2.988,0,0,1-2.41-1.074,4.407,4.407,0,0,1-.9-2.926,4.794,4.794,0,0,1,1-3.18,3.3,3.3,0,0,1,2.664-1.2,2.564,2.564,0,0,1,2.4,1.3h.031V5.156h1.281Zm-1.281-3.617V12.2a2.289,2.289,0,0,0-.641-1.641,2.149,2.149,0,0,0-1.625-.672,2.212,2.212,0,0,0-1.844.859,3.766,3.766,0,0,0-.672,2.375,3.387,3.387,0,0,0,.645,2.184,2.107,2.107,0,0,0,1.73.8,2.188,2.188,0,0,0,1.738-.773A2.882,2.882,0,0,0,109.242,13.383Zm10.3-.062H113.9a2.992,2.992,0,0,0,.719,2.063,2.478,2.478,0,0,0,1.891.727,3.931,3.931,0,0,0,2.484-.891v1.2a4.643,4.643,0,0,1-2.789.766,3.381,3.381,0,0,1-2.664-1.09,4.461,4.461,0,0,1-.969-3.066,4.375,4.375,0,0,1,1.059-3.043,3.394,3.394,0,0,1,2.629-1.176,3.008,3.008,0,0,1,2.43,1.016,4.234,4.234,0,0,1,.859,2.82Zm-1.312-1.086a2.607,2.607,0,0,0-.535-1.727,1.823,1.823,0,0,0-1.465-.617,2.07,2.07,0,0,0-1.539.648,2.943,2.943,0,0,0-.781,1.7ZM3.5,41H2.219V29.156H3.5Zm8.32,0H10.539V39.75h-.031a2.682,2.682,0,0,1-2.461,1.438,2.63,2.63,0,0,1-1.871-.633,2.192,2.192,0,0,1-.676-1.68q0-2.242,2.641-2.609l2.4-.336q0-2.039-1.648-2.039a3.938,3.938,0,0,0-2.609.984V33.563A4.958,4.958,0,0,1,9,32.813q2.82,0,2.82,2.984Zm-1.281-4.047-1.93.266a3.133,3.133,0,0,0-1.344.441,1.273,1.273,0,0,0-.453,1.121,1.221,1.221,0,0,0,.418.957,1.615,1.615,0,0,0,1.113.371,2.056,2.056,0,0,0,1.574-.668,2.387,2.387,0,0,0,.621-1.691ZM22.57,30.281a1.707,1.707,0,0,0-.852-.211q-1.344,0-1.344,1.7V33H22.25v1.094H20.375V41H19.1V34.094H17.734V33H19.1V31.7a2.7,2.7,0,0,1,.727-1.988,2.453,2.453,0,0,1,1.813-.73,2.511,2.511,0,0,1,.93.141Zm1.711.688a.812.812,0,0,1-.586-.234.791.791,0,0,1-.242-.594.821.821,0,0,1,.828-.836.827.827,0,0,1,.6.238.835.835,0,0,1,0,1.184A.82.82,0,0,1,24.281,30.969ZM24.906,41H23.625V33h1.281Zm3.906-1.156h-.031V41H27.5V29.156h1.281v5.25h.031a3.03,3.03,0,0,1,2.766-1.594,2.932,2.932,0,0,1,2.41,1.074,4.436,4.436,0,0,1,.871,2.879,4.959,4.959,0,0,1-.977,3.215,3.251,3.251,0,0,1-2.672,1.207A2.631,2.631,0,0,1,28.813,39.844Zm-.031-3.227v1.117a2.379,2.379,0,0,0,.645,1.684,2.3,2.3,0,0,0,3.461-.2,4.086,4.086,0,0,0,.66-2.477,3.225,3.225,0,0,0-.617-2.094,2.043,2.043,0,0,0-1.672-.758,2.27,2.27,0,0,0-1.8.777A2.854,2.854,0,0,0,28.781,36.617Zm12.3-2.32a1.567,1.567,0,0,0-.969-.258,1.635,1.635,0,0,0-1.371.773,3.576,3.576,0,0,0-.551,2.109V41H36.906V33h1.281v1.648h.031a2.794,2.794,0,0,1,.836-1.316,1.906,1.906,0,0,1,1.258-.473,2.092,2.092,0,0,1,.766.109ZM48.2,41H46.914V39.75h-.031a2.682,2.682,0,0,1-2.461,1.438,2.63,2.63,0,0,1-1.871-.633,2.192,2.192,0,0,1-.676-1.68q0-2.242,2.641-2.609l2.4-.336q0-2.039-1.648-2.039a3.938,3.938,0,0,0-2.609.984V33.563a4.958,4.958,0,0,1,2.719-.75q2.82,0,2.82,2.984Zm-1.281-4.047-1.93.266a3.133,3.133,0,0,0-1.344.441,1.273,1.273,0,0,0-.453,1.121,1.221,1.221,0,0,0,.418.957,1.615,1.615,0,0,0,1.113.371,2.056,2.056,0,0,0,1.574-.668,2.387,2.387,0,0,0,.621-1.691Zm4.141-2.391a.829.829,0,0,1-.613-.258.849.849,0,0,1-.254-.617.823.823,0,0,1,.254-.609.842.842,0,0,1,.613-.25.865.865,0,0,1,.625.25.817.817,0,0,1,.258.609.842.842,0,0,1-.258.617A.851.851,0,0,1,51.055,34.563Zm0,6.609a.829.829,0,0,1-.613-.258.849.849,0,0,1-.254-.617.862.862,0,0,1,.254-.621.823.823,0,0,1,.613-.262.845.845,0,0,1,.625.262.855.855,0,0,1,.258.621.842.842,0,0,1-.258.617A.851.851,0,0,1,51.055,41.172ZM65.93,41H63.469V36.555q0-1.859-1.328-1.859a1.318,1.318,0,0,0-1.055.492,1.875,1.875,0,0,0-.414,1.25V41H58.2V33h2.469v1.266H60.7a2.829,2.829,0,0,1,2.57-1.461q2.656,0,2.656,3.3Zm8.609,0H72.2V39.852h-.031A2.607,2.607,0,0,1,69.789,41.2a2.492,2.492,0,0,1-1.832-.66,2.366,2.366,0,0,1-.668-1.762q0-2.328,2.758-2.687l2.172-.289q0-1.312-1.422-1.312a4.853,4.853,0,0,0-2.719.852V33.477a6.117,6.117,0,0,1,1.41-.469,7.413,7.413,0,0,1,1.629-.2q3.422,0,3.422,3.414Zm-2.32-3.25v-.539l-1.453.188q-1.2.156-1.2,1.086a.9.9,0,0,0,.293.691,1.126,1.126,0,0,0,.793.27,1.462,1.462,0,0,0,1.133-.48A1.735,1.735,0,0,0,72.219,37.75Zm9.109,3.156a3.649,3.649,0,0,1-1.648.289q-2.609,0-2.609-2.711V34.82h-1.3V33h1.3V31.273l2.461-.7V33h1.8v1.82h-1.8v3.234q0,1.25.992,1.25a1.673,1.673,0,0,0,.8-.227ZM90.32,41H87.859V39.781H87.82A2.792,2.792,0,0,1,85.375,41.2q-2.781,0-2.781-3.367V33h2.461v4.609q0,1.7,1.344,1.7a1.329,1.329,0,0,0,1.063-.465,1.874,1.874,0,0,0,.4-1.262V33H90.32Zm7.3-5.773a2.142,2.142,0,0,0-1.039-.242,1.5,1.5,0,0,0-1.258.59,2.573,2.573,0,0,0-.453,1.605V41H92.4V33h2.469v1.484H94.9a2.136,2.136,0,0,1,2.109-1.625,1.59,1.59,0,0,1,.609.094Zm7.8,5.773h-2.336V39.852h-.031a2.607,2.607,0,0,1-2.383,1.344,2.492,2.492,0,0,1-1.832-.66,2.366,2.366,0,0,1-.668-1.762q0-2.328,2.758-2.687L103.1,35.8q0-1.312-1.422-1.312a4.853,4.853,0,0,0-2.719.852V33.477a6.117,6.117,0,0,1,1.41-.469A7.413,7.413,0,0,1,102,32.8q3.422,0,3.422,3.414Zm-2.32-3.25v-.539l-1.453.188q-1.2.156-1.2,1.086a.9.9,0,0,0,.293.691,1.126,1.126,0,0,0,.793.27,1.462,1.462,0,0,0,1.133-.48A1.735,1.735,0,0,0,103.1,37.75ZM109.844,41h-2.469V29.156h2.469Zm10.3.2A4.3,4.3,0,0,1,117,40.074a4.064,4.064,0,0,1-1.145-3.043,4.065,4.065,0,0,1,1.188-3.105,4.487,4.487,0,0,1,3.211-1.121,4.249,4.249,0,0,1,3.125,1.121,3.985,3.985,0,0,1,1.133,2.965,4.23,4.23,0,0,1-1.168,3.148A4.348,4.348,0,0,1,120.148,41.2Zm.063-6.5a1.647,1.647,0,0,0-1.359.6,2.653,2.653,0,0,0-.484,1.7q0,2.3,1.859,2.3Q122,39.3,122,36.938,122,34.7,120.211,34.7ZM29.773,64.789v-2a5.256,5.256,0,0,0,1.215.547,4.028,4.028,0,0,0,1.145.18,2.455,2.455,0,0,0,1.035-.18.581.581,0,0,0,.379-.547.506.506,0,0,0-.172-.391,1.6,1.6,0,0,0-.441-.273,5.009,5.009,0,0,0-.59-.211q-.32-.094-.617-.211a5.914,5.914,0,0,1-.84-.387,2.427,2.427,0,0,1-.609-.48A1.889,1.889,0,0,1,29.9,60.2a2.525,2.525,0,0,1-.129-.852,2.192,2.192,0,0,1,.293-1.156,2.393,2.393,0,0,1,.781-.793,3.57,3.57,0,0,1,1.117-.453,5.825,5.825,0,0,1,1.309-.145,7.261,7.261,0,0,1,1.078.082,8.047,8.047,0,0,1,1.078.238v1.906a3.9,3.9,0,0,0-1-.41,4.235,4.235,0,0,0-1.051-.137,2.328,2.328,0,0,0-.457.043,1.505,1.505,0,0,0-.379.125.7.7,0,0,0-.258.211.486.486,0,0,0-.094.293.541.541,0,0,0,.141.375,1.221,1.221,0,0,0,.367.27,3.625,3.625,0,0,0,.5.2q.277.09.551.184a7.161,7.161,0,0,1,.891.375,2.848,2.848,0,0,1,.684.477,1.871,1.871,0,0,1,.438.641,2.563,2.563,0,0,1-.156,2.09,2.471,2.471,0,0,1-.82.82,3.72,3.72,0,0,1-1.18.461,6.54,6.54,0,0,1-1.387.145A7.149,7.149,0,0,1,29.773,64.789Zm8.813-9.055a1.442,1.442,0,0,1-1.023-.371,1.2,1.2,0,0,1-.4-.91,1.153,1.153,0,0,1,.4-.906,1.671,1.671,0,0,1,2.051,0,1.158,1.158,0,0,1,.395.906,1.191,1.191,0,0,1-.395.922A1.466,1.466,0,0,1,38.586,55.734ZM39.8,65H37.336V57H39.8Zm9.8,0H47.148V60.555q0-1.859-1.328-1.859a1.318,1.318,0,0,0-1.055.492,1.875,1.875,0,0,0-.414,1.25V65H41.883V57h2.469v1.266h.031a2.829,2.829,0,0,1,2.57-1.461q2.656,0,2.656,3.3Zm6.789-.094a3.649,3.649,0,0,1-1.648.289q-2.609,0-2.609-2.711V58.82h-1.3V57h1.3V55.273l2.461-.7V57h1.8v1.82H54.6v3.234q0,1.25.992,1.25a1.673,1.673,0,0,0,.8-.227Zm8.516-3.2H59.7q.125,1.742,2.2,1.742a4.286,4.286,0,0,0,2.32-.625V64.6a6.1,6.1,0,0,1-2.883.594,3.724,3.724,0,0,1-4.078-4.07,4.281,4.281,0,0,1,1.156-3.156A3.852,3.852,0,0,1,61.25,56.8a3.5,3.5,0,0,1,2.707,1.039,4,4,0,0,1,.957,2.82Zm-2.289-1.516q0-1.719-1.391-1.719a1.328,1.328,0,0,0-1.027.492,2.234,2.234,0,0,0-.527,1.227Zm1.258-6.977-2.445,2.523H59.656l2.031-2.523Zm7.336,11.7a3.649,3.649,0,0,1-1.648.289q-2.609,0-2.609-2.711V58.82h-1.3V57h1.3V55.273l2.461-.7V57h1.8v1.82h-1.8v3.234q0,1.25.992,1.25a1.673,1.673,0,0,0,.8-.227Zm2.641-9.172a1.442,1.442,0,0,1-1.023-.371,1.2,1.2,0,0,1-.4-.91,1.153,1.153,0,0,1,.4-.906,1.671,1.671,0,0,1,2.051,0,1.158,1.158,0,0,1,.395.906,1.191,1.191,0,0,1-.395.922A1.466,1.466,0,0,1,73.859,55.734ZM75.078,65H72.609V57h2.469Zm8.141-.289A4.881,4.881,0,0,1,80.8,65.2a4.083,4.083,0,0,1-2.984-1.117A3.859,3.859,0,0,1,76.68,61.2,4.251,4.251,0,0,1,77.9,57.98a4.518,4.518,0,0,1,3.27-1.176,4.2,4.2,0,0,1,2.047.375v2.094a2.814,2.814,0,0,0-1.727-.578,2.275,2.275,0,0,0-1.684.621,2.317,2.317,0,0,0-.621,1.715,2.28,2.28,0,0,0,.594,1.668,2.182,2.182,0,0,0,1.633.605,3.258,3.258,0,0,0,1.8-.578ZM91.492,65H89.156V63.852h-.031A2.607,2.607,0,0,1,86.742,65.2a2.492,2.492,0,0,1-1.832-.66,2.365,2.365,0,0,1-.668-1.762q0-2.328,2.758-2.687l2.172-.289q0-1.312-1.422-1.312a4.853,4.853,0,0,0-2.719.852V57.477a6.117,6.117,0,0,1,1.41-.469,7.413,7.413,0,0,1,1.629-.2q3.422,0,3.422,3.414Zm-2.32-3.25v-.539l-1.453.188q-1.2.156-1.2,1.086a.9.9,0,0,0,.293.691,1.126,1.126,0,0,0,.793.27,1.462,1.462,0,0,0,1.133-.48A1.735,1.735,0,0,0,89.172,61.75ZM94.547,65.2a1.44,1.44,0,0,1-1.016-.375,1.206,1.206,0,0,1-.406-.922,1.161,1.161,0,0,1,.418-.922,1.543,1.543,0,0,1,1.043-.359,1.486,1.486,0,0,1,1.035.363,1.258,1.258,0,0,1-.008,1.852A1.549,1.549,0,0,1,94.547,65.2Z" transform="translate(-1830.64 -6242.997)" fill="#12263f"/>
  </g>
</svg>
