<svg xmlns="http://www.w3.org/2000/svg" width="387.943" height="915.3" viewBox="0 0 387.943 915.3">
  <g id="Grupo_1065382" data-name="Grupo 1065382" transform="translate(1881.472 7533.932)">
    <path id="Trazado_104928" data-name="Trazado 104928" d="M462.643,469.772V394.426C626.46,406.884,609.979,566.778,609.979,566.778V916.47h45.135l-80.991,87.641-81-87.641h45.138V566.778C538.266,471.569,462.643,469.772,462.643,469.772Z" transform="translate(-2148.643 -7622.743)" fill="#b0c0d2"/>
    <g id="Grupo_55705" data-name="Grupo 55705" transform="translate(-1611.109 -7066.239)">
      <circle id="Elipse_4044" data-name="Elipse 4044" cx="40.055" cy="40.055" r="40.055" transform="translate(0 0)" fill="#baefe4"/>
      <g id="Grupo_55704" data-name="Grupo 55704" transform="translate(17.839 20.419)">
        <path id="Trazado_104962" data-name="Trazado 104962" d="M513.97,454.055H497.6a4.281,4.281,0,0,0-4.28,4.279v22.225a5.364,5.364,0,0,1-4.317.465l.037-.114v-26a4.279,4.279,0,0,1,4.28-4.28h17.222A3.424,3.424,0,0,1,513.97,454.055Z" transform="translate(-484.556 -442.753)" fill="#f6e2c6"/>
        <path id="Trazado_104963" data-name="Trazado 104963" d="M492.127,475.621a5.317,5.317,0,0,0,2.518-3.388l4.667-16.47a4.274,4.274,0,0,1,4.16-3.292h19.291a4.275,4.275,0,0,1,4.2,5.106L523.3,472.893a4.282,4.282,0,0,1-4.2,3.45H489.451a5.324,5.324,0,0,0,2.676-.721Z" transform="translate(-483.361 -437.815)" fill="#f16c7a"/>
        <path id="Trazado_104964" data-name="Trazado 104964" d="M523.08,457.4v5.205h-2.138a3.354,3.354,0,0,0-3.347-3.353h-.931a3.424,3.424,0,0,0-3.425-3.421H496.02a4.279,4.279,0,0,0-4.28,4.28v26l-.037.114a5.35,5.35,0,0,1-3.7-5.089V453.241a4.544,4.544,0,0,1,4.542-4.542h10.594a4.281,4.281,0,0,1,2.808,1.05l2.363,2.061a4.282,4.282,0,0,0,2.808,1.05h7.424a4.541,4.541,0,0,1,4.541,4.543Z" transform="translate(-487.254 -447.951)" fill="#fcb268"/>
        <path id="Trazado_104965" data-name="Trazado 104965" d="M515.1,454.913h-13.58a4.274,4.274,0,0,0-4.162,3.292l-4.667,16.473a5.317,5.317,0,0,1-2.518,3.388V455.844a4.281,4.281,0,0,1,4.28-4.28h17.3a3.354,3.354,0,0,1,3.351,3.349Z" transform="translate(-481.411 -440.26)" fill="#8bbed5"/>
        <path id="Trazado_104966" data-name="Trazado 104966" d="M527.2,462.4h-2.824v-4.457a5.292,5.292,0,0,0-5.29-5.29h-7.424a3.519,3.519,0,0,1-2.315-.87l-2.367-2.057a5.023,5.023,0,0,0-3.3-1.235H493.089a5.3,5.3,0,0,0-5.29,5.29V481.68a6.082,6.082,0,0,0,5.769,6.082v.007h29.976a5.039,5.039,0,0,0,4.929-4.036l3.657-15.3.007-.03a5.031,5.031,0,0,0-4.936-6ZM489.3,481.68V453.786a3.8,3.8,0,0,1,3.794-3.793h10.594a3.533,3.533,0,0,1,2.315.866l2.367,2.06a5.025,5.025,0,0,0,3.3,1.234h7.424a3.8,3.8,0,0,1,3.794,3.794V462.4h-.712a4.107,4.107,0,0,0-4.029-3.355h-.25a4.17,4.17,0,0,0-4.1-3.421H496.565a5.032,5.032,0,0,0-5.028,5.028v24.967a4.68,4.68,0,0,1-.9-.7,4.58,4.58,0,0,1-1.345-3.247Zm28.845-21.13a2.6,2.6,0,0,1,2.492,1.854H507.911a5.009,5.009,0,0,0-4.888,3.853l-4.657,16.453-.007.033a4.58,4.58,0,0,1-1.043,1.994v-20.66a3.534,3.534,0,0,1,3.532-3.528Zm-25.107,25.641V460.657a3.537,3.537,0,0,1,3.532-3.532h17.222a2.678,2.678,0,0,1,2.569,1.923H500.845a5.034,5.034,0,0,0-5.028,5.028v21.767a4.553,4.553,0,0,1-2.784.348ZM530.67,468.1l-3.657,15.3v.03a3.543,3.543,0,0,1-3.466,2.846H497.884a6.117,6.117,0,0,0,1.924-3.17l4.657-16.453.011-.03a3.518,3.518,0,0,1,3.436-2.716H527.2a3.532,3.532,0,0,1,3.469,4.2Z" transform="translate(-487.799 -448.496)" fill="#3a312a"/>
      </g>
    </g>
    <g id="Grupo_55708" data-name="Grupo 55708" transform="translate(-1612.254 -6829.764)">
      <circle id="Elipse_4045" data-name="Elipse 4045" cx="40.055" cy="40.055" r="40.055" transform="translate(0 0)" fill="#baefe4"/>
      <g id="Grupo_55706" data-name="Grupo 55706" transform="translate(16.784 16.783)">
        <path id="Trazado_104967" data-name="Trazado 104967" d="M508.573,526.016a2.727,2.727,0,1,1-3.856,3.856l-8.78-8.781a22.856,22.856,0,0,0,3.856-3.856Z" transform="translate(-463.737 -485.036)" fill="#8bbed5"/>
        <path id="Trazado_104968" data-name="Trazado 104968" d="M498.737,516.18l3.893,3.893a22.854,22.854,0,0,1-3.856,3.856l-3.893-3.889h0a17.241,17.241,0,0,0,3.856-3.856Z" transform="translate(-466.574 -487.873)" fill="#fcb268"/>
        <path id="Trazado_104969" data-name="Trazado 104969" d="M521.992,526.021a17.178,17.178,0,1,1-5.03-12.242A17.271,17.271,0,0,1,521.992,526.021Z" transform="translate(-486.542 -507.841)" fill="#8bbed5"/>
        <path id="Trazado_104970" data-name="Trazado 104970" d="M502.071,509.734a13.636,13.636,0,1,1-13.636,13.636,13.636,13.636,0,0,1,13.636-13.636Z" transform="translate(-483.89 -505.189)" fill="#f6e2c6"/>
        <path id="Trazado_104971" data-name="Trazado 104971" d="M532.679,548.836,520.544,536.7a18.191,18.191,0,1,0-5.143,5.142l3.355,3.351h0l8.777,8.777a3.636,3.636,0,1,0,5.142-5.142Zm-15.8-8.084a18.194,18.194,0,0,0,2.569-2.569l2.581,2.581a22.01,22.01,0,0,1-2.573,2.569ZM489.02,526.679a16.363,16.363,0,1,1,25.955,13.245h0a16.214,16.214,0,0,1-9.592,3.115,16.38,16.38,0,0,1-16.364-16.358Zm42.373,26.011a1.812,1.812,0,0,1-2.569,0l-8.071-8.071a23.826,23.826,0,0,0,2.569-2.574l8.072,8.071a1.812,1.812,0,0,1,0,2.569Z" transform="translate(-487.202 -508.501)" fill="#3a312a"/>
        <path id="Trazado_104972" data-name="Trazado 104972" d="M517.278,524.033a14.546,14.546,0,1,0-14.545,14.545,14.546,14.546,0,0,0,14.545-14.545Zm-14.546,12.728a12.728,12.728,0,1,1,12.728-12.728,12.728,12.728,0,0,1-12.728,12.728Z" transform="translate(-484.554 -505.853)" fill="#3a312a"/>
      </g>
      <g id="Grupo_55707" data-name="Grupo 55707" transform="translate(56.442 33.521)">
        <path id="Trazado_105625" data-name="Trazado 105625" d="M504.859,517.6c-1.95.092-2.437,2.647-2.437,2.647-.04-1.821-2.51-2.672-2.51-2.672,1.85-.111,2.492-2.5,2.492-2.5A2.918,2.918,0,0,0,504.859,517.6Z" transform="translate(-492.717 -507.579)" fill="#fcb268"/>
        <path id="Trazado_105626" data-name="Trazado 105626" d="M502.678,520.94a.4.4,0,0,1-.365-.391c-.033-1.519-2.219-2.3-2.241-2.308a.393.393,0,0,1-.266-.35.4.4,0,0,1,.372-.424c1.537-.092,2.123-2.182,2.131-2.2a.4.4,0,0,1,.785.07,2.505,2.505,0,0,0,2.116,2.161.4.4,0,0,1-.045.789c-1.607.078-2.057,2.3-2.06,2.326a.4.4,0,0,1-.391.325Zm1.242-3.074a3.169,3.169,0,0,1-1.3-1.308,3.568,3.568,0,0,1-1.319,1.39,4.179,4.179,0,0,1,1.43,1.327,3.486,3.486,0,0,1,1.184-1.408Z" transform="translate(-493.005 -507.87)" fill="#3a312a"/>
        <path id="Trazado_105627" data-name="Trazado 105627" d="M501.589,513.848c.262,3.082,3.473,3.568,3.473,3.568-2.758.129-3.443,3.742-3.443,3.742-.059-2.577-3.549-3.782-3.549-3.782,2.614-.155,3.518-3.528,3.518-3.528Z" transform="translate(-497.668 -510.874)" fill="#fcb268"/>
        <path id="Trazado_105628" data-name="Trazado 105628" d="M501.906,521.848h-.033a.4.4,0,0,1-.365-.391c-.052-2.263-3.247-3.4-3.28-3.415a.4.4,0,0,1,.1-.774c2.293-.137,3.152-3.208,3.162-3.233a.4.4,0,0,1,.351-.295h0a.4.4,0,0,1,.432.365,3.7,3.7,0,0,0,3.133,3.208.4.4,0,0,1-.04.793c-2.407.114-3.067,3.388-3.07,3.421a.407.407,0,0,1-.394.325Zm2.064-4.188a4.308,4.308,0,0,1-2.185-2.2,4.883,4.883,0,0,1-2.22,2.322,5.691,5.691,0,0,1,2.38,2.244,4.629,4.629,0,0,1,2.02-2.362Z" transform="translate(-497.959 -511.163)" fill="#3a312a"/>
        <path id="Trazado_105629" data-name="Trazado 105629" d="M504.866,517.6c-1.95.092-2.433,2.647-2.433,2.647-.045-1.821-2.515-2.672-2.515-2.672,1.85-.111,2.492-2.5,2.492-2.5A2.918,2.918,0,0,0,504.866,517.6Z" transform="translate(-492.706 -507.579)" fill="#fcb268"/>
        <path id="Trazado_105630" data-name="Trazado 105630" d="M502.685,520.934a.4.4,0,0,1-.368-.387c-.033-1.522-2.22-2.3-2.241-2.308a.4.4,0,0,1-.266-.354.394.394,0,0,1,.373-.42c1.541-.092,2.123-2.182,2.131-2.2a.4.4,0,0,1,.354-.291h0a.4.4,0,0,1,.432.365,2.5,2.5,0,0,0,2.112,2.161.4.4,0,0,1-.04.789c-1.607.078-2.057,2.3-2.06,2.326a.4.4,0,0,1-.391.325Zm1.242-3.071a3.169,3.169,0,0,1-1.3-1.308,3.569,3.569,0,0,1-1.319,1.39,4.179,4.179,0,0,1,1.43,1.327,3.432,3.432,0,0,1,1.184-1.408Z" transform="translate(-492.995 -507.867)" fill="#3a312a"/>
        <path id="Trazado_105631" data-name="Trazado 105631" d="M504.866,515.671c-1.95.088-2.433,2.647-2.433,2.647-.045-1.821-2.515-2.676-2.515-2.676,1.85-.111,2.492-2.492,2.492-2.492a2.924,2.924,0,0,0,2.456,2.521Z" transform="translate(-492.706 -512.75)" fill="#fcb268"/>
        <path id="Trazado_105632" data-name="Trazado 105632" d="M502.687,519.011a.4.4,0,0,1-.368-.387c-.033-1.522-2.22-2.3-2.241-2.308a.414.414,0,0,1-.269-.357.4.4,0,0,1,.376-.42c1.541-.092,2.123-2.178,2.131-2.2a.4.4,0,0,1,.785.066,2.493,2.493,0,0,0,2.112,2.16.4.4,0,0,1-.04.8c-1.607.073-2.057,2.3-2.06,2.322a.4.4,0,0,1-.391.324Zm1.242-3.07a3.193,3.193,0,0,1-1.3-1.308,3.6,3.6,0,0,1-1.319,1.39,4.17,4.17,0,0,1,1.43,1.324,3.394,3.394,0,0,1,1.184-1.4Z" transform="translate(-492.997 -513.041)" fill="#3a312a"/>
      </g>
    </g>
    <g id="Grupo_55712" data-name="Grupo 55712" transform="translate(-1614.551 -6948.53)">
      <circle id="Elipse_4046" data-name="Elipse 4046" cx="40.055" cy="40.055" r="40.055" transform="translate(0 0)" fill="#baefe4"/>
      <g id="Grupo_55711" data-name="Grupo 55711" transform="translate(15.954 15.683)">
        <g id="Grupo_55709" data-name="Grupo 55709" transform="translate(0.01 0.001)">
          <path id="Trazado_104973" data-name="Trazado 104973" d="M511.238,495.136a4.036,4.036,0,0,1-1.043,1.515l-.062.059a4.214,4.214,0,0,1-2.923,1.147h-5.847a1.019,1.019,0,0,1-.859-.472l-.981-1.574-4.132-6.6a.939.939,0,0,1-.122-.8,1,1,0,0,1,.491-.656l9.2-5.109a1.041,1.041,0,0,1,1.39.406l4.745,8.467A4.19,4.19,0,0,1,511.238,495.136Z" transform="translate(-462.524 -465.145)" fill="#b3ae7f"/>
          <path id="Trazado_104974" data-name="Trazado 104974" d="M507.1,486.173l-.859,1.209-4.553,6.355a1.018,1.018,0,0,1-.84.432,1.139,1.139,0,0,1-.491-.122l-11.243-6.134a1.018,1.018,0,0,1-.328-1.515l4.371-5.823a5.874,5.874,0,0,1,.571-.675,6.674,6.674,0,0,1,4.722-2.086,1.494,1.494,0,0,1,.288.019,6.9,6.9,0,0,1,5.46,2.968l2.9,4.21a1.02,1.02,0,0,1,.005,1.164Z" transform="translate(-480.406 -477.812)" fill="#b3ae7f"/>
          <path id="Trazado_104975" data-name="Trazado 104975" d="M506.476,495.742a1.022,1.022,0,0,1-1.138.162l-3.188-1.6-1.863,3.742-.737,1.475a1.045,1.045,0,0,1-.918.571H490.74a4.19,4.19,0,0,1-2.945-1.165l-.04-.04a4.327,4.327,0,0,1-1.083-1.552,4.4,4.4,0,0,1,.163-3.558l3.4-6.768-3.557-3.576a.972.972,0,0,1-.225-1.106,1.035,1.035,0,0,1,.94-.634h13.289a1.025,1.025,0,0,1,.94.634l5.113,12.268a1.047,1.047,0,0,1-.252,1.144Z" transform="translate(-486.364 -467.383)" fill="#b3ae7f"/>
        </g>
        <g id="Grupo_55710" data-name="Grupo 55710" transform="translate(0.007 0.005)">
          <path id="Trazado_104976" data-name="Trazado 104976" d="M506.794,489.509v12.264a1.022,1.022,0,0,1-1.021,1.024h-4.967a7.091,7.091,0,0,1-5.868-3.089l-.755-1.1-.081-.081c.019,0-.391-.575-.778-1.147-.184-.247-.328-.491-.472-.675-.531-.778-.814-1.165-.693-1-.1-.162-.207-.284-.247-.368l-.019-.019c-.081-.122-.111-.162-.115-.173l-.029-.033-.022-.04c-1.43-2.064-2.758-3.985-3.945-5.7l-.04-.04c-.387-.531-.737-1.066-1.083-1.552a4.372,4.372,0,0,1-.207-2.515l2.758,2.64a2.1,2.1,0,0,0,1.515.59h15.049a1.024,1.024,0,0,1,1.021,1.02Z" transform="translate(-486.355 -457.821)" fill="#8f8b66"/>
          <path id="Trazado_104977" data-name="Trazado 104977" d="M519.493,483.312l-5.113,12.268a1.025,1.025,0,0,1-.94.634.632.632,0,0,1-.184-.022l-11.243-2.043a1.065,1.065,0,0,1-.84-.859,1.022,1.022,0,0,1,.575-1.062l3.026-1.512-2.293-3.332-3.719-5.441a4.82,4.82,0,0,0-3.926-2.042h-4.864a6.657,6.657,0,0,1,3.8-2.005l.918-.063h.288l13.207-.019a5.108,5.108,0,0,1,4.273,2.27l2.352,3.558,3.292-1.637a1.021,1.021,0,0,1,1.138.162A1.047,1.047,0,0,1,519.493,483.312Z" transform="translate(-476.645 -477.815)" fill="#8f8b66"/>
          <path id="Trazado_104978" data-name="Trazado 104978" d="M518.682,488.438l-.962,1.39-.081.125-.062.059-7.114,10.325a7.129,7.129,0,0,1-5.887,3.089h-1.9v3.067a1.006,1.006,0,0,1-1.021,1.021.985.985,0,0,1-.76-.347l-8.175-9.2a.991.991,0,0,1-.062-1.268l8.175-11.243a1.008,1.008,0,0,1,1.125-.391,1.028,1.028,0,0,1,.715.981v3.067h11.98a2.106,2.106,0,0,0,1.515-.59l2.757-2.64a4.188,4.188,0,0,1-.24,2.554Z" transform="translate(-469.967 -458.45)" fill="#8f8b66"/>
        </g>
        <path id="Trazado_104979" data-name="Trazado 104979" d="M505.777,512.363H500.82a7.14,7.14,0,0,1-5.883-3.086l-7.173-10.348a4.362,4.362,0,0,1-.931-5.139l3.388-6.783-3.568-3.568a1.024,1.024,0,0,1,.724-1.748h13.289a1.026,1.026,0,0,1,.944.63l5.109,12.268a1.021,1.021,0,0,1-1.4,1.309l-3.178-1.588-1.869,3.738h5.5a1.024,1.024,0,0,1,1.021,1.024v12.264a1.022,1.022,0,0,1-1.021,1.027ZM491.058,500.1l5.555,8.022a5.118,5.118,0,0,0,4.206,2.2h3.932V500.1H491.058Zm-1.759-2.548a1.945,1.945,0,0,0,.406.258,2.277,2.277,0,0,0,1.035.243h7.252l2.787-5.566a1.021,1.021,0,0,1,1.371-.461l1.63.819-3.789-9.106H489.849l2.341,2.345a1.018,1.018,0,0,1,.191,1.18l-3.712,7.439a2.282,2.282,0,0,0-.125,1.765,2.329,2.329,0,0,0,.372.7.962.962,0,0,1,.324.3Z" transform="translate(-486.353 -467.382)" fill="#3a312a"/>
        <path id="Trazado_104980" data-name="Trazado 104980" d="M498.634,501.19H495.7a1.023,1.023,0,1,1,0-2.046h2.926a5.113,5.113,0,0,0,4.206-2.2L510.2,486.3a1.021,1.021,0,1,1,1.681,1.161L504.517,498.1a7.149,7.149,0,0,1-5.883,3.086Z" transform="translate(-464.006 -456.208)" fill="#3a312a"/>
        <path id="Trazado_104981" data-name="Trazado 104981" d="M502.854,497.861H495.7a1.023,1.023,0,1,1,0-2.046h5.315l-4.132-6.613a1.02,1.02,0,0,1,.365-1.434l9.2-5.113a1.023,1.023,0,0,1,1.39.394l4.745,8.464a4.359,4.359,0,0,1-3.87,6.347h-5.854Zm.564-2.046h5.29a2.31,2.31,0,0,0,2.06-3.343l-4.221-7.531-7.369,4.092Z" transform="translate(-464.006 -465.147)" fill="#3a312a"/>
        <path id="Trazado_104982" data-name="Trazado 104982" d="M517.2,496.214a1.082,1.082,0,0,1-.184-.019l-11.243-2.046a1.02,1.02,0,0,1-.276-1.916l3.037-1.519-2.3-3.355-4.559,6.381a1.015,1.015,0,0,1-1.319.3l-11.243-6.134a1.017,1.017,0,0,1-.328-1.512l4.382-5.835a6.8,6.8,0,0,1,6.252-2.666,1,1,0,0,1,.406-.085h12.139a5.1,5.1,0,0,1,4.25,2.277l2.362,3.558,3.281-1.64a1.025,1.025,0,0,1,1.4,1.309l-5.113,12.268A1.017,1.017,0,0,1,517.2,496.214Zm-8.043-3.528,7.416,1.345,3.738-8.969-1.633.814a1.026,1.026,0,0,1-1.309-.35l-2.864-4.313a3.051,3.051,0,0,0-2.547-1.364h-8.527a6.73,6.73,0,0,1,.771.931l6.687,9.727A1.021,1.021,0,0,1,510.5,492Zm-18.029-6,9.41,5.135L505,485.571l-2.483-3.622a4.751,4.751,0,0,0-7.715-.158Z" transform="translate(-480.394 -477.81)" fill="#3a312a"/>
        <path id="Trazado_104983" data-name="Trazado 104983" d="M501.655,507.513a1.034,1.034,0,0,1-.763-.342l-8.175-9.2a1.027,1.027,0,0,1-.063-1.279l8.175-11.247a1.022,1.022,0,0,1,1.85.6v4.092a1.023,1.023,0,0,1-2.046,0v-.947l-5.847,8.039,5.847,6.573v-1.4a1.023,1.023,0,0,1,2.046,0v4.092a1.021,1.021,0,0,1-.66.955,1.043,1.043,0,0,1-.364.065Z" transform="translate(-469.959 -458.443)" fill="#3a312a"/>
      </g>
    </g>
    <g id="Grupo_55717" data-name="Grupo 55717" transform="translate(-1612.916 -7183.948)">
      <circle id="Elipse_4047" data-name="Elipse 4047" cx="40.055" cy="40.055" r="40.055" transform="translate(0 0)" fill="#baefe4"/>
      <g id="Grupo_55716" data-name="Grupo 55716" transform="translate(18.99 18.108)">
        <g id="Grupo_55714" data-name="Grupo 55714" transform="translate(0 0)">
          <path id="Trazado_104984" data-name="Trazado 104984" d="M530.33,422.721a4.585,4.585,0,0,0-3.41-3.693l-6.252-1.563H499.275l-6.252,1.563a4.58,4.58,0,0,0-3.41,3.693l-1.8,10.786,8.4,3.056v25.214h27.507V436.562l8.4-3.056Z" transform="translate(-487.098 -416.746)" fill="#fcb268"/>
          <g id="Grupo_55713" data-name="Grupo 55713" transform="translate(0.717 0.718)">
            <path id="Trazado_104985" data-name="Trazado 104985" d="M490.924,417.464a10.7,10.7,0,0,0,21.391,0Z" transform="translate(-479.464 -417.464)" fill="#f6e2c6"/>
            <path id="Trazado_104986" data-name="Trazado 104986" d="M494.653,422.17l-3.907-3.91a4.553,4.553,0,0,0-1.132,2.329l-1.8,10.786,8.4,3.056v-8.485a5.347,5.347,0,0,0-1.567-3.775Z" transform="translate(-487.815 -415.332)" fill="#f6e2c6"/>
          </g>
          <path id="Trazado_104987" data-name="Trazado 104987" d="M507.033,417.464a7.64,7.64,0,0,1-15.28,0" transform="translate(-476.52 -416.746)" fill="#fcb268"/>
          <path id="Trazado_104988" data-name="Trazado 104988" d="M488.291,421.042l-.476,2.854,8.4,3.056V423.9Z" transform="translate(-487.098 -407.135)" fill="#eb6e7a"/>
          <path id="Trazado_104989" data-name="Trazado 104989" d="M499.124,422.17l3.907-3.91a4.586,4.586,0,0,1,1.132,2.329l1.8,10.786-8.4,3.056v-8.485A5.331,5.331,0,0,1,499.124,422.17Z" transform="translate(-460.929 -414.613)" fill="#f6e2c6"/>
          <path id="Trazado_104990" data-name="Trazado 104990" d="M505.486,421.042l.476,2.854-8.4,3.056V423.9Z" transform="translate(-460.93 -407.135)" fill="#eb6e7a"/>
          <rect id="Rect치ngulo_5353" data-name="Rect치ngulo 5353" width="27.505" height="3.056" transform="translate(9.121 41.974)" fill="#eb6e7a"/>
          <path id="Trazado_104991" data-name="Trazado 104991" d="M497.022,419.614h-3.056a.765.765,0,0,1-.763-.763h0a.768.768,0,0,1,.763-.767h3.056a.771.771,0,0,1,.767.767h0a.768.768,0,0,1-.767.763Z" transform="translate(-472.622 -415.078)" fill="#f6e2c6"/>
          <path id="Trazado_104992" data-name="Trazado 104992" d="M533.358,433.913l-1.8-10.786a5.3,5.3,0,0,0-3.94-4.273l-4.976-1.242a11.291,11.291,0,0,0-2.768-.343H501.114a11.314,11.314,0,0,0-2.768.342l-4.973,1.242a5.3,5.3,0,0,0-3.945,4.273l-1.8,10.786a.724.724,0,0,0,.465.793l7.933,2.883V462.3a.716.716,0,0,0,.715.715h27.507a.716.716,0,0,0,.715-.715V437.583L532.9,434.7a.714.714,0,0,0,.462-.787ZM517.382,418.7a6.925,6.925,0,0,1-13.775,0Zm-15.212,0a8.356,8.356,0,0,0,16.651,0h1.054c.191,0,.383,0,.575.014a9.98,9.98,0,0,1-19.905,0c.188-.011.38-.015.571-.015Zm-8.449,1.541L498.7,419c.14-.037.28-.066.424-.1a11.413,11.413,0,0,0,22.751,0c.14.029.283.059.424.1l4.976,1.242a3.865,3.865,0,0,1,2.876,3.119l1.224,7.347-6.406,2.308v-4.332a.717.717,0,1,0-1.434,0v29.848H497.456V428.684a.715.715,0,0,0-1.43,0v4.332l-6.411-2.308,1.224-7.347a3.87,3.87,0,0,1,2.88-3.117Zm-4.578,13.319.236-1.42,6.651,2.392v1.529Zm8.316,28.022v-1.626h26.077v1.626Zm27.507-25.52v-1.529l6.646-2.392.236,1.42Z" transform="translate(-487.62 -417.27)" fill="#3a312a"/>
        </g>
        <g id="Grupo_55715" data-name="Grupo 55715" transform="translate(13.507 16.565)">
          <path id="Trazado_104993" data-name="Trazado 104993" d="M500.654,421.763a9.367,9.367,0,1,0,9.367,9.367,9.367,9.367,0,0,0-9.367-9.367Z" transform="translate(-491.287 -421.763)" fill="#f16c7a"/>
          <path id="Trazado_104994" data-name="Trazado 104994" d="M500.6,440.5a9.367,9.367,0,1,1,9.422-9.313A9.367,9.367,0,0,1,500.6,440.5Zm.1-17.565a8.2,8.2,0,1,0,8.147,8.246,8.2,8.2,0,0,0-8.147-8.246Z" transform="translate(-491.287 -421.763)" fill="#3a312a"/>
          <path id="Trazado_104995" data-name="Trazado 104995" d="M493.459,430.3a.58.58,0,0,1-.414-.173.588.588,0,0,1,0-.828l5.832-5.762a.587.587,0,1,1,.828.833l-5.832,5.762A.576.576,0,0,1,493.459,430.3Z" transform="translate(-487.011 -417.464)" fill="#3a312a"/>
          <path id="Trazado_104996" data-name="Trazado 104996" d="M499.228,430.358a.591.591,0,0,1-.414-.177l-5.762-5.828a.587.587,0,0,1,.833-.828l5.762,5.832a.586.586,0,0,1-.42,1Z" transform="translate(-486.986 -417.489)" fill="#3a312a"/>
        </g>
      </g>
    </g>
    <path id="Trazado_778155" data-name="Trazado 778155" d="M-66.49-4.067h-3.937V0h-2.051V-9.953H-66v1.661h-4.43v2.57h3.938Zm5.53-1.477A5.367,5.367,0,0,0-61.67-5.6a1.447,1.447,0,0,0-1.47.759V0h-1.976V-7.4h1.866l.055.882a1.831,1.831,0,0,1,1.647-1.019,2.07,2.07,0,0,1,.615.089ZM-55.928,0a2.194,2.194,0,0,1-.2-.663,2.39,2.39,0,0,1-1.866.8,2.626,2.626,0,0,1-1.8-.629,2.023,2.023,0,0,1-.714-1.586,2.09,2.09,0,0,1,.872-1.8,4.3,4.3,0,0,1,2.519-.636h.909v-.424a1.219,1.219,0,0,0-.263-.82A1.035,1.035,0,0,0-57.3-6.07a1.177,1.177,0,0,0-.783.239.813.813,0,0,0-.284.656h-1.976a1.984,1.984,0,0,1,.4-1.189,2.621,2.621,0,0,1,1.121-.858A4.086,4.086,0,0,1-57.2-7.533a3.228,3.228,0,0,1,2.17.687,2.4,2.4,0,0,1,.8,1.931v3.206a3.536,3.536,0,0,0,.294,1.593V0Zm-1.634-1.374a1.7,1.7,0,0,0,.807-.195,1.28,1.28,0,0,0,.547-.523V-3.363h-.738q-1.483,0-1.579,1.025l-.007.116a.791.791,0,0,0,.26.608A1.009,1.009,0,0,0-57.562-1.374Zm7.93-.082a1.3,1.3,0,0,0,.889-.3,1.054,1.054,0,0,0,.355-.8h1.853a2.534,2.534,0,0,1-.41,1.377,2.706,2.706,0,0,1-1.1.971A3.455,3.455,0,0,1-49.6.137,3.211,3.211,0,0,1-52.1-.872a3.99,3.99,0,0,1-.916-2.786v-.13a3.944,3.944,0,0,1,.909-2.728,3.174,3.174,0,0,1,2.5-1.019,3.111,3.111,0,0,1,2.225.79,2.8,2.8,0,0,1,.851,2.1h-1.853a1.358,1.358,0,0,0-.355-.938,1.185,1.185,0,0,0-.9-.361,1.19,1.19,0,0,0-1.042.5A2.916,2.916,0,0,0-51.041-3.8V-3.6a2.953,2.953,0,0,0,.349,1.643A1.2,1.2,0,0,0-49.632-1.456Zm7.3,0a1.3,1.3,0,0,0,.889-.3,1.054,1.054,0,0,0,.355-.8h1.853a2.534,2.534,0,0,1-.41,1.377,2.706,2.706,0,0,1-1.1.971A3.455,3.455,0,0,1-42.3.137,3.211,3.211,0,0,1-44.8-.872a3.99,3.99,0,0,1-.916-2.786v-.13a3.944,3.944,0,0,1,.909-2.728,3.174,3.174,0,0,1,2.5-1.019,3.111,3.111,0,0,1,2.225.79,2.8,2.8,0,0,1,.851,2.1h-1.853a1.358,1.358,0,0,0-.355-.938,1.185,1.185,0,0,0-.9-.361,1.19,1.19,0,0,0-1.042.5A2.916,2.916,0,0,0-43.74-3.8V-3.6a2.953,2.953,0,0,0,.349,1.643A1.2,1.2,0,0,0-42.332-1.456ZM-36.022,0H-38V-7.4h1.982Zm-2.1-9.311a.973.973,0,0,1,.3-.731,1.117,1.117,0,0,1,.81-.287,1.12,1.12,0,0,1,.807.287.967.967,0,0,1,.3.731.97.97,0,0,1-.3.738,1.122,1.122,0,0,1-.8.287,1.122,1.122,0,0,1-.8-.287A.97.97,0,0,1-38.121-9.311ZM-34.7-3.767a4.387,4.387,0,0,1,.424-1.962,3.1,3.1,0,0,1,1.22-1.333,3.56,3.56,0,0,1,1.849-.472,3.368,3.368,0,0,1,2.444.916,3.676,3.676,0,0,1,1.056,2.488l.014.506a3.866,3.866,0,0,1-.95,2.731A3.3,3.3,0,0,1-31.2.137,3.319,3.319,0,0,1-33.749-.889,3.934,3.934,0,0,1-34.7-3.678Zm1.976.14a2.765,2.765,0,0,0,.4,1.612,1.308,1.308,0,0,0,1.135.558,1.311,1.311,0,0,0,1.121-.551,3.025,3.025,0,0,0,.4-1.763,2.737,2.737,0,0,0-.4-1.6,1.311,1.311,0,0,0-1.135-.568,1.29,1.29,0,0,0-1.121.565A3.076,3.076,0,0,0-32.727-3.626ZM-30.82-10.5h2.153L-30.56-8.381h-1.606Zm6.159,3.1.062.854a2.582,2.582,0,0,1,2.126-.991,2.146,2.146,0,0,1,1.75.69,3.221,3.221,0,0,1,.588,2.064V0h-1.976V-4.73a1.282,1.282,0,0,0-.273-.913,1.224,1.224,0,0,0-.909-.284,1.359,1.359,0,0,0-1.251.711V0H-26.52V-7.4Zm11.327,0,.062.854a2.582,2.582,0,0,1,2.126-.991,2.146,2.146,0,0,1,1.75.69,3.221,3.221,0,0,1,.588,2.064V0h-1.976V-4.73a1.282,1.282,0,0,0-.273-.913,1.224,1.224,0,0,0-.909-.284,1.359,1.359,0,0,0-1.251.711V0h-1.976V-7.4Zm5.715,3.63a4.387,4.387,0,0,1,.424-1.962,3.1,3.1,0,0,1,1.22-1.333,3.56,3.56,0,0,1,1.849-.472,3.368,3.368,0,0,1,2.444.916A3.676,3.676,0,0,1-.625-4.129l.014.506a3.866,3.866,0,0,1-.95,2.731A3.3,3.3,0,0,1-4.112.137,3.319,3.319,0,0,1-6.665-.889a3.934,3.934,0,0,1-.954-2.789Zm1.976.14a2.765,2.765,0,0,0,.4,1.612,1.308,1.308,0,0,0,1.135.558,1.311,1.311,0,0,0,1.121-.551,3.025,3.025,0,0,0,.4-1.763,2.737,2.737,0,0,0-.4-1.6A1.311,1.311,0,0,0-4.125-5.94a1.29,1.29,0,0,0-1.121.565A3.076,3.076,0,0,0-5.643-3.626ZM8.248-5.544A5.367,5.367,0,0,0,7.537-5.6a1.447,1.447,0,0,0-1.47.759V0H4.091V-7.4H5.958l.055.882A1.831,1.831,0,0,1,7.66-7.533a2.07,2.07,0,0,1,.615.089ZM12.472.137a3.631,3.631,0,0,1-2.649-1A3.548,3.548,0,0,1,8.8-3.521v-.191A4.468,4.468,0,0,1,9.232-5.7a3.161,3.161,0,0,1,1.22-1.354,3.425,3.425,0,0,1,1.8-.475,3.07,3.07,0,0,1,2.389.957,3.889,3.889,0,0,1,.872,2.714v.807H10.8a1.835,1.835,0,0,0,.578,1.162,1.746,1.746,0,0,0,1.22.438,2.132,2.132,0,0,0,1.784-.827L15.357-1.2a2.966,2.966,0,0,1-1.2.981A3.947,3.947,0,0,1,12.472.137ZM12.247-5.94a1.234,1.234,0,0,0-.954.4,2.062,2.062,0,0,0-.468,1.14h2.748V-4.56a1.471,1.471,0,0,0-.355-1.02A1.274,1.274,0,0,0,12.247-5.94ZM21.065-.752a2.477,2.477,0,0,1-2.023.889,2.337,2.337,0,0,1-1.815-.684,2.918,2.918,0,0,1-.639-2V-7.4h1.976v4.784q0,1.157,1.053,1.157A1.426,1.426,0,0,0,21-2.154V-7.4h1.982V0H21.12Zm5.77-8.463V-7.4H28.1v1.449H26.834v3.691a.881.881,0,0,0,.157.588.79.79,0,0,0,.6.178,3.151,3.151,0,0,0,.581-.048v1.5a4.067,4.067,0,0,1-1.2.178,1.886,1.886,0,0,1-2.119-2.1V-5.947h-1.08V-7.4h1.08V-9.215ZM31.285,0H29.3V-7.4h1.982Zm-2.1-9.311a.973.973,0,0,1,.3-.731,1.117,1.117,0,0,1,.81-.287,1.12,1.12,0,0,1,.807.287.967.967,0,0,1,.3.731.97.97,0,0,1-.3.738,1.122,1.122,0,0,1-.8.287,1.122,1.122,0,0,1-.8-.287A.97.97,0,0,1,29.186-9.311ZM35,0H33.014V-10.5H35Zm3.712,0H36.726V-7.4h1.982Zm-2.1-9.311a.973.973,0,0,1,.3-.731,1.117,1.117,0,0,1,.81-.287,1.12,1.12,0,0,1,.807.287.967.967,0,0,1,.3.731.97.97,0,0,1-.3.738,1.122,1.122,0,0,1-.8.287,1.122,1.122,0,0,1-.8-.287A.97.97,0,0,1,36.61-9.311Zm6,7.718h3.616V0H40.083V-1.2l3.479-4.6H40.185V-7.4h5.927v1.164ZM51.745,0a2.194,2.194,0,0,1-.2-.663,2.39,2.39,0,0,1-1.866.8,2.626,2.626,0,0,1-1.8-.629,2.023,2.023,0,0,1-.714-1.586,2.09,2.09,0,0,1,.872-1.8,4.3,4.3,0,0,1,2.519-.636h.909v-.424a1.219,1.219,0,0,0-.263-.82,1.035,1.035,0,0,0-.831-.308,1.177,1.177,0,0,0-.783.239.813.813,0,0,0-.284.656H47.329a1.984,1.984,0,0,1,.4-1.189,2.621,2.621,0,0,1,1.121-.858,4.086,4.086,0,0,1,1.627-.311,3.228,3.228,0,0,1,2.17.687,2.4,2.4,0,0,1,.8,1.931v3.206a3.536,3.536,0,0,0,.294,1.593V0ZM50.111-1.374a1.7,1.7,0,0,0,.807-.195,1.28,1.28,0,0,0,.547-.523V-3.363h-.738q-1.483,0-1.579,1.025l-.007.116a.791.791,0,0,0,.26.608A1.009,1.009,0,0,0,50.111-1.374ZM61.629-3.63a4.479,4.479,0,0,1-.759,2.772,2.513,2.513,0,0,1-2.119.995,2.309,2.309,0,0,1-1.921-.923L56.742,0H54.964V-10.5H56.94v3.767a2.25,2.25,0,0,1,1.8-.8,2.534,2.534,0,0,1,2.123.995,4.485,4.485,0,0,1,.769,2.8Zm-1.976-.144A2.942,2.942,0,0,0,59.3-5.411a1.2,1.2,0,0,0-1.06-.516,1.3,1.3,0,0,0-1.3.772v2.919a1.321,1.321,0,0,0,1.313.779A1.22,1.22,0,0,0,59.51-2.4,4.866,4.866,0,0,0,59.654-3.773ZM64.931,0H62.949V-10.5h1.982Zm5.031.137a3.631,3.631,0,0,1-2.649-1,3.548,3.548,0,0,1-1.022-2.659v-.191A4.468,4.468,0,0,1,66.722-5.7a3.161,3.161,0,0,1,1.22-1.354,3.425,3.425,0,0,1,1.8-.475,3.07,3.07,0,0,1,2.389.957A3.889,3.889,0,0,1,73-3.862v.807h-4.71a1.835,1.835,0,0,0,.578,1.162,1.746,1.746,0,0,0,1.22.438,2.132,2.132,0,0,0,1.784-.827L72.847-1.2a2.966,2.966,0,0,1-1.2.981A3.947,3.947,0,0,1,69.962.137ZM69.737-5.94a1.234,1.234,0,0,0-.954.4,2.062,2.062,0,0,0-.468,1.14h2.748V-4.56a1.471,1.471,0,0,0-.355-1.02A1.274,1.274,0,0,0,69.737-5.94Z" transform="translate(-1573.443 -7085.645)" fill="#12263f"/>
    <path id="Trazado_778156" data-name="Trazado 778156" d="M-31.989-3.315A3.522,3.522,0,0,1-33.175-.786a4.165,4.165,0,0,1-2.82.923,3.745,3.745,0,0,1-3.011-1.289,5.284,5.284,0,0,1-1.1-3.538V-5.3A5.966,5.966,0,0,1-39.6-7.827a3.791,3.791,0,0,1,1.446-1.678,4.05,4.05,0,0,1,2.184-.584,4.058,4.058,0,0,1,2.775.923,3.785,3.785,0,0,1,1.217,2.591h-2.051a2.079,2.079,0,0,0-.537-1.4,1.987,1.987,0,0,0-1.4-.434,1.742,1.742,0,0,0-1.535.735,4.118,4.118,0,0,0-.523,2.28v.752a4.408,4.408,0,0,0,.489,2.358,1.71,1.71,0,0,0,1.542.745,2.025,2.025,0,0,0,1.418-.434,1.961,1.961,0,0,0,.537-1.343ZM-28.687,0h-1.982V-10.5h1.982Zm5.913,0a2.194,2.194,0,0,1-.2-.663,2.39,2.39,0,0,1-1.866.8,2.626,2.626,0,0,1-1.8-.629,2.023,2.023,0,0,1-.714-1.586,2.09,2.09,0,0,1,.872-1.8,4.3,4.3,0,0,1,2.519-.636h.909v-.424a1.219,1.219,0,0,0-.263-.82,1.035,1.035,0,0,0-.831-.308,1.177,1.177,0,0,0-.783.239.813.813,0,0,0-.284.656H-27.19a1.984,1.984,0,0,1,.4-1.189,2.621,2.621,0,0,1,1.121-.858,4.086,4.086,0,0,1,1.627-.311,3.228,3.228,0,0,1,2.17.687,2.4,2.4,0,0,1,.8,1.931v3.206a3.536,3.536,0,0,0,.294,1.593V0Zm-1.634-1.374a1.7,1.7,0,0,0,.807-.195,1.28,1.28,0,0,0,.547-.523V-3.363h-.738q-1.483,0-1.579,1.025l-.007.116a.791.791,0,0,0,.26.608A1.009,1.009,0,0,0-24.408-1.374Zm8.859-.67a.637.637,0,0,0-.359-.571,4.077,4.077,0,0,0-1.152-.373Q-19.7-3.541-19.7-5.229a2.032,2.032,0,0,1,.817-1.644,3.3,3.3,0,0,1,2.136-.66,3.547,3.547,0,0,1,2.252.663,2.09,2.09,0,0,1,.844,1.723h-1.976a.956.956,0,0,0-.273-.7,1.157,1.157,0,0,0-.854-.277,1.182,1.182,0,0,0-.772.226.712.712,0,0,0-.273.574.609.609,0,0,0,.311.53,3.2,3.2,0,0,0,1.049.349,8.571,8.571,0,0,1,1.244.332,2.044,2.044,0,0,1,1.565,1.989A1.929,1.929,0,0,1-14.5-.489a3.745,3.745,0,0,1-2.242.625,3.912,3.912,0,0,1-1.651-.332A2.77,2.77,0,0,1-19.52-1.1a2.113,2.113,0,0,1-.41-1.248h1.873a1.031,1.031,0,0,0,.39.807,1.546,1.546,0,0,0,.971.28,1.43,1.43,0,0,0,.858-.215A.67.67,0,0,0-15.548-2.044ZM-10.271,0h-1.982V-7.4h1.982Zm-2.1-9.311a.973.973,0,0,1,.3-.731,1.117,1.117,0,0,1,.81-.287,1.12,1.12,0,0,1,.807.287.967.967,0,0,1,.3.731.97.97,0,0,1-.3.738,1.122,1.122,0,0,1-.8.287,1.122,1.122,0,0,1-.8-.287A.97.97,0,0,1-12.37-9.311ZM-8.166,0V-5.947h-1.1V-7.4h1.1v-.342a2.774,2.774,0,0,1,.858-2.15,3.452,3.452,0,0,1,2.382-.755,7.9,7.9,0,0,1,2.242.4L-2.97-8.606a8.748,8.748,0,0,0-1.039-.256A5.105,5.105,0,0,0-4.8-8.921q-1.381,0-1.381,1.224v.3h1.456v1.449H-6.183V0ZM-1.76,0H-3.743V-7.4H-1.76ZM2.95-1.456a1.3,1.3,0,0,0,.889-.3,1.054,1.054,0,0,0,.355-.8H6.046a2.534,2.534,0,0,1-.41,1.377,2.706,2.706,0,0,1-1.1.971A3.455,3.455,0,0,1,2.984.137,3.211,3.211,0,0,1,.482-.872,3.99,3.99,0,0,1-.434-3.657v-.13A3.944,3.944,0,0,1,.475-6.515a3.174,3.174,0,0,1,2.5-1.019,3.111,3.111,0,0,1,2.225.79,2.8,2.8,0,0,1,.851,2.1H4.194a1.358,1.358,0,0,0-.355-.938,1.185,1.185,0,0,0-.9-.361,1.19,1.19,0,0,0-1.042.5A2.916,2.916,0,0,0,1.542-3.8V-3.6A2.953,2.953,0,0,0,1.89-1.956,1.2,1.2,0,0,0,2.95-1.456ZM11.46,0a2.194,2.194,0,0,1-.2-.663A2.39,2.39,0,0,1,9.4.137a2.626,2.626,0,0,1-1.8-.629A2.023,2.023,0,0,1,6.88-2.078a2.09,2.09,0,0,1,.872-1.8,4.3,4.3,0,0,1,2.519-.636h.909v-.424a1.219,1.219,0,0,0-.263-.82,1.035,1.035,0,0,0-.831-.308,1.177,1.177,0,0,0-.783.239.813.813,0,0,0-.284.656H7.044a1.984,1.984,0,0,1,.4-1.189,2.621,2.621,0,0,1,1.121-.858,4.086,4.086,0,0,1,1.627-.311,3.228,3.228,0,0,1,2.17.687,2.4,2.4,0,0,1,.8,1.931v3.206a3.536,3.536,0,0,0,.294,1.593V0ZM9.827-1.374a1.7,1.7,0,0,0,.807-.195,1.28,1.28,0,0,0,.547-.523V-3.363h-.738q-1.483,0-1.579,1.025l-.007.116a.791.791,0,0,0,.26.608A1.009,1.009,0,0,0,9.827-1.374Zm7.93-.082a1.3,1.3,0,0,0,.889-.3,1.054,1.054,0,0,0,.355-.8h1.853a2.534,2.534,0,0,1-.41,1.377,2.706,2.706,0,0,1-1.1.971,3.455,3.455,0,0,1-1.548.345,3.211,3.211,0,0,1-2.5-1.008,3.99,3.99,0,0,1-.916-2.786v-.13a3.944,3.944,0,0,1,.909-2.728,3.174,3.174,0,0,1,2.5-1.019A3.111,3.111,0,0,1,20-6.744a2.8,2.8,0,0,1,.851,2.1H19a1.358,1.358,0,0,0-.355-.938,1.185,1.185,0,0,0-.9-.361,1.19,1.19,0,0,0-1.042.5A2.916,2.916,0,0,0,16.348-3.8V-3.6A2.953,2.953,0,0,0,16.7-1.956,1.2,1.2,0,0,0,17.756-1.456ZM24.066,0H22.083V-7.4h1.982Zm-2.1-9.311a.973.973,0,0,1,.3-.731,1.117,1.117,0,0,1,.81-.287,1.12,1.12,0,0,1,.807.287.967.967,0,0,1,.3.731.97.97,0,0,1-.3.738,1.122,1.122,0,0,1-.8.287,1.122,1.122,0,0,1-.8-.287A.97.97,0,0,1,21.967-9.311Zm3.418,5.544a4.387,4.387,0,0,1,.424-1.962,3.1,3.1,0,0,1,1.22-1.333,3.56,3.56,0,0,1,1.849-.472,3.368,3.368,0,0,1,2.444.916,3.676,3.676,0,0,1,1.056,2.488l.014.506a3.866,3.866,0,0,1-.95,2.731A3.3,3.3,0,0,1,28.892.137,3.319,3.319,0,0,1,26.339-.889a3.934,3.934,0,0,1-.954-2.789Zm1.976.14a2.765,2.765,0,0,0,.4,1.612,1.308,1.308,0,0,0,1.135.558,1.311,1.311,0,0,0,1.121-.551,3.025,3.025,0,0,0,.4-1.763,2.737,2.737,0,0,0-.4-1.6,1.311,1.311,0,0,0-1.135-.568,1.29,1.29,0,0,0-1.121.565A3.076,3.076,0,0,0,27.361-3.626ZM29.268-10.5h2.153L29.528-8.381H27.921Zm6.159,3.1.062.854a2.582,2.582,0,0,1,2.126-.991,2.146,2.146,0,0,1,1.75.69,3.221,3.221,0,0,1,.588,2.064V0H37.977V-4.73a1.282,1.282,0,0,0-.273-.913,1.224,1.224,0,0,0-.909-.284,1.359,1.359,0,0,0-1.251.711V0H33.568V-7.4Z" transform="translate(-1573.443 -6965.645)" fill="#12263f"/>
    <path id="Trazado_778157" data-name="Trazado 778157" d="M-24.045-3.644h-1.634V0H-27.73V-9.953h3.7a4.181,4.181,0,0,1,2.721.786,2.713,2.713,0,0,1,.957,2.222,3.062,3.062,0,0,1-.441,1.7,3.007,3.007,0,0,1-1.336,1.083L-19.978-.1V0h-2.2ZM-25.679-5.3h1.654a1.694,1.694,0,0,0,1.2-.393A1.4,1.4,0,0,0-22.4-6.781a1.5,1.5,0,0,0-.4-1.107,1.662,1.662,0,0,0-1.227-.4h-1.647ZM-15.521.137a3.631,3.631,0,0,1-2.649-1,3.548,3.548,0,0,1-1.022-2.659v-.191A4.468,4.468,0,0,1-18.761-5.7a3.161,3.161,0,0,1,1.22-1.354,3.425,3.425,0,0,1,1.8-.475,3.07,3.07,0,0,1,2.389.957,3.889,3.889,0,0,1,.872,2.714v.807h-4.71a1.835,1.835,0,0,0,.578,1.162,1.746,1.746,0,0,0,1.22.438,2.132,2.132,0,0,0,1.784-.827l.971,1.087a2.966,2.966,0,0,1-1.2.981A3.947,3.947,0,0,1-15.521.137Zm-.226-6.077a1.234,1.234,0,0,0-.954.4,2.062,2.062,0,0,0-.468,1.14h2.748V-4.56a1.471,1.471,0,0,0-.355-1.02A1.274,1.274,0,0,0-15.747-5.94Zm7.465,4.484a1.3,1.3,0,0,0,.889-.3,1.054,1.054,0,0,0,.355-.8h1.853A2.534,2.534,0,0,1-5.6-1.179a2.706,2.706,0,0,1-1.1.971A3.455,3.455,0,0,1-8.248.137a3.211,3.211,0,0,1-2.5-1.008,3.99,3.99,0,0,1-.916-2.786v-.13a3.944,3.944,0,0,1,.909-2.728,3.174,3.174,0,0,1,2.5-1.019,3.111,3.111,0,0,1,2.225.79,2.8,2.8,0,0,1,.851,2.1H-7.038a1.358,1.358,0,0,0-.355-.938,1.185,1.185,0,0,0-.9-.361,1.19,1.19,0,0,0-1.042.5A2.916,2.916,0,0,0-9.69-3.8V-3.6a2.953,2.953,0,0,0,.349,1.643A1.2,1.2,0,0,0-8.282-1.456ZM-1.972,0H-3.955V-7.4h1.982Zm-2.1-9.311a.973.973,0,0,1,.3-.731,1.117,1.117,0,0,1,.81-.287,1.12,1.12,0,0,1,.807.287.967.967,0,0,1,.3.731.97.97,0,0,1-.3.738,1.122,1.122,0,0,1-.8.287,1.122,1.122,0,0,1-.8-.287A.97.97,0,0,1-4.071-9.311Zm6.8,7.854a1.3,1.3,0,0,0,.889-.3,1.054,1.054,0,0,0,.355-.8H5.828a2.534,2.534,0,0,1-.41,1.377,2.706,2.706,0,0,1-1.1.971A3.455,3.455,0,0,1,2.765.137,3.211,3.211,0,0,1,.263-.872,3.99,3.99,0,0,1-.653-3.657v-.13A3.944,3.944,0,0,1,.256-6.515a3.174,3.174,0,0,1,2.5-1.019,3.111,3.111,0,0,1,2.225.79,2.8,2.8,0,0,1,.851,2.1H3.975A1.358,1.358,0,0,0,3.62-5.58a1.185,1.185,0,0,0-.9-.361,1.19,1.19,0,0,0-1.042.5A2.916,2.916,0,0,0,1.323-3.8V-3.6a2.953,2.953,0,0,0,.349,1.643A1.2,1.2,0,0,0,2.731-1.456ZM9.041,0H7.058V-10.5H9.041Zm5.913,0a2.194,2.194,0,0,1-.2-.663,2.39,2.39,0,0,1-1.866.8,2.626,2.626,0,0,1-1.8-.629,2.023,2.023,0,0,1-.714-1.586,2.09,2.09,0,0,1,.872-1.8,4.3,4.3,0,0,1,2.519-.636h.909v-.424a1.219,1.219,0,0,0-.263-.82,1.035,1.035,0,0,0-.831-.308,1.177,1.177,0,0,0-.783.239.813.813,0,0,0-.284.656H10.538a1.984,1.984,0,0,1,.4-1.189,2.621,2.621,0,0,1,1.121-.858,4.086,4.086,0,0,1,1.627-.311,3.228,3.228,0,0,1,2.17.687,2.4,2.4,0,0,1,.8,1.931v3.206A3.536,3.536,0,0,0,16.95-.116V0ZM13.32-1.374a1.7,1.7,0,0,0,.807-.195,1.28,1.28,0,0,0,.547-.523V-3.363h-.738q-1.483,0-1.579,1.025l-.007.116a.791.791,0,0,0,.26.608A1.009,1.009,0,0,0,13.32-1.374ZM20.265-7.4V.4a2.646,2.646,0,0,1-.649,1.9,2.468,2.468,0,0,1-1.873.68,4.017,4.017,0,0,1-.978-.116V1.306a3.708,3.708,0,0,0,.622.062q.9,0,.9-.95V-7.4Zm-2.14-1.914a.973.973,0,0,1,.3-.731,1.117,1.117,0,0,1,.81-.287,1.117,1.117,0,0,1,.81.287.973.973,0,0,1,.3.731.97.97,0,0,1-.3.738,1.122,1.122,0,0,1-.8.287,1.122,1.122,0,0,1-.8-.287A.97.97,0,0,1,18.125-9.311ZM25.214.137a3.631,3.631,0,0,1-2.649-1,3.548,3.548,0,0,1-1.022-2.659v-.191A4.468,4.468,0,0,1,21.974-5.7a3.161,3.161,0,0,1,1.22-1.354A3.425,3.425,0,0,1,25-7.533a3.07,3.07,0,0,1,2.389.957,3.889,3.889,0,0,1,.872,2.714v.807h-4.71a1.835,1.835,0,0,0,.578,1.162,1.746,1.746,0,0,0,1.22.438,2.132,2.132,0,0,0,1.784-.827L28.1-1.2a2.966,2.966,0,0,1-1.2.981A3.947,3.947,0,0,1,25.214.137ZM24.989-5.94a1.234,1.234,0,0,0-.954.4,2.062,2.062,0,0,0-.468,1.14h2.748V-4.56a1.471,1.471,0,0,0-.355-1.02A1.274,1.274,0,0,0,24.989-5.94Z" transform="translate(-1573.443 -6849.645)" fill="#12263f"/>
    <path id="Trazado_778158" data-name="Trazado 778158" d="M-34.528-2.468l2.256-7.485h2.283L-33.455,0h-2.14l-3.452-9.953h2.276ZM-25.211,0a2.194,2.194,0,0,1-.2-.663,2.39,2.39,0,0,1-1.866.8,2.626,2.626,0,0,1-1.8-.629,2.023,2.023,0,0,1-.714-1.586,2.09,2.09,0,0,1,.872-1.8A4.3,4.3,0,0,1-26.4-4.519h.909v-.424a1.219,1.219,0,0,0-.263-.82,1.035,1.035,0,0,0-.831-.308,1.177,1.177,0,0,0-.783.239.813.813,0,0,0-.284.656h-1.976a1.984,1.984,0,0,1,.4-1.189,2.621,2.621,0,0,1,1.121-.858,4.086,4.086,0,0,1,1.627-.311,3.228,3.228,0,0,1,2.17.687,2.4,2.4,0,0,1,.8,1.931v3.206a3.536,3.536,0,0,0,.294,1.593V0Zm-1.634-1.374a1.7,1.7,0,0,0,.807-.195,1.28,1.28,0,0,0,.547-.523V-3.363h-.738q-1.483,0-1.579,1.025l-.007.116a.791.791,0,0,0,.26.608A1.009,1.009,0,0,0-26.845-1.374ZM-19.906,0h-1.982V-10.5h1.982Zm1.319-3.767a4.387,4.387,0,0,1,.424-1.962,3.1,3.1,0,0,1,1.22-1.333,3.56,3.56,0,0,1,1.849-.472,3.368,3.368,0,0,1,2.444.916,3.676,3.676,0,0,1,1.056,2.488l.014.506a3.866,3.866,0,0,1-.95,2.731A3.3,3.3,0,0,1-15.08.137,3.319,3.319,0,0,1-17.633-.889a3.934,3.934,0,0,1-.954-2.789Zm1.976.14a2.765,2.765,0,0,0,.4,1.612,1.308,1.308,0,0,0,1.135.558,1.311,1.311,0,0,0,1.121-.551,3.025,3.025,0,0,0,.4-1.763,2.737,2.737,0,0,0-.4-1.6,1.311,1.311,0,0,0-1.135-.568,1.29,1.29,0,0,0-1.121.565A3.076,3.076,0,0,0-16.611-3.626Zm10.4-1.918A5.367,5.367,0,0,0-6.918-5.6a1.447,1.447,0,0,0-1.47.759V0h-1.976V-7.4H-8.5l.055.882A1.831,1.831,0,0,1-6.795-7.533a2.07,2.07,0,0,1,.615.089ZM-3.172,0H-5.154V-7.4h1.982Zm-2.1-9.311a.973.973,0,0,1,.3-.731,1.117,1.117,0,0,1,.81-.287,1.12,1.12,0,0,1,.807.287.967.967,0,0,1,.3.731.97.97,0,0,1-.3.738,1.122,1.122,0,0,1-.8.287,1.122,1.122,0,0,1-.8-.287A.97.97,0,0,1-5.271-9.311Zm6,7.718H4.341V0H-1.8V-1.2L1.682-5.8H-1.7V-7.4H4.231v1.164ZM9.864,0a2.194,2.194,0,0,1-.2-.663A2.39,2.39,0,0,1,7.8.137,2.626,2.626,0,0,1,6-.492a2.023,2.023,0,0,1-.714-1.586,2.09,2.09,0,0,1,.872-1.8,4.3,4.3,0,0,1,2.519-.636h.909v-.424a1.219,1.219,0,0,0-.263-.82A1.035,1.035,0,0,0,8.49-6.07a1.177,1.177,0,0,0-.783.239.813.813,0,0,0-.284.656H5.448a1.984,1.984,0,0,1,.4-1.189,2.621,2.621,0,0,1,1.121-.858,4.086,4.086,0,0,1,1.627-.311,3.228,3.228,0,0,1,2.17.687,2.4,2.4,0,0,1,.8,1.931v3.206A3.536,3.536,0,0,0,11.86-.116V0ZM8.23-1.374a1.7,1.7,0,0,0,.807-.195,1.28,1.28,0,0,0,.547-.523V-3.363H8.846q-1.483,0-1.579,1.025l-.007.116a.791.791,0,0,0,.26.608A1.009,1.009,0,0,0,8.23-1.374Zm7.93-.082a1.3,1.3,0,0,0,.889-.3,1.054,1.054,0,0,0,.355-.8h1.853a2.534,2.534,0,0,1-.41,1.377,2.706,2.706,0,0,1-1.1.971,3.455,3.455,0,0,1-1.548.345,3.211,3.211,0,0,1-2.5-1.008,3.99,3.99,0,0,1-.916-2.786v-.13a3.944,3.944,0,0,1,.909-2.728,3.174,3.174,0,0,1,2.5-1.019,3.111,3.111,0,0,1,2.225.79,2.8,2.8,0,0,1,.851,2.1H17.4a1.358,1.358,0,0,0-.355-.938,1.185,1.185,0,0,0-.9-.361,1.19,1.19,0,0,0-1.042.5A2.916,2.916,0,0,0,14.752-3.8V-3.6A2.953,2.953,0,0,0,15.1-1.956,1.2,1.2,0,0,0,16.16-1.456ZM22.47,0H20.487V-7.4H22.47Zm-2.1-9.311a.973.973,0,0,1,.3-.731,1.117,1.117,0,0,1,.81-.287,1.12,1.12,0,0,1,.807.287.967.967,0,0,1,.3.731.97.97,0,0,1-.3.738,1.122,1.122,0,0,1-.8.287,1.122,1.122,0,0,1-.8-.287A.97.97,0,0,1,20.371-9.311Zm3.418,5.544a4.387,4.387,0,0,1,.424-1.962,3.1,3.1,0,0,1,1.22-1.333,3.56,3.56,0,0,1,1.849-.472,3.368,3.368,0,0,1,2.444.916,3.676,3.676,0,0,1,1.056,2.488l.014.506a3.866,3.866,0,0,1-.95,2.731A3.3,3.3,0,0,1,27.3.137,3.319,3.319,0,0,1,24.743-.889a3.934,3.934,0,0,1-.954-2.789Zm1.976.14a2.765,2.765,0,0,0,.4,1.612,1.308,1.308,0,0,0,1.135.558,1.311,1.311,0,0,0,1.121-.551,3.025,3.025,0,0,0,.4-1.763,2.737,2.737,0,0,0-.4-1.6,1.311,1.311,0,0,0-1.135-.568,1.29,1.29,0,0,0-1.121.565A3.076,3.076,0,0,0,25.765-3.626ZM27.672-10.5h2.153L27.932-8.381H26.325Zm6.159,3.1.062.854a2.582,2.582,0,0,1,2.126-.991,2.146,2.146,0,0,1,1.75.69,3.221,3.221,0,0,1,.588,2.064V0H36.381V-4.73a1.282,1.282,0,0,0-.273-.913,1.224,1.224,0,0,0-.909-.284,1.359,1.359,0,0,0-1.251.711V0H31.972V-7.4Z" transform="translate(-1573.443 -6729.645)" fill="#12263f"/>
    <g id="Grupo_1065312" data-name="Grupo 1065312" transform="translate(-380.473 44.369)">
      <path id="Trazado_104927" data-name="Trazado 104927" d="M543.773,469.772V394.426c-163.825,12.458-147.34,172.352-147.34,172.352V916.47H351.3l80.991,87.641,80.994-87.641H468.146V566.778C468.144,471.569,543.773,469.772,543.773,469.772Z" transform="translate(-1852.3 -7667.111)" fill="#b0c0d2"/>
      <g id="Grupo_55689" data-name="Grupo 55689" transform="translate(-1460.645 -7110.344)">
        <circle id="Elipse_4040" data-name="Elipse 4040" cx="40.055" cy="40.055" r="40.055" transform="translate(0 0)" fill="#baefe4"/>
        <g id="Grupo_55688" data-name="Grupo 55688" transform="translate(17.84 20.419)">
          <path id="Trazado_104929" data-name="Trazado 104929" d="M393.589,454.055H377.221a4.278,4.278,0,0,0-4.28,4.28v22.224a5.367,5.367,0,0,1-4.317.465l.037-.114v-26a4.278,4.278,0,0,1,4.28-4.28h17.222a3.424,3.424,0,0,1,3.425,3.421Z" transform="translate(-364.175 -442.753)" fill="#f6e2c6"/>
          <path id="Trazado_104930" data-name="Trazado 104930" d="M371.746,475.621a5.342,5.342,0,0,0,2.518-3.388l4.667-16.47a4.275,4.275,0,0,1,4.162-3.292h19.291a4.275,4.275,0,0,1,4.2,5.106l-3.66,15.315a4.276,4.276,0,0,1-4.2,3.45H369.07a5.334,5.334,0,0,0,2.676-.721Z" transform="translate(-362.98 -437.815)" fill="#f16c7a"/>
          <path id="Trazado_104931" data-name="Trazado 104931" d="M402.7,457.4v5.205h-2.142a3.35,3.35,0,0,0-3.351-3.355h-.925a3.424,3.424,0,0,0-3.424-3.421H375.639a4.278,4.278,0,0,0-4.28,4.28v26l-.037.114a5.35,5.35,0,0,1-3.7-5.087V453.241a4.544,4.544,0,0,1,4.542-4.542h10.59a4.274,4.274,0,0,1,2.808,1.05l2.367,2.06a4.275,4.275,0,0,0,2.808,1.05h7.425A4.544,4.544,0,0,1,402.7,457.4Z" transform="translate(-366.873 -447.951)" fill="#fcb268"/>
          <path id="Trazado_104932" data-name="Trazado 104932" d="M394.719,454.913H381.143a4.275,4.275,0,0,0-4.162,3.292l-4.667,16.47a5.342,5.342,0,0,1-2.518,3.388V455.844a4.278,4.278,0,0,1,4.28-4.28h17.293A3.35,3.35,0,0,1,394.719,454.913Z" transform="translate(-361.03 -440.26)" fill="#8bbed5"/>
          <path id="Trazado_104933" data-name="Trazado 104933" d="M406.825,462.4H404v-4.457a5.3,5.3,0,0,0-5.29-5.29h-7.429a3.536,3.536,0,0,1-2.319-.87l-2.362-2.057a5.041,5.041,0,0,0-3.3-1.235h-10.59a5.3,5.3,0,0,0-5.29,5.29V481.68a6.081,6.081,0,0,0,5.769,6.082v.007h29.977a5.038,5.038,0,0,0,4.929-4.036l3.657-15.3v-.03a5.026,5.026,0,0,0-4.932-6ZM368.919,481.68V453.786a3.8,3.8,0,0,1,3.794-3.793H383.3a3.544,3.544,0,0,1,2.319.866l2.367,2.06a5.024,5.024,0,0,0,3.3,1.234h7.425a3.8,3.8,0,0,1,3.793,3.794V462.4h-.711a4.111,4.111,0,0,0-4.036-3.355h-.246a4.176,4.176,0,0,0-4.1-3.421H376.184a5.032,5.032,0,0,0-5.028,5.028v24.967a4.589,4.589,0,0,1-2.241-3.945Zm28.841-21.13a2.6,2.6,0,0,1,2.492,1.854H387.534a5.01,5.01,0,0,0-4.888,3.853l-4.657,16.453-.007.033a4.619,4.619,0,0,1-1.043,1.994v-20.66a3.534,3.534,0,0,1,3.532-3.528Zm-25.1,25.641V460.657a3.537,3.537,0,0,1,3.532-3.532h17.222a2.674,2.674,0,0,1,2.565,1.924H380.464a5.032,5.032,0,0,0-5.028,5.028v21.767a4.553,4.553,0,0,1-2.783.348ZM410.29,468.1l-3.653,15.3-.007.03a3.536,3.536,0,0,1-3.461,2.846H377.505a6.117,6.117,0,0,0,1.924-3.17l4.657-16.453.007-.03a3.518,3.518,0,0,1,3.436-2.716h19.3a3.527,3.527,0,0,1,3.466,4.2Z" transform="translate(-367.418 -448.496)" fill="#3a312a"/>
        </g>
      </g>
      <g id="Grupo_55695" data-name="Grupo 55695" transform="translate(-1460.645 -6874.132)">
        <circle id="Elipse_4041" data-name="Elipse 4041" cx="40.055" cy="40.055" r="40.055" transform="translate(0 0)" fill="#baefe4"/>
        <g id="Grupo_55694" data-name="Grupo 55694" transform="translate(11.47 11.27)">
          <path id="Trazado_104934" data-name="Trazado 104934" d="M368.807,516.417h-1.685v1.742h-1.744v1.688h1.744v1.744h1.685v-1.744h1.744v-1.688h-1.744Z" transform="translate(-365.379 -481.724)" fill="#3a312a"/>
          <g id="Grupo_55692" data-name="Grupo 55692" transform="translate(4.905 1.249)">
            <g id="Grupo_55691" data-name="Grupo 55691" transform="translate(0 10.576)">
              <path id="Trazado_104935" data-name="Trazado 104935" d="M409.421,515.664a4.585,4.585,0,0,0-3.415-3.694l-6.255-1.563H378.365l-6.252,1.563a4.575,4.575,0,0,0-3.41,3.694l-1.8,10.786,8.4,3.056v25.214h27.5V529.505l8.4-3.056Z" transform="translate(-366.187 -509.693)" fill="#fcb268"/>
              <g id="Grupo_55690" data-name="Grupo 55690" transform="translate(0.713 0.714)">
                <path id="Trazado_104936" data-name="Trazado 104936" d="M370.013,510.407a10.7,10.7,0,1,0,21.391,0Z" transform="translate(-358.548 -510.407)" fill="#f6e2c6"/>
                <path id="Trazado_104937" data-name="Trazado 104937" d="M373.742,515.113l-3.907-3.912a4.574,4.574,0,0,0-1.132,2.33l-1.8,10.786,8.4,3.056v-8.478a5.348,5.348,0,0,0-1.562-3.782Z" transform="translate(-366.9 -508.275)" fill="#f6e2c6"/>
              </g>
              <path id="Trazado_104938" data-name="Trazado 104938" d="M367.38,513.985l-.476,2.854,8.4,3.057v-3.057Z" transform="translate(-366.187 -500.082)" fill="#eb6e7a"/>
              <path id="Trazado_104939" data-name="Trazado 104939" d="M378.209,515.113l3.91-3.912a4.6,4.6,0,0,1,1.132,2.33l1.8,10.786-8.4,3.056v-8.478A5.345,5.345,0,0,1,378.209,515.113Z" transform="translate(-340.018 -507.561)" fill="#f6e2c6"/>
              <path id="Trazado_104940" data-name="Trazado 104940" d="M384.575,513.985l.476,2.854-8.4,3.057v-3.057Z" transform="translate(-340.019 -500.082)" fill="#eb6e7a"/>
              <rect id="Rect치ngulo_5351" data-name="Rect치ngulo 5351" width="27.505" height="3.056" transform="translate(9.121 41.97)" fill="#eb6e7a"/>
              <path id="Trazado_104941" data-name="Trazado 104941" d="M412.447,526.86l-1.8-10.786a5.3,5.3,0,0,0-3.941-4.273l-4.976-1.242a11.306,11.306,0,0,0-2.768-.343H380.2a11.326,11.326,0,0,0-2.768.342l-4.973,1.242a5.3,5.3,0,0,0-3.945,4.273l-1.8,10.786a.724.724,0,0,0,.465.793l7.933,2.883v24.712a.716.716,0,0,0,.715.715h27.507a.716.716,0,0,0,.715-.715V530.53l7.933-2.883a.718.718,0,0,0,.462-.787Zm-15.976-15.212a6.925,6.925,0,0,1-13.775,0Zm-15.212,0a8.356,8.356,0,0,0,16.651,0h1.054c.191,0,.383.007.575.019a9.982,9.982,0,0,1-19.909,0c.191-.011.384-.019.575-.019Zm-8.449,1.541,4.973-1.242c.144-.037.284-.066.427-.1a11.413,11.413,0,0,0,22.751,0c.14.03.284.059.424.1l4.972,1.242a3.869,3.869,0,0,1,2.879,3.119l1.224,7.347-6.406,2.308v-4.332a.717.717,0,0,0-1.434,0v29.848H376.544V521.625a.715.715,0,0,0-1.43,0v4.332l-6.411-2.308,1.224-7.347a3.869,3.869,0,0,1,2.878-3.115Zm-4.578,13.319.236-1.42,6.65,2.392v1.53Zm8.316,28.022V552.9h26.077v1.626Zm27.508-25.522v-1.527l6.647-2.393.236,1.42Z" transform="translate(-366.709 -510.217)" fill="#3a312a"/>
            </g>
            <path id="Trazado_104942" data-name="Trazado 104942" d="M376.326,516.724a1.333,1.333,0,0,1,1.581-.092c.724.432,1.449.856,2.173,1.283h3.115q-2.173-1.288-4.353-2.577c-1.2-.708-1.213-1.345-.044-2.043a3.19,3.19,0,1,0-4.638-3.719c-.284.906-.114,1.622.457,1.725.892.163.955-.531,1.076-1.138a.93.93,0,0,1,.078-.262,1.5,1.5,0,0,1,1.637-.911,1.464,1.464,0,0,1,1.34,1.411A1.33,1.33,0,0,1,377.686,512c-1.272.132-1.39.873-1.279,1.84a1.345,1.345,0,0,1-.771,1.463c-1.419.862-2.827,1.744-4.243,2.617h3C375.04,517.517,375.684,517.122,376.326,516.724Z" transform="translate(-354.126 -507.344)" fill="#3a312a"/>
          </g>
          <g id="Grupo_55693" data-name="Grupo 55693" transform="translate(44.614 0)">
            <path id="Trazado_105625-2" data-name="Trazado 105625" d="M384.38,511.564c-1.95.088-2.437,2.647-2.437,2.647-.04-1.824-2.51-2.676-2.51-2.676,1.85-.111,2.492-2.5,2.492-2.5A2.925,2.925,0,0,0,384.38,511.564Z" transform="translate(-372.241 -501.542)" fill="#fcb268"/>
            <path id="Trazado_105626-2" data-name="Trazado 105626" d="M382.2,514.9a.4.4,0,0,1-.368-.387c-.033-1.522-2.22-2.3-2.241-2.308a.4.4,0,0,1,.1-.778c1.541-.092,2.123-2.178,2.131-2.2a.4.4,0,0,1,.358-.295.4.4,0,0,1,.427.365,2.5,2.5,0,0,0,2.116,2.16.4.4,0,0,1-.04.793c-1.607.074-2.057,2.3-2.06,2.322a.4.4,0,0,1-.394.324Zm1.242-3.07a3.2,3.2,0,0,1-1.3-1.312,3.568,3.568,0,0,1-1.316,1.394,4.14,4.14,0,0,1,1.43,1.324,3.4,3.4,0,0,1,1.183-1.4Z" transform="translate(-372.53 -501.832)" fill="#3a312a"/>
            <path id="Trazado_105627-2" data-name="Trazado 105627" d="M381.119,507.813c.258,3.078,3.469,3.565,3.469,3.565-2.758.129-3.443,3.745-3.443,3.745-.059-2.58-3.549-3.782-3.549-3.782,2.614-.155,3.518-3.528,3.518-3.528Z" transform="translate(-377.192 -504.836)" fill="#fcb268"/>
            <path id="Trazado_105628-2" data-name="Trazado 105628" d="M381.433,515.81H381.4a.4.4,0,0,1-.365-.387c-.052-2.267-3.247-3.4-3.277-3.415a.4.4,0,0,1,.1-.778c2.293-.137,3.155-3.2,3.162-3.233a.393.393,0,0,1,.35-.292h0a.4.4,0,0,1,.431.361,3.692,3.692,0,0,0,3.129,3.208.4.4,0,0,1,.339.38.4.4,0,0,1-.38.414c-2.407.114-3.063,3.388-3.07,3.421a.4.4,0,0,1-.391.324Zm2.06-4.188a4.294,4.294,0,0,1-2.186-2.2,4.864,4.864,0,0,1-2.22,2.322,5.673,5.673,0,0,1,2.38,2.246,4.647,4.647,0,0,1,2.02-2.363Z" transform="translate(-377.483 -505.125)" fill="#3a312a"/>
            <path id="Trazado_105629-2" data-name="Trazado 105629" d="M384.381,511.564c-1.946.088-2.433,2.647-2.433,2.647-.04-1.824-2.51-2.676-2.51-2.676,1.85-.111,2.492-2.5,2.492-2.5a2.922,2.922,0,0,0,2.451,2.525Z" transform="translate(-372.228 -501.542)" fill="#fcb268"/>
            <path id="Trazado_105630-2" data-name="Trazado 105630" d="M382.206,514.9a.4.4,0,0,1-.365-.391c-.037-1.519-2.22-2.3-2.241-2.308a.4.4,0,0,1,.1-.774c1.541-.092,2.127-2.182,2.131-2.2a.4.4,0,0,1,.354-.295h0a.4.4,0,0,1,.431.365,2.5,2.5,0,0,0,2.116,2.16.4.4,0,0,1,.339.376.4.4,0,0,1-.38.414c-1.611.073-2.06,2.3-2.064,2.322a.4.4,0,0,1-.391.324Zm1.242-3.07a3.2,3.2,0,0,1-1.3-1.312,3.6,3.6,0,0,1-1.316,1.394,4.123,4.123,0,0,1,1.427,1.324,3.451,3.451,0,0,1,1.184-1.4Z" transform="translate(-372.519 -501.832)" fill="#3a312a"/>
            <path id="Trazado_105631-2" data-name="Trazado 105631" d="M384.381,509.636c-1.946.092-2.433,2.647-2.433,2.647-.04-1.821-2.51-2.673-2.51-2.673,1.85-.111,2.492-2.5,2.492-2.5a2.913,2.913,0,0,0,2.451,2.522Z" transform="translate(-372.228 -506.714)" fill="#fcb268"/>
            <path id="Trazado_105632-2" data-name="Trazado 105632" d="M382.206,512.979a.4.4,0,0,1-.365-.391c-.037-1.522-2.22-2.3-2.241-2.308a.392.392,0,0,1-.269-.354.4.4,0,0,1,.373-.424c1.541-.092,2.126-2.178,2.131-2.2a.4.4,0,0,1,.785.07,2.505,2.505,0,0,0,2.116,2.16.4.4,0,0,1-.04.793c-1.611.074-2.06,2.3-2.064,2.322a.4.4,0,0,1-.391.328Zm1.242-3.074a3.192,3.192,0,0,1-1.3-1.309,3.561,3.561,0,0,1-1.316,1.39,4.2,4.2,0,0,1,1.427,1.323,3.451,3.451,0,0,1,1.184-1.4Z" transform="translate(-372.519 -507.005)" fill="#3a312a"/>
          </g>
        </g>
      </g>
      <g id="Grupo_55698" data-name="Grupo 55698" transform="translate(-1460.645 -6992.371)">
        <circle id="Elipse_4042" data-name="Elipse 4042" cx="40.055" cy="40.055" r="40.055" transform="translate(0 0)" fill="#baefe4"/>
        <g id="Grupo_55697" data-name="Grupo 55697" transform="translate(11.106 17.17)">
          <g id="Filled_outline" data-name="Filled outline" transform="translate(10.218 0)">
            <path id="Trazado_104943" data-name="Trazado 104943" d="M398.71,478.43H368.5v11.129h9.537v14.306h20.669V489.559h9.537V478.43Z" transform="translate(-364.539 -477.637)" fill="#fcb268"/>
            <path id="Trazado_104944" data-name="Trazado 104944" d="M368.5,478.43h3.181v11.129H368.5Z" transform="translate(-364.539 -477.637)" fill="#f16c7a"/>
            <path id="Trazado_104945" data-name="Trazado 104945" d="M381.6,489.559h-3.178V478.43H381.6Z" transform="translate(-337.894 -477.637)" fill="#f16c7a"/>
            <path id="Trazado_104946" data-name="Trazado 104946" d="M386.261,478.43a7.153,7.153,0,1,1-14.307,0h3.178a3.976,3.976,0,1,0,7.951,0Z" transform="translate(-355.271 -477.637)" fill="#f6e2c6"/>
            <path id="Trazado_104947" data-name="Trazado 104947" d="M403.476,486.934a4.868,4.868,0,0,0-1.3.188,8.732,8.732,0,0,0-15.2.568,4.752,4.752,0,0,0-5.319.121A7.151,7.151,0,0,0,368.5,491.7h39.741a4.77,4.77,0,0,0-4.77-4.77Z" transform="translate(-364.539 -465.474)" fill="#8bbed5"/>
            <path id="Trazado_104948" data-name="Trazado 104948" d="M394.667,485.33H369.232a1.59,1.59,0,1,0,0,3.181h25.435Z" transform="translate(-366.855 -459.102)" fill="#fcb268"/>
            <path id="Trazado_104949" data-name="Trazado 104949" d="M385.508,485.33h-7.947v3.177h7.947a1.59,1.59,0,0,0,0-3.181Z" transform="translate(-340.212 -459.102)" fill="#fcb268"/>
            <path id="Trazado_104950" data-name="Trazado 104950" d="M401.888,486.193v7.947a1.589,1.589,0,0,1-3.178,0v-3.18a1.59,1.59,0,0,0-3.181,0,1.589,1.589,0,1,1-3.178,0v-4.766H368.5l2.38,14.306a3.972,3.972,0,0,0,3.974,3.178h27.024a3.969,3.969,0,0,0,3.974-3.178l2.38-14.306Z" transform="translate(-364.539 -456.784)" fill="#f16c7a"/>
            <path id="Trazado_104951" data-name="Trazado 104951" d="M374.974,485.33v7.947a1.589,1.589,0,1,0,3.178,0,1.591,1.591,0,0,1,3.181,0v3.181a1.589,1.589,0,0,0,3.178,0V485.33Z" transform="translate(-347.161 -459.102)" fill="#f6e2c6"/>
            <path id="Trazado_104952" data-name="Trazado 104952" d="M412.73,503.65h-.859a5.563,5.563,0,0,0-5.5-4.769,5.449,5.449,0,0,0-.947.081A9.568,9.568,0,0,0,402.4,496.2v-5.269h8.744a.8.8,0,0,0,.8-.8V479.008a.8.8,0,0,0-.8-.793H371.4a.8.8,0,0,0-.8.793v11.129a.8.8,0,0,0,.8.8h8.744v5.732a7.909,7.909,0,0,0-9.367,6.116,8.615,8.615,0,0,0-.132.87h-.828a2.383,2.383,0,0,0,0,4.766h.914l2.277,13.654a4.767,4.767,0,0,0,4.76,3.829h27.024a4.774,4.774,0,0,0,4.76-3.845l2.277-13.643h.914a2.383,2.383,0,0,0,0-4.766ZM408.757,479.8h1.586v9.537h-1.588Zm-34.976,9.537h-1.588V479.8h1.588Zm20.551-9.537a3.162,3.162,0,0,1-6.13,0Zm-7.767,0a4.768,4.768,0,0,0,9.4,0h1.607a6.359,6.359,0,0,1-12.618,0Zm-11.2,9.537V479.8h7.988a7.948,7.948,0,0,0,15.818,0h7.989v9.537h-4.77v-2.38H400.8v8.5a9.508,9.508,0,0,0-11.247,3.907,5.6,5.6,0,0,0-4.8.129,7.93,7.93,0,0,0-3.034-2.322V486.96h-1.588v2.38Zm3.181,8.744a6.342,6.342,0,0,1,5.323,2.9.8.8,0,0,0,1.1.236L385,501.2a4.011,4.011,0,0,1,4.427-.1.8.8,0,0,0,1.1-.24l.037-.063a7.936,7.936,0,0,1,13.816-.517.8.8,0,0,0,.9.347,3.96,3.96,0,0,1,4.906,2.7,3.19,3.19,0,0,1,.081.324H375.478a2.909,2.909,0,0,1,3.079-2.38v-1.593a4.494,4.494,0,0,0-4.7,3.978h-1.611a6.372,6.372,0,0,1,6.312-5.566Zm21.458,11.921a2.386,2.386,0,0,0-2.38,2.38.795.795,0,1,1-1.588,0v-7.147h7.947v10.333a.795.795,0,0,1-1.588,0V512.39a2.38,2.38,0,0,0-2.384-2.385Zm-30.2-3.178a.795.795,0,1,1,0-1.588h24.639v1.588Zm38.163,14.959a3.181,3.181,0,0,1-3.192,2.529H377.759a3.187,3.187,0,0,1-3.192-2.518l-2.226-13.383h22.111v3.974a2.385,2.385,0,0,0,4.77,0,.795.795,0,0,1,1.588,0v3.181a2.385,2.385,0,0,0,4.77,0v-7.155H410.2Zm4.76-14.959h-7.146v-1.589h7.151a.795.795,0,1,1,0,1.589Z" transform="translate(-367.434 -478.215)" fill="#3a312a"/>
          </g>
          <g id="Grupo_55696" data-name="Grupo 55696" transform="translate(0 11.742)">
            <path id="Trazado_105625-3" data-name="Trazado 105625" d="M367.226,483.434s.642,2.38,2.484,2.5c0,0-2.466.852-2.51,2.676,0,0-.483-2.558-2.433-2.65a2.919,2.919,0,0,0,2.46-2.522Z" transform="translate(-364.354 -475.937)" fill="#fcb268"/>
            <path id="Trazado_105626-3" data-name="Trazado 105626" d="M367.5,489.293a.4.4,0,0,1-.394-.325c0-.022-.453-2.249-2.06-2.322a.4.4,0,0,1-.384-.414.4.4,0,0,1,.343-.376,2.508,2.508,0,0,0,2.116-2.161.4.4,0,0,1,.785-.07c0,.022.59,2.109,2.128,2.2a.4.4,0,0,1,.1.774c-.022.011-2.2.788-2.241,2.312a.4.4,0,0,1-.365.387Zm-1.206-3.067a3.4,3.4,0,0,1,1.184,1.4,4.139,4.139,0,0,1,1.43-1.324,3.57,3.57,0,0,1-1.316-1.394,3.2,3.2,0,0,1-1.3,1.312Z" transform="translate(-364.649 -476.227)" fill="#3a312a"/>
            <path id="Trazado_105627-3" data-name="Trazado 105627" d="M369.527,482.208s.911,3.372,3.525,3.528c0,0-3.49,1.2-3.549,3.778,0,0-.689-3.612-3.443-3.742,0,0,3.208-.486,3.469-3.565Z" transform="translate(-360.894 -479.232)" fill="#fcb268"/>
            <path id="Trazado_105628-3" data-name="Trazado 105628" d="M369.794,490.2a.4.4,0,0,1-.391-.325c-.007-.033-.667-3.311-3.07-3.421a.4.4,0,0,1-.384-.414.4.4,0,0,1,.343-.38,3.7,3.7,0,0,0,3.129-3.208.4.4,0,0,1,.432-.361h0a.393.393,0,0,1,.354.291c.007.03.866,3.1,3.159,3.233a.4.4,0,0,1,.376.424.407.407,0,0,1-.269.354c-.033.011-3.23,1.147-3.28,3.415a.4.4,0,0,1-.365.387Zm-2.06-4.188a4.665,4.665,0,0,1,2.02,2.362,5.673,5.673,0,0,1,2.38-2.245,4.873,4.873,0,0,1-2.223-2.322,4.3,4.3,0,0,1-2.182,2.2Z" transform="translate(-361.186 -479.52)" fill="#3a312a"/>
            <path id="Trazado_105629-3" data-name="Trazado 105629" d="M367.22,483.434s.642,2.38,2.492,2.5c0,0-2.47.852-2.51,2.676,0,0-.486-2.558-2.437-2.65a2.919,2.919,0,0,0,2.456-2.522Z" transform="translate(-364.367 -475.937)" fill="#fcb268"/>
            <path id="Trazado_105630-3" data-name="Trazado 105630" d="M367.5,489.293a.4.4,0,0,1-.394-.325c0-.022-.453-2.249-2.06-2.322a.4.4,0,0,1-.38-.414.394.394,0,0,1,.339-.376,2.509,2.509,0,0,0,2.116-2.161.4.4,0,0,1,.432-.365h0a.4.4,0,0,1,.35.295c.007.019.593,2.109,2.131,2.2a.4.4,0,0,1,.1.774c-.022.007-2.2.788-2.241,2.308a.4.4,0,0,1-.365.391Zm-1.206-3.067a3.4,3.4,0,0,1,1.183,1.4,4.139,4.139,0,0,1,1.43-1.324,3.57,3.57,0,0,1-1.316-1.394,3.2,3.2,0,0,1-1.3,1.312Z" transform="translate(-364.657 -476.227)" fill="#3a312a"/>
            <path id="Trazado_105631-3" data-name="Trazado 105631" d="M367.22,481.509s.642,2.38,2.492,2.5c0,0-2.47.852-2.51,2.673,0,0-.486-2.555-2.437-2.647a2.924,2.924,0,0,0,2.456-2.522Z" transform="translate(-364.367 -481.109)" fill="#fcb268"/>
            <path id="Trazado_105632-3" data-name="Trazado 105632" d="M367.5,487.37a.406.406,0,0,1-.394-.328c0-.019-.453-2.249-2.06-2.322a.4.4,0,0,1-.04-.793,2.508,2.508,0,0,0,2.116-2.16.4.4,0,0,1,.432-.365.393.393,0,0,1,.35.295c.007.022.593,2.109,2.131,2.2a.4.4,0,0,1,.376.424.4.4,0,0,1-.269.354c-.022.007-2.2.785-2.241,2.308a.4.4,0,0,1-.365.391Zm-1.206-3.07a3.4,3.4,0,0,1,1.183,1.4,4.205,4.205,0,0,1,1.43-1.324,3.561,3.561,0,0,1-1.316-1.39,3.215,3.215,0,0,1-1.3,1.309Z" transform="translate(-364.657 -481.401)" fill="#3a312a"/>
          </g>
        </g>
      </g>
      <g id="Grupo_55703" data-name="Grupo 55703" transform="translate(-1460.645 -7228.317)">
        <circle id="Elipse_4043" data-name="Elipse 4043" cx="40.055" cy="40.055" r="40.055" transform="translate(0 0)" fill="#baefe4"/>
        <g id="Grupo_55702" data-name="Grupo 55702" transform="translate(13.564 18.379)">
          <g id="Grupo_55700" data-name="Grupo 55700" transform="translate(7.236 0)">
            <path id="Trazado_104953" data-name="Trazado 104953" d="M410.441,422.8a4.58,4.58,0,0,0-3.415-3.693l-6.252-1.563H379.386l-6.252,1.563a4.58,4.58,0,0,0-3.415,3.693l-1.8,10.786,8.409,3.061v25.214h27.507V436.642l8.4-3.056Z" transform="translate(-367.21 -416.816)" fill="#fcb268"/>
            <g id="Grupo_55699" data-name="Grupo 55699" transform="translate(0.715 0.723)">
              <path id="Trazado_104954" data-name="Trazado 104954" d="M371.033,417.539a10.7,10.7,0,1,0,21.4,0Z" transform="translate(-359.573 -417.539)" fill="#f6e2c6"/>
              <path id="Trazado_104955" data-name="Trazado 104955" d="M374.762,422.245l-3.907-3.912a4.558,4.558,0,0,0-1.132,2.329l-1.8,10.786,8.4,3.056v-8.485A5.347,5.347,0,0,0,374.762,422.245Z" transform="translate(-367.924 -415.407)" fill="#f6e2c6"/>
            </g>
            <path id="Trazado_104956" data-name="Trazado 104956" d="M387.145,417.539a7.642,7.642,0,1,1-15.283,0" transform="translate(-356.631 -416.816)" fill="#fcb268"/>
            <path id="Trazado_104957" data-name="Trazado 104957" d="M368.4,421.117l-.476,2.854,8.4,3.056v-3.056Z" transform="translate(-367.209 -407.205)" fill="#eb6e7a"/>
            <path id="Trazado_104958" data-name="Trazado 104958" d="M379.233,422.245l3.907-3.912a4.558,4.558,0,0,1,1.132,2.329l1.8,10.786-8.4,3.056v-8.485A5.347,5.347,0,0,1,379.233,422.245Z" transform="translate(-341.04 -414.683)" fill="#f6e2c6"/>
            <path id="Trazado_104959" data-name="Trazado 104959" d="M385.595,421.117l.476,2.854-8.4,3.056v-3.056Z" transform="translate(-341.04 -407.205)" fill="#eb6e7a"/>
            <rect id="Rect치ngulo_5352" data-name="Rect치ngulo 5352" width="27.505" height="3.056" transform="translate(9.12 41.98)" fill="#eb6e7a"/>
            <path id="Trazado_104960" data-name="Trazado 104960" d="M377.136,419.689h-3.06a.765.765,0,0,1-.763-.763h0a.768.768,0,0,1,.763-.767h3.06a.768.768,0,0,1,.763.767h0a.765.765,0,0,1-.763.763Z" transform="translate(-352.733 -415.148)" fill="#f6e2c6"/>
            <path id="Trazado_104961" data-name="Trazado 104961" d="M413.465,433.988l-1.8-10.791a5.3,5.3,0,0,0-3.945-4.273l-4.976-1.242a11.287,11.287,0,0,0-2.765-.343H381.222a11.285,11.285,0,0,0-2.765.342l-4.976,1.242a5.306,5.306,0,0,0-3.945,4.273l-1.8,10.786a.714.714,0,0,0,.46.793l7.933,2.883v24.713a.716.716,0,0,0,.715.715h27.507a.716.716,0,0,0,.715-.715V437.662L413,434.779a.714.714,0,0,0,.461-.792Zm-15.976-15.212a6.923,6.923,0,0,1-13.772,0Zm-15.212,0a8.358,8.358,0,0,0,16.654,0h1.053c.188,0,.38,0,.571.014a9.98,9.98,0,0,1-19.905,0c.191-.011.384-.015.575-.015Zm-8.449,1.541,4.976-1.242c.14-.037.28-.066.424-.1a11.413,11.413,0,0,0,22.751,0c.144.03.284.059.424.1l4.976,1.242a3.86,3.86,0,0,1,2.876,3.119l1.224,7.347-6.406,2.308v-4.332a.715.715,0,1,0-1.43,0v29.848H377.567v-29.85a.717.717,0,1,0-1.434,0v4.332l-6.406-2.308,1.224-7.347a3.86,3.86,0,0,1,2.877-3.115Zm-4.577,13.32.236-1.42,6.647,2.392v1.529Zm8.316,28.022v-1.624h26.077v1.626Zm27.5-25.52v-1.528l6.647-2.392.24,1.42Z" transform="translate(-367.73 -417.34)" fill="#3a312a"/>
          </g>
          <g id="Grupo_55701" data-name="Grupo 55701" transform="translate(0 24.275)">
            <path id="Trazado_105625-4" data-name="Trazado 105625" d="M368.332,425.961s.645,2.38,2.492,2.5c0,0-2.466.852-2.51,2.673,0,0-.486-2.555-2.433-2.647A2.916,2.916,0,0,0,368.332,425.961Z" transform="translate(-365.461 -418.467)" fill="#fcb268"/>
            <path id="Trazado_105626-4" data-name="Trazado 105626" d="M368.606,431.819a.4.4,0,0,1-.391-.325c0-.022-.453-2.244-2.06-2.322a.4.4,0,0,1-.04-.793,2.5,2.5,0,0,0,2.116-2.16.4.4,0,0,1,.781-.07c.007.022.593,2.109,2.131,2.2a.4.4,0,0,1,.1.778c-.022.007-2.2.785-2.241,2.308a.4.4,0,0,1-.365.387Zm-1.2-3.067a3.4,3.4,0,0,1,1.183,1.4,4.2,4.2,0,0,1,1.43-1.323,3.6,3.6,0,0,1-1.319-1.39,3.185,3.185,0,0,1-1.294,1.309Z" transform="translate(-365.757 -418.759)" fill="#3a312a"/>
            <path id="Trazado_105627-4" data-name="Trazado 105627" d="M370.638,424.734s.906,3.372,3.525,3.528c0,0-3.491,1.206-3.549,3.782,0,0-.689-3.612-3.443-3.745,0,0,3.208-.486,3.469-3.565Z" transform="translate(-362.002 -421.764)" fill="#fcb268"/>
            <path id="Trazado_105628-4" data-name="Trazado 105628" d="M370.905,432.731a.4.4,0,0,1-.391-.325c-.007-.033-.667-3.311-3.07-3.415a.4.4,0,0,1-.383-.414.394.394,0,0,1,.343-.376,3.7,3.7,0,0,0,3.129-3.208.4.4,0,0,1,.432-.365h0a.4.4,0,0,1,.354.295c.007.03.866,3.093,3.159,3.233a.4.4,0,0,1,.1.774c-.033.011-3.23,1.15-3.28,3.415a.4.4,0,0,1-.365.391H370.9Zm-2.064-4.188a4.671,4.671,0,0,1,2.024,2.362,5.706,5.706,0,0,1,2.38-2.245,4.864,4.864,0,0,1-2.22-2.322,4.267,4.267,0,0,1-2.186,2.2Z" transform="translate(-362.294 -422.052)" fill="#3a312a"/>
            <path id="Trazado_105629-4" data-name="Trazado 105629" d="M368.331,425.961s.642,2.38,2.492,2.5c0,0-2.47.852-2.51,2.673,0,0-.486-2.555-2.437-2.647a2.919,2.919,0,0,0,2.456-2.522Z" transform="translate(-365.475 -418.467)" fill="#fcb268"/>
            <path id="Trazado_105630-4" data-name="Trazado 105630" d="M368.6,431.816a.4.4,0,0,1-.394-.325c0-.022-.453-2.244-2.06-2.322a.4.4,0,0,1-.04-.793,2.5,2.5,0,0,0,2.116-2.16.4.4,0,0,1,.432-.361h0a.392.392,0,0,1,.35.292c.007.022.594,2.109,2.131,2.2a.4.4,0,0,1,.1.778c-.022.007-2.208.785-2.241,2.308a.4.4,0,0,1-.365.387Zm-1.206-3.067a3.394,3.394,0,0,1,1.184,1.4,4.206,4.206,0,0,1,1.43-1.324,3.559,3.559,0,0,1-1.316-1.39,3.215,3.215,0,0,1-1.3,1.309Z" transform="translate(-365.765 -418.756)" fill="#3a312a"/>
            <path id="Trazado_105631-4" data-name="Trazado 105631" d="M368.331,424.035s.642,2.38,2.492,2.5c0,0-2.47.852-2.51,2.676,0,0-.486-2.558-2.437-2.65a2.919,2.919,0,0,0,2.456-2.522Z" transform="translate(-365.475 -423.641)" fill="#fcb268"/>
            <path id="Trazado_105632-4" data-name="Trazado 105632" d="M368.6,429.9a.4.4,0,0,1-.394-.324c0-.022-.453-2.249-2.06-2.326a.4.4,0,0,1-.04-.793,2.5,2.5,0,0,0,2.116-2.16.4.4,0,0,1,.781-.066c.007.019.594,2.109,2.131,2.2a.4.4,0,0,1,.376.424.4.4,0,0,1-.269.354c-.022.007-2.208.789-2.241,2.308a.4.4,0,0,1-.365.391Zm-1.206-3.07a3.427,3.427,0,0,1,1.184,1.408,4.182,4.182,0,0,1,1.43-1.327,3.57,3.57,0,0,1-1.319-1.39,3.162,3.162,0,0,1-1.294,1.309Z" transform="translate(-365.765 -423.933)" fill="#3a312a"/>
          </g>
        </g>
      </g>
      <text id="Fracci칩n_reutilizable" data-name="Fracci칩n reutilizable" transform="translate(-1417 -7130.014)" fill="#12263f" font-size="14" font-family="Roboto-Bold, Roboto" font-weight="700"><tspan x="-63.745" y="0">Fracci칩n reutilizable</tspan></text>
      <text id="Clasificaci칩n" transform="translate(-1420 -7010.014)" fill="#12263f" font-size="14" font-family="Roboto-Bold, Roboto" font-weight="700"><tspan x="-40.691" y="0">Clasificaci칩n</tspan></text>
      <text id="Higienizaci칩n" transform="translate(-1420 -6894.014)" fill="#12263f" font-size="14" font-family="Roboto-Bold, Roboto" font-weight="700"><tspan x="-42.913" y="0">Higienizaci칩n</tspan></text>
      <text id="Acondicionamiento_final" data-name="Acondicionamiento
final" transform="translate(-1420 -6774.014)" fill="#12263f" font-size="14" font-family="Roboto-Bold, Roboto" font-weight="700"><tspan x="-61.018" y="0">Acondicionamiento</tspan><tspan x="-13.788" y="18">final</tspan></text>
    </g>
    <g id="Grupo_1065311" data-name="Grupo 1065311">
      <path id="Trazado_104906" data-name="Trazado 104906" d="M526.937,641.29v-338.7H455.5v338.7H410.535l80.683,84.886L571.9,641.29Z" transform="translate(-2170.218 -7836.52)" fill="#b0c0d2"/>
      <g id="Grupo_55719" data-name="Grupo 55719" transform="translate(-1718.311 -7526.479)">
        <circle id="Elipse_4033" data-name="Elipse 4033" cx="40.055" cy="40.055" r="40.055" transform="translate(0)" fill="#baefe4"/>
        <g id="Grupo_55680" data-name="Grupo 55680" transform="translate(12.242 16.07)">
          <g id="Grupo_55678" data-name="Grupo 55678" transform="translate(7.623)">
            <path id="Trazado_104907" data-name="Trazado 104907" d="M472.253,316.369a4.816,4.816,0,0,0-3.576-3.874l-6.557-1.637h-22.43l-6.558,1.637a4.806,4.806,0,0,0-3.575,3.874l-1.883,11.313,8.81,3.208v26.438h28.841V330.886l8.814-3.208Z" transform="translate(-426.92 -310.106)" fill="#fcb268"/>
            <g id="Grupo_55677" data-name="Grupo 55677" transform="translate(0.752 0.752)">
              <path id="Trazado_104908" data-name="Trazado 104908" d="M430.932,310.858a11.215,11.215,0,0,0,22.43,0Z" transform="translate(-418.915 -310.858)" fill="#f6e2c6"/>
              <path id="Trazado_104909" data-name="Trazado 104909" d="M434.841,315.79l-4.1-4.1a4.811,4.811,0,0,0-1.187,2.44l-1.883,11.313,8.81,3.208v-8.891a5.607,5.607,0,0,0-1.641-3.972Z" transform="translate(-427.672 -308.621)" fill="#f6e2c6"/>
            </g>
            <path id="Trazado_104910" data-name="Trazado 104910" d="M447.825,310.858a8.012,8.012,0,1,1-16.024,0" transform="translate(-415.83 -310.106)" fill="#fcb268"/>
            <path id="Trazado_104911" data-name="Trazado 104911" d="M428.171,314.61l-.5,2.993,8.812,3.208V317.6Z" transform="translate(-426.921 -300.028)" fill="#eb6e7a"/>
            <path id="Trazado_104912" data-name="Trazado 104912" d="M439.53,315.79l4.1-4.1a4.813,4.813,0,0,1,1.187,2.44l1.883,11.313-8.814,3.208v-8.891a5.611,5.611,0,0,1,1.645-3.972Z" transform="translate(-399.483 -307.868)" fill="#f6e2c6"/>
            <path id="Trazado_104913" data-name="Trazado 104913" d="M446.2,314.61l.5,2.993-8.812,3.208V317.6Z" transform="translate(-399.482 -300.028)" fill="#eb6e7a"/>
            <rect id="Rect치ngulo_5350" data-name="Rect치ngulo 5350" width="28.842" height="3.205" transform="translate(9.563 44.013)" fill="#eb6e7a"/>
            <path id="Trazado_104914" data-name="Trazado 104914" d="M437.329,313.114h-3.208a.805.805,0,0,1-.8-.8h0a.805.805,0,0,1,.8-.8h3.208a.8.8,0,0,1,.8.8h0a.8.8,0,0,1-.8.8Z" transform="translate(-411.743 -308.355)" fill="#f6e2c6"/>
            <path id="Trazado_104915" data-name="Trazado 104915" d="M475.426,328.1,473.542,316.8a5.552,5.552,0,0,0-4.139-4.479l-5.212-1.3a12.035,12.035,0,0,0-2.9-.358h-19.67a12.028,12.028,0,0,0-2.9.358l-5.216,1.3a5.552,5.552,0,0,0-4.139,4.479L427.479,328.1a.746.746,0,0,0,.483.828l8.32,3.027v25.91a.749.749,0,0,0,.748.752h28.841a.75.75,0,0,0,.752-.752V331.961l8.32-3.027a.75.75,0,0,0,.482-.829Zm-16.753-15.946a7.26,7.26,0,0,1-14.443,0Zm-15.95,0a8.764,8.764,0,0,0,17.462,0h1.1c.207,0,.4,0,.6.014a10.466,10.466,0,0,1-20.875,0c.2-.011.4-.014.6-.014Zm-8.862,1.614,5.22-1.3c.148-.037.295-.066.443-.1a11.967,11.967,0,0,0,23.857,0c.151.033.3.063.446.1l5.216,1.3a4.054,4.054,0,0,1,3.02,3.27l1.283,7.7-6.72,2.418v-4.538a.75.75,0,1,0-1.5,0v31.292H437.782v-31.3a.75.75,0,0,0-1.5,0v4.542l-6.72-2.418,1.283-7.7a4.05,4.05,0,0,1,3.015-3.269Zm-4.8,13.964.25-1.489,6.97,2.51v1.6Zm8.721,29.388v-1.7h27.341v1.7Zm28.842-26.762v-1.6l6.97-2.51.247,1.489Z" transform="translate(-427.469 -310.654)" fill="#3a312a"/>
          </g>
          <g id="Grupo_55679" data-name="Grupo 55679" transform="translate(0 25.423)">
            <path id="Trazado_105625-5" data-name="Trazado 105625" d="M428.1,319.689s.671,2.5,2.61,2.617c0,0-2.587.892-2.631,2.805,0,0-.509-2.68-2.551-2.775a3.065,3.065,0,0,0,2.572-2.647Z" transform="translate(-425.054 -311.807)" fill="#fcb268"/>
            <path id="Trazado_105626-5" data-name="Trazado 105626" d="M428.386,325.832a.414.414,0,0,1-.414-.339c0-.022-.476-2.359-2.164-2.437a.414.414,0,1,1-.04-.828,2.628,2.628,0,0,0,2.22-2.267.414.414,0,0,1,.45-.384.426.426,0,0,1,.372.31c.007.022.621,2.211,2.234,2.311a.414.414,0,0,1,.111.811c-.022.007-2.315.828-2.348,2.421a.414.414,0,0,1-.387.406Zm-1.26-3.218a3.622,3.622,0,0,1,1.242,1.475,4.347,4.347,0,0,1,1.5-1.386,3.775,3.775,0,0,1-1.378-1.46,3.34,3.34,0,0,1-1.361,1.371Z" transform="translate(-425.365 -312.111)" fill="#3a312a"/>
            <path id="Trazado_105627-5" data-name="Trazado 105627" d="M430.517,318.4s.955,3.535,3.694,3.7c0,0-3.66,1.265-3.719,3.966,0,0-.724-3.789-3.612-3.926,0,0,3.365-.509,3.638-3.738Z" transform="translate(-421.428 -315.261)" fill="#fcb268"/>
            <path id="Trazado_105628-5" data-name="Trazado 105628" d="M430.8,326.786a.422.422,0,0,1-.414-.343c-.007-.033-.7-3.466-3.218-3.582a.417.417,0,0,1-.044-.829,3.885,3.885,0,0,0,3.284-3.362.414.414,0,0,1,.453-.38h0a.422.422,0,0,1,.368.31c.007.033.911,3.247,3.311,3.391a.418.418,0,0,1,.115.81c-.037.014-3.388,1.206-3.44,3.579a.422.422,0,0,1-.383.414Zm-2.164-4.394a4.887,4.887,0,0,1,2.119,2.483,5.97,5.97,0,0,1,2.5-2.355,5.079,5.079,0,0,1-2.326-2.437,4.5,4.5,0,0,1-2.293,2.311Z" transform="translate(-421.732 -315.563)" fill="#3a312a"/>
            <path id="Trazado_105629-5" data-name="Trazado 105629" d="M428.1,319.689s.675,2.5,2.614,2.617c0,0-2.587.892-2.632,2.805,0,0-.517-2.68-2.555-2.775a3.062,3.062,0,0,0,2.573-2.647Z" transform="translate(-425.068 -311.807)" fill="#fcb268"/>
            <path id="Trazado_105630-5" data-name="Trazado 105630" d="M428.386,325.83a.414.414,0,0,1-.414-.339c0-.022-.476-2.359-2.161-2.437a.415.415,0,1,1-.044-.828,2.628,2.628,0,0,0,2.219-2.267.414.414,0,0,1,.45-.38h0a.414.414,0,0,1,.368.31c.007.022.621,2.211,2.234,2.308a.419.419,0,0,1,.114.814c-.026.007-2.315.828-2.352,2.418a.414.414,0,0,1-.383.414Zm-1.265-3.218a3.6,3.6,0,0,1,1.242,1.475,4.347,4.347,0,0,1,1.5-1.386,3.776,3.776,0,0,1-1.378-1.46,3.339,3.339,0,0,1-1.361,1.371Z" transform="translate(-425.375 -312.109)" fill="#3a312a"/>
            <path id="Trazado_105631-5" data-name="Trazado 105631" d="M428.1,317.67s.675,2.5,2.614,2.617c0,0-2.587.892-2.632,2.805,0,0-.517-2.683-2.555-2.779A3.056,3.056,0,0,0,428.1,317.67Z" transform="translate(-425.068 -317.23)" fill="#fcb268"/>
            <path id="Trazado_105632-5" data-name="Trazado 105632" d="M428.383,323.811a.419.419,0,0,1-.414-.339c0-.022-.476-2.359-2.161-2.437a.419.419,0,0,1-.045-.833,2.628,2.628,0,0,0,2.219-2.267.414.414,0,0,1,.819-.07c.007.022.621,2.211,2.234,2.308a.419.419,0,0,1,.114.814c-.026.007-2.315.828-2.352,2.421a.414.414,0,0,1-.383.406Zm-1.264-3.218a3.6,3.6,0,0,1,1.242,1.475,4.4,4.4,0,0,1,1.5-1.39,3.742,3.742,0,0,1-1.378-1.456,3.34,3.34,0,0,1-1.361,1.371Z" transform="translate(-425.371 -317.536)" fill="#3a312a"/>
          </g>
        </g>
      </g>
      <g id="Grupo_55721" data-name="Grupo 55721" transform="translate(-1718.311 -7288.886)">
        <circle id="Elipse_4035" data-name="Elipse 4035" cx="40.055" cy="40.055" r="40.055" transform="translate(0)" fill="#baefe4"/>
        <g id="Grupo_55682" data-name="Grupo 55682" transform="translate(17.067 17.269)">
          <g id="Page-1" transform="translate(0 0)">
            <g id="_005---Factory-" data-name="005---Factory-">
              <g id="Icons" transform="translate(0.761 0.776)">
                <path id="Shape" d="M456.092,378.332l-6.506,3.9v-3.244a.766.766,0,0,0-1.158-.66l-6.51,3.9V378.99a.765.765,0,0,0-1.154-.66l-6.507,3.905v-3.244a.766.766,0,0,0-1.158-.66l-6.507,3.9v1.529h30.659V378.99a.766.766,0,0,0-1.158-.66Z" transform="translate(-426.593 -360.433)" fill="#8bbed5"/>
                <path id="Shape-2" data-name="Shape" d="M431.8,373.753a5.252,5.252,0,0,1,.715-.118l-.1.284-.055-.022a4.655,4.655,0,0,0-.557-.144Z" transform="translate(-412.604 -372.76)" fill="#607d8b"/>
                <path id="Shape-3" data-name="Shape" d="M451.653,374.5a5.444,5.444,0,0,0-4.45-.973l-.468.092a7.932,7.932,0,0,0-1.984.719l-.177.162a4.945,4.945,0,0,0-1.088-.621,7.334,7.334,0,0,0-3.725-.376,6.873,6.873,0,0,0-.682.111,9.666,9.666,0,0,0-1.991.621l-.114.321-.055-.023a5.8,5.8,0,0,0-2.145-.262l-.1.284-.055-.023a4.64,4.64,0,0,0-.561-.144,3.827,3.827,0,0,0-1.224.5,4.279,4.279,0,0,0-1.7,4.774,3.682,3.682,0,0,0,2.9,2.371l-.022.129s0,3.829,6.13,3.829l.048-.033a3.585,3.585,0,0,0,1.378,1.088,4.484,4.484,0,0,0,1.187.368,6.438,6.438,0,0,0,1.22.1,5.485,5.485,0,0,0,4.675-2.615l4.523-7.346a4.253,4.253,0,0,0-1.526-3.062Z" transform="translate(-414.863 -373.397)" fill="#dcc8ab"/>
                <path id="Shape-4" data-name="Shape" d="M440.755,376.3v3.664h-4.6V376.3a.943.943,0,0,1,.931-.931h2.738A.943.943,0,0,1,440.755,376.3Z" transform="translate(-400.902 -368.124)" fill="#8bbed5"/>
                <path id="Shape-5" data-name="Shape" d="M444.731,393.821h-9.2l2.1-16.1.2-1.533h4.6Z" transform="translate(-402.577 -365.89)" fill="#f6e2c6"/>
                <path id="Shape-6" data-name="Shape" d="M449.822,381.556v13.772H434.5V380.767h14.539a.787.787,0,0,1,.788.789Z" transform="translate(-405.369 -353.602)" fill="#8bbed5"/>
                <rect id="Rectangle-path" width="30.657" height="19.927" transform="translate(0.002 21.8)" fill="#8bbed5"/>
                <rect id="Rectangle-path-2" data-name="Rectangle-path" width="5.365" height="4.599" rx="0.208" transform="translate(3.067 30.997)" fill="#f6e2c6"/>
                <rect id="Rectangle-path-3" data-name="Rectangle-path" width="5.365" height="4.599" rx="0.208" transform="translate(11.498 30.997)" fill="#f6e2c6"/>
                <path id="Shape-7" data-name="Shape" d="M439.664,382v12.211H432V382a.8.8,0,0,1,.767-.814h6.13A.8.8,0,0,1,439.664,382Z" transform="translate(-412.071 -352.484)" fill="#87796f"/>
                <path id="Shape-8" data-name="Shape" d="M436.926,383.054h3.067a.766.766,0,0,1,.767.767v4.6h-4.6v-4.6a.766.766,0,0,1,.767-.767Z" transform="translate(-400.901 -347.458)" fill="#fcb268"/>
                <path id="Shape-9" data-name="Shape" d="M471.047,384.509v2.3a.767.767,0,0,1-.767.767H427.361a.767.767,0,0,1-.767-.767v-2.3Z" transform="translate(-426.593 -343.55)" fill="#fcb268"/>
              </g>
              <g id="Outline">
                <path id="Shape-10" data-name="Shape" d="M427.919,413.476h42.919a1.532,1.532,0,0,0,1.534-1.534V395.848a.766.766,0,0,0-.767-.767h-1.63l-2.2-16.154v-3.011a.766.766,0,0,0-.767-.767h-4.6a.769.769,0,0,0-.767.767v3.015l-2.2,16.143h-.861v-9.2a.77.77,0,0,0-.391-.667.759.759,0,0,0-.771.011l-6.5,3.9v-3.244a.771.771,0,0,0-.391-.667.759.759,0,0,0-.771.011l-6.506,3.9v-3.244a.765.765,0,0,0-1.161-.656l-3.829,2.3a.766.766,0,0,0,.788,1.312l2.673-1.6v2.484h-6.134v-3.829a.765.765,0,0,0-1.161-.656l-7.664,4.6-.066.063a.775.775,0,0,0-.114.1.7.7,0,0,0-.081.122.581.581,0,0,0-.059.129.559.559,0,0,0-.033.155l-.019.088v21.451a1.536,1.536,0,0,0,1.534,1.534Zm29.125-22.228v17.631h-1.534V398.147a1.532,1.532,0,0,0-1.534-1.534h-6.13a1.532,1.532,0,0,0-1.534,1.534v10.731H427.919v-13.8h5.363a.767.767,0,1,0,0-1.534h-5.363v-2.3Zm-9.2,16.1h3.829a.767.767,0,1,0,0-1.534h-3.829V404.28h3.829a.767.767,0,1,0,0-1.534h-3.829v-1.534h3.829a.765.765,0,0,0,0-1.529h-3.829V398.15h6.13V408.88h-6.13Zm22.991,4.6H427.919v-1.534h42.919Zm-4.6-3.063h-3.067V405.05h3.065Zm-3.067-32.192h3.065v1.534h-3.067Zm-.1,3.067h3.259l2.09,15.327h-7.439Zm7.761,16.861v12.264h-3.063v-3.829a1.533,1.533,0,0,0-1.534-1.534h-3.067a1.535,1.535,0,0,0-1.534,1.534v3.829h-3.06v-8.434h3.063a.765.765,0,1,0,0-1.529h-3.063v-2.3Zm-13.794-6.9h-4.134l4.132-2.484Zm-7.664,0H445.25l4.132-2.484Zm-15.332,0h-4.132l4.129-2.484Z" transform="translate(-426.391 -367.907)" fill="#3a312a"/>
                <path id="Shape-11" data-name="Shape" d="M429.648,381.677h8.431a.767.767,0,1,0,0-1.534h-8.431a.767.767,0,1,0,0,1.534Z" transform="translate(-419.689 -354.502)" fill="#3a312a"/>
                <path id="Shape-12" data-name="Shape" d="M427.218,383.128V386.2a1.533,1.533,0,0,0,1.534,1.534h3.829a1.533,1.533,0,0,0,1.534-1.534v-3.067a1.531,1.531,0,0,0-1.534-1.528h-3.829a1.532,1.532,0,0,0-1.534,1.528Zm5.363,3.067h-3.829v-3.067h3.829Z" transform="translate(-424.156 -350.59)" fill="#3a312a"/>
                <path id="Shape-13" data-name="Shape" d="M434.868,381.6H431.04a1.531,1.531,0,0,0-1.534,1.529V386.2a1.533,1.533,0,0,0,1.534,1.534h3.829A1.533,1.533,0,0,0,436.4,386.2v-3.067a1.531,1.531,0,0,0-1.534-1.529Zm-3.829,4.6v-3.067h3.829V386.2Z" transform="translate(-418.013 -350.59)" fill="#3a312a"/>
                <path id="Shape-14" data-name="Shape" d="M437.341,383.128h3.829a.765.765,0,1,0,0-1.529h-3.829a.765.765,0,1,0,0,1.529Z" transform="translate(-399.023 -350.59)" fill="#3a312a"/>
                <path id="Shape-15" data-name="Shape" d="M433.877,383.174c.207,1.132,1.279,4.036,6.55,4.139a5.381,5.381,0,0,0,4.125,1.545l.814-.494c.114.3.114-.84,0-.542l-.814-.5c-3.679,0-3.829-2.749-3.829-3.067a.765.765,0,1,0-1.529,0,4.39,4.39,0,0,0,.269,1.46c-2.628-.288-3.579-1.449-3.915-2.245.118,0,.236.019.35.019a.767.767,0,0,0,0-1.534c-1.316,0-3.011-.517-3.457-1.958a3.5,3.5,0,0,1,1.378-3.9,4.148,4.148,0,0,1,3.44-.28,9.8,9.8,0,0,1,1.578.682.766.766,0,0,0,.719-1.353c-.078-.04-.148-.07-.221-.1.158-.04.31-.089.472-.118a6.3,6.3,0,0,1,4.881.741,3.34,3.34,0,0,1,1.4,2.484.764.764,0,0,0,.767.745h.022a.759.759,0,0,0,.535-.24.77.77,0,0,0,.207-.549,4.687,4.687,0,0,0-1.176-2.872,7.177,7.177,0,0,1,1.029-.31,5.022,5.022,0,0,1,4.25.719,3.478,3.478,0,0,1,1.26,2.506.767.767,0,0,0,.767.745h.019a.764.764,0,0,0,.538-.236.777.777,0,0,0,.207-.549,5.028,5.028,0,0,0-1.806-3.638,6.359,6.359,0,0,0-5.566-1.047,8.556,8.556,0,0,0-2.005.715,7.934,7.934,0,0,0-5.64-.715,10.445,10.445,0,0,0-2.149.667.789.789,0,0,0-.181.125,5.555,5.555,0,0,0-4.176.594,5.008,5.008,0,0,0-2.02,5.648A4.2,4.2,0,0,0,433.877,383.174Z" transform="translate(-414.666 -373.185)" fill="#3a312a"/>
              </g>
            </g>
          </g>
          <g id="Grupo_55681" data-name="Grupo 55681" transform="translate(1.036 0.367)">
            <path id="Trazado_105625-6" data-name="Trazado 105625" d="M429.371,375.427s.675,2.5,2.614,2.617c0,0-2.587.892-2.631,2.8,0,0-.509-2.68-2.555-2.775A3.056,3.056,0,0,0,429.371,375.427Z" transform="translate(-426.32 -367.536)" fill="#fcb268"/>
            <path id="Trazado_105626-6" data-name="Trazado 105626" d="M429.655,381.571a.425.425,0,0,1-.414-.339c0-.026-.476-2.359-2.161-2.437a.419.419,0,0,1-.045-.828,2.619,2.619,0,0,0,2.22-2.263.414.414,0,0,1,.822-.073c.007.022.621,2.211,2.234,2.308a.419.419,0,0,1,.115.814c-.026.007-2.315.828-2.352,2.418a.414.414,0,0,1-.384.414Zm-1.26-3.218a3.592,3.592,0,0,1,1.242,1.475,4.405,4.405,0,0,1,1.5-1.39,3.733,3.733,0,0,1-1.382-1.46,3.326,3.326,0,0,1-1.361,1.375Z" transform="translate(-426.626 -367.842)" fill="#3a312a"/>
            <path id="Trazado_105627-6" data-name="Trazado 105627" d="M431.788,374.141s.951,3.535,3.693,3.7c0,0-3.66,1.265-3.725,3.966,0,0-.719-3.789-3.609-3.926,0,0,3.366-.509,3.638-3.738Z" transform="translate(-422.69 -370.992)" fill="#fcb268"/>
            <path id="Trazado_105628-6" data-name="Trazado 105628" d="M432.066,382.526a.414.414,0,0,1-.414-.339c-.007-.033-.7-3.466-3.218-3.587a.415.415,0,1,1-.044-.828,3.873,3.873,0,0,0,3.285-3.358.42.42,0,0,1,.45-.383h0a.414.414,0,0,1,.368.31c.011.033.915,3.244,3.318,3.388a.419.419,0,0,1,.111.814c-.033.011-3.384,1.206-3.44,3.579a.414.414,0,0,1-.383.414h-.037Zm-2.161-4.388a4.887,4.887,0,0,1,2.119,2.484,5.947,5.947,0,0,1,2.5-2.355,5.119,5.119,0,0,1-2.329-2.437,4.49,4.49,0,0,1-2.289,2.309Z" transform="translate(-422.999 -371.296)" fill="#3a312a"/>
            <path id="Trazado_105629-6" data-name="Trazado 105629" d="M429.367,375.427s.671,2.5,2.61,2.617c0,0-2.587.892-2.633,2.8,0,0-.509-2.68-2.551-2.775a3.059,3.059,0,0,0,2.574-2.643Z" transform="translate(-426.33 -367.536)" fill="#fcb268"/>
            <path id="Trazado_105630-6" data-name="Trazado 105630" d="M429.651,381.568a.414.414,0,0,1-.414-.339c-.007-.026-.476-2.359-2.164-2.437a.419.419,0,0,1-.044-.828,2.619,2.619,0,0,0,2.22-2.263.414.414,0,0,1,.453-.38h0a.414.414,0,0,1,.368.31c.007.022.621,2.211,2.234,2.308a.414.414,0,0,1,.391.446.422.422,0,0,1-.28.368c-.022.007-2.312.822-2.348,2.418a.422.422,0,0,1-.387.414Zm-1.26-3.218a3.591,3.591,0,0,1,1.242,1.475,4.371,4.371,0,0,1,1.5-1.39,3.734,3.734,0,0,1-1.382-1.46,3.326,3.326,0,0,1-1.361,1.375Z" transform="translate(-426.637 -367.839)" fill="#3a312a"/>
            <path id="Trazado_105631-6" data-name="Trazado 105631" d="M429.367,373.408s.671,2.5,2.61,2.617c0,0-2.587.892-2.633,2.8,0,0-.509-2.68-2.551-2.775a3.061,3.061,0,0,0,2.574-2.643Z" transform="translate(-426.33 -372.961)" fill="#fcb268"/>
            <path id="Trazado_105632-6" data-name="Trazado 105632" d="M429.653,379.553a.414.414,0,0,1-.414-.342c-.007-.022-.476-2.355-2.164-2.437a.415.415,0,1,1-.044-.828,2.625,2.625,0,0,0,2.22-2.267.414.414,0,0,1,.822-.07c.007.022.621,2.211,2.234,2.308a.414.414,0,0,1,.111.814c-.022.007-2.312.828-2.348,2.418a.425.425,0,0,1-.387.414Zm-1.26-3.218a3.568,3.568,0,0,1,1.242,1.475,4.406,4.406,0,0,1,1.5-1.39,3.733,3.733,0,0,1-1.382-1.46,3.326,3.326,0,0,1-1.361,1.375Z" transform="translate(-426.639 -373.266)" fill="#3a312a"/>
          </g>
        </g>
      </g>
      <g id="Grupo_55720" data-name="Grupo 55720" transform="translate(-1718.311 -7404.858)">
        <circle id="Elipse_4034" data-name="Elipse 4034" cx="40.055" cy="40.055" r="40.055" transform="translate(0)" fill="#baefe4"/>
        <g id="Grupo_55687" data-name="Grupo 55687" transform="translate(14.57 20.737)">
          <g id="Grupo_55685" data-name="Grupo 55685" transform="translate(0 0)">
            <g id="Grupo_55683" data-name="Grupo 55683" transform="translate(0.825 0.824)">
              <path id="Trazado_104916" data-name="Trazado 104916" d="M426.444,348.911h31.237v9.865H426.444Z" transform="translate(-426.444 -326.72)" fill="#dcc8ab"/>
              <path id="Trazado_104917" data-name="Trazado 104917" d="M448.889,369.555H453V356.4l-7.4-11.5H434.918v24.657h4.11" transform="translate(-403.681 -337.499)" fill="#f6e2c6"/>
              <circle id="Elipse_4036" data-name="Elipse 4036" cx="4.932" cy="4.932" r="4.932" transform="translate(4.111 27.124)" fill="#87796f"/>
              <circle id="Elipse_4037" data-name="Elipse 4037" cx="4.932" cy="4.932" r="4.932" transform="translate(35.346 27.124)" fill="#87796f"/>
              <circle id="Elipse_4038" data-name="Elipse 4038" cx="1.644" cy="1.644" r="1.644" transform="translate(7.4 30.413)" fill="#e0e0e2"/>
              <circle id="Elipse_4039" data-name="Elipse 4039" cx="1.644" cy="1.644" r="1.644" transform="translate(38.634 30.413)" fill="#e0e0e2"/>
              <path id="Trazado_104918" data-name="Trazado 104918" d="M457.681,344.944v20.138H426.444V344.944a2.057,2.057,0,0,1,2.057-2.053h27.123a2.055,2.055,0,0,1,2.057,2.053Z" transform="translate(-426.444 -342.891)" fill="#f16c7a"/>
              <path id="Trazado_104919" data-name="Trazado 104919" d="M444.194,345.567h-8.161V354.6H450" transform="translate(-400.685 -335.702)" fill="#8bbed5"/>
              <path id="Trazado_104920" data-name="Trazado 104920" d="M440.354,348.911h2.466V352.2h-2.466a1.644,1.644,0,0,1,0-3.288Z" transform="translate(-393.498 -326.72)" fill="#fcb268"/>
            </g>
            <g id="Grupo_55684" data-name="Grupo 55684">
              <path id="Trazado_104921" data-name="Trazado 104921" d="M430.694,350.918a2.466,2.466,0,1,0,2.466,2.466,2.466,2.466,0,0,0-2.466-2.466Zm0,3.289a.822.822,0,1,1,.822-.822.822.822,0,0,1-.822.822Z" transform="translate(-420.827 -320.504)" fill="#3a312a"/>
              <path id="Trazado_104922" data-name="Trazado 104922" d="M439.165,350.918a2.466,2.466,0,1,0,2.466,2.466A2.466,2.466,0,0,0,439.165,350.918Zm0,3.289a.813.813,0,1,1,.583-.237.822.822,0,0,1-.583.237Z" transform="translate(-398.064 -320.504)" fill="#3a312a"/>
              <path id="Trazado_104923" data-name="Trazado 104923" d="M477.055,361.948l-7.4-11.508a.82.82,0,0,0-.693-.376h-9.857v-4.523a2.882,2.882,0,0,0-2.879-2.876H429.1a2.882,2.882,0,0,0-2.879,2.876v30a.828.828,0,0,0,.822.822h3.351a5.752,5.752,0,0,0,11.383,0H461.62a5.752,5.752,0,0,0,11.383,0h3.346a.828.828,0,0,0,.822-.822V362.393a.828.828,0,0,0-.116-.445Zm-40.969,17.705a4.11,4.11,0,1,1,4.11-4.11,4.11,4.11,0,0,1-4.11,4.11Zm21.373-4.932H441.781a5.752,5.752,0,0,0-11.383,0h-2.533V366.5h29.6Zm0-9.865h-29.6V345.544a1.242,1.242,0,0,1,1.236-1.231h27.123a1.234,1.234,0,0,1,1.234,1.231ZM470.1,354.174l4.76,7.395h-11.65v-7.395Zm-2.784,25.479a4.1,4.1,0,1,1,2.908-1.2,4.11,4.11,0,0,1-2.908,1.2Zm8.22-11.508H473.9a.822.822,0,1,1,0-1.644h1.644Zm0-3.288H473.9a2.466,2.466,0,1,0,0,4.932h1.644v4.932h-2.525a5.752,5.752,0,0,0-11.383,0h-2.526V351.71h9.417l.528.822H462.4a.821.821,0,0,0-.822.822v9.039a.818.818,0,0,0,.822.822h13.149Z" transform="translate(-426.218 -342.666)" fill="#3a312a"/>
              <path id="Trazado_104924" data-name="Trazado 104924" d="M439.1,348.688h-2.471a.822.822,0,0,0,0,1.644h2.466a.822.822,0,1,0,0-1.644Z" transform="translate(-400.459 -326.495)" fill="#3a312a"/>
              <path id="Trazado_104925" data-name="Trazado 104925" d="M432.618,351.224h6.576a.822.822,0,1,0,0-1.644h-6.576a.822.822,0,0,0,0,1.644Z" transform="translate(-411.242 -324.098)" fill="#3a312a"/>
              <path id="Trazado_104926" data-name="Trazado 104926" d="M436.2,350.249h-2.466a.822.822,0,0,0,0,1.644H436.2a.822.822,0,1,0,0-1.644Z" transform="translate(-408.247 -322.301)" fill="#3a312a"/>
            </g>
          </g>
          <g id="Grupo_55686" data-name="Grupo 55686" transform="translate(14.942 5.071)">
            <path id="Trazado_105625-7" data-name="Trazado 105625" d="M432.977,346.175s.675,2.5,2.614,2.617c0,0-2.587.892-2.631,2.8,0,0-.517-2.68-2.555-2.775a3.056,3.056,0,0,0,2.572-2.643Z" transform="translate(-429.926 -338.316)" fill="#fcb268"/>
            <path id="Trazado_105626-7" data-name="Trazado 105626" d="M433.264,352.319a.419.419,0,0,1-.414-.339c0-.026-.476-2.359-2.161-2.437a.417.417,0,1,1-.044-.833,2.622,2.622,0,0,0,2.219-2.263.414.414,0,0,1,.822-.073c.007.023.621,2.212,2.234,2.308a.414.414,0,0,1,.391.446.422.422,0,0,1-.28.368c-.022.007-2.311.828-2.348,2.418a.422.422,0,0,1-.387.414ZM432,349.1a3.577,3.577,0,0,1,1.242,1.475,4.373,4.373,0,0,1,1.5-1.39,3.709,3.709,0,0,1-1.383-1.46A3.348,3.348,0,0,1,432,349.1Z" transform="translate(-430.237 -338.622)" fill="#3a312a"/>
            <path id="Trazado_105627-7" data-name="Trazado 105627" d="M435.4,344.889s.951,3.535,3.693,3.7c0,0-3.66,1.265-3.725,3.966,0,0-.724-3.789-3.612-3.926,0,0,3.365-.509,3.638-3.738Z" transform="translate(-426.3 -341.77)" fill="#fcb268"/>
            <path id="Trazado_105628-7" data-name="Trazado 105628" d="M435.67,353.274a.414.414,0,0,1-.414-.339c-.007-.033-.7-3.466-3.222-3.587a.418.418,0,0,1-.044-.83,3.873,3.873,0,0,0,3.284-3.358.414.414,0,0,1,.453-.384h0a.414.414,0,0,1,.368.31c.007.03.911,3.244,3.311,3.388a.419.419,0,0,1,.115.814c-.037.011-3.388,1.206-3.44,3.579a.414.414,0,0,1-.383.414h-.037Zm-2.164-4.391a4.886,4.886,0,0,1,2.119,2.483,5.99,5.99,0,0,1,2.5-2.355,5.129,5.129,0,0,1-2.326-2.437,4.5,4.5,0,0,1-2.293,2.312Z" transform="translate(-426.604 -342.075)" fill="#3a312a"/>
            <path id="Trazado_105629-7" data-name="Trazado 105629" d="M432.972,346.175s.675,2.5,2.614,2.617c0,0-2.587.892-2.632,2.8,0,0-.509-2.68-2.555-2.775A3.056,3.056,0,0,0,432.972,346.175Z" transform="translate(-429.94 -338.316)" fill="#fcb268"/>
            <path id="Trazado_105630-7" data-name="Trazado 105630" d="M433.26,352.316a.419.419,0,0,1-.414-.339c0-.026-.476-2.359-2.16-2.437a.417.417,0,0,1-.045-.833,2.622,2.622,0,0,0,2.22-2.263.414.414,0,0,1,.45-.38h0a.414.414,0,0,1,.372.31c0,.022.621,2.211,2.234,2.308a.419.419,0,0,1,.111.814c-.022.007-2.315.822-2.352,2.418a.414.414,0,0,1-.384.414ZM432,349.1a3.577,3.577,0,0,1,1.242,1.475,4.394,4.394,0,0,1,1.5-1.39,3.725,3.725,0,0,1-1.378-1.46A3.349,3.349,0,0,1,432,349.1Z" transform="translate(-430.247 -338.619)" fill="#3a312a"/>
            <path id="Trazado_105631-7" data-name="Trazado 105631" d="M432.972,344.156s.675,2.5,2.614,2.617c0,0-2.587.892-2.632,2.8,0,0-.509-2.68-2.555-2.775a3.061,3.061,0,0,0,2.573-2.643Z" transform="translate(-429.94 -343.74)" fill="#fcb268"/>
            <path id="Trazado_105632-7" data-name="Trazado 105632" d="M433.258,350.3a.419.419,0,0,1-.414-.342c0-.022-.476-2.355-2.16-2.437a.415.415,0,0,1-.045-.828,2.628,2.628,0,0,0,2.22-2.267.414.414,0,0,1,.453-.38.425.425,0,0,1,.368.31c0,.022.621,2.211,2.234,2.308a.42.42,0,0,1,.111.814c-.022.007-2.315.822-2.352,2.418a.419.419,0,0,1-.384.414Zm-1.264-3.218a3.578,3.578,0,0,1,1.242,1.475,4.394,4.394,0,0,1,1.5-1.39,3.726,3.726,0,0,1-1.378-1.46,3.347,3.347,0,0,1-1.361,1.375Z" transform="translate(-430.244 -344.044)" fill="#3a312a"/>
          </g>
        </g>
      </g>
      <text id="Fracci칩n_textil" data-name="Fracci칩n textil" transform="translate(-1676.043 -7427.551)" fill="#12263f" font-size="14" font-family="Roboto-Bold, Roboto" font-weight="700"><tspan x="-44.516" y="0">Fracci칩n textil</tspan></text>
      <text id="Planta_de_selecci칩n" data-name="Planta de selecci칩n" transform="translate(-1677.043 -7191.551)" fill="#12263f" font-size="14" font-family="Roboto-Bold, Roboto" font-weight="700"><tspan x="-61.435" y="0">Planta de selecci칩n</tspan></text>
      <text id="Recogida" transform="translate(-1679.043 -7307.551)" fill="#12263f" font-size="14" font-family="Roboto-Bold, Roboto" font-weight="700"><tspan x="-29.408" y="0">Recogida</tspan></text>
    </g>
  </g>
</svg>
