<svg xmlns="http://www.w3.org/2000/svg" width="73.351" height="81.424" viewBox="0 0 73.351 81.424">
  <g id="bosquejo_1_" data-name="bosquejo (1)" transform="translate(0 0)">
    <g id="Grupo_1065238" data-name="Grupo 1065238" transform="translate(1.193 1.192)">
      <g id="Grupo_1065237" data-name="Grupo 1065237">
        <g id="Grupo_1065233" data-name="Grupo 1065233" transform="translate(12.373 4.269)">
          <path id="Trazado_778050" data-name="Trazado 778050" d="M169.276,36.253a1.908,1.908,0,0,0-1.908-1.908H112.591a1.908,1.908,0,0,0-1.908,1.908v7.129h58.593Z" transform="translate(-110.683 -34.345)" fill="#ffe270"/>
          <path id="Trazado_778051" data-name="Trazado 778051" d="M110.683,91.172V155a1.908,1.908,0,0,0,1.908,1.908h54.776A1.908,1.908,0,0,0,169.276,155V91.172Z" transform="translate(-110.683 -82.135)" fill="#eaf6ff"/>
        </g>
        <g id="Grupo_1065234" data-name="Grupo 1065234" transform="translate(12.373 4.269)">
          <path id="Trazado_778052" data-name="Trazado 778052" d="M116.567,34.345h-3.976a1.908,1.908,0,0,0-1.908,1.908v7.129h3.976V36.253A1.908,1.908,0,0,1,116.567,34.345Z" transform="translate(-110.683 -34.345)" fill="#ffd15b"/>
          <path id="Trazado_778053" data-name="Trazado 778053" d="M114.659,155V91.172h-3.976V155a1.908,1.908,0,0,0,1.908,1.908h3.976A1.908,1.908,0,0,1,114.659,155Z" transform="translate(-110.683 -82.135)" fill="#d8ecfe"/>
        </g>
        <path id="Trazado_778054" data-name="Trazado 778054" d="M40.024,81.229v48.9a2,2,0,0,1-2,2H34.884a2,2,0,0,1-2-2v-48.9a2.991,2.991,0,0,1,.016-.316,3.113,3.113,0,0,1,.151-.711l2.572-7.648a.879.879,0,0,1,1.667,0L39.857,80.2a3.113,3.113,0,0,1,.151.711,2.992,2.992,0,0,1,.016.316Z" transform="translate(-32.88 -61.705)" fill="#8ac9fe"/>
        <path id="Trazado_778055" data-name="Trazado 778055" d="M36.854,130.129v-48.9a3.224,3.224,0,0,1,.168-1.027l1.416-4.213-1.155-3.436a.879.879,0,0,0-1.666,0L33.046,80.2a3.22,3.22,0,0,0-.168,1.027v48.9a2,2,0,0,0,2,2h3.138a2.009,2.009,0,0,0,.419-.045A2,2,0,0,1,36.854,130.129Z" transform="translate(-32.878 -61.7)" fill="#60b7ff"/>
        <path id="Trazado_778056" data-name="Trazado 778056" d="M40.092,80.912H32.98a.123.123,0,0,1,0-.024c0-.048.01-.1.017-.145s.017-.11.029-.164c.006-.033.014-.067.022-.1s.021-.084.032-.126.03-.1.048-.154L35.7,72.554a.879.879,0,0,1,1.667,0l1.155,3.435L39.941,80.2A3.113,3.113,0,0,1,40.092,80.912Z" transform="translate(-32.964 -61.705)" fill="#eaf6ff"/>
        <path id="Trazado_778057" data-name="Trazado 778057" d="M40.024,411.38v4.2a2,2,0,0,1-1.584,1.959h0a2,2,0,0,1-.417.045H34.884a2,2,0,0,1-2-2v-4.2Z" transform="translate(-32.88 -347.151)" fill="#ffe270"/>
        <path id="Trazado_778058" data-name="Trazado 778058" d="M212.9,190.692H194.164a.674.674,0,0,1-.674-.674V174.549a2.025,2.025,0,0,1,.579-1.415c1.247-1.275,2.128-2.264,3.4-3.559a.675.675,0,0,1,.928-.033l3.794,3.364a2.021,2.021,0,0,0,2.681,0l3.794-3.364a.675.675,0,0,1,.928.033c1.272,1.294,2.153,2.284,3.4,3.559a2.025,2.025,0,0,1,.579,1.415v15.469A.674.674,0,0,1,212.9,190.692Z" transform="translate(-167.948 -143.631)" fill="#f58a97"/>
        <path id="Trazado_778059" data-name="Trazado 778059" d="M191.71,305.427H171.133a.461.461,0,0,0-.456.395l-3.47,23.847a.833.833,0,0,0,.824.953h5.14a.833.833,0,0,0,.78-.54l1.684-4.488a.833.833,0,0,1,1.543-.041l2,4.571a.833.833,0,0,0,.763.5h14.869a.833.833,0,0,0,.824-.953l-3.47-23.848A.461.461,0,0,0,191.71,305.427Z" transform="translate(-145.837 -258.047)" fill="#f58a97"/>
        <path id="Trazado_778060" data-name="Trazado 778060" d="M197.466,174.548v15.469a.675.675,0,0,0,.674.674h-3.976a.675.675,0,0,1-.674-.674V174.548a2.023,2.023,0,0,1,.579-1.415c1.247-1.275,2.128-2.265,3.4-3.559a.674.674,0,0,1,.929-.032l1.662,1.474c-.649.687-1.266,1.35-2.015,2.117A2.023,2.023,0,0,0,197.466,174.548Z" transform="translate(-167.948 -143.629)" fill="#f07281"/>
        <g id="Grupo_1065235" data-name="Grupo 1065235" transform="translate(21.361 47.379)">
          <path id="Trazado_778061" data-name="Trazado 778061" d="M171.183,329.668l3.47-23.847a.461.461,0,0,1,.456-.395h-3.976a.461.461,0,0,0-.456.395l-3.47,23.847a.833.833,0,0,0,.824.953h3.976A.833.833,0,0,1,171.183,329.668Z" transform="translate(-167.198 -305.426)" fill="#f07281"/>
        </g>
        <path id="Trazado_778062" data-name="Trazado 778062" d="M38.438,417.538a2,2,0,0,1-.417.045H34.884a2,2,0,0,1-2-2v-4.2h3.976v4.2A2,2,0,0,0,38.438,417.538Z" transform="translate(-32.88 -347.151)" fill="#ffd15b"/>
        <path id="Trazado_778063" data-name="Trazado 778063" d="M36.956,80.912H32.98a.123.123,0,0,1,0-.024c0-.048.01-.1.017-.145s.017-.11.029-.164c.006-.033.014-.067.022-.1s.021-.084.032-.126.03-.1.048-.154L35.7,72.554a.879.879,0,0,1,1.667,0l1.155,3.435L37.107,80.2A3.112,3.112,0,0,0,36.956,80.912Z" transform="translate(-32.964 -61.705)" fill="#d8ecfe"/>
        <path id="Trazado_778064" data-name="Trazado 778064" d="M202.643,291.946H181.379a1.272,1.272,0,0,1-1.272-1.272V288.2a1.272,1.272,0,0,1,1.272-1.272h21.264a1.272,1.272,0,0,1,1.272,1.272v2.479A1.272,1.272,0,0,1,202.643,291.946Z" transform="translate(-156.693 -242.486)" fill="#b6c4cf"/>
        <path id="Trazado_778065" data-name="Trazado 778065" d="M184.082,290.675V288.2a1.272,1.272,0,0,1,1.272-1.272h-3.976a1.272,1.272,0,0,0-1.272,1.272v2.478a1.272,1.272,0,0,0,1.272,1.272h3.976A1.272,1.272,0,0,1,184.082,290.675Z" transform="translate(-156.692 -242.487)" fill="#9facba"/>
        <g id="Grupo_1065236" data-name="Grupo 1065236" transform="translate(19.69)">
          <path id="Trazado_778066" data-name="Trazado 778066" d="M158.917,16.156h-.235a1.988,1.988,0,0,1-1.988-1.988V9.488A1.988,1.988,0,0,1,158.682,7.5h.235A1.988,1.988,0,0,1,160.9,9.488v4.68A1.988,1.988,0,0,1,158.917,16.156Z" transform="translate(-156.694 -7.5)" fill="#c5d3dd"/>
          <path id="Trazado_778067" data-name="Trazado 778067" d="M221.4,16.156h-.235a1.988,1.988,0,0,1-1.988-1.988V9.488A1.988,1.988,0,0,1,221.167,7.5h.235a1.988,1.988,0,0,1,1.988,1.988v4.68A1.988,1.988,0,0,1,221.4,16.156Z" transform="translate(-209.242 -7.5)" fill="#c5d3dd"/>
          <path id="Trazado_778068" data-name="Trazado 778068" d="M283.887,16.156h-.235a1.988,1.988,0,0,1-1.988-1.988V9.488A1.988,1.988,0,0,1,283.652,7.5h.235a1.988,1.988,0,0,1,1.988,1.988v4.68A1.988,1.988,0,0,1,283.887,16.156Z" transform="translate(-261.79 -7.5)" fill="#c5d3dd"/>
          <path id="Trazado_778069" data-name="Trazado 778069" d="M346.371,16.156h-.235a1.988,1.988,0,0,1-1.988-1.988V9.488A1.988,1.988,0,0,1,346.136,7.5h.235a1.988,1.988,0,0,1,1.988,1.988v4.68A1.988,1.988,0,0,1,346.371,16.156Z" transform="translate(-314.337 -7.5)" fill="#c5d3dd"/>
          <path id="Trazado_778070" data-name="Trazado 778070" d="M408.856,16.156h-.235a1.988,1.988,0,0,1-1.988-1.988V9.488A1.988,1.988,0,0,1,408.621,7.5h.235a1.988,1.988,0,0,1,1.988,1.988v4.68A1.988,1.988,0,0,1,408.856,16.156Z" transform="translate(-366.885 -7.5)" fill="#c5d3dd"/>
        </g>
      </g>
    </g>
    <g id="Grupo_1065239" data-name="Grupo 1065239" transform="translate(0 0)">
      <path id="Trazado_778071" data-name="Trazado 778071" d="M32.107,65.862a2.071,2.071,0,0,0-3.927,0L25.609,73.51a4.4,4.4,0,0,0-.23,1.407v48.9a3.2,3.2,0,0,0,3.2,3.2h3.138a3.2,3.2,0,0,0,3.2-3.2v-48.9a4.4,4.4,0,0,0-.23-1.407Zm-4.343,9.932h4.759v42.635H27.764Zm2.379-8.287,1.984,5.9H28.16Zm1.569,57.125H28.575a.812.812,0,0,1-.811-.811v-3.007h4.759v3.007A.812.812,0,0,1,31.713,124.632Z" transform="translate(-25.379 -54.2)"/>
      <path id="Trazado_778072" data-name="Trazado 778072" d="M161.058,4.268h-4.216V3.3a3.3,3.3,0,1,0-6.6,0v.97h-3.341V3.3a3.3,3.3,0,1,0-6.6,0v.97h-3.341V3.3a3.3,3.3,0,0,0-6.6,0v.97h-3.341V3.3a3.3,3.3,0,0,0-6.6,0v.97h-3.341V3.3a3.3,3.3,0,1,0-6.6,0v.97h-4.217a3.1,3.1,0,0,0-3.1,3.1V78.323a3.1,3.1,0,0,0,3.1,3.1h54.776a3.1,3.1,0,0,0,3.1-3.1V43.047a1.193,1.193,0,1,0-2.385,0V78.323a.717.717,0,0,1-.716.716H106.282a.717.717,0,0,1-.716-.716V15.692h56.208V37.48a1.193,1.193,0,1,0,2.385,0V7.369a3.1,3.1,0,0,0-3.1-3.1Zm-8.427-.97a.913.913,0,0,1,1.825,0V7.743a.913.913,0,0,1-1.825,0Zm-9.937,0a.913.913,0,1,1,1.825,0V7.743a.913.913,0,1,1-1.825,0Zm-9.937,0a.913.913,0,1,1,1.825,0v2.16s0,0,0,0V7.743a.913.913,0,1,1-1.825,0Zm-9.937,0a.913.913,0,1,1,1.825,0V7.743a.913.913,0,1,1-1.825,0Zm-9.937,0a.913.913,0,1,1,1.825,0v2.16s0,0,0,0V7.743a.913.913,0,1,1-1.825,0Zm-7.318,10.009V7.369a.717.717,0,0,1,.716-.716H110.5V7.743a3.3,3.3,0,1,0,6.6,0V6.654h3.341V7.743a3.3,3.3,0,1,0,6.6,0V6.654h3.341V7.743a3.3,3.3,0,1,0,6.6,0V6.654h3.341V7.743a3.3,3.3,0,1,0,6.6,0V6.654h3.341V7.743a3.3,3.3,0,1,0,6.6,0V6.654h4.216a.717.717,0,0,1,.716.716v5.937Z" transform="translate(-90.808 0)"/>
      <path id="Trazado_778073" data-name="Trazado 778073" d="M160.188,178.2a2.026,2.026,0,0,0,1.534.7h5.14a2.037,2.037,0,0,0,1.9-1.313l1.373-3.658,1.646,3.758a2.025,2.025,0,0,0,1.856,1.213H188.5a2.026,2.026,0,0,0,2.006-2.317l-3.153-21.667a2.452,2.452,0,0,0,.589-1.6v-2.479a2.467,2.467,0,0,0-1.6-2.3V136.056a3.2,3.2,0,0,0-.919-2.249c-.593-.606-2.734-2.881-3.4-3.561-.035-.036-.072-.069-.11-.1v-5.351a1.193,1.193,0,1,0-2.385,0v5.3c-.025.02-.051.039-.076.061l-3.792,3.362a.834.834,0,0,1-1.1,0l-3.793-3.363c-.025-.022-.051-.041-.076-.061v-5.3a1.193,1.193,0,1,0-2.385,0v5.351c-.037.032-.074.065-.109.1-.669.68-2.81,2.955-3.4,3.561a3.2,3.2,0,0,0-.919,2.25v3.856a1.193,1.193,0,0,0,2.385,0v-3.856a.827.827,0,0,1,.239-.582c.608-.622,2.546-2.681,3.054-3.2l3.425,3.037a3.223,3.223,0,0,0,4.264,0l3.424-3.036c.508.524,2.446,2.582,3.054,3.205a.826.826,0,0,1,.239.581v12.326h-17.7v-2.9a1.193,1.193,0,1,0-2.385,0v2.929a2.467,2.467,0,0,0-2.128,2.439v2.478a2.463,2.463,0,0,0,1.059,2.022l-3.091,21.24a2.024,2.024,0,0,0,.472,1.616Zm4.025-24.8a.08.08,0,0,1-.079-.08v-2.479a.08.08,0,0,1,.079-.08h21.264a.08.08,0,0,1,.08.08v2.479a.08.08,0,0,1-.08.08Zm.94,2.385h19.916l3.017,20.728H173.867l-1.907-4.352a2.025,2.025,0,0,0-3.753.1l-1.6,4.253h-4.476Z" transform="translate(-138.334 -103.945)"/>
      <path id="Trazado_778074" data-name="Trazado 778074" d="M386.653,176.518a1.193,1.193,0,1,0,0,2.385h3.759a2.149,2.149,0,0,0,2.147-2.147V125.747a2.149,2.149,0,0,0-2.147-2.147h-3.759a1.193,1.193,0,1,0,0,2.385h3.521v3.068h-3.522a1.193,1.193,0,0,0,0,2.385h3.522v3.115h-3.522a1.193,1.193,0,0,0,0,2.385h3.522v11.441h-3.522a1.193,1.193,0,0,0,0,2.385h3.522V153.4h-3.522a1.193,1.193,0,0,0,0,2.385h3.522v20.728Z" transform="translate(-328.196 -103.944)"/>
    </g>
  </g>
</svg>
