<svg xmlns="http://www.w3.org/2000/svg" width="82.621" height="82.621" viewBox="0 0 82.621 82.621">
  <g id="modista_3_" data-name="modista (3)" transform="translate(0 0.001)">
    <g id="Grupo_1065256" data-name="Grupo 1065256" transform="translate(1.333 1.332)">
      <g id="Grupo_1065240" data-name="Grupo 1065240" transform="translate(18.656 63.965)">
        <path id="Trazado_778075" data-name="Trazado 778075" d="M62.108,50a8.209,8.209,0,0,1-1.493.626l-14.645,4.5a4.484,4.484,0,0,1-1.333.2h-.093a4.555,4.555,0,0,1-4.557-4.557A4.9,4.9,0,0,1,40.053,50H16v8.582a6.33,6.33,0,0,1,1.892,1.306l.013.013L19.4,57.916a6.444,6.444,0,0,1,5.157-2.585H35.109a5.336,5.336,0,0,1,3.771,1.559l2.985,2.985a2.673,2.673,0,0,0,1.892.786H51.98a2.673,2.673,0,0,1,2.665,2.665,2.685,2.685,0,0,1-2.665,2.665H77.3V50Z" transform="translate(-16 -50)" fill="#cf9e76"/>
      </g>
      <g id="Grupo_1065241" data-name="Grupo 1065241" transform="translate(34.647 53.304)">
        <path id="Trazado_778076" data-name="Trazado 778076" d="M33.33,42v5.33H28V42Z" transform="translate(-28 -42)" fill="#ccd1d9"/>
      </g>
      <g id="Grupo_1065242" data-name="Grupo 1065242" transform="translate(0 42.643)">
        <path id="Trazado_778077" data-name="Trazado 778077" d="M39.313,34a5.329,5.329,0,0,1,5.33,5.33V42a2.673,2.673,0,0,1-2.665,2.665H35.088a2.673,2.673,0,0,1-1.892-.786L31.317,42h-8a2.673,2.673,0,0,0-2.665,2.665V63.9a6.335,6.335,0,0,0-2.679-.586,6.462,6.462,0,0,0-5.77,3.571L10,71.313H2V39.33A5.329,5.329,0,0,1,7.33,34H39.313Z" transform="translate(-2 -34)" fill="#ccd1d9"/>
      </g>
      <g id="Grupo_1065243" data-name="Grupo 1065243" transform="translate(5.33 47.974)">
        <ellipse id="Elipse_4195" data-name="Elipse 4195" cx="3.998" cy="3.998" rx="3.998" ry="3.998" fill="#fcd770"/>
      </g>
      <g id="Grupo_1065244" data-name="Grupo 1065244" transform="translate(5.33 61.3)">
        <ellipse id="Elipse_4196" data-name="Elipse 4196" cx="3.998" cy="3.998" rx="3.998" ry="3.998" fill="#fcd770"/>
      </g>
      <g id="Grupo_1065245" data-name="Grupo 1065245" transform="translate(7.996 71.96)">
        <path id="Trazado_778078" data-name="Trazado 778078" d="M20.566,57.906,26.656,64H8l2.212-4.424A6.462,6.462,0,0,1,15.982,56a6.529,6.529,0,0,1,4.571,1.892Z" transform="translate(-8 -56)" fill="#fc6e51"/>
      </g>
      <g id="Grupo_1065246" data-name="Grupo 1065246" transform="translate(20.562 69.295)">
        <path id="Trazado_778079" data-name="Trazado 778079" d="M51.5,59.33A2.673,2.673,0,0,1,54.17,62,2.685,2.685,0,0,1,51.5,64.661H23.52l-6.09-6.09,1.493-1.986A6.444,6.444,0,0,1,24.08,54H34.634A5.336,5.336,0,0,1,38.4,55.559l2.985,2.985a2.673,2.673,0,0,0,1.892.786Z" transform="translate(-17.43 -54)" fill="#ff826e"/>
      </g>
      <g id="Grupo_1065247" data-name="Grupo 1065247" transform="translate(61.299 46.641)">
        <path id="Trazado_778080" data-name="Trazado 778080" d="M56,37v5.33H48V37Z" transform="translate(-48 -37)" fill="#ffc729"/>
      </g>
      <g id="Grupo_1065248" data-name="Grupo 1065248" transform="translate(61.299 34.648)">
        <path id="Trazado_778081" data-name="Trazado 778081" d="M56,36.1v3.891H48V28l1.319.213A8.009,8.009,0,0,1,56,36.1Z" transform="translate(-48 -28)" fill="#fcd770"/>
      </g>
      <g id="Grupo_1065249" data-name="Grupo 1065249" transform="translate(29.317 34.648)">
        <path id="Trazado_778082" data-name="Trazado 778082" d="M32,28v8H24a8.006,8.006,0,0,1,6.676-7.782Z" transform="translate(-24 -28)" fill="#fcd770"/>
      </g>
      <g id="Grupo_1065250" data-name="Grupo 1065250" transform="translate(37.313 33.222)">
        <path id="Trazado_778083" data-name="Trazado 778083" d="M53.987,45.68v4L38.635,54.062A4.561,4.561,0,0,0,35.4,57.673H30v-5.33h2.665v-5.33a2.673,2.673,0,0,0,2.665-2.665V41.682A5.329,5.329,0,0,0,30,36.351v-8l1.333-.227,2.212-.36a5.425,5.425,0,0,0,2.106-.84l.346,2.8a6.044,6.044,0,0,0,11.993,0l.346-2.8a5.424,5.424,0,0,0,2.105.84l2.212.36,1.333.227V45.68Z" transform="translate(-30 -26.93)" fill="#fcd770"/>
      </g>
      <g id="Grupo_1065251" data-name="Grupo 1065251" transform="translate(30.65)">
        <path id="Trazado_778084" data-name="Trazado 778084" d="M50,35.222A5.348,5.348,0,0,1,47.654,30.8V29.185a9.059,9.059,0,0,0,5.33-8.249V18.151a2.827,2.827,0,0,0-2.825-2.825h-5.33a2.824,2.824,0,0,1-2-.826l-1.839-1.839L39.152,14.5a2.824,2.824,0,0,1-2,.826,2.827,2.827,0,0,0-2.825,2.825v2.505a9.333,9.333,0,0,0,5.33,8.422V30.8a5.348,5.348,0,0,1-2.345,4.424,5.425,5.425,0,0,1-2.106.84L33,36.421l-1.239-.2A8.387,8.387,0,0,1,25,29.985a13.636,13.636,0,0,0,4-9.648V16.659a14.659,14.659,0,1,1,29.317,0v3.678a13.659,13.659,0,0,0,4,9.648,8.386,8.386,0,0,1-6.756,6.237l-1.239.2-2.212-.36A5.425,5.425,0,0,1,50,35.222Z" transform="translate(-25 -2)" fill="#656d78"/>
      </g>
      <g id="Grupo_1065252" data-name="Grupo 1065252" transform="translate(42.643 51.971)">
        <path id="Trazado_778085" data-name="Trazado 778085" d="M52.656,45V41h8v4.464a8.512,8.512,0,0,1-4.531,7.529,8.21,8.21,0,0,1-1.493.626l-14.645,4.5a4.484,4.484,0,0,1-1.333.2h-.093A4.555,4.555,0,0,1,34,53.766a4.9,4.9,0,0,1,.067-.773A4.561,4.561,0,0,1,37.3,49.382Z" transform="translate(-34 -41)" fill="#f0d0b4"/>
      </g>
      <g id="Grupo_1065253" data-name="Grupo 1065253" transform="translate(29.317 50.639)">
        <path id="Trazado_778086" data-name="Trazado 778086" d="M27.771,42.665H29.33V48H32v5.33H24V40l1.879,1.879A2.673,2.673,0,0,0,27.771,42.665Z" transform="translate(-24 -40)" fill="#f0d0b4"/>
      </g>
      <g id="Grupo_1065254" data-name="Grupo 1065254" transform="translate(42.963 27.078)">
        <path id="Trazado_778087" data-name="Trazado 778087" d="M46.926,28.463l-.346,2.8a6.043,6.043,0,0,1-11.993,0l-.346-2.8a5.348,5.348,0,0,0,2.345-4.424V22.32a9.3,9.3,0,0,0,4.038.906h.24a8.909,8.909,0,0,0,3.718-.8v1.612A5.348,5.348,0,0,0,46.926,28.463Z" transform="translate(-34.24 -22.32)" fill="#f0d0b4"/>
      </g>
      <g id="Grupo_1065255" data-name="Grupo 1065255" transform="translate(39.978 10.661)">
        <path id="Trazado_778088" data-name="Trazado 778088" d="M50.656,15.49v2.785a9.059,9.059,0,0,1-5.33,8.249,8.909,8.909,0,0,1-3.718.8h-.24A9.345,9.345,0,0,1,32,18V15.49a2.827,2.827,0,0,1,2.825-2.825,2.824,2.824,0,0,0,2-.826L38.663,10,40.5,11.839a2.824,2.824,0,0,0,2,.826h5.33A2.827,2.827,0,0,1,50.656,15.49Z" transform="translate(-32 -10)" fill="#f0d0b4"/>
      </g>
    </g>
    <g id="Grupo_1065257" data-name="Grupo 1065257" transform="translate(0 -0.001)">
      <path id="Trazado_778089" data-name="Trazado 778089" d="M70.766,64.965a9.783,9.783,0,0,0,2.193-6.2V45.086a9.287,9.287,0,0,0-5.67-8.575,9.686,9.686,0,0,0,4.3-5.87l.184-.732-.533-.533a12.241,12.241,0,0,1-3.607-8.711V16.991a15.991,15.991,0,1,0-31.982,0v3.674a12.236,12.236,0,0,1-3.607,8.71l-.533.533.184.732a9.69,9.69,0,0,0,4.324,5.886,9.28,9.28,0,0,0-5.561,7.117H7.663A6.671,6.671,0,0,0,1,50.306V83.621H83.621V64.965Zm-26.716,0H40.978V62.3h2.665V56.724a3.992,3.992,0,0,0,2.665-3.753V50.306a6.675,6.675,0,0,0-5.33-6.528V38.109L43.4,37.7A6.78,6.78,0,0,0,44.2,37.5l.128,1.021a7.37,7.37,0,0,0,14.627,0L59.08,37.5a6.462,6.462,0,0,0,.793.205l2.427.405V57.3l-14.384,4.11A5.9,5.9,0,0,0,44.051,64.965ZM38.313,70.3H29.547a7.828,7.828,0,0,0-6.23,3.114l-.656.874c-.111-.075-.225-.139-.34-.208V67.63H38.313ZM21.938,77.126l3.83,3.83H12.484l1.25-2.5a5.122,5.122,0,0,1,8.2-1.331Zm8.379-12.161h-8V55.637A1.334,1.334,0,0,1,23.654,54.3h6.663Zm2.665,0V56.119a3.948,3.948,0,0,0,2.436.85h.229V62.3h2.665v2.665Zm5.33-5.33V56.969h2.665v2.665Zm9.765-43.861.9-.9.9.9a4.187,4.187,0,0,0,2.941,1.218h5.33a1.5,1.5,0,0,1,1.494,1.494v2.782a7.726,7.726,0,0,1-7.716,7.717h-.235a8.028,8.028,0,0,1-8.041-8v-2.5a1.494,1.494,0,0,1,1.494-1.491A4.187,4.187,0,0,0,48.078,15.773ZM51.684,31.65h.235a10.3,10.3,0,0,0,2.405-.293,6.625,6.625,0,0,0,2.243,4.769l-.259,2.063a4.706,4.706,0,0,1-9.339,0l-.259-2.063a6.621,6.621,0,0,0,2.248-4.84,10.7,10.7,0,0,0,2.725.364ZM64.964,50.306h5.33v2.665h-5.33ZM48.647,63.969l14.6-4.171,2.111,2.111,1.884-1.884L64.964,57.75V55.637h5.33v3.129a7.153,7.153,0,0,1-2.108,5.091,7.23,7.23,0,0,1-2.974,1.791L50.567,70.153a3.366,3.366,0,0,1-1.034.143,3.225,3.225,0,0,1-.886-6.326ZM70.295,45.086v2.555h-5.33V38.575A6.629,6.629,0,0,1,70.295,45.086ZM34.481,30.673a14.879,14.879,0,0,0,3.831-10.008V16.991a13.326,13.326,0,1,1,26.652,0v3.674A14.875,14.875,0,0,0,68.8,30.672a7.047,7.047,0,0,1-5.472,4.564l-1.025.171-1.988-.332a3.984,3.984,0,0,1-3.342-3.943v-.8a10.388,10.388,0,0,0,5.33-9.063V18.485a4.164,4.164,0,0,0-4.159-4.159H52.81a1.51,1.51,0,0,1-1.057-.437l-1.447-1.447V7.663H47.641v4.779l-1.447,1.447a1.51,1.51,0,0,1-1.057.437,4.162,4.162,0,0,0-4.159,4.156v2.5a10.653,10.653,0,0,0,5.33,9.207v.939a3.985,3.985,0,0,1-3.341,3.943l-1.988.332-1.025-.171a7.047,7.047,0,0,1-5.473-4.564Zm3.831,7.9v5.068h-5.16A6.637,6.637,0,0,1,38.313,38.575ZM3.665,50.306a4,4,0,0,1,4-4H39.645a4,4,0,0,1,4,4v2.665A1.334,1.334,0,0,1,42.31,54.3H35.418a1.343,1.343,0,0,1-.942-.39L32.2,51.639H23.654a4,4,0,0,0-4,4V73.082a7.864,7.864,0,0,0-1.342-.121,7.747,7.747,0,0,0-6.965,4.3L9.5,80.956H3.665Zm51.971,30.65h-26.1l-4.884-4.884.8-1.062a5.147,5.147,0,0,1,4.1-2.05H40.1a3.973,3.973,0,0,1,2.828,1.17l2.988,2.989a3.968,3.968,0,0,0,2.826,1.171h8.225a1.333,1.333,0,0,1,0,2.665Zm25.319,0H60.721a3.953,3.953,0,0,0,.245-1.333,4,4,0,0,0-4-4H48.744a1.343,1.343,0,0,1-.942-.39l-2.988-2.989a6.586,6.586,0,0,0-3.837-1.866V67.63H43.7A5.942,5.942,0,0,0,51.353,72.7L66,68.2a9.734,9.734,0,0,0,1.4-.565H80.955Z" transform="translate(-1 -1)"/>
      <path id="Trazado_778090" data-name="Trazado 778090" d="M10.33,47.661A5.33,5.33,0,1,0,5,42.33,5.336,5.336,0,0,0,10.33,47.661Zm0-8A2.665,2.665,0,1,1,7.665,42.33,2.668,2.668,0,0,1,10.33,39.665Z" transform="translate(0.33 10.974)"/>
      <path id="Trazado_778091" data-name="Trazado 778091" d="M10.33,57.661A5.33,5.33,0,1,0,5,52.33,5.336,5.336,0,0,0,10.33,57.661Zm0-8A2.665,2.665,0,1,1,7.665,52.33,2.668,2.668,0,0,1,10.33,49.665Z" transform="translate(0.33 14.3)"/>
      <ellipse id="Elipse_4197" data-name="Elipse 4197" cx="1.333" cy="1.333" rx="1.333" ry="1.333" transform="translate(37.313 47.974)"/>
      <path id="Trazado_778092" data-name="Trazado 778092" d="M57,57h2.665v2.665H57Z" transform="translate(17.625 17.626)"/>
      <path id="Trazado_778093" data-name="Trazado 778093" d="M57,53h2.665v2.665H57Z" transform="translate(17.625 16.295)"/>
    </g>
  </g>
</svg>
