<svg xmlns="http://www.w3.org/2000/svg" width="81.407" height="81.407" viewBox="0 0 81.407 81.407">
  <g id="cuero" transform="translate(0)">
    <g id="Grupo_1065260" data-name="Grupo 1065260" transform="translate(1.193 1.192)">
      <path id="Trazado_778106" data-name="Trazado 778106" d="M221.981,63.713a21.6,21.6,0,0,1-.554-34.692,4.046,4.046,0,0,0,1.244-4.853L220.9,20.175a4.033,4.033,0,0,0-5.151-2.125,16.694,16.694,0,0,1-6.092,1.145,16.758,16.758,0,0,1-14.975-9.231A4.524,4.524,0,0,0,190.627,7.5h-8.662c-17.872,19.286-12.914,57.8-1.027,76.546q.656.776,1.245,1.608a2.09,2.09,0,0,0,3.391,0,24.252,24.252,0,0,1,29.583-8.163,3.348,3.348,0,0,0,4.4-1.717l3.539-7.963a3.365,3.365,0,0,0-1.12-4.1ZM183.878,28.8A4.619,4.619,0,1,1,188.5,24.18,4.619,4.619,0,0,1,183.878,28.8Z" transform="translate(-144.367 -7.5)" fill="#df8a57"/>
      <path id="Trazado_778107" data-name="Trazado 778107" d="M44.07,84.046a24.25,24.25,0,0,0-28.338-6.555,3.348,3.348,0,0,1-4.4-1.717L7.788,67.811a3.365,3.365,0,0,1,1.12-4.1,21.572,21.572,0,0,0,9.01-17.553,21.563,21.563,0,0,0-8.456-17.14,4.046,4.046,0,0,1-1.244-4.853l1.774-3.993a4.033,4.033,0,0,1,5.151-2.125,16.694,16.694,0,0,0,6.092,1.145A16.758,16.758,0,0,0,36.21,9.963,4.524,4.524,0,0,1,40.262,7.5H45.1C35.24,28.636,35.406,62.265,44.07,84.046Z" transform="translate(-7.5 -7.5)" fill="#d97c41"/>
      <path id="Trazado_778108" data-name="Trazado 778108" d="M217.019,102.785a28.52,28.52,0,0,1-8.742-20.505,28.214,28.214,0,0,1,6.711-18.361,1.143,1.143,0,0,0-.967-1.883q-1.11.1-2.232.106a23.455,23.455,0,0,1-19.42-10.192,3.465,3.465,0,0,0-2.857-1.5h-7a3.44,3.44,0,0,0-1.189.211c-10.141,14.613-11.877,40.955-1.832,57.9a31.166,31.166,0,0,1,4.754,3.214,2.779,2.779,0,0,0,3.531,0,31.11,31.11,0,0,1,27.587-6.056,1.741,1.741,0,0,0,1.654-2.936ZM186.013,63.134a2.836,2.836,0,1,1,2.835-2.836A2.836,2.836,0,0,1,186.013,63.134Z" transform="translate(-146.502 -43.618)" fill="#e4996d"/>
      <path id="Trazado_778109" data-name="Trazado 778109" d="M82.663,109.68a31.1,31.1,0,0,0-22.833-2.842,1.741,1.741,0,0,1-1.653-2.936A28.527,28.527,0,0,0,66.918,83.4a28.217,28.217,0,0,0-6.711-18.361,1.143,1.143,0,0,1,.967-1.883c.738.07,1.484.106,2.232.106a23.456,23.456,0,0,0,19.42-10.194,3.456,3.456,0,0,1,1.668-1.289c-5.677,17.161-6.089,39.625-1.832,57.9Z" transform="translate(-49.671 -44.736)" fill="#df8a57"/>
      <g id="Grupo_1065259" data-name="Grupo 1065259" transform="translate(22.194 36.679)">
        <ellipse id="Elipse_4198" data-name="Elipse 4198" cx="4.667" cy="3.717" rx="4.667" ry="3.717" fill="#fff"/>
        <ellipse id="Elipse_4199" data-name="Elipse 4199" cx="4.667" cy="3.717" rx="4.667" ry="3.717" transform="translate(25.299)" fill="#fff"/>
      </g>
    </g>
    <g id="Grupo_1065267" data-name="Grupo 1065267" transform="translate(0 0)">
      <path id="Trazado_778110" data-name="Trazado 778110" d="M114.7,95.617a27.249,27.249,0,0,1-1.949-37.233,2.335,2.335,0,0,0-1.988-3.842c-.7.066-1.414.1-2.122.1A22.35,22.35,0,0,1,90.2,44.966a4.657,4.657,0,0,0-3.84-2.019h-7a4.656,4.656,0,0,0-3.84,2.019,22.351,22.351,0,0,1-18.439,9.675c-.708,0-1.422-.033-2.122-.1a2.335,2.335,0,0,0-1.988,3.842A27.249,27.249,0,0,1,51.03,95.617a2.934,2.934,0,0,0,2.782,4.95,29.918,29.918,0,0,1,26.533,5.824,3.988,3.988,0,0,0,5.042,0,29.918,29.918,0,0,1,26.533-5.824,2.934,2.934,0,0,0,2.782-4.95Zm-1.534,2.336a.548.548,0,0,1-.642.307,32.3,32.3,0,0,0-28.65,6.287,1.576,1.576,0,0,1-2.018,0,32.3,32.3,0,0,0-28.65-6.287.549.549,0,0,1-.523-.925,29.635,29.635,0,0,0,2.187-40.408c.732.065,1.477.1,2.217.1a24.736,24.736,0,0,0,20.405-10.71,2.272,2.272,0,0,1,1.874-.984h7a2.272,2.272,0,0,1,1.874.984,24.735,24.735,0,0,0,20.405,10.71c.738,0,1.482-.033,2.217-.1a29.634,29.634,0,0,0,2.187,40.408A.549.549,0,0,1,113.167,97.953Z" transform="translate(-42.162 -36.118)"/>
      <g id="Grupo_1065261" data-name="Grupo 1065261" transform="translate(36.675 13.845)">
        <path id="Trazado_778111" data-name="Trazado 778111" d="M234.694,95.128a4.028,4.028,0,1,1,4.028-4.028A4.033,4.033,0,0,1,234.694,95.128Zm0-5.67a1.643,1.643,0,1,0,1.643,1.643A1.645,1.645,0,0,0,234.694,89.458Z" transform="translate(-230.666 -87.073)"/>
      </g>
      <g id="Grupo_1065262" data-name="Grupo 1065262" transform="translate(29.581 34.91)">
        <path id="Trazado_778112" data-name="Trazado 778112" d="M187.237,223.853a1.193,1.193,0,0,1-1.193-1.193v-1.908a1.193,1.193,0,0,1,2.385,0v1.908A1.193,1.193,0,0,1,187.237,223.853Z" transform="translate(-186.044 -219.56)"/>
      </g>
      <g id="Grupo_1065263" data-name="Grupo 1065263" transform="translate(49.441 34.91)">
        <path id="Trazado_778113" data-name="Trazado 778113" d="M312.147,223.853a1.193,1.193,0,0,1-1.193-1.193v-1.908a1.193,1.193,0,0,1,2.385,0v1.908A1.193,1.193,0,0,1,312.147,223.853Z" transform="translate(-310.954 -219.56)"/>
      </g>
      <g id="Grupo_1065264" data-name="Grupo 1065264" transform="translate(36.893 36.761)">
        <path id="Trazado_778114" data-name="Trazado 778114" d="M235.844,234.781a4.665,4.665,0,0,1-3.517-1.6,1.193,1.193,0,0,1,1.8-1.567,2.277,2.277,0,0,0,3.438,0,1.193,1.193,0,0,1,1.8,1.567A4.666,4.666,0,0,1,235.844,234.781Z" transform="translate(-232.033 -231.203)"/>
      </g>
      <g id="Grupo_1065265" data-name="Grupo 1065265">
        <path id="Trazado_778115" data-name="Trazado 778115" d="M8.087,72.659a4.559,4.559,0,0,1-4.161-2.708L.387,61.987A4.577,4.577,0,0,1,1.9,56.438a20.477,20.477,0,0,0,8.514-16.585,20.279,20.279,0,0,0-7.99-16.194A5.227,5.227,0,0,1,.817,17.376l1.774-3.992a5.217,5.217,0,0,1,6.675-2.752,15.474,15.474,0,0,0,5.66,1.062A15.5,15.5,0,0,0,28.837,3.119,5.685,5.685,0,0,1,33.955,0h13.5A5.685,5.685,0,0,1,52.57,3.119a15.548,15.548,0,0,0,6.45,6.672,1.193,1.193,0,1,1-1.145,2.092A17.922,17.922,0,0,1,50.44,4.192a3.355,3.355,0,0,0-2.987-1.807h-13.5a3.355,3.355,0,0,0-2.987,1.807,17.872,17.872,0,0,1-16.041,9.888A17.853,17.853,0,0,1,8.4,12.853a2.835,2.835,0,0,0-3.627,1.5L3,18.344a2.849,2.849,0,0,0,.881,3.423A22.647,22.647,0,0,1,12.8,39.853,22.866,22.866,0,0,1,3.294,58.374a2.182,2.182,0,0,0-.727,2.644l3.539,7.964a2.155,2.155,0,0,0,2.833,1.11,25.237,25.237,0,0,1,10.287-2.169,25.641,25.641,0,0,1,4.565.411,1.192,1.192,0,1,1-.426,2.347,23.253,23.253,0,0,0-4.14-.372A22.867,22.867,0,0,0,9.9,72.273a4.478,4.478,0,0,1-1.818.386Z" transform="translate(0 0)"/>
      </g>
      <g id="Grupo_1065266" data-name="Grupo 1065266" transform="translate(27.736 10.271)">
        <path id="Trazado_778116" data-name="Trazado 778116" d="M187.409,135.736a3.274,3.274,0,0,1-2.668-1.37,23.124,23.124,0,0,0-9.584-7.8,1.193,1.193,0,1,1,.956-2.185,25.511,25.511,0,0,1,10.573,8.609.9.9,0,0,0,1.446,0,25.5,25.5,0,0,1,20.755-10.733,25.238,25.238,0,0,1,10.287,2.169,2.156,2.156,0,0,0,2.833-1.11l3.539-7.964a2.182,2.182,0,0,0-.727-2.644,22.793,22.793,0,0,1-.584-36.607,2.849,2.849,0,0,0,.881-3.423l-1.774-3.992a2.835,2.835,0,0,0-3.627-1.5,17.85,17.85,0,0,1-6.528,1.226,18.128,18.128,0,0,1-2.957-.245,1.192,1.192,0,1,1,.39-2.353,15.737,15.737,0,0,0,2.566.213,15.477,15.477,0,0,0,5.66-1.062,5.217,5.217,0,0,1,6.675,2.752L227.3,71.7a5.227,5.227,0,0,1-1.607,6.283,20.408,20.408,0,0,0,.523,32.779,4.577,4.577,0,0,1,1.514,5.549l-3.539,7.964a4.544,4.544,0,0,1-5.979,2.322,22.867,22.867,0,0,0-9.321-1.964,23.108,23.108,0,0,0-18.81,9.728A3.274,3.274,0,0,1,187.409,135.736Z" transform="translate(-174.441 -64.599)"/>
      </g>
    </g>
  </g>
</svg>
