<svg xmlns="http://www.w3.org/2000/svg" xmlns:xlink="http://www.w3.org/1999/xlink" width="279.38" height="491.206" viewBox="0 0 279.38 491.206">
  <defs>
    <clipPath id="clip-path">
      <rect id="Rectángulo_5369" data-name="Rectángulo 5369" width="82.221" height="93.08" fill="none"/>
    </clipPath>
  </defs>
  <g id="Grupo_1065321" data-name="Grupo 1065321" transform="translate(1902 11093.539)">
    <path id="Rectángulo_5358" data-name="Rectángulo 5358" d="M10,0H269.38a10,10,0,0,1,10,10V112a10,10,0,0,1-10,10H10A10,10,0,0,1,0,112V10A10,10,0,0,1,10,0Z" transform="translate(-1902 -11025.361)" fill="#baefe4"/>
    <path id="Trazado_103889" data-name="Trazado 103889" d="M378.412,582.659l-21.545-7.695h-27.7l-21.545,7.695L303,610.359l1.538,30.778v6.156h13.549l.3,12.311h18.466l6.154-4.616,6.156,4.616h18.461l.3-12.311h13.549v-6.161l1.538-30.778Z" transform="translate(-2104.974 -11661.695)" fill="#ccdce4"/>
    <path id="Trazado_103890" data-name="Trazado 103890" d="M333.718,588.916l-7.693,1.538L319.867,576.6l4.616-4.617Z" transform="translate(-2095.676 -11663.336)" fill="#abbac2"/>
    <path id="Trazado_103891" data-name="Trazado 103891" d="M328.8,588.916l7.695,1.538,6.156-13.851-4.616-4.617Z" transform="translate(-2090.753 -11663.336)" fill="#abbac2"/>
    <path id="Trazado_103892" data-name="Trazado 103892" d="M341.3,571.988l-3.357,6.156-5.877,10.773L326.2,578.144l-3.353-6.156Z" transform="translate(-2094.035 -11663.336)" fill="#7a8a99"/>
    <rect id="Rectángulo_5166" data-name="Rectángulo 5166" width="15.514" height="6.205" transform="translate(-1801.448 -11020.627)" fill="#d7e6eb"/>
    <rect id="Rectángulo_5167" data-name="Rectángulo 5167" width="12.411" height="6.205" transform="translate(-1736.293 -11020.627)" fill="#d7e6eb"/>
    <g id="Grupo_54934" data-name="Grupo 54934" transform="translate(-1803 -11093.539)">
      <g id="Grupo_55947" data-name="Grupo 55947">
        <g id="Grupo_55946" data-name="Grupo 55946" clip-path="url(#clip-path)">
          <g id="Grupo_54933" data-name="Grupo 54933" transform="translate(-0.497 0.653)">
            <path id="Trazado_103893" data-name="Trazado 103893" d="M336.76,575.956l-5.874,10.773-5.878-10.773Z" transform="translate(-289.345 -568.263)" fill="#3a312a"/>
            <path id="Trazado_103894" data-name="Trazado 103894" d="M385.108,612.623a1.662,1.662,0,0,0-.018-.329l-4.618-27.7a1.538,1.538,0,0,0-1-1.2l-21.217-7.579-4.374-4.371A1.537,1.537,0,0,0,352.8,571H334.333a1.538,1.538,0,0,0-1.086.451l-4.374,4.371L307.657,583.4a1.541,1.541,0,0,0-1,1.2l-4.616,27.7a1.455,1.455,0,0,0-.018.329l1.537,30.744v6.118a1.539,1.539,0,0,0,1.537,1.538h12.049l.263,10.809a1.54,1.54,0,0,0,1.538,1.5h18.461a1.553,1.553,0,0,0,.931-.31l5.231-3.925,5.231,3.925a1.546,1.546,0,0,0,.931.31h18.461a1.54,1.54,0,0,0,1.538-1.5l.264-10.809h12.047a1.54,1.54,0,0,0,1.538-1.539h0v-6.118Zm-41.549-26.373-3.283-6.019h6.564Zm9.6-11.169,2.414,2.414-5.225,11.76-4.43-.888Zm-2.959-1-1.677,3.078H338.6l-1.679-3.078Zm-16.239,1,7.248,13.286-4.435.887-5.227-11.76Zm-27.334,72.86v-3.078h10.358l.074,3.078Zm30.263,12.311H320.439l-1.5-61.588-3.078.074,1.052,43.053H306.55l-1.464-29.151L309.528,586l19.348-6.91,5.577,12.545a1.539,1.539,0,0,0,1.708.885l5.856-1.171v65.066Zm29.788,0H350.229L345.1,656.4V591.339l5.856,1.17a1.541,1.541,0,0,0,1.708-.885l5.577-12.545,19.348,6.91,4.442,26.644-1.464,29.151H370.2l1.052-43.053-3.078-.074Zm13.807-12.311H370.046l.074-3.078h10.358Z" transform="translate(-302.019 -570.997)" fill="#3a312a"/>
          </g>
        </g>
      </g>
    </g>
    <path id="Trazado_105702" data-name="Trazado 105702" d="M326.727,595.44a1.3,1.3,0,0,0-1.841,0l-1.684,1.684-1.684-1.684a1.3,1.3,0,1,0-1.841,1.841l1.684,1.684-1.684,1.684a1.3,1.3,0,1,0,1.841,1.841l1.684-1.684,1.684,1.684a1.3,1.3,0,1,0,1.841-1.841l-1.684-1.684,1.684-1.684A1.3,1.3,0,0,0,326.727,595.44Z" transform="translate(-2095.99 -11650.617)" fill="#3a312a"/>
    <g id="Grupo_55948" data-name="Grupo 55948" transform="translate(-1751.751 -11026.117)">
      <path id="Trazado_105703" data-name="Trazado 105703" d="M340.992,620.751a1.388,1.388,0,1,0,1.39,1.388,1.388,1.388,0,0,0-1.39-1.388Z" transform="translate(-333.043 -610.336)" fill="#3a312a"/>
      <path id="Trazado_105704" data-name="Trazado 105704" d="M336.763,617.394a1.388,1.388,0,1,0,1.388,1.388,1.388,1.388,0,0,0-1.388-1.388Z" transform="translate(-335.375 -612.186)" fill="#3a312a"/>
      <path id="Trazado_105705" data-name="Trazado 105705" d="M340.993,614.037a1.39,1.39,0,1,0,1.39,1.39,1.39,1.39,0,0,0-1.39-1.39Z" transform="translate(-333.043 -614.037)" fill="#3a312a"/>
    </g>
    <rect id="Rectángulo_5371" data-name="Rectángulo 5371" width="11.911" height="11.911" transform="translate(-1748.975 -11048.327)" fill="#ffb266"/>
    <path id="Trazado_105706" data-name="Trazado 105706" d="M349.344,613.859l2.251.044.3-14.884-2.251-.045v.09l-11.75-.234a1.125,1.125,0,0,0-1.148,1.1l-.061,3.023-.373-.007a1.126,1.126,0,0,0-.045,2.251l.376.007-.039,1.9-.376-.007a1.126,1.126,0,0,0-.044,2.251l.373.007-.059,3.023a1.125,1.125,0,0,0,1.1,1.147l11.75.234Zm.046-2.347-10.625-.211.039-1.9.373.007a1.126,1.126,0,1,0,.045-2.251l-.376-.006.039-1.9.376.007a1.126,1.126,0,0,0,.044-2.251l-.373-.007.038-1.9,10.625.211Z" transform="translate(-2087.283 -11648.537)" fill="#3a312a"/>
    <path id="Trazado_105707" data-name="Trazado 105707" d="M1341.88,459.205h42.666l-10.126-10.085,1.153-1.036,24.24,12.523-23.755,12.2c-.762-2.339-.762-2.339,8.884-10.614h-42.974Q1341.917,460.7,1341.88,459.205Z" transform="translate(-1301.192 -12221.067) rotate(90)" fill="#8c757e"/>
    <path id="Trazado_778136" data-name="Trazado 778136" d="M81.1,12.615a4.554,4.554,0,0,1-.728,2.549,4.741,4.741,0,0,1-2.075,1.724,7.533,7.533,0,0,1-3.135.61H73.871V22H69.652V8h5.742a6.8,6.8,0,0,1,4.331,1.123A4.256,4.256,0,0,1,81.1,12.615Zm-4.463.146a1.641,1.641,0,0,0-.5-1.3,2.152,2.152,0,0,0-1.465-.439h-.8V14.48h.947Q76.635,14.48,76.635,12.762Zm13.271,2.8a4,4,0,0,0-1.3-.283q-2.061,0-2.061,2.383V22h-4.16V12h4.16v1.758h.039a3.123,3.123,0,0,1,1.084-1.44,2.785,2.785,0,0,1,1.641-.493,1.409,1.409,0,0,1,.6.117Zm12.324,1.26A5.207,5.207,0,0,1,100.7,20.8a7.061,7.061,0,0,1-8.516.034,5.051,5.051,0,0,1-1.519-3.892,5.214,5.214,0,0,1,.713-2.764,4.636,4.636,0,0,1,2.031-1.8,7.012,7.012,0,0,1,3.037-.625,6.792,6.792,0,0,1,3.081.654,4.763,4.763,0,0,1,2,1.816A4.946,4.946,0,0,1,102.23,16.824Zm-4.219.02q0-2.041-1.562-2.041t-1.562,2.139q0,2.256,1.582,2.256Q98.012,19.2,98.012,16.844ZM110.463,22V20.838h-.039a3.433,3.433,0,0,1-1.3,1.03,3.7,3.7,0,0,1-1.582.376,4.07,4.07,0,0,1-2.256-.63,3.825,3.825,0,0,1-1.46-1.763,6.784,6.784,0,0,1-.483-2.676,6.583,6.583,0,0,1,.576-2.822,4.51,4.51,0,0,1,1.621-1.914,4.188,4.188,0,0,1,2.344-.684,3.547,3.547,0,0,1,1.138.176,3.078,3.078,0,0,1,.908.474,1.414,1.414,0,0,1,.493.591h.039V7.2h4.16V22Zm.088-5.3a2.194,2.194,0,0,0-.4-1.4,1.335,1.335,0,0,0-2.168.122,2.881,2.881,0,0,0-.425,1.655q0,2.119,1.465,2.119a1.3,1.3,0,0,0,1.108-.571,2.812,2.812,0,0,0,.415-1.665ZM122.992,22V20.457h-.039a5.473,5.473,0,0,1-.933,1.045,3.589,3.589,0,0,1-.937.537,3.315,3.315,0,0,1-1.216.205,3.025,3.025,0,0,1-2.5-1.064,4.921,4.921,0,0,1-.859-3.145V12h4.16v5.723q0,1.475,1.1,1.475a1.08,1.08,0,0,0,.913-.4,1.825,1.825,0,0,0,.308-1.133V12h4.16V22Zm14.395-.283a3.921,3.921,0,0,1-1.26.381,11.91,11.91,0,0,1-1.982.146,6.1,6.1,0,0,1-2.827-.64,4.667,4.667,0,0,1-1.929-1.792,4.975,4.975,0,0,1-.684-2.588,5.667,5.667,0,0,1,.728-2.944,4.743,4.743,0,0,1,2.075-1.875,7.119,7.119,0,0,1,3.125-.649,10.933,10.933,0,0,1,1.753.127,2.678,2.678,0,0,1,1,.293v3.242a2.889,2.889,0,0,0-.9-.43A3.609,3.609,0,0,0,135.4,14.8a2.639,2.639,0,0,0-1.851.581,2.114,2.114,0,0,0-.63,1.636,2.075,2.075,0,0,0,.62,1.606,2.419,2.419,0,0,0,1.7.571,4.244,4.244,0,0,0,2.139-.557Zm8.7.146a4.053,4.053,0,0,1-.928.259,8.482,8.482,0,0,1-1.553.122,3.73,3.73,0,0,1-2.72-.957,3.632,3.632,0,0,1-.981-2.725V14.881h-1.572V12h1.572V10.037l4.1-1.133V12h2.08v2.881h-2.08v3q0,1.318,1.045,1.318a2.835,2.835,0,0,0,1.035-.215Zm12.422-5.039a5.207,5.207,0,0,1-1.528,3.975,7.061,7.061,0,0,1-8.516.034,5.051,5.051,0,0,1-1.519-3.892,5.214,5.214,0,0,1,.713-2.764,4.636,4.636,0,0,1,2.031-1.8,7.012,7.012,0,0,1,3.037-.625,6.792,6.792,0,0,1,3.081.654,4.763,4.763,0,0,1,2,1.816A4.946,4.946,0,0,1,158.51,16.824Zm-4.219.02q0-2.041-1.562-2.041t-1.562,2.139q0,2.256,1.582,2.256Q154.291,19.2,154.291,16.844Zm13.9,1.836a3.054,3.054,0,0,1-1.294,2.632,6.082,6.082,0,0,1-3.608.933,12.546,12.546,0,0,1-1.665-.137A10.286,10.286,0,0,1,160,21.775v-2.92a7.958,7.958,0,0,0,3.086.82q1.221,0,1.221-.635a.5.5,0,0,0-.283-.435,10.01,10.01,0,0,0-1.484-.571,4.192,4.192,0,0,1-1.934-1.113A2.647,2.647,0,0,1,160,15.115a2.883,2.883,0,0,1,1.235-2.456,5.8,5.8,0,0,1,3.472-.9,11.035,11.035,0,0,1,2.773.381v2.8a8.387,8.387,0,0,0-1.348-.439,5.443,5.443,0,0,0-1.23-.176,1.339,1.339,0,0,0-.654.137.421.421,0,0,0-.244.381.531.531,0,0,0,.264.459,4.664,4.664,0,0,0,1.055.42,4.894,4.894,0,0,1,2.2,1.152A2.525,2.525,0,0,1,168.188,18.68ZM10.087,49V47.838h-.039a3.433,3.433,0,0,1-1.3,1.03,3.7,3.7,0,0,1-1.582.376,4.07,4.07,0,0,1-2.256-.63,3.825,3.825,0,0,1-1.46-1.763,6.784,6.784,0,0,1-.483-2.676,6.583,6.583,0,0,1,.576-2.822,4.51,4.51,0,0,1,1.621-1.914,4.188,4.188,0,0,1,2.344-.684,3.547,3.547,0,0,1,1.138.176,3.078,3.078,0,0,1,.908.474,1.414,1.414,0,0,1,.493.591h.039V34.2h4.16V49Zm.088-5.3a2.194,2.194,0,0,0-.4-1.4,1.335,1.335,0,0,0-2.168.122,2.881,2.881,0,0,0-.425,1.655q0,2.119,1.465,2.119a1.3,1.3,0,0,0,1.108-.571,2.812,2.812,0,0,0,.415-1.665Zm9.658,1.484a1.405,1.405,0,0,0,.742,1.011,3.347,3.347,0,0,0,1.68.366A6.917,6.917,0,0,0,25.009,46v2.637a9.9,9.9,0,0,1-3.672.605,5.794,5.794,0,0,1-4.072-1.338,4.753,4.753,0,0,1-1.455-3.682,6.074,6.074,0,0,1,.64-2.842,4.6,4.6,0,0,1,1.895-1.929,5.6,5.6,0,0,1,2.769-.7,5.447,5.447,0,0,1,2.656.605,4.033,4.033,0,0,1,1.675,1.7,5.452,5.452,0,0,1,.571,2.559v1.563ZM22.333,43q0-1.729-1.24-1.729a1.049,1.049,0,0,0-.869.474A2.364,2.364,0,0,0,19.813,43ZM35.575,45.68a3.054,3.054,0,0,1-1.294,2.632,6.082,6.082,0,0,1-3.608.933,12.546,12.546,0,0,1-1.665-.137,10.286,10.286,0,0,1-1.616-.332v-2.92a7.958,7.958,0,0,0,3.086.82q1.221,0,1.221-.635a.5.5,0,0,0-.283-.435,10.01,10.01,0,0,0-1.484-.571A4.192,4.192,0,0,1,28,43.922a2.647,2.647,0,0,1-.605-1.807,2.883,2.883,0,0,1,1.235-2.456,5.8,5.8,0,0,1,3.472-.9,11.035,11.035,0,0,1,2.773.381v2.8a8.387,8.387,0,0,0-1.348-.439,5.443,5.443,0,0,0-1.23-.176,1.339,1.339,0,0,0-.654.137.421.421,0,0,0-.244.381.531.531,0,0,0,.264.459,4.664,4.664,0,0,0,1.055.42,4.894,4.894,0,0,1,2.2,1.152A2.525,2.525,0,0,1,35.575,45.68Zm9.238-8.457a3.665,3.665,0,0,0-1.2-.225,1.338,1.338,0,0,0-1.025.356,1.355,1.355,0,0,0-.332.962V39h2.314v2.881H42.255V49h-4.16V41.881h-1.68V39h1.68v-.918a4.065,4.065,0,0,1,.566-2.153,3.778,3.778,0,0,1,1.646-1.45,6.025,6.025,0,0,1,2.622-.518,7.118,7.118,0,0,1,1.885.215ZM51.278,49V47.477h-.039a3.272,3.272,0,0,1-3.047,1.768,2.917,2.917,0,0,1-2.217-.84,3.12,3.12,0,0,1-.8-2.246q0-2.949,3.623-3.418l2.48-.322a.946.946,0,0,0-.439-.8,2,2,0,0,0-1.182-.312,7.783,7.783,0,0,0-3.545.957V39.557a9.483,9.483,0,0,1,2.031-.576,11.822,11.822,0,0,1,2.09-.225,5.247,5.247,0,0,1,3.7,1.089,4.853,4.853,0,0,1,1.147,3.638V49Zm-2.461-3.4a.922.922,0,0,0,.259.674.987.987,0,0,0,.737.264,1.311,1.311,0,0,0,1.06-.488,1.892,1.892,0,0,0,.405-1.25V44.42l-1.406.2Q48.817,44.791,48.817,45.6Zm16.26.078a3.054,3.054,0,0,1-1.294,2.632,6.082,6.082,0,0,1-3.608.933,12.546,12.546,0,0,1-1.665-.137,10.286,10.286,0,0,1-1.616-.332v-2.92a7.958,7.958,0,0,0,3.086.82q1.221,0,1.221-.635a.5.5,0,0,0-.283-.435,10.01,10.01,0,0,0-1.484-.571A4.192,4.192,0,0,1,57.5,43.922a2.647,2.647,0,0,1-.605-1.807,2.883,2.883,0,0,1,1.235-2.456,5.8,5.8,0,0,1,3.472-.9,11.035,11.035,0,0,1,2.773.381v2.8a8.387,8.387,0,0,0-1.348-.439,5.443,5.443,0,0,0-1.23-.176,1.339,1.339,0,0,0-.654.137.421.421,0,0,0-.244.381.531.531,0,0,0,.264.459,4.664,4.664,0,0,0,1.055.42,4.894,4.894,0,0,1,2.2,1.152A2.525,2.525,0,0,1,65.077,45.68ZM72.157,49V47.477h-.039a3.272,3.272,0,0,1-3.047,1.768,2.917,2.917,0,0,1-2.217-.84,3.12,3.12,0,0,1-.8-2.246q0-2.949,3.623-3.418l2.48-.322a.946.946,0,0,0-.439-.8,2,2,0,0,0-1.182-.312,7.783,7.783,0,0,0-3.545.957V39.557a9.483,9.483,0,0,1,2.031-.576,11.822,11.822,0,0,1,2.09-.225,5.247,5.247,0,0,1,3.7,1.089,4.853,4.853,0,0,1,1.147,3.638V49ZM69.7,45.6a.922.922,0,0,0,.259.674.987.987,0,0,0,.737.264,1.311,1.311,0,0,0,1.06-.488,1.892,1.892,0,0,0,.405-1.25V44.42l-1.406.2Q69.7,44.791,69.7,45.6ZM84.511,49V47.838h-.039a3.433,3.433,0,0,1-1.3,1.03,3.7,3.7,0,0,1-1.582.376,4.07,4.07,0,0,1-2.256-.63,3.825,3.825,0,0,1-1.46-1.763,6.784,6.784,0,0,1-.483-2.676,6.583,6.583,0,0,1,.576-2.822,4.51,4.51,0,0,1,1.621-1.914,4.188,4.188,0,0,1,2.344-.684,3.547,3.547,0,0,1,1.138.176,3.078,3.078,0,0,1,.908.474,1.414,1.414,0,0,1,.493.591h.039V34.2h4.16V49Zm.088-5.3a2.194,2.194,0,0,0-.4-1.4,1.335,1.335,0,0,0-2.168.122,2.881,2.881,0,0,0-.425,1.655q0,2.119,1.465,2.119a1.3,1.3,0,0,0,1.108-.571,2.812,2.812,0,0,0,.415-1.665Zm17.2.127a5.207,5.207,0,0,1-1.528,3.975,7.061,7.061,0,0,1-8.516.034,5.051,5.051,0,0,1-1.519-3.892,5.214,5.214,0,0,1,.713-2.764,4.636,4.636,0,0,1,2.031-1.8,7.012,7.012,0,0,1,3.037-.625,6.792,6.792,0,0,1,3.081.654,4.763,4.763,0,0,1,2,1.816A4.946,4.946,0,0,1,101.8,43.824Zm-4.219.02q0-2.041-1.562-2.041t-1.562,2.139q0,2.256,1.582,2.256Q97.577,46.2,97.577,43.844Zm13.9,1.836a3.054,3.054,0,0,1-1.294,2.632,6.082,6.082,0,0,1-3.608.933,12.546,12.546,0,0,1-1.665-.137,10.286,10.286,0,0,1-1.616-.332v-2.92a7.958,7.958,0,0,0,3.086.82q1.221,0,1.221-.635a.5.5,0,0,0-.283-.435,10.01,10.01,0,0,0-1.484-.571,4.192,4.192,0,0,1-1.934-1.113,2.647,2.647,0,0,1-.605-1.807,2.883,2.883,0,0,1,1.235-2.456,5.8,5.8,0,0,1,3.472-.9,11.035,11.035,0,0,1,2.773.381v2.8a8.387,8.387,0,0,0-1.348-.439,5.443,5.443,0,0,0-1.23-.176,1.339,1.339,0,0,0-.654.137.421.421,0,0,0-.244.381.531.531,0,0,0,.264.459,4.664,4.664,0,0,0,1.055.42,4.894,4.894,0,0,1,2.2,1.152A2.525,2.525,0,0,1,111.474,45.68Zm9.092,5.645H116.9L123.827,35h3.662ZM140.438,49V47.838H140.4a3.433,3.433,0,0,1-1.3,1.03,3.7,3.7,0,0,1-1.582.376,4.07,4.07,0,0,1-2.256-.63,3.825,3.825,0,0,1-1.46-1.763,6.784,6.784,0,0,1-.483-2.676,6.583,6.583,0,0,1,.576-2.822,4.51,4.51,0,0,1,1.621-1.914,4.188,4.188,0,0,1,2.344-.684,3.547,3.547,0,0,1,1.138.176,3.078,3.078,0,0,1,.908.474A1.414,1.414,0,0,1,140.4,40h.039V34.2h4.16V49Zm.088-5.3a2.194,2.194,0,0,0-.4-1.4,1.335,1.335,0,0,0-2.168.122,2.881,2.881,0,0,0-.425,1.655q0,2.119,1.465,2.119a1.3,1.3,0,0,0,1.108-.571,2.812,2.812,0,0,0,.415-1.665Zm9.658,1.484a1.405,1.405,0,0,0,.742,1.011,3.347,3.347,0,0,0,1.68.366A6.917,6.917,0,0,0,155.36,46v2.637a9.9,9.9,0,0,1-3.672.605,5.794,5.794,0,0,1-4.072-1.338,4.753,4.753,0,0,1-1.455-3.682,6.074,6.074,0,0,1,.64-2.842,4.6,4.6,0,0,1,1.895-1.929,5.6,5.6,0,0,1,2.769-.7,5.447,5.447,0,0,1,2.656.605,4.033,4.033,0,0,1,1.675,1.7,5.452,5.452,0,0,1,.571,2.559v1.563Zm2.5-2.178q0-1.729-1.24-1.729a1.049,1.049,0,0,0-.869.474,2.364,2.364,0,0,0-.41,1.255Zm13.242,2.676a3.054,3.054,0,0,1-1.294,2.632,6.082,6.082,0,0,1-3.608.933,12.546,12.546,0,0,1-1.665-.137,10.286,10.286,0,0,1-1.616-.332v-2.92a7.958,7.958,0,0,0,3.086.82q1.221,0,1.221-.635a.5.5,0,0,0-.283-.435,10.01,10.01,0,0,0-1.484-.571,4.192,4.192,0,0,1-1.934-1.113,2.647,2.647,0,0,1-.605-1.807,2.883,2.883,0,0,1,1.235-2.456,5.8,5.8,0,0,1,3.472-.9,11.035,11.035,0,0,1,2.773.381v2.8a8.387,8.387,0,0,0-1.348-.439,5.443,5.443,0,0,0-1.23-.176,1.339,1.339,0,0,0-.654.137.421.421,0,0,0-.244.381.531.531,0,0,0,.264.459,4.664,4.664,0,0,0,1.055.42,4.894,4.894,0,0,1,2.2,1.152A2.525,2.525,0,0,1,165.927,45.68ZM173.905,49V43.3q0-1.494-1.143-1.494a.968.968,0,0,0-.85.425,1.877,1.877,0,0,0-.293,1.089V49h-4.16V34.2h4.16v6.162h.039a3.767,3.767,0,0,1,1.3-1.187,3.4,3.4,0,0,1,1.646-.415,3.005,3.005,0,0,1,2.471,1.04,4.748,4.748,0,0,1,.85,3.062V49Zm9.482-3.818a1.405,1.405,0,0,0,.742,1.011,3.347,3.347,0,0,0,1.68.366A6.917,6.917,0,0,0,188.563,46v2.637a9.9,9.9,0,0,1-3.672.605,5.794,5.794,0,0,1-4.072-1.338,4.753,4.753,0,0,1-1.455-3.682,6.074,6.074,0,0,1,.64-2.842,4.6,4.6,0,0,1,1.895-1.929,5.6,5.6,0,0,1,2.769-.7,5.447,5.447,0,0,1,2.656.605,4.033,4.033,0,0,1,1.675,1.7,5.452,5.452,0,0,1,.571,2.559v1.563Zm2.5-2.178q0-1.729-1.24-1.729a1.049,1.049,0,0,0-.869.474,2.364,2.364,0,0,0-.41,1.255Zm13.359,5.713a3.921,3.921,0,0,1-1.26.381,11.91,11.91,0,0,1-1.982.146,6.1,6.1,0,0,1-2.827-.64,4.667,4.667,0,0,1-1.929-1.792,4.975,4.975,0,0,1-.684-2.588,5.667,5.667,0,0,1,.728-2.944,4.743,4.743,0,0,1,2.075-1.875,7.119,7.119,0,0,1,3.125-.649,10.932,10.932,0,0,1,1.753.127,2.678,2.678,0,0,1,1,.293v3.242a2.889,2.889,0,0,0-.9-.43,3.609,3.609,0,0,0-1.084-.186,2.639,2.639,0,0,0-1.851.581,2.114,2.114,0,0,0-.63,1.636,2.075,2.075,0,0,0,.62,1.606,2.419,2.419,0,0,0,1.7.571,4.244,4.244,0,0,0,2.139-.557Zm8.105.283V43.3q0-1.494-1.143-1.494a.968.968,0,0,0-.85.425,1.877,1.877,0,0,0-.293,1.089V49h-4.16V34.2h4.16v6.162h.039a3.767,3.767,0,0,1,1.3-1.187,3.4,3.4,0,0,1,1.646-.415,3.005,3.005,0,0,1,2.471,1.04,4.748,4.748,0,0,1,.85,3.062V49Zm17.021-5.176a5.207,5.207,0,0,1-1.528,3.975,7.061,7.061,0,0,1-8.516.034,5.051,5.051,0,0,1-1.519-3.892,5.214,5.214,0,0,1,.713-2.764,4.636,4.636,0,0,1,2.031-1.8,7.012,7.012,0,0,1,3.037-.625,6.792,6.792,0,0,1,3.081.654,4.763,4.763,0,0,1,2,1.816A4.946,4.946,0,0,1,224.374,43.824Zm-4.219.02q0-2.041-1.562-2.041t-1.562,2.139q0,2.256,1.582,2.256Q220.155,46.2,220.155,43.844Zm13.9,1.836a3.054,3.054,0,0,1-1.294,2.632,6.082,6.082,0,0,1-3.608.933,12.546,12.546,0,0,1-1.665-.137,10.286,10.286,0,0,1-1.616-.332v-2.92a7.958,7.958,0,0,0,3.086.82q1.221,0,1.221-.635a.5.5,0,0,0-.283-.435,10.01,10.01,0,0,0-1.484-.571,4.192,4.192,0,0,1-1.934-1.113,2.647,2.647,0,0,1-.605-1.807,2.883,2.883,0,0,1,1.235-2.456,5.8,5.8,0,0,1,3.472-.9,11.035,11.035,0,0,1,2.773.381v2.8A8.387,8.387,0,0,0,232,41.5a5.443,5.443,0,0,0-1.23-.176,1.339,1.339,0,0,0-.654.137.421.421,0,0,0-.244.381.531.531,0,0,0,.264.459,4.664,4.664,0,0,0,1.055.42,4.894,4.894,0,0,1,2.2,1.152A2.525,2.525,0,0,1,234.052,45.68Z" transform="translate(-1880 -10976.648)" fill="#12263f"/>
    <path id="Rectángulo_5359" data-name="Rectángulo 5359" d="M10,0H243.76a10,10,0,0,1,10,10V112a10,10,0,0,1-10,10H10A10,10,0,0,1,0,112V10A10,10,0,0,1,10,0Z" transform="translate(-1889 -10724.333)" fill="#73d8c0"/>
    <g id="Grupo_55942" data-name="Grupo 55942" transform="translate(-1746.926 -10821.255)">
      <path id="Trazado_105428" data-name="Trazado 105428" d="M441.239,556.7s2.208,8.2,8.564,8.575c0,0-8.489,2.928-8.632,9.2,0,0-1.671-8.784-8.373-9.1,0,0,7.808-1.183,8.436-8.669Z" transform="translate(-420.247 -549.48)" fill="#fcb268"/>
      <path id="Trazado_105429" data-name="Trazado 105429" d="M441.517,575.786a.976.976,0,0,1-.953-.787c-.017-.081-1.616-8.039-7.465-8.313a.969.969,0,0,1-.1-1.925c.287-.046,7.049-1.177,7.615-7.791a.976.976,0,0,1,1.047-.886h0a.969.969,0,0,1,.854.712c.021.076,2.112,7.527,7.686,7.86a.976.976,0,0,1,.913,1.027h0a.976.976,0,0,1-.653.864c-.078.024-7.849,2.789-7.975,8.3a.969.969,0,0,1-.889.947h-.084ZM436.5,565.6a11.346,11.346,0,0,1,4.914,5.755,13.844,13.844,0,0,1,5.8-5.457,11.834,11.834,0,0,1-5.392-5.649,10.41,10.41,0,0,1-5.313,5.357Z" transform="translate(-420.591 -549.822)" fill="#3a312a"/>
      <path id="Trazado_105430" data-name="Trazado 105430" d="M431.3,563.79s1.56,5.8,6.056,6.066c0,0-6,2.074-6.1,6.5,0,0-1.181-6.222-5.919-6.438C425.333,569.92,430.851,569.086,431.3,563.79Z" transform="translate(-424.363 -545.572)" fill="#fcb268"/>
      <path id="Trazado_105431" data-name="Trazado 105431" d="M431.589,577.672a.976.976,0,0,1-.953-.789c-.01-.054-1.1-5.468-5.014-5.65a.976.976,0,0,1-.1-1.93c.193-.031,4.77-.805,5.145-5.255a.976.976,0,0,1,1.906-.166c.013.051,1.438,5.124,5.18,5.351a.976.976,0,0,1,.912,1.027h0a.976.976,0,0,1-.653.864c-.054.017-5.368,1.913-5.451,5.612a.976.976,0,0,1-.891.948Zm-2.921-7.464a8.3,8.3,0,0,1,2.878,3.416,10.126,10.126,0,0,1,3.475-3.222,8.663,8.663,0,0,1-3.2-3.381,7.732,7.732,0,0,1-3.154,3.182Z" transform="translate(-424.702 -545.913)" fill="#3a312a"/>
      <path id="Trazado_105432" data-name="Trazado 105432" d="M431.3,552.664s1.56,5.8,6.056,6.067c0,0-6,2.074-6.1,6.5,0,0-1.181-6.222-5.919-6.438C425.333,558.8,430.851,557.96,431.3,552.664Z" transform="translate(-424.363 -551.706)" fill="#fcb268"/>
      <path id="Trazado_105433" data-name="Trazado 105433" d="M431.6,566.548a.976.976,0,0,1-.953-.791c-.01-.051-1.1-5.467-5.014-5.65a.969.969,0,0,1-.1-1.925c.193-.03,4.77-.805,5.145-5.246a.976.976,0,0,1,1.912-.176c.016.051,1.44,5.124,5.18,5.353a.976.976,0,0,1,.259,1.892c-.052.018-5.368,1.913-5.45,5.612a.976.976,0,0,1-.891.947h-.081Zm-2.921-7.465a8.3,8.3,0,0,1,2.878,3.416,10.174,10.174,0,0,1,3.475-3.218,8.654,8.654,0,0,1-3.2-3.383,7.737,7.737,0,0,1-3.154,3.183Z" transform="translate(-424.709 -552.048)" fill="#3a312a"/>
    </g>
    <path id="Trazado_103889-2" data-name="Trazado 103889" d="M461.412,582.659l-21.545-7.695h-27.7l-21.545,7.695L386,610.359l1.538,30.778v6.156h13.549l.3,12.311h18.466l6.156-4.616,6.154,4.616h18.461l.3-12.311h13.549v-6.161l1.538-30.778Z" transform="translate(-2192.974 -11360.667)" fill="#8bbed5"/>
    <path id="Trazado_103890-2" data-name="Trazado 103890" d="M416.718,588.916l-7.693,1.538L402.867,576.6l4.618-4.617Z" transform="translate(-2183.676 -11362.308)" fill="#8bbed5"/>
    <path id="Trazado_103891-2" data-name="Trazado 103891" d="M411.8,588.916l7.695,1.538,6.156-13.851-4.616-4.617Z" transform="translate(-2178.754 -11362.308)" fill="#8bbed5"/>
    <path id="Trazado_103892-2" data-name="Trazado 103892" d="M424.3,571.988l-3.357,6.156-5.874,10.773L409.2,578.144l-3.351-6.156Z" transform="translate(-2182.035 -11362.308)" fill="#7a8a99"/>
    <rect id="Rectángulo_5166-2" data-name="Rectángulo 5166" width="15.514" height="6.205" transform="translate(-1806.448 -10719.598)" fill="#8bbed5"/>
    <rect id="Rectángulo_5167-2" data-name="Rectángulo 5167" width="12.411" height="6.205" transform="translate(-1741.293 -10719.598)" fill="#8bbed5"/>
    <g id="Grupo_54934-2" data-name="Grupo 54934" transform="translate(-1808 -10792.51)">
      <g id="Grupo_55944" data-name="Grupo 55944">
        <g id="Grupo_55943" data-name="Grupo 55943" clip-path="url(#clip-path)">
          <g id="Grupo_54933-2" data-name="Grupo 54933" transform="translate(-0.498 0.653)">
            <path id="Trazado_103893-2" data-name="Trazado 103893" d="M419.76,575.956l-5.874,10.773-5.878-10.773Z" transform="translate(-372.344 -568.263)" fill="#3a312a"/>
            <path id="Trazado_103894-2" data-name="Trazado 103894" d="M468.108,612.623a1.664,1.664,0,0,0-.018-.329l-4.618-27.7a1.538,1.538,0,0,0-1-1.2l-21.217-7.579-4.374-4.371A1.538,1.538,0,0,0,435.8,571H417.333a1.531,1.531,0,0,0-1.085.451l-4.374,4.371L390.656,583.4a1.541,1.541,0,0,0-1,1.2l-4.616,27.7a1.464,1.464,0,0,0-.018.329l1.537,30.744v6.118a1.538,1.538,0,0,0,1.537,1.538h12.049l.264,10.809a1.54,1.54,0,0,0,1.538,1.5h18.461a1.553,1.553,0,0,0,.931-.31l5.231-3.925,5.231,3.925a1.546,1.546,0,0,0,.931.31h18.462a1.54,1.54,0,0,0,1.538-1.5L453,651.024h12.047a1.54,1.54,0,0,0,1.538-1.539h0v-6.118Zm-41.55-26.373-3.283-6.019h6.564Zm9.6-11.169,2.414,2.414-5.226,11.76-4.431-.888Zm-2.96-1-1.678,3.078H421.6l-1.679-3.078Zm-16.239,1,7.248,13.286-4.435.887-5.226-11.76Zm-27.334,72.86v-3.078h10.358l.074,3.078Zm30.262,12.311H403.439l-1.5-61.588-3.078.074,1.052,43.053H389.55l-1.464-29.151L392.528,586l19.348-6.91,5.577,12.545a1.539,1.539,0,0,0,1.708.885l5.856-1.171v65.066Zm29.785,0H433.229L428.1,656.4V591.339l5.856,1.17a1.541,1.541,0,0,0,1.708-.885l5.577-12.545,19.348,6.91,4.442,26.644-1.464,29.151H453.2l1.052-43.053-3.078-.074Zm13.807-12.311H453.044l.074-3.078h10.36Z" transform="translate(-385.018 -570.997)" fill="#3a312a"/>
          </g>
        </g>
      </g>
    </g>
    <rect id="Rectángulo_5168" data-name="Rectángulo 5168" width="4.654" height="1.552" transform="translate(-1775.422 -10764.586)" fill="#3a312a"/>
    <rect id="Rectángulo_5169" data-name="Rectángulo 5169" width="4.654" height="1.552" transform="translate(-1775.422 -10752.175)" fill="#3a312a"/>
    <rect id="Rectángulo_5170" data-name="Rectángulo 5170" width="4.654" height="1.552" transform="translate(-1775.422 -10739.765)" fill="#3a312a"/>
    <rect id="Rectángulo_5171" data-name="Rectángulo 5171" width="4.654" height="3.102" transform="translate(-1775.422 -10728.906)" fill="#3a312a"/>
    <rect id="Rectángulo_5172" data-name="Rectángulo 5172" width="4.654" height="3.102" transform="translate(-1775.422 -10716.495)" fill="#3a312a"/>
    <path id="Trazado_778137" data-name="Trazado 778137" d="M81.1,12.615a4.554,4.554,0,0,1-.728,2.549,4.741,4.741,0,0,1-2.075,1.724,7.533,7.533,0,0,1-3.135.61H73.871V22H69.652V8h5.742a6.8,6.8,0,0,1,4.331,1.123A4.256,4.256,0,0,1,81.1,12.615Zm-4.463.146a1.641,1.641,0,0,0-.5-1.3,2.152,2.152,0,0,0-1.465-.439h-.8V14.48h.947Q76.635,14.48,76.635,12.762Zm13.271,2.8a4,4,0,0,0-1.3-.283q-2.061,0-2.061,2.383V22h-4.16V12h4.16v1.758h.039a3.123,3.123,0,0,1,1.084-1.44,2.785,2.785,0,0,1,1.641-.493,1.409,1.409,0,0,1,.6.117Zm12.324,1.26A5.207,5.207,0,0,1,100.7,20.8a7.061,7.061,0,0,1-8.516.034,5.051,5.051,0,0,1-1.519-3.892,5.214,5.214,0,0,1,.713-2.764,4.636,4.636,0,0,1,2.031-1.8,7.012,7.012,0,0,1,3.037-.625,6.792,6.792,0,0,1,3.081.654,4.763,4.763,0,0,1,2,1.816A4.946,4.946,0,0,1,102.23,16.824Zm-4.219.02q0-2.041-1.562-2.041t-1.562,2.139q0,2.256,1.582,2.256Q98.012,19.2,98.012,16.844ZM110.463,22V20.838h-.039a3.433,3.433,0,0,1-1.3,1.03,3.7,3.7,0,0,1-1.582.376,4.07,4.07,0,0,1-2.256-.63,3.825,3.825,0,0,1-1.46-1.763,6.784,6.784,0,0,1-.483-2.676,6.583,6.583,0,0,1,.576-2.822,4.51,4.51,0,0,1,1.621-1.914,4.188,4.188,0,0,1,2.344-.684,3.547,3.547,0,0,1,1.138.176,3.078,3.078,0,0,1,.908.474,1.414,1.414,0,0,1,.493.591h.039V7.2h4.16V22Zm.088-5.3a2.194,2.194,0,0,0-.4-1.4,1.335,1.335,0,0,0-2.168.122,2.881,2.881,0,0,0-.425,1.655q0,2.119,1.465,2.119a1.3,1.3,0,0,0,1.108-.571,2.812,2.812,0,0,0,.415-1.665ZM122.992,22V20.457h-.039a5.473,5.473,0,0,1-.933,1.045,3.589,3.589,0,0,1-.937.537,3.315,3.315,0,0,1-1.216.205,3.025,3.025,0,0,1-2.5-1.064,4.921,4.921,0,0,1-.859-3.145V12h4.16v5.723q0,1.475,1.1,1.475a1.08,1.08,0,0,0,.913-.4,1.825,1.825,0,0,0,.308-1.133V12h4.16V22Zm14.395-.283a3.921,3.921,0,0,1-1.26.381,11.91,11.91,0,0,1-1.982.146,6.1,6.1,0,0,1-2.827-.64,4.667,4.667,0,0,1-1.929-1.792,4.975,4.975,0,0,1-.684-2.588,5.667,5.667,0,0,1,.728-2.944,4.743,4.743,0,0,1,2.075-1.875,7.119,7.119,0,0,1,3.125-.649,10.933,10.933,0,0,1,1.753.127,2.678,2.678,0,0,1,1,.293v3.242a2.889,2.889,0,0,0-.9-.43A3.609,3.609,0,0,0,135.4,14.8a2.639,2.639,0,0,0-1.851.581,2.114,2.114,0,0,0-.63,1.636,2.075,2.075,0,0,0,.62,1.606,2.419,2.419,0,0,0,1.7.571,4.244,4.244,0,0,0,2.139-.557Zm8.7.146a4.053,4.053,0,0,1-.928.259,8.482,8.482,0,0,1-1.553.122,3.73,3.73,0,0,1-2.72-.957,3.632,3.632,0,0,1-.981-2.725V14.881h-1.572V12h1.572V10.037l4.1-1.133V12h2.08v2.881h-2.08v3q0,1.318,1.045,1.318a2.835,2.835,0,0,0,1.035-.215Zm12.422-5.039a5.207,5.207,0,0,1-1.528,3.975,7.061,7.061,0,0,1-8.516.034,5.051,5.051,0,0,1-1.519-3.892,5.214,5.214,0,0,1,.713-2.764,4.636,4.636,0,0,1,2.031-1.8,7.012,7.012,0,0,1,3.037-.625,6.792,6.792,0,0,1,3.081.654,4.763,4.763,0,0,1,2,1.816A4.946,4.946,0,0,1,158.51,16.824Zm-4.219.02q0-2.041-1.562-2.041t-1.562,2.139q0,2.256,1.582,2.256Q154.291,19.2,154.291,16.844Zm13.9,1.836a3.054,3.054,0,0,1-1.294,2.632,6.082,6.082,0,0,1-3.608.933,12.546,12.546,0,0,1-1.665-.137A10.286,10.286,0,0,1,160,21.775v-2.92a7.958,7.958,0,0,0,3.086.82q1.221,0,1.221-.635a.5.5,0,0,0-.283-.435,10.01,10.01,0,0,0-1.484-.571,4.192,4.192,0,0,1-1.934-1.113A2.647,2.647,0,0,1,160,15.115a2.883,2.883,0,0,1,1.235-2.456,5.8,5.8,0,0,1,3.472-.9,11.035,11.035,0,0,1,2.773.381v2.8a8.387,8.387,0,0,0-1.348-.439,5.443,5.443,0,0,0-1.23-.176,1.339,1.339,0,0,0-.654.137.421.421,0,0,0-.244.381.531.531,0,0,0,.264.459,4.664,4.664,0,0,0,1.055.42,4.894,4.894,0,0,1,2.2,1.152A2.525,2.525,0,0,1,168.188,18.68ZM39.623,48.717a3.922,3.922,0,0,1-1.26.381,11.91,11.91,0,0,1-1.982.146,6.1,6.1,0,0,1-2.827-.64,4.667,4.667,0,0,1-1.929-1.792,4.975,4.975,0,0,1-.684-2.588,5.667,5.667,0,0,1,.728-2.944,4.743,4.743,0,0,1,2.075-1.875,7.119,7.119,0,0,1,3.125-.649,10.933,10.933,0,0,1,1.753.127,2.678,2.678,0,0,1,1,.293v3.242a2.889,2.889,0,0,0-.9-.43,3.609,3.609,0,0,0-1.084-.186,2.639,2.639,0,0,0-1.851.581,2.114,2.114,0,0,0-.63,1.636,2.075,2.075,0,0,0,.62,1.606,2.419,2.419,0,0,0,1.7.571,4.244,4.244,0,0,0,2.139-.557Zm12.783-4.893A5.207,5.207,0,0,1,50.878,47.8a5.972,5.972,0,0,1-4.272,1.445,6,6,0,0,1-4.243-1.411,5.051,5.051,0,0,1-1.519-3.892,5.214,5.214,0,0,1,.713-2.764,4.636,4.636,0,0,1,2.031-1.8,7.012,7.012,0,0,1,3.037-.625,6.792,6.792,0,0,1,3.081.654,4.763,4.763,0,0,1,2,1.816A4.946,4.946,0,0,1,52.406,43.824Zm-4.219.02q0-2.041-1.562-2.041t-1.562,2.139q0,2.256,1.582,2.256Q48.187,46.2,48.188,43.844ZM60.443,49V43.541a2.427,2.427,0,0,0-.278-1.333,1.017,1.017,0,0,0-.9-.405.978.978,0,0,0-.84.42,1.792,1.792,0,0,0-.3,1.074V49h-4.16V39h4.16v1.563h.039A3.53,3.53,0,0,1,59.5,39.229a3.655,3.655,0,0,1,1.826-.474q3.281,0,3.281,4.141V49ZM79.32,49H74.379l-3.34-10h4.336L76.6,44.459a12.629,12.629,0,0,1,.322,1.982h.059q.02-.2.054-.4T78.48,39H82.8Zm10.02,0V47.477H89.3a3.272,3.272,0,0,1-3.047,1.768,2.917,2.917,0,0,1-2.217-.84,3.12,3.12,0,0,1-.8-2.246q0-2.949,3.623-3.418l2.48-.322a.946.946,0,0,0-.439-.8,2,2,0,0,0-1.182-.312,7.783,7.783,0,0,0-3.545.957V39.557a9.483,9.483,0,0,1,2.031-.576,11.822,11.822,0,0,1,2.09-.225,5.247,5.247,0,0,1,3.7,1.089,4.853,4.853,0,0,1,1.147,3.638V49Zm-2.461-3.4a.922.922,0,0,0,.259.674.987.987,0,0,0,.737.264,1.311,1.311,0,0,0,1.06-.488,1.892,1.892,0,0,0,.405-1.25V44.42l-1.406.2Q86.879,44.791,86.879,45.6ZM95.014,49V34.2h4.16V49ZM112.3,43.824a5.207,5.207,0,0,1-1.528,3.975,7.061,7.061,0,0,1-8.516.034,5.051,5.051,0,0,1-1.519-3.892,5.214,5.214,0,0,1,.713-2.764,4.636,4.636,0,0,1,2.031-1.8,7.012,7.012,0,0,1,3.037-.625,6.792,6.792,0,0,1,3.081.654,4.763,4.763,0,0,1,2,1.816A4.946,4.946,0,0,1,112.3,43.824Zm-4.219.02q0-2.041-1.562-2.041t-1.562,2.139q0,2.256,1.582,2.256Q108.08,46.2,108.08,43.844Zm13.291-1.279a4,4,0,0,0-1.3-.283q-2.061,0-2.061,2.383V49h-4.16V39h4.16v1.758h.039a3.123,3.123,0,0,1,1.084-1.44,2.785,2.785,0,0,1,1.641-.493,1.409,1.409,0,0,1,.6.117ZM133.676,49V47.477h-.039a3.272,3.272,0,0,1-3.047,1.768,2.917,2.917,0,0,1-2.217-.84,3.12,3.12,0,0,1-.8-2.246q0-2.949,3.623-3.418l2.48-.322a.946.946,0,0,0-.439-.8,2,2,0,0,0-1.182-.312,7.783,7.783,0,0,0-3.545.957V39.557a9.483,9.483,0,0,1,2.031-.576,11.822,11.822,0,0,1,2.09-.225,5.247,5.247,0,0,1,3.7,1.089,4.853,4.853,0,0,1,1.147,3.638V49Zm-2.461-3.4a.922.922,0,0,0,.259.674.987.987,0,0,0,.737.264,1.311,1.311,0,0,0,1.06-.488,1.892,1.892,0,0,0,.405-1.25V44.42l-1.406.2Q131.215,44.791,131.215,45.6ZM145.834,49V43.541a2.427,2.427,0,0,0-.278-1.333,1.017,1.017,0,0,0-.9-.405.978.978,0,0,0-.84.42,1.792,1.792,0,0,0-.3,1.074V49h-4.16V39h4.16v1.563h.039a3.53,3.53,0,0,1,1.338-1.333,3.655,3.655,0,0,1,1.826-.474q3.281,0,3.281,4.141V49Zm2.6-15.039a4.346,4.346,0,0,1-.586,2.466,1.923,1.923,0,0,1-1.689.854,3.193,3.193,0,0,1-1.66-.479q-.332-.2-.61-.371a1.088,1.088,0,0,0-.591-.176.681.681,0,0,0-.586.3,1.47,1.47,0,0,0-.215.859h-1.7a4.244,4.244,0,0,1,.6-2.49,1.913,1.913,0,0,1,1.636-.83,3.262,3.262,0,0,1,1.846.566q.283.176.537.317a1.124,1.124,0,0,0,.557.142.631.631,0,0,0,.537-.288,1.512,1.512,0,0,0,.205-.874ZM157.416,49V47.477h-.039a3.272,3.272,0,0,1-3.047,1.768,2.917,2.917,0,0,1-2.217-.84,3.12,3.12,0,0,1-.8-2.246q0-2.949,3.623-3.418l2.48-.322a.946.946,0,0,0-.439-.8,2,2,0,0,0-1.182-.312,7.783,7.783,0,0,0-3.545.957V39.557a9.483,9.483,0,0,1,2.031-.576,11.822,11.822,0,0,1,2.09-.225,5.247,5.247,0,0,1,3.7,1.089,4.853,4.853,0,0,1,1.147,3.638V49Zm-2.461-3.4a.922.922,0,0,0,.259.674.987.987,0,0,0,.737.264,1.311,1.311,0,0,0,1.06-.488,1.892,1.892,0,0,0,.405-1.25V44.42l-1.406.2Q154.955,44.791,154.955,45.6ZM169.77,49V47.838h-.039a3.433,3.433,0,0,1-1.3,1.03,3.7,3.7,0,0,1-1.582.376,4.07,4.07,0,0,1-2.256-.63,3.825,3.825,0,0,1-1.46-1.763,6.784,6.784,0,0,1-.483-2.676,6.583,6.583,0,0,1,.576-2.822,4.51,4.51,0,0,1,1.621-1.914,4.188,4.188,0,0,1,2.344-.684,3.547,3.547,0,0,1,1.138.176,3.078,3.078,0,0,1,.908.474,1.414,1.414,0,0,1,.493.591h.039V34.2h4.16V49Zm.088-5.3a2.194,2.194,0,0,0-.4-1.4,1.335,1.335,0,0,0-2.168.122,2.881,2.881,0,0,0-.425,1.655q0,2.119,1.465,2.119a1.3,1.3,0,0,0,1.108-.571,2.812,2.812,0,0,0,.415-1.665ZM180.336,36.3a1.787,1.787,0,0,1-.64,1.426,2.5,2.5,0,0,1-1.685.547,2.441,2.441,0,0,1-1.665-.566A1.791,1.791,0,0,1,175.7,36.3a1.734,1.734,0,0,1,.63-1.392,2.932,2.932,0,0,1,3.369,0A1.723,1.723,0,0,1,180.336,36.3Zm-4.4,12.7V39h4.16V49Zm12.842,0V47.838h-.039a3.433,3.433,0,0,1-1.3,1.03,3.7,3.7,0,0,1-1.582.376,4.07,4.07,0,0,1-2.256-.63,3.825,3.825,0,0,1-1.46-1.763,6.784,6.784,0,0,1-.483-2.676,6.583,6.583,0,0,1,.576-2.822,4.51,4.51,0,0,1,1.621-1.914,4.188,4.188,0,0,1,2.344-.684,3.547,3.547,0,0,1,1.138.176,3.078,3.078,0,0,1,.908.474,1.414,1.414,0,0,1,.493.591h.039V34.2h4.16V49Zm.088-5.3a2.194,2.194,0,0,0-.4-1.4,1.335,1.335,0,0,0-2.168.122,2.881,2.881,0,0,0-.425,1.655q0,2.119,1.465,2.119a1.3,1.3,0,0,0,1.108-.571,2.812,2.812,0,0,0,.415-1.665Zm17.2.127A5.207,5.207,0,0,1,204.53,47.8a7.061,7.061,0,0,1-8.516.034,5.051,5.051,0,0,1-1.519-3.892,5.214,5.214,0,0,1,.713-2.764,4.636,4.636,0,0,1,2.031-1.8,7.012,7.012,0,0,1,3.037-.625,6.792,6.792,0,0,1,3.081.654,4.763,4.763,0,0,1,2,1.816A4.946,4.946,0,0,1,206.059,43.824Zm-4.219.02q0-2.041-1.562-2.041t-1.562,2.139q0,2.256,1.582,2.256Q201.84,46.2,201.84,43.844Z" transform="translate(-1880 -10675.62)" fill="#12263f"/>
  </g>
</svg>
