<svg xmlns="http://www.w3.org/2000/svg" width="271" height="237.124" viewBox="0 0 271 237.124">
  <g id="Grupo_56061" data-name="Grupo 56061" transform="translate(-958.621 -1337)">
    <g id="Grupo_56006" data-name="Grupo 56006" transform="translate(958.621 1337)">
      <path id="Trazado_100521" data-name="Trazado 100521" d="M204.477,431.092c125.788,8.085,166.835-165.207,58.4-160.826C173.932,273.863,78.691,423.007,204.477,431.092Z" transform="translate(-93.036 -229.936)" fill="#baefe4"/>
      <g id="Grupo_55953" data-name="Grupo 55953" transform="translate(0 32.512)">
        <g id="Grupo_53771" data-name="Grupo 53771" transform="translate(0 119.105)">
          <path id="Trazado_100522" data-name="Trazado 100522" d="M168.69,343.248s-13.558,9-27.494,6.2-22.975-16.325-22.975-16.325,13.558-9,27.494-6.2S168.69,343.248,168.69,343.248Z" transform="translate(-118.221 -326.384)" fill="#8f8b66"/>
          <path id="Trazado_100523" data-name="Trazado 100523" d="M186.006,353.963a91.052,91.052,0,0,0-21.836-13.584,117.73,117.73,0,0,0-41.776-9.6h-.023a.621.621,0,1,1,.067-1.24,117.276,117.276,0,0,1,42.243,9.7,92.31,92.31,0,0,1,22.163,13.8.636.636,0,0,1,.19.343.628.628,0,0,1-1.028.587Z" transform="translate(-114.725 -323.291)" fill="#b3ae7f"/>
          <path id="Trazado_100524" data-name="Trazado 100524" d="M135.493,334.729l-8.374-6.086-.016-.01a.622.622,0,1,1,.745-.995l8.374,6.083a.622.622,0,0,1-.729,1.006Z" transform="translate(-109.739 -325.27)" fill="#b3ae7f"/>
          <path id="Trazado_100525" data-name="Trazado 100525" d="M130.632,339.108a.622.622,0,0,1-.434-1.146l10.416-6.2.032-.02a.622.622,0,0,1,.6,1.089l-10.413,6.2a.67.67,0,0,1-.2.075Z" transform="translate(-106.759 -321.198)" fill="#b3ae7f"/>
          <path id="Trazado_100526" data-name="Trazado 100526" d="M142.829,337.553l-5.866-7.039a.623.623,0,0,1,.955-.8l5.866,7.044a.62.62,0,1,1-.955.792Z" transform="translate(-99.955 -323.319)" fill="#b3ae7f"/>
        </g>
        <g id="Grupo_53793" data-name="Grupo 53793" transform="translate(8.396 85.391)">
          <path id="Trazado_100527" data-name="Trazado 100527" d="M122.458,312.083s5.8-1.574,7.762-.729,6.482,7.088,6.482,7.088-7.578.876-9.543.032S122.458,312.083,122.458,312.083Z" transform="translate(-122.458 -307.669)" fill="#7d6871"/>
          <g id="Grupo_53773" data-name="Grupo 53773" transform="translate(10.95 9.327)">
            <g id="Grupo_53772" data-name="Grupo 53772" transform="translate(0 0)">
              <path id="Trazado_100528" data-name="Trazado 100528" d="M127.984,314.662l.117-.587c.406.08,41.787,13.073,52.926,55.081l-.575.152C169.4,327.628,128.386,314.741,127.984,314.662Z" transform="translate(-127.984 -314.075)" fill="#54464c"/>
            </g>
          </g>
          <g id="Grupo_53776" data-name="Grupo 53776" transform="translate(6.173 15.612)">
            <path id="Trazado_100529" data-name="Trazado 100529" d="M125.573,323.8s3.044-5.17,5.042-5.941,9.593.543,9.593.543-4.809,5.922-6.809,6.69S125.573,323.8,125.573,323.8Z" transform="translate(-125.573 -316.879)" fill="#7d6871"/>
            <g id="Grupo_53775" data-name="Grupo 53775" transform="translate(4.49)">
              <g id="Grupo_53774" data-name="Grupo 53774">
                <path id="Trazado_100530" data-name="Trazado 100530" d="M127.839,321.7c3.539-1.676,13.651-4.338,14.079-4.451l.151.575c-.1.028-10.487,2.76-13.977,4.413Z" transform="translate(-127.839 -317.249)" fill="#54464c"/>
              </g>
            </g>
          </g>
          <g id="Grupo_53779" data-name="Grupo 53779" transform="translate(18.493 23.982)">
            <path id="Trazado_100531" data-name="Trazado 100531" d="M131.79,328.032s3.046-5.174,5.043-5.941,9.591.543,9.591.543-4.808,5.921-6.807,6.69S131.79,328.032,131.79,328.032Z" transform="translate(-131.79 -321.104)" fill="#7d6871"/>
            <g id="Grupo_53778" data-name="Grupo 53778" transform="translate(4.49)">
              <g id="Grupo_53777" data-name="Grupo 53777">
                <path id="Trazado_100532" data-name="Trazado 100532" d="M134.056,325.924c3.541-1.676,13.654-4.34,14.079-4.451l.151.575c-.1.028-10.487,2.76-13.979,4.411Z" transform="translate(-134.056 -321.473)" fill="#54464c"/>
              </g>
            </g>
          </g>
          <g id="Grupo_53782" data-name="Grupo 53782" transform="translate(28.608 33.978)">
            <path id="Trazado_100533" data-name="Trazado 100533" d="M136.894,333.076s3.044-5.172,5.042-5.941,9.593.543,9.593.543-4.808,5.919-6.809,6.69S136.894,333.076,136.894,333.076Z" transform="translate(-136.894 -326.148)" fill="#7d6871"/>
            <g id="Grupo_53781" data-name="Grupo 53781" transform="translate(4.49)">
              <g id="Grupo_53780" data-name="Grupo 53780">
                <path id="Trazado_100534" data-name="Trazado 100534" d="M139.16,330.968c3.539-1.676,13.651-4.338,14.079-4.451l.151.575c-.1.028-10.487,2.76-13.977,4.413Z" transform="translate(-139.16 -326.517)" fill="#54464c"/>
              </g>
            </g>
          </g>
          <g id="Grupo_53785" data-name="Grupo 53785" transform="translate(36.24 44.011)">
            <path id="Trazado_100535" data-name="Trazado 100535" d="M140.746,338.141s3.046-5.172,5.042-5.941,9.593.543,9.593.543-4.809,5.919-6.809,6.69S140.746,338.141,140.746,338.141Z" transform="translate(-140.746 -331.209)" fill="#7d6871"/>
            <g id="Grupo_53784" data-name="Grupo 53784" transform="translate(4.49 0)">
              <g id="Grupo_53783" data-name="Grupo 53783">
                <path id="Trazado_100536" data-name="Trazado 100536" d="M143.012,336.029c3.539-1.676,13.651-4.336,14.079-4.449l.151.575c-.1.028-10.487,2.76-13.977,4.413Z" transform="translate(-143.012 -331.58)" fill="#54464c"/>
              </g>
            </g>
          </g>
          <g id="Grupo_53789" data-name="Grupo 53789" transform="translate(23.642)">
            <g id="Grupo_53787" data-name="Grupo 53787" transform="translate(0)">
              <g id="Grupo_53786" data-name="Grupo 53786">
                <path id="Trazado_100537" data-name="Trazado 100537" d="M136.59,309.371s4.811,3.585,5.363,5.652-1.567,9.478-1.567,9.478-5.373-5.418-5.921-7.487S136.59,309.371,136.59,309.371Z" transform="translate(-134.39 -309.371)" fill="#7d6871"/>
              </g>
            </g>
            <g id="Grupo_53788" data-name="Grupo 53788" transform="translate(3.614 4.732)">
              <path id="Trazado_100538" data-name="Trazado 100538" d="M136.212,311.955l.561-.2c1.286,3.7,2.849,14.038,2.915,14.476l-.587.089C139.083,326.217,137.48,315.6,136.212,311.955Z" transform="translate(-136.212 -311.759)" fill="#54464c"/>
            </g>
          </g>
          <g id="Grupo_53792" data-name="Grupo 53792" transform="translate(38.933 10.19)">
            <path id="Trazado_100539" data-name="Trazado 100539" d="M145.6,314.513s4.076,4.4,4.243,6.537-3.276,9.032-3.276,9.032-4.292-6.308-4.452-8.442S145.6,314.513,145.6,314.513Z" transform="translate(-142.105 -314.513)" fill="#7d6871"/>
            <g id="Grupo_53791" data-name="Grupo 53791" transform="translate(3.986 5.016)">
              <g id="Grupo_53790" data-name="Grupo 53790">
                <path id="Trazado_100540" data-name="Trazado 100540" d="M144.33,331.787c0-.107.366-10.837-.214-14.655l.587-.089c.587,3.87.235,14.322.222,14.765Z" transform="translate(-144.116 -317.044)" fill="#54464c"/>
              </g>
            </g>
          </g>
        </g>
        <g id="Grupo_53821" data-name="Grupo 53821" transform="translate(88.398 119.239)">
          <g id="Grupo_53820" data-name="Grupo 53820" transform="translate(0 0)">
            <g id="Grupo_53806" data-name="Grupo 53806" transform="translate(33.878 5.965)">
              <g id="Grupo_53803" data-name="Grupo 53803" transform="translate(20.289 11.885)">
                <path id="Trazado_100548" data-name="Trazado 100548" d="M191.016,336.971c-.26-.382-.529-.765-.8-1.136h0a.234.234,0,1,1,.375-.279c.282.375.555.765.819,1.153a.234.234,0,1,1-.389.261Z" transform="translate(-190.159 -335.453)" fill="#b5ac84"/>
              </g>
              <g id="Grupo_53804" data-name="Grupo 53804" transform="translate(3.866 0.757)">
                <path id="Trazado_100549" data-name="Trazado 100549" d="M196.775,339.4c-.551-.624-1.136-1.233-1.738-1.809l-.02-.02a.235.235,0,1,1,.344-.319c.607.587,1.2,1.207,1.76,1.844a.233.233,0,0,1-.174.389A.23.23,0,0,1,196.775,339.4ZM193.3,335.99a.235.235,0,0,1-.147-.054c-.648-.523-1.326-1.027-2.011-1.494h0a.233.233,0,1,1,.261-.386c.7.479,1.387.987,2.045,1.52a.234.234,0,0,1-.147.419Zm-4.179-2.838a.234.234,0,0,1-.115-.028c-.727-.408-1.478-.791-2.235-1.136a.235.235,0,0,1,.192-.426c.769.354,1.534.739,2.271,1.153a.234.234,0,0,1-.113.438Zm-4.6-2.1a.21.21,0,0,1-.077-.01c-.784-.282-1.592-.531-2.4-.743a.234.234,0,1,1,.121-.452c.816.216,1.633.469,2.43.754a.234.234,0,0,1-.084.453Z" transform="translate(-181.876 -329.844)" fill="#b5ac84"/>
              </g>
              <g id="Grupo_53805" data-name="Grupo 53805" transform="translate(0 0)">
                <path id="Trazado_100550" data-name="Trazado 100550" d="M181.5,330.136c-.456-.084-.922-.151-1.379-.208a.235.235,0,0,1,.059-.466c.468.061.939.132,1.4.212a.234.234,0,0,1-.039.463A.15.15,0,0,1,181.5,330.136Z" transform="translate(-179.919 -329.461)" fill="#b5ac84"/>
              </g>
            </g>
            <g id="Grupo_53810" data-name="Grupo 53810" transform="translate(0 6.505)">
              <g id="Grupo_53807" data-name="Grupo 53807" transform="translate(21.841 0)">
                <path id="Trazado_100551" data-name="Trazado 100551" d="M174.083,330.555a.238.238,0,0,1-.222-.168.232.232,0,0,1,.158-.292c.453-.129.913-.251,1.369-.354a.235.235,0,0,1,.282.174.232.232,0,0,1-.174.282c-.45.109-.9.222-1.349.349a.324.324,0,0,1-.064.01Z" transform="translate(-173.851 -329.735)" fill="#b5ac84"/>
              </g>
              <g id="Grupo_53808" data-name="Grupo 53808" transform="translate(0 1.251)">
                <path id="Trazado_100552" data-name="Trazado 100552" d="M192.687,388.888c-.957-.012-1.922-.07-2.869-.173a.234.234,0,0,1,.049-.466c.934.1,1.885.158,2.827.168h0a.234.234,0,0,1,0,.468Zm2.862-.093a.235.235,0,0,1-.244-.224.237.237,0,0,1,.226-.244c.939-.075,1.885-.2,2.81-.359l.029-.006a.234.234,0,1,1,.049.466c-.939.168-1.9.286-2.853.366h-.018Zm-8.525-.519a.2.2,0,0,1-.048-.006c-.935-.192-1.875-.432-2.788-.713h0a.235.235,0,1,1,.138-.448c.9.277,1.821.513,2.743.7a.234.234,0,0,1-.045.463Zm14.137-.473a.235.235,0,0,1-.2-.352.232.232,0,0,1,.144-.108c.906-.251,1.809-.551,2.689-.887a.234.234,0,1,1,.168.436c-.892.341-1.811.646-2.733.9a.223.223,0,0,1-.064.008ZM181.576,386.6a.27.27,0,0,1-.089-.014c-.882-.369-1.76-.783-2.6-1.233a.234.234,0,0,1,.22-.412c.832.442,1.694.85,2.563,1.211a.234.234,0,0,1-.091.45Zm24.915-.838a.234.234,0,0,1-.1-.444c.838-.419,1.676-.884,2.471-1.381a.236.236,0,1,1,.251.4c-.813.5-1.658.977-2.514,1.4a.232.232,0,0,1-.1.023Zm-29.947-1.844a.23.23,0,0,1-.131-.034c-.8-.527-1.577-1.1-2.32-1.7a.235.235,0,0,1,.293-.365c.733.592,1.5,1.156,2.287,1.676a.235.235,0,0,1-.131.43Zm34.786-1.173a.234.234,0,0,1-.142-.419c.747-.571,1.477-1.183,2.168-1.824a.234.234,0,1,1,.319.343c-.7.652-1.442,1.275-2.2,1.853a.23.23,0,0,1-.142.048Zm-39.387-2.477c-.681-.666-1.341-1.377-1.96-2.107l-.012-.016a.234.234,0,1,1,.37-.286c.608.717,1.257,1.415,1.927,2.072a.237.237,0,0,1-.168.4.246.246,0,0,1-.163-.07Zm43.572-1.4a.231.231,0,0,1-.154-.06.235.235,0,0,1-.02-.331c.629-.7,1.227-1.443,1.787-2.2a.235.235,0,0,1,.376.277c-.566.769-1.173,1.52-1.815,2.233A.233.233,0,0,1,215.516,378.865Zm-47.1-2.891a.229.229,0,0,1-.19-.1c-.547-.784-1.06-1.6-1.53-2.438a.235.235,0,0,1,.084-.3.233.233,0,0,1,.323.073c.463.82.969,1.627,1.5,2.4a.224.224,0,0,1,.044.135.233.233,0,0,1-.234.234Zm50.479-1.7a.252.252,0,0,1-.119-.032.236.236,0,0,1-.084-.323c.484-.806.935-1.647,1.341-2.495h0a.234.234,0,1,1,.419.2c-.41.862-.868,1.716-1.359,2.534a.236.236,0,0,1-.2.115Zm-53.275-3.268a.235.235,0,0,1-.212-.138c-.388-.874-.739-1.777-1.041-2.682h0a.235.235,0,0,1,.446-.148c.295.892.64,1.78,1.021,2.64a.236.236,0,0,1-.214.331Zm55.729-1.876a.227.227,0,0,1-.084-.016h0a.233.233,0,0,1-.141-.3,28.182,28.182,0,0,0,.838-2.705h0a.235.235,0,1,1,.454.116c-.24.922-.527,1.849-.852,2.749a.236.236,0,0,1-.22.153Zm-57.53-3.538a.233.233,0,0,1-.228-.183c-.212-.931-.385-1.882-.507-2.832a.234.234,0,0,1,.463-.059c.123.934.292,1.87.5,2.788a.235.235,0,0,1-.176.279.249.249,0,0,1-.054.006Zm58.961-1.985h-.032a.236.236,0,0,1-.194-.27c.147-.928.251-1.875.311-2.814V360.5a.234.234,0,0,1,.26-.206.237.237,0,0,1,.206.261c-.064.955-.168,1.917-.321,2.859a.232.232,0,0,1-.23.2Zm-59.7-3.668a.233.233,0,0,1-.234-.226c-.012-.363-.02-.733-.02-1.1,0-.592.018-1.191.051-1.78a.235.235,0,0,1,.468.028c-.034.581-.049,1.173-.049,1.751q0,.544.018,1.082a.233.233,0,0,1-.226.24h-.008Zm.331-5.7h-.038a.233.233,0,0,1-.194-.266c.145-.945.335-1.895.572-2.82a.234.234,0,1,1,.453.113c-.228.912-.419,1.844-.561,2.776a.233.233,0,0,1-.232.2Zm1.4-5.531a.269.269,0,0,1-.08-.016.234.234,0,0,1-.141-.3c.321-.9.691-1.793,1.1-2.657l.006-.016a.235.235,0,1,1,.419.214c-.4.852-.761,1.732-1.082,2.618a.233.233,0,0,1-.22.154Zm2.425-5.162a.24.24,0,0,1-.121-.032.235.235,0,0,1-.08-.321c.485-.82,1.022-1.629,1.581-2.4h0a.234.234,0,1,1,.376.277c-.555.761-1.078,1.558-1.558,2.366a.234.234,0,0,1-.2.115Zm3.361-4.609a.229.229,0,0,1-.153-.058.235.235,0,0,1-.022-.331c.632-.716,1.308-1.411,2.005-2.063a.235.235,0,0,1,.321.341c-.688.644-1.353,1.327-1.976,2.031a.235.235,0,0,1-.176.084Zm4.166-3.9a.241.241,0,0,1-.189-.091.236.236,0,0,1,.045-.329c.754-.587,1.55-1.14,2.358-1.648a.235.235,0,0,1,.251.4c-.794.5-1.576,1.048-2.32,1.623a.236.236,0,0,1-.142.049ZM179.595,332a.232.232,0,0,1-.1-.442c.854-.432,1.738-.826,2.63-1.173l.023-.01a.235.235,0,1,1,.147.446c-.878.343-1.748.732-2.588,1.156a.251.251,0,0,1-.107.023Z" transform="translate(-162.829 -330.362)" fill="#b5ac84"/>
              </g>
              <g id="Grupo_53809" data-name="Grupo 53809" transform="translate(59.999 26.893)">
                <path id="Trazado_100553" data-name="Trazado 100553" d="M193.185,344.937c-.018-.462-.044-.931-.08-1.391a.234.234,0,0,1,.466-.038c.039.468.065.944.084,1.413a.235.235,0,0,1-.228.24h-.008A.233.233,0,0,1,193.185,344.937Z" transform="translate(-193.105 -343.299)" fill="#b5ac84"/>
              </g>
            </g>
            <g id="Grupo_53814" data-name="Grupo 53814" transform="translate(33.878 5.965)">
              <g id="Grupo_53811" data-name="Grupo 53811" transform="translate(20.289 11.885)">
                <path id="Trazado_100554" data-name="Trazado 100554" d="M191.016,336.971c-.26-.382-.529-.765-.8-1.136h0a.234.234,0,1,1,.375-.279c.282.375.555.765.819,1.153a.234.234,0,1,1-.389.261Z" transform="translate(-190.159 -335.453)" fill="#b5ac84"/>
              </g>
              <g id="Grupo_53812" data-name="Grupo 53812" transform="translate(3.866 0.757)">
                <path id="Trazado_100555" data-name="Trazado 100555" d="M196.775,339.4c-.551-.624-1.136-1.233-1.738-1.809l-.02-.02a.235.235,0,1,1,.344-.319c.607.587,1.2,1.207,1.76,1.844a.233.233,0,0,1-.174.389A.23.23,0,0,1,196.775,339.4ZM193.3,335.99a.235.235,0,0,1-.147-.054c-.648-.523-1.326-1.027-2.011-1.494h0a.233.233,0,1,1,.261-.386c.7.479,1.387.987,2.045,1.52a.234.234,0,0,1-.147.419Zm-4.179-2.838a.234.234,0,0,1-.115-.028c-.727-.408-1.478-.791-2.235-1.136a.235.235,0,0,1,.192-.426c.769.354,1.534.739,2.271,1.153a.234.234,0,0,1-.113.438Zm-4.6-2.1a.21.21,0,0,1-.077-.01c-.784-.282-1.592-.531-2.4-.743a.234.234,0,1,1,.121-.452c.816.216,1.633.469,2.43.754a.234.234,0,0,1-.084.453Z" transform="translate(-181.876 -329.844)" fill="#b5ac84"/>
              </g>
              <g id="Grupo_53813" data-name="Grupo 53813" transform="translate(0 0)">
                <path id="Trazado_100556" data-name="Trazado 100556" d="M181.5,330.136c-.456-.084-.922-.151-1.379-.208a.235.235,0,0,1,.059-.466c.468.061.939.132,1.4.212a.234.234,0,0,1-.039.463A.15.15,0,0,1,181.5,330.136Z" transform="translate(-179.919 -329.461)" fill="#b5ac84"/>
              </g>
            </g>
            <g id="Grupo_53815" data-name="Grupo 53815" transform="translate(23.538)">
              <path id="Trazado_100557" data-name="Trazado 100557" d="M178.423,333.518l-3.716-2.7H179.3l1.419-4.368,1.419,4.368h4.592l-3.716,2.7,1.425,4.368-3.716-2.7-3.716,2.7Zm5.119,3.139-1.078-3.319,2.824-2.053H181.8l-1.078-3.319-1.08,3.319h-3.492l2.826,2.053-1.08,3.319,2.826-2.051Z" transform="translate(-174.707 -326.451)" fill="#b5ac84"/>
            </g>
            <g id="Grupo_53819" data-name="Grupo 53819" transform="translate(52.046 19.64)">
              <g id="Grupo_53816" data-name="Grupo 53816" transform="translate(0 0)">
                <path id="Trazado_100558" data-name="Trazado 100558" d="M189.093,342.926h0a6.563,6.563,0,1,1,6.562,6.561,6.563,6.563,0,0,1-6.562-6.561Zm.69,0a5.874,5.874,0,1,0,5.874-5.874,5.874,5.874,0,0,0-5.874,5.874Z" transform="translate(-189.093 -336.362)" fill="#b5ac84"/>
              </g>
              <g id="Grupo_53817" data-name="Grupo 53817" transform="translate(7.907 5.654)">
                <path id="Trazado_100559" data-name="Trazado 100559" d="M193.083,340.125a.907.907,0,1,1,.906.906.907.907,0,0,1-.906-.906Zm.46,0h0a.445.445,0,1,0,.13-.316.446.446,0,0,0-.13.316Z" transform="translate(-193.083 -339.217)" fill="#b5ac84"/>
              </g>
              <g id="Grupo_53818" data-name="Grupo 53818" transform="translate(3.533 5.656)">
                <path id="Trazado_100560" data-name="Trazado 100560" d="M190.876,340.125h0a.907.907,0,1,1,.906.908.907.907,0,0,1-.906-.908Zm.46,0h0a.445.445,0,1,0,.13-.315.446.446,0,0,0-.13.315Z" transform="translate(-190.876 -339.219)" fill="#b5ac84"/>
              </g>
            </g>
          </g>
        </g>
        <g id="Grupo_53852" data-name="Grupo 53852" transform="translate(224.052 15.956)">
          <path id="Trazado_100575" data-name="Trazado 100575" d="M254.369,275.028a3.876,3.876,0,0,1,4.433,6.359c-1.736,1.25-9.417,1.906-9.417,1.906s3.153-6.946,4.891-8.2Z" transform="translate(-213.514 -274.332)" fill="#7d6871"/>
          <path id="Trazado_100576" data-name="Trazado 100576" d="M231.491,324a.354.354,0,0,1-.174-.472c.115-.251,11.825-25.123,39.471-46.319a.356.356,0,1,1,.434.565c-27.5,21.085-39.146,45.806-39.261,46.054a.354.354,0,0,1-.321.206A.31.31,0,0,1,231.491,324Z" transform="translate(-231.284 -271.571)" fill="#54464c"/>
          <g id="Grupo_53850" data-name="Grupo 53850" transform="translate(25.987 15.331)">
            <path id="Trazado_100577" data-name="Trazado 100577" d="M257.3,286.587a3.875,3.875,0,0,1-4.487,3.145c-2.107-.386-7.905-5.464-7.905-5.464s7.191-2.544,9.3-2.16A3.874,3.874,0,0,1,257.3,286.587Z" transform="translate(-243.886 -282.069)" fill="#7d6871"/>
            <path id="Trazado_100578" data-name="Trazado 100578" d="M253.874,285.472c-6.439-1.265-9.163-1.857-9.191-1.863a.356.356,0,1,1,.151-.7c.028,0,2.746.594,9.177,1.857a.357.357,0,0,1-.067.707.389.389,0,0,1-.07-.006Z" transform="translate(-244.388 -281.246)" fill="#54464c"/>
          </g>
          <g id="Grupo_53851" data-name="Grupo 53851" transform="translate(13.422 12.688)">
            <path id="Trazado_100579" data-name="Trazado 100579" d="M238.082,285.063v-.034a3.875,3.875,0,0,1,7.7-.838c.24,2.126-2.946,9.145-2.946,9.145s-4.512-6.151-4.752-8.277Z" transform="translate(-238.058 -280.736)" fill="#7d6871"/>
            <path id="Trazado_100580" data-name="Trazado 100580" d="M240.731,292.262c0-.028-.224-2.8-.872-9.321a.357.357,0,0,1,.71-.071c.648,6.53.872,9.308.872,9.336a.357.357,0,0,1-.327.385h-.028a.356.356,0,0,1-.355-.328Z" transform="translate(-236.291 -278.944)" fill="#54464c"/>
          </g>
        </g>
        <g id="Grupo_53853" data-name="Grupo 53853" transform="translate(205.755 59.244)">
          <path id="Trazado_100581" data-name="Trazado 100581" d="M267.241,301.864s-4.574,7.027-5.6,9.116S255.226,325.7,251.1,327.667s-19.258,2.023-19.258,2.023c1.73-15.715,18.806-34.126,44.015-33.5Z" transform="translate(-212.434 -296.176)" fill="#8f8b66"/>
          <path id="Trazado_100582" data-name="Trazado 100582" d="M264.256,309.763c-3.552,9.514-4.372,25.451-32.41,19.917,0,0,16.194-.725,22.821-8.145s3.732-20.122,21.194-25.351A26.518,26.518,0,0,0,264.256,309.763Z" transform="translate(-212.434 -296.168)" fill="#54464c"/>
          <path id="Trazado_100583" data-name="Trazado 100583" d="M222.174,349.953a.595.595,0,1,0,.953.711q3.2-4.292,5.991-8.053c7.086-9.54,12.288-16.541,16.8-21.982l.055-.012a.587.587,0,0,0,.4-.535c1.207-1.442,2.366-2.775,3.5-4.012.016,0,.028.006.044.006l13-.707a.67.67,0,0,0,.153-.029.593.593,0,0,0-.218-1.157l-11.82.64a61.189,61.189,0,0,1,14.458-11.416.594.594,0,0,0-.6-1.028,63.62,63.62,0,0,0-7.961,5.414l1.474-6.357h0a.594.594,0,0,0-1.157-.267l-1.751,7.552a.565.565,0,0,0,0,.257,82.514,82.514,0,0,0-9.272,9.455l-.313-3.321a.594.594,0,1,0-1.183.111l.419,4.481c-4.641,5.569-9.911,12.659-16.993,22.2q-2.782,3.748-5.99,8.052Z" transform="translate(-222.043 -291.738)" fill="#b3ae7f"/>
        </g>
        <g id="Grupo_53854" data-name="Grupo 53854" transform="translate(211.842 92.445)">
          <path id="Trazado_100584" data-name="Trazado 100584" d="M232.888,324.934s9.643,6.389,19.549,4.393,16.325-11.617,16.325-11.617-9.643-6.389-19.547-4.394S232.888,324.934,232.888,324.934Z" transform="translate(-217.498 -312.93)" fill="#8f8b66"/>
          <path id="Trazado_100585" data-name="Trazado 100585" d="M225.252,332.42a.28.28,0,0,1-.051-.045.308.308,0,0,1,.023-.434,65.494,65.494,0,0,1,15.713-9.8,84.452,84.452,0,0,1,29.974-6.912.308.308,0,0,1,.022.616,83.835,83.835,0,0,0-29.74,6.857,64.84,64.84,0,0,0-15.552,9.69.308.308,0,0,1-.385.023Z" transform="translate(-225.122 -310.671)" fill="#b3ae7f"/>
          <path id="Trazado_100586" data-name="Trazado 100586" d="M241.6,318.7a.262.262,0,0,1-.071-.07.308.308,0,0,1,.071-.43l5.95-4.33.022-.014a.308.308,0,0,1,.341.511l-5.95,4.332a.307.307,0,0,1-.359,0Z" transform="translate(-209.075 -312.079)" fill="#b3ae7f"/>
          <path id="Trazado_100587" data-name="Trazado 100587" d="M238.732,317.336a.307.307,0,0,1,.335-.513l7.411,4.4h0a.308.308,0,0,1-.315.529l-7.407-4.4-.022-.016Z" transform="translate(-211.898 -309.161)" fill="#b3ae7f"/>
          <path id="Trazado_100588" data-name="Trazado 100588" d="M235.4,320.78a.308.308,0,0,1-.039-.434l4.169-5.011.02-.023a.308.308,0,1,1,.452.419l-4.167,5.011a.31.31,0,0,1-.419.054Z" transform="translate(-215.141 -310.693)" fill="#b3ae7f"/>
        </g>
        <g id="Grupo_53919" data-name="Grupo 53919" transform="translate(135.29 0)">
          <g id="Grupo_53918" data-name="Grupo 53918" transform="translate(0)">
            <g id="Grupo_53915" data-name="Grupo 53915">
              <path id="Trazado_100716" data-name="Trazado 100716" d="M191.376,278.652c-3.588-4.811-6.151-10.643-4.225-12.08s6.788,2.673,10.382,7.484,6.149,10.643,4.223,12.08S194.967,283.463,191.376,278.652Zm-3.919-11.674c-1.29.963.142,5.759,4.328,11.367s8.38,8.345,9.668,7.381-.142-5.759-4.328-11.367S188.745,266.017,187.457,266.978Z" transform="translate(-186.492 -266.281)" fill="#b5ac84"/>
            </g>
            <g id="Grupo_53916" data-name="Grupo 53916" transform="translate(10.108 13.51)">
              <path id="Trazado_100717" data-name="Trazado 100717" d="M192.693,277.761c-1.266-1.7-1.468-3.613-.458-4.368s2.794-.016,4.059,1.68,1.467,3.614.456,4.369S193.958,279.457,192.693,277.761Zm-.154-3.96c-.754.565-.5,2.238.561,3.656s2.592,2.138,3.347,1.575.5-2.238-.563-3.654-2.59-2.142-3.345-1.577Z" transform="translate(-191.593 -273.097)" fill="#b5ac84"/>
            </g>
            <g id="Grupo_53917" data-name="Grupo 53917" transform="translate(0.252 0.257)">
              <path id="Trazado_100718" data-name="Trazado 100718" d="M191.814,270.313a7.014,7.014,0,0,1,1.7-.475c-2.74-2.663-5.228-4.011-6.334-3.185s-.511,3.617,1.282,7.023a7.2,7.2,0,0,1,.928-1.516,1.525,1.525,0,1,1,2.43-1.844Z" transform="translate(-186.618 -266.411)" fill="#b5ac84"/>
            </g>
          </g>
        </g>
      </g>
      <g id="Grupo_55981" data-name="Grupo 55981" transform="translate(153.182 20.658)">
        <g id="Grupo_55956" data-name="Grupo 55956" transform="translate(45.341 112.009)">
          <g id="Grupo_55954" data-name="Grupo 55954" transform="translate(0.001)">
            <path id="Trazado_105708" data-name="Trazado 105708" d="M237.936,316.821s-.028,2.816-.071,7.449v.014c-.067,7.039.113,18.178.008,30.1,7.93,19.052-2.968,34.166-2.784,51.327.036.884.093,1.772.194,2.667.489,4.34,5.289,7.368,8.721,9.391,1.792,1.058,3.732,1.844,4.294,2.842a.464.464,0,0,1-.466.662H230.525c-1.4,0-1.524-.7-2.011-1.4-2.319,0-3.113-.054-3.357-1.508a20,20,0,0,1-.044-2.507c.039-2,.168-4.693.261-6.587-.029-.809-.093-2.03-.183-3.561-.767-13.063-3.482-46.706-3.482-46.706l-2.46-34.84v-.014l-.85-7.1Z" transform="translate(-218.4 -316.821)" fill="#e4a999"/>
            <path id="Trazado_105709" data-name="Trazado 105709" d="M221.838,369.3c.242,1.458,1.038,1.508,3.357,1.508a46.569,46.569,0,0,0-3.4-4.011A20,20,0,0,0,221.838,369.3Z" transform="translate(-215.081 -267.759)" fill="#db877c"/>
            <path id="Trazado_105710" data-name="Trazado 105710" d="M225.867,368.844c1.027,1.257,1.369,1.368,1.956,2.041a2.3,2.3,0,0,1,.626,1.374h.973c-.395-1.581-2.455-3.058-3.119-3.656a5.372,5.372,0,0,1-1.425-1.849A3.9,3.9,0,0,0,225.867,368.844Z" transform="translate(-212.052 -267.804)" fill="#d26066"/>
            <path id="Trazado_105711" data-name="Trazado 105711" d="M226.534,367.577a6.642,6.642,0,0,0,2.6,2.15c1.456.828,1.564,1.268,1.716,1.722h.816a2.569,2.569,0,0,0-1.072-1.5C229.475,369.164,227.768,368.589,226.534,367.577Z" transform="translate(-210.419 -266.996)" fill="#d26066"/>
            <path id="Trazado_105712" data-name="Trazado 105712" d="M227.8,367.507a21.049,21.049,0,0,0,3.6,2.316c1.477.8,1.435,1.24,1.587,1.695h.816a2.569,2.569,0,0,0-1.072-1.5C231.61,369.233,230.254,368.884,227.8,367.507Z" transform="translate(-209.18 -267.064)" fill="#d26066"/>
            <path id="Trazado_105713" data-name="Trazado 105713" d="M229.5,367.608c.739.624,1.8.979,3.531,2.075,1.409.89,1.324,1.282,1.474,1.736h.819a2.569,2.569,0,0,0-1.072-1.5,29.709,29.709,0,0,0-4.752-2.313Z" transform="translate(-207.509 -266.965)" fill="#d26066"/>
            <path id="Trazado_105714" data-name="Trazado 105714" d="M227.7,369.659l-2.749.055a.335.335,0,0,1-.238-.091,3.046,3.046,0,0,1-.543-.622c-.012-.266.555-.565,1.209-.662a2.7,2.7,0,0,1,1.629.353c.148.109.553.513.8.761a.124.124,0,0,1-.106.206Z" transform="translate(-212.737 -266.268)" fill="#e9bbb1"/>
            <path id="Trazado_105715" data-name="Trazado 105715" d="M228.859,369.459h-1.548c-.151,0,.065-.476.6-.531C228.643,368.85,229.01,369.344,228.859,369.459Z" transform="translate(-209.702 -265.677)" fill="#e9bbb1"/>
            <path id="Trazado_105716" data-name="Trazado 105716" d="M230.766,369.459h-1.545c-.151,0,.064-.476.6-.531C230.552,368.85,230.917,369.344,230.766,369.459Z" transform="translate(-207.828 -265.677)" fill="#e9bbb1"/>
            <path id="Trazado_105717" data-name="Trazado 105717" d="M232.416,369.459h-1.548c-.151,0,.064-.476.6-.531C232.2,368.85,232.563,369.344,232.416,369.459Z" transform="translate(-206.21 -265.677)" fill="#e9bbb1"/>
            <path id="Trazado_105718" data-name="Trazado 105718" d="M233.977,369.43h-1.548c-.151,0,.065-.475.6-.531C233.763,368.821,234.128,369.317,233.977,369.43Z" transform="translate(-204.678 -265.706)" fill="#e9bbb1"/>
          </g>
          <g id="Grupo_55955" data-name="Grupo 55955" transform="translate(0 0.003)">
            <path id="Trazado_105719" data-name="Trazado 105719" d="M218.4,317.055l.848,7.1,18.616.117c.044-4.633.071-7.449.071-7.449Z" transform="translate(-218.4 -316.824)" fill="#db877c"/>
            <path id="Trazado_105720" data-name="Trazado 105720" d="M229.242,336.153s-.555,6.343-3.065,6.3c-2.216-.039-4.217-2.915-3.829-5.921S229.248,332.925,229.242,336.153Z" transform="translate(-214.574 -299.969)" fill="#db877c"/>
          </g>
        </g>
        <g id="Grupo_55957" data-name="Grupo 55957" transform="translate(19.65 21.058)">
          <path id="Trazado_105721" data-name="Trazado 105721" d="M251.207,328.979a19.583,19.583,0,0,1-1.482,4.163s-12.932,7.182-24.1,7.419-18.292-8.033-18.292-8.033a22.949,22.949,0,0,1-1.215-3.549,19.088,19.088,0,0,1-.644-5.968,17.668,17.668,0,0,1,1.262-5.345,58.484,58.484,0,0,0,3.894-21.081c.01-4.153.038-7.693.038-8.765a7.626,7.626,0,0,1,4.131-6.842c2.142-1.211,7.725-3.456,7.725-3.456l.251-2.7.331-3.565,11.52-.335.285,3.751.23,3.028s5.913,2.44,8.109,3.343,3.293,2.776,3.357,6.2c.016.876.065,4.7.178,9.665a58.83,58.83,0,0,0,4.022,19.861,14.369,14.369,0,0,1,.771,2.7,23.278,23.278,0,0,1-.365,9.5Z" transform="translate(-205.443 -270.924)" fill="#e4a999"/>
          <path id="Trazado_105722" data-name="Trazado 105722" d="M250.869,300.222a19.583,19.583,0,0,1-1.482,4.163s-12.932,7.182-24.1,7.419-18.292-8.033-18.292-8.033a22.948,22.948,0,0,1-1.215-3.549Z" transform="translate(-205.105 -242.165)" fill="#db877c"/>
          <path id="Trazado_105723" data-name="Trazado 105723" d="M225.987,271.9a6.093,6.093,0,0,1-1.819,4.83c-.251.24-.434.419-.529.491-.6.485-3.074,2.172-5.5,1.08a7.637,7.637,0,0,1-1.518-.929,6.056,6.056,0,0,1-2.295-5.357l.07-.754,11.519-.335Z" transform="translate(-196.738 -270.924)" fill="#d26066"/>
          <path id="Trazado_105724" data-name="Trazado 105724" d="M215.136,284.679c.084-.955-3.389-1.288-3.658,0S215,286.236,215.136,284.679Z" transform="translate(-199.52 -258.254)" fill="#d26066"/>
          <path id="Trazado_105725" data-name="Trazado 105725" d="M225.435,284.679c.084-.955-3.386-1.288-3.658,0S225.3,286.236,225.435,284.679Z" transform="translate(-189.41 -258.254)" fill="#d26066"/>
          <path id="Trazado_105726" data-name="Trazado 105726" d="M217.306,296.268s-1.855,3.141.142,5.653A5.676,5.676,0,0,0,217.306,296.268Z" transform="translate(-194.555 -246.047)" fill="#d26066"/>
          <path id="Trazado_105727" data-name="Trazado 105727" d="M212.327,275.973a41.92,41.92,0,0,0,9.167,1.831,25.926,25.926,0,0,0,10.291-1.676S220.433,277.176,212.327,275.973Z" transform="translate(-198.672 -265.969)" fill="#db877c"/>
          <path id="Trazado_105728" data-name="Trazado 105728" d="M210.824,293.726a33.981,33.981,0,0,1,26.28.973A22.939,22.939,0,0,0,210.824,293.726Z" transform="translate(-200.148 -252.155)" fill="#db877c"/>
        </g>
        <g id="Grupo_55960" data-name="Grupo 55960" transform="translate(9.978 112.009)">
          <g id="Grupo_55958" data-name="Grupo 55958" transform="translate(0)">
            <path id="Trazado_105729" data-name="Trazado 105729" d="M210.969,316.821s.028,2.816.071,7.449v.014c.067,7.039-.113,18.178-.008,30.1-7.93,19.052,2.968,34.166,2.784,51.327-.036.884-.093,1.772-.194,2.667-.489,4.34-5.291,7.368-8.721,9.391-1.792,1.058-3.732,1.844-4.294,2.842a.464.464,0,0,0,.466.662h17.308c1.4,0,1.522-.7,2.011-1.4,2.32,0,3.115-.054,3.359-1.508a20,20,0,0,0,.045-2.5c-.039-2-.168-4.693-.261-6.587.029-.809.093-2.03.18-3.561.769-13.063,3.484-46.706,3.484-46.706l2.46-34.84v-.014l.846-7.1Z" transform="translate(-200.562 -316.821)" fill="#e4a999"/>
            <path id="Trazado_105730" data-name="Trazado 105730" d="M213.92,369.3c-.244,1.458-1.038,1.508-3.359,1.508a47.006,47.006,0,0,1,3.4-4.011A20,20,0,0,1,213.92,369.3Z" transform="translate(-190.734 -267.759)" fill="#db877c"/>
            <path id="Trazado_105731" data-name="Trazado 105731" d="M210.455,368.844c-1.027,1.257-1.369,1.368-1.956,2.041a2.289,2.289,0,0,0-.626,1.374H206.9c.395-1.581,2.455-3.058,3.119-3.656a5.373,5.373,0,0,0,1.425-1.849A3.9,3.9,0,0,1,210.455,368.844Z" transform="translate(-194.325 -267.804)" fill="#d26066"/>
            <path id="Trazado_105732" data-name="Trazado 105732" d="M210.075,367.577a6.642,6.642,0,0,1-2.6,2.15c-1.456.828-1.564,1.268-1.716,1.722h-.819a2.588,2.588,0,0,1,1.072-1.5C207.134,369.164,208.839,368.589,210.075,367.577Z" transform="translate(-196.247 -266.996)" fill="#d26066"/>
            <path id="Trazado_105733" data-name="Trazado 105733" d="M209.246,367.507a21.045,21.045,0,0,1-3.6,2.316c-1.477.8-1.435,1.24-1.587,1.694h-.819a2.589,2.589,0,0,1,1.072-1.5C205.433,369.233,206.788,368.884,209.246,367.507Z" transform="translate(-197.918 -267.064)" fill="#d26066"/>
            <path id="Trazado_105734" data-name="Trazado 105734" d="M207.455,367.608c-.739.624-1.8.979-3.531,2.075-1.409.89-1.324,1.282-1.477,1.736h-.816a2.569,2.569,0,0,1,1.072-1.5,29.713,29.713,0,0,1,4.752-2.313Z" transform="translate(-199.501 -266.965)" fill="#d26066"/>
            <path id="Trazado_105735" data-name="Trazado 105735" d="M208.185,369.659l2.749.055a.335.335,0,0,0,.238-.091,3.045,3.045,0,0,0,.543-.622c.012-.266-.556-.565-1.208-.662a2.7,2.7,0,0,0-1.629.353c-.148.109-.553.513-.8.761a.124.124,0,0,0,.1.206Z" transform="translate(-193.205 -266.268)" fill="#e9bbb1"/>
            <path id="Trazado_105736" data-name="Trazado 105736" d="M206.016,369.459h1.548c.151,0-.065-.476-.6-.531C206.229,368.85,205.865,369.344,206.016,369.459Z" transform="translate(-195.229 -265.677)" fill="#e9bbb1"/>
            <path id="Trazado_105737" data-name="Trazado 105737" d="M204.107,369.459h1.548c.151,0-.064-.476-.6-.531C204.322,368.85,203.957,369.344,204.107,369.459Z" transform="translate(-197.102 -265.677)" fill="#e9bbb1"/>
            <path id="Trazado_105738" data-name="Trazado 105738" d="M202.459,369.459h1.548c.151,0-.064-.476-.6-.531C202.675,368.85,202.308,369.344,202.459,369.459Z" transform="translate(-198.721 -265.677)" fill="#e9bbb1"/>
            <path id="Trazado_105739" data-name="Trazado 105739" d="M200.894,369.43h1.548c.148,0-.065-.475-.6-.531C201.111,368.821,200.746,369.317,200.894,369.43Z" transform="translate(-200.253 -265.706)" fill="#e9bbb1"/>
          </g>
          <g id="Grupo_55959" data-name="Grupo 55959" transform="translate(10.408 0.003)">
            <path id="Trazado_105740" data-name="Trazado 105740" d="M225.342,317.055l-.846,7.1-18.616.117c-.044-4.633-.071-7.449-.071-7.449Z" transform="translate(-205.808 -316.824)" fill="#db877c"/>
            <path id="Trazado_105741" data-name="Trazado 105741" d="M208.265,336.153s.555,6.343,3.066,6.3c2.216-.039,4.217-2.915,3.829-5.921S208.257,332.925,208.265,336.153Z" transform="translate(-203.396 -299.969)" fill="#db877c"/>
          </g>
        </g>
        <g id="Grupo_55962" data-name="Grupo 55962" transform="translate(17.678 82.664)">
          <g id="Grupo_55961" data-name="Grupo 55961" transform="translate(0)">
            <path id="Trazado_105742" data-name="Trazado 105742" d="M250.692,302.627l-42.4-.614s-5.794,18.856-3.173,32.664h22.232c.279,0,1.809-7.851,1.809-7.851s1.532,7.851,1.809,7.851h21.872C255.679,319.507,250.692,302.627,250.692,302.627Z" transform="translate(-204.441 -302.013)" fill="#312342"/>
          </g>
        </g>
        <g id="Grupo_55964" data-name="Grupo 55964" transform="translate(52.516 31.802)">
          <path id="Trazado_105743" data-name="Trazado 105743" d="M223.237,278.151c.9-2,4.041-2.3,5.866-1.089,1.788,1.181,4.849,3.86,8.089,6.433,6.723,5.337,16.226,14.887,18.041,19.262s-8.443,25.393-12.28,28.525a30.486,30.486,0,0,1-6.294-3.7l5.638-20.629s-14.35-12.324-17.379-16.3C221.182,285.734,221.57,281.858,223.237,278.151Z" transform="translate(-222.022 -276.346)" fill="#e4a999"/>
          <g id="Grupo_55963" data-name="Grupo 55963" transform="translate(3.128 49.075)">
            <path id="Trazado_105744" data-name="Trazado 105744" d="M235.794,301.646a31.163,31.163,0,0,0-6.123-.044c-1.224.3-3.339,3.787-3.908,4.209s-1.779.86-1.813,1.341,1.037.81,2.116.473S235.859,304.626,235.794,301.646Z" transform="translate(-223.258 -300.771)" fill="#d26066"/>
            <path id="Trazado_105745" data-name="Trazado 105745" d="M228.712,304.845c1.027-.887,11.361-4.587,12.185-3.553a5.342,5.342,0,0,1,.51,5.675c-.7,1.082-3.654,5.01-5.832,6.526a9.766,9.766,0,0,1-1.633,1.425c-1.985,1.439-3.264,2.257-3.751,1.534-.279-.414,2.5-2.766,3.912-4.406a3.928,3.928,0,0,0-1.625.773l-.029.028c-1.163,1.032-4.368,3.581-4.875,2.519-.24-.5,1.667-2.37,3.179-3.844,1.025-1,1.49-1.918,1.374-2.119-1.433,1.034-4.685,3.256-5.14,3.486-.684.349-1.294.089-1.314-.344-.014-.293,3.157-3.324,4.95-4.918a2.65,2.65,0,0,0-2.148.454c-1.516,1.037-2.9,2.646-3.526,3.034-1.012.632-1.173.309-1.346-.168C223.588,310.236,227,306.33,228.712,304.845Z" transform="translate(-223.602 -301.111)" fill="#e4a999"/>
          </g>
        </g>
        <g id="Grupo_55966" data-name="Grupo 55966" transform="translate(0 31.947)">
          <g id="Grupo_55965" data-name="Grupo 55965" transform="translate(12.061 48.932)">
            <path id="Trazado_105746" data-name="Trazado 105746" d="M204.56,301.646a31.172,31.172,0,0,1,6.125-.044c1.224.3,3.337,3.787,3.908,4.209s1.777.86,1.811,1.341-1.034.81-2.117.474S204.5,304.626,204.56,301.646Z" transform="translate(-198.708 -300.771)" fill="#d26066"/>
            <path id="Trazado_105747" data-name="Trazado 105747" d="M214.89,304.845c-1.027-.887-11.361-4.587-12.185-3.553a5.347,5.347,0,0,0-.51,5.675c.7,1.082,3.654,5.01,5.832,6.526a9.763,9.763,0,0,0,1.633,1.425c1.985,1.439,3.268,2.257,3.751,1.534.279-.414-2.5-2.766-3.912-4.406a3.946,3.946,0,0,1,1.627.773l.028.028c1.165,1.032,4.368,3.581,4.875,2.519.24-.5-1.667-2.37-3.179-3.844-1.022-1-1.488-1.918-1.371-2.119,1.431,1.034,4.683,3.256,5.139,3.486.684.349,1.294.089,1.314-.344.014-.293-3.157-3.324-4.95-4.918a2.65,2.65,0,0,1,2.148.454c1.516,1.037,2.9,2.646,3.526,3.034,1.015.632,1.173.309,1.346-.168C220.015,310.236,216.6,306.33,214.89,304.845Z" transform="translate(-201.61 -301.111)" fill="#e4a999"/>
          </g>
          <path id="Trazado_105748" data-name="Trazado 105748" d="M227.219,278.5c-.9-2-2.419-2.765-4.927-1.363a91.1,91.1,0,0,0-8.369,6.285c-6.723,5.337-15.99,14.718-17.97,19.023-2.756,5.99,8.373,25.635,12.211,28.764a30.429,30.429,0,0,0,6.294-3.7l-5.688-20.389s14.4-12.564,17.431-16.543C229.936,285.663,228.886,282.2,227.219,278.5Z" transform="translate(-195.52 -276.42)" fill="#e4a999"/>
        </g>
        <g id="Grupo_55980" data-name="Grupo 55980" transform="translate(32.072 0)">
          <path id="Trazado_105749" data-name="Trazado 105749" d="M233.322,273.694c.21-.357.759-7.221-3.5-10.717-4.843-3.979-11.476-3.117-14.821-.075s-4.179,7.675-2.357,12.388C212.649,275.29,227.691,283.268,233.322,273.694Z" transform="translate(-211.705 -260.298)" fill="#3a312a"/>
          <g id="Grupo_55978" data-name="Grupo 55978" transform="translate(0.071 7.114)">
            <g id="Grupo_55967" data-name="Grupo 55967" transform="translate(0 4.987)">
              <path id="Trazado_105750" data-name="Trazado 105750" d="M215.285,268.933s-.523-2.1-1.518-2.477-2.263,1.385-1.989,2.75a5.012,5.012,0,0,0,2.59,3.3c.787.222,1.431-.67,1.555-1.227a7.311,7.311,0,0,0-.639-2.35Z" transform="translate(-211.74 -266.404)" fill="#e4a999"/>
              <path id="Trazado_105751" data-name="Trazado 105751" d="M212.8,269.819a3.185,3.185,0,0,1-.559-1.611c.084-.652.572-1.419.969-1.393s1.294,2.017,1.336,2.354-.754.351-.642.767.67.8.85,1.034c.121.157.2.448-.277.513s-1.227-.9-1.227-.9.876.67,1.108.5-.587-.784-.89-1.24.646-.587.624-.844c-.008-.084-.569-1.457-.922-1.431S212.407,268.373,212.8,269.819Z" transform="translate(-211.257 -266.008)" fill="#d26066"/>
              <path id="Trazado_105752" data-name="Trazado 105752" d="M213.149,267.721a1.235,1.235,0,0,0-.319,1.047,1.357,1.357,0,0,0,.452.832,1.257,1.257,0,0,1-.7-1.089.776.776,0,0,1,.571-.789Z" transform="translate(-210.917 -265.113)" fill="#d26066"/>
            </g>
            <g id="Grupo_55968" data-name="Grupo 55968" transform="translate(2.763 0)">
              <path id="Trazado_105753" data-name="Trazado 105753" d="M213.536,269.01a1.681,1.681,0,0,0-.4,1.151,24.774,24.774,0,0,0,.4,2.955,24.052,24.052,0,0,0,1.592,5.755,19.651,19.651,0,0,0,3.977,3.65,5.874,5.874,0,0,0,3.751-.071c.553-.3,3.764-2.476,4.284-3.3.577-.922,2.4-7.576,2.4-7.576-1.32.168-.82-1.516-1.239-2.2-.335-.553-1.213-.794-1.734-1.14a10.189,10.189,0,0,1-1.77-1.477,3.967,3.967,0,0,1-1.327-2.862l-7.406,3.537A7.282,7.282,0,0,0,213.536,269.01Z" transform="translate(-213.135 -263.889)" fill="#e4a999"/>
            </g>
            <g id="Grupo_55970" data-name="Grupo 55970" transform="translate(11.844 6.137)">
              <g id="Grupo_55969" data-name="Grupo 55969" transform="translate(0 0.422)">
                <path id="Trazado_105754" data-name="Trazado 105754" d="M217.717,268.375s.283.494,2.233.507a3.116,3.116,0,0,0,2.6-.887l-4.429.151Z" transform="translate(-217.717 -266.416)" fill="#db877c"/>
                <path id="Trazado_105755" data-name="Trazado 105755" d="M218.328,267.434a2.483,2.483,0,0,0-.478,1.508c.886-.07,2.461-1.587,2.461-1.587a8.517,8.517,0,0,0-1.984.079Z" transform="translate(-217.586 -267.066)" fill="#d26066"/>
                <path id="Trazado_105756" data-name="Trazado 105756" d="M218.39,267.845c-.048.006-.716.67-.629.815.077.073.4-.038.4-.038Z" transform="translate(-217.68 -266.564)" fill="#db877c"/>
                <path id="Trazado_105757" data-name="Trazado 105757" d="M217.929,269.035c0-.071.27-1.381.944-1.57a4.225,4.225,0,0,1,2.233,0c.6.212,1.237,1.2,1.237,1.2a9.451,9.451,0,0,1-2.531.434C218.072,269.2,217.929,269.035,217.929,269.035Z" transform="translate(-217.509 -267.084)" fill="#fff"/>
                <path id="Trazado_105758" data-name="Trazado 105758" d="M220.313,268.207a.9.9,0,0,1-.975.794.88.88,0,0,1-.838-.931.9.9,0,0,1,.977-.794.878.878,0,0,1,.836.931Z" transform="translate(-216.946 -267.124)" fill="#312342"/>
                <path id="Trazado_105759" data-name="Trazado 105759" d="M220.111,268.091c.065-.273-.912-.458-.979-.173C219.1,268.088,220.069,268.285,220.111,268.091Z" transform="translate(-216.325 -266.631)" fill="#fff"/>
                <path id="Trazado_105760" data-name="Trazado 105760" d="M217.9,267.717a12.7,12.7,0,0,1,2.7-.008,4.177,4.177,0,0,1,1.78,1.053,2.589,2.589,0,0,0-1.532-1.441A3.754,3.754,0,0,0,217.9,267.717Z" transform="translate(-217.54 -267.182)" fill="#312342"/>
              </g>
              <path id="Trazado_105761" data-name="Trazado 105761" d="M218.386,267.223a6.85,6.85,0,0,1,2.017.084,4.2,4.2,0,0,1,1.189.626,2.6,2.6,0,0,0-.852-.8,3.816,3.816,0,0,0-2.354.095Z" transform="translate(-217.06 -266.987)" fill="#db877c"/>
            </g>
            <g id="Grupo_55971" data-name="Grupo 55971" transform="translate(4.263 4.472)">
              <path id="Trazado_105762" data-name="Trazado 105762" d="M216.333,266.292a5.738,5.738,0,0,1,1.012,1.482,5.457,5.457,0,0,1,.052,1.76c-.039,0-1.49-2.634-1.49-2.634Z" transform="translate(-211.913 -266.001)" fill="#db877c"/>
              <path id="Trazado_105763" data-name="Trazado 105763" d="M215.951,267.17c.832,0,2.719.214,2.7.168a2.642,2.642,0,0,0-.335-.9c-1.143,0-1.927-.442-2.9-.244a2.611,2.611,0,0,0-1.524,1.288A10.639,10.639,0,0,1,215.951,267.17Z" transform="translate(-213.894 -266.147)" fill="#3a312a"/>
            </g>
            <g id="Grupo_55972" data-name="Grupo 55972" transform="translate(11.156 4.472)">
              <path id="Trazado_105764" data-name="Trazado 105764" d="M218.406,266.292a10.462,10.462,0,0,0-.88,1.482,3.3,3.3,0,0,0-.077,1.726c.436-1.012,1.2-2.8,1.2-2.8Z" transform="translate(-217.369 -266.001)" fill="#db877c"/>
              <path id="Trazado_105765" data-name="Trazado 105765" d="M220.423,267.17c-.83,0-2.719.214-2.7.168a2.641,2.641,0,0,1,.335-.9c1.143,0,1.927-.442,2.9-.244a2.611,2.611,0,0,1,1.524,1.288A10.629,10.629,0,0,0,220.423,267.17Z" transform="translate(-217.024 -266.147)" fill="#3a312a"/>
            </g>
            <g id="Grupo_55973" data-name="Grupo 55973" transform="translate(8.87 9.646)">
              <path id="Trazado_105766" data-name="Trazado 105766" d="M216.218,269.119s1.089,2.055,1.692,1.968,1.561-1.987,1.561-1.987a3.017,3.017,0,0,1-1.792.777,2.863,2.863,0,0,1-1.462-.758Z" transform="translate(-216.215 -268.419)" fill="#db877c"/>
              <path id="Trazado_105767" data-name="Trazado 105767" d="M217.787,269.545a9.36,9.36,0,0,0,1.683-.446,3.034,3.034,0,0,1-1.663.973c-.684.036-1.592-.957-1.592-.953A6.642,6.642,0,0,0,217.787,269.545Z" transform="translate(-216.215 -268.419)" fill="#d26066"/>
              <path id="Trazado_105768" data-name="Trazado 105768" d="M216.955,268.811c-.488.107-.375.844.329.89s.89-.478.7-.775a1.2,1.2,0,0,0-1.025-.115Z" transform="translate(-215.784 -268.746)" fill="#e9bbb1"/>
            </g>
            <path id="Trazado_105769" data-name="Trazado 105769" d="M216.29,272.15a1.98,1.98,0,0,1,3.036.075,6.016,6.016,0,0,1-3.036-.075Z" transform="translate(-207.275 -256.439)" fill="#db877c"/>
            <g id="Grupo_55976" data-name="Grupo 55976" transform="translate(4.193 6.033)">
              <g id="Grupo_55975" data-name="Grupo 55975" transform="translate(0 0)">
                <g id="Grupo_55974" data-name="Grupo 55974" transform="translate(0 0.454)">
                  <path id="Trazado_105770" data-name="Trazado 105770" d="M218.647,268.508s-.295.5-2.232.458a3.043,3.043,0,0,1-2.558-1.012l4.4.3Z" transform="translate(-213.855 -266.385)" fill="#db877c"/>
                  <path id="Trazado_105771" data-name="Trazado 105771" d="M216.9,267.454a2.712,2.712,0,0,1,.432,1.592c-.878-.1-2.4-1.738-2.4-1.738a8.057,8.057,0,0,1,1.968.146Z" transform="translate(-212.8 -267.018)" fill="#d26066"/>
                  <path id="Trazado_105772" data-name="Trazado 105772" d="M215.932,267.827c.048.008.717.67.63.815-.075.075-.4-.036-.4-.036Z" transform="translate(-211.82 -266.509)" fill="#db877c"/>
                  <path id="Trazado_105773" data-name="Trazado 105773" d="M218.232,269.147c.006-.075-.228-1.452-.893-1.669a4,4,0,0,0-2.217-.075c-.6.2-1.262,1.211-1.262,1.211a9.067,9.067,0,0,0,2.5.537C218.083,269.316,218.232,269.147,218.232,269.147Z" transform="translate(-213.856 -267.047)" fill="#fff"/>
                  <path id="Trazado_105774" data-name="Trazado 105774" d="M216.417,268.12a.9.9,0,1,1-.293-.629.9.9,0,0,1,.293.629Z" transform="translate(-213.113 -267.071)" fill="#312342"/>
                  <path id="Trazado_105775" data-name="Trazado 105775" d="M218.334,267.768a12.05,12.05,0,0,0-2.682-.1,4.118,4.118,0,0,0-1.8,1.04s.541-1.252,1.564-1.455a3.592,3.592,0,0,1,2.916.51Z" transform="translate(-213.855 -267.144)" fill="#312342"/>
                </g>
                <path id="Trazado_105776" data-name="Trazado 105776" d="M217.23,267.227a6.527,6.527,0,0,0-2.005.02,4.087,4.087,0,0,0-1.2.616,2.629,2.629,0,0,1,.868-.813A3.624,3.624,0,0,1,217.23,267.227Z" transform="translate(-213.691 -266.935)" fill="#db877c"/>
              </g>
              <path id="Trazado_105777" data-name="Trazado 105777" d="M216.209,268c.028-.292-.959-.363-.987-.06C215.2,268.122,216.19,268.21,216.209,268Z" transform="translate(-212.518 -266.134)" fill="#fff"/>
            </g>
            <g id="Grupo_55977" data-name="Grupo 55977" transform="translate(17.928 5.018)">
              <path id="Trazado_105778" data-name="Trazado 105778" d="M221.433,268.949s.523-2.1,1.52-2.477,2.263,1.385,1.989,2.75a5.009,5.009,0,0,1-2.592,3.3c-.784.222-1.43-.67-1.554-1.227A7.317,7.317,0,0,1,221.433,268.949Z" transform="translate(-220.797 -266.42)" fill="#e4a999"/>
              <path id="Trazado_105779" data-name="Trazado 105779" d="M223.294,269.83a3.184,3.184,0,0,0,.559-1.611c-.084-.65-.572-1.419-.969-1.391s-1.294,2.011-1.336,2.352.749.353.64.769-.67.8-.848,1.032c-.121.157-.2.45.277.513s1.227-.9,1.227-.9-.876.67-1.108.5.587-.784.89-1.239-.646-.592-.624-.846c.008-.084.569-1.456.922-1.431S223.688,268.387,223.294,269.83Z" transform="translate(-220.335 -266.023)" fill="#d26066"/>
              <path id="Trazado_105780" data-name="Trazado 105780" d="M222,267.737a1.235,1.235,0,0,1,.319,1.047,1.353,1.353,0,0,1-.453.832,1.257,1.257,0,0,0,.706-1.089A.776.776,0,0,0,222,267.737Z" transform="translate(-219.729 -265.129)" fill="#d26066"/>
            </g>
          </g>
          <g id="Grupo_55979" data-name="Grupo 55979" transform="translate(7.384 19.408)">
            <path id="Trazado_105781" data-name="Trazado 105781" d="M222.042,270.128a3.42,3.42,0,0,1-3.526,1.966,3.48,3.48,0,0,1-3.086-1.694l.935-.039,4.892-.2Z" transform="translate(-215.431 -270.057)" fill="#312342"/>
            <path id="Trazado_105782" data-name="Trazado 105782" d="M220.8,270.144a2.525,2.525,0,0,1-.3.613,9.378,9.378,0,0,1-3.831.2,2.466,2.466,0,0,1-.759-.614Z" transform="translate(-214.968 -270.041)" fill="#fff"/>
            <path id="Trazado_105783" data-name="Trazado 105783" d="M215.431,270.434a13.455,13.455,0,0,0,3.3.2,11.261,11.261,0,0,0,3.315-.476A30.3,30.3,0,0,0,215.431,270.434Z" transform="translate(-215.431 -270.091)" fill="#d26066"/>
          </g>
        </g>
      </g>
      <g id="Grupo_56005" data-name="Grupo 56005" transform="translate(52.856 0)">
        <g id="Grupo_55982" data-name="Grupo 55982" transform="translate(58.032 33.83)">
          <path id="Trazado_105784" data-name="Trazado 105784" d="M175.566,266.946s6.886,1.724,7.13,8.129,2.011,19.949,2.441,22.817c.975,3.966,3.05,7.2,3.417,13.481s-3.844,25.2-3.539,27.269c1.1,3.781,1.891,9.578-3.842,12.017C176.23,322.72,171.85,274.433,175.566,266.946Z" transform="translate(-174.177 -266.946)" fill="#ff8762"/>
        </g>
        <g id="Grupo_55983" data-name="Grupo 55983" transform="translate(0 31.856)">
          <path id="Trazado_105785" data-name="Trazado 105785" d="M153.843,307.685s-5.978-3.668-5.434-5.073,5.705,3.4,6.611,3.668c-3.488-4.211-4.619-6.611-3.668-6.7s4.756,5.119,4.756,5.119-3.713-5.978-3.08-6.476,4.525,5.207,4.525,5.207S157.513,307.231,153.843,307.685Z" transform="translate(-141.474 -234.3)" fill="#e87454"/>
          <path id="Trazado_105786" data-name="Trazado 105786" d="M178.066,265.95s-1.411,3.63-3.046,7.685c-1.69,4.19-3.619,8.836-4.467,10.378-.535.973-2.124,3.289-4.037,5.987-4.05,5.713-9.553,13.143-9.553,13.143s4.4,16.166,7.97,25.5c.531,1.746-.607,5.161-4.554,4.7-9.336-10.475-15.635-27.629-15.485-30.208,5.541-13.133,14.819-24.212,19.358-29.628C167.721,269.374,177.9,265.928,178.066,265.95Z" transform="translate(-144.892 -265.95)" fill="#ffa78f"/>
          <path id="Trazado_105787" data-name="Trazado 105787" d="M164.309,269.828c-1.69,4.19-3.619,8.836-4.467,10.378-.535.973-2.124,3.289-4.037,5.987.9-11.855,2.765-15.748,2.933-16.15Z" transform="translate(-134.181 -262.143)" fill="#ff8762"/>
          <path id="Trazado_105788" data-name="Trazado 105788" d="M162.114,297.588a7.065,7.065,0,0,1,.456,5.388c-.987,2.885-4.706,8.045-6.755,7.818s-7.97-3.642-8.045-5.085c1.215-.987,4.706,2.2,6.908,2.2,2.5-3.567,2.2-7.59,3.642-8.426S162.114,297.588,162.114,297.588Z" transform="translate(-142.07 -234.892)" fill="#ffa78f"/>
        </g>
        <g id="Grupo_55986" data-name="Grupo 55986" transform="translate(7.479 122.575)">
          <g id="Grupo_55985" data-name="Grupo 55985" transform="translate(0)">
            <g id="Grupo_55984" data-name="Grupo 55984">
              <path id="Trazado_105789" data-name="Trazado 105789" d="M161.207,311.729s.029,3.09.077,8.172v.016c.075,7.722.19,20.039.308,33.121-5.368,17.524,3,34.418,2.108,53.857v.321c-.22,3.71-.719,5.978-4.163,9.2-3.321,3.119-8.663,6.739-9.776,7.851a3.143,3.143,0,0,0-1.089,2h16.013c4.2,0,3.03-.848,4.8-2.57.922-.887,2.753-.142,4.231-.63,1.131-.379,1.056-2.257.664-5.186-.123-.887-.292-1.87-.419-2.949a78.352,78.352,0,0,1-.379-8.045c.357-13.529,2.229-48.284,2.229-48.284l4.641-38.884v-.016l.929-7.794Z" transform="translate(-148.672 -311.729)" fill="#ffa78f"/>
              <path id="Trazado_105790" data-name="Trazado 105790" d="M155.77,369.458h-1.859c-.18,0,.077-.648.723-.723C155.512,368.628,155.95,369.3,155.77,369.458Z" transform="translate(-143.575 -255.784)" fill="#ff8762"/>
              <path id="Trazado_105791" data-name="Trazado 105791" d="M153.941,369.458h-1.859c-.18,0,.077-.648.723-.723C153.68,368.628,154.121,369.3,153.941,369.458Z" transform="translate(-145.37 -255.784)" fill="#ff8762"/>
              <path id="Trazado_105792" data-name="Trazado 105792" d="M152.311,369.391h-1.859c-.18,0,.077-.535.723-.6C152.051,368.707,152.494,369.262,152.311,369.391Z" transform="translate(-146.971 -255.72)" fill="#ff8762"/>
              <path id="Trazado_105793" data-name="Trazado 105793" d="M150.7,369.391H149.01c-.168,0,.07-.535.658-.6C150.468,368.707,150.87,369.262,150.7,369.391Z" transform="translate(-148.382 -255.72)" fill="#ff8762"/>
              <path id="Trazado_105794" data-name="Trazado 105794" d="M163.4,370.485c-1.478.488-3.246-.189-4.229.632,2.033-2.447,2.126-5.316,4.892-5.818C164.456,368.228,164.531,370.107,163.4,370.485Z" transform="translate(-138.356 -259.141)" fill="#ff8762"/>
              <path id="Trazado_105795" data-name="Trazado 105795" d="M159.335,366.247a.975.975,0,0,1,.69,1.668l-.084.08a29.254,29.254,0,0,0-3.352,3.169,3.04,3.04,0,0,0-.521,1.592h-1.207a3.009,3.009,0,0,1,1.308-2.313c.929-.784,3.345-2.537,3.646-3.352.189-.51-.482-.844-.482-.844Z" transform="translate(-142.588 -258.21)" fill="#e87454"/>
              <path id="Trazado_105796" data-name="Trazado 105796" d="M156.271,369.548h3.147s.5-1.159-.7-1.365A2.058,2.058,0,0,0,156.271,369.548Z" transform="translate(-141.203 -256.336)" fill="#ff8762"/>
              <path id="Trazado_105797" data-name="Trazado 105797" d="M159.429,366.685s-.02,1.031-2.114,2.481c-1.592,1.1-3.038,2.179-3.254,3.159h-1.316a7.82,7.82,0,0,1,2.17-2.338C156.6,368.724,158.813,367.9,159.429,366.685Z" transform="translate(-144.665 -257.78)" fill="#e87454"/>
              <path id="Trazado_105798" data-name="Trazado 105798" d="M156.339,367.324c-.5.515-2.61,2.17-3.411,2.915a2.994,2.994,0,0,0-.882,1.458h-.826C151.586,369.914,154.06,368.64,156.339,367.324Z" transform="translate(-146.162 -257.153)" fill="#e87454"/>
              <path id="Trazado_105799" data-name="Trazado 105799" d="M154.812,367.324c-.488.515-2.61,2.17-3.411,2.915a2.994,2.994,0,0,0-.882,1.458h-.82C150.057,369.914,152.53,368.64,154.812,367.324Z" transform="translate(-147.656 -257.153)" fill="#e87454"/>
            </g>
            <path id="Trazado_105800" data-name="Trazado 105800" d="M175.168,311.922l-.929,7.794-19.169.19c-.048-5.083-.077-8.172-.077-8.172Z" transform="translate(-142.458 -311.73)" fill="#ff8762"/>
          </g>
          <path id="Trazado_105801" data-name="Trazado 105801" d="M157.054,332.909s.608,6.961,3.363,6.912c2.43-.044,4.628-3.2,4.2-6.5S157.046,329.367,157.054,332.909Z" transform="translate(-140.434 -293.267)" fill="#ff8762"/>
        </g>
        <g id="Grupo_55989" data-name="Grupo 55989" transform="translate(45.772 122.575)">
          <g id="Grupo_55988" data-name="Grupo 55988">
            <g id="Grupo_55987" data-name="Grupo 55987" transform="translate(0.002)">
              <path id="Trazado_105802" data-name="Trazado 105802" d="M188.167,311.729s-.029,3.09-.077,8.172v.016c-.075,7.722-.19,20.039-.308,33.121,5.368,17.524-3,34.418-2.108,53.857,0,.107,0,.214.006.321.218,3.71.717,5.978,4.162,9.2,3.321,3.119,8.663,6.739,9.776,7.851a3.143,3.143,0,0,1,1.089,2H184.689c-4.2,0-3.03-.848-4.8-2.57-.922-.887-2.753-.142-4.229-.63-1.134-.379-1.058-2.257-.666-5.186.123-.887.292-1.87.419-2.949a78.335,78.335,0,0,0,.379-8.045c-.357-13.529-2.229-48.284-2.229-48.284l-4.641-38.884v-.016l-.929-7.794Z" transform="translate(-167.993 -311.729)" fill="#ffa78f"/>
              <path id="Trazado_105803" data-name="Trazado 105803" d="M178.363,369.458h1.859c.18,0-.077-.648-.723-.723C178.623,368.628,178.183,369.3,178.363,369.458Z" transform="translate(-157.849 -255.784)" fill="#ff8762"/>
              <path id="Trazado_105804" data-name="Trazado 105804" d="M180.192,369.458h1.859c.18,0-.077-.648-.723-.723C180.45,368.628,180.012,369.3,180.192,369.458Z" transform="translate(-156.054 -255.784)" fill="#ff8762"/>
              <path id="Trazado_105805" data-name="Trazado 105805" d="M181.822,369.391h1.859c.18,0-.077-.535-.723-.6C182.082,368.707,181.642,369.262,181.822,369.391Z" transform="translate(-154.453 -255.72)" fill="#ff8762"/>
              <path id="Trazado_105806" data-name="Trazado 105806" d="M183.344,369.391h1.7c.168,0-.071-.535-.66-.6C183.58,368.707,183.18,369.262,183.344,369.391Z" transform="translate(-152.957 -255.72)" fill="#ff8762"/>
              <path id="Trazado_105807" data-name="Trazado 105807" d="M172.321,370.485c1.477.488,3.244-.189,4.227.632-2.033-2.447-2.126-5.316-4.892-5.818C171.262,368.228,171.187,370.107,172.321,370.485Z" transform="translate(-164.653 -259.141)" fill="#ff8762"/>
              <path id="Trazado_105808" data-name="Trazado 105808" d="M176.537,366.247a.975.975,0,0,0-.69,1.668l.084.08a29.248,29.248,0,0,1,3.352,3.169,3.064,3.064,0,0,1,.523,1.592h1.205a3.009,3.009,0,0,0-1.308-2.313c-.928-.784-3.345-2.537-3.646-3.352-.189-.51.482-.844.482-.844Z" transform="translate(-160.572 -258.21)" fill="#e87454"/>
              <path id="Trazado_105809" data-name="Trazado 105809" d="M178.5,369.548h-3.147s-.5-1.159.7-1.365a2.057,2.057,0,0,1,2.444,1.365Z" transform="translate(-160.863 -256.336)" fill="#ff8762"/>
              <path id="Trazado_105810" data-name="Trazado 105810" d="M177.047,366.685s.02,1.031,2.114,2.481c1.592,1.1,3.038,2.179,3.254,3.159h1.316a7.818,7.818,0,0,0-2.17-2.338C179.88,368.724,177.663,367.9,177.047,366.685Z" transform="translate(-159.102 -257.78)" fill="#e87454"/>
              <path id="Trazado_105811" data-name="Trazado 105811" d="M179.363,367.324c.494.515,2.61,2.17,3.408,2.915a2.994,2.994,0,0,1,.882,1.458h.826C184.113,369.914,181.64,368.64,179.363,367.324Z" transform="translate(-156.829 -257.153)" fill="#e87454"/>
              <path id="Trazado_105812" data-name="Trazado 105812" d="M180.888,367.324c.488.515,2.61,2.17,3.411,2.915a3,3,0,0,1,.882,1.458H186C185.64,369.914,183.167,368.64,180.888,367.324Z" transform="translate(-155.332 -257.153)" fill="#e87454"/>
            </g>
            <path id="Trazado_105813" data-name="Trazado 105813" d="M167.991,311.922l.929,7.794,19.169.19c.048-5.083.077-8.172.077-8.172Z" transform="translate(-167.991 -311.73)" fill="#ff8762"/>
          </g>
          <path id="Trazado_105814" data-name="Trazado 105814" d="M179.885,332.909s-.608,6.961-3.363,6.912c-2.43-.044-4.628-3.2-4.2-6.5S179.893,329.367,179.885,332.909Z" transform="translate(-163.794 -293.267)" fill="#ff8762"/>
        </g>
        <g id="Grupo_55990" data-name="Grupo 55990" transform="translate(23.504 22.073)">
          <path id="Trazado_105815" data-name="Trazado 105815" d="M195.856,329.442a42.32,42.32,0,0,1-20.685,5.456c-11.83-.071-18.417-5.456-18.417-5.456s.168-43.991.168-49.241c0-4.34,2.62-6.942,4.532-7.509s10.033-4.243,10.033-4.243l.386-4.178.251-2.693,9.637-.566.206,2.707.359,4.731s7.937,3.327,10.346,4.32,3.613,3.045,3.687,6.8S195.856,329.442,195.856,329.442Z" transform="translate(-156.754 -261.012)" fill="#ffa78f"/>
          <path id="Trazado_105816" data-name="Trazado 105816" d="M174.475,263.72a18.788,18.788,0,0,1-2.834,3.321,3.227,3.227,0,0,1-3.694.507,15.492,15.492,0,0,1-3.563-3.276l.251-2.693,9.637-.566Z" transform="translate(-149.263 -261.012)" fill="#e87454"/>
          <path id="Trazado_105817" data-name="Trazado 105817" d="M164.593,276.431c.091-1.048-3.717-1.413-4.015,0S164.445,278.139,164.593,276.431Z" transform="translate(-153.014 -246.788)" fill="#e87454"/>
          <path id="Trazado_105818" data-name="Trazado 105818" d="M175.892,276.431c.091-1.048-3.716-1.413-4.013,0S175.744,278.139,175.892,276.431Z" transform="translate(-141.921 -246.788)" fill="#e87454"/>
          <path id="Trazado_105819" data-name="Trazado 105819" d="M166.973,288.8s-2.036,3.829.157,6.89A7.555,7.555,0,0,0,166.973,288.8Z" transform="translate(-147.567 -233.734)" fill="#e87454"/>
          <path id="Trazado_105820" data-name="Trazado 105820" d="M161.51,266.879a46.122,46.122,0,0,0,10.056,2.011,28.431,28.431,0,0,0,11.293-1.844S170.407,268.2,161.51,266.879Z" transform="translate(-152.086 -255.254)" fill="#ff8762"/>
        </g>
        <path id="Trazado_105821" data-name="Trazado 105821" d="M199.954,295.28H157.5l-3.361,36.175h22.6c.308,0,1.985-8.614,1.985-8.614s1.68,8.614,1.985,8.614h22.6Z" transform="translate(-135.816 -205.301)" fill="#86bec4"/>
        <g id="Grupo_56004" data-name="Grupo 56004" transform="translate(32.553 0)">
          <path id="Trazado_105822" data-name="Trazado 105822" d="M182.576,262.641c.049-.153.767-3.579-.272-5.808s-2.037-2.849-4.19-3.692c-2-3.385-7.243-4.183-11.306-2.191-3.922,1.922-9.036,8.3-1.96,15.342S181,267.526,182.576,262.641Z" transform="translate(-161.321 -249.874)" fill="#ffad54"/>
          <g id="Grupo_56003" data-name="Grupo 56003" transform="translate(0.103 6.775)">
            <g id="Grupo_56002" data-name="Grupo 56002" transform="translate(0 0)">
              <g id="Grupo_55991" data-name="Grupo 55991" transform="translate(0 5.017)">
                <path id="Trazado_105823" data-name="Trazado 105823" d="M164.94,258.369s-.527-2.114-1.528-2.493-2.275,1.4-2,2.765a5.038,5.038,0,0,0,2.608,3.324c.791.224,1.441-.678,1.565-1.234A7.381,7.381,0,0,0,164.94,258.369Z" transform="translate(-161.372 -255.824)" fill="#ff8762"/>
                <path id="Trazado_105824" data-name="Trazado 105824" d="M162.441,259.256a3.207,3.207,0,0,1-.563-1.621c.084-.656.577-1.425.973-1.4s1.3,2.029,1.346,2.368-.754.354-.646.773.675.806.856,1.04c.121.157.2.452-.279.517s-1.234-.9-1.234-.9.882.67,1.114.5-.592-.789-.893-1.246.648-.594.626-.852c-.006-.084-.571-1.465-.928-1.439S162.043,257.8,162.441,259.256Z" transform="translate(-160.884 -255.424)" fill="#e87454"/>
                <path id="Trazado_105825" data-name="Trazado 105825" d="M162.789,257.149a1.247,1.247,0,0,0-.321,1.053,1.369,1.369,0,0,0,.458.838,1.264,1.264,0,0,1-.71-1.1.782.782,0,0,1,.573-.794Z" transform="translate(-160.542 -254.525)" fill="#e87454"/>
              </g>
              <g id="Grupo_55992" data-name="Grupo 55992" transform="translate(2.783)">
                <path id="Trazado_105826" data-name="Trazado 105826" d="M163.178,258.443a1.691,1.691,0,0,0-.4,1.159,33.2,33.2,0,0,0,2,8.765,19.76,19.76,0,0,0,4,3.672,5.906,5.906,0,0,0,3.771-.071c.556-.3,3.787-2.491,4.31-3.325.587-.922,2.412-7.622,2.412-7.622-1.327.168-.825-1.526-1.246-2.217-.335-.556-1.221-.8-1.746-1.147a10.378,10.378,0,0,1-1.779-1.484,3.994,3.994,0,0,1-1.336-2.879q-3.728,1.777-7.451,3.559a7.329,7.329,0,0,0-2.539,1.591Z" transform="translate(-162.777 -253.293)" fill="#ffa78f"/>
              </g>
              <g id="Grupo_55994" data-name="Grupo 55994" transform="translate(11.919 6.175)">
                <g id="Grupo_55993" data-name="Grupo 55993" transform="translate(0 0.425)">
                  <path id="Trazado_105827" data-name="Trazado 105827" d="M167.387,257.807s.286.5,2.248.511a3.14,3.14,0,0,0,2.615-.894l-4.457.151Z" transform="translate(-167.387 -255.837)" fill="#ff8762"/>
                  <path id="Trazado_105828" data-name="Trazado 105828" d="M168.007,256.86a2.5,2.5,0,0,0-.482,1.52c.89-.07,2.475-1.6,2.475-1.6a8.6,8.6,0,0,0-1.993.077Z" transform="translate(-167.256 -256.49)" fill="#e87454"/>
                  <path id="Trazado_105829" data-name="Trazado 105829" d="M168.064,257.274c-.048.006-.719.678-.632.82.077.074.4-.038.4-.038Z" transform="translate(-167.35 -255.985)" fill="#ff8762"/>
                  <path id="Trazado_105830" data-name="Trazado 105830" d="M167.6,258.473c-.006-.073.27-1.391.949-1.58a4.259,4.259,0,0,1,2.248,0c.6.214,1.243,1.205,1.243,1.205a9.537,9.537,0,0,1-2.544.438C167.747,258.639,167.6,258.473,167.6,258.473Z" transform="translate(-167.177 -256.508)" fill="#fff"/>
                  <path id="Trazado_105831" data-name="Trazado 105831" d="M170,257.638a.9.9,0,0,1-.983.8.886.886,0,0,1-.838-.937.9.9,0,0,1,.983-.8.886.886,0,0,1,.838.937Z" transform="translate(-166.612 -256.549)" fill="#312342"/>
                  <path id="Trazado_105832" data-name="Trazado 105832" d="M169.8,257.522c.065-.276-.918-.462-.985-.174C168.775,257.517,169.754,257.719,169.8,257.522Z" transform="translate(-165.986 -256.053)" fill="#fff"/>
                  <path id="Trazado_105833" data-name="Trazado 105833" d="M167.569,257.145a12.871,12.871,0,0,1,2.713-.008,4.218,4.218,0,0,1,1.789,1.058,2.6,2.6,0,0,0-1.542-1.449,3.771,3.771,0,0,0-2.96.4Z" transform="translate(-167.209 -256.607)" fill="#312342"/>
                </g>
                <path id="Trazado_105834" data-name="Trazado 105834" d="M168.06,256.647a6.884,6.884,0,0,1,2.029.084,4.191,4.191,0,0,1,1.2.63,2.623,2.623,0,0,0-.858-.809A3.848,3.848,0,0,0,168.06,256.647Z" transform="translate(-166.727 -256.41)" fill="#ff8762"/>
              </g>
              <g id="Grupo_55995" data-name="Grupo 55995" transform="translate(4.288 4.499)">
                <path id="Trazado_105835" data-name="Trazado 105835" d="M165.995,255.712a5.726,5.726,0,0,1,1.018,1.49,5.458,5.458,0,0,1,.051,1.77c-.039,0-1.5-2.647-1.5-2.647Z" transform="translate(-161.544 -255.417)" fill="#ff8762"/>
                <path id="Trazado_105836" data-name="Trazado 105836" d="M165.611,256.595c.838,0,2.734.216,2.717.168a2.625,2.625,0,0,0-.341-.9c-1.15,0-1.94-.446-2.917-.246a2.624,2.624,0,0,0-1.534,1.3A10.7,10.7,0,0,1,165.611,256.595Z" transform="translate(-163.536 -255.565)" fill="#ffad54"/>
              </g>
              <g id="Grupo_55996" data-name="Grupo 55996" transform="translate(11.227 4.499)">
                <path id="Trazado_105837" data-name="Trazado 105837" d="M168.08,255.712a10.5,10.5,0,0,0-.886,1.49,3.352,3.352,0,0,0-.077,1.738c.44-1.018,1.208-2.818,1.208-2.818Z" transform="translate(-167.037 -255.417)" fill="#ff8762"/>
                <path id="Trazado_105838" data-name="Trazado 105838" d="M170.111,256.595c-.838,0-2.737.216-2.719.168a2.668,2.668,0,0,1,.341-.9c1.151,0,1.942-.446,2.917-.246a2.616,2.616,0,0,1,1.534,1.3,10.669,10.669,0,0,0-2.073-.318Z" transform="translate(-166.691 -255.565)" fill="#ffad54"/>
              </g>
              <g id="Grupo_55997" data-name="Grupo 55997" transform="translate(8.928 9.705)">
                <path id="Trazado_105839" data-name="Trazado 105839" d="M165.878,258.556s1.1,2.069,1.7,1.982,1.57-2,1.57-2a3.024,3.024,0,0,1-1.8.781,2.886,2.886,0,0,1-1.471-.762Z" transform="translate(-165.876 -257.852)" fill="#ff8762"/>
                <path id="Trazado_105840" data-name="Trazado 105840" d="M167.459,258.984a9.44,9.44,0,0,0,1.692-.448,3.054,3.054,0,0,1-1.676.979c-.685.036-1.6-.963-1.6-.96a6.633,6.633,0,0,0,1.583.428Z" transform="translate(-165.876 -257.851)" fill="#e87454"/>
                <path id="Trazado_105841" data-name="Trazado 105841" d="M166.622,258.247c-.491.109-.379.848.329.9s.9-.482.7-.781a1.206,1.206,0,0,0-1.029-.115Z" transform="translate(-165.441 -258.181)" fill="#ff8762"/>
              </g>
              <path id="Trazado_105842" data-name="Trazado 105842" d="M165.951,261.606a1.792,1.792,0,0,1,1.5-.675,1.766,1.766,0,0,1,1.56.754,6.041,6.041,0,0,1-3.055-.079Z" transform="translate(-156.877 -245.796)" fill="#ff8762"/>
              <g id="Grupo_56000" data-name="Grupo 56000" transform="translate(4.225 6.071)">
                <g id="Grupo_55999" data-name="Grupo 55999" transform="translate(0 0)">
                  <g id="Grupo_55998" data-name="Grupo 55998" transform="translate(0 0.457)">
                    <path id="Trazado_105843" data-name="Trazado 105843" d="M168.323,257.939s-.3.509-2.245.462a3.073,3.073,0,0,1-2.574-1.018l4.423.3Z" transform="translate(-163.504 -255.807)" fill="#ff8762"/>
                    <path id="Trazado_105844" data-name="Trazado 105844" d="M166.565,256.88a2.709,2.709,0,0,1,.436,1.6c-.884-.1-2.414-1.748-2.414-1.748A8.136,8.136,0,0,1,166.565,256.88Z" transform="translate(-162.441 -256.443)" fill="#e87454"/>
                    <path id="Trazado_105845" data-name="Trazado 105845" d="M165.591,257.256c.048.008.722.678.634.82-.077.075-.4-.038-.4-.038Z" transform="translate(-161.455 -255.931)" fill="#ff8762"/>
                    <path id="Trazado_105846" data-name="Trazado 105846" d="M167.9,258.586c.008-.075-.228-1.462-.9-1.68a4.016,4.016,0,0,0-2.232-.075c-.6.206-1.27,1.219-1.27,1.219a9.1,9.1,0,0,0,2.514.539C167.754,258.754,167.9,258.586,167.9,258.586Z" transform="translate(-163.504 -256.472)" fill="#fff"/>
                    <path id="Trazado_105847" data-name="Trazado 105847" d="M166.078,257.549a.9.9,0,0,1-.862.951.91.91,0,1,1,.862-.954Z" transform="translate(-162.757 -256.496)" fill="#312342"/>
                    <path id="Trazado_105848" data-name="Trazado 105848" d="M168.008,257.2a12.059,12.059,0,0,0-2.7-.095,4.123,4.123,0,0,0-1.809,1.046s.545-1.257,1.574-1.464A3.614,3.614,0,0,1,168.008,257.2Z" transform="translate(-163.504 -256.571)" fill="#312342"/>
                  </g>
                  <path id="Trazado_105849" data-name="Trazado 105849" d="M166.9,256.652a6.5,6.5,0,0,0-2.017.022,4.136,4.136,0,0,0-1.208.618,2.64,2.64,0,0,1,.876-.816,3.641,3.641,0,0,1,2.35.176Z" transform="translate(-163.34 -256.359)" fill="#ff8762"/>
                </g>
                <path id="Trazado_105850" data-name="Trazado 105850" d="M165.87,257.434c.028-.293-.965-.366-.995-.061C164.857,257.553,165.85,257.642,165.87,257.434Z" transform="translate(-162.158 -255.553)" fill="#fff"/>
              </g>
              <g id="Grupo_56001" data-name="Grupo 56001" transform="translate(18.04 5.05)">
                <path id="Trazado_105851" data-name="Trazado 105851" d="M171.128,258.386s.525-2.116,1.528-2.493,2.273,1.393,2,2.765a5.026,5.026,0,0,1-2.608,3.324c-.791.226-1.439-.675-1.564-1.234A7.368,7.368,0,0,1,171.128,258.386Z" transform="translate(-170.485 -255.841)" fill="#ffa78f"/>
                <path id="Trazado_105852" data-name="Trazado 105852" d="M173,259.273a3.2,3.2,0,0,0,.563-1.623c-.084-.654-.577-1.425-.973-1.4s-1.3,2.03-1.346,2.37.754.353.646.771-.675.809-.854,1.04c-.121.157-.2.452.277.517s1.234-.9,1.234-.9-.88.67-1.114.5.592-.791.893-1.249-.648-.594-.626-.85c.008-.084.571-1.467.928-1.441S173.4,257.821,173,259.273Z" transform="translate(-170.02 -255.442)" fill="#e87454"/>
                <path id="Trazado_105853" data-name="Trazado 105853" d="M171.7,257.165a1.247,1.247,0,0,1,.321,1.053,1.363,1.363,0,0,1-.456.838,1.264,1.264,0,0,0,.707-1.1A.782.782,0,0,0,171.7,257.165Z" transform="translate(-169.41 -254.542)" fill="#ff8762"/>
              </g>
            </g>
          </g>
          <path id="Trazado_105854" data-name="Trazado 105854" d="M165.509,260.345a3.99,3.99,0,0,0,2.457.973,3.665,3.665,0,0,0,3.43-2.017A6.889,6.889,0,0,1,165.509,260.345Z" transform="translate(-157.208 -240.621)" fill="#e87454"/>
        </g>
      </g>
      <g id="Grupo_55080" data-name="Grupo 55080" transform="translate(40.628 86.634)">
        <g id="Grupo_55079" data-name="Grupo 55079" transform="translate(0 0)">
          <g id="Grupo_55076" data-name="Grupo 55076">
            <path id="Trazado_104257" data-name="Trazado 104257" d="M138.723,296.937a3.344,3.344,0,1,1,.979,2.367,3.346,3.346,0,0,1-.979-2.367Zm.353,0a2.993,2.993,0,1,0,2.993-2.994h0a3,3,0,0,0-2.993,2.994Z" transform="translate(-138.723 -293.592)" fill="#b5ac84"/>
          </g>
          <g id="Grupo_55077" data-name="Grupo 55077" transform="translate(4.266 2.884)">
            <path id="Trazado_104258" data-name="Trazado 104258" d="M140.876,295.511a.462.462,0,1,1,.462.462h0A.463.463,0,0,1,140.876,295.511Zm.235,0a.228.228,0,1,0,.228-.225h0a.225.225,0,0,0-.226.225Z" transform="translate(-140.876 -295.049)" fill="#b5ac84"/>
          </g>
          <g id="Grupo_55078" data-name="Grupo 55078" transform="translate(1.564 2.884)">
            <path id="Trazado_104259" data-name="Trazado 104259" d="M139.512,295.511a.462.462,0,1,1,.463.462A.462.462,0,0,1,139.512,295.511Zm.235,0a.227.227,0,1,0,.228-.225.227.227,0,0,0-.228.225Z" transform="translate(-139.512 -295.049)" fill="#b5ac84"/>
          </g>
        </g>
      </g>
      <g id="Grupo_55089" data-name="Grupo 55089" transform="translate(140.552 107.287)">
        <g id="Grupo_55088" data-name="Grupo 55088">
          <g id="Grupo_55081" data-name="Grupo 55081" transform="translate(0 2.087)">
            <path id="Trazado_104260" data-name="Trazado 104260" d="M189.147,305.067h9.337V319.6h-9.337Zm8.627.712h-7.917v13.111h7.917Z" transform="translate(-189.147 -305.067)" fill="#b5ac84"/>
          </g>
          <g id="Grupo_55082" data-name="Grupo 55082" transform="translate(2.595)">
            <path id="Trazado_104261" data-name="Trazado 104261" d="M190.457,304.014H194.6v2.746h-4.144Zm3.436.711h-2.729v1.33h2.721Z" transform="translate(-190.455 -304.014)" fill="#b5ac84"/>
          </g>
          <g id="Grupo_55083" data-name="Grupo 55083" transform="translate(2.595 15.927)">
            <path id="Trazado_104262" data-name="Trazado 104262" d="M190.457,312.051H194.6V314.8h-4.144Zm3.436.713h-2.729v1.327h2.721Z" transform="translate(-190.455 -312.051)" fill="#b5ac84"/>
          </g>
          <g id="Grupo_55084" data-name="Grupo 55084" transform="translate(1.067 3.233)">
            <path id="Trazado_104263" data-name="Trazado 104263" d="M190.041,310.634a.366.366,0,0,0,.093-.012c1.29-.349,5.309-2.045,6.854-4.435a.356.356,0,1,0-.6-.386c-1.413,2.188-5.271,3.819-6.44,4.134a.356.356,0,0,0,.091.7Z" transform="translate(-189.687 -305.638)" fill="#b5ac84"/>
          </g>
          <g id="Grupo_55085" data-name="Grupo 55085" transform="translate(1.066 5.505)">
            <path id="Trazado_104264" data-name="Trazado 104264" d="M190.038,311.779a.362.362,0,0,0,.093-.012c1.29-.347,5.309-2.045,6.854-4.435a.356.356,0,1,0-.6-.386c-1.413,2.188-5.271,3.819-6.44,4.134a.355.355,0,0,0-.251.438.351.351,0,0,0,.335.261Z" transform="translate(-189.683 -306.783)" fill="#b5ac84"/>
          </g>
          <g id="Grupo_55086" data-name="Grupo 55086" transform="translate(1.067 7.762)">
            <path id="Trazado_104265" data-name="Trazado 104265" d="M190.041,312.941a.293.293,0,0,0,.093-.014c1.29-.347,5.309-2.043,6.854-4.433a.357.357,0,0,0-.582-.414l-.018.028c-1.411,2.188-5.266,3.821-6.439,4.134a.356.356,0,0,0,.091.7Z" transform="translate(-189.687 -307.93)" fill="#b5ac84"/>
          </g>
          <g id="Grupo_55087" data-name="Grupo 55087" transform="translate(1.066 10.067)">
            <path id="Trazado_104266" data-name="Trazado 104266" d="M190.04,314.072a.365.365,0,0,0,.093-.012c1.29-.349,5.309-2.043,6.854-4.435a.357.357,0,0,0-.6-.386c-1.412,2.187-5.267,3.818-6.44,4.134a.354.354,0,0,0,.091.7Z" transform="translate(-189.685 -309.097)" fill="#b5ac84"/>
          </g>
        </g>
      </g>
    </g>
  </g>
</svg>
