<svg xmlns="http://www.w3.org/2000/svg" xmlns:xlink="http://www.w3.org/1999/xlink" width="220.031" height="222.094" viewBox="0 0 220.031 222.094">
  <defs>
    <clipPath id="clip-path">
      <rect id="Rectángulo_362249" data-name="Rectángulo 362249" width="195" height="222.094" fill="none"/>
    </clipPath>
  </defs>
  <g id="Grupo_1065386" data-name="Grupo 1065386" transform="translate(-1039.646 -1117.501)">
    <g id="Grupo_1065168" data-name="Grupo 1065168" transform="translate(702.677 338.648)">
      <path id="Trazado_100521" data-name="Trazado 100521" d="M103.783,434.588C-27.656,429.281,22.1,639.336,174.577,629.536S211.6,438.946,103.783,434.588Z" transform="translate(308.966 357.72)" fill="#fff"/>
    </g>
    <g id="Grupo_1065174" data-name="Grupo 1065174" transform="translate(1052.162 1117.5)">
      <g id="Grupo_1065173" data-name="Grupo 1065173" transform="translate(0 0.001)" clip-path="url(#clip-path)">
        <path id="Trazado_777861" data-name="Trazado 777861" d="M13.6,48.19A6.719,6.719,0,0,1,9.175,55.3a2.342,2.342,0,0,1-2.011-.2A7.214,7.214,0,0,1,3.73,49.241a7.415,7.415,0,0,1,1.543-3.7c1.018-1.084,2.151-1.725,3.7-.917.916.474,1.94.739,2.9,1.143A2.832,2.832,0,0,1,13.6,48.19" transform="translate(-1.719 -20.396)" fill="#afb1a4"/>
        <path id="Trazado_777862" data-name="Trazado 777862" d="M50.26,5.542a1.822,1.822,0,0,1,1.51,1.994,1.694,1.694,0,0,1-1.531,1.6A2.219,2.219,0,0,1,48.07,6.922c.065-.544,1.381-1.374,2.189-1.38" transform="translate(-22.149 -2.555)" fill="#afb1a4"/>
        <path id="Trazado_777863" data-name="Trazado 777863" d="M110.446,4.1a2.025,2.025,0,0,1,2.065,1.876,1.827,1.827,0,0,1-1.634,1.515c-.809.011-1.515-.857-1.58-1.94A1.327,1.327,0,0,1,110.446,4.1" transform="translate(-50.369 -1.89)" fill="#afb1a4"/>
        <path id="Trazado_777864" data-name="Trazado 777864" d="M157.792,103.271c.2.264.421.518.642.782a2.132,2.132,0,0,1-.657.264,1,1,0,0,1-.625-.2.81.81,0,0,1-.1-1.213c.469-.3.549.119.738.367" transform="translate(-72.273 -47.377)" fill="#afb1a4"/>
        <path id="Trazado_777865" data-name="Trazado 777865" d="M165.924,51.283c.038.82-1.175,1.764-2.221,1.726-.733-.022-1.267-.749-1.272-1.737-.005-1,.485-1.661,1.278-1.7a2.155,2.155,0,0,1,2.215,1.714" transform="translate(-74.857 -22.843)" fill="#afb1a4"/>
        <path id="Trazado_777866" data-name="Trazado 777866" d="M205.685,37.21c.107,1.046-.809,1.8-2.319,1.908-.954.065-1.531-.679-1.655-2.134a1.645,1.645,0,0,1,1.418-2,2.361,2.361,0,0,1,2.556,2.222" transform="translate(-92.954 -16.118)" fill="#afb1a4"/>
        <path id="Trazado_777867" data-name="Trazado 777867" d="M262.358,68.207c-.162.146-.356.421-.464.394a13.982,13.982,0,0,1-2.184-.733c-.431-.2-.135-.582.081-.809a1.191,1.191,0,0,1,1.558-.1c.491.28.97.6,1.008,1.251" transform="translate(-119.587 -30.747)" fill="#afb1a4"/>
        <path id="Trazado_777868" data-name="Trazado 777868" d="M301.908,81.83a2.338,2.338,0,0,1-1.148,1.828,13.523,13.523,0,0,1-1.176.749c-3.412,1.773-6.631.1-7.229-3.748a3.85,3.85,0,0,1,1.725-4.248,4.391,4.391,0,0,1,4.961-.114,6.293,6.293,0,0,1,2.868,5.532" transform="translate(-134.697 -34.832)" fill="#afb1a4"/>
        <path id="Trazado_777869" data-name="Trazado 777869" d="M195.671,248.3c1.471,1,.986,2.216.393,3.376a10.606,10.606,0,0,1-1.483,1.936c-3.683,4.28-8.411,7.025-13.581,9.052a166.815,166.815,0,0,1-16.616,5.585c-2.481.68-4.913,1.581-7.413,2.13a142.705,142.705,0,0,1-19.663,3.008c-.949.07-1.9.135-2.847.183a73.479,73.479,0,0,1-9.118.307,98.823,98.823,0,0,1-14.141-1.121,107,107,0,0,1-10.815-2.232c-2.642-.685-5.284-1.348-7.926-2.038-2.906-.76-5.806-1.548-8.675-2.431a90.185,90.185,0,0,1-8.524-3.074,60.119,60.119,0,0,1-11.425-6.243c-2.1-1.488-4.087-3.138-6.232-4.55a12.966,12.966,0,0,1-5.564-8.967,31.776,31.776,0,0,1-.426-8.82A29.363,29.363,0,0,1,53.7,226a12.87,12.87,0,0,1,.981-1.855c.318-.5.75-.437,1.16-.071a1.866,1.866,0,0,1,.237.259c5.392,6.788,12.908,10.325,20.725,13.241,10.373,3.871,21.258,5.435,32.2,6.75,9.505,1.137,18.952.34,28.365-.717,7.084-.8,14.1-2.195,21.166-3.159,4.874-.663,9.7-1.526,14.52-2.5,4.023-.819,8.011-1.742,11.559-3.963a9.126,9.126,0,0,1,1.6-.695c2.05-.782,1.973-.712,3.37,1.045,2.383,2.986,3.715,6.475,5.025,9.98a11.047,11.047,0,0,1,.469,2.394c.075.587.092,1.245.6,1.585" transform="translate(-23.725 -103.132)" fill="#e8e8e8"/>
        <path id="Trazado_777870" data-name="Trazado 777870" d="M124.6,176.751c.2-.1.485-.14.593-.3.636-.959,1.251-1.93,1.822-2.922a1.425,1.425,0,0,0,.194-.965,1.883,1.883,0,0,0-.7-1.105c-.534-.3-.787.221-.917.669-.394,1.32-.771,2.653-1.127,3.985-.049.188.081.42.129.636m-45.8.868Q84.078,187.5,89.311,197.4a3.251,3.251,0,0,0,.593.864c.308.3.637.819,1.154.448a1.153,1.153,0,0,0,.377-.874c-.071-1.16-.221-2.318-.3-3.057-.06-1.289-.075-2.34-.13-3.327-.022-.318-.048-.631-.08-.944-.717-6.739-1.014-13.5-1.192-20.267-.054-1.984-.178-3.968-.394-5.936-.173-1.574-.545-1.892-1.989-1.769-4.3.373-8.6.745-12.891,1.235-2.685.307-2.8.588-1.493,3.073,1.9,3.618,3.909,7.171,5.834,10.773M12.9,259.553c-1.655-2.1-3.612-3.957-4.955-6.309-.253-.436-.431-1.229-1.154-.944-.3.119-.459.772-.528,1.2-.129.8-.151,1.622-.253,2.8a18.029,18.029,0,0,0,2.836,9.914c.825,1.353,1.267,1.262,2.087-.237.669-1.223,1.3-2.469,2.076-3.623a2.07,2.07,0,0,0-.108-2.8m33.147,23.685c0-.35-.005-.7,0-1.045.011-.47.049-.939.043-1.4-.022-1.564-.1-1.747-1.628-2.281-3.731-1.3-7.327-2.911-10.923-4.523-.873-.389-1.747-.781-2.62-1.165A45.638,45.638,0,0,1,17.162,264c-1.768-1.721-2.475-1.548-3.531.646a21.937,21.937,0,0,0-.814,2.3c-1.111,3.214-1.046,3.468,1.526,5.661.27.233.534.459.814.669a69.161,69.161,0,0,0,12.293,7.349c4.976,2.318,10.2,4.011,15.333,5.914a13.536,13.536,0,0,0,2.378.567.757.757,0,0,0,.976-.717c.049-1.046.011-2.1.011-3.149Zm98.19-1.963c-.453.119-.879.325-1.326.453a121.689,121.689,0,0,1-17.765,3.931c-1.6.2-3.2.27-4.8.421-.841.081-1.677.178-2.507.335-3.666.684-3.521-.087-3.58,3.677a15.15,15.15,0,0,1-.232,2.086c-.4,2.556-.409,2.551,1.968,2.512.7-.01,1.4,0,2.1,0,4.5-.253,8.983-.663,13.425-1.337.636-.1,1.266-.2,1.9-.308,3.672-.619,7.278-1.628,10.918-2.464a2.238,2.238,0,0,0,1.865-1.379,9.992,9.992,0,0,0,.226-6.853c-.377-1.073-.992-1.386-2.194-1.073m25.27-13.074c-.361.3-.734.582-1.105.864-4.68,3.525-9.457,6.89-15.031,8.906-1.429.517-2.868,1.008-4.281,1.558-.987.383-1.3.95-.933,1.925a14.284,14.284,0,0,1,1.024,6.169c-.065.916.426,1.229,1.331,1.041a18.486,18.486,0,0,0,2.043-.508,81.9,81.9,0,0,0,18.79-8.518,7.221,7.221,0,0,0,3.537-6.454,8.487,8.487,0,0,0-.771-3.682c-1.747-3.6-1.3-4.039-4.6-1.3M192.5,238.974a92.565,92.565,0,0,0-8.89-12.153,20.828,20.828,0,0,0-4.384-4.011c-1.057-.669-1.461-.664-1.924.432-1.035,2.463-2.922,4.156-4.825,5.9a25.912,25.912,0,0,1-6.956,4.659c-1.913.862-3.811,1.768-5.72,2.647-1.488.679-1.822,1.283-1.1,2.7a104.176,104.176,0,0,0,8.227,14.25,68.4,68.4,0,0,1,4.448,6.717c.345.615.733,1.2,1.132,1.774a.847.847,0,0,0,1.219.28,17.467,17.467,0,0,0,2.243-1.644c1.472-1.342,2.836-2.8,4.313-4.12a40.885,40.885,0,0,1,3.31-2.533c.123-.093.458-.006.636.1a.738.738,0,0,1,.248.927,2.169,2.169,0,0,1-.572.847c-2.868,2.583-5.753,5.139-8.626,7.71-1.294,1.148-1.434,1.412-.588,3a15.693,15.693,0,0,1,1.962,7.709c-.011.976.539,1.235,1.342.669,4.5-3.159,8.853-6.5,12.346-10.826,3.155-3.909,5.387-8.184,5.36-14.12a23.843,23.843,0,0,0-3.2-10.923m-22.773,26.92a11.039,11.039,0,0,0,1.213-1.251,2.687,2.687,0,0,0,.3-.728c-.162-.361-.329-.8-.545-1.2a67.772,67.772,0,0,0-5.073-7.973,55.264,55.264,0,0,1-4.319-6.794c-1.489-2.776-3.014-5.537-4.534-8.292-.728-1.327-1.073-1.52-2.529-1.154-1.924.491-3.844,1.014-5.72,1.65-3.655,1.234-7.338,2.35-11.085,3.229-1.925.453-3.887.755-5.807,1.229-1.364.34-1.682,1-1.111,2.324.787,1.822,1.628,3.623,2.566,5.369q6.607,12.351,13.285,24.666c.108.211.194.426.318.625a1.01,1.01,0,0,0,1.175.518c.68-.178,1.359-.356,2.017-.6a66.948,66.948,0,0,0,19.846-11.619m-125.67-64.11A77.271,77.271,0,0,0,64.375,210.3c5.348,1.263,10.751,2.189,16.174,3.074a127.815,127.815,0,0,0,36.392.264c9.166-1.138,18.282-2.69,27.394-4.226,4.152-.7,8.239-1.77,12.33-2.756a15.508,15.508,0,0,0,5.7-2.635c.388-.292.77-.615.7-1.122-.566-3.85-1.316-7.58-4.41-10.416a43.836,43.836,0,0,1-4.96-5.435,47.211,47.211,0,0,0-7.882-8.427,69.553,69.553,0,0,0-11.274-7.057c-.615-.318-1.348-.409-1.984-.695a1.647,1.647,0,0,0-2.146.555,1.78,1.78,0,0,0-.27,2.215c3.154,6.4,6.454,12.725,10.135,18.844,1.2,2,2.486,3.952,3.726,5.936a.786.786,0,0,1-.285,1.186.958.958,0,0,1-1.241-.318,2.422,2.422,0,0,1-.188-.291c-1.7-2.939-3.386-5.877-5.1-8.8-2.771-4.728-5.052-9.737-8.152-14.272-.652-.954-.847-1.008-1.4-.231-1.483,2.1-2.938,4.232-4.443,6.319a8.76,8.76,0,0,0-1.461,3.17c-1.359,5.941-4.319,11.365-5.623,17.329a.8.8,0,0,1-.189.3c-.231.258-.442.545-.867.42-.367-.108-.642-.318-.6-.712a16.385,16.385,0,0,1,1.461-5.02,45.918,45.918,0,0,0,2.884-7.9c.027-.128-.173-.328-.3-.458-.038-.038-.237.033-.308.1a4.385,4.385,0,0,0-.711.772c-3.251,5.138-6.9,10.022-9.818,15.371a5.623,5.623,0,0,1-2.48,2.847.639.639,0,0,1-.583-.1.749.749,0,0,1-.15-.625,3.367,3.367,0,0,1,.464-.933q2.887-4.36,5.785-8.723,3.413-5.135,6.841-10.271c2.006-3.008,4.178-5.919,4.772-9.629a9.622,9.622,0,0,1,.453-1.326c.647-2.125,1.321-4.244,1.914-6.385.507-1.837.167-2.679-1.45-3.445a35.706,35.706,0,0,0-11.166-2.831c-.836-.1-1.278.339-1.31,1.256-.065,1.87-.049,3.742-.087,5.618q-.258,12.81-.528,25.62a1.523,1.523,0,0,1-.275.841.621.621,0,0,1-.7.313c-.528-.221-.561-.691-.561-1.126.006-1.408.033-2.81.087-4.217.135-3.741.286-7.484.431-11.225h.124c0-4.8.027-9.6-.011-14.395-.027-3.354-.35-3.667-3.752-4.12-.114-.016-.232-.022-.345-.032-3.618-.259-7.23-.55-10.864-.469-3.31.075-3.327.054-3.23,3.31q.38,13.029,1.375,26.026c.226,2.889.469,5.774.744,8.658a14.114,14.114,0,0,1,.043,2.082.908.908,0,0,1-.82.954c-.464.049-.55-.361-.642-.679-.156-.528-.075-1.256-.912-1.218-1.148.049-1.649-.706-2.1-1.558l-4.27-8.055Q78.1,179.51,71.728,167.5c-.194-.361-.382-.728-.576-1.089a1.011,1.011,0,0,0-.491-.47c-.151-.049-.528.114-.539.205a19.52,19.52,0,0,0-.076,2.442,228.829,228.829,0,0,0,2.82,25.8c.092.572.442,1.133.119,1.688a1.518,1.518,0,0,1-.8.555c-.119.038-.362-.237-.523-.388a.538.538,0,0,1-.162-.307c-.706-6.632-2.054-13.183-2.4-19.857-.167-3.154-.4-6.3-.636-9.457-.065-.921-.566-1.283-1.413-.975-4.178,1.514-8.411,2.912-12.1,5.494a23.7,23.7,0,0,0-2.188,1.762c-1.121,1-1.2,1.445-.539,2.734.539,1.04,1.121,2.054,1.72,3.062q4.755,7.991,9.521,15.975a4.578,4.578,0,0,1,.928,2.6.8.8,0,0,1-.3.582.727.727,0,0,1-.642-.141,5.22,5.22,0,0,1-.879-1.067c-2.194-3.731-4.362-7.479-6.556-11.209-1.542-2.62-3.138-5.214-4.68-7.839-1.277-2.189-1.7-1.838-3.72-1.083a9.959,9.959,0,0,0-3.9,2.91c-.771.879-1.493,1.8-2.308,2.637-2.739,2.814-4.27,6.41-6.318,9.672a1.292,1.292,0,0,0,.156,1.617c2.669,3.09,5.16,6.347,8.815,8.427m71.082,83.2c.82.044,1.634.011,2.453.011V284.9c.873-.064,1.752-.1,2.626-.173.291-.022.582-.054.868-.092a135.035,135.035,0,0,0,15.166-2.75,44.593,44.593,0,0,0,7.716-2.3c.836-.377,1.078-.862.7-1.671-.992-2.119-1.963-4.254-3.105-6.282-4.362-7.736-8.767-15.447-12.438-23.549-.243-.529-.555-1.03-.782-1.564a1.673,1.673,0,0,0-1.979-1.057c-1.5.205-2.971.539-4.5.621-1.8.1-3.6.216-5.391.35-2.512.189-5.025.4-7.537.6-1.8.152-2.259.615-2.287,2.421a42.439,42.439,0,0,0,.944,8.7c.8,4.13,1.812,8.217,2.8,12.3,1.062,4.426,2.211,8.836,3.31,13.252a1.482,1.482,0,0,0,1.445,1.266m-3.92,2.124a9.781,9.781,0,0,0-1.741-.113c-4.556.092-9.112.22-13.667.3-2.566.043-5.139.049-7.7-.038-.867-.031-1.94.147-2.469-.911-.232-.475.706-.83,2.3-.857.7-.01,1.4-.022,2.1.011,6.313.292,12.622.01,18.935-.081,2.529-.031,2.825-.458,2.313-2.932-.049-.226-.119-.453-.189-.674-1.9-6.022-2.922-12.266-4.448-18.38a48.741,48.741,0,0,1-.89-5.526,78.381,78.381,0,0,1-.874-9.058c-.022-1.3-.442-1.687-1.714-1.7A96.914,96.914,0,0,1,90,245.864l-1.456-.226c-1.434-.232-1.957.064-2.178,1.547-.76,5.025-2.728,9.673-4.669,14.282a75.257,75.257,0,0,0-5.139,18.87,25.361,25.361,0,0,0,.874,11.1,3.093,3.093,0,0,0,3.261,2.5c4.551.145,9.1.5,14.633.836,1.24,0,3.461-.017,5.677,0,2.34.021,4.68.033,7.014.125a3.494,3.494,0,0,0,3.526-2.351,9.255,9.255,0,0,0,.528-4.474,1,1,0,0,0-.857-.971m-33.163-20.79c1.262-3.639,2.8-7.18,4.1-10.809a38.715,38.715,0,0,0,2.194-8.822c.135-1.234-.146-1.644-1.4-1.989q-5.912-1.626-11.834-3.2c-1.375-.366-1.617-.28-2.345.809-.712,1.068-1.353,2.188-2.092,3.235-4.718,6.681-9.349,13.413-13.7,20.343a39.024,39.024,0,0,0-4.41,10.643c-.3,1.1-.086,1.547.879,1.957.642.275,1.316.47,1.979.7a93.751,93.751,0,0,0,9.424,2.722,23.859,23.859,0,0,1,3,.933c.679.254,1,.971.69,1.342a1.105,1.105,0,0,1-1.262.3c-2.685-.8-5.375-1.591-8.055-2.411-2.006-.62-4-1.3-6.012-1.914-.824-.247-1.326.14-1.471.981a8.164,8.164,0,0,0-.07,2.016c.065.959.232,1.915.3,2.868.135,1.87.5,2.14,2.194,2.6,4.739,1.283,9.532,2.312,14.32,3.364,1.073.237,2.151.431,3.2.6,1.752.27,3.424.458,4.874.6.82.076,1.057.109,1.289.119,1.52.054,1.812-.259,1.488-1.854-1.757-8.665-.129-16.973,2.707-25.131M51.743,265.1q4.011-6.405,8.124-12.744c1.461-2.248,3.16-4.341,4.653-6.568.912-1.353,1.656-2.814,2.443-4.243a.729.729,0,0,0-.437-1.116,9.507,9.507,0,0,0-1.316-.469,49.8,49.8,0,0,1-9.872-3.531c-.512-.247-1.03-.474-1.559-.695-.873-.368-1.757-.712-2.631-1.085-.426-.183-.954-.512-1.289-.107-1.494,1.8-3.736,2.318-5.623,3.44a138.9,138.9,0,0,0-21.28,15.338,49.464,49.464,0,0,0-5.909,6.443c-.674.852-.626,1.267.167,2.134a32.8,32.8,0,0,0,9.089,7.052c2.567,1.332,5.16,2.615,7.8,3.8.879.393,1.764.771,2.653,1.142,2.9,1.208,5.952,2.06,8.756,3.008.922.016,1.165-.48,1.369-1.062.965-2.744,1.671-5.618,3.224-8.114q.817-1.311,1.639-2.621M9.42,249.519c-1.822-.1-.965.89-.663,1.634,1.256,3.111,3.731,5.321,5.822,7.812a1.117,1.117,0,0,0,.286.189,1.631,1.631,0,0,0,1.17-.684,56.414,56.414,0,0,1,6.3-6.551,135.957,135.957,0,0,1,18.946-13.791c1.9-1.149,3.833-2.233,5.736-3.375,1.359-.814,1.391-1.5.1-2.275-1.8-1.078-3.7-2.012-5.424-3.2-2.491-1.715-2.383-1.541-4.949-.049-3.531,2.054-7.063,4.108-10.67,6.022A67.989,67.989,0,0,0,11.56,245.556c-1.078,1.009-2.529,1.828-1.962,3.715.022.059-.119.247-.178.247M8.007,245.34a1.185,1.185,0,0,0,1.31-.14c.825-.646,1.612-1.342,2.383-2.06a59.167,59.167,0,0,1,11.651-8.3q5.8-3.242,11.58-6.53a15.881,15.881,0,0,0,1.472-.938.978.978,0,0,0,.1-1.725c-1.94-1.834-4.329-3.164-5.979-5.333A1.171,1.171,0,0,0,29.239,220a5.093,5.093,0,0,0-1.909.782,6.423,6.423,0,0,1-3.413,1.547,5.526,5.526,0,0,0-1.882.9,39.536,39.536,0,0,0-12.81,13.6,12.189,12.189,0,0,0-1.865,6.307,9.672,9.672,0,0,0,.005,1.046,1.289,1.289,0,0,0,.642,1.153" transform="translate(-2.767 -74.657)" fill="#f9cbbf"/>
        <path id="Trazado_777871" data-name="Trazado 777871" d="M194.972,175.4c-.361-3.854-.965-7.683-2.955-11.1a76.866,76.866,0,0,0-7.154-10.384,64.481,64.481,0,0,0-8.12-8.243,10.49,10.49,0,0,1-3.623-5.047,33.827,33.827,0,0,0-1.871-4.534,59.024,59.024,0,0,0-5.969-9.489c-.409-.572-.9-1.132-1.714-1.024-1.094.141-1.408-.485-1.586-1.4a12.958,12.958,0,0,0-3.4-6.415,92.711,92.711,0,0,1-8.923-10.347,12.534,12.534,0,0,0-1.989-1.979,64.147,64.147,0,0,0-8.638-6.561,87.163,87.163,0,0,0-8.157-4.794,2.669,2.669,0,0,1-.6-.344.7.7,0,0,1-.215-.922c.172-.3.328-.614.518-.911,5.23-8.319,10.41-16.675,15.737-24.936.787-1.224,1.526-2.5,2.351-3.7a15.86,15.86,0,0,1,2.879-3.3,16.754,16.754,0,0,0,3.516-4.335c.609-1,1.235-1.989,1.833-2.992a1.263,1.263,0,0,1,1.742-.652c.867.34,1.779.571,2.653.89,2.6.944,4.539-.1,6.2-2.027a8.679,8.679,0,0,0,1.757-3.014,3.28,3.28,0,0,0,.238-1.7c-.642-2.356-1.23-4.69-3.008-6.615a4.258,4.258,0,0,0-4.68-1.462,9.647,9.647,0,0,0-4.259,2.357c-1.974,1.946-2.971,4.172-2.1,6.976.141.447.2.917.346,1.359a2.413,2.413,0,0,1-.4,2.3c-1.613,2.291-3.138,4.653-4.756,6.95-1.045,1.483-2.087,2.976-3.11,4.475-5.985,8.739-11.592,17.722-17.021,26.818-.479.8-1.062,1.541-1.569,2.324a1.441,1.441,0,0,1-2.108.507c-.313-.157-.668-.226-.981-.372a1.333,1.333,0,0,1-.852-1.7c.641-2.248,1.342-4.481,1.962-6.739,1.947-7.074,4.017-14.11,6.276-21.087.259-.814.523-1.628.793-2.436q2.256-6.834,4.464-13.684c.291-.895.518-1.806,1.483-2.243a7.592,7.592,0,0,1,3.872-4.216,4.562,4.562,0,0,0,1.4-1.543,2.394,2.394,0,0,0-.626-3.407,6.652,6.652,0,0,0-6.966-.221,2.021,2.021,0,0,0-.905,2.114,6.479,6.479,0,0,0,1.418,3.164,1.682,1.682,0,0,1,.2,1.639c-1.806,5.807-3.575,11.623-5.391,17.431-.313,1-.636,2.006-.96,3.008-.97,3-1.967,6-2.879,9.025-1.757,5.823-3.418,11.677-5.138,17.512a10.487,10.487,0,0,1-.776,1.947.528.528,0,0,1-.873.064,14,14,0,0,1-1.369-2.016c-3.3-5.974-6.567-11.969-9.888-17.932-.318-.582-.642-1.159-.965-1.741A10.192,10.192,0,0,1,108.774,63c.512-10.525.911-21.048,1.358-31.572.017-.35.027-.706.054-1.057a8.333,8.333,0,0,1,.125-1.04c.3-1.607.63-3.073,2.469-3.893a3.764,3.764,0,0,0,2.248-4.022,5.866,5.866,0,0,0-4.842-4.89,2.314,2.314,0,0,0-2.237.733c-1.693,2.151-2.539,3.957-.469,6.621a7.424,7.424,0,0,0,.981,1,2.042,2.042,0,0,1,.576,1.887c-.075,1.175-.15,2.345-.221,3.521-.258,4.313-.485,8.632-.728,12.945a.132.132,0,0,1,.043.005c-.135,3.623-.237,7.252-.409,10.88-.108,2.221-.313,4.432-.474,6.653-.022.286-.178.464-.442.421-.21-.032-.5-.1-.588-.253-.534-.912-1.052-1.828-1.516-2.771-1.606-3.219-3.219-6.437-4.8-9.672-.528-1.072-1.051-2.157-1.574-3.235-1.93-4-3.752-8.055-5.661-12.066-.641-1.342-.932-2.572.033-3.924.733-1.03.2-2.012-.518-2.863a5.17,5.17,0,0,0-2.324-1.52,2.721,2.721,0,0,0-2.663.372,3.8,3.8,0,0,0-1.812,3.9,3.709,3.709,0,0,0,3.564,2.809,1.957,1.957,0,0,1,2.124,1.31c1.256,2.772,2.534,5.532,3.872,8.26q1.852,3.785,3.709,7.569,3.719,7.562,7.478,15.1a8.634,8.634,0,0,1,.922,4.378c-.146,3.553-.243,7.111-.334,10.669q-.057,2.032-.113,4.071c-.022.588-.033,1.175-.087,1.758-.1,1.068-.561,1.467-1.622,1.251a59.609,59.609,0,0,0-11.878-.77c-1.288-.005-2.571-.005-3.86-.044a1.239,1.239,0,0,1-1.213-1.057,6.193,6.193,0,0,1-.151-1.035q-.2-3.808-.41-7.613-.347-6.542-.7-13.079c-.1-1.9.005-3.7,1.445-5.219a2.274,2.274,0,0,0,.523-2.3,3.16,3.16,0,0,0-2.739-2.356,2.939,2.939,0,0,0-3.343,1.952,2.7,2.7,0,0,0,.884,3.461c1.516,1.029,1.688,2.41,1.78,3.941.275,4.556.561,9.112.792,13.667q.2,3.858.253,7.726c.022,1.877-.135,1.979-1.871,2.255-5.078.809-10.265.738-15.317,1.839-1.024.22-1.747-.464-1.822-1.617-.27-4.076-.491-8.163-.755-12.239-.119-1.871-.3-3.731-.426-5.6-.334-4.787-.679-9.57-.986-14.362-.059-.906-.114-1.817-.173-2.723-.351-5.634-.685-11.263-1.035-16.9-.125-1.989-.275-3.974-.421-5.958-.409-5.477-.857-10.955-1.218-16.438-.156-2.318-.416-4.7,1.477-6.583a1.654,1.654,0,0,0,.275-.641A3.1,3.1,0,0,0,62.407.8,9.2,9.2,0,0,0,59.721.056a2.493,2.493,0,0,0-2.777,2.135c-.28,1.946.038,3.871,1.817,4.966a3.155,3.155,0,0,1,1.623,2.8c.4,4.9.879,9.786,1.315,14.682.259,2.911.523,5.828.739,8.744.437,5.947.869,11.9,1.245,17.852.367,5.72.652,11.451.981,17.177.21,3.736.437,7.472.652,11.214a1.258,1.258,0,0,1,.005.351c-.119.512.221,1.283-.555,1.44-.524.107-.69-.513-.917-.885-.156-.249-.3-.5-.437-.76s-.27-.523-.388-.788c-1.617-3.509-3.331-6.976-4.809-10.539C52.3,54.17,45.3,40.384,39.073,26.253c-2.551-5.78-5.532-11.365-7.823-17.264a3.423,3.423,0,0,1-.141-2.626A4.665,4.665,0,0,0,28.036.217a2.815,2.815,0,0,0-3.607,1.3,4.547,4.547,0,0,0,3.052,7,2.779,2.779,0,0,1,2.372,1.709C32.408,15.615,35,20.985,37.5,26.4c4.821,10.406,9.581,20.839,14.39,31.243,3.493,7.565,6.545,15.329,10.427,22.71h.005c.421.809.852,1.607,1.3,2.4a15.493,15.493,0,0,1,1.3,2.874c.733,2.334.323,3.24-1.661,3.812-.782.226-1.5.653-2.281.911a38.713,38.713,0,0,0-12.368,6.47,2.157,2.157,0,0,1-.3.184.89.89,0,0,1-1.229-.264A20.446,20.446,0,0,1,46.076,94.9q-3.042-5.532-6.087-11.069c-4.243-7.683-8.524-15.344-12.735-23.049-2.7-4.928-5.246-9.931-7.942-14.859-1.682-3.073-3.671-5.98-4.718-9.381a4.262,4.262,0,0,0-1.073-1.768,2.112,2.112,0,0,1-.463-3.03,5.672,5.672,0,0,0-.07-6.028,9.085,9.085,0,0,0-5.526-3.995,3.87,3.87,0,0,0-3.068.4c-1.606.932-3.488,1.763-4,3.72a8.882,8.882,0,0,0,1.974,8.815c1.854,1.995,3.839,2.9,6.539,1.634,1.543-.727,1.688-.571,2.475.842Q19.566,51.846,27.739,66.57c4.616,8.271,9.009,16.665,14.029,24.709,1.239,1.984,2.366,4.038,3.509,6.081.879,1.564.874,1.6-.787,2.642a30.7,30.7,0,0,0-5.445,4.4c-5.694,5.7-9.025,12.718-11.441,20.256a12.993,12.993,0,0,0-.248,1.381,46.021,46.021,0,0,0-.571,15.354,1.409,1.409,0,0,1-.847,1.7A55.274,55.274,0,0,0,15,150.031a32.078,32.078,0,0,0-6.793,7.03c-1.92,2.68-2.847,5.9-4.928,8.471a4.041,4.041,0,0,0-.463,2.01c-.178,1.635-.243,3.273-.453,4.9a21.489,21.489,0,0,1-.852,4.441,3.209,3.209,0,0,0-.146,2.319,4.781,4.781,0,0,1,.162,1.715c-.361,8.6,4.141,14.638,10.551,19.506a61.105,61.105,0,0,0,8.95,5.494,145.359,145.359,0,0,0,18.508,7.515c3.845,1.364,7.882,2.092,11.834,3.09,4.416,1.116,8.864,2.06,13.344,2.76a114.37,114.37,0,0,0,11.926,1.284c5.295.28,10.583.593,15.878.771,3.714.135,7.429.2,11.149.145a28.255,28.255,0,0,1,4.12.588c1.428.183,2.852-.743,4.42-.738a111.473,111.473,0,0,0,16.725-1.5c.593-.086,1.186-.183,1.779-.275a140.384,140.384,0,0,0,23.394-6.14,67.523,67.523,0,0,0,14.876-7.036c2.862-1.839,5.462-4,8.265-5.893a58.825,58.825,0,0,0,11.2-10.061c5.581-6.346,3.9-4.206,6.238-12.25a7.7,7.7,0,0,0,.286-2.777M159.383,41.581a4.389,4.389,0,0,1,4.96-.113A6.29,6.29,0,0,1,167.212,47a2.339,2.339,0,0,1-1.148,1.828,13.524,13.524,0,0,1-1.176.75c-3.412,1.773-6.632.1-7.229-3.748a3.85,3.85,0,0,1,1.725-4.248m-19.177-5.267a1.19,1.19,0,0,1,1.558-.1c.491.28.97.6,1.008,1.251-.161.145-.356.421-.464.394a14.039,14.039,0,0,1-2.184-.733c-.431-.2-.135-.582.081-.809M108.757,20.867a1.645,1.645,0,0,1,1.418-2,2.361,2.361,0,0,1,2.556,2.222c.107,1.046-.809,1.8-2.319,1.909-.954.065-1.531-.679-1.655-2.134m-19.911,9.3c-.733-.022-1.267-.75-1.272-1.737-.005-1,.485-1.661,1.278-1.7a2.154,2.154,0,0,1,2.215,1.714c.038.82-1.175,1.764-2.221,1.726M85.5,56.942a1.009,1.009,0,0,1-.625-.2.81.81,0,0,1-.1-1.213c.469-.3.549.119.738.367.2.264.421.518.642.782a2.13,2.13,0,0,1-.657.265M60.509,5.6c-.809.011-1.514-.857-1.579-1.941a1.327,1.327,0,0,1,1.148-1.45,2.026,2.026,0,0,1,2.065,1.876A1.828,1.828,0,0,1,60.509,5.6M28.09,6.585a2.218,2.218,0,0,1-2.168-2.216c.065-.545,1.381-1.375,2.189-1.38a1.822,1.822,0,0,1,1.509,1.995,1.693,1.693,0,0,1-1.531,1.6M7.456,34.9a2.341,2.341,0,0,1-2.01-.2,7.216,7.216,0,0,1-3.435-5.856,7.415,7.415,0,0,1,1.543-3.7c1.018-1.084,2.151-1.725,3.7-.917.916.474,1.94.739,2.9,1.143a2.832,2.832,0,0,1,1.719,2.426A6.718,6.718,0,0,1,7.456,34.9m117.9,59.4c.194.071.388.146.588.216-.087.178-.146.47-.27.5a.627.627,0,0,1-.545-.221c-.173-.216-.054-.415.226-.491m-2.529,3.176c.129-.447.383-.966.917-.669a1.881,1.881,0,0,1,.7,1.106,1.421,1.421,0,0,1-.194.965c-.571.992-1.186,1.963-1.822,2.922-.108.157-.393.2-.593.3-.049-.216-.178-.447-.13-.636.356-1.332.734-2.664,1.127-3.985m-14.8-18.185c.2-2.879.372-5.45.55-8.017.026-.323.043-.782.452-.744.265.028.566.367.717.636q4.658,8.451,9.268,16.929a.993.993,0,0,1-.011.917,1.223,1.223,0,0,1-.96.14,73.569,73.569,0,0,0-8.9-1.963c-.862-.086-1.1-.788-1.11-1.536-.016-2.222-.006-4.443-.006-6.362M71.691,89.117c4.286-.491,8.588-.862,12.891-1.235,1.444-.123,1.817.2,1.989,1.769.216,1.968.34,3.952.394,5.935.178,6.767.474,13.527,1.192,20.267.032.313.059.625.08.944.054.987.07,2.038.129,3.327.081.739.232,1.9.3,3.057a1.155,1.155,0,0,1-.377.874c-.518.372-.847-.152-1.154-.447a3.25,3.25,0,0,1-.593-.863q-5.257-9.89-10.513-19.781c-1.925-3.6-3.935-7.154-5.834-10.772-1.3-2.485-1.192-2.765,1.494-3.073M32.316,117.083c2.049-3.261,3.58-6.857,6.319-9.672.815-.835,1.537-1.758,2.308-2.637a9.97,9.97,0,0,1,3.9-2.91c2.016-.755,2.442-1.106,3.72,1.084,1.542,2.625,3.138,5.218,4.68,7.839,2.194,3.731,4.362,7.479,6.556,11.209a5.2,5.2,0,0,0,.879,1.066.725.725,0,0,0,.641.141.806.806,0,0,0,.3-.582,4.578,4.578,0,0,0-.928-2.6q-4.763-7.983-9.521-15.975c-.6-1.008-1.181-2.022-1.72-3.062-.663-1.289-.582-1.73.539-2.733a23.713,23.713,0,0,1,2.189-1.763c3.688-2.582,7.92-3.979,12.1-5.493.847-.307,1.348.053,1.413.975.237,3.155.469,6.3.636,9.457.346,6.674,1.693,13.225,2.4,19.857a.546.546,0,0,0,.162.307c.162.15.4.425.524.388a1.517,1.517,0,0,0,.8-.555c.324-.555-.027-1.116-.119-1.688a228.934,228.934,0,0,1-2.82-25.8,19.418,19.418,0,0,1,.076-2.442c.01-.092.388-.254.539-.205a1.011,1.011,0,0,1,.491.47c.194.361.383.727.576,1.089q6.373,12.009,12.729,24.025,2.135,4.026,4.27,8.054c.447.852.949,1.607,2.1,1.559.836-.038.755.69.911,1.218.092.318.178.727.642.679a.907.907,0,0,0,.819-.954,14.039,14.039,0,0,0-.043-2.082q-.412-4.327-.744-8.658-1-13-1.374-26.025c-.1-3.256-.081-3.235,3.229-3.31,3.633-.081,7.246.21,10.863.469.113.011.232.017.346.033,3.4.452,3.725.765,3.752,4.119.037,4.8.01,9.6.01,14.395h-.123c-.146,3.742-.3,7.484-.432,11.226-.053,1.407-.08,2.808-.086,4.216,0,.436.033.906.561,1.127a.621.621,0,0,0,.7-.313,1.527,1.527,0,0,0,.275-.842q.274-12.81.528-25.62c.038-1.877.022-3.748.086-5.618.033-.917.474-1.359,1.311-1.256a35.676,35.676,0,0,1,11.166,2.831c1.617.766,1.957,1.607,1.45,3.444-.593,2.141-1.266,4.26-1.914,6.385a9.693,9.693,0,0,0-.452,1.326c-.594,3.71-2.766,6.62-4.772,9.629q-3.428,5.126-6.841,10.271-2.9,4.36-5.786,8.723a3.38,3.38,0,0,0-.463.933.748.748,0,0,0,.15.626.637.637,0,0,0,.582.1,5.623,5.623,0,0,0,2.481-2.846c2.917-5.348,6.566-10.234,9.818-15.371a4.384,4.384,0,0,1,.711-.772c.071-.07.27-.14.307-.1.13.129.329.329.3.458a45.965,45.965,0,0,1-2.885,7.9,16.407,16.407,0,0,0-1.461,5.019c-.043.394.232.6.6.712.426.124.636-.162.867-.421a.791.791,0,0,0,.189-.3c1.3-5.963,4.265-11.387,5.623-17.328a8.765,8.765,0,0,1,1.461-3.17c1.5-2.087,2.96-4.216,4.443-6.319.549-.776.743-.722,1.4.232,3.1,4.534,5.381,9.543,8.152,14.272,1.714,2.927,3.4,5.865,5.1,8.8a2.469,2.469,0,0,0,.189.291.958.958,0,0,0,1.241.318.787.787,0,0,0,.285-1.186c-1.24-1.984-2.523-3.936-3.726-5.935-3.682-6.119-6.981-12.444-10.136-18.844a1.781,1.781,0,0,1,.27-2.215,1.647,1.647,0,0,1,2.146-.555c.636.285,1.369.377,1.984.695a69.528,69.528,0,0,1,11.274,7.057,47.176,47.176,0,0,1,7.883,8.427,43.913,43.913,0,0,0,4.96,5.435c3.094,2.835,3.844,6.566,4.41,10.416.075.506-.307.83-.7,1.121A15.5,15.5,0,0,1,153.9,132c-4.092.987-8.179,2.054-12.33,2.756-9.111,1.537-18.229,3.089-27.394,4.227a127.835,127.835,0,0,1-36.392-.264c-5.423-.885-10.826-1.812-16.174-3.074a77.274,77.274,0,0,1-20.32-8.513c-3.655-2.081-6.146-5.338-8.815-8.427a1.292,1.292,0,0,1-.156-1.617M27.89,131.268a29.389,29.389,0,0,1,2.082-8.4,12.919,12.919,0,0,1,.981-1.854c.319-.5.75-.437,1.159-.071a1.806,1.806,0,0,1,.238.259c5.391,6.788,12.907,10.325,20.724,13.242,10.374,3.871,21.259,5.435,32.2,6.75,9.505,1.138,18.951.34,28.365-.717,7.084-.8,14.1-2.194,21.167-3.159,4.874-.664,9.7-1.526,14.52-2.5,4.022-.82,8.011-1.742,11.559-3.963a9.171,9.171,0,0,1,1.6-.695c2.049-.782,1.973-.712,3.37,1.046,2.383,2.986,3.715,6.475,5.025,9.979a10.984,10.984,0,0,1,.469,2.394c.076.588.092,1.245.6,1.585,1.471,1,.987,2.217.393,3.376a10.563,10.563,0,0,1-1.483,1.936c-3.682,4.28-8.41,7.025-13.581,9.052a166.776,166.776,0,0,1-16.617,5.585c-2.481.68-4.912,1.581-7.413,2.13a142.762,142.762,0,0,1-19.663,3.009c-.949.069-1.9.135-2.847.183a73.582,73.582,0,0,1-9.118.308,98.979,98.979,0,0,1-14.141-1.121,107.043,107.043,0,0,1-10.816-2.233c-2.642-.685-5.283-1.348-7.925-2.037-2.905-.76-5.806-1.548-8.675-2.432a90.179,90.179,0,0,1-8.523-3.074A60.135,60.135,0,0,1,40.113,153.6c-2.1-1.488-4.087-3.138-6.232-4.55a12.968,12.968,0,0,1-5.565-8.967,31.838,31.838,0,0,1-.426-8.82M8.793,170.9a67.982,67.982,0,0,1,14.514-10.308c3.607-1.915,7.139-3.969,10.67-6.022,2.566-1.493,2.459-1.666,4.949.049,1.725,1.191,3.624,2.124,5.424,3.2,1.293.776,1.262,1.462-.1,2.276-1.9,1.142-3.838,2.226-5.737,3.375a135.957,135.957,0,0,0-18.945,13.792,56.46,56.46,0,0,0-6.3,6.551,1.629,1.629,0,0,1-1.17.684,1.127,1.127,0,0,1-.286-.188c-2.092-2.491-4.567-4.7-5.823-7.812-.3-.745-1.159-1.737.664-1.635.059,0,.2-.188.178-.247-.567-1.887.884-2.706,1.962-3.715m-4.2-2.416a12.194,12.194,0,0,1,1.865-6.307,39.545,39.545,0,0,1,12.81-13.6,5.521,5.521,0,0,1,1.882-.9,6.425,6.425,0,0,0,3.413-1.547,5.1,5.1,0,0,1,1.909-.783,1.17,1.17,0,0,1,1.288.313c1.65,2.168,4.038,3.5,5.979,5.332a.979.979,0,0,1-.1,1.725,16.072,16.072,0,0,1-1.472.939q-5.79,3.275-11.58,6.53a59.167,59.167,0,0,0-11.652,8.3c-.77.717-1.558,1.413-2.383,2.06a1.183,1.183,0,0,1-1.31.14,1.289,1.289,0,0,1-.642-1.153,9.823,9.823,0,0,1-.005-1.047m3.575,22.839c-.819,1.5-1.262,1.59-2.087.237a18.033,18.033,0,0,1-2.836-9.914c.1-1.176.125-2,.253-2.8.07-.431.232-1.084.529-1.2.722-.286.9.507,1.153.944,1.343,2.351,3.3,4.211,4.955,6.309a2.069,2.069,0,0,1,.108,2.8c-.772,1.154-1.407,2.4-2.076,3.624m35.2,20.406a.756.756,0,0,1-.975.717,13.538,13.538,0,0,1-2.378-.566c-5.139-1.9-10.357-3.6-15.334-5.914a69.2,69.2,0,0,1-12.293-7.349c-.28-.21-.544-.436-.814-.669C9,195.756,8.939,195.5,10.05,192.289a22.068,22.068,0,0,1,.814-2.3c1.057-2.194,1.764-2.367,3.531-.646a45.64,45.64,0,0,0,13.764,8.825c.874.383,1.747.776,2.621,1.165,3.6,1.612,7.192,3.219,10.923,4.524,1.531.534,1.606.717,1.628,2.281.006.464-.032.932-.043,1.4-.011.344-.005.695-.005,1.045h.1c0,1.051.037,2.1-.011,3.149m-.625-9.488c-2.8-.949-5.855-1.8-8.756-3.008-.889-.372-1.773-.75-2.653-1.143-2.636-1.181-5.229-2.464-7.8-3.8a32.8,32.8,0,0,1-9.089-7.052c-.793-.867-.842-1.283-.168-2.134a49.535,49.535,0,0,1,5.909-6.443,138.971,138.971,0,0,1,21.281-15.338c1.887-1.121,4.129-1.645,5.623-3.44.334-.4.862-.076,1.288.107.873.373,1.758.717,2.631,1.085.529.221,1.046.447,1.559.695a49.792,49.792,0,0,0,9.871,3.532,9.486,9.486,0,0,1,1.316.469.729.729,0,0,1,.436,1.116c-.787,1.429-1.531,2.89-2.442,4.243-1.493,2.227-3.192,4.32-4.653,6.568q-4.124,6.34-8.124,12.745-.826,1.311-1.639,2.621c-1.553,2.5-2.26,5.369-3.225,8.114-.2.582-.447,1.078-1.369,1.063m28.348,16.4c-.231-.011-.469-.043-1.288-.119-1.451-.146-3.122-.334-4.874-.6-1.052-.168-2.13-.361-3.2-.6-4.788-1.052-9.58-2.082-14.319-3.364-1.7-.459-2.06-.728-2.195-2.6-.07-.954-.237-1.909-.3-2.869a8.164,8.164,0,0,1,.07-2.016c.145-.841.647-1.229,1.471-.981,2.012.615,4.006,1.294,6.011,1.915,2.68.819,5.37,1.607,8.055,2.41a1.105,1.105,0,0,0,1.262-.3c.307-.372-.011-1.089-.691-1.342a23.832,23.832,0,0,0-3-.933,93.593,93.593,0,0,1-9.424-2.722c-.664-.226-1.338-.421-1.979-.7-.965-.409-1.181-.852-.879-1.957a39.031,39.031,0,0,1,4.41-10.643c4.351-6.929,8.982-13.662,13.7-20.342.739-1.047,1.38-2.167,2.092-3.235.727-1.089.97-1.175,2.345-.809q5.921,1.584,11.834,3.2c1.251.346,1.531.755,1.4,1.989a38.746,38.746,0,0,1-2.194,8.821c-1.305,3.628-2.842,7.17-4.1,10.809-2.836,8.158-4.465,16.466-2.707,25.13.324,1.6.033,1.908-1.488,1.855m37.687-.75a3.493,3.493,0,0,1-3.526,2.351c-2.334-.092-4.674-.1-7.014-.124-2.216-.022-4.438-.005-5.677-.005-5.532-.335-10.083-.691-14.633-.836a3.092,3.092,0,0,1-3.262-2.5,25.362,25.362,0,0,1-.873-11.1,75.249,75.249,0,0,1,5.138-18.87c1.941-4.609,3.909-9.257,4.669-14.283.222-1.483.744-1.779,2.179-1.547l1.456.226a96.832,96.832,0,0,0,13.171,1.272c1.273.017,1.693.4,1.714,1.7a78.5,78.5,0,0,0,.873,9.058,48.722,48.722,0,0,0,.89,5.526c1.526,6.114,2.544,12.357,4.448,18.38.07.221.14.447.188.674.512,2.475.216,2.9-2.313,2.933-6.313.092-12.621.373-18.935.081-.7-.032-1.4-.021-2.1-.01-1.591.027-2.529.382-2.3.857.528,1.057,1.6.879,2.469.911,2.561.086,5.133.081,7.7.038,4.556-.075,9.112-.2,13.668-.3a9.821,9.821,0,0,1,1.741.113,1,1,0,0,1,.857.971,9.254,9.254,0,0,1-.528,4.474M107.614,195.8c-.987-4.087-2-8.173-2.8-12.3a42.447,42.447,0,0,1-.944-8.7c.027-1.806.491-2.269,2.286-2.421,2.512-.2,5.025-.41,7.538-.6,1.8-.135,3.6-.253,5.391-.35,1.531-.081,3-.415,4.5-.62a1.673,1.673,0,0,1,1.979,1.057c.226.534.539,1.035.782,1.564,3.671,8.1,8.076,15.813,12.438,23.55,1.142,2.027,2.113,4.162,3.105,6.281.383.809.14,1.294-.7,1.671a44.653,44.653,0,0,1-7.716,2.3,134.924,134.924,0,0,1-15.166,2.75c-.285.038-.576.071-.867.092-.873.076-1.752.108-2.626.173v.086c-.82,0-1.634.033-2.453-.01a1.484,1.484,0,0,1-1.445-1.267c-1.1-4.416-2.248-8.826-3.31-13.252m35.826,18.741a2.24,2.24,0,0,1-1.865,1.38c-3.639.836-7.247,1.844-10.918,2.464-.637.108-1.268.211-1.9.307-4.443.674-8.922,1.084-13.425,1.338-.7,0-1.4-.011-2.1,0-2.378.038-2.372.043-1.968-2.512a15.249,15.249,0,0,0,.232-2.087c.059-3.763-.086-2.992,3.579-3.677.83-.157,1.666-.254,2.508-.335,1.6-.15,3.2-.221,4.8-.42a121.726,121.726,0,0,0,17.765-3.931c.447-.129.873-.334,1.326-.453,1.2-.313,1.817,0,2.195,1.073a9.995,9.995,0,0,1-.226,6.853m.479-11.608c-.123-.2-.21-.415-.318-.625q-6.648-12.324-13.285-24.666c-.938-1.747-1.78-3.548-2.567-5.369-.571-1.327-.253-1.984,1.111-2.324,1.919-.474,3.882-.776,5.806-1.229,3.747-.879,7.429-2,11.085-3.23,1.876-.636,3.8-1.159,5.72-1.65,1.456-.367,1.8-.173,2.529,1.154,1.52,2.755,3.046,5.515,4.534,8.291a55.179,55.179,0,0,0,4.318,6.794,67.845,67.845,0,0,1,5.074,7.973c.215.4.383.842.544,1.2a2.684,2.684,0,0,1-.3.727,11.036,11.036,0,0,1-1.213,1.251,66.932,66.932,0,0,1-19.847,11.619c-.657.242-1.337.421-2.016.6a1.011,1.011,0,0,1-1.175-.518m24.661,2.044a81.945,81.945,0,0,1-18.79,8.518,18.513,18.513,0,0,1-2.043.507c-.906.189-1.4-.124-1.332-1.041a14.272,14.272,0,0,0-1.024-6.168c-.373-.975-.054-1.542.932-1.925,1.413-.55,2.852-1.041,4.281-1.558,5.575-2.016,10.351-5.381,15.031-8.907.371-.281.744-.566,1.1-.863,3.3-2.739,2.857-2.3,4.6,1.3a8.473,8.473,0,0,1,.771,3.682,7.222,7.222,0,0,1-3.536,6.454m18.994-15.62c-3.493,4.324-7.845,7.667-12.346,10.826-.8.567-1.353.307-1.343-.669a15.693,15.693,0,0,0-1.962-7.709c-.847-1.591-.707-1.855.588-3,2.874-2.572,5.758-5.127,8.626-7.71a2.163,2.163,0,0,0,.571-.846.738.738,0,0,0-.248-.927c-.178-.108-.512-.195-.636-.1a40.891,40.891,0,0,0-3.31,2.534c-1.477,1.32-2.842,2.777-4.313,4.119a17.438,17.438,0,0,1-2.243,1.644.847.847,0,0,1-1.219-.28c-.4-.572-.787-1.16-1.132-1.774a68.14,68.14,0,0,0-4.448-6.717,104.264,104.264,0,0,1-8.227-14.25c-.722-1.419-.388-2.022,1.1-2.7,1.909-.879,3.806-1.785,5.72-2.647a25.877,25.877,0,0,0,6.955-4.659c1.9-1.747,3.791-3.44,4.826-5.9.463-1.095.867-1.1,1.924-.432a20.843,20.843,0,0,1,4.384,4.011,92.629,92.629,0,0,1,8.89,12.153,23.847,23.847,0,0,1,3.2,10.923c.026,5.935-2.205,10.211-5.36,14.12" transform="translate(0 -0.001)" fill="#351b1b"/>
      </g>
    </g>
  </g>
</svg>
